<svg xmlns="http://www.w3.org/2000/svg" xmlns:xlink="http://www.w3.org/1999/xlink" width="103" height="103" viewBox="0 0 103 103">
  <defs>
    <filter id="Trazado_978624" x="0" y="0" width="103" height="103" filterUnits="userSpaceOnUse">
      <feOffset dy="3" input="SourceAlpha"/>
      <feGaussianBlur stdDeviation="3" result="blur"/>
      <feFlood flood-opacity="0.161"/>
      <feComposite operator="in" in2="blur"/>
      <feComposite in="SourceGraphic"/>
    </filter>
  </defs>
  <g id="Grupo_1209015" data-name="Grupo 1209015" transform="translate(-1294 -600)">
    <g id="Grupo_1206190" data-name="Grupo 1206190" transform="translate(1103 305)">
      <g id="Grupo_1182731" data-name="Grupo 1182731" transform="translate(0 -18)">
        <g id="Grupo_1179559" data-name="Grupo 1179559" transform="translate(200 319)">
          <g id="Grupo_1144531" data-name="Grupo 1144531">
            <g transform="matrix(1, 0, 0, 1, -9, -6)" filter="url(#Trazado_978624)">
              <g id="Trazado_978624-2" data-name="Trazado 978624" transform="translate(9 6)" fill="#f5fcec">
                <path d="M 42.5 83.5 C 36.96437835693359 83.5 31.59512901306152 82.41617584228516 26.54141235351562 80.27863311767578 C 21.65934181213379 78.21369171142578 17.27447128295898 75.25723266601562 13.50862312316895 71.49137878417969 C 9.742764472961426 67.72553253173828 6.786305904388428 63.34066009521484 4.721364498138428 58.45858764648438 C 2.583823442459106 53.40486907958984 1.5 48.03562164306641 1.5 42.5 C 1.5 36.96437835693359 2.583823442459106 31.59512901306152 4.721364498138428 26.54141235351562 C 6.786305904388428 21.65934181213379 9.742764472961426 17.27447128295898 13.50862312316895 13.50862312316895 C 17.27447128295898 9.742764472961426 21.65934181213379 6.786305904388428 26.54141235351562 4.721364498138428 C 31.59512901306152 2.583823442459106 36.96437835693359 1.5 42.5 1.5 C 48.03562164306641 1.5 53.40486907958984 2.583823442459106 58.45858764648438 4.721364498138428 C 63.34066009521484 6.786305904388428 67.72553253173828 9.742764472961426 71.49137878417969 13.50862312316895 C 75.25723266601562 17.27447128295898 78.21369171142578 21.65934181213379 80.27863311767578 26.54141235351562 C 82.41617584228516 31.59512901306152 83.5 36.96437835693359 83.5 42.5 C 83.5 48.03562164306641 82.41617584228516 53.40486907958984 80.27863311767578 58.45858764648438 C 78.21369171142578 63.34066009521484 75.25723266601562 67.72553253173828 71.49137878417969 71.49137878417969 C 67.72553253173828 75.25723266601562 63.34066009521484 78.21369171142578 58.45858764648438 80.27863311767578 C 53.40486907958984 82.41617584228516 48.03562164306641 83.5 42.5 83.5 Z" stroke="none"/>
                <path d="M 42.5 3 C 37.16621398925781 3 31.99356079101562 4.043960571289062 27.125732421875 6.102882385253906 C 22.42246627807617 8.092185974121094 18.19785308837891 10.94070434570312 14.56928253173828 14.56928253173828 C 10.94070434570312 18.19785308837891 8.092185974121094 22.42246627807617 6.102882385253906 27.125732421875 C 4.043960571289062 31.99356079101562 3 37.16621398925781 3 42.5 C 3 47.83378601074219 4.043960571289062 53.00643920898438 6.102882385253906 57.87425231933594 C 8.092185974121094 62.57753372192383 10.94070434570312 66.80213165283203 14.56928253173828 70.43071746826172 C 18.19786834716797 74.05929565429688 22.42246627807617 76.90781402587891 27.125732421875 78.89711761474609 C 31.99356079101562 80.95603942871094 37.16621398925781 82 42.5 82 C 47.83378601074219 82 53.00642395019531 80.95603942871094 57.87425231933594 78.89711761474609 C 62.57753372192383 76.90781402587891 66.80213165283203 74.05929565429688 70.43071746826172 70.43071746826172 C 74.05929565429688 66.80213165283203 76.90781402587891 62.57753372192383 78.89711761474609 57.87425231933594 C 80.95603942871094 53.00642395019531 82 47.83378601074219 82 42.5 C 82 37.16621398925781 80.95603942871094 31.99356079101562 78.89711761474609 27.125732421875 C 76.90781402587891 22.42246627807617 74.05929565429688 18.19786834716797 70.43071746826172 14.56928253173828 C 66.80213165283203 10.94070434570312 62.57753372192383 8.092185974121094 57.87425231933594 6.102882385253906 C 53.00643920898438 4.043960571289062 47.83378601074219 3 42.5 3 M 42.5 0 C 65.97209167480469 0 85 19.02789306640625 85 42.5 C 85 65.97209167480469 65.97209167480469 85 42.5 85 C 19.02789306640625 85 0 65.97209167480469 0 42.5 C 0 19.02789306640625 19.02789306640625 0 42.5 0 Z" stroke="none" fill="#5a812d"/>
              </g>
            </g>
          </g>
        </g>
      </g>
    </g>
    <g id="escritura" transform="translate(1301.829 550.624)">
      <path id="Trazado_1079560" data-name="Trazado 1079560" d="M78.6,189.916v-20.38H72.773l-3.8-5.7a26.408,26.408,0,0,0-21.987-11.768H30.557l-13.35,13.352a4.116,4.116,0,0,0,2.91,7.028h0a4.121,4.121,0,0,0,2.911-1.205l3.16-3.162,1.119,3.73a19.275,19.275,0,0,0,18.466,13.739H66.95Z" transform="translate(-13.089 -72.096)" fill="#f8c09c"/>
      <g id="Grupo_1209014" data-name="Grupo 1209014" transform="translate(0 125.098)">
        <path id="Trazado_1079561" data-name="Trazado 1079561" d="M32.026,402.978H1.456a1.456,1.456,0,0,1,0-2.911h30.57a1.456,1.456,0,0,1,0,2.911Z" transform="translate(0 -400.067)" fill="#5a6570"/>
        <path id="Trazado_1079562" data-name="Trazado 1079562" d="M202.911,402.978h-1.456a1.456,1.456,0,1,1,0-2.911h1.456a1.456,1.456,0,0,1,0,2.911Z" transform="translate(-163.607 -400.067)" fill="#5a6570"/>
      </g>
      <path id="Trazado_1079563" data-name="Trazado 1079563" d="M102.305,204.943A13.711,13.711,0,0,0,91.8,200.011H79.279L72,207.3l1.119,3.73a19.275,19.275,0,0,0,18.466,13.739h13.9v-11.05A13.707,13.707,0,0,0,102.305,204.943Z" transform="translate(-58.899 -111.316)" fill="#ef937d"/>
      <path id="Trazado_1079564" data-name="Trazado 1079564" d="M64.289,73.272,18.911,118.65,16,127.384l8.734-2.911L70.112,79.1a4.117,4.117,0,0,0-5.823-5.823Z" transform="translate(-13.089 -6.653)" fill="#f6f6e7"/>
      <path id="Trazado_1079565" data-name="Trazado 1079565" d="M402.911,325.89a2.911,2.911,0,1,1,2.911-2.911A2.911,2.911,0,0,1,402.911,325.89Z" transform="translate(-327.214 -209.526)" fill="#d1e3ee"/>
      <path id="Trazado_1079566" data-name="Trazado 1079566" d="M48,155a5.823,5.823,0,0,1,5.823,5.823L88.76,125.89l-5.823-5.823Z" transform="translate(-39.266 -45.919)" fill="#31b1ae"/>
      <path id="Trazado_1079567" data-name="Trazado 1079567" d="M186.348,261.9v-20.38H170.335l-5.823-1.456h-14.2a4.367,4.367,0,1,0,0,8.734h9.836l2.5,4.367,1.512,2.647a12.082,12.082,0,0,0,10.49,6.088Z" transform="translate(-119.385 -144.083)" fill="#f8c09c"/>
      <path id="Trazado_1079568" data-name="Trazado 1079568" d="M360,216.067h20.38v29.114H360Z" transform="translate(-294.493 -124.451)" fill="#ee8eb4"/>
      <path id="Trazado_1079569" data-name="Trazado 1079569" d="M240,100.449l4.367-4.368,5.823,5.823-4.368,4.368Z" transform="translate(-196.331 -26.298)" fill="#ffd884"/>
      <path id="Trazado_1079570" data-name="Trazado 1079570" d="M92.318,90.161H71.938a1.456,1.456,0,0,0-1.456,1.456v4.367H66.894l-3.369-5.053a27.842,27.842,0,0,0-5.053-5.7,28.163,28.163,0,0,0-3.335-2.411l9.346-9.346a5.572,5.572,0,0,0-7.831-7.93l-.05.05-3.16,3.159-4.367,4.367-5.658,5.66a1.454,1.454,0,0,0-.456-.138c-.873-.082-1.76-.124-2.633-.124H23.9a1.456,1.456,0,0,0-1.029.427L9.518,92.293a5.572,5.572,0,1,0,7.831,7.93l.05-.05,1.438-1.437.419,1.395a20.385,20.385,0,0,0,.748,2.057l-5.868,5.867-2.911,2.911a1.471,1.471,0,0,0-.351.569l-2.911,8.734a1.456,1.456,0,0,0,1.379,1.917,1.483,1.483,0,0,0,.461-.074l8.734-2.911a1.456,1.456,0,0,0,.568-.352l2.911-2.911L27,110.956a20.444,20.444,0,0,0,12.119,3.952H51.558a1.306,1.306,0,0,0,.185-.038,13.457,13.457,0,0,0,3.891,2.977,13.607,13.607,0,0,0,6.054,1.428h8.794v1.456a1.456,1.456,0,0,0,1.456,1.456h20.38a1.456,1.456,0,0,0,1.456-1.456V91.616a1.456,1.456,0,0,0-1.456-1.456ZM58.66,67.648a2.662,2.662,0,0,1,3.764,3.766l-2.133,2.131-3.764-3.764Zm-4.191,4.191L58.234,75.6l-2.309,2.309-3.764-3.764ZM15.341,98.116a2.662,2.662,0,0,1-3.764-3.766L24.5,81.426H40.327c.146,0,.279.017.419.02l-5.8,5.8H26.811a1.456,1.456,0,0,0-1.029.427Zm16.69-7.955-9.753,9.753c-.071-.208-.164-.413-.227-.623l-.873-2.9,6.236-6.232ZM17.29,116.547l-5.647,1.882,1.882-5.647L15.71,110.6a4.345,4.345,0,0,1,3.764,3.764Zm4.542-4.542a7.323,7.323,0,0,0-3.764-3.764L36.573,89.736,50.1,76.206l3.764,3.764L39.31,94.528H37.353a5.792,5.792,0,0,0-5.532,7.558,1.383,1.383,0,0,0-.221.146ZM39.117,112a17.631,17.631,0,0,1-10.036-3.123l4.293-4.294a5.849,5.849,0,0,0,3.978,1.594h8.993L49.673,112Zm31.365,4.367H61.688a10.627,10.627,0,0,1-9.226-5.354l-4.008-7.019a1.456,1.456,0,0,0-1.264-.728H37.353a2.911,2.911,0,0,1,0-5.823h14.2a1.456,1.456,0,1,0,0-2.911H43.426l9.6-9.6A24.206,24.206,0,0,1,61.1,92.545l3.8,5.7a1.456,1.456,0,0,0,1.211.648h4.367Zm20.38,2.911H73.394v-26.2H90.862Z" transform="translate(-6.431)"/>
      <circle id="Elipse_13121" data-name="Elipse 13121" cx="2.911" cy="2.911" r="2.911" transform="translate(72.786 110.541)"/>
      <path id="Trazado_1079571" data-name="Trazado 1079571" d="M32.026,400.067H1.456a1.456,1.456,0,0,0,0,2.911h30.57a1.456,1.456,0,0,0,0-2.911Z" transform="translate(0 -274.969)"/>
      <path id="Trazado_1079572" data-name="Trazado 1079572" d="M202.911,402.978a1.456,1.456,0,0,0,0-2.911h-1.456a1.456,1.456,0,1,0,0,2.911Z" transform="translate(-163.607 -274.969)"/>
    </g>
  </g>
</svg>
