<svg xmlns="http://www.w3.org/2000/svg" xmlns:xlink="http://www.w3.org/1999/xlink" width="400" height="267" viewBox="0 0 400 267">
  <defs>
    <clipPath id="clip-path">
      <rect id="Rectángulo_417858" data-name="Rectángulo 417858" width="400" height="267" transform="translate(180 917)" fill="#fff" stroke="#707070" stroke-width="1"/>
    </clipPath>
    <clipPath id="clip-path-2">
      <rect id="Rectángulo_417848" data-name="Rectángulo 417848" width="29.108" height="12.952" fill="none"/>
    </clipPath>
  </defs>
  <g id="Enmascarar_grupo_1098877" data-name="Enmascarar grupo 1098877" transform="translate(-180 -917)" clip-path="url(#clip-path)">
    <g id="Grupo_1209187" data-name="Grupo 1209187">
      <g id="Grupo_1209184" data-name="Grupo 1209184">
        <circle id="Elipse_13124" data-name="Elipse 13124" cx="171.5" cy="171.5" r="171.5" transform="translate(203 963)" fill="#f9ecff" opacity="0.57"/>
        <g id="Grupo_1209183" data-name="Grupo 1209183" transform="translate(2107.325 -1104)">
          <rect id="Rectángulo_417857" data-name="Rectángulo 417857" width="401.651" height="96.206" transform="translate(-1928.976 2269.656)" fill="#ffd6bb"/>
          <path id="Trazado_1080007" data-name="Trazado 1080007" d="M272.213,243.177c-17.937,15.951-38.6,1.407-38.6,1.407a160.721,160.721,0,0,0,4.23-21.563c.731-5.364,1.089-9.226,1.089-9.226l26.534-.968a48.4,48.4,0,0,0,1.485,11.589c1.989,9.057,5.257,18.761,5.257,18.761" transform="translate(-1974.949 1922.113)" fill="#a05635"/>
          <g id="Grupo_1209182" data-name="Grupo 1209182" transform="translate(-1737.102 2134.941)" opacity="0.42" style="mix-blend-mode: multiply;isolation: isolate">
            <g id="Grupo_1209179" data-name="Grupo 1209179">
              <g id="Grupo_1209178" data-name="Grupo 1209178" clip-path="url(#clip-path-2)">
                <path id="Trazado_1079838" data-name="Trazado 1079838" d="M267.983,224.416a54.036,54.036,0,0,1-29.108-1.394c.731-5.365,1.089-9.226,1.089-9.226l26.534-.967a48.4,48.4,0,0,0,1.485,11.588" transform="translate(-238.875 -212.828)" fill="#a05635"/>
              </g>
            </g>
          </g>
          <path id="Trazado_1080008" data-name="Trazado 1080008" d="M225.337,119.223a5.862,5.862,0,0,0,1.5-7.84c2.09-1.157,3.8-3.341,3.656-5.726s-2.74-4.523-4.956-3.626a9.449,9.449,0,0,0,.447-11.277c-1.517-2.11-4.34-3.552-6.754-2.588a2.593,2.593,0,0,0,2.1-2.983,5.222,5.222,0,0,0-2.267-3.284,11.345,11.345,0,0,0-10.548-1.51A7.534,7.534,0,0,0,194.5,79.6c-2.952-3.414-8.567-3.385-12.388-.984s-6.163,6.562-7.892,10.731c-4.227-1.629-9.428,1.621-10.379,6.051-.524,2.443.634,5.524,3.1,5.939A9.364,9.364,0,0,0,165.2,118.86a11.112,11.112,0,0,0-2.576,11.055,6.059,6.059,0,0,0,2.537,3.466,3.26,3.26,0,0,0,4.015-.5,10.9,10.9,0,0,0,1.427,7.241c1.417,2.074,4.224,3.329,6.548,2.375.7-.286,1.476-.756,2.147-.407a2.362,2.362,0,0,1,.8.933,8.711,8.711,0,0,0,6.935,3.827,12.836,12.836,0,0,0,7.731-2.393,1.7,1.7,0,0,1,.921-.4c.57,0,.943.573,1.4.916,1.088.819,2.7.3,3.721-.6s1.718-2.13,2.763-3a1.915,1.915,0,0,1,1.064-.513,2.9,2.9,0,0,1,1.345.439,5.775,5.775,0,0,0,7.479-2.905c1.567-3.786,6.513-6.486,9.171-9.605,1.975-2.319,2.057-6.595,2.716-9.568" transform="translate(-1960.54 1949.008)"/>
          <path id="Trazado_1080009" data-name="Trazado 1080009" d="M275.832,117.508a5.862,5.862,0,0,1-2.067-7.71c-2.169-1-4.033-3.056-4.064-5.445s2.4-4.71,4.679-3.978a9.45,9.45,0,0,1-1.268-11.215c1.359-2.216,4.07-3.859,6.548-3.074a2.593,2.593,0,0,1-2.315-2.822,5.224,5.224,0,0,1,2.022-3.44,11.346,11.346,0,0,1,10.411-2.275,7.534,7.534,0,0,1,13.928-1.809c2.7-3.62,8.3-4,12.283-1.883s6.625,6.095,8.652,10.128c4.1-1.933,9.522.93,10.792,5.279.7,2.4-.23,5.555-2.657,6.149a9.363,9.363,0,0,1,3.009,17.353,11.109,11.109,0,0,1,3.374,10.838,6.057,6.057,0,0,1-2.277,3.642,3.259,3.259,0,0,1-4.041-.2,10.9,10.9,0,0,1-.9,7.327c-1.262,2.172-3.971,3.627-6.357,2.845-.719-.235-1.528-.647-2.172-.249a2.351,2.351,0,0,0-.727.988,8.711,8.711,0,0,1-6.638,4.322,12.839,12.839,0,0,1-7.883-1.823,1.7,1.7,0,0,0-.948-.327c-.569.047-.9.64-1.329,1.015-1.026.9-2.672.5-3.755-.328s-1.868-2-2.975-2.794a1.911,1.911,0,0,0-1.1-.434,2.892,2.892,0,0,0-1.309.534,5.774,5.774,0,0,1-7.671-2.353c-1.839-3.663-6.968-5.994-9.846-8.912-2.139-2.169-2.532-6.427-3.405-9.345" transform="translate(-1982 1949.664)"/>
          <path id="Trazado_1080010" data-name="Trazado 1080010" d="M245.868,121.615c16.035-1.356,39.08,7.443,34.468,44.725-3.836,31.009-17.928,36.238-26.747,36.985-11.805,1-28.264-.032-33.518-33.5s8.962-46.784,25.8-48.209" transform="translate(-1972.085 1939.961)" fill="#a05635"/>
          <path id="Trazado_1080011" data-name="Trazado 1080011" d="M311.477,333.833c-4.023,8.238-12.038,16.107-27.043,19.923a86.2,86.2,0,0,1-20.846,2.411l-2.6-8.15c0-.016,0-.024-.01-.032L256.524,334a.149.149,0,0,0-.018-.056l-3.827-12,15.964-3.8-.587-3.272-.422-2.327-73.171,2.667.268.933.589,2.024.064.231,2.757.528,7.785,1.5-1.035,37.879s-15.951,1.725-30.883-1.048c-6.063-1.131-11.968-3-16.555-6.03-5.322-3.51-8.888-8.565-8.95-15.825a66.76,66.76,0,0,1,.559-8.732,139.916,139.916,0,0,1,5.483-24.048c1.861-5.945,4.072-11.992,6.524-17.83a171.275,171.275,0,0,1,10.737-21.542,77.879,77.879,0,0,1,10.911-14.737c2.859-2.874,5.661-4.844,8.305-5.641,15.131-4.577,23.494,3.975,23.494,3.975l1.215-3.329,3.681-10.126s14.56,4.719,33.039-1.2l2.392,11.3.739,3.475s6.885-9.913,20.7-6.39c3.535.9,7.563,5.159,11.639,11.178a143.692,143.692,0,0,1,8.724,15.124c2.446,4.815,4.8,9.865,6.931,14.772,2.02,4.612,3.851,9.1,5.424,13.159,2.418,6.249,4.2,11.457,5.027,14.454.083.279.157.542.214.781a36.8,36.8,0,0,1-2.764,23.8" transform="translate(-1958.318 1918.33)" fill="#f27fff"/>
          <path id="Trazado_1080012" data-name="Trazado 1080012" d="M271.17,243.484c-7.023,1.464-14.365,1.506-21.572,1.254q-7.655-.276-15.292-.964c-.743-.07-1.5-.139-2.248-.257l3.681-10.126s14.559,4.719,33.039-1.2Z" transform="translate(-1974.644 1918.33)" fill="#bc3500"/>
          <path id="Trazado_1080013" data-name="Trazado 1080013" d="M302.3,270.836c-14.162,3.769-28.881,5.046-43.533,5.315a327.228,327.228,0,0,1-81.307-8.936,77.88,77.88,0,0,1,10.912-14.737,444.776,444.776,0,0,0,48.063,6.089c6.321.462,12.662.795,19,.748,12.782-.1,25.482-1.782,38.137-3.6a143.526,143.526,0,0,1,8.724,15.124" transform="translate(-1963.977 1914.365)" fill="#bc3500"/>
          <path id="Trazado_1080014" data-name="Trazado 1080014" d="M310.467,306.812c-6.04.172-11.916,2.423-17.79,4.079-19.486,5.469-40.106,4.345-60.355,4.592-15.572.189-31.147,1.216-46.711.744-9.7-.3-19.785-.752-29.6-1.594,1.86-5.945,4.071-11.992,6.524-17.83,26.741,6.263,54.905,4.061,82.39,1.8l60.117-4.945c2.02,4.612,3.85,9.1,5.423,13.159" transform="translate(-1959.786 1906.32)" fill="#bc3500"/>
          <path id="Trazado_1080015" data-name="Trazado 1080015" d="M196.2,336.608a1.864,1.864,0,0,0,.524,1.117l-1.406.51c-8.613,3.14-17.361,6.575-23.983,12.878a64.423,64.423,0,0,0-9.069,11.611,52.547,52.547,0,0,0-4.816,8.572c-5.321-3.51-8.887-8.563-8.95-15.824a66.893,66.893,0,0,1,.559-8.732q3.122-2.154,6.456-4c11.879-6.544,26.105-9.864,39.214-6.534.5.119.983.254,1.472.4" transform="translate(-1958.318 1898.26)" fill="#bc3500"/>
          <path id="Trazado_1080016" data-name="Trazado 1080016" d="M208.786,338.858a4.233,4.233,0,0,0-.348-.471c.016-.008.04-.009.056-.018-.039-.385.488.819.291.488" transform="translate(-1970.029 1897.597)" fill="#bc3500"/>
          <path id="Trazado_1080017" data-name="Trazado 1080017" d="M212.121,341.492l-1.036,37.879s-15.951,1.725-30.883-1.048c.905-4.582,3.1-8.962,5.26-13.171a78.2,78.2,0,0,1,7.764-12.973c3.055-4.12,7.012-7.977,10.548-11.68a5.485,5.485,0,0,1,.562-.512Z" transform="translate(-1964.512 1897.266)" fill="#bc3500"/>
          <path id="Trazado_1080018" data-name="Trazado 1080018" d="M309.318,373.625a86.2,86.2,0,0,1-20.846,2.411l-2.6-8.15c0-.016,0-.024-.01-.032a80.44,80.44,0,0,0-3.256-10.919c-.383-1.025-.783-2.049-1.2-3.065a.135.135,0,0,0-.018-.056q-1.525-3.737-3.248-7.385c-1.153-2.47-2.936-5.215-2.049-8.057,1.925-6.173,11.907-4.451,16.532-3.686.105.02.211.032.316.052a9.483,9.483,0,0,1,4,1.409,10.658,10.658,0,0,1,3.086,4.509c2.757,6.067,5.542,12.2,6.867,18.742.953,4.716,1.139,9.62,2.427,14.227" transform="translate(-1983.202 1898.461)" fill="#bc3500"/>
          <path id="Trazado_1080019" data-name="Trazado 1080019" d="M341.958,351.9c-.365-.277-.721-.554-1.085-.822-5.4-4.029-10.85-8.074-16.877-11.091a74.291,74.291,0,0,0-17.2-5.846c-3.092-.677-2.906-2.205-.393-3.489a61.259,61.259,0,0,1,7.023-3.033,50.117,50.117,0,0,1,14.514-2.945,40.967,40.967,0,0,1,16.569,2.649c.083.279.157.542.214.781a36.8,36.8,0,0,1-2.764,23.8" transform="translate(-1988.799 1900.267)" fill="#bc3500"/>
          <path id="Trazado_1080020" data-name="Trazado 1080020" d="M218.293,244.98l-14.557,74.88,12.982,2.748-1.034,37.879,58.7-2.14-10.91-34.223,15.16-3.774L276.9,272.91l-1.078-29.564s-6.439.048-9.45,5.794l-1.5,25.013L225.559,278l-.251-28.976s-3.46-5.259-7.015-4.047" transform="translate(-1969.111 1916.15)" fill="#c0b79b"/>
          <path id="Trazado_1080021" data-name="Trazado 1080021" d="M265.964,316.022,268,371.881a3.245,3.245,0,0,1-3.122,3.366l-30.531,1.113a3.251,3.251,0,0,1-3.366-3.13l-2.036-55.859a3.251,3.251,0,0,1,3.13-3.366l30.53-1.114a3.245,3.245,0,0,1,3.359,3.131" transform="translate(-1974.036 1902.561)" fill="#a197ff"/>
          <path id="Trazado_1080022" data-name="Trazado 1080022" d="M254,360.506l3.626,11.14-13.932-6.739-8.581,7.559.335-12.895-5.012-3.206-.154-4.246,5.677-.618-1.214-11.227,8.275,6.14,7.835-5.922-2,11.345,11.2-2.019Z" transform="translate(-1974.297 1897.21)" fill="#f07a50"/>
          <path id="Trazado_1080023" data-name="Trazado 1080023" d="M269.927,316.022l.7,19.169a60.731,60.731,0,0,1-4.6-7.369,23.328,23.328,0,0,0-3.343,8.351,91.416,91.416,0,0,1-2.456-9.524q-5.5,1.155-11,2.3a38.811,38.811,0,0,1,9.6-11.042c-.484-.489-.97-.97-1.462-1.46-1.036-1.033-2.073-2.073-3.108-3.107l12.318-.45a3.245,3.245,0,0,1,3.359,3.131" transform="translate(-1977.999 1902.561)" fill="#f07a50"/>
          <path id="Trazado_1080024" data-name="Trazado 1080024" d="M235.206,323.4a1.949,1.949,0,1,1,2.019,1.877,1.949,1.949,0,0,1-2.019-1.877" transform="translate(-1975.259 1900.902)"/>
          <path id="Trazado_1080025" data-name="Trazado 1080025" d="M235.47,330.667a1.95,1.95,0,1,1,2.02,1.877,1.95,1.95,0,0,1-2.02-1.877" transform="translate(-1975.311 1899.482)"/>
          <path id="Trazado_1080026" data-name="Trazado 1080026" d="M236.9,336.923a.975.975,0,1,1,1.01.939.975.975,0,0,1-1.01-.939" transform="translate(-1975.591 1898.063)"/>
          <path id="Trazado_1080027" data-name="Trazado 1080027" d="M245.416,318.153q7.655-.576,15.337-.611a.4.4,0,0,0,0-.8q-7.677.035-15.337.611c-.513.039-.517.843,0,.8" transform="translate(-1977.179 1901.809)"/>
          <path id="Trazado_1080028" data-name="Trazado 1080028" d="M268.9,319.947c.024.05.048.1.071.151,0,0,.049.115.025.057.037.09.072.181.1.274a5.251,5.251,0,0,1,.154.541,4.289,4.289,0,0,1,.113,1.073.4.4,0,1,0,.8,0,5.676,5.676,0,0,0-.577-2.5.4.4,0,0,0-.55-.144.413.413,0,0,0-.144.55" transform="translate(-1981.834 1901.3)"/>
          <path id="Trazado_1080029" data-name="Trazado 1080029" d="M258.658,345.57q-5.79,9.226-12.244,18.009-1.827,2.484-3.707,4.931c-.315.41.384.811.7.406q6.632-8.639,12.619-17.748,1.692-2.579,3.331-5.191c.277-.44-.419-.844-.694-.406" transform="translate(-1976.71 1896.212)"/>
          <path id="Trazado_1080030" data-name="Trazado 1080030" d="M256.76,363.154q-2.53,3.969-5.376,7.723c-.312.413.386.814.7.406q2.843-3.751,5.376-7.723c.279-.439-.417-.842-.694-.406" transform="translate(-1978.406 1892.776)"/>
          <path id="Trazado_1080031" data-name="Trazado 1080031" d="M252.953,340.986l-2.885,4.306c-.289.431.408.835.694.406l2.885-4.306c.29-.431-.407-.835-.694-.406" transform="translate(-1978.15 1897.107)"/>
          <path id="Trazado_1080032" data-name="Trazado 1080032" d="M272.95,374.9l.3,8.089a3.245,3.245,0,0,1-3.123,3.366l-14.175.517-.164-.083,12.073-4.53,2.33-12.508Z" transform="translate(-1979.281 1891.45)" fill="#f07a50"/>
          <path id="Trazado_1080033" data-name="Trazado 1080033" d="M223.194,191.809a21.21,21.21,0,0,1-12.284.942c-5.825-1.3-11.127-5.37-13.259-10.946s-.669-12.52,3.968-16.281a12.891,12.891,0,0,1,18.23,2.018c.626,8.027,1.291,16.481,3.345,24.267" transform="translate(-1967.734 1931.918)" fill="#a05635"/>
          <path id="Trazado_1080034" data-name="Trazado 1080034" d="M286.392,190.514a21.208,21.208,0,0,0,12.319.045c5.715-1.725,10.707-6.166,12.427-11.882s-.244-12.536-5.143-15.948a12.889,12.889,0,0,0-18.034,3.339c-.039,8.052-.087,16.532-1.569,24.446" transform="translate(-1985.261 1932.353)" fill="#a05635"/>
          <path id="Trazado_1080035" data-name="Trazado 1080035" d="M277.333,159c-21.521-16.123-25.236-29.675-25.236-29.675l-1.1-8.011-1.344,7.3c-6.562,18.758-27.862,30.806-27.862,30.806l-3-4.219s-5.795-38.133,32.055-37.9,30.008,38.453,30.008,38.453Z" transform="translate(-1971.992 1940.78)"/>
          <path id="Trazado_1080036" data-name="Trazado 1080036" d="M221.952,168.1a23.784,23.784,0,0,0,.4,13.825c.165.488.942.279.776-.213a23,23,0,0,1-.4-13.4.4.4,0,0,0-.776-.214" transform="translate(-1972.506 1930.908)"/>
          <path id="Trazado_1080037" data-name="Trazado 1080037" d="M222.312,168.219a39.082,39.082,0,0,0,3.6,13.532c.22.468.914.06.7-.406a37.977,37.977,0,0,1-3.493-13.126c-.041-.513-.846-.517-.8,0" transform="translate(-1972.74 1930.905)"/>
          <path id="Trazado_1080038" data-name="Trazado 1080038" d="M290.494,167.758a39.807,39.807,0,0,1-2.1,14.366c-.167.491.61.7.776.214a40.464,40.464,0,0,0,2.124-14.58c-.02-.516-.825-.519-.8,0" transform="translate(-1985.649 1930.995)"/>
          <path id="Trazado_1080039" data-name="Trazado 1080039" d="M291.188,168.176a23.738,23.738,0,0,1,1.258,11.111c-.065.513.74.508.8,0a24.285,24.285,0,0,0-1.287-11.325c-.176-.482-.955-.274-.776.214" transform="translate(-1986.193 1930.933)"/>
          <path id="Trazado_1080040" data-name="Trazado 1080040" d="M305.215,167.968c-3.326-.56-6.066,2.321-7.759,4.826a26.615,26.615,0,0,0-3.579,8.857c-.427,1.81-.748,3.643-1.048,5.479a.4.4,0,0,0,.735.31,20.29,20.29,0,0,1,2.8-3.426,7.219,7.219,0,0,1,3.749-2.055,1.039,1.039,0,0,1,.467.01c.3.125.274.4.229.678a6.342,6.342,0,0,1-.26.994,7.449,7.449,0,0,1-4.225,4.468c-.476.19-.268.969.213.776a8.259,8.259,0,0,0,5-5.808,1.551,1.551,0,0,0-.335-1.68,2,2,0,0,0-1.74-.116,8.615,8.615,0,0,0-3.5,2.007,20.532,20.532,0,0,0-3.1,3.745l.735.311c.941-5.784,2.135-12.154,6.454-16.462,1.28-1.278,3.045-2.457,4.941-2.139.507.085.724-.69.214-.776" transform="translate(-1986.518 1930.892)"/>
          <path id="Trazado_1080041" data-name="Trazado 1080041" d="M208.131,169.79c1.195-.99,2.7.152,3.441,1.127a23.147,23.147,0,0,1,2.275,3.9,41.281,41.281,0,0,1,2.941,8.588c.4,1.7.717,3.42.987,5.145.258-.072.517-.144.776-.214a6.671,6.671,0,0,0-2.036-3.488,4.679,4.679,0,0,0-3.691-1.386,2.942,2.942,0,0,0-2.333,2.5,3.708,3.708,0,0,0,1.629,3.445c.418.308.819-.389.406-.694a2.84,2.84,0,0,1-1.21-2.813,2.088,2.088,0,0,1,2.261-1.666c2.127.223,3.758,2.363,4.2,4.311.116.514.854.286.776-.214a57,57,0,0,0-2.357-9.916,36.7,36.7,0,0,0-1.966-4.643,16.159,16.159,0,0,0-2.569-4,3.033,3.033,0,0,0-4.1-.563c-.4.33.173.9.569.568" transform="translate(-1969.832 1930.746)"/>
          <path id="Trazado_1080042" data-name="Trazado 1080042" d="M248.148,175.311c.6,1.908.225,3.724-.835,4.057s-2.4-.945-3-2.852-.224-3.724.835-4.057,2.4.945,3,2.852" transform="translate(-1976.983 1930.011)"/>
          <path id="Trazado_1080043" data-name="Trazado 1080043" d="M268.149,175.311c.6,1.908.225,3.724-.836,4.057s-2.4-.945-3-2.852-.224-3.724.836-4.057,2.4.945,3,2.852" transform="translate(-1980.891 1930.011)"/>
          <path id="Trazado_1080044" data-name="Trazado 1080044" d="M251.674,182.465a2.816,2.816,0,0,1,1.418-2.777,6.478,6.478,0,0,1,3.443-.815c2.159.013,4.726,1.229,4.644,3.726-.017.518.788.517.8,0a4.153,4.153,0,0,0-1.624-3.33,6.218,6.218,0,0,0-4-1.2,6.776,6.776,0,0,0-4.083,1.213,3.534,3.534,0,0,0-1.38,3.4c.092.509.867.293.776-.214" transform="translate(-1978.316 1928.905)"/>
          <path id="Trazado_1080045" data-name="Trazado 1080045" d="M269.386,188.076a29.784,29.784,0,0,1-2.127,5.472,18.737,18.737,0,0,1-4.515,6.01,12.268,12.268,0,0,1-9.969,2.159,19.631,19.631,0,0,1-7.225-3.15c-.718-.473-1.413-1-2.085-1.534a14.441,14.441,0,0,1-5.088-7.737,29.756,29.756,0,0,0,31.009-1.219" transform="translate(-1975.879 1926.949)"/>
          <path id="Trazado_1080046" data-name="Trazado 1080046" d="M269,194.877a18.729,18.729,0,0,1-4.515,6.01,12.271,12.271,0,0,1-9.969,2.16,19.632,19.632,0,0,1-7.225-3.151,24.178,24.178,0,0,1,6.444-3.029,46.743,46.743,0,0,1,10.3-1.736q2.481-.187,4.967-.253" transform="translate(-1977.621 1925.62)" fill="#f27fff"/>
          <path id="Trazado_1080047" data-name="Trazado 1080047" d="M254.661,208.937c3.062.306,6.248.339,9.082-1.026.467-.224.059-.919-.406-.694-2.693,1.3-5.774,1.205-8.676.916-.515-.052-.511.754,0,.8" transform="translate(-1978.986 1923.218)"/>
          <path id="Trazado_1080048" data-name="Trazado 1080048" d="M248.482,163.892a9.547,9.547,0,0,0-15.7,2.365c-.2.089.44.2.32.013a37.3,37.3,0,0,1,15.383-2.378" transform="translate(-1974.777 1932.284)"/>
          <path id="Trazado_1080049" data-name="Trazado 1080049" d="M262.635,163.386a9.547,9.547,0,0,1,15.834,1.215c.21.074-.425.233-.319.036a37.29,37.29,0,0,0-15.515-1.251" transform="translate(-1980.619 1932.487)"/>
          <path id="Trazado_1080050" data-name="Trazado 1080050" d="M284.852,374.752a7.222,7.222,0,0,1-3.457,5.53,5.024,5.024,0,0,1-3.331.91,4.708,4.708,0,0,1-1.652-.616c-2.392-1.373-4.687-4.565-4.623-7.323a8.625,8.625,0,0,1-2.851,1.4,2.935,2.935,0,0,1-2.908-.852,3.518,3.518,0,0,1-.142-3.4,8.642,8.642,0,0,1,3.146-3.965,16.843,16.843,0,0,1-4.589,1.427,2.734,2.734,0,0,1-1.751-.139c-.928-.513-1.03-1.82-.776-2.85a7.125,7.125,0,0,1,3.743-4.635,7.413,7.413,0,0,1-3.12.344,2.53,2.53,0,0,1-2.163-2.005,3.5,3.5,0,0,1,1.039-2.43,22.842,22.842,0,0,1,3.519-3.894,9.621,9.621,0,0,1-4.647,1,2.112,2.112,0,0,1-1.6-.583c-.565-.688-.187-1.72.28-2.478a18.732,18.732,0,0,1,8.592-7.015c2.38-1.042,5.207-1.685,7.555-.13a11.847,11.847,0,0,1,2.559,2.591,31.007,31.007,0,0,1,5.512,11.293,45.635,45.635,0,0,1,1.856,13.2,35.642,35.642,0,0,1-.192,4.616" transform="translate(-1979.793 1896.85)" fill="#a05635"/>
          <path id="Trazado_1080051" data-name="Trazado 1080051" d="M278.479,342.773a10.342,10.342,0,0,1,3.182,4.5,10.9,10.9,0,0,1,.415,5.587,3.232,3.232,0,0,0,.45,2.65c.484.632,1.186,1.057,1.662,1.694.6.806.49,1.873.642,2.817a3.462,3.462,0,0,0,.428,1.243c.269.447.65.813.912,1.265a4.059,4.059,0,0,1-.928,5.035c-.4.332.174.9.569.569a4.862,4.862,0,0,0,1.585-4.541,5.3,5.3,0,0,0-1.17-2.348c-.71-.927-.619-1.968-.8-3.062a3.793,3.793,0,0,0-1.347-2.248,6.706,6.706,0,0,1-.94-.936,2.252,2.252,0,0,1-.318-1.738,15.454,15.454,0,0,0,.257-2.971,11.244,11.244,0,0,0-.5-2.8,11.118,11.118,0,0,0-3.535-5.285c-.4-.325-.97.241-.568.569" transform="translate(-1983.688 1896.852)"/>
          <path id="Trazado_1080052" data-name="Trazado 1080052" d="M274.855,380.661a26.776,26.776,0,0,0,6.343-3.614.416.416,0,0,0,.144-.55.4.4,0,0,0-.55-.144,26.108,26.108,0,0,1-6.151,3.533c-.474.191-.267.97.214.776" transform="translate(-1982.913 1890.172)"/>
          <path id="Trazado_1080053" data-name="Trazado 1080053" d="M280.453,378.658l2.6.028a.405.405,0,0,0,.4-.4.409.409,0,0,0-.4-.4l-2.6-.028a.405.405,0,0,0-.4.4.409.409,0,0,0,.4.4" transform="translate(-1984.022 1889.867)"/>
          <path id="Trazado_1080054" data-name="Trazado 1080054" d="M268.33,375.059a19.63,19.63,0,0,1,8.7-6.918c.474-.191.267-.97-.213-.776a20.587,20.587,0,0,0-9.181,7.287c-.3.426.4.828.7.406" transform="translate(-1981.582 1891.923)"/>
          <path id="Trazado_1080055" data-name="Trazado 1080055" d="M264.834,365.945a48.592,48.592,0,0,1,8.737-5.338c.467-.222.06-.916-.406-.7a48.622,48.622,0,0,0-8.737,5.339c-.406.311,0,1.01.406.694" transform="translate(-1980.937 1893.381)"/>
          <path id="Trazado_1080056" data-name="Trazado 1080056" d="M264.03,355.032a21.541,21.541,0,0,1,9.782-3.695c.509-.058.514-.863,0-.8a22.359,22.359,0,0,0-10.188,3.8c-.423.292-.021.99.406.694" transform="translate(-1980.777 1895.206)"/>
          <path id="Trazado_1080057" data-name="Trazado 1080057" d="M211.712,373.431a7.224,7.224,0,0,0,3.851,5.264,5.023,5.023,0,0,0,3.388.665,4.717,4.717,0,0,0,1.6-.735c2.286-1.543,4.342-4.894,4.079-7.64a8.631,8.631,0,0,0,2.944,1.188,2.935,2.935,0,0,0,2.839-1.062,3.517,3.517,0,0,0-.107-3.4,8.637,8.637,0,0,0-3.426-3.725,16.844,16.844,0,0,0,4.68,1.089,2.737,2.737,0,0,0,1.736-.266c.889-.578.9-1.891.567-2.9a7.125,7.125,0,0,0-4.07-4.35,7.4,7.4,0,0,0,3.137.116,2.529,2.529,0,0,0,2.011-2.156,3.5,3.5,0,0,0-1.213-2.349,22.831,22.831,0,0,0-3.792-3.627,9.626,9.626,0,0,0,4.707.663,2.113,2.113,0,0,0,1.553-.7c.513-.727.06-1.729-.46-2.451a18.729,18.729,0,0,0-9.079-6.37c-2.45-.866-5.316-1.3-7.545.42a11.819,11.819,0,0,0-2.364,2.77,31,31,0,0,0-4.675,11.664,45.611,45.611,0,0,0-.89,13.3,35.564,35.564,0,0,0,.528,4.59" transform="translate(-1970.537 1897.279)" fill="#a05635"/>
          <path id="Trazado_1080058" data-name="Trazado 1080058" d="M219.324,340.3a11.211,11.211,0,0,0-3.185,10.488,5.7,5.7,0,0,1,.3,1.8,2.275,2.275,0,0,1-.659,1.27,5.9,5.9,0,0,0-1.543,2.14c-.31,1.035.02,2.17-.352,3.185a10.32,10.32,0,0,1-.821,1.369,4.344,4.344,0,0,0-.453,1.218,4.9,4.9,0,0,0,1.9,4.947c.422.3.824-.4.406-.7a4.071,4.071,0,0,1-1.446-4.36c.261-.892.99-1.532,1.244-2.424.281-.986,0-2.047.3-3.025.257-.845,1.024-1.381,1.557-2.045a2.855,2.855,0,0,0,.63-2.328c-.145-.976-.459-1.892-.512-2.886a10.436,10.436,0,0,1,3.207-8.081c.377-.356-.193-.925-.569-.569" transform="translate(-1970.825 1897.228)"/>
          <path id="Trazado_1080059" data-name="Trazado 1080059" d="M226.6,377.7a26.055,26.055,0,0,1-6.395-3.069c-.433-.286-.837.41-.406.7a26.837,26.837,0,0,0,6.586,3.149c.494.159.706-.618.214-.776" transform="translate(-1972.213 1890.511)"/>
          <path id="Trazado_1080060" data-name="Trazado 1080060" d="M221.529,375.975l-2.589.217a.4.4,0,0,0,0,.8l2.589-.217a.4.4,0,0,0,0-.8" transform="translate(-1972.003 1890.234)"/>
          <path id="Trazado_1080061" data-name="Trazado 1080061" d="M232.468,371.956a20.505,20.505,0,0,0-9.612-6.537c-.494-.158-.706.619-.214.776a19.745,19.745,0,0,1,9.257,6.329c.327.4.894-.171.569-.569" transform="translate(-1972.75 1892.301)"/>
          <path id="Trazado_1080062" data-name="Trazado 1080062" d="M235.116,362.4a49.021,49.021,0,0,0-9.2-4.728c-.483-.187-.692.59-.214.776a48.157,48.157,0,0,1,9.007,4.647c.434.286.838-.411.406-.694" transform="translate(-1973.35 1893.816)"/>
          <path id="Trazado_1080063" data-name="Trazado 1080063" d="M234.817,351.488a22.385,22.385,0,0,0-10.434-3.067c-.518-.021-.517.784,0,.8a21.52,21.52,0,0,1,10.028,2.957.4.4,0,0,0,.406-.694" transform="translate(-1973.069 1895.618)"/>
          <path id="Trazado_1080064" data-name="Trazado 1080064" d="M238.6,234.178a53.18,53.18,0,0,0-1.47,9.461c-.034.517.771.515.8,0a51.9,51.9,0,0,1,1.441-9.246.4.4,0,0,0-.776-.214" transform="translate(-1975.635 1917.997)"/>
          <path id="Trazado_1080065" data-name="Trazado 1080065" d="M244.281,235.5a113.5,113.5,0,0,0-.978,11.692c-.016.517.789.517.8,0a111.376,111.376,0,0,1,.949-11.478c.069-.506-.706-.726-.776-.214" transform="translate(-1976.842 1917.739)"/>
          <path id="Trazado_1080066" data-name="Trazado 1080066" d="M249.236,235.743a86.2,86.2,0,0,0,.369,13.278c.054.51.859.516.8,0a86.192,86.192,0,0,1-.369-13.278c.026-.517-.779-.517-.8,0" transform="translate(-1977.981 1917.711)"/>
          <path id="Trazado_1080067" data-name="Trazado 1080067" d="M256.872,235.931q.054,5.462.315,10.92c.024.515.83.518.8,0q-.261-5.456-.315-10.92a.4.4,0,0,0-.8,0" transform="translate(-1979.493 1917.675)"/>
          <path id="Trazado_1080068" data-name="Trazado 1080068" d="M263.892,235.059q.666,5.864.819,11.77a.4.4,0,0,0,.8,0q-.152-5.9-.819-11.77c-.058-.508-.863-.514-.8,0" transform="translate(-1980.864 1917.844)"/>
          <path id="Trazado_1080069" data-name="Trazado 1080069" d="M269.647,234.326a52.349,52.349,0,0,1,1.9,12.874.4.4,0,0,0,.8,0,53.259,53.259,0,0,0-1.933-13.088.4.4,0,0,0-.776.214" transform="translate(-1981.986 1918.01)"/>
          <path id="Trazado_1080070" data-name="Trazado 1080070" d="M246.569,277.119a96.025,96.025,0,0,0,20.245-10.749c.422-.294.02-.992-.406-.7a95.188,95.188,0,0,1-20.052,10.668c-.478.184-.27.963.214.776" transform="translate(-1977.385 1911.801)"/>
          <path id="Trazado_1080071" data-name="Trazado 1080071" d="M260.263,277.289l6.493-2.473c.48-.183.272-.961-.213-.776l-6.494,2.473c-.479.182-.271.961.214.776" transform="translate(-1980.061 1910.157)"/>
          <path id="Trazado_1080072" data-name="Trazado 1080072" d="M173.068,346.945c6.949-3.753,14.3-7.254,22.271-7.985a30.823,30.823,0,0,1,6.715.1c.513.065.508-.739,0-.8-8.079-1.028-16.06,1.456-23.291,4.874-2.065.977-4.091,2.034-6.1,3.12-.455.245-.05.941.406.694" transform="translate(-1963 1897.65)"/>
          <path id="Trazado_1080073" data-name="Trazado 1080073" d="M208.782,339.879c-7.1,4.3-11.256,11.957-13.015,19.872a54.031,54.031,0,0,0-1.089,7.584c-.039.517.765.513.8,0,.629-8.2,2.963-16.6,8.725-22.714a23.812,23.812,0,0,1,4.981-4.048.4.4,0,0,0-.406-.694" transform="translate(-1967.34 1897.299)"/>
          <path id="Trazado_1080074" data-name="Trazado 1080074" d="M207.575,352.312a43.4,43.4,0,0,0-3.066,12.138c-.053.514.752.511.8,0a42.733,42.733,0,0,1,3.037-11.924c.2-.478-.58-.686-.776-.214" transform="translate(-1969.261 1894.91)"/>
          <path id="Trazado_1080075" data-name="Trazado 1080075" d="M179.493,334.853a37.478,37.478,0,0,1,19.805,3.395c.465.22.875-.473.406-.7a38.261,38.261,0,0,0-20.212-3.5c-.51.052-.516.857,0,.8" transform="translate(-1964.298 1898.464)"/>
          <path id="Trazado_1080076" data-name="Trazado 1080076" d="M286.05,340a23.858,23.858,0,0,1,5.867-1.932c1.914-.364,4.008-.167,5.738-1.177.862-.5,1.66-1.123,2.489-1.679s1.654-1.089,2.5-1.607a58.306,58.306,0,0,1,5.277-2.9,43.755,43.755,0,0,1,6.415-2.5.4.4,0,0,0-.214-.776,49.531,49.531,0,0,0-11.037,4.971c-1.75,1.04-3.427,2.182-5.106,3.331a5.943,5.943,0,0,1-2.748,1.13c-1,.113-1.994.172-2.986.338a24.571,24.571,0,0,0-6.6,2.11c-.467.224-.059.918.406.694" transform="translate(-1985.075 1899.724)"/>
          <path id="Trazado_1080077" data-name="Trazado 1080077" d="M305.337,331.616a38.873,38.873,0,0,1,9.625-6.752,44.458,44.458,0,0,1,11.724-4.163,27.341,27.341,0,0,1,6.327-.539c.517.02.517-.784,0-.8a32.977,32.977,0,0,0-11.777,1.976,47.969,47.969,0,0,0-11.384,5.606,35.052,35.052,0,0,0-5.084,4.108c-.368.364.2.933.569.569" transform="translate(-1988.829 1901.301)"/>
          <path id="Trazado_1080078" data-name="Trazado 1080078" d="M329.664,326.682a39.691,39.691,0,0,1,11.583-.084c.507.071.726-.7.214-.776a40.963,40.963,0,0,0-12.011.084c-.51.079-.294.854.214.776" transform="translate(-1993.618 1900.113)"/>
          <path id="Trazado_1080079" data-name="Trazado 1080079" d="M291.539,343.2c6.358,6.224,9.193,14.941,10.853,23.466.514,2.639.932,5.3,1.344,7.953.079.51.854.294.776-.213-1.4-9.036-2.959-18.38-7.947-26.236a30.9,30.9,0,0,0-4.457-5.539c-.37-.363-.94.206-.569.569" transform="translate(-1986.244 1896.773)"/>
          <path id="Trazado_1080080" data-name="Trazado 1080080" d="M300.107,345.235c4.417,5.858,8.946,11.861,11.294,18.9a29.968,29.968,0,0,1,1.354,5.923c.061.508.867.513.8,0-.885-7.4-4.618-13.99-8.87-19.969-1.263-1.777-2.576-3.519-3.889-5.259-.307-.408-1.007-.007-.694.406" transform="translate(-1987.926 1896.354)"/>
          <path id="Trazado_1080081" data-name="Trazado 1080081" d="M210.3,280.668a36.05,36.05,0,0,0-6.465,23.452,35.036,35.036,0,0,0,1.205,6.833.4.4,0,0,0,.776-.214A35.267,35.267,0,0,1,207.6,287a34.462,34.462,0,0,1,3.394-5.927c.3-.422-.4-.825-.694-.406" transform="translate(-1969.11 1908.891)"/>
          <path id="Trazado_1080082" data-name="Trazado 1080082" d="M204.876,318.083q-1.505,7.844-3.009,15.688c-.1.506.679.723.776.214q1.5-7.844,3.008-15.688c.1-.506-.678-.723-.776-.214" transform="translate(-1968.744 1901.603)"/>
          <path id="Trazado_1080083" data-name="Trazado 1080083" d="M301.8,280.41c2.337,4.392,3.4,9.4,4.116,14.286a22.163,22.163,0,0,1-.029,7.826,28.664,28.664,0,0,1-2.563,6.844,30.838,30.838,0,0,1-4.536,6.8c-.344.385.223.956.57.569a30.844,30.844,0,0,0,4.214-6.1,32.563,32.563,0,0,0,2.88-7.015,21.113,21.113,0,0,0,.41-7.869,64.413,64.413,0,0,0-1.4-7.66A34.486,34.486,0,0,0,302.5,280c-.243-.457-.937-.051-.694.406" transform="translate(-1987.664 1909.026)"/>
          <path id="Trazado_1080084" data-name="Trazado 1080084" d="M299.252,324.47q.9,5.054,2.185,10.026a.4.4,0,0,0,.776-.213q-1.284-4.97-2.186-10.026c-.09-.508-.866-.293-.775.213" transform="translate(-1987.773 1900.397)"/>
          <path id="Trazado_1080085" data-name="Trazado 1080085" d="M306.047,278.852a22.2,22.2,0,0,1-.05,7.026c-.085.507.69.724.776.214a23.423,23.423,0,0,0,.05-7.454c-.078-.51-.854-.294-.776.214" transform="translate(-1989.091 1909.311)"/>
          <path id="Trazado_1080086" data-name="Trazado 1080086" d="M207.624,279.525q-.239,3.088-.172,6.187a.4.4,0,0,0,.8,0q-.068-3.1.172-6.187c.04-.517-.764-.514-.8,0" transform="translate(-1969.834 1909.156)"/>
          <path id="Trazado_1080087" data-name="Trazado 1080087" d="M237,108.406a7.981,7.981,0,0,1,4.475-2.181,5.044,5.044,0,0,1,4.067,1.388,4.678,4.678,0,0,1,.913,4.544,10.085,10.085,0,0,1-2.762,4.224.4.4,0,0,0,.569.569c2.034-2.054,3.871-4.875,3.006-7.895-.791-2.762-3.788-4.029-6.463-3.542a9.094,9.094,0,0,0-4.375,2.324c-.385.348.185.916.569.569" transform="translate(-1975.474 1943.102)"/>
          <path id="Trazado_1080088" data-name="Trazado 1080088" d="M173.664,144.038a12.281,12.281,0,0,0-3.926,4.467c-.817,1.6-1.694,3.887-.759,5.608a5.307,5.307,0,0,0,2.4,1.935,11.645,11.645,0,0,0,3.083,1.069,9.336,9.336,0,0,0,5.818-.676,7.827,7.827,0,0,0,4.066-4.534c.163-.493-.614-.7-.776-.214-1.109,3.365-4.7,5.09-8.074,4.766a9.716,9.716,0,0,1-5.261-2.079c-1.5-1.324-.667-3.659.063-5.189a11.461,11.461,0,0,1,3.776-4.46c.422-.294.02-.991-.406-.694" transform="translate(-1962.241 1935.568)"/>
          <path id="Trazado_1080089" data-name="Trazado 1080089" d="M177.169,91.567a8.721,8.721,0,0,1,2.1-7.728,9.128,9.128,0,0,1,3.9-2.413,15.869,15.869,0,0,1,5.213-1.077A4.759,4.759,0,0,1,192.7,82.7c.233.463.927.056.694-.406a5.2,5.2,0,0,0-3.73-2.623,12.374,12.374,0,0,0-5.783.681,11.511,11.511,0,0,0-4.688,2.413A9.641,9.641,0,0,0,176.7,86.6a9.251,9.251,0,0,0-.309,5.181c.117.5.892.29.776-.214" transform="translate(-1963.722 1948.156)"/>
          <path id="Trazado_1080090" data-name="Trazado 1080090" d="M168.033,105.918a12.4,12.4,0,0,1-3.989-1.875,4.169,4.169,0,0,1-1.7-3.4c.031-.517-.773-.516-.8,0a4.891,4.891,0,0,0,1.859,3.9,13.022,13.022,0,0,0,4.416,2.141c.492.166.7-.611.214-.776" transform="translate(-1960.865 1944.108)"/>
          <path id="Trazado_1080091" data-name="Trazado 1080091" d="M167.689,105.7c-2.3,1.657-5.335,3.144-8.143,1.816-.466-.22-.875.474-.406.7,3.093,1.462,6.39.036,8.956-1.817.416-.3.014-1-.406-.694" transform="translate(-1960.356 1943.06)"/>
          <path id="Trazado_1080092" data-name="Trazado 1080092" d="M281.8,89.134a11.391,11.391,0,0,0-6.649-.113c-1.865.535-4.325,1.653-4.865,3.711a.4.4,0,0,0,.776.214,3.692,3.692,0,0,1,1.859-2.088,10.281,10.281,0,0,1,2.758-1.147,10.588,10.588,0,0,1,5.906.2c.493.161.7-.616.215-.776" transform="translate(-1982.111 1946.391)"/>
          <path id="Trazado_1080093" data-name="Trazado 1080093" d="M280.861,87.835a6.324,6.324,0,0,1-5.306-5.281.416.416,0,0,0-.4-.4.4.4,0,0,0-.4.4,7.143,7.143,0,0,0,6.111,6.086.405.405,0,0,0,.4-.4.412.412,0,0,0-.4-.4" transform="translate(-1982.986 1947.647)"/>
          <path id="Trazado_1080094" data-name="Trazado 1080094" d="M311.148,76.622c2.889-3.285,7.274-5.4,11.7-4.774a10.319,10.319,0,0,1,8.831,7.674,8.972,8.972,0,0,1-1.167,6.856c-.284.434.412.838.7.406a10.119,10.119,0,0,0-1.451-12.4,12.347,12.347,0,0,0-12.6-2.763,15.342,15.342,0,0,0-6.586,4.433c-.341.387.226.958.569.569" transform="translate(-1989.967 1949.834)"/>
          <path id="Trazado_1080095" data-name="Trazado 1080095" d="M315.3,153.8a12.893,12.893,0,0,0,3.2,3.981,11.184,11.184,0,0,0,4.865,1.729,9.011,9.011,0,0,0,5.358-.348,8.511,8.511,0,0,0,3.56-3.5A10.846,10.846,0,0,0,333.738,150a.4.4,0,0,0-.8,0,9.484,9.484,0,0,1-3.992,8.127,7.194,7.194,0,0,1-5,.665,12.217,12.217,0,0,1-4.55-1.383A10.91,10.91,0,0,1,316,153.4a.4.4,0,0,0-.694.406" transform="translate(-1990.899 1934.465)"/>
          <path id="Trazado_1080096" data-name="Trazado 1080096" d="M348.937,123.842c3.468-.774,8-1.619,10.53,1.626.319.408.884-.166.57-.569-2.715-3.482-7.579-2.666-11.314-1.833-.505.113-.291.888.215.776" transform="translate(-1997.384 1939.794)"/>
          <path id="Trazado_1080097" data-name="Trazado 1080097" d="M351.646,124.03a3.033,3.033,0,0,1,2.789.743,9.749,9.749,0,0,1,1.952,2.684.4.4,0,0,0,.694-.406,9.736,9.736,0,0,0-2.269-3,3.792,3.792,0,0,0-3.38-.793.4.4,0,0,0,.214.776" transform="translate(-1997.915 1939.641)"/>
          <path id="Trazado_1080098" data-name="Trazado 1080098" d="M346.533,138.528c.744,1.831,2.146,3.953,4.417,3.671s3.616-2.573,3.609-4.7a10.588,10.588,0,0,0-1.089-4.207c-.21-.472-.9-.063-.7.406.994,2.239,1.751,5.388-.547,7.121a2.562,2.562,0,0,1-2.96.208,5.543,5.543,0,0,1-1.959-2.715c-.192-.473-.971-.266-.776.214" transform="translate(-1997.007 1937.695)"/>
          <path id="Trazado_1080099" data-name="Trazado 1080099" d="M292.61,195.7a1.609,1.609,0,1,1,1.667,1.55,1.61,1.61,0,0,1-1.667-1.55" transform="translate(-1986.476 1925.785)" fill="#ffd6bb"/>
          <path id="Trazado_1080100" data-name="Trazado 1080100" d="M218.586,196.4a1.609,1.609,0,1,1,1.667,1.55,1.61,1.61,0,0,1-1.667-1.55" transform="translate(-1972.012 1925.648)" fill="#ffd6bb"/>
          <path id="Trazado_1080101" data-name="Trazado 1080101" d="M292.759,197.365a20.965,20.965,0,0,0-.255,4.071,7.745,7.745,0,0,0,.61,3.428,1.856,1.856,0,0,0,2.625.649,4.885,4.885,0,0,0,2.042-2.555,11.783,11.783,0,0,0,.577-4.4.4.4,0,0,0-.8,0,11.193,11.193,0,0,1-.525,4.132,4.69,4.69,0,0,1-.99,1.58,1.867,1.867,0,0,1-1.6.725c-1.081-.263-1.052-2.2-1.1-3.031a19.973,19.973,0,0,1,.2-4.383c.08-.507-.7-.725-.776-.214" transform="translate(-1986.453 1925.191)" fill="#ffd6bb"/>
          <path id="Trazado_1080102" data-name="Trazado 1080102" d="M219.645,196.912a8.586,8.586,0,0,0-1.266,7.616c.745,2.208,2.9,4.206,5.344,3.141a3.45,3.45,0,0,0,2.032-3.4c-.035-.514-.84-.518-.8,0a2.65,2.65,0,0,1-2.391,2.883,3.279,3.279,0,0,1-3.007-1.933,7.606,7.606,0,0,1,.788-7.9c.306-.419-.393-.821-.694-.406" transform="translate(-1971.894 1925.257)" fill="#ffd6bb"/>
          <path id="Trazado_1080103" data-name="Trazado 1080103" d="M197.6,171.687a2.217,2.217,0,0,1,2.069.706,7.368,7.368,0,0,1,1.338,2.229.406.406,0,0,0,.55.145.412.412,0,0,0,.145-.55,7.352,7.352,0,0,0-1.6-2.518,2.988,2.988,0,0,0-2.72-.787.4.4,0,0,0,.214.776" transform="translate(-1967.814 1930.319)" fill="#ffd6bb"/>
          <path id="Trazado_1080104" data-name="Trazado 1080104" d="M199.293,167.443a4.451,4.451,0,0,1,3.27,3.467.405.405,0,0,0,.495.281.41.41,0,0,0,.282-.495,5.244,5.244,0,0,0-3.832-4.029c-.5-.123-.718.653-.214.776" transform="translate(-1968.186 1931.135)" fill="#ffd6bb"/>
          <path id="Trazado_1080105" data-name="Trazado 1080105" d="M380.75,175.3c-8.793,1.649-16.212,4.693-20.372,9.057-5.315,5.577-8.306,13.844-6.006,21.2,2.357,7.538,9.513,12.517,16.7,15.785,1.452.661,2.931,1.259,4.421,1.826l-8.027,16.07c7.459-3.2,15.22-6.645,20.755-12.449a77.617,77.617,0,0,0,31.783-.43c9.73-2.2,19.841-7.1,23.768-16.271,12.771-29.827-33.084-40.4-63.024-34.785" transform="translate(-1998.391 1929.729)" fill="#fff"/>
          <path id="Trazado_1080106" data-name="Trazado 1080106" d="M381.8,151.738c-4.593.861-8.469,2.452-10.642,4.731-2.777,2.913-4.339,7.233-3.138,11.074,1.231,3.937,4.969,6.538,8.724,8.246.759.344,1.531.657,2.31.953q-2.1,4.2-4.194,8.4c3.9-1.674,7.951-3.472,10.844-6.5a40.549,40.549,0,0,0,16.6-.224c5.083-1.15,10.365-3.71,12.417-8.5,6.672-15.581-17.284-21.1-32.924-18.171" transform="translate(-2001.131 1934.197)" fill="#f5a1ff"/>
          <path id="Trazado_1080107" data-name="Trazado 1080107" d="M98.369,224.231c5.981,1.122,11.029,3.193,13.859,6.162,3.617,3.794,5.652,9.417,4.087,14.419-1.6,5.128-6.471,8.515-11.362,10.739-.988.449-1.994.857-3.008,1.242l5.462,10.933c-5.075-2.18-10.354-4.521-14.121-8.469a52.816,52.816,0,0,1-21.623-.293c-6.619-1.5-13.5-4.831-16.17-11.069C46.8,227.605,78,220.414,98.369,224.231" transform="translate(-1939.852 1920.077)" fill="#a197ff"/>
          <path id="Trazado_1080108" data-name="Trazado 1080108" d="M129.673,172.407c12.459,2.189,22.9,5.7,28.645,10.331,7.336,5.921,11.244,14.4,7.653,21.645-3.682,7.423-14.093,11.988-24.477,14.833-2.1.574-4.231,1.085-6.38,1.564-.217,2.28,8.633,13.545,8.633,13.545-11.264-3.218-14.888-4.3-22.529-10.46a187.993,187.993,0,0,1-49.675-2.586c-13.772-2.8-27.971-8.335-33.175-17.78-16.924-30.72,48.878-38.548,91.3-31.092" transform="translate(-1936.266 1930.524)" fill="#f07a50"/>
          <path id="Trazado_1080109" data-name="Trazado 1080109" d="M120.84,144.237c4.106.77,7.571,2.192,9.513,4.229,2.482,2.6,3.879,6.465,2.8,9.9-1.1,3.519-4.441,5.845-7.8,7.371-.678.308-1.369.588-2.065.852l3.749,7.5c-3.483-1.5-7.107-3.1-9.692-5.813a36.244,36.244,0,0,1-14.842-.2c-4.543-1.027-9.265-3.316-11.1-7.6-5.964-13.928,15.448-18.864,29.429-16.242" transform="translate(-1946.962 1935.647)" fill="#fff"/>
          <text id="Bonjour" transform="translate(-1631.062 2136.758)" fill="#f07a50" font-size="17" font-family="Montserrat-Medium, Montserrat" font-weight="500"><tspan x="0" y="0">Bonjour</tspan></text>
          <text id="Buenos_días" data-name="Buenos días" transform="translate(-1888.262 2132.733)" fill="#fff" font-size="16" font-family="Montserrat-Medium, Montserrat" font-weight="500"><tspan x="0" y="0">Bue</tspan><tspan y="0" letter-spacing="0.003em">n</tspan><tspan y="0">os días</tspan></text>
        </g>
      </g>
      <g id="Grupo_1209185" data-name="Grupo 1209185" transform="translate(1931.953 -355.812)">
        <path id="Trazado_1079970" data-name="Trazado 1079970" d="M297.031,411.961l-.7,4.681,11.859,23.328,49.29-20.288L334.869,408.04Z" transform="translate(-1758.336 1049.407)" fill="#fff"/>
        <path id="Trazado_1079971" data-name="Trazado 1079971" d="M297.386,407.378l12.5,23.776,45.67-16.056-16.781-20.662Z" transform="translate(-1758.691 1053.99)" fill="#f07a50"/>
        <path id="Trazado_1079972" data-name="Trazado 1079972" d="M305.615,413.388s8.216,18.713,9.212,18.067,14.561-4.164,14.561-4.164-6.733-18.448-7.614-18.5-16.159,4.594-16.159,4.594" transform="translate(-1761.464 1049.153)" fill="#f27fff"/>
        <path id="Trazado_1079973" data-name="Trazado 1079973" d="M301.128,422.775q4.924,9.136,9.7,18.349c.2.379.769.044.572-.335q-4.776-9.213-9.7-18.349c-.2-.375-.775-.041-.572.335" transform="translate(-1759.938 1044.61)"/>
        <path id="Trazado_1079974" data-name="Trazado 1079974" d="M316.841,446l16.852-6.208,4.793-1.765c.4-.147.225-.788-.176-.64l-16.852,6.208-4.793,1.766c-.4.146-.225.787.176.639" transform="translate(-1765.11 1039.527)"/>
        <path id="Trazado_1079975" data-name="Trazado 1079975" d="M307.74,440.126a39.917,39.917,0,0,0,2.1,4.993c.192.381.765.046.573-.335a38.689,38.689,0,0,1-2.038-4.835c-.138-.4-.778-.229-.639.176" transform="translate(-1762.173 1038.733)"/>
        <path id="Trazado_1079976" data-name="Trazado 1079976" d="M315.056,449.407a.709.709,0,0,0-.319,1.046,2.547,2.547,0,0,0,.477.487.546.546,0,0,1,.145.522,4.769,4.769,0,0,1-.633,1.245,1.6,1.6,0,0,0-.118,1.463c.182.386.753.05.572-.335-.161-.343.085-.757.259-1.044a4.058,4.058,0,0,0,.544-1.088,1.255,1.255,0,0,0-.194-1.111c-.123-.155-.289-.258-.422-.4a.428.428,0,0,1-.078-.129c-.045-.09.08-.068-.057-.015a.341.341,0,0,0,.231-.408.334.334,0,0,0-.408-.231" transform="translate(-1764.45 1035.475)"/>
        <path id="Trazado_1079977" data-name="Trazado 1079977" d="M297.614,421.618a98.826,98.826,0,0,1,5.548,10.684c.173.389.744.052.572-.335a98.578,98.578,0,0,0-5.548-10.684.332.332,0,0,0-.572.335" transform="translate(-1758.751 1044.998)"/>
        <path id="Trazado_1079978" data-name="Trazado 1079978" d="M295.7,417.737q-.149,1.041-.3,2.083a.341.341,0,0,0,.232.408.336.336,0,0,0,.408-.232q.148-1.04.3-2.082a.34.34,0,0,0-.231-.408.335.335,0,0,0-.408.231" transform="translate(-1758.021 1046.22)"/>
        <path id="Trazado_1079979" data-name="Trazado 1079979" d="M328,410.6v6.077l14.541,14.975,17.145,20.4,46.444-14.107,2.17-4.124-45.876,2.6-30.845-27.3Z" transform="translate(-1769.005 1049.041)" fill="#c0b79b"/>
        <path id="Trazado_1079980" data-name="Trazado 1079980" d="M328,404.137s10.418,3.256,16.928,19.532c0,0,11.554,3.038,17.5,19.532L408.3,427.359s-11.5-21.486-24.307-19.532c0,0-6.519-18.028-21.569-17.889Z" transform="translate(-1769.005 1055.506)" fill="#fff"/>
        <path id="Trazado_1079981" data-name="Trazado 1079981" d="M354.408,432.67q14.949-5.341,29.527-11.654,4.13-1.789,8.225-3.655c.388-.176.052-.748-.334-.572q-14.443,6.577-29.3,12.193-4.135,1.563-8.3,3.049c-.4.143-.227.783.176.639" transform="translate(-1777.767 1046.47)"/>
        <path id="Trazado_1079982" data-name="Trazado 1079982" d="M365.167,439.584c1.192.743,2.362,1.52,3.534,2.292a14.66,14.66,0,0,1,2.922,2.271c.408.452.669,1,1.057,1.461a14.164,14.164,0,0,0,1.389,1.235,17.667,17.667,0,0,1,2.619,3,8.375,8.375,0,0,0,2.533,2.876c.373.208.707-.364.335-.573a7.665,7.665,0,0,1-2.3-2.638,18.446,18.446,0,0,0-2.51-2.932c-.458-.433-.975-.8-1.425-1.242a17.411,17.411,0,0,1-1.06-1.451,12.263,12.263,0,0,0-2.758-2.264c-1.327-.88-2.654-1.761-4.006-2.6-.363-.227-.7.347-.335.572" transform="translate(-1781.475 1038.99)"/>
        <path id="Trazado_1079983" data-name="Trazado 1079983" d="M374.866,436.853a2.313,2.313,0,0,1,1.8.883,2.59,2.59,0,0,1,.47,1.966,1.415,1.415,0,0,0,.887,1.468c.58.259,1.226.32,1.621.873a15.436,15.436,0,0,0,.985,1.626,3.6,3.6,0,0,0,1.811.9,4.424,4.424,0,0,1,1.811.865,7.028,7.028,0,0,1,1.188,1.4,15.448,15.448,0,0,0,2.567,3.408c.325.274.8-.194.469-.468-1.963-1.651-2.558-4.694-5.143-5.63a6.48,6.48,0,0,1-2.065-.779c-.538-.447-.707-1.2-1.115-1.745a2.959,2.959,0,0,0-1.578-.944,1.08,1.08,0,0,1-.726-.507c-.156-.375.018-.847-.014-1.243a3.034,3.034,0,0,0-2.969-2.734.332.332,0,0,0,0,.663" transform="translate(-1784.688 1039.923)"/>
        <path id="Trazado_1079984" data-name="Trazado 1079984" d="M382.49,432.868c.8.109,1.106.92,1.332,1.591a3.637,3.637,0,0,0,1,1.76,4.321,4.321,0,0,0,1.615.722,3.862,3.862,0,0,1,1.619.683c.511.468.5,1.233.843,1.8a2.278,2.278,0,0,0,1.412.932,4.331,4.331,0,0,1,.793.278c.361.193.4.477.491.852a2.067,2.067,0,0,0,1.192,1.362,8.824,8.824,0,0,1,2.028,1.349,7.257,7.257,0,0,1,1.54,2.117c.186.384.759.048.573-.335a7.77,7.77,0,0,0-3.055-3.31c-.581-.339-1.439-.56-1.623-1.29a1.708,1.708,0,0,0-1.02-1.414c-.51-.217-1.186-.258-1.6-.661-.509-.5-.465-1.368-.912-1.932-.8-1.013-2.219-.887-3.25-1.505-1.372-.824-.9-3.38-2.806-3.641-.417-.057-.6.582-.176.639" transform="translate(-1787.283 1041.258)"/>
        <path id="Trazado_1079985" data-name="Trazado 1079985" d="M390.913,429.254a13.064,13.064,0,0,0,2.8,1.286,1.825,1.825,0,0,1,.989,1.238c.142.569.14,1.167.316,1.728.4,1.257,1.6,1.458,2.541,2.17a13.96,13.96,0,0,1,2.65,3.24l3.158,4.452c.245.345.82.015.573-.335l-2.823-3.98a25.178,25.178,0,0,0-2.562-3.381,5.747,5.747,0,0,0-1.481-1.062,2.423,2.423,0,0,1-1.378-1.17c-.409-1.068-.141-2.3-1.111-3.115-.93-.784-2.282-.754-3.2-1.54-.322-.276-.794.191-.469.469" transform="translate(-1790.165 1042.446)"/>
        <path id="Trazado_1079986" data-name="Trazado 1079986" d="M409.473,419.618c-.66-.127-10.409,5.138-10.409,5.138l11.723,13.821,14.363-4.861s-8.167-12.648-15.677-14.1" transform="translate(-1792.948 1045.507)" fill="#bc3500"/>
        <path id="Trazado_1079987" data-name="Trazado 1079987" d="M354.449,418.695a21.04,21.04,0,0,1,4.057,5.7l25.526-10.568s-2.362-6.2-5.134-6.722Z" transform="translate(-1777.917 1049.724)" fill="#a197ff"/>
        <path id="Trazado_1079988" data-name="Trazado 1079988" d="M339.309,410.668c.9-.111,2.107-.232,2.571.749.206.435.265.926.454,1.369a2.393,2.393,0,0,0,.857,1.037c.4.284.867.469,1.271.749a8.732,8.732,0,0,1,1.118,1.124,4.684,4.684,0,0,0,1.036.741c.329.188.828.416.876.844s.711.424.663,0c-.113-1-1.077-1.247-1.783-1.767-.484-.356-.8-.889-1.261-1.275a10.923,10.923,0,0,0-1.382-.855,2.067,2.067,0,0,1-.94-1.311,3.566,3.566,0,0,0-.642-1.452,3.157,3.157,0,0,0-2.837-.615c-.418.052-.423.715,0,.663" transform="translate(-1772.709 1048.768)"/>
        <path id="Trazado_1079989" data-name="Trazado 1079989" d="M348.369,406.841a4.385,4.385,0,0,1,2.12,1.377c.518.775.357,1.792.732,2.626a5.735,5.735,0,0,0,1.714,1.8,8.776,8.776,0,0,1,1.9,2.357c.208.373.781.039.573-.335a9.325,9.325,0,0,0-1.9-2.4c-.741-.666-1.6-1.16-1.845-2.2a4.982,4.982,0,0,0-.908-2.578,5.942,5.942,0,0,0-2.211-1.294c-.4-.16-.568.481-.176.639" transform="translate(-1775.794 1050.035)"/>
        <path id="Trazado_1079990" data-name="Trazado 1079990" d="M354.654,402.182a4.939,4.939,0,0,0,2.091,1.417,3.382,3.382,0,0,1,1.684,2.349,3.773,3.773,0,0,0,.5,1.32,8.814,8.814,0,0,0,1.075,1.1,15.439,15.439,0,0,1,2.137,2.686c.227.36.8.028.572-.335a16.316,16.316,0,0,0-2.035-2.611c-.355-.369-.776-.692-1.105-1.085a3.655,3.655,0,0,1-.569-1.514,3.914,3.914,0,0,0-1.512-2.23c-.713-.508-1.762-.666-2.266-1.432-.233-.355-.808-.023-.572.335" transform="translate(-1777.967 1051.545)"/>
        <path id="Trazado_1079991" data-name="Trazado 1079991" d="M363.536,398.563c-.038,1.152,1.449,1.146,2.119,1.719a2.552,2.552,0,0,1,.8,1.243,2.969,2.969,0,0,0,.532,1.318c.609.667,1.633.725,2.081,1.565.418.782.505,1.662,1.258,2.23.341.257.672-.319.334-.573-.658-.5-.694-1.5-1.121-2.166-.478-.741-1.294-.856-1.934-1.38-.4-.326-.4-.823-.543-1.276a3.254,3.254,0,0,0-.629-1.113,3.146,3.146,0,0,0-1.035-.79c-.363-.17-1.222-.257-1.2-.775.014-.427-.649-.426-.663,0" transform="translate(-1780.978 1052.708)"/>
        <path id="Trazado_1079992" data-name="Trazado 1079992" d="M374.311,395.721a30.586,30.586,0,0,1,5.773,5.845c.253.338.829.007.573-.335a31.159,31.159,0,0,0-5.878-5.978c-.333-.258-.806.208-.469.468" transform="translate(-1784.569 1053.741)"/>
        <path id="Trazado_1079993" data-name="Trazado 1079993" d="M378.724,393.336a22.365,22.365,0,0,1,4.786,5.517c.223.363.8.03.572-.335a22.912,22.912,0,0,0-4.89-5.651c-.326-.271-.8.2-.469.469" transform="translate(-1786.058 1054.546)"/>
        <path id="Trazado_1079994" data-name="Trazado 1079994" d="M395.982,406.135a32.234,32.234,0,0,0,3.529,4.64c.288.316.757-.155.469-.469a31.324,31.324,0,0,1-3.425-4.506c-.225-.361-.8-.029-.572.335" transform="translate(-1791.892 1050.214)"/>
        <path id="Trazado_1079995" data-name="Trazado 1079995" d="M401.2,407.095l2.111,3.292c.229.359.8.026.572-.334l-2.111-3.293c-.229-.358-.8-.026-.572.335" transform="translate(-1793.651 1049.89)"/>
        <path id="Trazado_1079996" data-name="Trazado 1079996" d="M328.923,416.821c4.28,3.2,8.686,6.556,11.68,11.061a20.843,20.843,0,0,1,2.1,4.018c.152.394.793.223.639-.176-2-5.2-6.052-9.169-10.321-12.587-1.234-.988-2.5-1.941-3.76-2.888-.342-.256-.673.32-.335.572" transform="translate(-1769.269 1046.663)"/>
        <path id="Trazado_1079997" data-name="Trazado 1079997" d="M335.852,425.656c2.122,2.52,5.625,4.026,6.838,7.259.149.4.79.224.639-.176-1.272-3.39-4.789-4.913-7.009-7.551-.275-.327-.742.144-.469.469" transform="translate(-1771.623 1043.667)"/>
        <path id="Trazado_1079998" data-name="Trazado 1079998" d="M353.776,445.232c4.742,3.477,9.632,7.094,12.742,12.2.222.363.8.031.573-.335-2.456-4.028-6.023-7.173-9.733-10.016-1.072-.821-2.159-1.621-3.247-2.418-.345-.253-.676.322-.335.572" transform="translate(-1777.642 1037.09)"/>
        <path id="Trazado_1079999" data-name="Trazado 1079999" d="M360.175,452.805a38.2,38.2,0,0,1,6.236,8.141.332.332,0,0,0,.573-.335,38.858,38.858,0,0,0-6.34-8.275.332.332,0,0,0-.469.469" transform="translate(-1779.813 1034.515)"/>
        <path id="Trazado_1080000" data-name="Trazado 1080000" d="M378.54,469.161a.693.693,0,0,0-.633.408,1.045,1.045,0,0,0-.038.8c.047.141.108.267.147.367a1.569,1.569,0,0,1,.059.179c.005.02.019.1.012.037,0,.026,0,.051,0,.077,0,.072.017-.049,0,.016-.007.025-.013.05-.021.076-.021.074.033-.048-.008.016-.013.022-.025.044-.04.064.03-.043.011-.021-.013,0,.032-.034.028-.023-.009,0l.036-.016c-.029.007-.029.008,0,0s.029,0,0,0a.239.239,0,0,1-.048,0,.333.333,0,0,0-.332.332.341.341,0,0,0,.332.332.683.683,0,0,0,.656-.391,1.023,1.023,0,0,0,.046-.82c-.048-.141-.109-.267-.148-.367a1.533,1.533,0,0,1-.058-.179c-.009-.035-.015-.1-.01-.027a.727.727,0,0,1,0-.076c0-.04.011-.067,0-.013.006-.025.011-.05.018-.074s.04-.073,0-.015c.013-.02.025-.043.036-.064.033-.058-.04.045.007-.006s-.054.031,0,0-.046.013-.007,0,.014-.006-.033,0a.277.277,0,0,1,.048,0,.334.334,0,0,0,.332-.332.338.338,0,0,0-.332-.332" transform="translate(-1785.734 1028.814)"/>
        <path id="Trazado_1080001" data-name="Trazado 1080001" d="M447.083,446.616c-.68.623-1.425,1.487-1.011,2.473a1.291,1.291,0,0,0,.412.523,1.89,1.89,0,0,1,.166.157c-.024.006.044-.088-.009-.035-.209.206-.581.332-.717.656a.343.343,0,0,0,.119.454.334.334,0,0,0,.454-.119c.054-.127.133-.173.258-.255a1.7,1.7,0,0,0,.388-.3.633.633,0,0,0,.149-.549.946.946,0,0,0-.405-.525.826.826,0,0,1-.2-.953,2.9,2.9,0,0,1,.863-1.054c.316-.289-.155-.757-.469-.469" transform="translate(-1808.724 1036.44)"/>
        <path id="Trazado_1080002" data-name="Trazado 1080002" d="M406.926,460.655q6.812-2.3,13.715-4.312a.332.332,0,0,0-.176-.64q-6.9,2.015-13.715,4.313c-.4.135-.229.776.176.639" transform="translate(-1795.461 1033.353)"/>
        <path id="Trazado_1080003" data-name="Trazado 1080003" d="M434.545,454.2q1.878-.4,3.712-.973c.406-.127.233-.767-.176-.639q-1.832.575-3.712.973c-.417.088-.241.727.176.639" transform="translate(-1804.763 1034.402)"/>
        <path id="Trazado_1080004" data-name="Trazado 1080004" d="M309.963,406.345q8.66-2.217,17.171-4.969,2.425-.785,4.835-1.613c.4-.138.229-.779-.176-.641q-8.455,2.9-17.08,5.276-2.457.676-4.926,1.308a.331.331,0,0,0,.176.639" transform="translate(-1762.79 1052.418)"/>
        <path id="Trazado_1080005" data-name="Trazado 1080005" d="M316.975,423.258l9.009,9.59c.293.312.761-.158.469-.469l-9.009-9.589c-.292-.312-.761.158-.469.469" transform="translate(-1765.26 1044.472)"/>
        <path id="Trazado_1080006" data-name="Trazado 1080006" d="M325.538,425.465a25.709,25.709,0,0,1,2.646,3.488c.227.36.8.027.572-.335A26.675,26.675,0,0,0,326.007,425c-.286-.318-.754.153-.469.469" transform="translate(-1768.146 1043.73)"/>
      </g>
      <g id="Grupo_1209186" data-name="Grupo 1209186" transform="translate(1841.823 -498.339)">
        <path id="Trazado_1079941" data-name="Trazado 1079941" d="M130.97,445.556l-2.47,3.088,35.2,1.235,34.583,1.235,9.881-17.909-3.705-3.705Z" transform="translate(-1784.396 1188.932)" fill="#bc3500"/>
        <path id="Trazado_1079942" data-name="Trazado 1079942" d="M127,439.762l2.47,4.323,67.314,1.235,9.263-16.674L205.43,420Z" transform="translate(-1783.823 1192.565)" fill="#c0b79b"/>
        <path id="Trazado_1079943" data-name="Trazado 1079943" d="M138.734,418.72,127,438.482s28.408-6.176,35.818,0c0,0,12.351-6.176,33.966,0l8.646-19.762s-27.79-5.558-35.2,1.853c0,0-11.734-7.411-31.5-1.853" transform="translate(-1783.823 1193.845)" fill="#fff"/>
        <path id="Trazado_1079944" data-name="Trazado 1079944" d="M191.433,422.368a83.4,83.4,0,0,0-7.1,13.773q-.821,2.036-1.532,4.114c-.129.377.467.539.6.164a82.581,82.581,0,0,1,6.3-13.981q1.085-1.909,2.27-3.758c.215-.336-.319-.646-.533-.312" transform="translate(-1805.156 1191.715)"/>
        <path id="Trazado_1079945" data-name="Trazado 1079945" d="M136.046,443.95a45.031,45.031,0,0,1,5.6-1.207q1.413-.21,2.838-.325a11.366,11.366,0,0,1,2.682-.054,2.331,2.331,0,0,1,1,.379c.3.213.5.532.84.684.723.322,1.51-.374,2.172-.589a11.426,11.426,0,0,1,5.092-.085c2.189.309,4.376.632,6.564.948.389.056.557-.539.164-.6l-6-.868a16.428,16.428,0,0,0-5.045-.22,6.3,6.3,0,0,0-1.237.332,9.3,9.3,0,0,1-1.167.529c-.4.091-.666-.358-.942-.576a2.673,2.673,0,0,0-1.046-.49,8.154,8.154,0,0,0-2.418-.062q-1.43.1-2.852.284a45.279,45.279,0,0,0-6.412,1.32.309.309,0,0,0,.164.6" transform="translate(-1787.136 1184.27)"/>
        <path id="Trazado_1079946" data-name="Trazado 1079946" d="M142.848,437.995a7.3,7.3,0,0,1,4.3-.8,6.24,6.24,0,0,1,1.885,1.111,2.338,2.338,0,0,0,1.69.344c1.282-.218,2.276-1.242,3.567-1.425a9.1,9.1,0,0,1,2.491.245,11.054,11.054,0,0,0,2.356-.061,3.2,3.2,0,0,1,1.343.133,7.983,7.983,0,0,1,1.017.51,2.5,2.5,0,0,0,1.982.381c.376-.123.215-.719-.164-.6-.673.22-1.294-.207-1.865-.515a3.905,3.905,0,0,0-1.956-.548,19.178,19.178,0,0,1-2.491.106,17.556,17.556,0,0,0-2.343-.3c-1.379.027-2.393.95-3.648,1.362a1.915,1.915,0,0,1-1.87-.311,5.235,5.235,0,0,0-1.771-1.017c-1.575-.413-3.24.2-4.686.789-.363.148-.2.745.164.6" transform="translate(-1789.742 1186.265)"/>
        <path id="Trazado_1079947" data-name="Trazado 1079947" d="M144.751,432.1a11.666,11.666,0,0,1,4.579-1.317,31.526,31.526,0,0,1,4.784.361,7.519,7.519,0,0,0,2.3-.128,6.971,6.971,0,0,1,2.38-.475c.727.078,1.428.246,2.164.27.688.023,1.377-.011,2.064-.033,1.467-.046,3.087-.074,4.3.878.309.242.749-.192.437-.437-2.327-1.821-5.453-.685-8.13-1.164a4.7,4.7,0,0,0-2.3.033,8.207,8.207,0,0,1-2.575.471c-1.709-.028-3.374-.487-5.092-.414a12.4,12.4,0,0,0-5.234,1.421c-.352.185-.04.718.312.533" transform="translate(-1790.433 1188.768)"/>
        <path id="Trazado_1079948" data-name="Trazado 1079948" d="M150.28,424.823a16.662,16.662,0,0,1,4.921-1.548,6.5,6.5,0,0,1,2.455.2,10.176,10.176,0,0,0,2.214.571c1.381.084,2.7-.48,4.07-.5a2.567,2.567,0,0,1,1.83.669,2.123,2.123,0,0,0,1.948.55c.442-.08.868-.233,1.309-.323a7.115,7.115,0,0,1,1.41-.14,7.454,7.454,0,0,1,2.719.522c.371.145.531-.453.164-.6a7.945,7.945,0,0,0-4.857-.289,6.737,6.737,0,0,1-1.153.261,1.54,1.54,0,0,1-1.2-.508,3.027,3.027,0,0,0-1.742-.748c-1.4-.135-2.759.471-4.156.49a7.268,7.268,0,0,1-2.263-.517,6.888,6.888,0,0,0-2.472-.285,16.661,16.661,0,0,0-5.509,1.654c-.363.158-.049.69.312.533" transform="translate(-1792.545 1191.563)"/>
        <path id="Trazado_1079949" data-name="Trazado 1079949" d="M195.705,432.239S192,440.267,192,439.65s16.674-2.47,22.85,0l2.47-6.793s-9.263-3.705-21.614-.618" transform="translate(-1808.682 1188.354)" fill="#a197ff"/>
        <path id="Trazado_1079950" data-name="Trazado 1079950" d="M199.111,428.7a3.631,3.631,0,0,0,1.471-.625c.51-.32,1.018-.647,1.622-.361a3.576,3.576,0,0,0,1.955.482,10.056,10.056,0,0,0,2.115-.521,11.646,11.646,0,0,1,4.747-.331c1.664.169,3.323.395,4.984.6l5.661.685c.393.048.39-.571,0-.618-3.355-.406-6.708-.829-10.064-1.218a13.586,13.586,0,0,0-4.7.065c-.713.168-1.394.445-2.107.613a3.761,3.761,0,0,1-1.085.12,3.071,3.071,0,0,1-1.194-.408,1.8,1.8,0,0,0-1.682.032,5.96,5.96,0,0,1-1.722.87c-.388.051-.393.669,0,.618" transform="translate(-1811.289 1190.035)"/>
        <path id="Trazado_1079951" data-name="Trazado 1079951" d="M201.485,423.461a10.44,10.44,0,0,1,4.549-1.116c.792.052,1.522.383,2.3.494a3.222,3.222,0,0,0,.992-.015,5.051,5.051,0,0,1,1.173-.176c.711.052,1.268.581,2.009.566a6.606,6.606,0,0,0,1.884-.5c1.491-.488,2.836.306,4.319.4,1.339.088,3.055-.427,4.2.5.306.248.746-.186.437-.437-1.033-.836-2.329-.727-3.578-.677a7.571,7.571,0,0,1-2.148-.19,8.874,8.874,0,0,0-2.23-.405,7.167,7.167,0,0,0-2.061.529,2.422,2.422,0,0,1-1.081.15,4.737,4.737,0,0,1-1.036-.384,2.188,2.188,0,0,0-1.059-.152c-.422.046-.831.191-1.256.21a12.194,12.194,0,0,1-2.358-.472,9.941,9.941,0,0,0-5.218,1.082c-.363.149-.2.747.164.6" transform="translate(-1812.168 1191.908)"/>
        <path id="Trazado_1079952" data-name="Trazado 1079952" d="M204.253,436.965a45.6,45.6,0,0,1,10.2-1.712c.4-.021.4-.639,0-.618a46.369,46.369,0,0,0-10.361,1.735.309.309,0,0,0,.164.6" transform="translate(-1813.222 1186.969)"/>
        <path id="Trazado_1079953" data-name="Trazado 1079953" d="M213.393,438.806a45.463,45.463,0,0,1,5.556-1.1c.388-.052.393-.67,0-.618a46.7,46.7,0,0,0-5.72,1.123.309.309,0,0,0,.164.6" transform="translate(-1816.717 1186.032)"/>
        <path id="Trazado_1079954" data-name="Trazado 1079954" d="M134.443,453.9a127.931,127.931,0,0,1,22.218-1.258q3.145.1,6.282.347c.4.031.395-.586,0-.618a128.427,128.427,0,0,0-22.411.178q-3.136.3-6.253.755c-.392.057-.225.652.164.6" transform="translate(-1786.521 1180.338)"/>
        <path id="Trazado_1079955" data-name="Trazado 1079955" d="M152.851,455.18a62.591,62.591,0,0,1,16.037.035c.393.051.389-.567,0-.618a62.59,62.59,0,0,0-16.037-.035c-.389.049-.394.668,0,.618" transform="translate(-1793.597 1179.538)"/>
        <path id="Trazado_1079956" data-name="Trazado 1079956" d="M191.044,452.426a79.15,79.15,0,0,1,20.844-.1c1.99.255,3.97.592,5.935,1,.388.08.554-.515.164-.6a79.767,79.767,0,0,0-21.177-1.5q-2.976.189-5.931.6c-.392.054-.225.649.164.6" transform="translate(-1808.168 1180.682)"/>
        <path id="Trazado_1079957" data-name="Trazado 1079957" d="M183.33,450.956c-.007.728-.616,1.48-.175,2.19.431.693,1.338.56,2,.351l-.3-.08c.225.233.035.633-.091.869a2.131,2.131,0,0,0-.372,1.195c.038.392.656.4.618,0-.048-.487.339-.879.483-1.322a1.142,1.142,0,0,0-.2-1.179.305.305,0,0,0-.3-.079c-.378.119-1.226.368-1.362-.21a1.65,1.65,0,0,1,.138-.813,3.232,3.232,0,0,0,.182-.923.309.309,0,0,0-.618,0" transform="translate(-1805.238 1180.84)"/>
        <path id="Trazado_1079958" data-name="Trazado 1079958" d="M197.891,455.75a140.52,140.52,0,0,1,16.589-.093q2.358.127,4.709.333c.4.035.394-.583,0-.618a140.609,140.609,0,0,0-16.583-.467q-2.359.073-4.715.227c-.395.025-.4.643,0,.618" transform="translate(-1810.821 1179.241)"/>
        <path id="Trazado_1079959" data-name="Trazado 1079959" d="M247.215,432.7l-6.305,13.57c-.166.358.366.672.534.312l6.3-13.57c.167-.358-.366-.673-.533-.312" transform="translate(-1827.375 1187.768)"/>
        <path id="Trazado_1079960" data-name="Trazado 1079960" d="M235.308,407.59l3.279.837,2.408.61L268.422,431.6l-3.009,3.657-27.426-22.568-1.1-2.086Z" transform="translate(-1825.244 1197.312)" fill="#f27fff"/>
        <rect id="Rectángulo_417849" data-name="Rectángulo 417849" width="4.74" height="3.993" transform="matrix(0.635, -0.772, 0.772, 0.635, -1562.92, 1630.036)" fill="#a197ff"/>
        <rect id="Rectángulo_417850" data-name="Rectángulo 417850" width="4.74" height="3.993" transform="matrix(0.635, -0.772, 0.772, 0.635, -1565.867, 1627.611)" fill="#f07a50"/>
        <path id="Trazado_1079961" data-name="Trazado 1079961" d="M235.308,407.59l3.279.837c-.019.023-.038.057-.057.081.209-.064.333.274.2.442a1.062,1.062,0,0,1-.58.277c-.2.069-.432.2-.432.419a.62.62,0,0,0,.1.286l.371.657a9.609,9.609,0,0,1-1.3.019Z" transform="translate(-1825.245 1197.312)"/>
        <path id="Trazado_1079962" data-name="Trazado 1079962" d="M262.208,428.379l-11.284-9.286c-.305-.25-.744.184-.437.437l11.284,9.285c.3.251.744-.184.437-.437" transform="translate(-1831.01 1192.941)"/>
      </g>
    </g>
  </g>
</svg>
