<svg xmlns="http://www.w3.org/2000/svg" xmlns:xlink="http://www.w3.org/1999/xlink" width="110" height="110" viewBox="0 0 110 110">
  <defs>
    <filter id="Trazado_982547" x="0" y="0" width="110" height="110" filterUnits="userSpaceOnUse">
      <feOffset dy="3" input="SourceAlpha"/>
      <feGaussianBlur stdDeviation="3" result="blur"/>
      <feFlood flood-opacity="0.161"/>
      <feComposite operator="in" in2="blur"/>
      <feComposite in="SourceGraphic"/>
    </filter>
  </defs>
  <g id="Grupo_1209261" data-name="Grupo 1209261" transform="translate(-938 -2253.603)">
    <g id="Grupo_1209262" data-name="Grupo 1209262">
      <g id="Grupo_1207776" data-name="Grupo 1207776" transform="translate(141 -558.528)">
        <g id="Grupo_1185076" data-name="Grupo 1185076" transform="translate(806 2818.131)">
          <g id="Grupo_1183626" data-name="Grupo 1183626" transform="translate(0 0)">
            <g id="Grupo_1179602" data-name="Grupo 1179602">
              <g id="Grupo_1171898" data-name="Grupo 1171898" transform="translate(0 0)">
                <g id="Grupo_1164700" data-name="Grupo 1164700">
                  <g id="Grupo_1160931" data-name="Grupo 1160931">
                    <g id="Grupo_1160749" data-name="Grupo 1160749">
                      <g id="Grupo_1158891" data-name="Grupo 1158891">
                        <g id="Grupo_1157406" data-name="Grupo 1157406">
                          <g id="Grupo_1155793" data-name="Grupo 1155793">
                            <g id="Grupo_1154704" data-name="Grupo 1154704">
                              <g id="Grupo_1150790" data-name="Grupo 1150790">
                                <g id="Grupo_1154214" data-name="Grupo 1154214">
                                  <g id="Grupo_1152583" data-name="Grupo 1152583">
                                    <g id="Grupo_1146973" data-name="Grupo 1146973">
                                      <g id="Grupo_1146954" data-name="Grupo 1146954">
                                        <g transform="matrix(1, 0, 0, 1, -9, -6)" filter="url(#Trazado_982547)">
                                          <g id="Trazado_982547-2" data-name="Trazado 982547" transform="translate(9 6)" fill="#eaf9f8">
                                            <path d="M 46.00000381469727 90.49986267089844 C 39.99188232421875 90.49986267089844 34.16428375244141 89.32350158691406 28.67905807495117 87.00344848632812 C 23.38021659851074 84.76223754882812 18.62104415893555 81.55341339111328 14.53376388549805 77.46613311767578 C 10.44647026062012 73.37885284423828 7.237643718719482 68.61968994140625 4.996417045593262 63.32085037231445 C 2.676363706588745 57.83565139770508 1.500003814697266 52.00805282592773 1.500003814697266 45.99993133544922 C 1.500003814697266 39.99182510375977 2.676363706588745 34.16422653198242 4.996417045593262 28.67901039123535 C 7.237643718719482 23.38017082214355 10.44647026062012 18.62101173400879 14.53376388549805 14.53373146057129 C 18.62104415893555 10.44645118713379 23.38021659851074 7.237624645233154 28.67905807495117 4.996411323547363 C 34.16428375244141 2.676357984542847 39.99188232421875 1.499997973442078 46.00000381469727 1.499997973442078 C 52.00812530517578 1.499997973442078 57.83573532104492 2.676357984542847 63.32094955444336 4.996411323547363 C 68.61980438232422 7.237624645233154 73.37896728515625 10.44645118713379 77.46625518798828 14.53373146057129 C 81.55353546142578 18.62101173400879 84.76236724853516 23.38017082214355 87.00359344482422 28.67901039123535 C 89.32364654541016 34.16422653198242 90.5 39.99182510375977 90.5 45.99993133544922 C 90.5 52.00805282592773 89.32364654541016 57.83565139770508 87.00359344482422 63.32085037231445 C 84.76236724853516 68.61968994140625 81.55353546142578 73.37885284423828 77.46625518798828 77.46613311767578 C 73.37896728515625 81.55341339111328 68.61980438232422 84.76223754882812 63.32094955444336 87.00344848632812 C 57.83573532104492 89.32350158691406 52.00812530517578 90.49986267089844 46.00000381469727 90.49986267089844 Z" stroke="none"/>
                                            <path d="M 46.00000381469727 3 C 40.19371795654297 3 34.56270217895508 4.136505126953125 29.26338958740234 6.377914428710938 C 24.14333343505859 8.54351806640625 19.54443359375 11.64438629150391 15.59442138671875 15.59439086914062 C 11.64440155029297 19.54440307617188 8.543533325195312 24.14330291748047 6.3779296875 29.26334381103516 C 4.136505126953125 34.56266021728516 3.000007629394531 40.19366073608398 3.000007629394531 45.99993133544922 C 3.000007629394531 51.80620193481445 4.136505126953125 57.43720245361328 6.3779296875 62.73651885986328 C 8.543533325195312 67.85655975341797 11.64440155029297 72.45545959472656 15.59442138671875 76.40547180175781 C 19.54443359375 80.35547637939453 24.14333343505859 83.45634460449219 29.26338958740234 85.6219482421875 C 34.56270217895508 87.86335754394531 40.19371795654297 88.99986267089844 46.00000381469727 88.99986267089844 C 51.80628967285156 88.99986267089844 57.43730545043945 87.86335754394531 62.73663330078125 85.6219482421875 C 67.85667419433594 83.45634460449219 72.45558929443359 80.35547637939453 76.40560150146484 76.40547180175781 C 80.35560607910156 72.45545959472656 83.45648956298828 67.85655975341797 85.62208557128906 62.73651885986328 C 87.86350250244141 57.43720245361328 89 51.80620193481445 89 45.99993133544922 C 89 40.19366073608398 87.86350250244141 34.56266021728516 85.62208557128906 29.26334381103516 C 83.45648956298828 24.14330291748047 80.35560607910156 19.54440307617188 76.40560150146484 15.59439086914062 C 72.45558929443359 11.64438629150391 67.85667419433594 8.54351806640625 62.73663330078125 6.377914428710938 C 57.43730545043945 4.136505126953125 51.80628967285156 3 46.00000381469727 3 M 46.00000381469727 0 C 71.40510559082031 0 92 20.59487152099609 92 45.99993133544922 C 92 71.40499114990234 71.40510559082031 91.99986267089844 46.00000381469727 91.99986267089844 C 20.59491729736328 91.99986267089844 7.62939453125e-06 71.40499114990234 7.62939453125e-06 45.99993133544922 C 7.62939453125e-06 20.59487152099609 20.59491729736328 0 46.00000381469727 0 Z" stroke="none" fill="#1f7069"/>
                                          </g>
                                        </g>
                                      </g>
                                    </g>
                                  </g>
                                </g>
                              </g>
                            </g>
                          </g>
                        </g>
                      </g>
                    </g>
                  </g>
                </g>
              </g>
            </g>
          </g>
        </g>
      </g>
      <g id="_27-hangout" data-name="27-hangout" transform="translate(968.586 2281.188)">
        <rect id="Rectángulo_417860" data-name="Rectángulo 417860" width="46.933" height="46.933" rx="6" transform="translate(0.828 0.828)" fill="#1ca361"/>
        <path id="Trazado_1080265" data-name="Trazado 1080265" d="M43.724,1H5.578A4.578,4.578,0,0,0,1,5.578v7.629A16.784,16.784,0,0,0,17.784,29.991H31.517A16.784,16.784,0,0,0,48.3,13.207V5.578A4.578,4.578,0,0,0,43.724,1Z" transform="translate(-0.237 -0.237)" fill="#20bd70"/>
        <path id="Trazado_1080266" data-name="Trazado 1080266" d="M43.724,1H5.578A4.578,4.578,0,0,0,1,5.578V8.629A4.578,4.578,0,0,1,5.578,4.052H43.724A4.578,4.578,0,0,1,48.3,8.629V5.578A4.578,4.578,0,0,0,43.724,1Z" transform="translate(-0.237 -0.237)" fill="#2fe089"/>
        <path id="Trazado_1080267" data-name="Trazado 1080267" d="M43.724,57.578H5.578A4.578,4.578,0,0,1,1,53v3.052a4.578,4.578,0,0,0,4.578,4.578H43.724A4.578,4.578,0,0,0,48.3,56.052V53a4.578,4.578,0,0,1-4.578,4.578Z" transform="translate(-0.237 -12.565)" fill="#178c57"/>
        <path id="Trazado_1080268" data-name="Trazado 1080268" d="M7,25.259C7,16.831,15.539,10,26.073,10s19.073,6.831,19.073,15.259-8.539,18.31-19.073,18.31V40.517C15.539,40.517,7,33.686,7,25.259Z" transform="translate(-1.659 -2.371)" fill="#f2f2f2"/>
        <path id="Trazado_1080269" data-name="Trazado 1080269" d="M20,28.341V23.763A.763.763,0,0,1,20.763,23h6.1a.763.763,0,0,1,.763.763v9.918l-1.907,1.907A1.618,1.618,0,1,1,23.433,33.3l1.144-1.144V29.1H20.763A.763.763,0,0,1,20,28.341Z" transform="translate(-4.741 -5.453)" fill="#1ca361"/>
        <path id="Trazado_1080270" data-name="Trazado 1080270" d="M34,28.341V23.763A.763.763,0,0,1,34.763,23h6.1a.763.763,0,0,1,.763.763v9.918l-1.907,1.907A1.618,1.618,0,1,1,37.433,33.3l1.144-1.144V29.1H34.763A.763.763,0,0,1,34,28.341Z" transform="translate(-8.06 -5.453)" fill="#1ca361"/>
        <g id="Grupo_1209260" data-name="Grupo 1209260" transform="translate(5.341 17.547)">
          <path id="Trazado_1080271" data-name="Trazado 1080271" d="M7.059,31.5c-.035.381-.059.759-.059,1.144C7,41.072,15.539,47.9,26.073,47.9V45.614c-10.052,0-18.282-6.222-19.015-14.114Z" transform="translate(-7 -25.015)" fill="#178c57"/>
          <path id="Trazado_1080272" data-name="Trazado 1080272" d="M32,48.669v2.289c10.534,0,19.073-9.883,19.073-18.31,0-.381-.024-.759-.058-1.134C50.289,39.662,42.056,48.669,32,48.669Z" transform="translate(-12.927 -25.018)" fill="#178c57"/>
          <path id="Trazado_1080273" data-name="Trazado 1080273" d="M26.866,23h-6.1a.763.763,0,0,0-.763.763v1.526a.763.763,0,0,1,.763-.763h6.1a.763.763,0,0,1,.763.763V23.763A.763.763,0,0,0,26.866,23Z" transform="translate(-10.082 -23)" fill="#178c57"/>
          <path id="Trazado_1080274" data-name="Trazado 1080274" d="M40.866,23h-6.1a.763.763,0,0,0-.763.763v1.526a.763.763,0,0,1,.763-.763h6.1a.763.763,0,0,1,.763.763V23.763A.763.763,0,0,0,40.866,23Z" transform="translate(-13.401 -23)" fill="#178c57"/>
        </g>
        <path id="Trazado_1080275" data-name="Trazado 1080275" d="M20.763,30.763A.763.763,0,0,1,20,30v1.526a.763.763,0,0,0,.763.763h3.815V30.763Z" transform="translate(-4.741 -7.112)" fill="#e6e6e6"/>
        <path id="Trazado_1080276" data-name="Trazado 1080276" d="M34.763,30.763A.763.763,0,0,1,34,30v1.526a.763.763,0,0,0,.763.763h3.815V30.763Z" transform="translate(-8.06 -7.112)" fill="#e6e6e6"/>
        <path id="Trazado_1080277" data-name="Trazado 1080277" d="M24.354,38.907a1.607,1.607,0,0,1-.275-.381,1.614,1.614,0,0,0,2.563,1.907l1.907-1.907V37l-1.907,1.907a1.619,1.619,0,0,1-2.289,0Z" transform="translate(-5.662 -8.772)" fill="#e6e6e6"/>
        <path id="Trazado_1080278" data-name="Trazado 1080278" d="M38.354,38.907a1.607,1.607,0,0,1-.275-.381,1.614,1.614,0,0,0,2.563,1.907l1.907-1.907V37l-1.907,1.907a1.619,1.619,0,0,1-2.289,0Z" transform="translate(-8.981 -8.772)" fill="#e6e6e6"/>
        <path id="Trazado_1080279" data-name="Trazado 1080279" d="M25.836,49.073a.763.763,0,0,1-.763-.763v-2.3C14.488,45.685,6,38.628,6,30H7.526c0,7.993,8.214,14.5,18.31,14.5a.763.763,0,0,1,.763.763v2.27a19.168,19.168,0,0,0,14.648-8.8l1.272.844C38.633,45.434,32.245,49.073,25.836,49.073Z" transform="translate(-1.422 -7.112)"/>
        <path id="Trazado_1080280" data-name="Trazado 1080280" d="M43.761,33.016l-1.34-.731a15.4,15.4,0,0,0,2.013-7.264c0-7.993-8.214-14.5-18.31-14.5-8.066,0-15.1,4.1-17.49,10.2l-1.42-.557C9.835,13.487,17.435,9,26.124,9,37.061,9,45.96,16.188,45.96,25.022a16.932,16.932,0,0,1-2.2,7.995Z" transform="translate(-1.71 -2.134)"/>
        <path id="Trazado_1080281" data-name="Trazado 1080281" d="M7.645,27.561l-1.514-.188a13.275,13.275,0,0,1,.305-1.618l1.479.374a11.764,11.764,0,0,0-.269,1.432Z" transform="translate(-1.453 -6.106)"/>
        <path id="Trazado_1080282" data-name="Trazado 1080282" d="M43.487,48.828H5.341A5.347,5.347,0,0,1,0,43.487V5.341A5.347,5.347,0,0,1,5.341,0H6.866V1.526H5.341A3.819,3.819,0,0,0,1.526,5.341V43.487A3.819,3.819,0,0,0,5.341,47.3H43.487A3.819,3.819,0,0,0,47.3,43.487V41.961h1.526v1.526A5.347,5.347,0,0,1,43.487,48.828Z"/>
        <path id="Trazado_1080283" data-name="Trazado 1080283" d="M52.384,40.435H50.858V8.392c0-2.564-.5-6.866-3.815-6.866H15V0H47.043c1.6,0,5.341.818,5.341,8.392Z" transform="translate(-3.556)"/>
        <path id="Trazado_1080284" data-name="Trazado 1080284" d="M11,0h1.526V1.526H11Z" transform="translate(-2.608)"/>
        <path id="Trazado_1080285" data-name="Trazado 1080285" d="M24.341,36.586a2.38,2.38,0,0,1-1.684-4.063l.921-.921V29.629H20.526A1.526,1.526,0,0,1,19,28.1V23.526A1.526,1.526,0,0,1,20.526,22h6.1a1.526,1.526,0,0,1,1.526,1.526v9.918a.763.763,0,0,1-.223.539l-1.907,1.907a2.374,2.374,0,0,1-1.684.7Zm0-8.483a.763.763,0,0,1,.763.763v3.052a.763.763,0,0,1-.223.539L23.736,33.6a.856.856,0,1,0,1.21,1.21l1.684-1.684v-9.6h-6.1V28.1Z" transform="translate(-4.504 -5.216)"/>
        <path id="Trazado_1080286" data-name="Trazado 1080286" d="M38.341,36.586a2.38,2.38,0,0,1-1.684-4.063l.921-.921V29.629H34.526A1.526,1.526,0,0,1,33,28.1V23.526A1.526,1.526,0,0,1,34.526,22h6.1a1.526,1.526,0,0,1,1.526,1.526v9.918a.763.763,0,0,1-.223.539l-1.907,1.907a2.374,2.374,0,0,1-1.684.7Zm0-8.483a.763.763,0,0,1,.763.763v3.052a.763.763,0,0,1-.223.539L37.736,33.6a.856.856,0,1,0,1.21,1.21l1.684-1.684v-9.6h-6.1V28.1Z" transform="translate(-7.823 -5.216)"/>
      </g>
    </g>
  </g>
</svg>
