<svg xmlns="http://www.w3.org/2000/svg" xmlns:xlink="http://www.w3.org/1999/xlink" width="110" height="110" viewBox="0 0 110 110">
  <defs>
    <filter id="Trazado_982547" x="0" y="0" width="110" height="110" filterUnits="userSpaceOnUse">
      <feOffset dy="3" input="SourceAlpha"/>
      <feGaussianBlur stdDeviation="3" result="blur"/>
      <feFlood flood-opacity="0.161"/>
      <feComposite operator="in" in2="blur"/>
      <feComposite in="SourceGraphic"/>
    </filter>
  </defs>
  <g id="Grupo_1209992" data-name="Grupo 1209992" transform="translate(-938 -2604.603)">
    <g id="Grupo_1185076" data-name="Grupo 1185076" transform="translate(947 2610.603)">
      <g id="Grupo_1183626" data-name="Grupo 1183626" transform="translate(0 0)">
        <g id="Grupo_1179602" data-name="Grupo 1179602">
          <g id="Grupo_1171898" data-name="Grupo 1171898" transform="translate(0 0)">
            <g id="Grupo_1164700" data-name="Grupo 1164700">
              <g id="Grupo_1160931" data-name="Grupo 1160931">
                <g id="Grupo_1160749" data-name="Grupo 1160749">
                  <g id="Grupo_1158891" data-name="Grupo 1158891">
                    <g id="Grupo_1157406" data-name="Grupo 1157406">
                      <g id="Grupo_1155793" data-name="Grupo 1155793">
                        <g id="Grupo_1154704" data-name="Grupo 1154704">
                          <g id="Grupo_1150790" data-name="Grupo 1150790">
                            <g id="Grupo_1154214" data-name="Grupo 1154214">
                              <g id="Grupo_1152583" data-name="Grupo 1152583">
                                <g id="Grupo_1146973" data-name="Grupo 1146973">
                                  <g id="Grupo_1146954" data-name="Grupo 1146954">
                                    <g transform="matrix(1, 0, 0, 1, -9, -6)" filter="url(#Trazado_982547)">
                                      <g id="Trazado_982547-2" data-name="Trazado 982547" transform="translate(9 6)" fill="#eaf9f8">
                                        <path d="M 46.00000381469727 90.49986267089844 C 39.99188232421875 90.49986267089844 34.16428375244141 89.32350158691406 28.67905807495117 87.00344848632812 C 23.38021659851074 84.76223754882812 18.62104415893555 81.55341339111328 14.53376388549805 77.46613311767578 C 10.44647026062012 73.37885284423828 7.237643718719482 68.61968994140625 4.996417045593262 63.32085037231445 C 2.676363706588745 57.83565139770508 1.500003814697266 52.00805282592773 1.500003814697266 45.99993133544922 C 1.500003814697266 39.99182510375977 2.676363706588745 34.16422653198242 4.996417045593262 28.67901039123535 C 7.237643718719482 23.38017082214355 10.44647026062012 18.62101173400879 14.53376388549805 14.53373146057129 C 18.62104415893555 10.44645118713379 23.38021659851074 7.237624645233154 28.67905807495117 4.996411323547363 C 34.16428375244141 2.676357984542847 39.99188232421875 1.499997973442078 46.00000381469727 1.499997973442078 C 52.00812530517578 1.499997973442078 57.83573532104492 2.676357984542847 63.32094955444336 4.996411323547363 C 68.61980438232422 7.237624645233154 73.37896728515625 10.44645118713379 77.46625518798828 14.53373146057129 C 81.55353546142578 18.62101173400879 84.76236724853516 23.38017082214355 87.00359344482422 28.67901039123535 C 89.32364654541016 34.16422653198242 90.5 39.99182510375977 90.5 45.99993133544922 C 90.5 52.00805282592773 89.32364654541016 57.83565139770508 87.00359344482422 63.32085037231445 C 84.76236724853516 68.61968994140625 81.55353546142578 73.37885284423828 77.46625518798828 77.46613311767578 C 73.37896728515625 81.55341339111328 68.61980438232422 84.76223754882812 63.32094955444336 87.00344848632812 C 57.83573532104492 89.32350158691406 52.00812530517578 90.49986267089844 46.00000381469727 90.49986267089844 Z" stroke="none"/>
                                        <path d="M 46.00000381469727 3 C 40.19371795654297 3 34.56270217895508 4.136505126953125 29.26338958740234 6.377914428710938 C 24.14333343505859 8.54351806640625 19.54443359375 11.64438629150391 15.59442138671875 15.59439086914062 C 11.64440155029297 19.54440307617188 8.543533325195312 24.14330291748047 6.3779296875 29.26334381103516 C 4.136505126953125 34.56266021728516 3.000007629394531 40.19366073608398 3.000007629394531 45.99993133544922 C 3.000007629394531 51.80620193481445 4.136505126953125 57.43720245361328 6.3779296875 62.73651885986328 C 8.543533325195312 67.85655975341797 11.64440155029297 72.45545959472656 15.59442138671875 76.40547180175781 C 19.54443359375 80.35547637939453 24.14333343505859 83.45634460449219 29.26338958740234 85.6219482421875 C 34.56270217895508 87.86335754394531 40.19371795654297 88.99986267089844 46.00000381469727 88.99986267089844 C 51.80628967285156 88.99986267089844 57.43730545043945 87.86335754394531 62.73663330078125 85.6219482421875 C 67.85667419433594 83.45634460449219 72.45558929443359 80.35547637939453 76.40560150146484 76.40547180175781 C 80.35560607910156 72.45545959472656 83.45648956298828 67.85655975341797 85.62208557128906 62.73651885986328 C 87.86350250244141 57.43720245361328 89 51.80620193481445 89 45.99993133544922 C 89 40.19366073608398 87.86350250244141 34.56266021728516 85.62208557128906 29.26334381103516 C 83.45648956298828 24.14330291748047 80.35560607910156 19.54440307617188 76.40560150146484 15.59439086914062 C 72.45558929443359 11.64438629150391 67.85667419433594 8.54351806640625 62.73663330078125 6.377914428710938 C 57.43730545043945 4.136505126953125 51.80628967285156 3 46.00000381469727 3 M 46.00000381469727 0 C 71.40510559082031 0 92 20.59487152099609 92 45.99993133544922 C 92 71.40499114990234 71.40510559082031 91.99986267089844 46.00000381469727 91.99986267089844 C 20.59491729736328 91.99986267089844 7.62939453125e-06 71.40499114990234 7.62939453125e-06 45.99993133544922 C 7.62939453125e-06 20.59487152099609 20.59491729736328 0 46.00000381469727 0 Z" stroke="none" fill="#1f7069"/>
                                      </g>
                                    </g>
                                  </g>
                                </g>
                              </g>
                            </g>
                          </g>
                        </g>
                      </g>
                    </g>
                  </g>
                </g>
              </g>
            </g>
          </g>
        </g>
      </g>
    </g>
    <path id="Colon" d="M33.074,18.57a4.741,4.741,0,0,1,.378,1.892,4.682,4.682,0,0,1-.378,1.881A4.833,4.833,0,0,1,30.506,24.9a4.741,4.741,0,0,1-1.892.378,4.682,4.682,0,0,1-1.881-.378,4.863,4.863,0,0,1-2.557-2.557,4.66,4.66,0,0,1-.378-1.881,4.764,4.764,0,0,1,.378-1.892A4.833,4.833,0,0,1,26.733,16a4.66,4.66,0,0,1,1.881-.378A4.764,4.764,0,0,1,30.506,16a4.8,4.8,0,0,1,2.568,2.568Zm-1.032,14.8a4.772,4.772,0,0,0-3.428-1.421,4.682,4.682,0,0,0-1.881.378,4.808,4.808,0,0,0-1.525,1.043,5,5,0,0,0-1.032,1.548,4.686,4.686,0,0,0-.378,1.868,4.824,4.824,0,0,0,1.41,3.428,4.888,4.888,0,0,0,1.525,1.032,4.66,4.66,0,0,0,1.881.378,4.764,4.764,0,0,0,1.892-.378,4.8,4.8,0,0,0,2.568-2.568,4.741,4.741,0,0,0,.378-1.892,4.647,4.647,0,0,0-.378-1.868,4.989,4.989,0,0,0-1.032-1.548Zm25.208-16.6V40.478A16.773,16.773,0,0,1,40.478,57.25H16.773A16.773,16.773,0,0,1,0,40.478V16.773A16.773,16.773,0,0,1,16.773,0H40.478A16.773,16.773,0,0,1,57.25,16.773ZM34.571,36.789A5.831,5.831,0,0,0,34.1,34.48a6.131,6.131,0,0,0-1.262-1.891,5.891,5.891,0,0,0-4.226-1.756,5.815,5.815,0,0,0-2.326.471,5.923,5.923,0,0,0-1.877,1.286,6.151,6.151,0,0,0-1.262,1.891,5.831,5.831,0,0,0-.469,2.309,5.943,5.943,0,0,0,1.738,4.219,6.027,6.027,0,0,0,1.871,1.267,5.807,5.807,0,0,0,2.326.471,5.881,5.881,0,0,0,2.333-.469A5.922,5.922,0,0,0,34.1,39.123a5.889,5.889,0,0,0,.469-2.333Zm0-16.328a5.889,5.889,0,0,0-.469-2.333,5.922,5.922,0,0,0-3.155-3.155,5.889,5.889,0,0,0-2.333-.469,5.815,5.815,0,0,0-2.326.471,5.95,5.95,0,0,0-3.14,3.153,5.889,5.889,0,0,0-.469,2.333,5.815,5.815,0,0,0,.471,2.326,5.978,5.978,0,0,0,3.138,3.138,5.807,5.807,0,0,0,2.326.471,5.881,5.881,0,0,0,2.333-.469,5.949,5.949,0,0,0,3.153-3.14,5.807,5.807,0,0,0,.471-2.326Z" transform="translate(963.875 2627.977)"/>
  </g>
</svg>
