<svg xmlns="http://www.w3.org/2000/svg" xmlns:xlink="http://www.w3.org/1999/xlink" width="108" height="108" viewBox="0 0 108 108">
  <defs>
    <filter id="Trazado_904820" x="0" y="-0.001" width="108" height="108" filterUnits="userSpaceOnUse">
      <feOffset dy="3" input="SourceAlpha"/>
      <feGaussianBlur stdDeviation="3" result="blur"/>
      <feFlood flood-opacity="0.161"/>
      <feComposite operator="in" in2="blur"/>
      <feComposite in="SourceGraphic"/>
    </filter>
  </defs>
  <g id="Grupo_1209195" data-name="Grupo 1209195" transform="translate(-617 -440.302)">
    <g id="Grupo_1207774" data-name="Grupo 1207774" transform="translate(0 -350)">
      <g id="Grupo_1206630" data-name="Grupo 1206630" transform="translate(-3 -8745.102)">
        <g id="Grupo_1185091" data-name="Grupo 1185091" transform="translate(419.773 8756.733)">
          <g id="Grupo_1179560" data-name="Grupo 1179560" transform="translate(-0.227 23)">
            <g id="Grupo_1173787" data-name="Grupo 1173787" transform="translate(209.455 761.67)">
              <g id="Grupo_1171910" data-name="Grupo 1171910" transform="translate(0)">
                <g id="Grupo_1167341" data-name="Grupo 1167341">
                  <g id="Grupo_1166792" data-name="Grupo 1166792">
                    <g transform="matrix(1, 0, 0, 1, -9, -6)" filter="url(#Trazado_904820)">
                      <g id="Trazado_904820-2" data-name="Trazado 904820" transform="translate(9 6)" fill="#fff9e9">
                        <path d="M 44.99999618530273 88.50003051757812 C 39.12687301635742 88.50003051757812 33.43022155761719 87.35010528564453 28.06829643249512 85.08219909667969 C 22.88852119445801 82.89134216308594 18.23629570007324 79.75461578369141 14.24084663391113 75.75916290283203 C 10.24540901184082 71.76371765136719 7.108683586120605 67.11150360107422 4.917821407318115 61.93172836303711 C 2.649921178817749 56.56978988647461 1.499996185302734 50.87313842773438 1.499996185302734 45.00001525878906 C 1.499996185302734 39.12689208984375 2.649921178817749 33.43024063110352 4.917821407318115 28.06831550598145 C 7.108683586120605 22.88854026794434 10.24540901184082 18.23631477355957 14.24084663391113 14.24086570739746 C 18.23629570007324 10.24541568756104 22.88852119445801 7.10869026184082 28.06829643249512 4.917840480804443 C 33.43022155761719 2.649927854537964 39.12687301635742 1.50000274181366 44.99999618530273 1.50000274181366 C 50.87311935424805 1.50000274181366 56.56977081298828 2.649927854537964 61.93169784545898 4.917840480804443 C 67.11147308349609 7.10869026184082 71.76369476318359 10.24541568756104 75.75914764404297 14.24086570739746 C 79.75458526611328 18.23631477355957 82.89131164550781 22.88854026794434 85.08216857910156 28.06831550598145 C 87.35007476806641 33.43024063110352 88.5 39.12689208984375 88.5 45.00001525878906 C 88.5 50.87313842773438 87.35007476806641 56.56978988647461 85.08216857910156 61.93172836303711 C 82.89131164550781 67.11150360107422 79.75458526611328 71.76371765136719 75.75914764404297 75.75916290283203 C 71.76369476318359 79.75461578369141 67.11147308349609 82.89134216308594 61.93169784545898 85.08219909667969 C 56.56977081298828 87.35010528564453 50.87311935424805 88.50003051757812 44.99999618530273 88.50003051757812 Z" stroke="none"/>
                        <path d="M 44.99999618530273 3 C 39.32870864868164 3 33.82865142822266 4.110061645507812 28.65262603759766 6.299346923828125 C 23.65165710449219 8.414573669433594 19.15968322753906 11.44334411621094 15.301513671875 15.301513671875 C 11.44333648681641 19.15968322753906 8.414566040039062 23.65165710449219 6.299339294433594 28.65262985229492 C 4.110054016113281 33.82867050170898 2.999992370605469 39.32872772216797 2.999992370605469 45.00001525878906 C 2.999992370605469 50.67130279541016 4.110054016113281 56.17136001586914 6.299339294433594 61.34738922119141 C 8.414566040039062 66.34837341308594 11.44333648681641 70.84033203125 15.301513671875 74.69850158691406 C 19.15968322753906 78.55668640136719 23.65165710449219 81.58545684814453 28.65262603759766 83.70068359375 C 33.82865142822266 85.88996887207031 39.32870864868164 87.00003051757812 44.99999618530273 87.00003051757812 C 50.67128372192383 87.00003051757812 56.17134094238281 85.88996887207031 61.34736633300781 83.70068359375 C 66.34834289550781 81.58545684814453 70.84030914306641 78.55668640136719 74.69847869873047 74.69850158691406 C 78.55665588378906 70.84033203125 81.58542633056641 66.34837341308594 83.70065307617188 61.34738922119141 C 85.88993835449219 56.17136001586914 87 50.67130279541016 87 45.00001525878906 C 87 39.32872772216797 85.88993835449219 33.82867050170898 83.70065307617188 28.65262985229492 C 81.58542633056641 23.65165710449219 78.55665588378906 19.15968322753906 74.69847869873047 15.301513671875 C 70.84030914306641 11.44334411621094 66.34834289550781 8.414573669433594 61.34736633300781 6.299346923828125 C 56.17134094238281 4.110061645507812 50.67128372192383 3 44.99999618530273 3 M 44.99999618530273 0 C 69.85281372070312 0 90 20.14718627929688 90 45.00001525878906 C 90 69.85282897949219 69.85281372070312 90.00003051757812 44.99999618530273 90.00003051757812 C 20.14717864990234 90.00003051757812 -7.62939453125e-06 69.85282897949219 -7.62939453125e-06 45.00001525878906 C -7.62939453125e-06 20.14718627929688 20.14717864990234 0 44.99999618530273 0 Z" stroke="none" fill="#8b701c"/>
                      </g>
                    </g>
                  </g>
                </g>
              </g>
            </g>
          </g>
        </g>
      </g>
    </g>
    <g id="ortografia" transform="translate(614.817 462.834)">
      <g id="Grupo_1209193" data-name="Grupo 1209193" transform="translate(32.017 0.834)">
        <g id="Grupo_1209188" data-name="Grupo 1209188" transform="translate(6.44)">
          <path id="Trazado_1080110" data-name="Trazado 1080110" d="M136.091,62.766H98.986a2.394,2.394,0,0,1-2.394-2.394V9.893A2.394,2.394,0,0,1,98.986,7.5H128a2.394,2.394,0,0,1,1.692.7l8.092,8.092a2.393,2.393,0,0,1,.7,1.692V60.372A2.393,2.393,0,0,1,136.091,62.766Z" transform="translate(-96.592 -7.499)" fill="#f3f0f3"/>
        </g>
        <g id="Grupo_1209189" data-name="Grupo 1209189" transform="translate(6.44 5.457)">
          <path id="Trazado_1080111" data-name="Trazado 1080111" d="M137.784,59.907l-3.336-3.336a2.393,2.393,0,0,1,.7,1.692V96.888a6.158,6.158,0,0,1-6.158,6.158h-32.4v.942a2.394,2.394,0,0,0,2.394,2.394h37.105a2.394,2.394,0,0,0,2.394-2.394V61.6a2.394,2.394,0,0,0-.7-1.692Z" transform="translate(-96.593 -56.571)" fill="#e2dee2"/>
        </g>
        <g id="Grupo_1209190" data-name="Grupo 1209190" transform="translate(38.838 0.218)">
          <path id="Trazado_1080112" data-name="Trazado 1080112" d="M389.132,18.735h8.087a2.389,2.389,0,0,0-.483-.7l-8.092-8.092a2.389,2.389,0,0,0-.7-.483v8.087A1.189,1.189,0,0,0,389.132,18.735Z" transform="translate(-387.943 -9.459)" fill="#a8d3d8"/>
        </g>
        <g id="Grupo_1209191" data-name="Grupo 1209191" transform="translate(0 36.728)">
          <circle id="Elipse_13125" data-name="Elipse 13125" cx="9.269" cy="9.269" r="9.269" fill="#fe93d3"/>
        </g>
        <g id="Grupo_1209192" data-name="Grupo 1209192" transform="translate(7.601 36.728)">
          <path id="Trazado_1080113" data-name="Trazado 1080113" d="M108.707,337.786a9.318,9.318,0,0,0-1.668.153,9.268,9.268,0,0,1,0,18.234,9.269,9.269,0,1,0,1.668-18.386Z" transform="translate(-107.039 -337.786)" fill="#fe73c5"/>
        </g>
      </g>
      <g id="Grupo_1209194" data-name="Grupo 1209194" transform="translate(31.183)">
        <path id="Trazado_1080114" data-name="Trazado 1080114" d="M146.653,51.322h0a.971.971,0,0,0-.9.606l-.007.019-2.329,6.116a.834.834,0,0,0,1.559.594l.376-.986h2.591l.371.984a.834.834,0,1,0,1.56-.589l-2.308-6.116-.009-.023A.972.972,0,0,0,146.653,51.322ZM145.984,56l.666-1.75.66,1.75Z" transform="translate(-130.885 -45.615)"/>
        <path id="Trazado_1080115" data-name="Trazado 1080115" d="M218.642,50.5h-1.8a.834.834,0,0,0-.834.834v6.2a.834.834,0,0,0,.834.834h0s1.656-.007,2.113-.007a2.5,2.5,0,0,0,1.609-4.42,2.257,2.257,0,0,0-1.924-3.444Zm0,1.668a.593.593,0,1,1,0,1.187l-.968,0V52.165Zm.315,4.528-1.283,0V55.023h1.283a.836.836,0,1,1,0,1.672Z" transform="translate(-195.453 -44.882)"/>
        <path id="Trazado_1080116" data-name="Trazado 1080116" d="M281.493,52.165a2.255,2.255,0,0,1,1.267.387.834.834,0,1,0,.934-1.382,3.936,3.936,0,1,0-2.2,7.2,3.275,3.275,0,0,0,2.593-1.174.834.834,0,0,0-1.278-1.072,1.61,1.61,0,0,1-1.315.578,2.268,2.268,0,1,1,0-4.536Z" transform="translate(-250.16 -44.882)"/>
        <path id="Trazado_1080117" data-name="Trazado 1080117" d="M65.522,55.267H46.84a10.1,10.1,0,0,0-7.55-18.34V3.228A1.561,1.561,0,0,1,40.85,1.668h6.09A.834.834,0,1,0,46.94,0H40.85a3.231,3.231,0,0,0-3.228,3.228V37.416a10.1,10.1,0,0,0,3.664,19.519l.185,0,.046,0h24a.834.834,0,1,0,0-1.668Zm-24.235,0a8.435,8.435,0,1,1,8.435-8.435A8.445,8.445,0,0,1,41.286,55.267Z" transform="translate(-31.183 0)"/>
        <path id="Trazado_1080118" data-name="Trazado 1080118" d="M230.623,9.037,222.532.945A3.207,3.207,0,0,0,220.249,0H201.218a.834.834,0,1,0,0,1.668h19.031c.053,0,.105,0,.157.008V9.139a2.025,2.025,0,0,0,2.023,2.023h7.463a1.569,1.569,0,0,1,.008.157V53.708a1.561,1.561,0,0,1-1.559,1.559H219.8a.834.834,0,1,0,0,1.668h8.542a3.231,3.231,0,0,0,3.227-3.228V11.319a3.206,3.206,0,0,0-.945-2.282Zm-8.194.457a.355.355,0,0,1-.355-.355V2.847l6.646,6.646Z" transform="translate(-181.569)"/>
        <path id="Trazado_1080119" data-name="Trazado 1080119" d="M87.225,387.682l-4.663,4.663-1.432-1.622a.834.834,0,1,0-1.25,1.1l2.019,2.287a.834.834,0,0,0,.6.282h.026a.834.834,0,0,0,.59-.244l5.291-5.291a.834.834,0,1,0-1.18-1.179Z" transform="translate(-74.279 -344.355)"/>
        <path id="Trazado_1080120" data-name="Trazado 1080120" d="M143.361,157.913a.834.834,0,0,0,.834.834h29.823a.834.834,0,0,0,0-1.668H144.2A.834.834,0,0,0,143.361,157.913Z" transform="translate(-130.887 -139.612)"/>
        <path id="Trazado_1080121" data-name="Trazado 1080121" d="M144.2,199.073h16.514a.834.834,0,0,0,0-1.668H144.2a.834.834,0,0,0,0,1.668Z" transform="translate(-130.887 -175.453)"/>
        <path id="Trazado_1080122" data-name="Trazado 1080122" d="M174.018,237.73H144.2a.834.834,0,1,0,0,1.668h29.823a.834.834,0,0,0,0-1.668Z" transform="translate(-130.887 -211.294)"/>
        <path id="Trazado_1080123" data-name="Trazado 1080123" d="M144.2,283.036a.834.834,0,1,0,0,1.668H150.7a.834.834,0,1,0,0-1.668Z" transform="translate(-130.887 -251.562)"/>
        <path id="Trazado_1080124" data-name="Trazado 1080124" d="M253.711,283.036H233.859a.834.834,0,0,0,0,1.668h19.852a.834.834,0,0,0,0-1.668Z" transform="translate(-210.58 -251.562)"/>
        <path id="Trazado_1080125" data-name="Trazado 1080125" d="M243.93,354.521a.834.834,0,0,0-.834-.834H222.041a.834.834,0,1,0,0,1.668H243.1A.834.834,0,0,0,243.93,354.521Z" transform="translate(-200.076 -314.357)"/>
        <path id="Trazado_1080126" data-name="Trazado 1080126" d="M254.041,396.315a.834.834,0,1,0,0,1.668h6.969a.834.834,0,1,0,0-1.668Z" transform="translate(-228.518 -352.244)"/>
        <path id="Trazado_1080127" data-name="Trazado 1080127" d="M352.244,396.315a.834.834,0,0,0,0,1.668H358.4a.834.834,0,1,0,0-1.668Z" transform="translate(-315.8 -352.244)"/>
        <path id="Trazado_1080128" data-name="Trazado 1080128" d="M254.041,436.732h17.608a.834.834,0,1,0,0-1.668H254.041a.834.834,0,1,0,0,1.668Z" transform="translate(-228.518 -386.684)"/>
        <path id="Trazado_1080129" data-name="Trazado 1080129" d="M334.819,199.073a.834.834,0,0,0,0-1.668h-9.58a.834.834,0,0,0,0,1.668Z" transform="translate(-291.798 -175.453)"/>
      </g>
    </g>
  </g>
</svg>
