<svg xmlns="http://www.w3.org/2000/svg" xmlns:xlink="http://www.w3.org/1999/xlink" width="384" height="418" viewBox="0 0 384 418">
  <defs>
    <clipPath id="clip-path">
      <rect id="Rect치ngulo_417887" data-name="Rect치ngulo 417887" width="384" height="418" transform="translate(1019.675 6226.205)" fill="#fff" stroke="#707070" stroke-width="1"/>
    </clipPath>
    <clipPath id="clip-path-2">
      <rect id="Rect치ngulo_417885" data-name="Rect치ngulo 417885" width="966.38" height="543.589"/>
    </clipPath>
  </defs>
  <g id="Enmascarar_grupo_1098883" data-name="Enmascarar grupo 1098883" transform="translate(-1019.675 -6226.205)" clip-path="url(#clip-path)">
    <g id="Grupo_1209763" data-name="Grupo 1209763" transform="translate(516.427 6128.912)">
      <g id="OBJECTS">
        <g id="Grupo_1209575" data-name="Grupo 1209575" transform="translate(460.658 131.131)">
          <g id="Grupo_1209570" data-name="Grupo 1209570" transform="translate(61.843 39.601)">
            <circle id="Elipse_13140" data-name="Elipse 13140" cx="40.087" cy="40.087" r="40.087" transform="translate(56.691 113.383) rotate(-135)" fill="#ffe6f8"/>
          </g>
          <g id="Grupo_1209571" data-name="Grupo 1209571" transform="translate(345.059 0)">
            <circle id="Elipse_13141" data-name="Elipse 13141" cx="40.087" cy="40.087" r="40.087" fill="#ffe6f8"/>
          </g>
          <g id="Grupo_1209572" data-name="Grupo 1209572" transform="translate(0 180.434)">
            <path id="Trazado_1080710" data-name="Trazado 1080710" d="M505.722,851.04H23.037c-70.375-132.424,32.354-273.137,148.2-220.61,39.452,17.889,70.829,25.8,96.936,27.671,26.107-1.871,57.484-9.782,96.937-27.671,56.251-25.506,108.9-6.065,140.615,36.5Z" transform="translate(0 -619.015)" fill="#ffe6f8"/>
          </g>
        </g>
        <g id="Grupo_1209578" data-name="Grupo 1209578" transform="translate(525.32 107.882)">
          <g id="Grupo_1209576" data-name="Grupo 1209576" transform="translate(0 237.98)">
            <path id="Trazado_1080712" data-name="Trazado 1080712" d="M787.562,696.145a10.409,10.409,0,0,1,3.185.5,11.963,11.963,0,0,1,23.369-.182,10.413,10.413,0,1,1,2.515,20.517H787.562a10.418,10.418,0,1,1,0-20.836Z" transform="translate(-777.144 -687.157)" fill="#f8b3ff"/>
          </g>
          <g id="Grupo_1209577" data-name="Grupo 1209577" transform="translate(322.885 237.98)">
            <path id="Trazado_1080713" data-name="Trazado 1080713" d="M123.187,696.145a10.411,10.411,0,0,1,3.186.5,11.963,11.963,0,0,1,23.369-.182,10.413,10.413,0,1,1,2.515,20.517h-29.07a10.418,10.418,0,1,1,0-20.836Z" transform="translate(-112.768 -687.157)" fill="#f8b3ff"/>
          </g>
          <g id="Grupo_1209764" data-name="Grupo 1209764" transform="translate(49.906)">
            <path id="Trazado_1080713-2" data-name="Trazado 1080713" d="M129.254,701.379a16.475,16.475,0,0,1,5.041.792,18.929,18.929,0,0,1,36.977-.287,16.477,16.477,0,1,1,3.98,32.465h-46a16.485,16.485,0,1,1,0-32.969Z" transform="translate(-112.768 -687.157)" fill="#f8b3ff"/>
          </g>
        </g>
        <g id="Grupo_1209662" data-name="Grupo 1209662" transform="translate(570.433 103.527)">
          <g id="Grupo_1209613" data-name="Grupo 1209613" transform="translate(0 99.122)">
            <g id="Grupo_1209595" data-name="Grupo 1209595" transform="translate(63.786)">
              <g id="Grupo_1209592" data-name="Grupo 1209592">
                <path id="Trazado_1080722" data-name="Trazado 1080722" d="M491.263,465.665l-30.252,43.159L334.978,495.451,322.1,449.479c6.99-19.606,22.208-35.626,22.208-35.626C423.244,394.006,477.6,426.3,477.6,426.3S489.086,444.262,491.263,465.665Z" transform="translate(-322.099 -407.404)" fill="#255c99"/>
              </g>
              <g id="Grupo_1209593" data-name="Grupo 1209593" transform="translate(9.333 11.082)">
                <path id="Trazado_1080723" data-name="Trazado 1080723" d="M332.8,437.548c21.03-5.919,48.595-10.484,79.263-7.492,30.288,2.956,55.634,13.944,72.3,23.212.532,1.383,1.057,2.829,1.563,4.336-16.235-9.415-42.442-21.459-74.151-24.553-31.92-3.115-60.417,2.072-81.522,8.361C331.1,440.063,331.955,438.771,332.8,437.548Z" transform="translate(-330.244 -429.113)" fill="#213059"/>
              </g>
              <g id="Grupo_1209594" data-name="Grupo 1209594" transform="translate(0 26.853)">
                <path id="Trazado_1080724" data-name="Trazado 1080724" d="M491.263,491.415S408.072,433.248,322.1,475.229L334.978,521.2l126.033,13.373Z" transform="translate(-322.099 -460.007)" fill="#2178bf"/>
              </g>
            </g>
            <g id="Grupo_1209601" data-name="Grupo 1209601" transform="translate(0 35.814)">
              <g id="Grupo_1209597" data-name="Grupo 1209597" transform="translate(0 39.145)">
                <g id="Grupo_1209596" data-name="Grupo 1209596">
                  <path id="Trazado_1080725" data-name="Trazado 1080725" d="M631.313,601.9v0l38.023-47.657,34.973,35.974-50.838,43.889h0v0a25.291,25.291,0,0,1-10.345-.125A20.061,20.061,0,0,1,631.313,601.9Z" transform="translate(-627.011 -554.243)" fill="#ea8475"/>
                </g>
              </g>
              <g id="Grupo_1209598" data-name="Grupo 1209598" transform="translate(11.702)">
                <path id="Trazado_1080726" data-name="Trazado 1080726" d="M541.475,549.727l37.393-48.488c7.133-8.287,19.25-17.8,38.174-23.679l33.693,53.563L584.38,593.13Z" transform="translate(-541.475 -477.56)" fill="#ff4d4d"/>
              </g>
              <g id="Grupo_1209599" data-name="Grupo 1209599" transform="translate(11.702)">
                <path id="Trazado_1080727" data-name="Trazado 1080727" d="M598.517,549.727l37.392-48.488c7.133-8.287,19.25-17.8,38.174-23.679l4.574,7.272c-9.04,1.629-25.712,6.07-34.148,17.413-9.607,12.918-31.747,42.529-39.991,53.553Z" transform="translate(-598.517 -477.56)" fill="#fff"/>
              </g>
              <g id="Grupo_1209600" data-name="Grupo 1209600" transform="translate(11.15 9.652)">
                <path id="Trazado_1080728" data-name="Trazado 1080728" d="M653.153,561.928a.551.551,0,0,0,.392-.939l-2.028-2.05,37.1-48.107a70.521,70.521,0,0,1,15.655-13.347.552.552,0,0,0-.593-.931,71.643,71.643,0,0,0-15.917,13.581l-37.412,48.512a.552.552,0,0,0,.044.724l2.367,2.393A.552.552,0,0,0,653.153,561.928Z" transform="translate(-650.235 -496.468)" fill="#f8b3ff"/>
              </g>
            </g>
            <g id="Grupo_1209612" data-name="Grupo 1209612" transform="translate(56.211 16.962)">
              <g id="Grupo_1209602" data-name="Grupo 1209602" transform="translate(182.859 73.567)">
                <path id="Trazado_1080729" data-name="Trazado 1080729" d="M235.31,584.742a89.54,89.54,0,0,1,14.347,14.241,28.472,28.472,0,0,1-9.375,43.361h0a18.2,18.2,0,0,1-15.177.531l-25.523-10.653Z" transform="translate(-199.583 -584.742)" fill="#fdb"/>
              </g>
              <g id="Grupo_1209603" data-name="Grupo 1209603" transform="translate(0.817 13.244)">
                <path id="Trazado_1080730" data-name="Trazado 1080730" d="M395.533,568.54l26.97,18.052,35.39-59.7s-68.02-55.537-134.99-59.913c-24.022-1.57-42.742,1.53-57.121,6.738a38.916,38.916,0,0,0-23.22,50.12l28.428,76.7,101.241,7.413Z" transform="translate(-240.124 -466.574)" fill="#ff4d4d"/>
              </g>
              <g id="Grupo_1209604" data-name="Grupo 1209604" transform="translate(123.757 94.17)">
                <path id="Trazado_1080731" data-name="Trazado 1080731" d="M367.268,665.022a.827.827,0,0,0,.453-1.52l-58.612-38.265a.827.827,0,0,0-.905,1.385l58.612,38.265A.832.832,0,0,0,367.268,665.022Z" transform="translate(-307.829 -625.103)" fill="#831848"/>
              </g>
              <g id="Grupo_1209605" data-name="Grupo 1209605" transform="translate(4.857 13.244)">
                <path id="Trazado_1080732" data-name="Trazado 1080732" d="M261.741,473.721c14.379-5.208,33.1-8.308,57.121-6.738,66.971,4.376,134.99,59.913,134.99,59.913l-4.185,7.061c-10.017-7.547-52.787-38.722-94.786-53.505,0,0,.445,36.9-39.214,33.671s-38.588-35.539-38.588-35.539-23.778,1.89-36.955,14.5A38.744,38.744,0,0,1,261.741,473.721Z" transform="translate(-240.124 -466.574)" fill="#fff"/>
              </g>
              <g id="Grupo_1209606" data-name="Grupo 1209606" transform="translate(174.052 43.794)">
                <path id="Trazado_1080733" data-name="Trazado 1080733" d="M283.576,556.744a.552.552,0,0,0,.35-.979,343.124,343.124,0,0,0-44.061-29.275.552.552,0,1,0-.54.962,341.831,341.831,0,0,1,43.9,29.167A.55.55,0,0,0,283.576,556.744Z" transform="translate(-239.043 -526.42)" fill="#f8b3ff"/>
              </g>
              <g id="Grupo_1209607" data-name="Grupo 1209607" transform="translate(32.865 89.354)">
                <path id="Trazado_1080734" data-name="Trazado 1080734" d="M519.671,628.925s-42.83,8.1-87.875-13.258c0,0,6.407,25.5,39.262,31.182C501.871,652.183,519.671,628.925,519.671,628.925Z" transform="translate(-431.796 -615.667)" fill="#831848"/>
              </g>
              <g id="Grupo_1209608" data-name="Grupo 1209608" transform="translate(0 42.701)">
                <path id="Trazado_1080735" data-name="Trazado 1080735" d="M636.315,629.613a.827.827,0,0,0,.775-1.115l-28.428-76.7a38.115,38.115,0,0,1-.032-26.409.827.827,0,0,0-1.552-.572,39.769,39.769,0,0,0,.033,27.556l28.428,76.7A.827.827,0,0,0,636.315,629.613Z" transform="translate(-604.632 -524.279)" fill="#831848"/>
              </g>
              <g id="Grupo_1209609" data-name="Grupo 1209609" transform="translate(126.839 24.246)">
                <path id="Trazado_1080736" data-name="Trazado 1080736" d="M388.218,498.5,372.135,608.565l-16.756-5.677L365.861,490.4s3.375-3.5,7.689-1.82c2.109.823,6.754,2.737,12.382,5.406A4.14,4.14,0,0,1,388.218,498.5Z" transform="translate(-355.379 -488.127)" fill="#213059"/>
              </g>
              <g id="Grupo_1209610" data-name="Grupo 1209610" transform="translate(8.829 15.896)">
                <path id="Trazado_1080737" data-name="Trazado 1080737" d="M627.683,474.094s-2.594-3-5.106-2.183l-15.438,6.722s-8.417,55.449-.183,119.024l15.115-.417S616.762,528.087,627.683,474.094Z" transform="translate(-603.343 -471.769)" fill="#213059"/>
              </g>
              <g id="Grupo_1209611" data-name="Grupo 1209611" transform="translate(50.011 0)">
                <ellipse id="Elipse_13143" data-name="Elipse 13143" cx="30.287" cy="25.808" rx="30.287" ry="25.808" transform="translate(60.38 56.296) rotate(-175.411)" fill="#ea8475"/>
              </g>
            </g>
          </g>
          <g id="Grupo_1209661" data-name="Grupo 1209661" transform="translate(59.471)">
            <g id="Grupo_1209616" data-name="Grupo 1209616" transform="translate(0 70.445)">
              <g id="Grupo_1209614" data-name="Grupo 1209614" transform="translate(0 0)">
                <ellipse id="Elipse_13144" data-name="Elipse 13144" cx="19.46" cy="16.774" rx="19.46" ry="16.774" transform="translate(17.677 49.911) rotate(-117.013)" fill="#fdb"/>
              </g>
              <g id="Grupo_1209615" data-name="Grupo 1209615" transform="translate(16.258 17.695)">
                <path id="Trazado_1080738" data-name="Trazado 1080738" d="M612.362,400.742a1.1,1.1,0,0,0,.708-1.949l-15.126-12.645a1.1,1.1,0,1,0-1.416,1.692l15.126,12.645A1.1,1.1,0,0,0,612.362,400.742Z" transform="translate(-596.133 -385.891)" fill="#ea8475"/>
              </g>
            </g>
            <g id="Grupo_1209619" data-name="Grupo 1209619" transform="translate(115.816 76.02)">
              <g id="Grupo_1209617" data-name="Grupo 1209617" transform="translate(0 0)">
                <ellipse id="Elipse_13145" data-name="Elipse 13145" cx="16.775" cy="19.46" rx="16.775" ry="19.46" transform="translate(28.14 50.912) rotate(-147.011)" fill="#fdb"/>
              </g>
              <g id="Grupo_1209618" data-name="Grupo 1209618" transform="translate(14.247 18.914)">
                <path id="Trazado_1080739" data-name="Trazado 1080739" d="M371.884,412.407a1.1,1.1,0,0,0,.615-.188l16.36-11a1.1,1.1,0,1,0-1.231-1.83l-16.36,11a1.1,1.1,0,0,0,.616,2.018Z" transform="translate(-370.78 -399.199)" fill="#ea8475"/>
              </g>
            </g>
            <g id="Grupo_1209620" data-name="Grupo 1209620" transform="translate(30.704 23.885)">
              <path id="Trazado_1080740" data-name="Trazado 1080740" d="M396.14,318.833a52.586,52.586,0,1,1,103.486,5.4l.013,0-3.412,18.937c5.64,38.557-27.183,46.153-43.359,47.575a10.341,10.341,0,0,1-17.389-.942c-16.017-3.161-47.506-14.211-37.93-51.782l-1.422-19.19Z" transform="translate(-395.765 -260.021)" fill="#fdb"/>
            </g>
            <g id="Grupo_1209644" data-name="Grupo 1209644" transform="translate(30.183 87.493)">
              <g id="Grupo_1209621" data-name="Grupo 1209621" transform="translate(44.492 29.221)">
                <path id="Trazado_1080741" data-name="Trazado 1080741" d="M497.525,447.932c.066,0,.131,0,.2,0a6.111,6.111,0,0,0,6.105-4.9.827.827,0,0,0-1.63-.281,4.476,4.476,0,0,1-4.518,3.53,4.384,4.384,0,0,1-4.509-3.72.828.828,0,0,0-1.634.265A6.008,6.008,0,0,0,497.525,447.932Z" transform="translate(-491.528 -441.865)" fill="#ea8475"/>
              </g>
              <g id="Grupo_1209630" data-name="Grupo 1209630" transform="translate(22.502 13.637)">
                <g id="Grupo_1209625" data-name="Grupo 1209625" transform="translate(45.062 2.327)">
                  <g id="Grupo_1209622" data-name="Grupo 1209622">
                    <path id="Trazado_1080742" data-name="Trazado 1080742" d="M460.006,421.19a5.446,5.446,0,1,0-5.293,5.594A5.445,5.445,0,0,0,460.006,421.19Z" transform="translate(-449.117 -415.895)" fill="#213059"/>
                  </g>
                  <g id="Grupo_1209623" data-name="Grupo 1209623" transform="translate(1.383 8.666)">
                    <path id="Trazado_1080743" data-name="Trazado 1080743" d="M457.47,432.871a49.743,49.743,0,0,0-10.712,3.093S453.222,436.325,457.47,432.871Z" transform="translate(-446.758 -432.871)" fill="#fdb"/>
                  </g>
                  <g id="Grupo_1209624" data-name="Grupo 1209624" transform="translate(0.97 8.251)">
                    <path id="Trazado_1080744" data-name="Trazado 1080744" d="M446.359,435.98a.407.407,0,0,0,.173-.038,49.6,49.6,0,0,1,10.607-3.061.414.414,0,0,0,.341-.475.41.41,0,0,0-.475-.342,50.611,50.611,0,0,0-10.818,3.126.414.414,0,0,0,.172.79Z" transform="translate(-445.946 -432.058)" fill="#ea8475"/>
                  </g>
                </g>
                <g id="Grupo_1209629" data-name="Grupo 1209629">
                  <g id="Grupo_1209626" data-name="Grupo 1209626" transform="translate(1.932)">
                    <path id="Trazado_1080745" data-name="Trazado 1080745" d="M533.656,416.032a5.445,5.445,0,1,1,4.643,6.144A5.446,5.446,0,0,1,533.656,416.032Z" transform="translate(-533.604 -411.337)" fill="#213059"/>
                  </g>
                  <g id="Grupo_1209627" data-name="Grupo 1209627" transform="translate(0.414 7.913)">
                    <path id="Trazado_1080746" data-name="Trazado 1080746" d="M537.729,426.837a49.754,49.754,0,0,1,10.3,4.258S541.569,430.74,537.729,426.837Z" transform="translate(-537.729 -426.837)" fill="#fdb"/>
                  </g>
                  <g id="Grupo_1209628" data-name="Grupo 1209628" transform="translate(0 7.499)">
                    <path id="Trazado_1080747" data-name="Trazado 1080747" d="M547.637,431.112a.413.413,0,0,0,.213-.768,50.608,50.608,0,0,0-10.406-4.3.414.414,0,1,0-.223.8,49.692,49.692,0,0,1,10.2,4.214A.408.408,0,0,0,547.637,431.112Z" transform="translate(-536.919 -426.028)" fill="#ea8475"/>
                  </g>
                </g>
              </g>
              <g id="Grupo_1209633" data-name="Grupo 1209633" transform="translate(17.319)">
                <g id="Grupo_1209631" data-name="Grupo 1209631" transform="translate(46.016 1.64)">
                  <path id="Trazado_1080748" data-name="Trazado 1080748" d="M454.957,394.721c-3.449-.881-14-3.189-23.645-1.339a.3.3,0,0,1-.32-.46,11.317,11.317,0,0,1,9.848-5.084c6.74.083,12.308,4.466,14.394,6.351A.309.309,0,0,1,454.957,394.721Z" transform="translate(-430.942 -387.837)" fill="#213059"/>
                </g>
                <g id="Grupo_1209632" data-name="Grupo 1209632">
                  <path id="Trazado_1080749" data-name="Trazado 1080749" d="M521.461,389.824c3.531-.451,14.282-1.45,23.631,1.568a.3.3,0,0,0,.374-.418,11.315,11.315,0,0,0-9.151-6.253c-6.7-.743-12.763,2.924-15.064,4.54A.309.309,0,0,0,521.461,389.824Z" transform="translate(-521.115 -384.624)" fill="#213059"/>
                </g>
              </g>
              <g id="Grupo_1209636" data-name="Grupo 1209636" transform="translate(5.498 22.641)">
                <g id="Grupo_1209634" data-name="Grupo 1209634" transform="translate(73.331 3.83)">
                  <path id="Trazado_1080750" data-name="Trazado 1080750" d="M432.511,444.525a8.275,8.275,0,1,0-8.044,8.5A8.275,8.275,0,0,0,432.511,444.525Z" transform="translate(-415.964 -436.478)" fill="#ea8475"/>
                </g>
                <g id="Grupo_1209635" data-name="Grupo 1209635">
                  <path id="Trazado_1080751" data-name="Trazado 1080751" d="M576.161,437.023a8.275,8.275,0,1,0-8.044,8.5A8.275,8.275,0,0,0,576.161,437.023Z" transform="translate(-559.614 -428.976)" fill="#ea8475"/>
                </g>
              </g>
              <g id="Grupo_1209641" data-name="Grupo 1209641" transform="translate(24.903 33.399)">
                <g id="Grupo_1209637" data-name="Grupo 1209637" transform="translate(0.275 0.275)">
                  <path id="Trazado_1080752" data-name="Trazado 1080752" d="M456.483,450.681a66.117,66.117,0,0,0,47.169,1.293,1.152,1.152,0,0,1,1.559,1.128c-.273,5.847-2.94,24.51-25.911,23.984-22.518-.516-24.391-19.44-24.427-25.342A1.152,1.152,0,0,1,456.483,450.681Z" transform="translate(-454.873 -450.588)" fill="#213059"/>
                </g>
                <g id="Grupo_1209638" data-name="Grupo 1209638" transform="translate(10.746 3.3)">
                  <path id="Trazado_1080753" data-name="Trazado 1080753" d="M505.263,457.442c-1.106,1.614-4.933,5.54-15.716,4.814-9.6-.646-12.379-3.834-13.181-5.742A66.879,66.879,0,0,0,505.263,457.442Z" transform="translate(-476.366 -456.513)" fill="#fff"/>
                </g>
                <g id="Grupo_1209639" data-name="Grupo 1209639" transform="translate(9.079 12.639)">
                  <path id="Trazado_1080754" data-name="Trazado 1080754" d="M507.089,485.634c-3.627,2.117-8.415,3.452-14.774,3.307-7.038-.161-12.044-2.129-15.623-4.927a16.577,16.577,0,0,1,30.4,1.62Z" transform="translate(-476.692 -474.807)" fill="#ea8475"/>
                </g>
                <g id="Grupo_1209640" data-name="Grupo 1209640">
                  <path id="Trazado_1080755" data-name="Trazado 1080755" d="M479.98,477.108c22.352,0,24.974-18.516,25.242-24.258a1.416,1.416,0,0,0-.574-1.21,1.44,1.44,0,0,0-1.355-.19,65.377,65.377,0,0,1-46.969-1.287h0a1.444,1.444,0,0,0-1.364.129,1.417,1.417,0,0,0-.627,1.189c.036,5.878,1.921,25.094,24.7,25.617C479.349,477.105,479.667,477.108,479.98,477.108Zm23.815-25.195a.89.89,0,0,1,.526.172.857.857,0,0,1,.35.74c-.267,5.7-2.917,24.27-25.629,23.721-22.279-.51-24.123-19.317-24.158-25.068a.856.856,0,0,1,.383-.728.891.891,0,0,1,.844-.079h0a65.929,65.929,0,0,0,47.37,1.3A.925.925,0,0,1,503.795,451.913Z" transform="translate(-454.333 -450.049)" fill="#213059"/>
                </g>
              </g>
              <g id="Grupo_1209642" data-name="Grupo 1209642" transform="translate(0 13.844)">
                <path id="Trazado_1080756" data-name="Trazado 1080756" d="M597.765,424.515a.551.551,0,0,0,.55-.532,54.56,54.56,0,0,1,1.735-11.552.551.551,0,0,0-1.069-.272,55.607,55.607,0,0,0-1.768,11.787.55.55,0,0,0,.532.57Z" transform="translate(-597.213 -411.742)" fill="#ea8475"/>
              </g>
              <g id="Grupo_1209643" data-name="Grupo 1209643" transform="translate(100.43 18.993)">
                <path id="Trazado_1080757" data-name="Trazado 1080757" d="M403.732,434.69a.551.551,0,0,0,.549-.513,55.63,55.63,0,0,0-.534-11.874.546.546,0,0,0-.625-.466.552.552,0,0,0-.466.625,54.622,54.622,0,0,1,.525,11.639.552.552,0,0,0,.512.589Z" transform="translate(-402.65 -421.829)" fill="#ea8475"/>
              </g>
            </g>
            <g id="Grupo_1209660" data-name="Grupo 1209660" transform="translate(24.016)">
              <g id="Grupo_1209651" data-name="Grupo 1209651">
                <g id="Grupo_1209645" data-name="Grupo 1209645">
                  <path id="Trazado_1080758" data-name="Trazado 1080758" d="M389.342,315.12s-6.394-20.975-8.232-30.544,6.348-37.671,44.214-48.14h0c.1-.424,1.036-1.239,1.036-1.239a21.492,21.492,0,0,1,10.568-15.768l.116,4.218a31.428,31.428,0,0,1,11.1-10.416c6.1,4.248,9.049,11.333,9.049,11.333l.483-3.841c7.573,4.777,10.594,11.584,9.645,18.858l1.2,1.946c32.086,17.371,34.343,44.6,30.312,54.507s-10.814,24.236-10.814,24.236l3.25-18.038s-9.516-27.043-44.712-31.438-56.546,19.386-58.373,28.716Z" transform="translate(-380.872 -213.231)" fill="#213059"/>
                </g>
                <g id="Grupo_1209646" data-name="Grupo 1209646" transform="translate(44.503 17.216)">
                  <path id="Trazado_1080759" data-name="Trazado 1080759" d="M486.284,258.035s-16.9-10.134-43.2-5.09c0,0,3.861-7.109,21.826-5.838C482.233,248.333,486.284,258.035,486.284,258.035Z" transform="translate(-443.085 -246.955)" fill="#ff4d4d"/>
                </g>
                <g id="Grupo_1209647" data-name="Grupo 1209647" transform="translate(89.692 29.515)">
                  <path id="Trazado_1080760" data-name="Trazado 1080760" d="M425.449,307.943a.551.551,0,0,0,.388-.16c2.184-2.163,12.391-14.089-1.18-36.469a.552.552,0,1,0-.943.572c13.143,21.672,3.428,33.053,1.347,35.114a.552.552,0,0,0,0,.78A.545.545,0,0,0,425.449,307.943Z" transform="translate(-423.634 -271.048)" fill="#255c99"/>
                </g>
                <g id="Grupo_1209648" data-name="Grupo 1209648" transform="translate(103.292 47.994)">
                  <path id="Trazado_1080761" data-name="Trazado 1080761" d="M394.2,337.038a.543.543,0,0,0,.264-.068c2.227-1.217,13.032-8.354,7.046-29.324a.552.552,0,1,0-1.061.3c5.756,20.164-4.417,26.907-6.514,28.054a.551.551,0,0,0,.265,1.035Z" transform="translate(-393.648 -307.247)" fill="#255c99"/>
                </g>
                <g id="Grupo_1209649" data-name="Grupo 1209649" transform="translate(25.528 26.159)">
                  <path id="Trazado_1080762" data-name="Trazado 1080762" d="M550.157,300.809a.552.552,0,0,0,.377-.954c-2.351-2.206-13.208-14.239,3.925-34.472a.551.551,0,1,0-.841-.713c-17.778,20.995-6.317,33.663-3.839,35.99A.55.55,0,0,0,550.157,300.809Z" transform="translate(-543.86 -264.475)" fill="#255c99"/>
                </g>
                <g id="Grupo_1209650" data-name="Grupo 1209650" transform="translate(10.104 38.258)">
                  <path id="Trazado_1080763" data-name="Trazado 1080763" d="M586.453,320.938a.551.551,0,0,0,.266-1.034c-3.27-1.8-13.074-9.343-1.97-30.926a.552.552,0,0,0-.981-.5c-11.857,23.047-.064,31.029,2.421,32.4A.544.544,0,0,0,586.453,320.938Z" transform="translate(-578.57 -288.175)" fill="#255c99"/>
                </g>
              </g>
              <g id="Grupo_1209655" data-name="Grupo 1209655" transform="translate(43.247 45.212)">
                <g id="Grupo_1209652" data-name="Grupo 1209652" transform="translate(0.412 0.414)">
                  <path id="Trazado_1080764" data-name="Trazado 1080764" d="M513.966,314.059s-1.865-10.813-10.192-11.434-7.314,17.15.077,28.856c0,0-1.2-19.6,2.041-20.064,2.345-.337,4.022,2.612,4.022,2.612Z" transform="translate(-497.911 -302.609)" fill="#213059"/>
                </g>
                <g id="Grupo_1209653" data-name="Grupo 1209653" transform="translate(6.457 8.781)">
                  <path id="Trazado_1080765" data-name="Trazado 1080765" d="M506.244,322.394a.413.413,0,0,0,.4-.32c.447-1.919.973-2.195,1.178-2.224,1.446-.208,2.642,1.072,3.229,1.852a.413.413,0,0,0,.661-.5c-.7-.927-2.153-2.442-4.008-2.174-.836.119-1.447,1.054-1.866,2.855a.414.414,0,0,0,.309.5A.368.368,0,0,0,506.244,322.394Z" transform="translate(-505.83 -319)" fill="#255c99"/>
                </g>
                <g id="Grupo_1209654" data-name="Grupo 1209654">
                  <path id="Trazado_1080766" data-name="Trazado 1080766" d="M498.006,314.967a.343.343,0,0,0,.045,0,.413.413,0,0,0,.366-.456c-.539-4.938.174-8.829,1.956-10.673a3.964,3.964,0,0,1,3.288-1.2c6.73.5,9.095,8.068,9.659,10.376a.414.414,0,0,0,.8-.2c-.6-2.445-3.115-10.461-10.4-11a4.751,4.751,0,0,0-3.945,1.445c-1.954,2.022-2.749,6.155-2.183,11.338A.413.413,0,0,0,498.006,314.967Z" transform="translate(-497.417 -301.798)" fill="#255c99"/>
                </g>
              </g>
              <g id="Grupo_1209659" data-name="Grupo 1209659" transform="translate(59.262 43.047)">
                <g id="Grupo_1209656" data-name="Grupo 1209656" transform="translate(0.453 0.555)">
                  <path id="Trazado_1080767" data-name="Trazado 1080767" d="M461.992,312.117l2.6.149s1.746-2.758,3.9-1.836c2.408,1.032,6.546,9.57,4.053,30.644a56.291,56.291,0,0,0,7.781-28.681c-.064-15.243-9.038-14.474-11.484-13.032s-5.474,5.913-6.851,12.755" transform="translate(-461.992 -298.643)" fill="#213059"/>
                </g>
                <g id="Grupo_1209657" data-name="Grupo 1209657" transform="translate(2.808 11.605)">
                  <path id="Trazado_1080768" data-name="Trazado 1080768" d="M485.864,324.192a.545.545,0,0,0,.231-.051.551.551,0,0,0,.269-.732,5.019,5.019,0,0,0-2.78-2.9c-1.493-.585-3.037-.012-4.235,1.568a.552.552,0,1,0,.879.667c.516-.68,1.583-1.744,2.956-1.207a4,4,0,0,1,2.179,2.331A.551.551,0,0,0,485.864,324.192Z" transform="translate(-479.237 -320.289)" fill="#255c99"/>
                </g>
                <g id="Grupo_1209658" data-name="Grupo 1209658">
                  <path id="Trazado_1080769" data-name="Trazado 1080769" d="M479.656,314.845a.551.551,0,0,0,.55-.529q.05-1.209.046-2.456c-.036-8.563-2.882-11.974-5.263-13.328a7.46,7.46,0,0,0-7.052-.176c-2.264,1.334-5.458,5.445-7.011,12.641a.551.551,0,0,0,1.078.233c1.382-6.409,4.257-10.606,6.493-11.923a6.387,6.387,0,0,1,5.947.185c2.128,1.21,4.672,4.34,4.705,12.375q.005,1.221-.044,2.406a.552.552,0,0,0,.528.574Z" transform="translate(-460.913 -297.557)" fill="#255c99"/>
                </g>
              </g>
            </g>
          </g>
        </g>
        <g id="Grupo_1209670" data-name="Grupo 1209670">
          <g id="Grupo_1209669" data-name="Grupo 1209669" clip-path="url(#clip-path-2)">
            <g id="Grupo_1209663" data-name="Grupo 1209663" transform="translate(506.41 351.645)">
              <circle id="Elipse_13146" data-name="Elipse 13146" cx="190.418" cy="190.418" r="190.418" fill="#255c99"/>
            </g>
            <g id="Grupo_1209664" data-name="Grupo 1209664" transform="translate(862.421 465.579)">
              <path id="Trazado_1080770" data-name="Trazado 1080770" d="M166.885,1011.683a20.66,20.66,0,0,1-2.232.869c-5.267,1.663-10.257,7.485-19.128-1.664,0,0-7.208-9.7,0-16.91s4.99-9.425,6.1-13.584,5.267-8.039,4.99-9.148-3.049-1.664-3.881-4.713c-.158-.578-.313-1.215-.461-1.869-.586-2.592-5.958-6.987-5.084-9.5.4-1.15-.647-5.175-.277-8.039,1.109-8.594,5.545-7.762,6.376-10.811l.832-3.049s.157-.256.434-.636a193.7,193.7,0,0,1,12.595,68.9Q167.148,1006.643,166.885,1011.683Z" transform="translate(-142.322 -932.633)" fill="#2178bf"/>
            </g>
            <g id="Grupo_1209665" data-name="Grupo 1209665" transform="translate(723.889 360.576)">
              <path id="Trazado_1080771" data-name="Trazado 1080771" d="M391.385,717.823a63.117,63.117,0,0,0,10.188,2.5c3.951.416,5.406.416,7.9-1.247s4.574-4.366,6.445-1.248.416,3.742,3.119,5.406,4.366,2.911,7.9,1.871,6.653-.831,6.653,1.247.416,6.029-3.951,6.029-6.861-1.871-7.485-3.119a3.307,3.307,0,0,0-5.2,0c-1.456,2.079,0,2.7-3.119,4.574s-9.564,1.872-11.019,1.664-2.079-4.366-8.109-2.7-8.732-1.871-8.732-4.158-2.7-2.911,0-5.614,8.316-1.664,8.316-1.664S387.85,721.565,391.385,717.823Z" transform="translate(-384.778 -716.39)" fill="#2178bf"/>
            </g>
            <g id="Grupo_1209666" data-name="Grupo 1209666" transform="translate(661.468 350.154)">
              <path id="Trazado_1080772" data-name="Trazado 1080772" d="M520.9,695.688s10.811-.208,11.435,3.326.624,3.114,4.782,3.74,5.821-1.245,9.356-1.245,8.109-1.039,9.564,2.495,3.119,7.9,1.039,9.148a7.769,7.769,0,0,1-6.767.208c-1.55-.831-1.134-4.782-4.253-2.079s-3.119,4.064-5.406,4.423-2.911,3.373-5.2-1.669-2.079-7.953-7.485-5.665-10.6,3.119-11.643.208-3.326-5.2-5.406-5.824-1.247-7.071.208-7.069S520.9,695.688,520.9,695.688Z" transform="translate(-509.67 -695.685)" fill="#2178bf"/>
            </g>
            <g id="Grupo_1209667" data-name="Grupo 1209667" transform="translate(539.261 357.224)">
              <path id="Trazado_1080773" data-name="Trazado 1080773" d="M316.978,733.85c-2.772,0-5.821-3.049-8.871-1.386s-10.534,6.1-13.584,8.039-11.643,4.435-12.475,7.762-2.218,13.584-5.545,16.079-9.98,4.435-11.089,7.762-3.881,9.425-4.99,10.811-4.99,2.218-7.208,2.772-3.326,4.158-4.713,7.762-7.485,8.871-8.594,8.316-5.821-8.594-6.653-11.089-1.386-4.99-3.6-5.821-6.931-4.435-12.2-1.386-6.93,6.93-9.148,4.713,2.772-6.1-5.821-6.376a17.646,17.646,0,0,0-6.192.922,194.84,194.84,0,0,1,88.182-71.817c3.762.231,7.172.7,8.661,1.59,4.158,2.495,7.208-6.509,11.643-.9s10.534,8.106,11.643,12.264,5.267,9.148,10.534,6.1,9.425-5.267,14.138-3.6,9.7,6.376,12.475,7.208,12.2-3.6,16.633-4.159,6.1-3.326,7.762,2.495-1.386,8.316,2.772,11.643,2.218,8.594,10.257,4.158,7.208-5.821,11.366-5.545,8.039,2.772,9.7,3.326,12.752-3.326,13.861-3.6,7.208-3.326,8.871-1.386,6.376,8.316,9.7,10.257,11.643,0,19.405,1.94,7.208,1.386,10.534,3.049,5.267,1.663,11.089,2.218a46.95,46.95,0,0,0,12.475,0l1.1-.108a194.906,194.906,0,0,1,23.51,30.577c-1.418.082-2.673-.193-3.539.3-1.94,1.109-.832,4.713,1.663,6.653s3.881,7.208,3.881,7.208-.831,6.376-9.425,5.545a64.17,64.17,0,0,1-15.524-3.327c-2.772-.831-13.861-14.138-20.514-5.545s-4.435,3.049-13.861,1.941-15.247,7.005-15.247,7.005l-9.98,25.983s2.772,6.93-.832,10.811-.554,9.7-.554,13.307,3.049,6.1-.832,10.534-9.98,19.682-17.742,23.841-6.1,7.485-8.871,10.257-7.485,7.762-8.871,3.326-4.99-6.93-6.376-5.267a123.948,123.948,0,0,1-8.871,9.7c-2.772,2.495-9.425,6.1-16.91,6.93s-14.138,4.713-14.97,6.93,3.326,2.772-4.158,8.04-9.7,3.6-14.138,5.545,8.316,23.84,8.039,29.662,1.109,7.762-6.1,16.356-5.821,25.5-9.148,32.989-6.653,6.376-2.772,11.92,6.1,1.109,6.1,10.534-.831,14.97-.831,17.187,2.495,2.218,2.495,6.653-1.664,6.376-1.94,9.98c-.252,3.273.407,5.031-.092,9.962q-9.124-1.17-17.968-3.177c-.073-2.36-.441-4.218-1.345-5.123-2.772-2.772-.831-6.653-6.376-10.811s-13.029-6.653-18.851-9.148-14.138-10.257-14.693-15.247,2.495-12.475-3.6-17.465-4.158-9.98-11.92-9.98-17.187,2.218-16.91-3.049-.277-12.752-1.94-13.584-2.495-4.436-5.545-8.039-8.04-4.99-6.1-13.306,0-11.089.831-15.247-1.386-5.545,5.267-5.267,10.534,3.049,12.475.277,4.158-7.485,4.99-8.871,4.158-4.99,7.208-5.267,8.316-1.386,8.594-4.158-1.663-9.98,2.218-10.811,12.2,0,18.574-.277,13.029-1.94,16.356-4.99,2.772-4.158,5.821-4.158,6.376-1.664,12.475.277,6.1,2.218,13.306,4.159,4.159,8.594,9.425,1.94,6.376-8.316,9.148-8.871,4.435,0,5.821-.832,4.436-1.18,8.316-6.134,7.208-4.954,8.04-5.786,3.326-7.073,3.6-9.635,4.158-3.671,1.94-9.215-4.99-9.98-7.762-7.485-2.772,7.485-1.94,8.316,8.871,3.785,2.495,6.051-13.029,1.893-13.584,0-4.713-7.16-6.1-7.992-9.148-1.386-11.366,2.495-14.415.277-10.811-6.93,5.267-10.534.555-14.415-5.821-6.93-10.534-8.04-8.871,6.93-13.584-1.94-4.99-12.752-11.366-14.415S291.2,828.1,282.6,830.32s-15.247,3.6-16.91,3.881-9.98-3.6-8.871-6.376,2.218-10.534,5.821-10.811,5.545,2.218,6.653,2.495,4.713,2.495,8.316-2.495,4.435-6.93,4.158-10.257-2.772-5.267-1.664-8.594-2.495-5.267,3.05-5.267,8.039-4.713,8.594-7.208-3.326-6.93,1.663-8.316,8.594-2.772,10.534,0,5.821,2.495,7.762,1.109,2.495-7.208,7.762-6.376,10.534-3.326,9.98,2.495-6.376,9.7-4.436,12.2,5.267,5.821,8.594,3.6,7.485-4.713,10.811-4.158,7.485,2.218,9.148,2.495,8.594-4.435,8.039-7.208.044-7.208-4-6.1-5.151,2.218-7.369,2.218-6.376.555-7.208-.555-4.99-4.713-5.545-8.039,3.326-6.931,3.326-8.871-1.386-7.208-5.267-8.316-9.425,1.663-9.7,3.881,1.663,4.713-1.386,6.1-8.039.277-10.811,1.664-1.109.555-4.435,4.158-6.376,3.6-9.148,3.6-8.871.277-10.811,2.218-7.208.831-7.208.831-1.386-4.713,6.1-6.93,10.257-1.386,12.475-6.1a29.55,29.55,0,0,0,2.495-9.7s-.555-1.109,3.049-1.663S316.7,743,316.7,743,319.75,733.85,316.978,733.85Z" transform="translate(-196.295 -709.731)" fill="#2178bf"/>
            </g>
            <g id="Grupo_1209668" data-name="Grupo 1209668" transform="translate(506.451 446.491)">
              <path id="Trazado_1080774" data-name="Trazado 1080774" d="M871.121,887.087c3.959.587,8.329,2.142,9.062,6.1,1.386,7.485-.831,10.534-3.05,12.2s-11.92,3.05-10.257,9.98,10.687,4.99,13.737,10.812-7.284,2.495-11.8,9.98.277,13.861-1.663,17.465-5.545,8.039-5.267,12.752-4.713,9.148-10.534,8.871a11.324,11.324,0,0,0-3.242.488A193.211,193.211,0,0,1,871.121,887.087Z" transform="translate(-848.11 -887.087)" fill="#2178bf"/>
            </g>
          </g>
        </g>
        <g id="Grupo_1209689" data-name="Grupo 1209689" transform="translate(574.576 257.908)">
          <g id="Grupo_1209679" data-name="Grupo 1209679" transform="translate(46.097)">
            <g id="Grupo_1209671" data-name="Grupo 1209671">
              <path id="Trazado_1080775" data-name="Trazado 1080775" d="M530.892,599.942l4.876-70.422a2.354,2.354,0,0,1,2.511-2.186l.761.053.82-11.839h0l-1.6-.111a1.516,1.516,0,0,1,.209-3.024l61.511,4.259a10.094,10.094,0,0,1,9.372,10.767L603.984,605a8.321,8.321,0,0,1-8.875,7.726l-56.492-3.911A8.319,8.319,0,0,1,530.892,599.942Z" transform="translate(-530.871 -512.41)" fill="#f5bc54"/>
            </g>
            <g id="Grupo_1209672" data-name="Grupo 1209672" transform="translate(8.169 3.138)">
              <path id="Trazado_1080776" data-name="Trazado 1080776" d="M607.1,527.99l-.138,1.995a4.934,4.934,0,0,1-5.263,4.581l-58.948-4.082h0l.819-11.839h0l58.948,4.081A4.934,4.934,0,0,1,607.1,527.99Z" transform="translate(-542.748 -518.645)" fill="#fff"/>
            </g>
            <g id="Grupo_1209673" data-name="Grupo 1209673" transform="translate(9.057 23.26)">
              <path id="Trazado_1080777" data-name="Trazado 1080777" d="M621.727,561.669l-40.071-3.04a2.283,2.283,0,0,0-2.451,2.117l-.978,13.971a2.284,2.284,0,0,0,2.113,2.437l40.009,2.892a2.283,2.283,0,0,0,2.442-2.106l1.04-13.823A2.284,2.284,0,0,0,621.727,561.669Z" transform="translate(-578.222 -558.623)" fill="#fff"/>
            </g>
            <g id="Grupo_1209674" data-name="Grupo 1209674" transform="translate(7.625 2.596)">
              <path id="Trazado_1080778" data-name="Trazado 1080778" d="M668.454,530.493a.544.544,0,0,0,.542-.506l.82-11.839a.544.544,0,0,0-.5-.58.552.552,0,0,0-.58.5l-.82,11.839a.544.544,0,0,0,.5.58Z" transform="translate(-667.909 -517.567)" fill="#f8b3ff"/>
            </g>
            <g id="Grupo_1209675" data-name="Grupo 1209675" transform="translate(7.839 11.345)">
              <path id="Trazado_1080779" data-name="Trazado 1080779" d="M614.735,539.684a.544.544,0,0,0,.035-1.087l-55.658-3.648a.544.544,0,0,0-.071,1.086l55.658,3.648Z" transform="translate(-558.533 -534.949)" fill="#f8b3ff"/>
            </g>
            <g id="Grupo_1209676" data-name="Grupo 1209676" transform="translate(8.224 5.781)">
              <path id="Trazado_1080780" data-name="Trazado 1080780" d="M654.354,526.012a.544.544,0,0,0,.037-1.086l-14.733-1.03a.544.544,0,0,0-.076,1.085l14.733,1.03Z" transform="translate(-639.076 -523.895)" fill="#f8b3ff"/>
            </g>
            <g id="Grupo_1209677" data-name="Grupo 1209677" transform="translate(39.805 7.99)">
              <path id="Trazado_1080781" data-name="Trazado 1080781" d="M587.023,530.725a.544.544,0,0,0,.037-1.086l-19.38-1.354a.556.556,0,0,0-.58.5.543.543,0,0,0,.5.58l19.381,1.355Z" transform="translate(-567.098 -528.284)" fill="#f8b3ff"/>
            </g>
            <g id="Grupo_1209678" data-name="Grupo 1209678" transform="translate(62.868 26.371)">
              <path id="Trazado_1080782" data-name="Trazado 1080782" d="M550.165,632.493a1.088,1.088,0,0,0,1.084-1.016l4.3-65.513a1.088,1.088,0,1,0-2.171-.142l-4.3,65.513a1.088,1.088,0,0,0,1.014,1.157Z" transform="translate(-549.076 -564.804)" fill="#ea8475"/>
            </g>
          </g>
          <g id="Grupo_1209688" data-name="Grupo 1209688" transform="translate(0 36.693)">
            <g id="Grupo_1209680" data-name="Grupo 1209680">
              <path id="Trazado_1080783" data-name="Trazado 1080783" d="M521.679,613.614h0a17.887,17.887,0,0,1,10.756-4.008l68.4-2.066s1.9-4.94,12.2-8.611l13.113-13.25a1.216,1.216,0,0,1,1.8.061,6.521,6.521,0,0,1,.249,8.367l-6.378,8.491,14.82-4.91.528-7.628c4.724-.7,7,.607,7,.607a6.128,6.128,0,0,1,2.658,4.876,6.033,6.033,0,0,1-.883,3.17l-1.089,1.879s4.055,3.461.713,8.586c0,0,4.231,3.416-.51,9.289a8.436,8.436,0,0,1-2.878,8.225,43.637,43.637,0,0,1-6.847,4.7c-8.329,4.741-18.679,4.23-27.237-.082l-4.237-2.135-60.313,18.5a25.69,25.69,0,0,1-13.238.63C513.142,644.369,509.275,623.713,521.679,613.614Z" transform="translate(-514.412 -585.31)" fill="#fdb"/>
            </g>
            <g id="Grupo_1209687" data-name="Grupo 1209687" transform="translate(85.902 6.936)">
              <g id="Grupo_1209681" data-name="Grupo 1209681" transform="translate(35.675 7.529)">
                <path id="Trazado_1080784" data-name="Trazado 1080784" d="M518.177,640.5a.815.815,0,0,0,.529-.2l8.144-6.951a.815.815,0,0,0-1.059-1.24l-6.81,5.812-.09-15.732a42.129,42.129,0,0,0,7.837-6.793.816.816,0,1,0-1.222-1.081,40.672,40.672,0,0,1-7.864,6.74.816.816,0,0,0-.385.7l.1,17.933a.816.816,0,0,0,.815.811Z" transform="translate(-517.259 -614.048)" fill="#ea8475"/>
              </g>
              <g id="Grupo_1209682" data-name="Grupo 1209682" transform="translate(35.731 16.114)">
                <path id="Trazado_1080785" data-name="Trazado 1080785" d="M517.062,640.943a.811.811,0,0,0,.522-.19,79.679,79.679,0,0,0,8.8-8.3.816.816,0,0,0-1.239-1.061,79.868,79.868,0,0,1-8.6,8.112.816.816,0,0,0,.523,1.442Z" transform="translate(-516.246 -631.105)" fill="#ea8475"/>
              </g>
              <g id="Grupo_1209683" data-name="Grupo 1209683" transform="translate(35.777 0.092)">
                <path id="Trazado_1080786" data-name="Trazado 1080786" d="M524.474,605.164a.542.542,0,0,0,.364-.14l5.331-4.8a.544.544,0,0,0-.727-.808l-5.331,4.8a.544.544,0,0,0,.363.948Z" transform="translate(-523.93 -599.273)" fill="#ea8475"/>
              </g>
              <g id="Grupo_1209684" data-name="Grupo 1209684" transform="translate(37.536)">
                <path id="Trazado_1080787" data-name="Trazado 1080787" d="M531.432,603.488a.543.543,0,0,0,.544-.532l.069-3.311a.543.543,0,0,0-.532-.555H531.5a.544.544,0,0,0-.544.532l-.07,3.311a.544.544,0,0,0,.532.556Z" transform="translate(-530.889 -599.09)" fill="#ea8475"/>
              </g>
              <g id="Grupo_1209685" data-name="Grupo 1209685" transform="translate(13.783 9.534)">
                <path id="Trazado_1080788" data-name="Trazado 1080788" d="M564.243,621.54a.812.812,0,0,0,.214-.029l6.9-1.877a.816.816,0,1,0-.428-1.574l-6.9,1.877a.816.816,0,0,0,.214,1.6Z" transform="translate(-563.427 -618.031)" fill="#ea8475"/>
              </g>
              <g id="Grupo_1209686" data-name="Grupo 1209686" transform="translate(0 34.356)">
                <path id="Trazado_1080789" data-name="Trazado 1080789" d="M603.715,670.619a.544.544,0,0,0,.36-.95l-2.465-2.184a.543.543,0,1,0-.721.813l2.465,2.184A.542.542,0,0,0,603.715,670.619Z" transform="translate(-600.707 -667.348)" fill="#ea8475"/>
              </g>
            </g>
          </g>
        </g>
        <g id="Grupo_1209695" data-name="Grupo 1209695" transform="translate(785.475 283.565)">
          <g id="Grupo_1209690" data-name="Grupo 1209690" transform="translate(24.82 4.975)">
            <path id="Trazado_1080790" data-name="Trazado 1080790" d="M227.4,573.269s14.318,10.9,21.556,19.816a28.073,28.073,0,0,1-9.243,42.753h0a17.944,17.944,0,0,1-14.964.523l-25.165-10.5Z" transform="translate(-199.582 -573.269)" fill="#fdb"/>
          </g>
          <g id="Grupo_1209691" data-name="Grupo 1209691">
            <path id="Trazado_1080791" data-name="Trazado 1080791" d="M217.057,592.952c2.037-4.907,14.864-21.078,28.437-27.449s27.844,2.776,30.656,12.224c2.047,6.879,8.456,31.725,11.79,44.728a17.266,17.266,0,0,1-2.946,14.693l-8.666,11.478a3.974,3.974,0,0,1-3.2,1.639,3.309,3.309,0,0,1-2.67-1.406s-5.709,4.214-9.635-.3c0,0-3.872,3.264-6.657,2.456l1.324,25.42a4.8,4.8,0,0,1-5.864,4.971,11.177,11.177,0,0,1-8.254-8.748c-1.239-5.936-5.857-51.788-5.857-51.788C219.417,620.2,215.02,597.859,217.057,592.952Z" transform="translate(-216.592 -563.385)" fill="#fdb"/>
          </g>
          <g id="Grupo_1209692" data-name="Grupo 1209692" transform="translate(35.935 53.02)">
            <path id="Trazado_1080792" data-name="Trazado 1080792" d="M233.163,704.44a10.074,10.074,0,0,0,6.162-2.1c1.564,1.236,5.246,3.193,10.262-.266a1.088,1.088,0,0,0,.382-.464l9.663-22.4a1.088,1.088,0,0,0-.651-1.461l-26.51-8.963a1.087,1.087,0,0,0-1.435,1.048l.554,33.521a1.087,1.087,0,0,0,.976,1.064C232.6,704.419,232.817,704.44,233.163,704.44Zm5.217-4.154a7.689,7.689,0,0,1-4.634,1.958l-.51-30.907,12.884,4.356Zm9.718.169c-3.912,2.553-6.56.939-7.527.116l7.61-24.181,8.986,3.038Z" transform="translate(-231.036 -668.726)" fill="#ea8475"/>
          </g>
          <g id="Grupo_1209693" data-name="Grupo 1209693" transform="translate(10.636 26.937)">
            <path id="Trazado_1080793" data-name="Trazado 1080793" d="M327.948,648.537a1.058,1.058,0,0,0,.132-.008,1.087,1.087,0,0,0,.949-1.21L325.9,621.4a1.091,1.091,0,0,0-.594-.843,10.166,10.166,0,0,1-3.623-3.123,1.088,1.088,0,0,0-1.867,1.116,11.636,11.636,0,0,0,3.992,3.664l3.064,25.367A1.088,1.088,0,0,0,327.948,648.537Z" transform="translate(-319.659 -616.903)" fill="#ea8475"/>
          </g>
          <g id="Grupo_1209694" data-name="Grupo 1209694" transform="translate(52.782 13.254)">
            <path id="Trazado_1080794" data-name="Trazado 1080794" d="M218.3,664.338q.128,0,.255-.008a5.61,5.61,0,0,0,3.658-1.937l8.69-11.508a18.259,18.259,0,0,0,3.132-15.618c-3.534-13.785-9.767-37.933-11.8-44.768a1.088,1.088,0,1,0-2.085.62c2.024,6.8,8.249,30.918,11.779,44.688a16.1,16.1,0,0,1-2.76,13.767L220.5,661.05h0a3.408,3.408,0,0,1-2.087,1.11,2.916,2.916,0,0,1-2.155-1,1.087,1.087,0,0,0-1.515,1.56A5.072,5.072,0,0,0,218.3,664.338Z" transform="translate(-214.418 -589.719)" fill="#ea8475"/>
          </g>
        </g>
        <g id="Grupo_1209762" data-name="Grupo 1209762" transform="translate(503.258 128.062)">
          <g id="Grupo_1209741" data-name="Grupo 1209741" transform="translate(0 256.118)">
            <g id="Grupo_1209740" data-name="Grupo 1209740">
              <g id="Grupo_1209701" data-name="Grupo 1209701" transform="translate(327.676)">
                <g id="Grupo_1209697" data-name="Grupo 1209697" transform="translate(0 37)">
                  <g id="Grupo_1209696" data-name="Grupo 1209696">
                    <path id="Trazado_1080795" data-name="Trazado 1080795" d="M185.828,836.8a98.813,98.813,0,0,0,9.32,12.244,4.775,4.775,0,0,0,7.147,0,98.917,98.917,0,0,0,9.32-12.244c6.486,1.678,10.776,4.585,10.776,7.891,0,5.2-10.6,9.409-23.669,9.409s-23.669-4.212-23.669-9.409C175.051,841.383,179.341,838.476,185.828,836.8Z" transform="translate(-175.052 -836.798)" fill="#f5bc54"/>
                  </g>
                </g>
                <g id="Grupo_1209700" data-name="Grupo 1209700" transform="translate(6.44)">
                  <g id="Grupo_1209699" data-name="Grupo 1209699">
                    <g id="Grupo_1209698" data-name="Grupo 1209698">
                      <path id="Trazado_1080796" data-name="Trazado 1080796" d="M187.847,780.516a17.229,17.229,0,1,1,33.6,5.362h0s-2.7,10.334-15.24,24.5a1.523,1.523,0,0,1-2.277,0c-12.536-14.163-15.24-24.5-15.24-24.5h0A17.168,17.168,0,0,1,187.847,780.516Zm17.229,8.647a8.647,8.647,0,1,0-8.647-8.647A8.646,8.646,0,0,0,205.076,789.163Z" transform="translate(-187.847 -763.287)" fill="#ff4d4d"/>
                    </g>
                  </g>
                </g>
              </g>
              <g id="Grupo_1209707" data-name="Grupo 1209707" transform="translate(19.721)">
                <g id="Grupo_1209703" data-name="Grupo 1209703" transform="translate(0 37)">
                  <g id="Grupo_1209702" data-name="Grupo 1209702">
                    <path id="Trazado_1080797" data-name="Trazado 1080797" d="M797.672,836.8a98.8,98.8,0,0,0,9.32,12.244,4.775,4.775,0,0,0,7.147,0,98.866,98.866,0,0,0,9.32-12.244c6.486,1.678,10.776,4.585,10.776,7.891,0,5.2-10.6,9.409-23.669,9.409s-23.669-4.212-23.669-9.409C786.9,841.383,791.186,838.476,797.672,836.8Z" transform="translate(-786.896 -836.798)" fill="#f5bc54"/>
                  </g>
                </g>
                <g id="Grupo_1209706" data-name="Grupo 1209706" transform="translate(6.44)">
                  <g id="Grupo_1209705" data-name="Grupo 1209705">
                    <g id="Grupo_1209704" data-name="Grupo 1209704">
                      <path id="Trazado_1080798" data-name="Trazado 1080798" d="M799.691,780.516a17.229,17.229,0,1,1,33.6,5.362h0s-2.7,10.334-15.24,24.5a1.523,1.523,0,0,1-2.277,0c-12.536-14.163-15.24-24.5-15.24-24.5h0A17.181,17.181,0,0,1,799.691,780.516Zm17.229,8.647a8.647,8.647,0,1,0-8.647-8.647A8.646,8.646,0,0,0,816.92,789.163Z" transform="translate(-799.691 -763.287)" fill="#ff4d4d"/>
                    </g>
                  </g>
                </g>
              </g>
              <g id="Grupo_1209709" data-name="Grupo 1209709" transform="translate(0 35.084)">
                <g id="Grupo_1209708" data-name="Grupo 1209708">
                  <path id="Trazado_1080799" data-name="Trazado 1080799" d="M897.979,841.772a1.081,1.081,0,0,0,.715-.268,35.277,35.277,0,0,1,3.792-2.851,1.087,1.087,0,0,0-1.2-1.816,37.4,37.4,0,0,0-4.027,3.028,1.087,1.087,0,0,0,.716,1.907Z" transform="translate(-891.28 -834.812)" fill="#f5bc54"/>
                  <path id="Trazado_1080800" data-name="Trazado 1080800" d="M333.272,901.191a1.087,1.087,0,0,0,0-2.175q-4.91-.017-9.758-.085a1.088,1.088,0,0,0-.031,2.175q4.86.068,9.782.085Zm9.771-.018h.008q4.923-.035,9.783-.122a1.088,1.088,0,0,0-.039-2.175q-4.846.087-9.759.122a1.088,1.088,0,0,0,.008,2.175Zm-29.31-.257a1.087,1.087,0,0,0,.027-2.174q-4.916-.122-9.756-.3a1.073,1.073,0,0,0-1.126,1.048,1.088,1.088,0,0,0,1.048,1.125q4.85.174,9.779.3Zm48.851-.091h.032q4.929-.141,9.778-.335a1.087,1.087,0,0,0,1.043-1.129,1.07,1.07,0,0,0-1.129-1.043q-4.837.192-9.755.333a1.088,1.088,0,0,0,.031,2.175Zm-68.382-.61a1.088,1.088,0,0,0,.05-2.174q-4.919-.232-9.746-.517a1.087,1.087,0,1,0-.128,2.171q4.837.286,9.772.519Zm87.91-.169.057,0q4.935-.253,9.77-.559a1.087,1.087,0,0,0-.137-2.17q-4.822.3-9.744.558a1.087,1.087,0,0,0,.055,2.173Zm-107.421-.986a1.088,1.088,0,0,0,.076-2.172q-4.924-.351-9.729-.756a1.088,1.088,0,1,0-.183,2.168q4.818.406,9.757.759Zm126.926-.251c.028,0,.055,0,.084,0q4.939-.375,9.754-.8a1.087,1.087,0,0,0-.193-2.166q-4.8.428-9.725.8a1.087,1.087,0,0,0,.081,2.171Zm-146.4-1.394a1.088,1.088,0,0,0,.1-2.17q-4.926-.483-9.7-1.023a1.088,1.088,0,0,0-.244,2.161q4.791.54,9.735,1.026A.993.993,0,0,0,255.216,897.417Zm165.87-.343a.936.936,0,0,0,.113-.006c3.289-.339,6.563-.7,9.73-1.076a1.088,1.088,0,0,0-.256-2.16c-3.156.374-6.419.735-9.7,1.074a1.087,1.087,0,0,0,.11,2.169Zm-185.29-1.855a1.087,1.087,0,0,0,.137-2.166c-3.27-.422-6.521-.87-9.662-1.332a1.087,1.087,0,0,0-.317,2.152c3.154.464,6.417.913,9.7,1.337A1.046,1.046,0,0,0,235.795,895.219Zm204.7-.448a1.128,1.128,0,0,0,.147-.01c3.284-.444,6.546-.915,9.693-1.4a1.087,1.087,0,0,0-.33-2.149c-3.135.482-6.383.95-9.654,1.392a1.087,1.087,0,0,0,.143,2.165Zm-224.038-2.4a1.087,1.087,0,0,0,.178-2.16c-3.267-.546-6.5-1.122-9.6-1.712a1.088,1.088,0,0,0-.407,2.137c3.117.593,6.363,1.172,9.646,1.72A1.157,1.157,0,0,0,216.457,892.371Zm243.356-.577a1.1,1.1,0,0,0,.189-.016c3.284-.573,6.525-1.179,9.633-1.8a1.087,1.087,0,0,0-.426-2.132c-3.091.617-6.315,1.218-9.582,1.789a1.087,1.087,0,0,0,.186,2.158ZM197.258,888.7a1.088,1.088,0,0,0,.23-2.15c-3.266-.71-6.456-1.457-9.483-2.219a1.088,1.088,0,1,0-.531,2.109c3.05.767,6.263,1.519,9.552,2.234A1.082,1.082,0,0,0,197.258,888.7Zm281.72-.745a1.069,1.069,0,0,0,.244-.028c3.3-.755,6.5-1.544,9.526-2.346a1.087,1.087,0,0,0-.559-2.1c-3,.8-6.178,1.58-9.453,2.328a1.088,1.088,0,0,0,.242,2.148Zm-300.667-4.049a1.088,1.088,0,0,0,.308-2.131c-3.272-.966-6.381-1.973-9.241-2.992a1.087,1.087,0,1,0-.73,2.048c2.9,1.032,6.044,2.051,9.354,3.029A1.1,1.1,0,0,0,178.311,883.911Zm319.547-1a1.1,1.1,0,0,0,.327-.05c3.308-1.039,6.436-2.123,9.3-3.223a1.088,1.088,0,0,0-.78-2.031c-2.818,1.083-5.9,2.153-9.168,3.178a1.088,1.088,0,0,0,.325,2.126Zm-337.917-5.639a1.088,1.088,0,0,0,.449-2.079,67.745,67.745,0,0,1-8.48-4.505,1.087,1.087,0,1,0-1.171,1.833,69.856,69.856,0,0,0,8.754,4.654A1.087,1.087,0,0,0,159.942,877.276Zm356.1-1.47a1.082,1.082,0,0,0,.486-.115,54.392,54.392,0,0,0,8.5-5.167,1.088,1.088,0,1,0-1.317-1.731,52.2,52.2,0,0,1-8.162,4.953,1.088,1.088,0,0,0,.489,2.06ZM143.96,866.385a1.087,1.087,0,0,0,.855-1.759,10.252,10.252,0,0,1-2.479-6.308,8.239,8.239,0,0,1,.2-1.787,1.087,1.087,0,0,0-2.122-.473,10.434,10.434,0,0,0-.251,2.26,12.355,12.355,0,0,0,2.943,7.652A1.083,1.083,0,0,0,143.96,866.385Zm386.756-2.867a1.086,1.086,0,0,0,.99-.637,10.95,10.95,0,0,0,1.031-4.563,11.384,11.384,0,0,0-1.632-5.727,1.087,1.087,0,1,0-1.883,1.089,9.243,9.243,0,0,1,1.34,4.639,8.8,8.8,0,0,1-.835,3.661,1.089,1.089,0,0,0,.989,1.539Z" transform="translate(-140.161 -842.456)" fill="#f5bc54"/>
                  <path id="Trazado_1080801" data-name="Trazado 1080801" d="M162.089,837.772a1.088,1.088,0,0,0,.627-1.977c-1.27-.895-2.694-1.79-4.233-2.663a1.087,1.087,0,0,0-1.072,1.892c1.478.837,2.841,1.694,4.053,2.548A1.078,1.078,0,0,0,162.089,837.772Z" transform="translate(220.994 -832.991)" fill="#f5bc54"/>
                </g>
              </g>
              <g id="Grupo_1209739" data-name="Grupo 1209739" transform="translate(153.614 23.515)">
                <g id="Grupo_1209711" data-name="Grupo 1209711" transform="translate(27.72 4.549)">
                  <g id="Grupo_1209710" data-name="Grupo 1209710">
                    <path id="Trazado_1080802" data-name="Trazado 1080802" d="M515.264,832.562,502.6,819.9a.5.5,0,0,1,.354-.856h5.224a5.276,5.276,0,0,1,2.792.8l20.374,12.719H515.264Z" transform="translate(-502.454 -819.043)" fill="#f5bc54"/>
                  </g>
                </g>
                <g id="Grupo_1209713" data-name="Grupo 1209713" transform="translate(0.521 17.042)">
                  <g id="Grupo_1209712" data-name="Grupo 1209712">
                    <path id="Trazado_1080803" data-name="Trazado 1080803" d="M501.7,843.865H433.424a3.453,3.453,0,0,0-1.731,6.44l9.879,5.725a41.41,41.41,0,0,0,20.764,5.581h56a4.2,4.2,0,0,0,3.895-5.771c-.995-2.471-3.081-4.8-7.411-4.8l-4.1-3.707A13.453,13.453,0,0,0,501.7,843.865Z" transform="translate(-429.965 -843.865)" fill="#213059"/>
                  </g>
                </g>
                <g id="Grupo_1209715" data-name="Grupo 1209715" transform="translate(24.747 32.291)">
                  <g id="Grupo_1209714" data-name="Grupo 1209714">
                    <path id="Trazado_1080804" data-name="Trazado 1080804" d="M522.237,874.161l-14.781,16.224a.642.642,0,0,0,.475,1.074h5.188a5.17,5.17,0,0,0,3.142-1.064l20.3-15.529a.393.393,0,0,0-.239-.705Z" transform="translate(-507.287 -874.161)" fill="#f5bc54"/>
                  </g>
                </g>
                <g id="Grupo_1209717" data-name="Grupo 1209717" transform="translate(0.536)">
                  <g id="Grupo_1209716" data-name="Grupo 1209716">
                    <path id="Trazado_1080805" data-name="Trazado 1080805" d="M597.032,827.048l-10.437-15.424a3.68,3.68,0,0,0-3.048-1.618h-3.068a.5.5,0,0,0-.483.651l4.991,16.39h12.045Z" transform="translate(-579.974 -810.006)" fill="#f5bc54"/>
                  </g>
                </g>
                <g id="Grupo_1209719" data-name="Grupo 1209719" transform="translate(0 23.449)">
                  <g id="Grupo_1209718" data-name="Grupo 1209718">
                    <path id="Trazado_1080806" data-name="Trazado 1080806" d="M601.079,856.594h-7.271l-5.788,8.151a.437.437,0,0,0,.356.691h1.347a3.179,3.179,0,0,0,1.928-.651l9.7-7.393A.444.444,0,0,0,601.079,856.594Z" transform="translate(-587.938 -856.594)" fill="#f5bc54"/>
                  </g>
                </g>
                <g id="Grupo_1209736" data-name="Grupo 1209736" transform="translate(21.951 20.63)">
                  <g id="Grupo_1209721" data-name="Grupo 1209721" transform="translate(11.447)">
                    <g id="Grupo_1209720" data-name="Grupo 1209720">
                      <path id="Trazado_1080807" data-name="Trazado 1080807" d="M545.087,851.517v3.118a.523.523,0,0,1-.523.523h-2.488a.523.523,0,0,1-.523-.523v-3.118a.523.523,0,0,1,.523-.523h2.488A.524.524,0,0,1,545.087,851.517Z" transform="translate(-541.553 -850.993)" fill="#f5bc54"/>
                    </g>
                  </g>
                  <g id="Grupo_1209723" data-name="Grupo 1209723" transform="translate(35.408)">
                    <g id="Grupo_1209722" data-name="Grupo 1209722">
                      <path id="Trazado_1080808" data-name="Trazado 1080808" d="M497.481,851.517v3.118a.523.523,0,0,1-.523.523H494.47a.523.523,0,0,1-.523-.523v-3.118a.523.523,0,0,1,.523-.523h2.488A.524.524,0,0,1,497.481,851.517Z" transform="translate(-493.947 -850.993)" fill="#f5bc54"/>
                    </g>
                  </g>
                  <g id="Grupo_1209725" data-name="Grupo 1209725" transform="translate(0 0)">
                    <g id="Grupo_1209724" data-name="Grupo 1209724">
                      <path id="Trazado_1080809" data-name="Trazado 1080809" d="M566.862,850.994h1.495v4.165h-1.495a1.505,1.505,0,0,1-1.505-1.505V852.5A1.5,1.5,0,0,1,566.862,850.994Z" transform="translate(-565.356 -850.994)" fill="#f5bc54"/>
                    </g>
                  </g>
                  <g id="Grupo_1209727" data-name="Grupo 1209727" transform="translate(29.417)">
                    <g id="Grupo_1209726" data-name="Grupo 1209726">
                      <path id="Trazado_1080810" data-name="Trazado 1080810" d="M509.384,851.517v3.118a.523.523,0,0,1-.523.523h-2.488a.523.523,0,0,1-.523-.523v-3.118a.523.523,0,0,1,.523-.523h2.488A.524.524,0,0,1,509.384,851.517Z" transform="translate(-505.849 -850.993)" fill="#f5bc54"/>
                    </g>
                  </g>
                  <g id="Grupo_1209729" data-name="Grupo 1209729" transform="translate(17.437)">
                    <g id="Grupo_1209728" data-name="Grupo 1209728">
                      <path id="Trazado_1080811" data-name="Trazado 1080811" d="M533.186,851.517v3.118a.524.524,0,0,1-.523.523h-2.488a.523.523,0,0,1-.523-.523v-3.118a.523.523,0,0,1,.523-.523h2.488A.524.524,0,0,1,533.186,851.517Z" transform="translate(-529.652 -850.993)" fill="#f5bc54"/>
                    </g>
                  </g>
                  <g id="Grupo_1209731" data-name="Grupo 1209731" transform="translate(5.457)">
                    <g id="Grupo_1209730" data-name="Grupo 1209730">
                      <path id="Trazado_1080812" data-name="Trazado 1080812" d="M556.989,851.517v3.118a.523.523,0,0,1-.523.523h-2.488a.523.523,0,0,1-.523-.523v-3.118a.523.523,0,0,1,.523-.523h2.488A.524.524,0,0,1,556.989,851.517Z" transform="translate(-553.455 -850.993)" fill="#f5bc54"/>
                    </g>
                  </g>
                  <g id="Grupo_1209733" data-name="Grupo 1209733" transform="translate(23.427)">
                    <g id="Grupo_1209732" data-name="Grupo 1209732">
                      <path id="Trazado_1080813" data-name="Trazado 1080813" d="M521.284,851.517v3.118a.523.523,0,0,1-.523.523h-2.488a.523.523,0,0,1-.523-.523v-3.118a.524.524,0,0,1,.523-.523h2.488A.524.524,0,0,1,521.284,851.517Z" transform="translate(-517.75 -850.993)" fill="#f5bc54"/>
                    </g>
                  </g>
                  <g id="Grupo_1209735" data-name="Grupo 1209735" transform="translate(41.398 0)">
                    <g id="Grupo_1209734" data-name="Grupo 1209734">
                      <path id="Trazado_1080814" data-name="Trazado 1080814" d="M484.918,850.994a1.505,1.505,0,0,1,1.505,1.505v1.153a1.505,1.505,0,0,1-1.505,1.505h-1.175v-4.165h1.175Z" transform="translate(-483.743 -850.993)" fill="#f5bc54"/>
                    </g>
                  </g>
                </g>
                <g id="Grupo_1209738" data-name="Grupo 1209738" transform="translate(73.942 20.63)">
                  <g id="Grupo_1209737" data-name="Grupo 1209737">
                    <path id="Trazado_1080815" data-name="Trazado 1080815" d="M445.3,853.652v-.857a1.8,1.8,0,0,1,1.8-1.8h5.662l3.972,3.588H446.23A.928.928,0,0,1,445.3,853.652Z" transform="translate(-445.301 -850.993)" fill="#f5bc54"/>
                  </g>
                </g>
              </g>
            </g>
          </g>
          <g id="Grupo_1209761" data-name="Grupo 1209761" transform="translate(21.256 0)">
            <g id="Grupo_1209751" data-name="Grupo 1209751" transform="translate(278.162)">
              <g id="Grupo_1209742" data-name="Grupo 1209742" transform="translate(51.368 1.655)">
                <path id="Trazado_1080816" data-name="Trazado 1080816" d="M127.037,382.214l2.528-2.786a5.021,5.021,0,0,1,7.972.7L154.468,407.1Z" transform="translate(-127.037 -377.781)" fill="#f8b3ff"/>
              </g>
              <g id="Grupo_1209743" data-name="Grupo 1209743" transform="translate(50.281 0.567)">
                <path id="Trazado_1080817" data-name="Trazado 1080817" d="M153.395,407.114a1.088,1.088,0,0,0,.921-1.665L137.383,378.48a6.109,6.109,0,0,0-9.7-.856l-2.528,2.785a1.087,1.087,0,1,0,1.611,1.461l2.528-2.785a3.935,3.935,0,0,1,6.246.551L152.473,406.6A1.085,1.085,0,0,0,153.395,407.114Z" transform="translate(-124.875 -375.618)" fill="#b375db"/>
              </g>
              <g id="Grupo_1209744" data-name="Grupo 1209744" transform="translate(0.816 0.814)">
                <path id="Trazado_1080818" data-name="Trazado 1080818" d="M153.954,458.352l-35.118-31.861a5.022,5.022,0,0,1-.345-7.093l37.779-41.641a5.022,5.022,0,0,1,7.093-.345l35.118,31.861a5.021,5.021,0,0,1,.345,7.093l-37.779,41.641A5.022,5.022,0,0,1,153.954,458.352Z" transform="translate(-117.189 -376.109)" fill="#213059"/>
              </g>
              <g id="Grupo_1209745" data-name="Grupo 1209745">
                <path id="Trazado_1080819" data-name="Trazado 1080819" d="M156.521,459.664a5.825,5.825,0,0,0,4.326-1.913l37.779-41.641a5.836,5.836,0,0,0-.4-8.245L163.105,376a5.836,5.836,0,0,0-8.244.4l-37.779,41.641a5.838,5.838,0,0,0,.4,8.245L152.6,458.154A5.82,5.82,0,0,0,156.521,459.664Zm2.668-83.543a4.175,4.175,0,0,1,2.821,1.091l35.119,31.861a4.206,4.206,0,0,1,.289,5.941l-37.779,41.641a4.209,4.209,0,0,1-5.941.289l-35.119-31.861a4.206,4.206,0,0,1-.288-5.941L156.07,377.5a4.176,4.176,0,0,1,2.91-1.375C159.05,376.123,159.119,376.121,159.189,376.121Z" transform="translate(-115.568 -374.492)" fill="#255c99"/>
              </g>
              <g id="Grupo_1209750" data-name="Grupo 1209750" transform="translate(15.061 21.65)">
                <g id="Grupo_1209747" data-name="Grupo 1209747" transform="translate(10.595)">
                  <g id="Grupo_1209746" data-name="Grupo 1209746">
                    <path id="Trazado_1080820" data-name="Trazado 1080820" d="M190.92,448.741a18.687,18.687,0,1,1-1.283-26.4A18.708,18.708,0,0,1,190.92,448.741Zm-12.442-12.624,5.306,4.814a30.363,30.363,0,0,0,3.773-5.523,32.969,32.969,0,0,1-5.139-3.633Zm9.931-2.495c1.573-3.684,1.854-7.046.543-9.049l-5.2,5.736A31.06,31.06,0,0,0,188.409,433.622Zm-9.875-8.96a31.047,31.047,0,0,0,3.749,4.319l5.2-5.736C185.365,422.133,182.048,422.738,178.533,424.662Zm-1.7,1.021a30.369,30.369,0,0,0-5.131,4.291l5.306,4.814,3.939-4.342A32.936,32.936,0,0,1,176.838,425.683Zm-1.094-1.677a21.557,21.557,0,0,1-1.979-4.189,16.61,16.61,0,0,0-8.37,4.429l4.846,4.4A32.4,32.4,0,0,1,175.743,424.006Zm-11.679,1.706a16.613,16.613,0,0,0-3.6,8.769,21.584,21.584,0,0,1,4.358,1.563,32.425,32.425,0,0,1,4.085-5.936ZM166.6,436.97a32.942,32.942,0,0,1,5.137,3.632l3.946-4.35-5.306-4.814A30.336,30.336,0,0,0,166.6,436.97Zm-.851,1.787c-1.57,3.681-1.849,7.038-.539,9.039l5.2-5.729A31.088,31.088,0,0,0,165.749,438.757Zm9.871,8.955a31.109,31.109,0,0,0-3.747-4.316l-5.2,5.729C168.795,450.235,172.109,449.632,175.62,447.712Zm1.7-1.02a30.378,30.378,0,0,0,5.139-4.3l-5.306-4.814-3.946,4.35A32.969,32.969,0,0,1,177.316,446.692Zm1.095,1.677a21.625,21.625,0,0,1,1.979,4.186,16.614,16.614,0,0,0,8.378-4.431l-4.846-4.4A32.437,32.437,0,0,1,178.411,448.368Zm11.686-1.71a16.613,16.613,0,0,0,3.6-8.76,21.58,21.58,0,0,1-4.361-1.564,32.447,32.447,0,0,1-4.081,5.927Zm1.667-18.443a17.586,17.586,0,0,1-1.575,6.341,19.931,19.931,0,0,0,3.586,1.324A16.744,16.744,0,0,0,191.763,428.215Zm-16-8.675a19.934,19.934,0,0,0,1.666,3.441,17.589,17.589,0,0,1,6.158-2.183A16.743,16.743,0,0,0,175.764,419.54ZM162.4,444.154a17.569,17.569,0,0,1,1.571-6.332,19.93,19.93,0,0,0-3.583-1.324A16.752,16.752,0,0,0,162.4,444.154Zm15.991,8.676a19.937,19.937,0,0,0-1.666-3.437,17.562,17.562,0,0,1-6.15,2.178A16.747,16.747,0,0,0,178.389,452.83Z" transform="translate(-158.402 -417.507)" fill="#fff"/>
                  </g>
                </g>
                <g id="Grupo_1209749" data-name="Grupo 1209749" transform="translate(0 24.754)">
                  <g id="Grupo_1209748" data-name="Grupo 1209748">
                    <path id="Trazado_1080821" data-name="Trazado 1080821" d="M225.853,490.127,202.564,469a1.327,1.327,0,0,1,1.783-1.966l23.289,21.13a1.327,1.327,0,1,1-1.783,1.965Z" transform="translate(-202.128 -466.688)" fill="#fff"/>
                  </g>
                </g>
              </g>
            </g>
            <g id="Grupo_1209760" data-name="Grupo 1209760" transform="translate(0 60.895)">
              <g id="Grupo_1209755" data-name="Grupo 1209755">
                <g id="Grupo_1209752" data-name="Grupo 1209752" transform="translate(29.287 22.455)">
                  <path id="Trazado_1080822" data-name="Trazado 1080822" d="M699.792,440.509l9.657,23.909s9.626,5.038,28.538-2.6c19.372-7.825,22.163-17.878,22.163-17.878l-9.657-23.909Z" transform="translate(-699.792 -420.031)" fill="#213059"/>
                </g>
                <g id="Grupo_1209753" data-name="Grupo 1209753">
                  <path id="Trazado_1080823" data-name="Trazado 1080823" d="M718.464,382.4l-40.388,31.87a3.431,3.431,0,0,0,2.4,6.113l51.5-4.087a8.768,8.768,0,0,0,4.878-1.97l39.89-32.823a3.431,3.431,0,0,0-2.521-6.063l-51.192,5.118A8.77,8.77,0,0,0,718.464,382.4Z" transform="translate(-676.762 -375.418)" fill="#213059"/>
                </g>
                <g id="Grupo_1209754" data-name="Grupo 1209754" transform="translate(2.896 5.267)">
                  <path id="Trazado_1080824" data-name="Trazado 1080824" d="M678.461,426.393l.066,0,51.5-4.087a9.544,9.544,0,0,0,5.332-2.154l39.89-32.823a.815.815,0,1,0-1.036-1.259l-39.89,32.823a7.916,7.916,0,0,1-4.425,1.787l-51.5,4.087a.815.815,0,0,0,.063,1.628Z" transform="translate(-677.646 -385.882)" fill="#255c99"/>
                </g>
              </g>
              <g id="Grupo_1209759" data-name="Grupo 1209759" transform="translate(32.76 20.975)">
                <g id="Grupo_1209756" data-name="Grupo 1209756" transform="translate(10.548 54.485)">
                  <path id="Trazado_1080825" data-name="Trazado 1080825" d="M760.025,525.748c2.757-.914,5.461-.237,6.041,1.512l7.965,13.512s-3.621,9.36-14.446,4.893l-3.5-15.1C755.5,528.819,757.268,526.661,760.025,525.748Z" transform="translate(-755.972 -525.341)" fill="#255c99"/>
                </g>
                <g id="Grupo_1209757" data-name="Grupo 1209757" transform="translate(10.548 54.485)">
                  <path id="Trazado_1080826" data-name="Trazado 1080826" d="M771.689,530.568c.579,1.749,3.284,2.426,6.041,1.513s4.522-3.071,3.943-4.82-3.284-2.426-6.041-1.512S771.11,528.82,771.689,530.568Z" transform="translate(-771.579 -525.341)" fill="#213059"/>
                </g>
                <g id="Grupo_1209758" data-name="Grupo 1209758">
                  <path id="Trazado_1080827" data-name="Trazado 1080827" d="M790.235,474.506a1.089,1.089,0,0,0,1.007-1.5l-13.919-34.131,16.452-20.007a1.088,1.088,0,1,0-1.681-1.382L775.23,438a1.087,1.087,0,0,0-.167,1.1l14.164,34.732A1.09,1.09,0,0,0,790.235,474.506Z" transform="translate(-774.983 -417.091)" fill="#f5bc54"/>
                </g>
              </g>
            </g>
          </g>
        </g>
      </g>
    </g>
  </g>
</svg>
