<svg xmlns="http://www.w3.org/2000/svg" xmlns:xlink="http://www.w3.org/1999/xlink" width="93.934" height="93.934" viewBox="0 0 93.934 93.934">
  <defs>
    <filter id="Trazado_982547" x="0" y="-0.001" width="93.934" height="93.934" filterUnits="userSpaceOnUse">
      <feOffset dy="3" input="SourceAlpha"/>
      <feGaussianBlur stdDeviation="3" result="blur"/>
      <feFlood flood-opacity="0.161"/>
      <feComposite operator="in" in2="blur"/>
      <feComposite in="SourceGraphic"/>
    </filter>
  </defs>
  <g id="Grupo_1209799" data-name="Grupo 1209799" transform="translate(-609 -8765.591)">
    <g id="Grupo_1207741" data-name="Grupo 1207741" transform="translate(0 2558.5)">
      <g id="Grupo_1206678" data-name="Grupo 1206678" transform="translate(420.598 -3272.478)">
        <g id="Grupo_1183665" data-name="Grupo 1183665" transform="translate(-0.598 8175.569)">
          <g id="Grupo_1181743" data-name="Grupo 1181743" transform="translate(0 569)">
            <g id="Grupo_1175133" data-name="Grupo 1175133" transform="translate(-0.033 -1251)">
              <g id="Grupo_1167337" data-name="Grupo 1167337" transform="translate(198.033 1992)">
                <g id="Grupo_1166720" data-name="Grupo 1166720">
                  <g id="Grupo_1164305" data-name="Grupo 1164305">
                    <g id="Grupo_1163948" data-name="Grupo 1163948">
                      <g id="Grupo_1158168" data-name="Grupo 1158168">
                        <g id="Grupo_1152576" data-name="Grupo 1152576">
                          <g id="Grupo_1148633" data-name="Grupo 1148633">
                            <g id="Grupo_1148525" data-name="Grupo 1148525">
                              <g transform="matrix(1, 0, 0, 1, -9, -6)" filter="url(#Trazado_982547)">
                                <g id="Trazado_982547-2" data-name="Trazado 982547" transform="translate(9 6)" fill="#eaf9f8">
                                  <path d="M 37.966796875 74.43359375 C 33.04315185546875 74.43359375 28.26757431030273 73.46962738037109 23.77274131774902 71.56847381591797 C 19.43047523498535 69.73184967041016 15.53040790557861 67.10224914550781 12.18087482452393 63.75271987915039 C 8.831341743469238 60.4031867980957 6.201741218566895 56.50312042236328 4.365118980407715 52.16086196899414 C 2.463963508605957 47.66601943969727 1.499996900558472 42.89044189453125 1.499996900558472 37.966796875 C 1.499996900558472 33.04315185546875 2.463963508605957 28.26757431030273 4.365118980407715 23.77274131774902 C 6.201741218566895 19.43047523498535 8.831341743469238 15.53040790557861 12.18087482452393 12.18087482452393 C 15.53040790557861 8.831341743469238 19.43047523498535 6.201741218566895 23.77274131774902 4.365118980407715 C 28.26757431030273 2.463963508605957 33.04315185546875 1.499996900558472 37.966796875 1.499996900558472 C 42.89044189453125 1.499996900558472 47.66601943969727 2.463963508605957 52.16086196899414 4.365118980407715 C 56.50312042236328 6.201741218566895 60.4031867980957 8.831341743469238 63.75271987915039 12.18087482452393 C 67.10224914550781 15.53040790557861 69.73184967041016 19.43047523498535 71.56847381591797 23.77274131774902 C 73.46962738037109 28.26757431030273 74.43359375 33.04315185546875 74.43359375 37.966796875 C 74.43359375 42.89044189453125 73.46962738037109 47.66601943969727 71.56847381591797 52.16086196899414 C 69.73184967041016 56.50313186645508 67.10224914550781 60.4031867980957 63.75271987915039 63.75271987915039 C 60.4031867980957 67.10224914550781 56.50313186645508 69.73184967041016 52.16086196899414 71.56847381591797 C 47.66601943969727 73.46962738037109 42.89044189453125 74.43359375 37.966796875 74.43359375 Z" stroke="none"/>
                                  <path d="M 37.966796875 3 C 33.2449836730957 3 28.66600799560547 3.924095153808594 24.35705947875977 5.746635437011719 C 20.19359588623047 7.507637023925781 16.45379638671875 10.02928161621094 13.24153518676758 13.24153518676758 C 10.02927398681641 16.45379638671875 7.507621765136719 20.19359588623047 5.746635437011719 24.35705947875977 C 3.924095153808594 28.66600799560547 3 33.2449836730957 3 37.966796875 C 3 42.6886100769043 3.924095153808594 47.26758575439453 5.746635437011719 51.57653427124023 C 7.507621765136719 55.73999786376953 10.02927398681641 59.47979736328125 13.24153518676758 62.69205856323242 C 16.45379638671875 65.90431976318359 20.19359588623047 68.42597198486328 24.35705947875977 70.18695831298828 C 28.66600799560547 72.00949859619141 33.2449836730957 72.93359375 37.966796875 72.93359375 C 42.6886100769043 72.93359375 47.26758575439453 72.00949859619141 51.57653427124023 70.18695831298828 C 55.73999786376953 68.42597198486328 59.47979736328125 65.90431976318359 62.69205856323242 62.69205856323242 C 65.90431976318359 59.47979736328125 68.42597198486328 55.73999786376953 70.18695831298828 51.57653427124023 C 72.00949859619141 47.26758575439453 72.93359375 42.6886100769043 72.93359375 37.966796875 C 72.93359375 33.2449836730957 72.00949859619141 28.66600799560547 70.18695831298828 24.35705947875977 C 68.42597198486328 20.19359588623047 65.90431976318359 16.45379638671875 62.69205856323242 13.24153518676758 C 59.47979736328125 10.02928161621094 55.73999786376953 7.507637023925781 51.57653427124023 5.746635437011719 C 47.26758575439453 3.924095153808594 42.6886100769043 3 37.966796875 3 M 37.966796875 0 C 58.93528366088867 0 75.93359375 16.99832153320312 75.93359375 37.966796875 C 75.93359375 58.93528366088867 58.93528366088867 75.93359375 37.966796875 75.93359375 C 16.99831008911133 75.93359375 0 58.93528366088867 0 37.966796875 C 0 16.99832153320312 16.99831008911133 0 37.966796875 0 Z" stroke="none" fill="#1f7069"/>
                                </g>
                              </g>
                            </g>
                          </g>
                        </g>
                      </g>
                    </g>
                  </g>
                </g>
              </g>
            </g>
          </g>
        </g>
      </g>
    </g>
    <g id="argumentos" transform="translate(630.886 8784.358)">
      <g id="Grupo_1209797" data-name="Grupo 1209797" transform="translate(0.735 0.865)">
        <g id="Grupo_1209786" data-name="Grupo 1209786" transform="translate(0 28.998)">
          <path id="Trazado_1080861" data-name="Trazado 1080861" d="M18.94,305.914a6.483,6.483,0,1,1-4.95-2.3,6.525,6.525,0,0,1,2.949.727l2-.445Z" transform="translate(-7.506 -303.617)" fill="#fff6e0"/>
        </g>
        <g id="Grupo_1209795" data-name="Grupo 1209795" transform="translate(6.066 0)">
          <g id="Grupo_1209792" data-name="Grupo 1209792" transform="translate(3.515 5.945)">
            <path id="Trazado_1080862" data-name="Trazado 1080862" d="M298.168,99.048h0a5.488,5.488,0,0,1-5.488-5.488V73.8a5.488,5.488,0,0,1,5.488-5.488h0a5.488,5.488,0,0,1,5.488,5.488V93.559A5.488,5.488,0,0,1,298.168,99.048Z" transform="translate(-274.318 -68.314)" fill="#828cb3"/>
            <ellipse id="Elipse_13149" data-name="Elipse 13149" cx="3.448" cy="3.445" rx="3.448" ry="3.445" transform="translate(15.918 1.964)" fill="#ffea00"/>
            <g id="Grupo_1209791" data-name="Grupo 1209791" transform="translate(0 3.273)">
              <g id="Grupo_1209789" data-name="Grupo 1209789">
                <g id="Grupo_1209788" data-name="Grupo 1209788">
                  <path id="Trazado_1080863" data-name="Trazado 1080863" d="M105.293,342.239v-7.193a10.37,10.37,0,0,1,10.37-10.37h6.467a10.37,10.37,0,0,1,10.37,10.37v7.193Z" transform="translate(-105.293 -302.833)" fill="#ffea00"/>
                  <path id="Trazado_1080864" data-name="Trazado 1080864" d="M213.553,337.657h0a3.322,3.322,0,0,1-3.322-3.322v-4.5h6.646v4.5A3.322,3.322,0,0,1,213.553,337.657Z" transform="translate(-199.948 -307.487)" fill="#ffcab9"/>
                  <path id="Trazado_1080865" data-name="Trazado 1080865" d="M161.547,127.254h-.026a8.96,8.96,0,0,1-8.96-8.96v-7.611a8.96,8.96,0,0,1,8.96-8.96h.026l8.96,12.094v4.477A8.96,8.96,0,0,1,161.547,127.254Z" transform="translate(-147.931 -101.724)" fill="#ffcab9"/>
                  <g id="Grupo_1209787" data-name="Grupo 1209787" transform="translate(11.644 6.804)">
                    <path id="Trazado_1080866" data-name="Trazado 1080866" d="M231.159,171.175v9.767a8.963,8.963,0,0,1-7.013,8.747,8.987,8.987,0,0,0,1.947.213h.026a8.96,8.96,0,0,0,8.96-8.96v-4.477Z" transform="translate(-224.146 -171.175)" fill="#fabba7"/>
                  </g>
                </g>
              </g>
              <path id="Trazado_1080867" data-name="Trazado 1080867" d="M152.562,114.49V110.7a8.972,8.972,0,1,1,17.945,0v3.118c-5.254,0-6.946-5.256-6.946-5.256s-1.419,5.927-11,5.927" transform="translate(-147.931 -101.725)" fill="#828cb3"/>
              <g id="Grupo_1209790" data-name="Grupo 1209790" transform="translate(11.644)">
                <path id="Trazado_1080868" data-name="Trazado 1080868" d="M226.105,101.724a9,9,0,0,0-1.959.215,8.978,8.978,0,0,1,7.013,8.76v1.913a6.7,6.7,0,0,0,3.919,1.205V110.7A8.974,8.974,0,0,0,226.105,101.724Z" transform="translate(-224.146 -101.724)" fill="#717eb3"/>
              </g>
            </g>
          </g>
          <g id="Grupo_1209793" data-name="Grupo 1209793">
            <path id="Trazado_1080869" data-name="Trazado 1080869" d="M83.759,21a8.132,8.132,0,1,0-6.208,2.881,8.184,8.184,0,0,0,3.7-.912l2.51.558V21Z" transform="translate(-69.418 -7.63)" fill="#fff6e0"/>
            <path id="Trazado_1080870" data-name="Trazado 1080870" d="M134.142,7.63a8.149,8.149,0,0,0-1.959.239,8.13,8.13,0,0,1,6.173,7.888,8.377,8.377,0,0,1-6.2,7.882,8.03,8.03,0,0,0,5.685-.666l2.51.558V21A8.123,8.123,0,0,0,134.142,7.63Z" transform="translate(-126.01 -7.63)" fill="#fff0cc"/>
          </g>
          <g id="Grupo_1209794" data-name="Grupo 1209794" transform="translate(24.401 32.437)">
            <path id="Trazado_1080871" data-name="Trazado 1080871" d="M320.405,341.6a8.132,8.132,0,1,0,6.208-2.881,8.185,8.185,0,0,0-3.7.911l-2.51-.558V341.6Z" transform="translate(-318.481 -338.718)" fill="#fff6e0"/>
            <path id="Trazado_1080872" data-name="Trazado 1080872" d="M383.453,338.718a7.824,7.824,0,0,0-1.933.245,8.127,8.127,0,0,1-.027,15.77,8.128,8.128,0,1,0,1.959-16.015Z" transform="translate(-375.321 -338.718)" fill="#fff0cc"/>
          </g>
        </g>
        <g id="Grupo_1209796" data-name="Grupo 1209796" transform="translate(35.723 9.648)">
          <path id="Trazado_1080873" data-name="Trazado 1080873" d="M373.676,116.771a6.483,6.483,0,1,1,4.95,2.3,6.525,6.525,0,0,1-2.949-.727l-2,.445Z" transform="translate(-372.142 -106.109)" fill="#fff6e0"/>
          <path id="Trazado_1080874" data-name="Trazado 1080874" d="M420.283,106.109a6.484,6.484,0,0,0-1.959.3,6.479,6.479,0,0,1,.023,12.348,6.3,6.3,0,0,0,1.937.309,6.479,6.479,0,1,0,0-12.959Z" transform="translate(-413.8 -106.109)" fill="#fff0cc"/>
        </g>
      </g>
      <g id="Grupo_1209798" data-name="Grupo 1209798" transform="translate(0 0.13)">
        <path id="Trazado_1080875" data-name="Trazado 1080875" d="M91.658,361.267a.735.735,0,0,0,0,1.47A.735.735,0,0,0,91.658,361.267Z" transform="translate(-82.038 -325.886)"/>
        <path id="Trazado_1080876" data-name="Trazado 1080876" d="M67.153,361.267a.735.735,0,0,0,0,1.47A.735.735,0,0,0,67.153,361.267Z" transform="translate(-59.934 -325.886)"/>
        <path id="Trazado_1080877" data-name="Trazado 1080877" d="M42.647,361.267a.735.735,0,0,0,0,1.47A.735.735,0,0,0,42.647,361.267Z" transform="translate(-37.828 -325.886)"/>
        <path id="Trazado_1080878" data-name="Trazado 1080878" d="M176.633,84.323a.735.735,0,0,0,0,1.47A.735.735,0,0,0,176.633,84.323Z" transform="translate(-158.688 -76.075)"/>
        <path id="Trazado_1080879" data-name="Trazado 1080879" d="M145.895,84.323a.735.735,0,0,0,0,1.47A.735.735,0,0,0,145.895,84.323Z" transform="translate(-130.961 -76.075)"/>
        <path id="Trazado_1080880" data-name="Trazado 1080880" d="M115.157,84.323a.735.735,0,0,0,0,1.47A.735.735,0,0,0,115.157,84.323Z" transform="translate(-103.235 -76.075)"/>
        <path id="Trazado_1080881" data-name="Trazado 1080881" d="M40.388,32.63V23.722a7.209,7.209,0,1,0-.306-13.352A6.248,6.248,0,0,0,29.623,8.041a4.206,4.206,0,0,0-3.247,1.62,9.812,9.812,0,0,0-2.582-.31A8.963,8.963,0,0,0,14.933.13a8.817,8.817,0,0,0-3.452.7.735.735,0,0,0,.572,1.354,7.4,7.4,0,0,1,8.528,11.583c-.387.457-.174,1.552-.174,2.087-.539-.12-1.57-.57-2.107-.3A7.388,7.388,0,0,1,9.278,4.228.735.735,0,0,0,8.155,3.28a8.885,8.885,0,0,0,6.132,14.55,9.8,9.8,0,0,0-.076,1.212v7.611a9.64,9.64,0,0,0,1.771,5.579,11.02,11.02,0,0,0-2.117,1.3A7.263,7.263,0,0,0,12.9,31.9V30.144a.735.735,0,0,0-.894-.717l-1.751.389A7.21,7.21,0,1,0,9.581,43.16v6.329a.735.735,0,0,0,1.47,0V42.3a9.638,9.638,0,0,1,5.91-8.886,9.739,9.739,0,0,0,2.9,2.054v1.468a4.058,4.058,0,0,0,8.115,0V35.463a9.74,9.74,0,0,0,2.9-2.055,9.62,9.62,0,0,1,1.512.8V35.92a8.859,8.859,0,0,0-1.924,5.509.735.735,0,0,0,1.47,0,7.388,7.388,0,0,1,1.75-4.771c.387-.457.174-1.552.174-2.087.539.12,1.57.57,2.107.3A7.393,7.393,0,1,1,32.8,44.894a.735.735,0,0,0-1.3.69A8.866,8.866,0,1,0,40.388,32.63ZM9.606,41.569a5.741,5.741,0,1,1,.23-10.325,2.593,2.593,0,0,0,1.6-.184,2.5,2.5,0,0,0,.174,1.574,5.775,5.775,0,0,1,1.086,1.952,11.144,11.144,0,0,0-3.088,6.983ZM29.682,9.509a2.718,2.718,0,0,1,2.3,4.142,9.757,9.757,0,0,0-4.1-3.459,2.726,2.726,0,0,1,1.8-.683Zm-14,9.534a8.316,8.316,0,0,1,.092-1.231,8.913,8.913,0,0,0,2.951-.831l2.258.5a.735.735,0,0,0,.894-.717V14.5a8.861,8.861,0,0,0,1.731-3.676,8.319,8.319,0,0,1,8.548,8.218V21.4A6.877,6.877,0,0,1,26.644,16.7a.74.74,0,0,0-1.413.05c-.981,3.926-6.117,5.235-9.55,5.355V19.043ZM26.507,36.931a2.588,2.588,0,0,1-5.176,0V36a9.79,9.79,0,0,0,5.176,0Zm-2.575-2.052h-.026a8.234,8.234,0,0,1-8.225-8.225V23.57c3.877-.13,8.145-1.382,10.273-4.9a8.1,8.1,0,0,0,6.2,4.207v3.776a8.234,8.234,0,0,1-8.225,8.225Zm14.959-2.3a8.849,8.849,0,0,0-3.347.861,10.886,10.886,0,0,0-2.438-.519,11.1,11.1,0,0,0-1.251-.687,9.641,9.641,0,0,0,1.772-5.58V19.043a9.638,9.638,0,0,0-.863-4,4.2,4.2,0,0,0-1.345-6.628,4.777,4.777,0,0,1,7.351,2.694,7.237,7.237,0,0,0-1.511,10.325V23.19a.735.735,0,0,0,.894.717l.767-.17Zm-.163-10.305a2.5,2.5,0,0,0-.174-1.574,5.764,5.764,0,1,1,1.773,1.39A2.608,2.608,0,0,0,38.727,22.274Z" transform="translate(0 -0.13)"/>
        <path id="Trazado_1080882" data-name="Trazado 1080882" d="M364.221,412.937a.735.735,0,0,0,0,1.47A.735.735,0,0,0,364.221,412.937Z" transform="translate(-327.898 -372.494)"/>
        <path id="Trazado_1080883" data-name="Trazado 1080883" d="M394.959,412.937a.735.735,0,0,0,0,1.47A.735.735,0,0,0,394.959,412.937Z" transform="translate(-355.625 -372.494)"/>
        <path id="Trazado_1080884" data-name="Trazado 1080884" d="M425.7,412.937a.735.735,0,0,0,0,1.47A.735.735,0,0,0,425.7,412.937Z" transform="translate(-383.35 -372.494)"/>
        <path id="Trazado_1080885" data-name="Trazado 1080885" d="M407.283,165.733a.735.735,0,0,0,0,1.47A.735.735,0,0,0,407.283,165.733Z" transform="translate(-366.741 -149.509)"/>
        <path id="Trazado_1080886" data-name="Trazado 1080886" d="M431.789,165.733a.735.735,0,0,0,0,1.47A.735.735,0,0,0,431.789,165.733Z" transform="translate(-388.846 -149.509)"/>
        <path id="Trazado_1080887" data-name="Trazado 1080887" d="M456.295,167.2a.735.735,0,0,0,0-1.47A.735.735,0,0,0,456.295,167.2Z" transform="translate(-410.951 -149.509)"/>
      </g>
    </g>
  </g>
</svg>
