<svg xmlns="http://www.w3.org/2000/svg" xmlns:xlink="http://www.w3.org/1999/xlink" width="93.934" height="93.934" viewBox="0 0 93.934 93.934">
  <defs>
    <filter id="Trazado_982547" x="0" y="-0.001" width="93.934" height="93.934" filterUnits="userSpaceOnUse">
      <feOffset dy="3" input="SourceAlpha"/>
      <feGaussianBlur stdDeviation="3" result="blur"/>
      <feFlood flood-opacity="0.161"/>
      <feComposite operator="in" in2="blur"/>
      <feComposite in="SourceGraphic"/>
    </filter>
  </defs>
  <g id="Grupo_1209800" data-name="Grupo 1209800" transform="translate(-609 -8921.591)">
    <g id="Grupo_1207744" data-name="Grupo 1207744" transform="translate(0 2584.5)">
      <g id="Grupo_1206679" data-name="Grupo 1206679" transform="translate(420.598 -3142.478)">
        <g id="Grupo_1183665" data-name="Grupo 1183665" transform="translate(-0.598 8175.569)">
          <g id="Grupo_1181743" data-name="Grupo 1181743" transform="translate(0 569)">
            <g id="Grupo_1175133" data-name="Grupo 1175133" transform="translate(-0.033 -1251)">
              <g id="Grupo_1167337" data-name="Grupo 1167337" transform="translate(198.033 1992)">
                <g id="Grupo_1166720" data-name="Grupo 1166720">
                  <g id="Grupo_1164305" data-name="Grupo 1164305">
                    <g id="Grupo_1163948" data-name="Grupo 1163948">
                      <g id="Grupo_1158168" data-name="Grupo 1158168">
                        <g id="Grupo_1152576" data-name="Grupo 1152576">
                          <g id="Grupo_1148633" data-name="Grupo 1148633">
                            <g id="Grupo_1148525" data-name="Grupo 1148525">
                              <g transform="matrix(1, 0, 0, 1, -9, -6)" filter="url(#Trazado_982547)">
                                <g id="Trazado_982547-2" data-name="Trazado 982547" transform="translate(9 6)" fill="#eaf9f8">
                                  <path d="M 37.966796875 74.43359375 C 33.04315185546875 74.43359375 28.26757431030273 73.46962738037109 23.77274131774902 71.56847381591797 C 19.43047523498535 69.73184967041016 15.53040790557861 67.10224914550781 12.18087482452393 63.75271987915039 C 8.831341743469238 60.4031867980957 6.201741218566895 56.50312042236328 4.365118980407715 52.16086196899414 C 2.463963508605957 47.66601943969727 1.499996900558472 42.89044189453125 1.499996900558472 37.966796875 C 1.499996900558472 33.04315185546875 2.463963508605957 28.26757431030273 4.365118980407715 23.77274131774902 C 6.201741218566895 19.43047523498535 8.831341743469238 15.53040790557861 12.18087482452393 12.18087482452393 C 15.53040790557861 8.831341743469238 19.43047523498535 6.201741218566895 23.77274131774902 4.365118980407715 C 28.26757431030273 2.463963508605957 33.04315185546875 1.499996900558472 37.966796875 1.499996900558472 C 42.89044189453125 1.499996900558472 47.66601943969727 2.463963508605957 52.16086196899414 4.365118980407715 C 56.50312042236328 6.201741218566895 60.4031867980957 8.831341743469238 63.75271987915039 12.18087482452393 C 67.10224914550781 15.53040790557861 69.73184967041016 19.43047523498535 71.56847381591797 23.77274131774902 C 73.46962738037109 28.26757431030273 74.43359375 33.04315185546875 74.43359375 37.966796875 C 74.43359375 42.89044189453125 73.46962738037109 47.66601943969727 71.56847381591797 52.16086196899414 C 69.73184967041016 56.50313186645508 67.10224914550781 60.4031867980957 63.75271987915039 63.75271987915039 C 60.4031867980957 67.10224914550781 56.50313186645508 69.73184967041016 52.16086196899414 71.56847381591797 C 47.66601943969727 73.46962738037109 42.89044189453125 74.43359375 37.966796875 74.43359375 Z" stroke="none"/>
                                  <path d="M 37.966796875 3 C 33.2449836730957 3 28.66600799560547 3.924095153808594 24.35705947875977 5.746635437011719 C 20.19359588623047 7.507637023925781 16.45379638671875 10.02928161621094 13.24153518676758 13.24153518676758 C 10.02927398681641 16.45379638671875 7.507621765136719 20.19359588623047 5.746635437011719 24.35705947875977 C 3.924095153808594 28.66600799560547 3 33.2449836730957 3 37.966796875 C 3 42.6886100769043 3.924095153808594 47.26758575439453 5.746635437011719 51.57653427124023 C 7.507621765136719 55.73999786376953 10.02927398681641 59.47979736328125 13.24153518676758 62.69205856323242 C 16.45379638671875 65.90431976318359 20.19359588623047 68.42597198486328 24.35705947875977 70.18695831298828 C 28.66600799560547 72.00949859619141 33.2449836730957 72.93359375 37.966796875 72.93359375 C 42.6886100769043 72.93359375 47.26758575439453 72.00949859619141 51.57653427124023 70.18695831298828 C 55.73999786376953 68.42597198486328 59.47979736328125 65.90431976318359 62.69205856323242 62.69205856323242 C 65.90431976318359 59.47979736328125 68.42597198486328 55.73999786376953 70.18695831298828 51.57653427124023 C 72.00949859619141 47.26758575439453 72.93359375 42.6886100769043 72.93359375 37.966796875 C 72.93359375 33.2449836730957 72.00949859619141 28.66600799560547 70.18695831298828 24.35705947875977 C 68.42597198486328 20.19359588623047 65.90431976318359 16.45379638671875 62.69205856323242 13.24153518676758 C 59.47979736328125 10.02928161621094 55.73999786376953 7.507637023925781 51.57653427124023 5.746635437011719 C 47.26758575439453 3.924095153808594 42.6886100769043 3 37.966796875 3 M 37.966796875 0 C 58.93528366088867 0 75.93359375 16.99832153320312 75.93359375 37.966796875 C 75.93359375 58.93528366088867 58.93528366088867 75.93359375 37.966796875 75.93359375 C 16.99831008911133 75.93359375 0 58.93528366088867 0 37.966796875 C 0 16.99832153320312 16.99831008911133 0 37.966796875 0 Z" stroke="none" fill="#1f7069"/>
                                </g>
                              </g>
                            </g>
                          </g>
                        </g>
                      </g>
                    </g>
                  </g>
                </g>
              </g>
            </g>
          </g>
        </g>
      </g>
    </g>
    <g id="lluvia-de-ideas_1_" data-name="lluvia-de-ideas (1)" transform="translate(632.657 8938.603)">
      <path id="Trazado_1080888" data-name="Trazado 1080888" d="M215.121,136.757v2.118a.761.761,0,0,0,.761.761h1.713a.761.761,0,0,0,.761-.761v-2.118a.761.761,0,0,0-.761-.761h-1.713A.761.761,0,0,0,215.121,136.757Zm0,0" transform="translate(-192.471 -121.677)" fill="#86919e"/>
      <path id="Trazado_1080889" data-name="Trazado 1080889" d="M23.063,97.007,14.757,83.233a1.982,1.982,0,0,0-2.724-.672L8.424,84.743a1.988,1.988,0,0,0-.673,2.728l8.535,14.154Zm0,0" transform="translate(-6.679 -73.611)" fill="#84eaf5"/>
      <path id="Trazado_1080890" data-name="Trazado 1080890" d="M184.132,13.654a6.182,6.182,0,1,0-8.655,5.666v1.469a1.355,1.355,0,0,0,1.355,1.355h2.236a1.355,1.355,0,0,0,1.355-1.355V19.32a6.183,6.183,0,0,0,3.709-5.666Zm0,0" transform="translate(-153.682 -6.685)" fill="#feda5f"/>
      <path id="Trazado_1080891" data-name="Trazado 1080891" d="M338.644,96.621l3.855-6.391-.053-7.956-7.063,3.67-3.8,6.309Zm0,0" transform="translate(-296.667 -73.611)" fill="#fce49d"/>
      <path id="Trazado_1080892" data-name="Trazado 1080892" d="M308.98,120.256h0l-2.964-3.128-7.261,12.061,2.676,3.621,4.25,1,7.451-12.392Zm0,0" transform="translate(-267.299 -104.796)" fill="#f4c84e"/>
      <path id="Trazado_1080893" data-name="Trazado 1080893" d="M339.567,160.379l7.451-12.392-4.151-1.159-6.238,10.3Zm0,0" transform="translate(-301.186 -131.369)" fill="#feda5f"/>
      <path id="Trazado_1080894" data-name="Trazado 1080894" d="M413.362,82.273l-2.522,1.311,2.542,1.564Zm0,0" transform="translate(-367.583 -73.611)" fill="#86919e"/>
      <path id="Trazado_1080895" data-name="Trazado 1080895" d="M64.291,216.424H74.547a6.06,6.06,0,0,0,.42-12.105,6.06,6.06,0,0,0-8.855-6.626,6.062,6.062,0,0,0-11.2,0,6.059,6.059,0,0,0-8.852,6.642,6.061,6.061,0,0,0,.628,12.089Zm0,0" transform="translate(-36.351 -173.532)" fill="#f0a8d0"/>
      <path id="Trazado_1080896" data-name="Trazado 1080896" d="M296.9,229.614a6.06,6.06,0,0,0-8.221-6.931,6.059,6.059,0,0,1,3.6,6.931,6.06,6.06,0,0,1-.42,12.105h4.618a6.06,6.06,0,0,0,.42-12.105Zm0,0" transform="translate(-258.282 -198.828)" fill="#ea89bf"/>
      <path id="Trazado_1080897" data-name="Trazado 1080897" d="M177.258,293.324l5.733.072-3.166,8.183,5.237.137L173.9,315.571l3.883-10.241-4.838-.06Zm0,0" transform="translate(-154.736 -262.44)" fill="#feda5f"/>
      <path id="Trazado_1080898" data-name="Trazado 1080898" d="M296.7,109.989l1.679,1.05a.788.788,0,0,0,.835-1.335l-1.679-1.049A.787.787,0,0,0,296.7,109.989Zm0,0" transform="translate(-265.137 -97.102)"/>
      <path id="Trazado_1080899" data-name="Trazado 1080899" d="M299.164,3.517a.785.785,0,0,0,.417-.12l1.679-1.05a.788.788,0,0,0-.834-1.335l-1.679,1.05a.793.793,0,0,0,.417,1.455Zm0,0" transform="translate(-266.973 -0.794)"/>
      <path id="Trazado_1080900" data-name="Trazado 1080900" d="M310.219,60.537a.787.787,0,0,0,.787.787h2.1a.787.787,0,0,0,0-1.574h-2.1a.787.787,0,0,0-.787.787Zm0,0" transform="translate(-277.557 -53.459)"/>
      <path id="Trazado_1080901" data-name="Trazado 1080901" d="M135.929,108.656l-1.679,1.049a.787.787,0,0,0,.834,1.335l1.679-1.05A.787.787,0,0,0,135.929,108.656Zm0,0" transform="translate(-119.792 -97.104)"/>
      <path id="Trazado_1080902" data-name="Trazado 1080902" d="M132.247,2.347,133.926,3.4a.787.787,0,0,0,.835-1.335l-1.679-1.05a.788.788,0,0,0-.834,1.335Zm0,0" transform="translate(-117.999 -0.793)"/>
      <path id="Trazado_1080903" data-name="Trazado 1080903" d="M116.868,61.324h2.1a.787.787,0,0,0,0-1.574h-2.1A.787.787,0,0,0,116.868,61.324Zm0,0" transform="translate(-103.882 -53.459)"/>
      <path id="Trazado_1080904" data-name="Trazado 1080904" d="M168,13.129V14.1a2.138,2.138,0,0,0,.855,1.708v2.145a.787.787,0,0,0,.787.787h3.235a.787.787,0,0,0,.787-.787V15.813a2.137,2.137,0,0,0,.855-1.708v-.976a6.976,6.976,0,0,0,3.668-6.924.787.787,0,0,0-1.565.172,5.4,5.4,0,0,1-3.206,5.538.788.788,0,0,0-.472.721V14.1a.569.569,0,0,1-.568.568h-2.236a.569.569,0,0,1-.568-.568V12.636a.786.786,0,0,0-.472-.721A5.4,5.4,0,1,1,174.279,2.5a.787.787,0,0,0,.883-1.3A6.97,6.97,0,1,0,168,13.129Zm2.43,4.042v-.925h1.66v.925Zm0,0" transform="translate(-146.99 0)"/>
      <path id="Trazado_1080905" data-name="Trazado 1080905" d="M42.648,90.338l0,0,3.855-6.392a.8.8,0,0,0,.113-.412l-.053-7.956a.794.794,0,0,0-1.15-.693l-7.063,3.67c-.457.237-.69.92-.934,1.325l-5.883,9.755a6.854,6.854,0,0,0-1.411.4,6.85,6.85,0,0,0-11.928,0A6.877,6.877,0,0,0,16.9,89.65L8.752,76.132a2.769,2.769,0,0,0-3.805-.939L1.338,77.375A2.779,2.779,0,0,0,.4,81.183L8.869,95.232a6.855,6.855,0,0,0-.062,1.839A6.849,6.849,0,0,0,10.338,110.6h2.385a.787.787,0,0,0,0-1.574H10.338A5.274,5.274,0,0,1,9.791,98.5a.794.794,0,0,0,.687-.957A5.271,5.271,0,0,1,15.619,91.1a5.408,5.408,0,0,1,4.326,2.244.787.787,0,0,0,1.247-.96,8.38,8.38,0,0,0-1.616-1.595,5.274,5.274,0,0,1,9.457.588.8.8,0,0,0,1.11.386,5.274,5.274,0,0,1,7.833,4.611,5.19,5.19,0,0,1-.037.612A5.647,5.647,0,0,0,34.8,98.3a.787.787,0,0,0,1.113,1.113,4.448,4.448,0,0,1,2.72-.893c2.69,0,4.832,2.673,4.832,5.228a5.28,5.28,0,0,1-5.274,5.274H29.057l1.881-2.335a.8.8,0,0,0-.593-1.28l-4.121-.108,2.763-7.142a.794.794,0,0,0-.724-1.071l-5.733-.072a.782.782,0,0,0-.75.52l-4.306,11.927a.8.8,0,0,0,.7,1.135h3.726l-3.478,9.173a.792.792,0,0,0,1.349.773l8.022-9.959a.791.791,0,0,0,.14.013H38.2A6.847,6.847,0,0,0,39.519,97.03c.041-.423-.154-1.248.051-1.588ZM9.521,93.266,1.746,80.37a1.2,1.2,0,0,1,.407-1.648L5.761,76.54a1.194,1.194,0,0,1,1.642.406L8.221,78.3l-1.478.894a.787.787,0,0,0,.815,1.347l1.476-.893,1.6,2.646-2.365,1.43a.787.787,0,0,0,.815,1.347l2.363-1.429,1.6,2.646-1.478.894a.787.787,0,1,0,.815,1.347l1.476-.893,1.158,1.92a6.858,6.858,0,0,0-5.487,3.709Zm14.262,16.82a.787.787,0,0,0-.726-1.066l-3.732-.047,3.747-10.378,4.039.051-2.757,7.126a.787.787,0,0,0,.714,1.071l3.647.1L21.654,115.7Zm9.629-20.522,2.168-3.594,0-.007,3.27-5.423,1.84,1.941-4.774,7.852a6.8,6.8,0,0,0-2.509-.77ZM42.1,81.676l-2.094-2.21,3.194-1.66L45.015,78.9l.024,3.6ZM45,77.054l-.165-.1L45,76.871Zm-7.785,14.18,4.827-7.939,2.58.72-5.714,9.474a6.885,6.885,0,0,0-1.692-2.255Zm0,0" transform="translate(0 -66.917)"/>
    </g>
  </g>
</svg>
