<svg xmlns="http://www.w3.org/2000/svg" xmlns:xlink="http://www.w3.org/1999/xlink" width="108" height="108" viewBox="0 0 108 108">
  <defs>
    <filter id="Trazado_904820" x="0" y="0" width="108" height="108" filterUnits="userSpaceOnUse">
      <feOffset dy="3" input="SourceAlpha"/>
      <feGaussianBlur stdDeviation="3" result="blur"/>
      <feFlood flood-opacity="0.161"/>
      <feComposite operator="in" in2="blur"/>
      <feComposite in="SourceGraphic"/>
    </filter>
  </defs>
  <g id="Grupo_1209813" data-name="Grupo 1209813" transform="translate(-617 -10209.302)">
    <g id="Grupo_1207774" data-name="Grupo 1207774" transform="translate(0 9419)">
      <g id="Grupo_1206630" data-name="Grupo 1206630" transform="translate(-3 -8745.102)">
        <g id="Grupo_1185091" data-name="Grupo 1185091" transform="translate(419.773 8756.733)">
          <g id="Grupo_1179560" data-name="Grupo 1179560" transform="translate(-0.227 23)">
            <g id="Grupo_1173787" data-name="Grupo 1173787" transform="translate(209.455 761.67)">
              <g id="Grupo_1171910" data-name="Grupo 1171910" transform="translate(0)">
                <g id="Grupo_1167341" data-name="Grupo 1167341">
                  <g id="Grupo_1166792" data-name="Grupo 1166792">
                    <g transform="matrix(1, 0, 0, 1, -9, -6)" filter="url(#Trazado_904820)">
                      <g id="Trazado_904820-2" data-name="Trazado 904820" transform="translate(9 6)" fill="#f5fcec">
                        <path d="M 44.99999618530273 88.50003051757812 C 39.12687301635742 88.50003051757812 33.43022155761719 87.35010528564453 28.06829643249512 85.08219909667969 C 22.88852119445801 82.89134216308594 18.23629570007324 79.75461578369141 14.24084663391113 75.75916290283203 C 10.24540901184082 71.76371765136719 7.108683586120605 67.11150360107422 4.917821407318115 61.93172836303711 C 2.649921178817749 56.56978988647461 1.499996185302734 50.87313842773438 1.499996185302734 45.00001525878906 C 1.499996185302734 39.12689208984375 2.649921178817749 33.43024063110352 4.917821407318115 28.06831550598145 C 7.108683586120605 22.88854026794434 10.24540901184082 18.23631477355957 14.24084663391113 14.24086570739746 C 18.23629570007324 10.24541568756104 22.88852119445801 7.10869026184082 28.06829643249512 4.917840480804443 C 33.43022155761719 2.649927854537964 39.12687301635742 1.50000274181366 44.99999618530273 1.50000274181366 C 50.87311935424805 1.50000274181366 56.56977081298828 2.649927854537964 61.93169784545898 4.917840480804443 C 67.11147308349609 7.10869026184082 71.76369476318359 10.24541568756104 75.75914764404297 14.24086570739746 C 79.75458526611328 18.23631477355957 82.89131164550781 22.88854026794434 85.08216857910156 28.06831550598145 C 87.35007476806641 33.43024063110352 88.5 39.12689208984375 88.5 45.00001525878906 C 88.5 50.87313842773438 87.35007476806641 56.56978988647461 85.08216857910156 61.93172836303711 C 82.89131164550781 67.11150360107422 79.75458526611328 71.76371765136719 75.75914764404297 75.75916290283203 C 71.76369476318359 79.75461578369141 67.11147308349609 82.89134216308594 61.93169784545898 85.08219909667969 C 56.56977081298828 87.35010528564453 50.87311935424805 88.50003051757812 44.99999618530273 88.50003051757812 Z" stroke="none"/>
                        <path d="M 44.99999618530273 3 C 39.32870864868164 3 33.82865142822266 4.110061645507812 28.65262603759766 6.299346923828125 C 23.65165710449219 8.414573669433594 19.15968322753906 11.44334411621094 15.301513671875 15.301513671875 C 11.44333648681641 19.15968322753906 8.414566040039062 23.65165710449219 6.299339294433594 28.65262985229492 C 4.110054016113281 33.82867050170898 2.999992370605469 39.32872772216797 2.999992370605469 45.00001525878906 C 2.999992370605469 50.67130279541016 4.110054016113281 56.17136001586914 6.299339294433594 61.34738922119141 C 8.414566040039062 66.34837341308594 11.44333648681641 70.84033203125 15.301513671875 74.69850158691406 C 19.15968322753906 78.55668640136719 23.65165710449219 81.58545684814453 28.65262603759766 83.70068359375 C 33.82865142822266 85.88996887207031 39.32870864868164 87.00003051757812 44.99999618530273 87.00003051757812 C 50.67128372192383 87.00003051757812 56.17134094238281 85.88996887207031 61.34736633300781 83.70068359375 C 66.34834289550781 81.58545684814453 70.84030914306641 78.55668640136719 74.69847869873047 74.69850158691406 C 78.55665588378906 70.84033203125 81.58542633056641 66.34837341308594 83.70065307617188 61.34738922119141 C 85.88993835449219 56.17136001586914 87 50.67130279541016 87 45.00001525878906 C 87 39.32872772216797 85.88993835449219 33.82867050170898 83.70065307617188 28.65262985229492 C 81.58542633056641 23.65165710449219 78.55665588378906 19.15968322753906 74.69847869873047 15.301513671875 C 70.84030914306641 11.44334411621094 66.34834289550781 8.414573669433594 61.34736633300781 6.299346923828125 C 56.17134094238281 4.110061645507812 50.67128372192383 3 44.99999618530273 3 M 44.99999618530273 0 C 69.85281372070312 0 90 20.14718627929688 90 45.00001525878906 C 90 69.85282897949219 69.85281372070312 90.00003051757812 44.99999618530273 90.00003051757812 C 20.14717864990234 90.00003051757812 -7.62939453125e-06 69.85282897949219 -7.62939453125e-06 45.00001525878906 C -7.62939453125e-06 20.14718627929688 20.14717864990234 0 44.99999618530273 0 Z" stroke="none" fill="#5a812d"/>
                      </g>
                    </g>
                  </g>
                </g>
              </g>
            </g>
          </g>
        </g>
      </g>
    </g>
    <g id="parrafo_1_" data-name="parrafo (1)" transform="translate(635.196 10224.498)">
      <g id="Grupo_1209811" data-name="Grupo 1209811" transform="translate(1.049 1.049)">
        <g id="Grupo_1209801" data-name="Grupo 1209801">
          <path id="Trazado_1080906" data-name="Trazado 1080906" d="M37.04,39.977H10.159A2.659,2.659,0,0,1,7.5,37.318V10.159A2.659,2.659,0,0,1,10.159,7.5H37.04A2.659,2.659,0,0,1,39.7,10.159V37.318a2.659,2.659,0,0,1-2.659,2.659Z" transform="translate(-7.5 -7.5)" fill="#fff0ad"/>
        </g>
        <g id="Grupo_1209802" data-name="Grupo 1209802" transform="translate(37.31)">
          <path id="Trazado_1080907" data-name="Trazado 1080907" d="M303.81,39.977H276.929a2.659,2.659,0,0,1-2.659-2.659V10.159A2.659,2.659,0,0,1,276.929,7.5H303.81a2.659,2.659,0,0,1,2.659,2.659V37.318A2.659,2.659,0,0,1,303.81,39.977Z" transform="translate(-274.27 -7.5)" fill="#fff6ce"/>
        </g>
        <g id="Grupo_1209803" data-name="Grupo 1209803" transform="translate(0 37.032)">
          <path id="Trazado_1080908" data-name="Trazado 1080908" d="M37.04,304.763H10.159A2.659,2.659,0,0,1,7.5,302.1V274.945a2.659,2.659,0,0,1,2.659-2.659H37.04a2.659,2.659,0,0,1,2.659,2.659V302.1a2.659,2.659,0,0,1-2.659,2.659Z" transform="translate(-7.5 -272.286)" fill="#feb237"/>
        </g>
        <g id="Grupo_1209804" data-name="Grupo 1209804" transform="translate(37.31 37.032)">
          <path id="Trazado_1080909" data-name="Trazado 1080909" d="M303.81,304.763H276.929a2.659,2.659,0,0,1-2.659-2.659V274.945a2.659,2.659,0,0,1,2.659-2.659H303.81a2.659,2.659,0,0,1,2.659,2.659V302.1A2.659,2.659,0,0,1,303.81,304.763Z" transform="translate(-274.27 -272.286)" fill="#ffd15b"/>
        </g>
        <g id="Grupo_1209805" data-name="Grupo 1209805">
          <path id="Trazado_1080910" data-name="Trazado 1080910" d="M37.04,7.5h-1.4V33.262a2.659,2.659,0,0,1-2.659,2.659H7.5v1.4a2.659,2.659,0,0,0,2.659,2.659H37.04A2.659,2.659,0,0,0,39.7,37.318V10.159A2.659,2.659,0,0,0,37.04,7.5Z" transform="translate(-7.5 -7.5)" fill="#ffe177"/>
        </g>
        <g id="Grupo_1209806" data-name="Grupo 1209806" transform="translate(37.31)">
          <path id="Trazado_1080911" data-name="Trazado 1080911" d="M303.81,7.5h-1.4V33.262a2.659,2.659,0,0,1-2.659,2.659H274.27v1.4a2.659,2.659,0,0,0,2.659,2.659H303.81a2.659,2.659,0,0,0,2.659-2.659V10.159A2.659,2.659,0,0,0,303.81,7.5Z" transform="translate(-274.27 -7.5)" fill="#fff3be"/>
        </g>
        <g id="Grupo_1209807" data-name="Grupo 1209807" transform="translate(0 37.032)">
          <path id="Trazado_1080912" data-name="Trazado 1080912" d="M37.04,272.286h-1.4v25.762a2.659,2.659,0,0,1-2.659,2.659H7.5v1.4a2.659,2.659,0,0,0,2.659,2.659H37.04A2.659,2.659,0,0,0,39.7,302.1V274.945a2.659,2.659,0,0,0-2.659-2.659Z" transform="translate(-7.5 -272.286)" fill="#f6ab31"/>
        </g>
        <g id="Grupo_1209808" data-name="Grupo 1209808" transform="translate(37.31 37.032)">
          <path id="Trazado_1080913" data-name="Trazado 1080913" d="M303.81,272.286h-1.4v25.762a2.659,2.659,0,0,1-2.659,2.659H274.27v1.4a2.659,2.659,0,0,0,2.659,2.659H303.81a2.659,2.659,0,0,0,2.659-2.659V274.945A2.659,2.659,0,0,0,303.81,272.286Z" transform="translate(-274.27 -272.286)" fill="#ffc344"/>
        </g>
        <g id="Grupo_1209809" data-name="Grupo 1209809" transform="translate(14.176 42.336)">
          <path id="Trazado_1080914" data-name="Trazado 1080914" d="M119.288,315.677h-9.3a1.133,1.133,0,0,1-1.133-1.133v-3.2a1.133,1.133,0,0,1,1.133-1.133h9.3a1.133,1.133,0,0,1,1.133,1.133v3.2A1.133,1.133,0,0,1,119.288,315.677Z" transform="translate(-108.857 -310.21)" fill="#f3f0f3"/>
        </g>
        <g id="Grupo_1209810" data-name="Grupo 1209810" transform="translate(52.086 58.738)">
          <path id="Trazado_1080915" data-name="Trazado 1080915" d="M390.353,432.953h-9.3a1.133,1.133,0,0,1-1.133-1.133v-3.2a1.133,1.133,0,0,1,1.133-1.133h9.3a1.133,1.133,0,0,1,1.133,1.133v3.2A1.133,1.133,0,0,1,390.353,432.953Z" transform="translate(-379.922 -427.486)" fill="#f3f0f3"/>
        </g>
      </g>
      <g id="Grupo_1209812" data-name="Grupo 1209812" transform="translate(0 0)">
        <path id="Trazado_1080916" data-name="Trazado 1080916" d="M30.589,0H3.708A3.712,3.712,0,0,0,0,3.708V30.867a3.712,3.712,0,0,0,3.708,3.708H7.472a1.049,1.049,0,0,0,0-2.1H3.708a1.612,1.612,0,0,1-1.61-1.61V3.708A1.612,1.612,0,0,1,3.708,2.1H30.589a1.612,1.612,0,0,1,1.61,1.61V30.867a1.612,1.612,0,0,1-1.61,1.61H12.507a1.049,1.049,0,0,0,0,2.1H30.589A3.712,3.712,0,0,0,34.3,30.867V3.708A3.712,3.712,0,0,0,30.589,0Z" transform="translate(0 0)"/>
        <path id="Trazado_1080917" data-name="Trazado 1080917" d="M297.358,0H270.477a3.712,3.712,0,0,0-3.708,3.708V30.867a3.712,3.712,0,0,0,3.708,3.708h26.881a3.712,3.712,0,0,0,3.708-3.708V3.708A3.712,3.712,0,0,0,297.358,0Zm1.61,30.867a1.612,1.612,0,0,1-1.61,1.61H270.477a1.612,1.612,0,0,1-1.61-1.61V3.708a1.612,1.612,0,0,1,1.61-1.61h26.881a1.612,1.612,0,0,1,1.61,1.61Z" transform="translate(-229.459 0)"/>
        <path id="Trazado_1080918" data-name="Trazado 1080918" d="M30.589,264.786H3.708A3.712,3.712,0,0,0,0,268.494v27.159a3.712,3.712,0,0,0,3.708,3.708H30.589a3.712,3.712,0,0,0,3.708-3.708V268.494A3.712,3.712,0,0,0,30.589,264.786Zm1.61,30.867a1.612,1.612,0,0,1-1.61,1.61H3.708a1.612,1.612,0,0,1-1.61-1.61V268.494a1.612,1.612,0,0,1,1.61-1.61H30.589a1.612,1.612,0,0,1,1.61,1.61Z" transform="translate(0 -227.754)"/>
        <path id="Trazado_1080919" data-name="Trazado 1080919" d="M297.358,264.786H270.477a3.712,3.712,0,0,0-3.708,3.708v27.159a3.712,3.712,0,0,0,3.708,3.708h9.243a1.049,1.049,0,1,0,0-2.1h-9.243a1.612,1.612,0,0,1-1.61-1.61V268.494a1.612,1.612,0,0,1,1.61-1.61h26.881a1.612,1.612,0,0,1,1.61,1.61v27.159a1.612,1.612,0,0,1-1.61,1.61H284.616a1.049,1.049,0,0,0,0,2.1h12.743a3.712,3.712,0,0,0,3.708-3.708V268.494A3.712,3.712,0,0,0,297.358,264.786Z" transform="translate(-229.459 -227.753)"/>
        <path id="Trazado_1080920" data-name="Trazado 1080920" d="M102.4,382.991h8.767a1.049,1.049,0,1,0,0-2.1H102.4a1.049,1.049,0,0,0,0,2.1Z" transform="translate(-87.181 -327.622)"/>
        <path id="Trazado_1080921" data-name="Trazado 1080921" d="M113.969,419.984H102.4a1.049,1.049,0,0,0,0,2.1h11.564a1.049,1.049,0,0,0,0-2.1Z" transform="translate(-87.181 -361.246)"/>
        <path id="Trazado_1080922" data-name="Trazado 1080922" d="M111.172,459.076H102.4a1.049,1.049,0,0,0,0,2.1h8.767a1.049,1.049,0,0,0,0-2.1Z" transform="translate(-87.181 -394.87)"/>
        <path id="Trazado_1080923" data-name="Trazado 1080923" d="M112.836,302.709h-9.3a2.185,2.185,0,0,0-2.182,2.182v3.2a2.185,2.185,0,0,0,2.182,2.182h9.3a2.184,2.184,0,0,0,2.182-2.182v-3.2A2.185,2.185,0,0,0,112.836,302.709Zm.084,5.383a.084.084,0,0,1-.084.084h-9.3a.084.084,0,0,1-.084-.084v-3.2a.085.085,0,0,1,.084-.084h9.3a.084.084,0,0,1,.084.084Z" transform="translate(-87.181 -260.373)"/>
        <path id="Trazado_1080924" data-name="Trazado 1080924" d="M123.909,40.022h6.843a1.049,1.049,0,0,0,0-2.1h-6.843a1.049,1.049,0,1,0,0,2.1Z" transform="translate(-105.677 -32.62)"/>
        <path id="Trazado_1080925" data-name="Trazado 1080925" d="M123.909,79.114h9.64a1.049,1.049,0,1,0,0-2.1h-9.64a1.049,1.049,0,0,0,0,2.1Z" transform="translate(-105.677 -66.245)"/>
        <path id="Trazado_1080926" data-name="Trazado 1080926" d="M123.909,118.2h6.843a1.049,1.049,0,0,0,0-2.1h-6.843a1.049,1.049,0,0,0,0,2.1Z" transform="translate(-105.677 -99.868)"/>
        <path id="Trazado_1080927" data-name="Trazado 1080927" d="M123.909,157.3h9.64a1.049,1.049,0,1,0,0-2.1h-9.64a1.049,1.049,0,1,0,0,2.1Z" transform="translate(-105.677 -133.493)"/>
        <path id="Trazado_1080928" data-name="Trazado 1080928" d="M123.909,196.389h6.843a1.049,1.049,0,0,0,0-2.1h-6.843a1.049,1.049,0,1,0,0,2.1Z" transform="translate(-105.677 -167.118)"/>
        <path id="Trazado_1080929" data-name="Trazado 1080929" d="M96.5,60.842V38.973a1.049,1.049,0,1,0-2.1,0V60.842a1.049,1.049,0,1,0,2.1,0Z" transform="translate(-81.201 -32.62)"/>
        <path id="Trazado_1080930" data-name="Trazado 1080930" d="M40.995,106.777a1.049,1.049,0,0,0,1.483,0l1.7-1.7a1.694,1.694,0,0,0,0-2.4l-1.7-1.7a1.049,1.049,0,1,0-1.483,1.483l.369.369H39.492a1.049,1.049,0,1,0,0,2.1h1.871l-.369.369A1.049,1.049,0,0,0,40.995,106.777Z" transform="translate(-33.066 -86.589)"/>
        <path id="Trazado_1080931" data-name="Trazado 1080931" d="M41.632,307.123a1.049,1.049,0,0,0-1.483,1.483l.369.369H38.646a1.049,1.049,0,1,0,0,2.1h1.871l-.369.369a1.049,1.049,0,0,0,1.483,1.483l1.7-1.7a1.694,1.694,0,0,0,0-2.4Z" transform="translate(-32.339 -263.905)"/>
        <path id="Trazado_1080932" data-name="Trazado 1080932" d="M373.471,304.991h8.767a1.049,1.049,0,0,0,0-2.1h-8.767a1.049,1.049,0,0,0,0,2.1Z" transform="translate(-320.336 -260.531)"/>
        <path id="Trazado_1080933" data-name="Trazado 1080933" d="M373.471,344.082h11.564a1.049,1.049,0,1,0,0-2.1H373.471a1.049,1.049,0,1,0,0,2.1Z" transform="translate(-320.336 -294.155)"/>
        <path id="Trazado_1080934" data-name="Trazado 1080934" d="M373.471,383.174h8.767a1.049,1.049,0,1,0,0-2.1h-8.767a1.049,1.049,0,1,0,0,2.1Z" transform="translate(-320.336 -327.779)"/>
        <path id="Trazado_1080935" data-name="Trazado 1080935" d="M383.9,427.548a2.185,2.185,0,0,0,2.182-2.182v-3.2a2.185,2.185,0,0,0-2.182-2.182h-9.3a2.185,2.185,0,0,0-2.182,2.182v3.2a2.185,2.185,0,0,0,2.182,2.182Zm-9.382-2.182v-3.2a.084.084,0,0,1,.084-.084h9.3a.085.085,0,0,1,.084.084v3.2a.084.084,0,0,1-.084.084h-9.3A.084.084,0,0,1,374.52,425.366Z" transform="translate(-320.336 -361.245)"/>
        <path id="Trazado_1080936" data-name="Trazado 1080936" d="M311.214,428.924a1.049,1.049,0,0,0,1.483,0l1.7-1.7a1.7,1.7,0,0,0,0-2.4l-1.7-1.7a1.049,1.049,0,0,0-1.483,1.483l.369.369h-1.871a1.049,1.049,0,1,0,0,2.1h1.871l-.369.369A1.049,1.049,0,0,0,311.214,428.924Z" transform="translate(-265.493 -363.681)"/>
        <path id="Trazado_1080937" data-name="Trazado 1080937" d="M306.261,40.022H313.1a1.049,1.049,0,1,0,0-2.1h-6.843a1.049,1.049,0,0,0,0,2.1Z" transform="translate(-262.526 -32.62)"/>
        <path id="Trazado_1080938" data-name="Trazado 1080938" d="M315.9,77.016h-9.64a1.049,1.049,0,0,0,0,2.1h9.64a1.049,1.049,0,1,0,0-2.1Z" transform="translate(-262.527 -66.245)"/>
        <path id="Trazado_1080939" data-name="Trazado 1080939" d="M306.261,118.2H313.1a1.049,1.049,0,1,0,0-2.1h-6.843a1.049,1.049,0,0,0,0,2.1Z" transform="translate(-262.526 -99.868)"/>
        <path id="Trazado_1080940" data-name="Trazado 1080940" d="M315.9,155.2h-9.64a1.049,1.049,0,0,0,0,2.1h9.64a1.049,1.049,0,1,0,0-2.1Z" transform="translate(-262.527 -133.493)"/>
        <path id="Trazado_1080941" data-name="Trazado 1080941" d="M313.1,194.291h-6.843a1.049,1.049,0,0,0,0,2.1H313.1a1.049,1.049,0,1,0,0-2.1Z" transform="translate(-262.527 -167.118)"/>
        <path id="Trazado_1080942" data-name="Trazado 1080942" d="M403.645,37.924a1.049,1.049,0,0,0-1.049,1.049V60.842a1.049,1.049,0,0,0,2.1,0V38.973A1.049,1.049,0,0,0,403.645,37.924Z" transform="translate(-346.29 -32.62)"/>
        <path id="Trazado_1080943" data-name="Trazado 1080943" d="M434.167,102.826H432.3l.369-.369a1.049,1.049,0,0,0-1.483-1.483l-1.7,1.7a1.694,1.694,0,0,0,0,2.4l1.7,1.7a1.049,1.049,0,1,0,1.483-1.483l-.369-.369h1.871a1.049,1.049,0,1,0,0-2.1Z" transform="translate(-368.985 -86.588)"/>
      </g>
    </g>
  </g>
</svg>
