<svg xmlns="http://www.w3.org/2000/svg" xmlns:xlink="http://www.w3.org/1999/xlink" width="400" height="279" viewBox="0 0 400 279">
  <defs>
    <clipPath id="clip-path">
      <rect id="Rectángulo_417890" data-name="Rectángulo 417890" width="400" height="279" transform="translate(1020 10578)" fill="#fff" stroke="#707070" stroke-width="1" opacity="0.87"/>
    </clipPath>
    <clipPath id="clip-path-2">
      <path id="Trazado_1079700" data-name="Trazado 1079700" d="M540.5,310.4c0-2.4-5-223.147-5-235.161s-.8-24.827-24.827-24.827S337.04,47.7,314.388,50.1c-18.82,2-27.967,9.113-28.767,38.746s-18.6,203.135-19.165,218.341c-.356,9.61,45.421,75.043,91.14,29.323,61.033,2.084,128.043.4,154.073.276C542.5,336.919,540.5,310.4,540.5,310.4Z" transform="translate(-266.453 -49.107)"/>
    </clipPath>
  </defs>
  <g id="Enmascarar_grupo_1098884" data-name="Enmascarar grupo 1098884" transform="translate(-1020 -10578)" clip-path="url(#clip-path)">
    <g id="Grupo_1209125" data-name="Grupo 1209125" transform="translate(806.036 10509.425)">
      <path id="Trazado_1079698" data-name="Trazado 1079698" d="M477.937,286.9V102.456c0-11.34-.622-23.434-19.278-23.434s-134.819-2.56-152.408-.286c-14.614,1.889-21.715,8.6-22.338,36.571s.438,154.219,0,168.572c-.276,9.071-.276,26.08,21.766,27.214,22.445,1.155,129.66.845,149.871.724C479.492,311.937,477.937,286.9,477.937,286.9Z" transform="translate(10.089 24.982)" fill="#cf50ff"/>
      <g id="Grupo_1209122" data-name="Grupo 1209122" transform="translate(269.891 49.107)">
        <g id="Grupo_1209083" data-name="Grupo 1209083" clip-path="url(#clip-path-2)">
          <path id="Trazado_1079699" data-name="Trazado 1079699" d="M463.381,249.573a205.787,205.787,0,0,0-9.433-24.4c-5-10.068-13.043-13.151-18.449-11.777h0a13.047,13.047,0,0,0-7.377,5.028l-12.05,16.763s3.337,4.479,10.749,24.747C440.506,261.195,452.6,256.841,463.381,249.573Z" transform="translate(-208.794 14.088)" fill="#b16860"/>
        </g>
        <g id="Grupo_1209084" data-name="Grupo 1209084" clip-path="url(#clip-path-2)">
          <path id="Trazado_1079701" data-name="Trazado 1079701" d="M460.391,239.424c-10.785,7.269-22.875,11.622-36.56,10.363.634,1.736,1.3,3.573,1.989,5.547a8.8,8.8,0,0,0,4.127-1.27,8.8,8.8,0,0,1-4.127,1.27c2.915,8.282,6.362,18.722,10.379,31.858,6.086,19.9,20.673,56.406,20.673,56.406s-8.124,13.017-6.082,16.572,6.435-4.209,6.435-4.209-4.1,19.359-.743,19.544,6.2-14.815,6.2-14.815-1.311,18.855,3.186,17.812c2.625-.719,2.056-16.817,2.056-16.817s1.7,16.087,4.532,15.491.536-15.964.536-15.964,2.83,12.529,5.7,11.715.767-21.815-1.2-28.287C477.492,344.638,476.144,288.646,460.391,239.424Z" transform="translate(-205.804 24.236)" fill="#b57567"/>
        </g>
        <g id="Grupo_1209090" data-name="Grupo 1209090" clip-path="url(#clip-path-2)">
          <path id="Trazado_1079703" data-name="Trazado 1079703" d="M291.63,211.87c-1.081-7.236-2.992-10.514-2.992-10.514-.582-2.772-1.754-4.284-1.8-9.563-.019-2.1.076-4.617,1.276-6.274,6.648-9.186,17.116.779,17.116.779s-1.912-16.486,1.5-15.993,3.646,21.321,3.646,21.321a147.866,147.866,0,0,1-.042,15.556l1.462,5.532" transform="translate(-258.599 -2.405)" fill="#b57567"/>
          <g id="Grupo_1209085" data-name="Grupo 1209085" transform="translate(39.104 184.326)">
            <path id="Trazado_1079704" data-name="Trazado 1079704" d="M305.511,201.042a.294.294,0,0,1-.22-.1c-.475-.531-11.6-13.032-10.54-17.215a1.87,1.87,0,0,1,1.28-1.506c2.3-.632,6.558,3.566,6.737,3.745a.3.3,0,0,1-.417.421c-1.161-1.154-4.511-4.043-6.164-3.594a1.311,1.311,0,0,0-.863,1.081c-.982,3.88,10.295,16.547,10.408,16.674a.3.3,0,0,1-.024.418A.308.308,0,0,1,305.511,201.042Z" transform="translate(-294.68 -182.158)" fill="#503a33"/>
          </g>
          <g id="Grupo_1209086" data-name="Grupo 1209086" transform="translate(34.75 190.858)">
            <path id="Trazado_1079705" data-name="Trazado 1079705" d="M291.833,192.373a.306.306,0,0,1-.159-.046.3.3,0,0,1-.09-.409,13.533,13.533,0,0,1,6.249-5.028.3.3,0,1,1,.2.557,13.169,13.169,0,0,0-5.949,4.788A.3.3,0,0,1,291.833,192.373Z" transform="translate(-291.537 -186.873)" fill="#503a33"/>
          </g>
          <g id="Grupo_1209087" data-name="Grupo 1209087" transform="translate(31.088 179.98)">
            <path id="Trazado_1079706" data-name="Trazado 1079706" d="M292.427,191.16a3.281,3.281,0,0,1-2.664-2.192c-2.456-5.287,1.068-9.79,1.1-9.836a.3.3,0,0,1,.463.37,9.318,9.318,0,0,0-1.028,9.215c.646,1.391,1.595,1.934,2.282,1.84.565-.073.97-.558,1.107-1.33a.29.29,0,0,1,.344-.24.3.3,0,0,1,.241.344,2,2,0,0,1-1.615,1.815A1.853,1.853,0,0,1,292.427,191.16Z" transform="translate(-288.893 -179.021)" fill="#503a33"/>
          </g>
          <g id="Grupo_1209088" data-name="Grupo 1209088" transform="translate(33.919 179.304)">
            <path id="Trazado_1079707" data-name="Trazado 1079707" d="M294.043,189.724a2.8,2.8,0,0,1-2.429-2.063,7.106,7.106,0,0,1,2.665-9.089.3.3,0,0,1,.294.515c-.194.109-4.683,2.758-2.409,8.351.612,1.507,1.642,1.885,2.329,1.607.851-.345,1.313-1.675.554-3.548-1.2-2.945,1.782-5.878,1.91-6a.3.3,0,0,1,.413.425c-.029.028-2.819,2.779-1.773,5.353.949,2.337.208,3.878-.881,4.32A1.772,1.772,0,0,1,294.043,189.724Z" transform="translate(-290.937 -178.533)" fill="#503a33"/>
          </g>
          <g id="Grupo_1209089" data-name="Grupo 1209089" transform="translate(28.362 186.295)">
            <path id="Trazado_1079708" data-name="Trazado 1079708" d="M289.995,190.65a2.142,2.142,0,0,1-1.564-.823,7.836,7.836,0,0,1-1.419-5.99.284.284,0,0,1,.332-.254.3.3,0,0,1,.255.334,7.328,7.328,0,0,0,1.275,5.517,1.762,1.762,0,0,0,1.142.625c1.2-.026,1.265-1.52,1.266-1.583a.287.287,0,0,1,.306-.287.3.3,0,0,1,.287.306c-.025.731-.441,2.125-1.845,2.156Z" transform="translate(-286.926 -183.579)" fill="#503a33"/>
          </g>
        </g>
        <g id="Grupo_1209091" data-name="Grupo 1209091" clip-path="url(#clip-path-2)">
          <path id="Trazado_1079710" data-name="Trazado 1079710" d="M327.553,240.243c-1.819,2.913-2.882,4.738-2.882,4.738L309.062,196.9l.133-3a153.068,153.068,0,0,0-18.926,3.328c-.569,13.279-3.08,73.915,14.2,88.2,18.4,15.2,41.928-7.281,55.379-23.654C347.15,258.235,335.57,251.1,327.553,240.243Z" transform="translate(-257.452 6.693)" fill="#b57567"/>
        </g>
        <g id="Grupo_1209092" data-name="Grupo 1209092" clip-path="url(#clip-path-2)">
          <path id="Trazado_1079712" data-name="Trazado 1079712" d="M355.761,196.35c-13.488,4.317-31.733,31.771-38.707,42.948,8.017,10.854,19.6,17.993,32.3,21.531a166.406,166.406,0,0,0,10.72-14.513Z" transform="translate(-246.953 7.637)" fill="#b16860"/>
        </g>
        <g id="Grupo_1209120" data-name="Grupo 1209120" clip-path="url(#clip-path-2)">
          <g id="Grupo_1209095" data-name="Grupo 1209095" transform="translate(68.345 193.646)">
            <path id="Trazado_1079714" data-name="Trazado 1079714" d="M430.733,191.392s25.117,4.7,40,12.162,24.049,32.534,24.049,32.534-10.487,16.054-28.673,21.163a266.711,266.711,0,0,0,1.013,26.962c1.247,11.385,4.548,39-9.29,42.214s-43.1,2.345-57.9,3.243-33.612-2.039-43.346-6.671-14.167-9.125-14.319-25.459,5.622-48.679,5.622-48.679-17.892-4.011-27.925-20.632c0,0,18.075-32.107,39.746-35.41C378.295,189.983,399.155,186.369,430.733,191.392Z" transform="translate(-314.178 -188.886)" fill="#e3aba3"/>
            <path id="Trazado_1079715" data-name="Trazado 1079715" d="M425.63,244.223c-1.072.363-.452,5.83-.452,5.83s18.758,1.851,34.759-20.333c0,0,.705-5.831-6.651-7.029C453.288,222.69,441.788,238.752,425.63,244.223Z" transform="translate(-273.698 -175.859)" fill="#e28279"/>
            <path id="Trazado_1079716" data-name="Trazado 1079716" d="M350.111,236.828c1.021.344-1.078,5.835-1.078,5.835s-17.694,2.192-33.221-19.7c0,0-.773-5.817,6.158-7.149C321.97,215.818,334.742,231.654,350.111,236.828Z" transform="translate(-315.786 -178.507)" fill="#e28279"/>
            <g id="Grupo_1209093" data-name="Grupo 1209093" transform="translate(53.872 82.484)">
              <path id="Trazado_1079717" data-name="Trazado 1079717" d="M384.838,280.5a.3.3,0,0,0,.247-.129.3.3,0,0,0-.076-.418,106.648,106.648,0,0,1-29.779-31.382.3.3,0,0,0-.513.317,107.29,107.29,0,0,0,29.948,31.559A.324.324,0,0,0,384.838,280.5Z" transform="translate(-354.673 -248.425)" fill="#d49a2c"/>
            </g>
            <g id="Grupo_1209094" data-name="Grupo 1209094" transform="translate(46.581 88.34)">
              <path id="Trazado_1079718" data-name="Trazado 1079718" d="M368.631,285.708a.3.3,0,0,0,.226-.5,97.233,97.233,0,0,1-18.862-32.354.3.3,0,1,0-.568.2,97.8,97.8,0,0,0,18.98,32.556A.293.293,0,0,0,368.631,285.708Z" transform="translate(-349.41 -252.652)" fill="#d49a2c"/>
            </g>
          </g>
          <g id="Grupo_1209105" data-name="Grupo 1209105" transform="translate(79.05 194.172)">
            <path id="Trazado_1079719" data-name="Trazado 1079719" d="M420.957,198.78a4.3,4.3,0,0,0-2.639-7.119,235.694,235.694,0,0,0-23.582-2.248c-6.754-.177-14.756-.163-20.685-.112a5.989,5.989,0,0,0-5.119,9.048c3.433,5.665,10.1,12.058,22.843,12.776A35.426,35.426,0,0,0,420.957,198.78Z" transform="translate(-306.343 -189.266)" fill="#e28279"/>
            <path id="Trazado_1079720" data-name="Trazado 1079720" d="M435.488,191.623s-3.724,25.028-4.279,41.725c0,0-38.124-2.226-50.37-2.783,0,0,1.96-33.411,3.63-41.2a80,80,0,0,0-10.411.991s-6.021,16.558-6.855,40.49c0,0-22.262,51.2-26.714,55.656L323.514,452.076l153.889.278-9.739-152.776s-18.366-51.2-22.819-62.335c0,0,.557-34.645,3.339-42.994C448.184,194.251,441.088,191.839,435.488,191.623Z" transform="translate(-323.514 -189.228)" fill="#cc555f"/>
            <g id="Grupo_1209096" data-name="Grupo 1209096" transform="translate(52.126 60.765)">
              <path id="Trazado_1079721" data-name="Trazado 1079721" d="M386.905,264.676c-25.889-2.088-25.769-30.931-25.765-31.224a.33.33,0,0,1,.1-.233.377.377,0,0,1,.237-.093c21.051.411,56.014,2.484,56.364,2.5a.336.336,0,0,1,.238.123.332.332,0,0,1,.068.26c-.048.3-5.011,28.763-28.735,28.763Q388.193,264.781,386.905,264.676Zm-25.1-30.881c.068,3.2,1.38,28.3,25.156,30.223,23.745,1.91,29.788-24.334,30.469-27.749C413.61,236.046,381.693,234.2,361.805,233.795Z" transform="translate(-361.14 -233.127)" fill="#e28279"/>
            </g>
            <g id="Grupo_1209097" data-name="Grupo 1209097" transform="translate(18.733 139.09)">
              <path id="Trazado_1079722" data-name="Trazado 1079722" d="M461.757,294.232a.33.33,0,0,0,.029-.659c-.923-.079-92.665-7.858-124.487-1.247a.33.33,0,1,0,.134.647c31.725-6.593,123.375,1.179,124.3,1.258Z" transform="translate(-337.036 -289.664)" fill="#af3c2a"/>
            </g>
            <g id="Grupo_1209098" data-name="Grupo 1209098" transform="translate(17.481 149.109)">
              <path id="Trazado_1079723" data-name="Trazado 1079723" d="M460.853,301.463a.33.33,0,0,0,.029-.659c-.923-.079-92.666-7.856-124.487-1.247a.332.332,0,0,0-.256.391.336.336,0,0,0,.391.256c31.728-6.593,123.373,1.179,124.3,1.258Z" transform="translate(-336.132 -296.897)" fill="#af3c2a"/>
            </g>
            <g id="Grupo_1209099" data-name="Grupo 1209099" transform="translate(79.675 140.076)">
              <path id="Trazado_1079724" data-name="Trazado 1079724" d="M381.356,342.379a.331.331,0,0,0,.331-.317l2.088-51.342a.331.331,0,0,0-.317-.344.323.323,0,0,0-.344.317l-2.088,51.342a.331.331,0,0,0,.317.344Z" transform="translate(-381.026 -290.376)" fill="#af3c2a"/>
            </g>
            <g id="Grupo_1209100" data-name="Grupo 1209100" transform="translate(69.59 139.654)">
              <path id="Trazado_1079725" data-name="Trazado 1079725" d="M384.161,336.234a.33.33,0,1,0,0-.661c-.378,0-9.286-.143-9.688-10.951-.411-11.123,1.234-33.964,1.251-34.192a.329.329,0,0,0-.3-.353.308.308,0,0,0-.353.3c-.017.23-1.667,23.107-1.254,34.264C374.239,336.1,384.063,336.234,384.161,336.234Z" transform="translate(-373.746 -290.071)" fill="#af3c2a"/>
            </g>
            <g id="Grupo_1209101" data-name="Grupo 1209101" transform="translate(12.491 150.472)">
              <path id="Trazado_1079726" data-name="Trazado 1079726" d="M332.861,319.614l.042,0a33.114,33.114,0,0,0,26.44-21.288.33.33,0,1,0-.622-.222,32.443,32.443,0,0,1-25.9,20.854.33.33,0,0,0-.287.368A.334.334,0,0,0,332.861,319.614Z" transform="translate(-332.53 -297.88)" fill="#af3c2a"/>
            </g>
            <g id="Grupo_1209102" data-name="Grupo 1209102" transform="translate(127.431 155.913)">
              <path id="Trazado_1079727" data-name="Trazado 1079727" d="M432.544,326.289a.33.33,0,0,0,.158-.621,33.021,33.021,0,0,1-16.548-23.582.326.326,0,0,0-.377-.276.33.33,0,0,0-.276.377,33.689,33.689,0,0,0,16.888,24.061A.309.309,0,0,0,432.544,326.289Z" transform="translate(-415.497 -301.808)" fill="#af3c2a"/>
            </g>
            <g id="Grupo_1209103" data-name="Grupo 1209103" transform="translate(103.649 38.337)">
              <path id="Trazado_1079728" data-name="Trazado 1079728" d="M415.2,227.357l-13.739-1.872a3.626,3.626,0,0,1-3.1-4.08l.18-1.333a3.633,3.633,0,0,1,4.083-3.1l13.737,1.872a3.626,3.626,0,0,1,3.1,4.08l-.181,1.33a3.626,3.626,0,0,1-3.583,3.136A3.538,3.538,0,0,1,415.2,227.357Zm-16-7.194-.18,1.333a2.962,2.962,0,0,0,2.537,3.336h0L415.3,226.7a2.959,2.959,0,0,0,3.335-2.537l.182-1.331a2.962,2.962,0,0,0-2.537-3.336l-13.737-1.873a3.031,3.031,0,0,0-.4-.028A2.971,2.971,0,0,0,399.2,220.163Z" transform="translate(-398.331 -216.938)" fill="#e28279"/>
            </g>
            <path id="Trazado_1079729" data-name="Trazado 1079729" d="M401.151,228.431a5.01,5.01,0,1,0,5.01-5.01A5.01,5.01,0,0,0,401.151,228.431Z" transform="translate(-293.595 -176.103)" fill="#e28279"/>
            <g id="Grupo_1209104" data-name="Grupo 1209104" transform="translate(40.47 33.247)">
              <path id="Trazado_1079730" data-name="Trazado 1079730" d="M370.212,221.873l-13.866-.017h0a3.63,3.63,0,0,1-3.62-3.63v-1.342a3.626,3.626,0,0,1,3.624-3.62h.006l13.865.017a3.625,3.625,0,0,1,3.621,3.63v1.342a3.626,3.626,0,0,1-3.624,3.62Zm-13.875-.348h0Zm-2.078-6.736a2.947,2.947,0,0,0-.871,2.095v1.342a2.966,2.966,0,0,0,2.958,2.967l13.866.017h.006a2.963,2.963,0,0,0,2.962-2.959v-1.344a2.961,2.961,0,0,0-2.959-2.966l-13.865-.017h-.006A2.944,2.944,0,0,0,354.26,214.789Z" transform="translate(-352.726 -213.264)" fill="#e28279"/>
            </g>
            <path id="Trazado_1079731" data-name="Trazado 1079731" d="M356.429,224.866a5.01,5.01,0,1,0,4.295-5.634A5.008,5.008,0,0,0,356.429,224.866Z" transform="translate(-310.847 -177.735)" fill="#e28279"/>
          </g>
          <g id="Grupo_1209119" data-name="Grupo 1209119" transform="translate(73.989 20.826)">
            <ellipse id="Elipse_13122" data-name="Elipse 13122" cx="28.005" cy="26.721" rx="28.005" ry="26.721" transform="translate(110.018 0.853)" fill="#503a33"/>
            <ellipse id="Elipse_13123" data-name="Elipse 13123" cx="28.497" cy="27.189" rx="28.497" ry="27.189" transform="translate(111.067)" fill="none" stroke="#503a33" stroke-linecap="round" stroke-linejoin="round" stroke-miterlimit="10" stroke-width="0.438"/>
            <path id="Trazado_1079732" data-name="Trazado 1079732" d="M458.8,93.094s36.484-.514,39.566,25.693-7.194,30.318-2.056,37,15.929,14.389,12.847,25.179-8.222,13.361-5.652,20.555,3.6,10.277,1.542,16.443c0,0-22.1,7.708-34.942,5.138l-1.542-14.9-4.11,14.389a103.314,103.314,0,0,1-53.955,1.542c-29.29-7.194-47.275-4.11-57.551-11.819l5.138-21.069-10.791,18.5s-3.725,2.57-21.2-4.624c0,0-6.166-10.406-3.082-21.967,3.855-14.459,9.25-11.69,10.791-23.508s.471-27.425,14.516-39.31c13.361-11.3,6.166-17.985,14.388-29.29s48.3-18.5,79.648-2.568" transform="translate(-318.978 -58.325)" fill="#503a33"/>
            <g id="Grupo_1209118" data-name="Grupo 1209118" transform="translate(26.681 37.894)">
              <path id="Trazado_1079733" data-name="Trazado 1079733" d="M363.9,164.066l.572-22.533s-16.8-12.836-23.878,6.306S353.643,174.369,363.9,164.066Z" transform="translate(-339.12 -73.832)" fill="#b57567"/>
              <g id="Grupo_1209106" data-name="Grupo 1209106" transform="translate(3.305 91.37)">
                <path id="Trazado_1079734" data-name="Trazado 1079734" d="M355.081,183.522c-.186,0-.371,0-.556-.011a13.58,13.58,0,0,1-4.892-26.006.706.706,0,1,1,.568,1.293,12.167,12.167,0,1,0,16.688,14.088.705.705,0,1,1,1.369.339A13.62,13.62,0,0,1,355.081,183.522Z" transform="translate(-341.506 -157.446)" fill="#e19e2c"/>
              </g>
              <path id="Trazado_1079735" data-name="Trazado 1079735" d="M420.939,167.807l6.6-21.552s20-6.848,20.648,13.552S427.4,180.832,420.939,167.807Z" transform="translate(-307.589 -70.815)" fill="#b57567"/>
              <g id="Grupo_1209107" data-name="Grupo 1209107" transform="translate(103.829 99.105)">
                <path id="Trazado_1079736" data-name="Trazado 1079736" d="M427.636,185.673a13.572,13.572,0,0,1-13.276-16.357.706.706,0,0,1,1.383.288,12.167,12.167,0,1,0,21.157-5.41.706.706,0,0,1,1.072-.919,13.574,13.574,0,0,1-10.336,22.4Z" transform="translate(-414.066 -163.029)" fill="#e19e2c"/>
              </g>
              <path id="Trazado_1079737" data-name="Trazado 1079737" d="M381.342,194.378a64.506,64.506,0,0,1-8.358-3.087l.269-14.328,36.491,2.821-.065,14.418C400.348,196.927,390.092,197.2,381.342,194.378Z" transform="translate(-326.069 -58.554)" fill="#b16860"/>
              <path id="Trazado_1079738" data-name="Trazado 1079738" d="M381.381,190.392c8.749,2.826,19,2.549,28.336-.176l-.04,8.932c-13.773,10.295-30.765,6.6-36.8-4.279l.143-7.561A64.2,64.2,0,0,0,381.381,190.392Z" transform="translate(-326.109 -54.568)" fill="#b57567"/>
              <g id="Grupo_1209108" data-name="Grupo 1209108" transform="translate(16.856)">
                <path id="Trazado_1079739" data-name="Trazado 1079739" d="M353.419,116.879s-1.563,24.045-2.124,52.554c-.453,23.08,17.564,46.019,45.709,48.383,26.452,2.221,54.171-7.923,63.129-44.914s3.7-67.511-29.852-76.4S363.058,88.4,353.419,116.879Z" transform="translate(-351.287 -91.493)" fill="#b57567"/>
              </g>
              <g id="Grupo_1209109" data-name="Grupo 1209109" transform="translate(58.215 17.945)">
                <path id="Trazado_1079740" data-name="Trazado 1079740" d="M381.141,104.754c.148-.2.247-.308.247-.308S381.3,104.56,381.141,104.754Z" transform="translate(-381.141 -104.446)" fill="#503a33"/>
              </g>
              <path id="Trazado_1079741" data-name="Trazado 1079741" d="M421.73,143.14s4.612-5.073-4.811-11.7-12.8-5.274-14.412-2.079c-1.467,2.915.634,7.367,5.986,10.953C414.917,144.613,419.223,146.059,421.73,143.14Z" transform="translate(-314.868 -77.922)" fill="#503a33"/>
              <path id="Trazado_1079742" data-name="Trazado 1079742" d="M359.117,138.187s-3.314-6,7.387-10.274,13.676-2.172,14.5,1.309c.755,3.175-2.32,7.021-8.355,9.271C365.405,141.195,360.882,141.606,359.117,138.187Z" transform="translate(-331.6 -78.377)" fill="#503a33"/>
              <g id="Grupo_1209110" data-name="Grupo 1209110" transform="translate(118.604 80.18)">
                <path id="Trazado_1079743" data-name="Trazado 1079743" d="M426.446,166.9a.408.408,0,0,0,.382-.571c-.043-.1-4.214-9.979,2.707-14.407a9.05,9.05,0,0,1,7.077-1.536c3.909.927,6.2,4.72,6.224,4.759a.409.409,0,1,0,.7-.416c-.1-.168-2.483-4.124-6.732-5.136a9.836,9.836,0,0,0-7.712,1.64c-7.509,4.8-3.063,15.314-3.016,15.421A.4.4,0,0,0,426.446,166.9Z" transform="translate(-424.731 -149.368)" fill="#503a33"/>
              </g>
              <g id="Grupo_1209111" data-name="Grupo 1209111" transform="translate(118.656 86.813)">
                <path id="Trazado_1079744" data-name="Trazado 1079744" d="M436.643,157.26a.408.408,0,0,0,.258-.731c-.068-.053-6.826-5.184-12.007-.187a.409.409,0,1,0,.567.589c4.676-4.508,10.877.2,10.939.245A.423.423,0,0,0,436.643,157.26Z" transform="translate(-424.769 -154.157)" fill="#503a33"/>
              </g>
              <g id="Grupo_1209112" data-name="Grupo 1209112" transform="translate(55.864 41.474)">
                <path id="Trazado_1079745" data-name="Trazado 1079745" d="M385.353,163.261a.409.409,0,0,0,.184-.777,11.028,11.028,0,0,1-4.665-4.543c-1.093-2.318-.675-5.759.878-7.222.934-.878,2.175-.93,3.6-.15.044.025.116.068.212.125,4.972,3.013,7.264,1.746,8.312.15,1.923-2.93.751-26.365.611-29.028a.417.417,0,0,0-.431-.387.409.409,0,0,0-.387.429c.377,7.161,1.025,26.247-.477,28.536-1.236,1.884-3.662,1.752-7.205-.4-.109-.066-.191-.116-.242-.144-1.739-.949-3.355-.855-4.552.272-1.811,1.705-2.305,5.521-1.057,8.165a11.673,11.673,0,0,0,5.052,4.932A.38.38,0,0,0,385.353,163.261Z" transform="translate(-379.444 -121.43)" fill="#503a33"/>
              </g>
              <g id="Grupo_1209113" data-name="Grupo 1209113" transform="translate(55.915 90.89)">
                <path id="Trazado_1079746" data-name="Trazado 1079746" d="M380.444,163.94a12.348,12.348,0,0,1-.963-3.846c8.9-3.186,19.219-2.992,19.219-2.992a17.123,17.123,0,0,1-.331,4.392A47.1,47.1,0,0,0,380.444,163.94Z" transform="translate(-379.481 -157.099)"/>
                <path id="Trazado_1079747" data-name="Trazado 1079747" d="M398.1,160.291c-.666,3.2-2.53,7.092-7.639,7.728-6.3.784-9.066-2.448-10.288-5.281A47.114,47.114,0,0,1,398.1,160.291Z" transform="translate(-379.214 -155.897)" fill="#7c3645"/>
              </g>
              <g id="Grupo_1209114" data-name="Grupo 1209114" transform="translate(5.289 69.543)">
                <path id="Trazado_1079748" data-name="Trazado 1079748" d="M355.43,161.426a.4.4,0,0,1-.15-.086.408.408,0,0,1-.032-.576c.072-.082,7.161-8.128,2-14.523a9.048,9.048,0,0,0-6.225-3.7c-4-.36-7.377,2.512-7.412,2.539a.409.409,0,0,1-.535-.618c.148-.127,3.663-3.124,8.013-2.736a9.832,9.832,0,0,1,6.794,4c5.6,6.937-1.951,15.5-2.028,15.581A.411.411,0,0,1,355.43,161.426Z" transform="translate(-342.938 -141.691)" fill="#503a33"/>
              </g>
              <g id="Grupo_1209115" data-name="Grupo 1209115" transform="translate(10.283 77.266)">
                <path id="Trazado_1079749" data-name="Trazado 1079749" d="M346.829,148.643a.409.409,0,0,1-.012-.776c.08-.028,8.117-2.753,11.446,3.628a.409.409,0,0,1-.725.378c-3-5.758-10.379-3.26-10.453-3.235A.4.4,0,0,1,346.829,148.643Z" transform="translate(-346.542 -147.266)" fill="#503a33"/>
              </g>
              <path id="Trazado_1079750" data-name="Trazado 1079750" d="M399.555,162.715c.7,3.9,7.173,6,14.467,4.694s12.644-5.517,11.949-9.412S418.8,152,411.5,153.3,398.859,158.82,399.555,162.715Z" transform="translate(-315.853 -67.822)" fill="#b16860"/>
              <path id="Trazado_1079751" data-name="Trazado 1079751" d="M382.715,162.1c-1.014,3.825-7.642,5.386-14.8,3.487s-12.147-6.539-11.133-10.364,7.642-5.386,14.806-3.487S383.73,158.28,382.715,162.1Z" transform="translate(-332.365 -68.586)" fill="#b16860"/>
              <g id="Grupo_1209116" data-name="Grupo 1209116" transform="translate(80.539 71.537)">
                <path id="Trazado_1079752" data-name="Trazado 1079752" d="M412.3,152.7s.4-8.222-6.165-9.444-8.876,6.644-8.876,6.644" transform="translate(-397.255 -143.13)" fill="none" stroke="#000" stroke-linecap="round" stroke-linejoin="round" stroke-miterlimit="10" stroke-width="0.636"/>
                <line id="Línea_661" data-name="Línea 661" y1="1.263" x2="4.415" transform="translate(15.018 7.262)" fill="none" stroke="#000" stroke-linecap="round" stroke-linejoin="round" stroke-miterlimit="10" stroke-width="0.636"/>
                <line id="Línea_662" data-name="Línea 662" y1="1.003" x2="2.983" transform="translate(15.203 5.472)" fill="none" stroke="#000" stroke-linecap="round" stroke-linejoin="round" stroke-miterlimit="10" stroke-width="0.752"/>
              </g>
              <g id="Grupo_1209117" data-name="Grupo 1209117" transform="translate(32.368 68.913)">
                <path id="Trazado_1079753" data-name="Trazado 1079753" d="M364.994,148.411s2.131-7.952,8.753-7.113,6.425,9.037,6.425,9.037" transform="translate(-361.517 -141.236)" fill="none" stroke="#000" stroke-linecap="round" stroke-linejoin="round" stroke-miterlimit="10" stroke-width="0.636"/>
                <line id="Línea_663" data-name="Línea 663" x1="3.819" y1="2.55" transform="translate(0 3.635)" fill="none" stroke="#000" stroke-linecap="round" stroke-linejoin="round" stroke-miterlimit="10" stroke-width="0.636"/>
                <line id="Línea_664" data-name="Línea 664" x1="2.534" y1="1.866" transform="translate(1.734 2.311)" fill="none" stroke="#000" stroke-linecap="round" stroke-linejoin="round" stroke-miterlimit="10" stroke-width="0.752"/>
              </g>
            </g>
            <path id="Trazado_1079754" data-name="Trazado 1079754" d="M441.641,88.664s38.465,6.3,42.686,28.989-7.741,55.666-7.741,55.666-15.317-7.989-24.572-10.217c-4.985-1.2,4.688-8.145-.556-25.893,0,0-6.6,16.35-14.408,17.806-9.2,1.715-31.159-1.085-40.9-7.844-5.349-3.711-2.247-19.875-3.641-20.635-2.758-1.5-5.5,18.643-8.436,19.183-2,.367-15.415,9.808-18.881,4.667-2.822-4.184-.331-14.8-1.786-14.491-3.99.859-3.246,21.23-6.441,21.953-7.154,1.621-12.019,2.647-13.268,1.949-6.31-3.527-2.851-45.911,9.616-60.012S407.046,73.432,441.641,88.664Z" transform="translate(-311.863 -57.395)" fill="#503a33"/>
            <path id="Trazado_1079755" data-name="Trazado 1079755" d="M467.3,209.381a32.239,32.239,0,0,1-1.985-20.106c1.132-4.99,3.441-9.639,4.737-14.589s1.437-10.59-1.474-14.8c-3.326-4.807-10.106-7.025-11.895-12.59-1.937-6.026,3.064-11.784,5.716-17.532a24.68,24.68,0,0,0-35.22-31.43" transform="translate(-278.503 -52.282)" fill="none" stroke="#503a33" stroke-linecap="round" stroke-linejoin="round" stroke-miterlimit="10" stroke-width="0.438"/>
            <path id="Trazado_1079756" data-name="Trazado 1079756" d="M384.18,80.751c-5.328.356-10.742.729-15.757,2.567s-9.664,5.377-11.572,10.365c-1.585,4.144-1.135,8.779-2.135,13.1-1.642,7.1-6.959,12.657-11.78,18.119s-9.57,11.794-9.635,19.079c-.065,7.409,4.726,15.148,1.466,21.8-1.848,3.772-5.8,5.952-8.794,8.9-7.459,7.342-8.2,20.452-1.617,28.589" transform="translate(-319.861 -57.739)" fill="none" stroke="#503a33" stroke-linecap="round" stroke-linejoin="round" stroke-miterlimit="10" stroke-width="0.438"/>
          </g>
        </g>
        <g id="Grupo_1209121" data-name="Grupo 1209121" clip-path="url(#clip-path-2)">
          <path id="Trazado_1079758" data-name="Trazado 1079758" d="M320.529,245.073a.3.3,0,0,1-.285-.217,86.154,86.154,0,0,0-5.451-13.866.3.3,0,1,1,.528-.27,86.966,86.966,0,0,1,5.494,13.977.3.3,0,0,1-.205.364A.284.284,0,0,1,320.529,245.073Z" transform="translate(-247.838 20.82)" fill="#503a33"/>
        </g>
      </g>
      <g id="Grupo_1209124" data-name="Grupo 1209124" transform="translate(257.533 139.099)">
        <path id="Trazado_1079760" data-name="Trazado 1079760" d="M266.409,114.072h65.372c4.019,0,8.305.2,8.305,6.047s.907,42.286.1,47.8c-.669,4.584-3.049,6.812-12.962,7.006s-54.659-.137-59.746,0c-3.215.087-9.243.087-9.645-6.827-.409-7.04-.3-40.668-.256-47.007C257.537,113.584,266.409,114.072,266.409,114.072Z" transform="translate(-257.533 -114.065)" fill="#e9c1d9"/>
        <path id="Trazado_1079761" data-name="Trazado 1079761" d="M290.131,156.074s.521,10.43,4.694,18.254c0,0-13.3-2.347-17.472-20.08Z" transform="translate(-249.895 -98.58)" fill="#e9c1d9"/>
        <g id="Grupo_1209123" data-name="Grupo 1209123" transform="translate(18.043 38.418)">
          <path id="Trazado_1079762" data-name="Trazado 1079762" d="M271.339,149.551c.755,0,5.454.085,6.166.01.592-.062.878-.287.9-1.218s-.018-5.133,0-5.611c.011-.3.011-.869-.881-.906-.907-.039-5.245-.028-6.064-.024a.79.79,0,0,0-.906.828v6.139c0,.377.028.781.781.781" transform="translate(-270.556 -141.796)" fill="#fff"/>
          <path id="Trazado_1079763" data-name="Trazado 1079763" d="M284.649,142.631v6.139c0,.377.025.78.78.78s5.454.085,6.166.01c.592-.062.878-.287.9-1.218s-.018-5.133,0-5.611c.011-.3.011-.869-.881-.906-.907-.039-5.246-.028-6.064-.024A.791.791,0,0,0,284.649,142.631Z" transform="translate(-265.126 -141.797)" fill="#fff"/>
          <path id="Trazado_1079764" data-name="Trazado 1079764" d="M298.741,142.631v6.139c0,.377.025.78.78.78s5.454.085,6.166.01c.592-.062.878-.287.9-1.218s-.018-5.133,0-5.611c.011-.3.011-.869-.881-.906-.907-.039-5.245-.028-6.064-.024A.79.79,0,0,0,298.741,142.631Z" transform="translate(-259.695 -141.797)" fill="#fff"/>
        </g>
      </g>
    </g>
  </g>
</svg>
