<svg xmlns="http://www.w3.org/2000/svg" xmlns:xlink="http://www.w3.org/1999/xlink" width="400" height="271" viewBox="0 0 400 271">
  <defs>
    <clipPath id="clip-path">
      <rect id="Rectángulo_417859" data-name="Rectángulo 417859" width="400" height="271" transform="translate(180 1746)" fill="#fff" stroke="#707070" stroke-width="1"/>
    </clipPath>
  </defs>
  <g id="Enmascarar_grupo_1098878" data-name="Enmascarar grupo 1098878" transform="translate(-180 -1746)" clip-path="url(#clip-path)">
    <g id="Grupo_1209253" data-name="Grupo 1209253" transform="translate(-22.515)">
      <circle id="Elipse_13134" data-name="Elipse 13134" cx="166.5" cy="166.5" r="166.5" transform="translate(236 1798)" fill="#f5fcec"/>
      <g id="OBJECT" transform="translate(244.366 1683.489)">
        <g id="Grupo_1209218" data-name="Grupo 1209218" transform="translate(24.485 72.539)">
          <path id="Trazado_1080131" data-name="Trazado 1080131" d="M168.594,102.36V233H47.945V72.539H135.18Z" transform="translate(-47.945 -72.539)" fill="#fcf4ec"/>
          <g id="Grupo_1209209" data-name="Grupo 1209209" transform="translate(7.672 57.067)">
            <g id="Grupo_1209208" data-name="Grupo 1209208">
              <g id="Grupo_1209197" data-name="Grupo 1209197">
                <g id="Grupo_1209196" data-name="Grupo 1209196">
                  <path id="Trazado_1080132" data-name="Trazado 1080132" d="M164.545,160.128H60.2a.662.662,0,0,1,0-1.323h104.34a.662.662,0,0,1,0,1.323Z" transform="translate(-59.543 -158.805)" fill="#847972"/>
                </g>
              </g>
              <g id="Grupo_1209199" data-name="Grupo 1209199" transform="translate(0 13.917)">
                <g id="Grupo_1209198" data-name="Grupo 1209198">
                  <path id="Trazado_1080133" data-name="Trazado 1080133" d="M164.545,181.166H60.2a.662.662,0,1,1,0-1.323h104.34a.662.662,0,1,1,0,1.323Z" transform="translate(-59.543 -179.843)" fill="#847972"/>
                </g>
              </g>
              <g id="Grupo_1209201" data-name="Grupo 1209201" transform="translate(0 27.835)">
                <g id="Grupo_1209200" data-name="Grupo 1209200">
                  <path id="Trazado_1080134" data-name="Trazado 1080134" d="M164.545,202.205H60.2a.662.662,0,1,1,0-1.323h104.34a.662.662,0,1,1,0,1.323Z" transform="translate(-59.543 -200.882)" fill="#847972"/>
                </g>
              </g>
              <g id="Grupo_1209203" data-name="Grupo 1209203" transform="translate(0 41.753)">
                <g id="Grupo_1209202" data-name="Grupo 1209202">
                  <path id="Trazado_1080135" data-name="Trazado 1080135" d="M164.545,223.244H60.2a.662.662,0,1,1,0-1.323h104.34a.662.662,0,1,1,0,1.323Z" transform="translate(-59.543 -221.921)" fill="#847972"/>
                </g>
              </g>
              <g id="Grupo_1209205" data-name="Grupo 1209205" transform="translate(0 55.67)">
                <g id="Grupo_1209204" data-name="Grupo 1209204">
                  <path id="Trazado_1080136" data-name="Trazado 1080136" d="M164.545,244.282H60.2a.662.662,0,1,1,0-1.323h104.34a.662.662,0,1,1,0,1.323Z" transform="translate(-59.543 -242.959)" fill="#847972"/>
                </g>
              </g>
              <g id="Grupo_1209207" data-name="Grupo 1209207" transform="translate(0 69.588)">
                <g id="Grupo_1209206" data-name="Grupo 1209206">
                  <path id="Trazado_1080137" data-name="Trazado 1080137" d="M164.545,265.321H60.2a.662.662,0,0,1,0-1.323h104.34a.662.662,0,0,1,0,1.323Z" transform="translate(-59.543 -263.998)" fill="#847972"/>
                </g>
              </g>
            </g>
          </g>
          <g id="Grupo_1209211" data-name="Grupo 1209211" transform="translate(44.252 41.663)">
            <g id="Grupo_1209210" data-name="Grupo 1209210">
              <path id="Trazado_1080138" data-name="Trazado 1080138" d="M183.261,136.843H115.5a.662.662,0,1,1,0-1.323h67.76a.662.662,0,1,1,0,1.323Z" transform="translate(-114.839 -135.52)" fill="#847972"/>
            </g>
          </g>
          <g id="Grupo_1209213" data-name="Grupo 1209213" transform="translate(44.252 32.862)">
            <g id="Grupo_1209212" data-name="Grupo 1209212">
              <path id="Trazado_1080139" data-name="Trazado 1080139" d="M183.261,123.538H115.5a.662.662,0,1,1,0-1.323h67.76a.662.662,0,1,1,0,1.323Z" transform="translate(-114.839 -122.215)" fill="#847972"/>
            </g>
          </g>
          <g id="Grupo_1209215" data-name="Grupo 1209215" transform="translate(44.252 24.06)">
            <g id="Grupo_1209214" data-name="Grupo 1209214">
              <path id="Trazado_1080140" data-name="Trazado 1080140" d="M183.261,110.233H115.5a.662.662,0,1,1,0-1.323h67.76a.662.662,0,1,1,0,1.323Z" transform="translate(-114.839 -108.91)" fill="#847972"/>
            </g>
          </g>
          <g id="Grupo_1209217" data-name="Grupo 1209217" transform="translate(44.249 15.507)">
            <g id="Grupo_1209216" data-name="Grupo 1209216">
              <path id="Trazado_1080141" data-name="Trazado 1080141" d="M171.795,97.3H115.5a.662.662,0,0,1,0-1.323h56.3a.662.662,0,0,1,0,1.323Z" transform="translate(-114.835 -95.981)" fill="#847972"/>
            </g>
          </g>
          <path id="Trazado_1080142" data-name="Trazado 1080142" d="M212.464,103.311l-31.97,18.206a2.018,2.018,0,0,1-2.936-1.865l1.492-44.3Z" transform="translate(-91.816 -73.49)" fill="#efe0d3"/>
          <path id="Trazado_1080143" data-name="Trazado 1080143" d="M212.464,102.36l-31.97,16.348a2.018,2.018,0,0,1-2.936-1.865l1.492-44.3Z" transform="translate(-91.816 -72.539)" fill="#fffbf8"/>
        </g>
        <text id="A" transform="translate(36.763 115.396)" fill="#847972" font-size="38" font-family="SegoeUI, Segoe UI"><tspan x="0" y="0">A</tspan></text>
        <path id="Trazado_1080144" data-name="Trazado 1080144" d="M360.9,126.255c-3.613-2.712-7.265,5.65-8.686,9.425a66.136,66.136,0,0,0-3.38-17.921c2.083-1.361,9.037-6.163,5.638-7.487-3.1-1.208-5.144,4.257-5.89,6.711a76.483,76.483,0,0,0-4.187-9.74c-.942-4.228-3.333-12.283-7.506-9.791-4.589,2.741,3.753,9.224,6.869,11.446a73.526,73.526,0,0,1,3.749,9.073c-2.42-.456-9.8-1.587-9.512,1.629.294,3.267,7.5-.084,9.663-1.164a64.839,64.839,0,0,1,3.24,18c-2.028-2.823-7.918-10.494-9.924-7.314-2.1,3.333,7.314,7.1,9.948,8.069a75.5,75.5,0,0,1-2.429,20.333c-1.6-3.177-7.094-13.334-10.936-10.76-4.008,2.686,7.938,9.736,10.786,11.348a178.832,178.832,0,0,1-8.268,23.3c-.29.708-.576,1.4-.857,2.1-.269-4.93-1.6-19.524-7.966-17.376-6.818,2.3,4.944,15.618,7.535,18.437-.781,1.924-1.527,3.794-2.212,5.622-2.29,6.108-5.3,14.233-8.438,22.706-.222-6.829-1.459-30.429-7.842-20.278-6.571,10.451,4.658,19.676,7.33,21.662-3.472,9.394-7.049,19.1-9.914,26.893-.456-9.057-7.985-25.912-10-24.892-2.178,1.1-2.968,4.26-.224,13.949a20.7,20.7,0,0,0,9.61,12.623c-3.046,8.282-5.151,14.018-5.21,14.178a.662.662,0,0,0,1.242.455c.06-.162,2.212-6.029,5.316-14.467,4.793-.877,30.611-5.916,22.485-11.37-7.375-4.95-18.383,6.08-22.019,10.1,2.9-7.893,6.546-17.782,10.072-27.32,4.312-1.355,24.449-7.956,16.688-10.768-6.515-2.36-13.11,5.043-15.987,8.872,3.024-8.176,5.918-15.972,8.133-21.883.677-1.806,1.416-3.659,2.189-5.565,3.812-.079,21.612-.732,18.448-6.05-2.992-5.029-14.624,2.776-18.148,5.31.327-.8.659-1.612,1-2.437,2.978-7.265,6.211-15.168,8.4-23.713,3.484-1.174,17.788-6.3,13.1-9.925-4.142-3.205-10.237,4.753-12.73,8.429a75.63,75.63,0,0,0,2.19-19.653C354.967,135.454,364.906,129.262,360.9,126.255Z" transform="translate(-110.713 -8.274)" fill="#a7c0d3"/>
        <g id="Grupo_1209219" data-name="Grupo 1209219" transform="translate(214.326 151.115)">
          <path id="Trazado_1080145" data-name="Trazado 1080145" d="M338.975,300.068s14.532-33.666,19.969-31.956-1.541,11.12,1.746,12.867,14.31-37.1,20.225-36.429-.941,13.846,2.016,14.786,6.587-33.23,11.426-33.821,1.344,7.205,4.436,7.877.4-26.836,5.78-27.667,1.344,6.025,3.361,6.294,4.839-20.567,8.737-20.7-.425,24.5,2.317,25.257,6.144-4.159,9.263-2.836-11.153,26.37-9.641,28.072,8.413-2.931,10.4,0-21.929,27.885-19,30.909,9.641-3.781,12.572-1.7-16.809,28.025-27.619,34.87,15.509-1.461,17.546,2.3-22.475,19.168-56.282,24.112S338.975,300.068,338.975,300.068Z" transform="translate(-334.921 -191.319)" fill="#a7c0d3"/>
          <path id="Trazado_1080146" data-name="Trazado 1080146" d="M342.747,332.195a.662.662,0,0,1-.351-1.223c29.395-18.352,48-50.156,58.43-73.606a254.67,254.67,0,0,0,15.767-47.034.662.662,0,0,1,1.3.263,256.133,256.133,0,0,1-15.844,47.282C391.54,281.5,372.784,313.56,343.1,332.094A.654.654,0,0,1,342.747,332.195Z" transform="translate(-337.346 -197.575)" fill="#859ba8"/>
        </g>
        <g id="Grupo_1209220" data-name="Grupo 1209220" transform="translate(12.668 200.963)">
          <path id="Trazado_1080147" data-name="Trazado 1080147" d="M157.309,357.412l-33.169,3.612-29.233,3.182-27.017,2.937-29.6,3.222a326.815,326.815,0,0,1-6.655-35.59c-.278-2.243-.529-4.485-.741-6.708-1.819-19.012-.939-36.933,6.6-44.269,6.146-5.987,16.889-9.87,27.638-12.377a181.216,181.216,0,0,1,20.792-3.46c7.164-.794,12.093-.979,12.093-.979C128.632,261.828,148.5,322.549,157.309,357.412Z" transform="translate(-30.084 -266.673)" fill="#847972"/>
          <path id="Trazado_1080148" data-name="Trazado 1080148" d="M88.372,327.6c-13.52,5.671-24.55,5.856-33.018,3.927-.069-.1-22.87-31.858,1.721-50.5a48.989,48.989,0,0,0,8.051-7.184c-10.75,2.507-21.493,6.39-27.638,12.377-7.535,7.336-8.415,25.257-6.6,44.269q.144,1.5.31,3.006c.069.628.143,1.257.217,1.886.038.317.073.634.112.951.035.288.066.576.1.865h.008a325.888,325.888,0,0,0,6.647,35.59l29.6-3.222,27.017-2.937,29.233-3.182,2.759-55.515S123.7,312.786,88.372,327.6Z" transform="translate(-30.084 -269.102)" fill="#685e59"/>
          <path id="Trazado_1080149" data-name="Trazado 1080149" d="M98.009,267.139v2.838s-9.678,1.092-28.882,5.583-36.225,9.2-31.092,36.384C42.19,333.907,60.871,358.621,67.89,367.3l-29.6,3.222c-6.483-26.54-14.269-73.449-.8-86.567C53.019,268.819,98.009,267.139,98.009,267.139Z" transform="translate(-30.082 -266.831)" fill="#a39890"/>
          <path id="Trazado_1080150" data-name="Trazado 1080150" d="M49.42,370.379c-10.075-30.245-19.4-69.434-8.838-82.082,11.59-13.892,55.905-18.629,55.905-18.629" transform="translate(-32.06 -267.687)" fill="none" stroke="#847972" stroke-miterlimit="10" stroke-width="1"/>
        </g>
        <g id="Grupo_1209224" data-name="Grupo 1209224" transform="translate(-21.366 290.193)">
          <g id="Grupo_1209221" data-name="Grupo 1209221">
            <path id="Trazado_1080151" data-name="Trazado 1080151" d="M-21.366,429.124v58.163L38,524.506l-.449-60.18Z" transform="translate(21.366 -410.889)" fill="#93867a"/>
            <path id="Trazado_1080152" data-name="Trazado 1080152" d="M68.147,537.568l298.623-22.1V451.026L67.7,471.74Z" transform="translate(-8.78 -418.302)" fill="#93867a"/>
            <path id="Trazado_1080153" data-name="Trazado 1080153" d="M-21.366,419.794,37.552,455l300.112-20.714-86.25-32.724Z" transform="translate(21.366 -401.559)" fill="#ad9f90"/>
            <ellipse id="Elipse_13126" data-name="Elipse 13126" cx="34.362" cy="4" rx="34.362" ry="4" transform="translate(145.153 34.01)" fill="#93867a"/>
            <path id="Trazado_1080154" data-name="Trazado 1080154" d="M390.991,432.574l-46.108,4.048L337.4,429.55l-7.985-7.541,34.876-7.29,8,5.345Z" transform="translate(-97.366 -406.013)" fill="#93867a"/>
            <path id="Trazado_1080155" data-name="Trazado 1080155" d="M390.622,418.84l24.86-3.861-3.078-1.168-18.646-1.672-5.829,4.451-1.183,1.866Z" transform="translate(-116.77 -405.14)" fill="#93867a"/>
            <path id="Trazado_1080156" data-name="Trazado 1080156" d="M247.333,429.234l32.237,13.833,28.975-11.457-7.883-9.771Z" transform="translate(-69.582 -408.423)" fill="#93867a"/>
            <path id="Trazado_1080157" data-name="Trazado 1080157" d="M164.362,415.269l97.11-.3,50-6.12-3.261-4.77-6.026-1.654L165.58,412.848Z" transform="translate(-41.499 -401.853)" fill="#93867a"/>
            <path id="Trazado_1080158" data-name="Trazado 1080158" d="M40.513,436.256l33.593,19.691,75.523-9.454-8.333-4.008Z" transform="translate(0.421 -413.303)" fill="#93867a"/>
          </g>
          <g id="Grupo_1209222" data-name="Grupo 1209222" transform="translate(230.978 8.355)">
            <path id="Trazado_1080159" data-name="Trazado 1080159" d="M389.37,432.044l-46.108,4.049-7.482-7.072-7.985-7.541,34.876-7.29,8,5.345Z" transform="translate(-327.795 -414.189)" fill="#efe0d3"/>
            <path id="Trazado_1080160" data-name="Trazado 1080160" d="M370.668,419.534l-12.483,1.343-6.893-.708L335.78,429.02l-7.985-7.541,34.876-7.29Z" transform="translate(-327.795 -414.189)" fill="#dbc2af"/>
            <line id="Línea_665" data-name="Línea 665" y1="3.821" x2="37.744" transform="translate(16.939 15.713)" fill="none" stroke="#dbc2af" stroke-linecap="round" stroke-linejoin="round" stroke-miterlimit="10" stroke-width="0.5"/>
            <line id="Línea_666" data-name="Línea 666" y1="1.713" x2="15.681" transform="translate(36.535 13.999)" fill="none" stroke="#dbc2af" stroke-linecap="round" stroke-linejoin="round" stroke-miterlimit="10" stroke-width="0.5"/>
            <line id="Línea_667" data-name="Línea 667" y1="1.544" x2="14.538" transform="translate(35.811 12.455)" fill="none" stroke="#dbc2af" stroke-linecap="round" stroke-linejoin="round" stroke-miterlimit="10" stroke-width="0.5"/>
            <line id="Línea_668" data-name="Línea 668" y1="4.119" x2="33.607" transform="translate(11.917 9.88)" fill="none" stroke="#dbc2af" stroke-linecap="round" stroke-linejoin="round" stroke-miterlimit="10" stroke-width="0.5"/>
          </g>
          <g id="Grupo_1209223" data-name="Grupo 1209223" transform="translate(206.552 3.48)">
            <path id="Trazado_1080161" data-name="Trazado 1080161" d="M430.181,413.806l-2.507-.371v.815l2.507-.161Z" transform="translate(-337.176 -409.058)" fill="#ba5e20"/>
            <path id="Trazado_1080162" data-name="Trazado 1080162" d="M344.2,413.524v4.359l-53.064-5.741-.266-2.905Z" transform="translate(-290.871 -407.637)" fill="#ba5e20"/>
            <path id="Trazado_1080163" data-name="Trazado 1080163" d="M371.488,419.513l39.676-5.18v-.282L371.488,419.1Z" transform="translate(-318.158 -409.267)" fill="#ba5e20"/>
            <path id="Trazado_1080164" data-name="Trazado 1080164" d="M371.488,413.38l38.829-4.567v3.573l-38.829,4.944Z" transform="translate(-318.158 -407.494)" fill="#efe0d3"/>
            <path id="Trazado_1080165" data-name="Trazado 1080165" d="M383.032,408.135,344.2,412.707l-23.074-1.852-30.251-2.434,27.552-1.6,47.22.959Z" transform="translate(-290.872 -406.819)" fill="#fcf4ec"/>
            <path id="Trazado_1080166" data-name="Trazado 1080166" d="M365.647,407.778a33.6,33.6,0,0,1-5.391,2.56c-3.81,1.376-15.843,0-15.843,0l-23.286.516-30.251-2.434,27.552-1.6Z" transform="translate(-290.872 -406.819)" fill="#efe0d3"/>
          </g>
        </g>
        <g id="Grupo_1209228" data-name="Grupo 1209228" transform="translate(51.711 183.638)">
          <g id="Grupo_1209225" data-name="Grupo 1209225" transform="translate(145.742 45.964)">
            <path id="Trazado_1080167" data-name="Trazado 1080167" d="M359.188,371.268l-7.482,12.7H338.595l-29.18-8.315s8.8-12.542,23.669-14.223c.622-.073,1.25-.119,1.892-.152C334.976,361.279,353.962,368.4,359.188,371.268Z" transform="translate(-309.415 -327.334)" fill="#eab7b7"/>
            <path id="Trazado_1080168" data-name="Trazado 1080168" d="M346.771,383.969h-8.176l-29.18-8.315s8.8-12.542,23.669-14.223l1.892-.152s-11.345,6.073-12.5,10.7c0,0,15.433,7.184,23.683,9.506Z" transform="translate(-309.415 -327.334)" fill="#e0a2a2"/>
            <path id="Trazado_1080169" data-name="Trazado 1080169" d="M386.269,380.542a37.668,37.668,0,0,0-.238,5.391,4.505,4.505,0,0,1-1.29,2.712,23.016,23.016,0,0,1-2.851,2.825c-2.011,1.7-4.293,3.288-5.53,3.288a25.7,25.7,0,0,1-6.192-1.164c-.734-.423-1.548-2.745.192-3.248,0,0-.265-.033-.642-.093a12.834,12.834,0,0,1-2.448-.529c-.662-.3-.2-1.389-.2-1.389a6.335,6.335,0,0,1-.972.026h-.007c-.867-.053-2.024-.3-2.19-1.3a4.794,4.794,0,0,1,.251-2.686l-.04.02c-.053.026-.146.073-.271.132-.5.232-1.515.6-2.09.238a2.151,2.151,0,0,1-.767-1.482,2.838,2.838,0,0,1-.04-.41s-.033-.046-.086-.139c-.767-1.2-6.119-9.87-4.492-12.933a2.025,2.025,0,0,1,.331-.45c1.568-1.568,5.689-3.235,9.44-4.624.582-.212,1.158-.417,1.707-.615,2.117-.761,3.936-1.4,4.842-1.826a3.934,3.934,0,0,1,5.53-.6c3.222,2.315,1.508,3.976,3.572,5.431s3.169,1.865,3.824,3.222-.5,3.619,0,5.63A12.11,12.11,0,0,1,386.269,380.542Z" transform="translate(-325.204 -327.168)" fill="#efd3ca"/>
            <path id="Trazado_1080170" data-name="Trazado 1080170" d="M363.4,385.746a4.861,4.861,0,0,1,1.333-3.666l5.6-9.39,2.1-3.411s-6.19,1.684-7.369,2.948S363.04,382,363.4,385.746Z" transform="translate(-327.66 -330.042)" fill="#e0a2a2"/>
            <path id="Trazado_1080171" data-name="Trazado 1080171" d="M377.1,379.73l-4.429,4.963-6.058,6.083-.007.007-.04.02c-.258.139-1.647.827-2.362.37-.787-.516-.807-1.892-.807-1.892s-.033-.046-.086-.139v-.377a4.173,4.173,0,0,1,1.422-3.149s1.224,2.679,5.246,0A50.661,50.661,0,0,0,377.1,379.73Z" transform="translate(-327.656 -333.579)" fill="#e0a2a2"/>
            <path id="Trazado_1080172" data-name="Trazado 1080172" d="M383.137,388.129a50.376,50.376,0,0,1-12.093,9.46s-2.9.344-3.169-1.277a4.793,4.793,0,0,1,.251-2.686l-.04.02c-.053.026-.146.073-.271.132a3.909,3.909,0,0,1,1.945-1.793c-.053.192-.939,3.334,1.158,4.121C373.042,396.9,382.846,388.38,383.137,388.129Z" transform="translate(-329.176 -336.422)" fill="#e0a2a2"/>
            <path id="Trazado_1080173" data-name="Trazado 1080173" d="M384.3,401.156l-1.3.867-4.77,1.363-2.739.357a18.36,18.36,0,0,1-3.089-.622c-.662-.3-.2-1.389-.2-1.389a6.335,6.335,0,0,1-.972.026l.324-.741,2.474-.648s-.966,1.508-.463,2.335S380.569,402.956,384.3,401.156Z" transform="translate(-330.34 -340.565)" fill="#e0a2a2"/>
            <path id="Trazado_1080174" data-name="Trazado 1080174" d="M391.526,402.9a23.026,23.026,0,0,1-2.851,2.825c-2.011,1.7-4.293,3.288-5.53,3.288a25.7,25.7,0,0,1-6.192-1.164c-.734-.423-1.548-2.745.192-3.248,0,0-.265-.033-.642-.093l.265-.331a35.518,35.518,0,0,0,7.27-1.052,4.55,4.55,0,0,0-2.778,3.149c-.417,2.487,4.359.913,6.926-.794A36.167,36.167,0,0,0,391.526,402.9Z" transform="translate(-331.988 -341.421)" fill="#e0a2a2"/>
            <path id="Trazado_1080175" data-name="Trazado 1080175" d="M377.11,373.965s.806,2.237,4.511,2.952C381.62,376.917,377.762,378.043,377.11,373.965Z" transform="translate(-332.328 -331.628)" fill="#e0a2a2"/>
            <path id="Trazado_1080176" data-name="Trazado 1080176" d="M384.4,381.725a4.325,4.325,0,0,0,3.218,4.236S383.765,386.934,384.4,381.725Z" transform="translate(-334.772 -334.254)" fill="#e0a2a2"/>
            <path id="Trazado_1080177" data-name="Trazado 1080177" d="M386.568,394.171a4.21,4.21,0,0,0,2.758,4.887S384.587,399.12,386.568,394.171Z" transform="translate(-335.366 -338.467)" fill="#e0a2a2"/>
            <path id="Trazado_1080178" data-name="Trazado 1080178" d="M384.157,375.861s3.007-3.353,3.6-5.183a14.451,14.451,0,0,1,.916-2.379" transform="translate(-334.713 -329.71)" fill="none" stroke="#e0a2a2" stroke-linecap="round" stroke-linejoin="round" stroke-miterlimit="10" stroke-width="0.5"/>
            <line id="Línea_669" data-name="Línea 669" y1="5.753" x2="4.664" transform="translate(53.96 45.954)" fill="none" stroke="#e0a2a2" stroke-linecap="round" stroke-linejoin="round" stroke-miterlimit="10" stroke-width="0.5"/>
            <path id="Trazado_1080179" data-name="Trazado 1080179" d="M390.985,399.441s3.476-3.613,4.207-4.139" transform="translate(-337.025 -338.85)" fill="none" stroke="#e0a2a2" stroke-linecap="round" stroke-linejoin="round" stroke-miterlimit="10" stroke-width="0.5"/>
            <path id="Trazado_1080180" data-name="Trazado 1080180" d="M363.38,380.938l-1.429,4.988-.516,1.985-.45-.02a2.836,2.836,0,0,1-.04-.41s-.033-.046-.086-.139c-.767-1.2-6.119-9.87-4.492-12.933a19.114,19.114,0,0,0,2.851,5.656C361.277,382.6,363.38,380.938,363.38,380.938Z" transform="translate(-325.204 -331.778)" fill="#e0a2a2"/>
            <path id="Trazado_1080181" data-name="Trazado 1080181" d="M359.247,372.233a8.228,8.228,0,0,1,3.2,0S361.6,371.168,359.247,372.233Z" transform="translate(-326.282 -330.881)" fill="#e0a2a2"/>
            <path id="Trazado_1080182" data-name="Trazado 1080182" d="M372.47,365.809l-1.667,3.936-1.078.476,1.039-3.8C371.346,366.213,371.921,366.007,372.47,365.809Z" transform="translate(-329.829 -328.867)" fill="#e0a2a2"/>
            <path id="Trazado_1080183" data-name="Trazado 1080183" d="M394.315,312.626l.648-1.92a1.088,1.088,0,0,1,1.367-.687h0a1.088,1.088,0,0,1,.681,1.422l-.734,1.926Z" transform="translate(-338.152 -309.965)" fill="#6477be"/>
            <path id="Trazado_1080184" data-name="Trazado 1080184" d="M364.236,364.316l19.1-50.952s2.673-.486,3.523,1.762l-12.272,32.433Z" transform="translate(-327.971 -311.101)" fill="#6477be"/>
            <path id="Trazado_1080185" data-name="Trazado 1080185" d="M393.774,319.826l1.531.562a1,1,0,0,1,.589,1.3l-5.4,14.039a.658.658,0,0,1-.9.357h0a.659.659,0,0,1-.332-.821l4.688-12.736-1.292-.49Z" transform="translate(-336.427 -313.303)" fill="#6477be"/>
            <path id="Trazado_1080186" data-name="Trazado 1080186" d="M386.555,324.569a2.134,2.134,0,0,1-.394-.872c0-.332,4.027-10.2,4.027-10.2a1.385,1.385,0,0,1,.568-.133,3.6,3.6,0,0,1,2.043.22,2.772,2.772,0,0,1,1.479,1.541l.135.371-3.591,9.858-.576.43Z" transform="translate(-335.392 -311.098)"/>
          </g>
          <path id="Trazado_1080187" data-name="Trazado 1080187" d="M89.731,392.778c-1.566,4.028-3.133,12.376,34.23,4.832s20.477-23.172,8.8-20.837S92,386.948,89.731,392.778Z" transform="translate(-89.102 -286.534)" fill="#c19d36"/>
          <g id="Grupo_1209226" data-name="Grupo 1209226" transform="translate(0.63 0)">
            <path id="Trazado_1080188" data-name="Trazado 1080188" d="M235.167,335.605l5.471,10.928-92.964,11.173L143,331.034c-28.584,0-52.948,16.531-52.948,16.531s6.159-36.337,10.26-51.533,9.447-32.435,15.81-39.969,45.182-13.1,45.182-13.1,28.611,3.261,48.973,10.961c5.034,1.905,10.67,6.986,16.287,13.555,17.12,19.985,34.161,53.755,34.161,53.755C245.8,323.413,235.167,335.605,235.167,335.605Z" transform="translate(-90.055 -241.321)" fill="#f3c83d"/>
            <path id="Trazado_1080189" data-name="Trazado 1080189" d="M277.265,287.1l11.587,27.381,4.239,11.2.572,27.072h-1.225l-1.3-26.53L286.818,315.2l-7.064-13.873s-6.663-7.011-7.543-8.406,6.458,4.742,6.458,4.742S274.2,285.08,277.265,287.1Z" transform="translate(-151.686 -256.188)" fill="#e5b93c"/>
            <path id="Trazado_1080190" data-name="Trazado 1080190" d="M331.251,351.727s-20.788-3.341-32.842-18.669l2.9,12.441.429,20.755,3.955-.152A45.413,45.413,0,0,1,331.251,351.727Z" transform="translate(-160.578 -271.817)" fill="#e5b93c"/>
            <path id="Trazado_1080191" data-name="Trazado 1080191" d="M159.648,317.578s7.025,36.526,14.237,39.931-5.258,4.743-5.258,4.743l-10.635-12.767-2.908-22.258Z" transform="translate(-112.066 -266.578)" fill="#e5b93c"/>
            <path id="Trazado_1080192" data-name="Trazado 1080192" d="M263.024,267.475c-4.353,5.94-11.147,9.929-21.7,9.182-35.048-2.481-43.561-33.7-43.561-33.7s28.611,3.261,48.973,10.961C251.772,255.826,257.408,260.906,263.024,267.475Z" transform="translate(-126.512 -241.321)" fill="#e5b93c" opacity="0.46"/>
            <path id="Trazado_1080193" data-name="Trazado 1080193" d="M117.282,284.711s-5.147,31.815-3.275,53.8C114.007,338.515,106.287,312.315,117.282,284.711Z" transform="translate(-97.271 -255.453)" fill="#e5b93c"/>
            <path id="Trazado_1080194" data-name="Trazado 1080194" d="M163.042,343.394s-4.3-40.108-7.092-49.2,1.455,13.334,1.455,13.334-7.529-20.976-8.82-19.577,7.529,20.438,8.713,24.095S161.58,336.127,163.042,343.394Z" transform="translate(-109.823 -256.527)" fill="#e5b93c"/>
            <path id="Trazado_1080195" data-name="Trazado 1080195" d="M218.971,372.27s24.564-11.329,41.336-8.367C260.307,363.9,242.9,353.915,218.971,372.27Z" transform="translate(-133.69 -281.34)" fill="#e5b93c"/>
            <path id="Trazado_1080196" data-name="Trazado 1080196" d="M287.307,307.4l10.917,25.227.67,24.939" transform="translate(-156.82 -263.134)" fill="none" stroke="#c19d36" stroke-linecap="round" stroke-linejoin="round" stroke-miterlimit="10" stroke-width="1"/>
            <path id="Trazado_1080197" data-name="Trazado 1080197" d="M139.653,300.832c2.421,7.433,7.022,49.791,7.022,49.791a97.832,97.832,0,0,0-45.772,12.35" transform="translate(-93.727 -260.91)" fill="none" stroke="#c19d36" stroke-linecap="round" stroke-linejoin="round" stroke-miterlimit="10" stroke-width="1"/>
            <path id="Trazado_1080198" data-name="Trazado 1080198" d="M151.471,249.9s17.9-7.451,33.729-6.742l-2.619,1.59s.6,24.007,15.612,27.8c0,0-.054,10.7-12.1,11.472S156.864,272.945,151.471,249.9Z" transform="translate(-110.843 -241.374)" fill="#e5b93c"/>
            <path id="Trazado_1080199" data-name="Trazado 1080199" d="M243.3,282.582a10.569,10.569,0,0,1-5.98,2.977c-13.9,2.024-15.215-7.991-15.215-7.991a11.889,11.889,0,0,0,5.186-1.1c9.063-4.035,14.911-17.795,14.911-17.795l5.557-.542,1.918-.185s.02.284.033.794C249.8,262.213,249.772,276.264,243.3,282.582Z" transform="translate(-134.749 -246.392)" fill="#e5b93c"/>
            <path id="Trazado_1080200" data-name="Trazado 1080200" d="M150.736,247.272s17.9-7.451,33.729-6.742l-2.619,1.59s.6,24.007,15.612,27.8c0,0-.054,10.7-12.1,11.472S156.13,270.314,150.736,247.272Z" transform="translate(-110.594 -240.483)" fill="#e55c3a"/>
            <path id="Trazado_1080201" data-name="Trazado 1080201" d="M242.56,279.951a10.57,10.57,0,0,1-5.98,2.977c-13.9,2.024-15.215-7.991-15.215-7.991a11.89,11.89,0,0,0,5.186-1.1c9.063-4.035,14.911-17.795,14.911-17.795l5.557-.542,1.918-.185s.02.284.033.794C249.07,259.582,249.037,273.633,242.56,279.951Z" transform="translate(-134.5 -245.501)" fill="#e55c3a"/>
            <path id="Trazado_1080202" data-name="Trazado 1080202" d="M245.214,280.046a47.616,47.616,0,0,1-16.009-6.119c9.063-4.035,14.911-17.795,14.911-17.795l5.557-.542c.655.2,1.3.4,1.952.609C251.723,259.677,251.69,273.728,245.214,280.046Z" transform="translate(-137.154 -245.596)" fill="#af4b37"/>
            <circle id="Elipse_13127" data-name="Elipse 13127" cx="3.986" cy="3.986" r="3.986" transform="translate(84.817 28.686)" fill="#fcf4ec"/>
          </g>
          <g id="Grupo_1209227" data-name="Grupo 1209227" transform="translate(19.245 89.713)">
            <path id="Trazado_1080203" data-name="Trazado 1080203" d="M280.017,392.789c0,.007-.007.007-.007.013-.893,1.363-3.579.43-5.233-.318l-.271-.126-.026-.013c-.476-.225-.833-.417-.979-.5l3.89,2.382c1.369,1.5.549,3.1-1.138,3.751a4.389,4.389,0,0,1-1.283.3c-2.355.205-7.78-2.282-8.276-2.507,1.654,1.4,1.052,2.752-.318,3.341a4.026,4.026,0,0,1-2.077.271c-2.527-.318-13.733-3.248-13.733-3.248-.549.119-1.76.357-3.241.628l-.013.007c-2.759.516-6.47,1.178-8.739,1.508-.774.112-1.383.185-1.727.205-1.885.1-13.74-.284-13.74-.284l-37.588,3.6s-51.189,4.393-57.85.972c-4.492-2.309-7.793-12.92-9.473-19.588,9.341-3.7,21.4-7.085,34.333-7.085l.271,1.561c8.282-1.5,70.717,4.591,70.717,4.591l20.739-1.634s20.825-2.1,23.438-2.137c2.415-.033,8.3,6.192,9.817,7.985.126.152.225.271.284.351.794,1.058.5,1.555.5,1.555C279.249,389.3,281.327,390.778,280.017,392.789Z" transform="translate(-118.195 -376.099)" fill="#efd3ca"/>
            <path id="Trazado_1080204" data-name="Trazado 1080204" d="M238.572,398.28c-.774.112-1.383.185-1.727.205-1.885.1-13.74-.284-13.74-.284l-37.588,3.6s-51.189,4.393-57.85.972c-4.492-2.309-7.793-12.92-9.473-19.588,9.341-3.7,21.4-7.085,34.333-7.085l.271,1.561s-20.375,2.143-28.022,12.926c0,0-1.072,8.931,5.59,11.18s22.432-.4,22.432-.4l73.2-4.128Z" transform="translate(-118.195 -376.099)" fill="#e0a2a2"/>
            <path id="Trazado_1080205" data-name="Trazado 1080205" d="M332.447,408.706a4.025,4.025,0,0,1-2.077.271c-2.527-.318-13.733-3.248-13.733-3.248-.549.119-1.76.357-3.241.628l5.418-1.918S326.275,407.826,332.447,408.706Z" transform="translate(-184.266 -385.691)" fill="#e0a2a2"/>
            <path id="Trazado_1080206" data-name="Trazado 1080206" d="M347.2,405a4.392,4.392,0,0,1-1.283.3c-2.355.205-7.78-2.282-8.276-2.507-.007-.007-.013-.013-.02-.013s-5.067-3.235-6.913-4.426a6.661,6.661,0,0,0-2.911-1.235s.217-.245,1.5-.288c2.563-.087,6.6,3.13,9.566,4.956A40.4,40.4,0,0,0,347.2,405Z" transform="translate(-189.14 -383.114)" fill="#e0a2a2"/>
            <path id="Trazado_1080207" data-name="Trazado 1080207" d="M353.375,397.633c0,.007-.007.007-.007.013-.893,1.363-3.579.43-5.233-.318l-.271-.126-.026-.013-7.515-4.525-5.4-2.256,5.841,2.051s8.58,4.512,9.466,4.836A14.675,14.675,0,0,0,353.375,397.633Z" transform="translate(-191.553 -380.943)" fill="#e0a2a2"/>
            <path id="Trazado_1080208" data-name="Trazado 1080208" d="M355.571,391.007l-9.056-7.118c.734.5,5.259,3.605,8.276,5.213.126.152.225.271.284.351C355.869,390.511,355.571,391.007,355.571,391.007Z" transform="translate(-195.476 -378.736)" fill="#e0a2a2"/>
            <path id="Trazado_1080209" data-name="Trazado 1080209" d="M323.7,402.642s4.142-.844,5.618-3.513C329.321,399.129,329.318,401.878,323.7,402.642Z" transform="translate(-187.755 -383.894)" fill="#e0a2a2"/>
            <path id="Trazado_1080210" data-name="Trazado 1080210" d="M334.5,395.817a8.011,8.011,0,0,0,3.241-3.538S338.44,394.24,334.5,395.817Z" transform="translate(-191.409 -381.576)" fill="#e0a2a2"/>
            <path id="Trazado_1080211" data-name="Trazado 1080211" d="M342.2,388.448s2.821-1.1,2.858-3.834C345.053,384.614,346.449,387.712,342.2,388.448Z" transform="translate(-194.014 -378.981)" fill="#e0a2a2"/>
            <path id="Trazado_1080212" data-name="Trazado 1080212" d="M346.846,380.627a2.673,2.673,0,0,1,.344,2.321A1.681,1.681,0,0,0,346.846,380.627Z" transform="translate(-195.588 -377.632)" fill="#e0a2a2"/>
            <path id="Trazado_1080213" data-name="Trazado 1080213" d="M295.215,387.261s-5.235-5.282-7.185-6.8a5.653,5.653,0,0,0-2.632-1.181c-.726.032-14.891,1.34-14.891,1.34l-29.286,2.43s-57.343-4.795-70.717-4.591" transform="translate(-135.901 -376.895)" fill="none" stroke="#e0a2a2" stroke-linecap="round" stroke-linejoin="round" stroke-miterlimit="10" stroke-width="0.5"/>
          </g>
        </g>
        <g id="Grupo_1209232" data-name="Grupo 1209232" transform="translate(7.465 288.188)">
          <g id="Grupo_1209229" data-name="Grupo 1209229" transform="translate(139.389 6.611)">
            <path id="Trazado_1080214" data-name="Trazado 1080214" d="M324.588,413.524l-55.831,16.842-35.831-8.684,38.332-12.445Z" transform="translate(-232.926 -408.764)" fill="#7c6d40"/>
            <path id="Trazado_1080215" data-name="Trazado 1080215" d="M268.757,436.733v.9l-35.831-8.574v-1.006Z" transform="translate(-232.926 -415.131)" fill="#ec6b00"/>
            <path id="Trazado_1080216" data-name="Trazado 1080216" d="M287.091,433.455l55.831-17.332v-.406l-55.831,16.842Z" transform="translate(-251.26 -410.957)" fill="#ec6b00"/>
            <path id="Trazado_1080217" data-name="Trazado 1080217" d="M325.668,413.088s-37.548-2.831-49.375,14.9l-42.287-9.741s5.459-10.794,32.253-9.634Z" transform="translate(-233.292 -408.521)" fill="#fcf4ec"/>
            <path id="Trazado_1080218" data-name="Trazado 1080218" d="M296.065,425.5s7.535-14.12,28.715-12.422" transform="translate(-254.297 -410.015)" fill="none" stroke="#dbc2af" stroke-linecap="round" stroke-linejoin="round" stroke-miterlimit="10" stroke-width="0.5"/>
            <path id="Trazado_1080219" data-name="Trazado 1080219" d="M289.115,423.194a24.455,24.455,0,0,1,21.806-11.581" transform="translate(-251.945 -409.565)" fill="none" stroke="#dbc2af" stroke-linecap="round" stroke-linejoin="round" stroke-miterlimit="10" stroke-width="0.5"/>
            <path id="Trazado_1080220" data-name="Trazado 1080220" d="M278.533,421.07s7-11.461,17.9-10.67" transform="translate(-248.363 -409.144)" fill="none" stroke="#dbc2af" stroke-linecap="round" stroke-linejoin="round" stroke-miterlimit="10" stroke-width="0.5"/>
            <path id="Trazado_1080221" data-name="Trazado 1080221" d="M264.765,417.935s7.239-9.617,17.27-8.728" transform="translate(-243.703 -408.734)" fill="none" stroke="#dbc2af" stroke-linecap="round" stroke-linejoin="round" stroke-miterlimit="10" stroke-width="0.5"/>
          </g>
          <g id="Grupo_1209230" data-name="Grupo 1209230">
            <path id="Trazado_1080222" data-name="Trazado 1080222" d="M28.532,427.431l40.3,21.88,74.487-8.344L93.837,422.9Z" transform="translate(-24.354 -406.776)" fill="#46897c"/>
            <path id="Trazado_1080223" data-name="Trazado 1080223" d="M161.02,442.8l-60.4,6.82-8.666.979-.655-12.45,69.01-7.733.218,3.791Z" transform="translate(-45.598 -409.322)" fill="#fcf4ec"/>
            <path id="Trazado_1080224" data-name="Trazado 1080224" d="M24.532,407.366l40.3,21.88,75.873-8.5L89.837,402.833Z" transform="translate(-23 -399.985)" fill="#46897c"/>
            <path id="Trazado_1080225" data-name="Trazado 1080225" d="M160.523,434.21H158.38l-16.776,7.8-18.688-3.963-22.3,11.577-8.666.979-.655-12.45,69.01-7.733Z" transform="translate(-45.598 -409.322)" fill="#efe0d3"/>
            <path id="Trazado_1080226" data-name="Trazado 1080226" d="M23.748,409.686a13.148,13.148,0,0,0-.7,10.809c.536,1.463,3.343,2.464,3.343,2.464l40.3,21.881,1.222-13.7Z" transform="translate(-22.216 -402.305)" fill="#63bfad"/>
            <path id="Trazado_1080227" data-name="Trazado 1080227" d="M47.946,427.171l17.139,8.194L76.622,436,53.289,424.066Z" transform="translate(-30.925 -407.172)" fill="#58a596"/>
            <path id="Trazado_1080228" data-name="Trazado 1080228" d="M90.508,441.1l-.82.239-.718-.327.316,14.43h1.77" transform="translate(-44.811 -412.908)" fill="#46897c"/>
            <path id="Trazado_1080229" data-name="Trazado 1080229" d="M139.743,409.882V404.3l-65-5.768v6.5Z" transform="translate(-39.996 -398.528)" fill="#ba5e20"/>
            <line id="Línea_670" data-name="Línea 670" y1="7.83" x2="69.017" transform="translate(45.823 23.358)" fill="none" stroke="#dbc2af" stroke-miterlimit="10" stroke-width="0.5"/>
            <path id="Trazado_1080230" data-name="Trazado 1080230" d="M40.96,423.551l77.177,8.716,10.171-16.839-65-.513Z" transform="translate(-28.561 -404.075)" fill="#ba5e20"/>
            <path id="Trazado_1080231" data-name="Trazado 1080231" d="M118.714,422.2l-.1,1.879-.37,7.065-75.579-7.885v-8.335Z" transform="translate(-29.138 -404.076)" fill="#fcf4ec"/>
            <path id="Trazado_1080232" data-name="Trazado 1080232" d="M156.916,428.917,167,413.274v-4.915l-9.613,11.616Z" transform="translate(-67.809 -401.856)" fill="#efe0d3"/>
            <path id="Trazado_1080233" data-name="Trazado 1080233" d="M118.714,422.2l-.1,1.879-75.95-8v-1.158Z" transform="translate(-29.138 -404.076)" fill="#efe0d3"/>
            <path id="Trazado_1080234" data-name="Trazado 1080234" d="M128.325,409.02l-9.693,12.713L42.662,414.9" transform="translate(-29.137 -402.079)" fill="none" stroke="#dbc2af" stroke-miterlimit="10" stroke-width="0.5"/>
            <path id="Trazado_1080235" data-name="Trazado 1080235" d="M41.378,409.287l77.486,8.192,9.585-13.183-65-5.768Z" transform="translate(-28.702 -398.528)" fill="#ba5e20"/>
            <path id="Trazado_1080236" data-name="Trazado 1080236" d="M128.325,411.505l-9.864,13.08-75.8-7.083" transform="translate(-29.137 -402.92)" fill="none" stroke="#dbc2af" stroke-miterlimit="10" stroke-width="0.5"/>
            <path id="Trazado_1080237" data-name="Trazado 1080237" d="M42.662,419.632l75.776,7.3,9.887-13.49" transform="translate(-29.137 -403.577)" fill="none" stroke="#dbc2af" stroke-miterlimit="10" stroke-width="0.5"/>
            <path id="Trazado_1080238" data-name="Trazado 1080238" d="M128.325,415.215,118.309,430l-75.647-7.963" transform="translate(-29.137 -404.176)" fill="none" stroke="#dbc2af" stroke-miterlimit="10" stroke-width="0.5"/>
            <line id="Línea_671" data-name="Línea 671" y1="8.277" x2="69.004" transform="translate(45.976 25.825)" fill="none" stroke="#dbc2af" stroke-miterlimit="10" stroke-width="0.5"/>
            <line id="Línea_672" data-name="Línea 672" y1="7.925" x2="69.037" transform="translate(46.11 28.723)" fill="none" stroke="#dbc2af" stroke-miterlimit="10" stroke-width="0.5"/>
            <line id="Línea_673" data-name="Línea 673" y1="8.014" x2="69.174" transform="translate(46.245 31.188)" fill="none" stroke="#dbc2af" stroke-miterlimit="10" stroke-width="0.5"/>
          </g>
          <g id="Grupo_1209231" data-name="Grupo 1209231" transform="translate(110.259 10.653)">
            <path id="Trazado_1080239" data-name="Trazado 1080239" d="M267.821,433a8.338,8.338,0,0,0,5.221-7.565c.2-5.807-4.1-5.682-4.88-5.745s-.34,3.6-.34,3.6,2.274-.293,2.551.83-.161,4.978-1.918,5.515S267.821,433,267.821,433Z" transform="translate(-215.486 -416.343)" fill="#bfb4ac"/>
            <ellipse id="Elipse_13128" data-name="Elipse 13128" cx="21.257" cy="2.639" rx="21.257" ry="2.639" transform="translate(10.734 27.026)" fill="#ccaa9f"/>
            <path id="Trazado_1080240" data-name="Trazado 1080240" d="M252.525,452.633c-2.275-2.091-15.574-3.7-31.644-3.7s-29.369,1.6-31.644,3.7h-.347v.637c0,2.393,14.323,4.332,31.991,4.332s31.991-1.94,31.991-4.332v-.637Z" transform="translate(-188.89 -426.243)" fill="#e2c0b2"/>
            <ellipse id="Elipse_13129" data-name="Elipse 13129" cx="31.991" cy="4.332" rx="31.991" ry="4.332" transform="translate(0 22.057)" fill="#fcf4ec"/>
            <ellipse id="Elipse_13130" data-name="Elipse 13130" cx="25.296" cy="2.639" rx="25.296" ry="2.639" transform="translate(6.695 24.084)" fill="#ccaa9f"/>
            <path id="Trazado_1080241" data-name="Trazado 1080241" d="M237.6,444.531s-4.9.516-11.51.516-11.517-.516-11.517-.516a14.347,14.347,0,0,1-2.626-1.521c-10.187-7.349-7.29-25.27-7.29-25.27l21.433.946,19.535-.86,1.892-.086S250.887,438.557,237.6,444.531Z" transform="translate(-194.099 -415.684)" fill="#efe0d3"/>
            <ellipse id="Elipse_13131" data-name="Elipse 13131" cx="21.427" cy="2.055" rx="21.427" ry="2.055" transform="translate(10.564)" fill="#efe0d3"/>
            <path id="Trazado_1080242" data-name="Trazado 1080242" d="M247.185,417.022c0,.165-.45.324-1.27.47-2.871.516-10.333.88-19.072.88s-16.2-.364-19.078-.88c-.82-.146-1.27-.3-1.27-.47,0-.741,9.109-1.343,20.348-1.343S247.185,416.281,247.185,417.022Z" transform="translate(-194.849 -414.986)" fill="#fcf4ec"/>
            <path id="Trazado_1080243" data-name="Trazado 1080243" d="M246.565,417.972c-2.871.516-10.333.88-19.072.88s-16.2-.364-19.078-.88c2.878-.509,10.333-.873,19.078-.873S243.694,417.463,246.565,417.972Z" transform="translate(-195.499 -415.467)" fill="#ccaa9f"/>
            <path id="Trazado_1080244" data-name="Trazado 1080244" d="M241.529,444.531s-4.9.516-11.51.516-11.517-.516-11.517-.516a14.347,14.347,0,0,1-2.626-1.521c3.757.542,15.566,1.945,26.024-.192,0,0,9.162-8.454,7.674-24.728a13.128,13.128,0,0,1,1.872-.351S254.812,438.557,241.529,444.531Z" transform="translate(-198.024 -415.684)" fill="#d6c8bd"/>
          </g>
        </g>
        <g id="Grupo_1209247" data-name="Grupo 1209247" transform="translate(84.174 116.072)">
          <path id="Trazado_1080245" data-name="Trazado 1080245" d="M290.632,178.229c-.483-19.634-7.918-21.433-7.918-21.433-13.092-23.047-48.113-19.555-59.028-9.354-16.69,15.6,0,0-22.584,29.365-19.918,25.892,14.8,39.347,28.082,40.849a11.931,11.931,0,0,0,4.009-.033c6.992-1.925,8.646,5.907,26.64,10.095a28.959,28.959,0,0,0,6.734.814h.007a20.208,20.208,0,0,0,4.168-.456l-.026.337q.605.04,1.191.04a13.663,13.663,0,0,0,10.154-4.3c4.948-5.087,7.879-14.487,8.726-27.936A134.175,134.175,0,0,0,290.632,178.229Zm-9.05,45.466a13.044,13.044,0,0,1-9.7,4.088c10.412-3.043,16.379-15.413,18.337-38.143.046-.49.086-.966.119-1.436C290.348,199.272,289.025,216.042,281.583,223.7Z" transform="translate(-157.434 -138.754)" fill="#6477be"/>
          <path id="Trazado_1080246" data-name="Trazado 1080246" d="M297.678,227.239a36.1,36.1,0,0,1-13.654,13.416h-.007a28.958,28.958,0,0,1-6.734-.814c-17.993-4.187-19.647-12.02-26.64-10.095a11.931,11.931,0,0,1-4.009.033l11.233-28.293,38.355-26.117S309.294,207.453,297.678,227.239Z" transform="translate(-174.886 -150.877)" fill="#4d4d91"/>
          <g id="Grupo_1209233" data-name="Grupo 1209233" transform="translate(53.997 9.61)">
            <path id="Trazado_1080247" data-name="Trazado 1080247" d="M219.8,190.127s2.707,23.936,20.645,36.056c13.767,9.3,37.522-12.189,42.588-23.2,4.649-10.109,11.071-23.372-3.075-37.123-14.452-14.048-36.323-22.461-59.134,5.79C220.823,171.646,220.039,175.885,219.8,190.127Z" transform="translate(-219.8 -152.872)" fill="#efd3ca"/>
          </g>
          <g id="Grupo_1209234" data-name="Grupo 1209234" transform="translate(80.056 30.668)">
            <path id="Trazado_1080248" data-name="Trazado 1080248" d="M286.53,184.705l15.886,2.79s-4.478,15.6-19.378,15.835a34.951,34.951,0,0,1-23.845-8.669Z" transform="translate(-259.193 -184.705)" fill="#e0a2a2"/>
          </g>
          <g id="Grupo_1209235" data-name="Grupo 1209235" transform="translate(65.723 49.221)">
            <path id="Trazado_1080249" data-name="Trazado 1080249" d="M240.907,219.663l2.986-3.282a9.8,9.8,0,0,1-4.873-3.211c-1.636-2.336-1.491,5.866-1.491,5.866Z" transform="translate(-237.526 -212.751)" fill="#e0a2a2"/>
          </g>
          <g id="Grupo_1209236" data-name="Grupo 1209236" transform="translate(39.42 47.932)">
            <path id="Trazado_1080250" data-name="Trazado 1080250" d="M233.52,239a44.649,44.649,0,0,1-1.852,5.861c-2.084,5.339-6.073,12.681-12.688,14.666h-.007a12.507,12.507,0,0,1-5.6.344c-9.268-1.442-13.045-11.484-14.573-18.972a57.177,57.177,0,0,1-.906-6.146c-.112-1.35-.132-2.17-.132-2.17a34.178,34.178,0,0,0,11.411-11.934,32.592,32.592,0,0,0,3.043-7.111,16.39,16.39,0,0,0,.437-1.826C227.262,204.853,233.52,239,233.52,239Z" transform="translate(-197.765 -210.802)" fill="#efd3ca"/>
          </g>
          <g id="Grupo_1209237" data-name="Grupo 1209237" transform="translate(39.417 57.78)">
            <path id="Trazado_1080251" data-name="Trazado 1080251" d="M217.989,243.669c-3.929,1.436-14.276,2.051-19.191,2.269a52.175,52.175,0,0,1-1.039-8.315,34.178,34.178,0,0,0,11.411-11.934l8.818,3.506S223.216,241.757,217.989,243.669Z" transform="translate(-197.76 -225.689)" fill="#e0a2a2"/>
          </g>
          <path id="Trazado_1080252" data-name="Trazado 1080252" d="M231.668,246.231c-2.084,5.339-6.073,12.681-12.688,14.666h-.007c-.278-.165-16.77-9.526-21.076-24.774-.112-1.35-.132-2.17-.132-2.17a34.178,34.178,0,0,0,11.411-11.934,32.592,32.592,0,0,0,3.043-7.111,24.383,24.383,0,0,1,3.42-.007s-1.535,17.828,16.022,31.323Z" transform="translate(-158.345 -164.24)" fill="#e0a2a2"/>
          <g id="Grupo_1209238" data-name="Grupo 1209238" transform="translate(58.819 49.64)">
            <path id="Trazado_1080253" data-name="Trazado 1080253" d="M227.09,233.012s17.206-4.032,8.4-19.627Z" transform="translate(-227.09 -213.385)" fill="#e0a2a2"/>
          </g>
          <g id="Grupo_1209239" data-name="Grupo 1209239" transform="translate(47.06 50.66)">
            <path id="Trazado_1080254" data-name="Trazado 1080254" d="M216.429,235.552a43.641,43.641,0,0,1-7.115-.648l.108-.652c8.876,1.475,15.046.4,18.335-3.209,3.8-4.168,3.046-10.974,1.74-15.949l.64-.168c1.346,5.134,2.111,12.175-1.892,16.563C225.779,234.194,221.817,235.552,216.429,235.552Z" transform="translate(-209.314 -214.926)" fill="#4d4d91"/>
          </g>
          <g id="Grupo_1209240" data-name="Grupo 1209240">
            <path id="Trazado_1080255" data-name="Trazado 1080255" d="M260.841,174.011s-21.447,18.628-44.593,3.764c0,0-4.128-2.124-7.1-.007-1.925,1.363-3.374,4.512-2.9,11.167.953,13.4-4.922,17.709-11.7,19.449a52.722,52.722,0,0,1-7.171,1.171c-9.01,1.012-13.29,4.28-19.482,4.393s-20.944-2.256-29.722,3.261a144.955,144.955,0,0,1,19.138-17.451c9.91-7.211,21.956-23.2,29.729-33s21.116-26.712,39.731-28.293,32.792,12.6,35.226,17.9S266.894,169.479,260.841,174.011Z" transform="translate(-138.175 -138.346)" fill="#6477be"/>
          </g>
          <path id="Trazado_1080256" data-name="Trazado 1080256" d="M235.091,207.64c.953,13.4-4.922,17.709-11.7,19.449,4.737-2.858,9.1-5.861,7.9-16.75s4.333-16.73,4.333-16.73l2.077,2.329.284.536C236.063,197.836,234.614,200.985,235.091,207.64Z" transform="translate(-167.02 -157.051)" fill="#4d4d91"/>
          <g id="Grupo_1209243" data-name="Grupo 1209243" transform="translate(65.238 33.457)">
            <g id="Grupo_1209241" data-name="Grupo 1209241">
              <path id="Trazado_1080257" data-name="Trazado 1080257" d="M245.54,206.737c-.776.945-1.271,1.569-1.271,1.569s-1.894.434-4.645-2.254a9.255,9.255,0,0,1-2.141-10.209c1.425-3.671,7.437-9.2,12.669-5.922s2.582,8.787,2.582,8.787c-.986.9-2.242,2.247-3.482,3.652C247.862,203.935,246.492,205.578,245.54,206.737Z" transform="translate(-236.793 -188.921)" fill="#efd3ca"/>
            </g>
            <g id="Grupo_1209242" data-name="Grupo 1209242" transform="translate(4.114 2.289)">
              <path id="Trazado_1080258" data-name="Trazado 1080258" d="M251.358,203.533a7.549,7.549,0,0,1-3.713,4.375,6.175,6.175,0,0,1-4.633-2.666,9.375,9.375,0,0,0,2.843,1.768,12.1,12.1,0,0,0,1.076-8.15c2.158,2.1,1.179,6.327,1.179,6.327s2.334-1.711,2.847-7.084-4.21-5.694-4.21-5.694a5.817,5.817,0,0,1,4.107,1.242C253.61,196.994,252.393,201.213,251.358,203.533Z" transform="translate(-243.012 -192.382)" fill="#e0a2a2"/>
            </g>
          </g>
          <g id="Grupo_1209244" data-name="Grupo 1209244" transform="translate(80.974 33.895)">
            <path id="Trazado_1080259" data-name="Trazado 1080259" d="M275.734,204.745a23.771,23.771,0,0,1-15.154-5.553l.412-.517c20.129,16.072,42.455-8.837,42.679-9.091l.5.437C304,190.216,290.978,204.745,275.734,204.745Z" transform="translate(-260.58 -189.584)" fill="#6477be"/>
          </g>
          <g id="Grupo_1209245" data-name="Grupo 1209245" transform="translate(81.68 35.431)">
            <path id="Trazado_1080260" data-name="Trazado 1080260" d="M278.922,202.758a36.553,36.553,0,0,1-17.274-4.427l.345-.564c.212.13,21.516,12.809,40.407-5.86l.465.47C294.722,200.425,286.136,202.758,278.922,202.758Z" transform="translate(-261.648 -191.906)" fill="#6477be"/>
          </g>
          <g id="Grupo_1209246" data-name="Grupo 1209246" transform="translate(124.45 18.024)">
            <path id="Trazado_1080261" data-name="Trazado 1080261" d="M326.52,182.026l-.216-.251.108.125-.11-.124c.022-.02,2.133-2.155.664-16.15l.329-.034C328.795,179.889,326.614,181.946,326.52,182.026Z" transform="translate(-326.302 -165.592)" fill="#4d4d91"/>
          </g>
        </g>
        <g id="Grupo_1209252" data-name="Grupo 1209252" transform="translate(164.23 173.254)">
          <g id="Grupo_1209248" data-name="Grupo 1209248" transform="translate(15.138 9.197)">
            <path id="Trazado_1080262" data-name="Trazado 1080262" d="M288.865,239.594s.548-1.025-.591-.894c-.806.093-6.557,3.728-6.181,5.082a2.557,2.557,0,0,0,2.558,1.856C285.555,245.587,288.865,239.594,288.865,239.594Z" transform="translate(-282.076 -238.688)" fill="#ec6b00"/>
          </g>
          <g id="Grupo_1209249" data-name="Grupo 1209249" transform="translate(0 7.203)">
            <path id="Trazado_1080263" data-name="Trazado 1080263" d="M262.115,242.914a25.651,25.651,0,0,1-.508-7.24s-2.456,1.27-2.413,3.006S262.115,242.914,262.115,242.914Z" transform="translate(-259.193 -235.674)" fill="#ec6b00"/>
          </g>
          <g id="Grupo_1209250" data-name="Grupo 1209250" transform="translate(11.024)">
            <ellipse id="Elipse_13132" data-name="Elipse 13132" cx="3.21" cy="1.5" rx="3.21" ry="1.5" transform="translate(0 4.293) rotate(-41.96)"/>
          </g>
          <g id="Grupo_1209251" data-name="Grupo 1209251" transform="translate(23.741 11.347)">
            <ellipse id="Elipse_13133" data-name="Elipse 13133" cx="2.641" cy="1.234" rx="2.641" ry="1.234" transform="translate(0 3.531) rotate(-41.96)"/>
          </g>
        </g>
      </g>
    </g>
  </g>
</svg>
