<svg xmlns="http://www.w3.org/2000/svg" xmlns:xlink="http://www.w3.org/1999/xlink" width="400" height="314" viewBox="0 0 400 314">
  <defs>
    <clipPath id="clip-path">
      <rect id="Rect치ngulo_417898" data-name="Rect치ngulo 417898" width="400" height="314" transform="translate(180 5850)" fill="#fff" stroke="#707070" stroke-width="1" opacity="0.81"/>
    </clipPath>
  </defs>
  <g id="Enmascarar_grupo_1098888" data-name="Enmascarar grupo 1098888" transform="translate(-180 -5850)" clip-path="url(#clip-path)">
    <g id="Grupo_1209954" data-name="Grupo 1209954">
      <path id="Trazado_1081266" data-name="Trazado 1081266" d="M182,0C282.516,0,364,91.782,364,205S282.516,410,182,410,0,318.218,0,205,81.484,0,182,0Z" transform="translate(196 5885)" fill="#a5ec55" opacity="0.53"/>
      <g id="Grupo_1209953" data-name="Grupo 1209953" transform="translate(-2200.236 35.946)">
        <g id="Grupo_1209936" data-name="Grupo 1209936" transform="translate(2662.349 5979.317)">
          <g id="Grupo_1209933" data-name="Grupo 1209933" transform="translate(0 0)">
            <path id="Trazado_1081129" data-name="Trazado 1081129" d="M389.4,380.856s45.134-98.022,16.117-104.569-38.649,113.391-38.649,113.391S382.509,396.991,389.4,380.856Z" transform="translate(-366.865 -276.028)" fill="#87c4b8"/>
            <g id="Grupo_1209932" data-name="Grupo 1209932" transform="translate(12.064 13.706)">
              <path id="Trazado_1081130" data-name="Trazado 1081130" d="M407.631,296.229s-15.406,49.659-18.119,90.582" transform="translate(-386.211 -296.229)" fill="none" stroke="#fff" stroke-linecap="round" stroke-linejoin="round" stroke-miterlimit="10" stroke-width="1"/>
              <path id="Trazado_1081131" data-name="Trazado 1081131" d="M418.42,310.172l-10.466,4.561-3.126-11.614" transform="translate(-391.135 -298.444)" fill="none" stroke="#fff" stroke-linecap="round" stroke-linejoin="round" stroke-miterlimit="10" stroke-width="1"/>
              <path id="Trazado_1081132" data-name="Trazado 1081132" d="M414.458,336.64l-14.237,7.338-3.607-14.5" transform="translate(-388.494 -306.919)" fill="none" stroke="#fff" stroke-linecap="round" stroke-linejoin="round" stroke-miterlimit="10" stroke-width="1"/>
              <path id="Trazado_1081133" data-name="Trazado 1081133" d="M406.762,372.042l-14.218,8-4.391-16.353" transform="translate(-385.774 -317.918)" fill="none" stroke="#fff" stroke-linecap="round" stroke-linejoin="round" stroke-miterlimit="10" stroke-width="1"/>
              <path id="Trazado_1081134" data-name="Trazado 1081134" d="M398.619,407.116l-10.087,6.541-3.886-11.895" transform="translate(-384.646 -330.159)" fill="none" stroke="#fff" stroke-linecap="round" stroke-linejoin="round" stroke-miterlimit="10" stroke-width="1"/>
            </g>
          </g>
          <g id="Grupo_1209935" data-name="Grupo 1209935" transform="translate(9.512 13.838)">
            <path id="Trazado_1081135" data-name="Trazado 1081135" d="M394.974,403.534s81.9-87.9,49.55-105.349-63.639,100.5-63.639,100.5S382.768,402.4,394.974,403.534Z" transform="translate(-380.884 -296.423)" fill="#87c4b8"/>
            <g id="Grupo_1209934" data-name="Grupo 1209934" transform="translate(10.232 8.32)">
              <path id="Trazado_1081136" data-name="Trazado 1081136" d="M445.116,308.685s-33.873,43.068-49.152,81.589" transform="translate(-395.964 -308.685)" fill="none" stroke="#fff" stroke-linecap="round" stroke-linejoin="round" stroke-miterlimit="10" stroke-width="1"/>
              <path id="Trazado_1081137" data-name="Trazado 1081137" d="M467.16,322.758l-14.568,1.21-.6-12.115" transform="translate(-413.979 -309.704)" fill="none" stroke="#fff" stroke-linecap="round" stroke-linejoin="round" stroke-miterlimit="10" stroke-width="1"/>
              <path id="Trazado_1081138" data-name="Trazado 1081138" d="M454.485,347l-20.146,2.736L433.97,334.7" transform="translate(-408.183 -317.051)" fill="none" stroke="#fff" stroke-linecap="round" stroke-linejoin="round" stroke-miterlimit="10" stroke-width="1"/>
              <path id="Trazado_1081139" data-name="Trazado 1081139" d="M434.5,378.7l-20.312,3.376-.825-17.053" transform="translate(-401.557 -326.799)" fill="none" stroke="#fff" stroke-linecap="round" stroke-linejoin="round" stroke-miterlimit="10" stroke-width="1"/>
              <path id="Trazado_1081140" data-name="Trazado 1081140" d="M414.039,409.954l-14.661,3.228L397.9,400.568" transform="translate(-396.586 -338.227)" fill="none" stroke="#fff" stroke-linecap="round" stroke-linejoin="round" stroke-miterlimit="10" stroke-width="1"/>
            </g>
          </g>
        </g>
        <g id="Grupo_1209940" data-name="Grupo 1209940" transform="translate(2449.35 5819.546)">
          <g id="Grupo_1209937" data-name="Grupo 1209937" transform="translate(0 0)">
            <path id="Trazado_1081141" data-name="Trazado 1081141" d="M70.13,54.151H277.214l4.72,247.616L69.382,304.041Z" transform="translate(-58.222 -44.92)" fill="#55a092"/>
            <path id="Trazado_1081142" data-name="Trazado 1081142" d="M286.5,43.28H79.419l-5.657,5.988-.539,250.778,2.7,3.579,213.228-2.358Z" transform="translate(-59.457 -41.425)" fill="#efe4d5"/>
            <path id="Trazado_1081143" data-name="Trazado 1081143" d="M293.274,297.814a4.943,4.943,0,0,1-4.883,4.986L83.513,305.065l-3.419.039,3.5-264.557H285.785a4.932,4.932,0,0,1,4.935,4.883l.077,7.605Z" transform="translate(-61.666 -40.546)" fill="#63bfad"/>
            <path id="Trazado_1081144" data-name="Trazado 1081144" d="M294.894,303.732a4.943,4.943,0,0,1-4.883,4.986L85.133,310.982l2.838-239.82,7.057-12.211H292.417Z" transform="translate(-63.286 -46.463)" fill="#55a092"/>
            <path id="Trazado_1081145" data-name="Trazado 1081145" d="M67.182,64.831H52.934l5.535,3.231-5.535,3.231H67.182Z" transform="translate(-52.934 -48.354)" fill="#e55c3a"/>
          </g>
          <g id="Grupo_1209938" data-name="Grupo 1209938" transform="translate(27.788 19.464)">
            <path id="Trazado_1081146" data-name="Trazado 1081146" d="M94.6,82.2h197.25l4.5,235.858L93.89,320.22Z" transform="translate(-93.89 -73.401)" fill="#6477be"/>
            <path id="Trazado_1081147" data-name="Trazado 1081147" d="M300.7,71.841H103.45l-5.389,5.7-.514,238.87,2.574,3.409,203.1-2.246Z" transform="translate(-95.066 -70.072)" fill="#efe4d5"/>
            <path id="Trazado_1081148" data-name="Trazado 1081148" d="M107.422,69.233H300.016a4.7,4.7,0,0,1,4.7,4.656l2.43,240.4a4.7,4.7,0,0,1-4.651,4.751l-198.4,2.194Z" transform="translate(-97.171 -69.233)" fill="#6477be"/>
          </g>
          <g id="Grupo_1209939" data-name="Grupo 1209939" transform="translate(41.901 231.441)">
            <path id="Trazado_1081149" data-name="Trazado 1081149" d="M114.69,445.546l28.915-2.8,156.942,14.824-175.476,0Z" transform="translate(-114.69 -401.301)" fill="#e55c3a"/>
            <path id="Trazado_1081150" data-name="Trazado 1081150" d="M312.787,402.415l-.413,22.66-.315,17.578-178.516-.826V396.338Z" transform="translate(-120.751 -386.378)" fill="#fcf4ec"/>
            <path id="Trazado_1081151" data-name="Trazado 1081151" d="M312.788,402.415l-.413,22.66c-1.7,3.864-3.342,5.644-4.521,2.755-3.857-9.45-13.114-14.049-13.114-14.049l-161.2-1.884V396.339Z" transform="translate(-120.752 -386.379)" fill="#e5dbd3"/>
            <rect id="Rect치ngulo_417897" data-name="Rect치ngulo 417897" width="5.591" height="43.541" transform="translate(186.444 13.589)" fill="#af4b37"/>
            <path id="Trazado_1081152" data-name="Trazado 1081152" d="M121.754,390.457l.657,40.229,7.341,9.251V394.445l-6.148-3.987" transform="translate(-116.961 -384.488)" fill="#e5dbd3"/>
            <path id="Trazado_1081153" data-name="Trazado 1081153" d="M310.557,395.379v40.869l-4.032,4.728-1.619,1.9H124.94l-10.25-12.353V425.9l10.379,12.03H300.546l5.1-5.374V398.275l-5.573-3.025h-172.1L114.69,382.143l33.213-.09,136.917-.374,6.889-.02Z" transform="translate(-114.69 -381.659)" fill="#e55c3a"/>
            <path id="Trazado_1081154" data-name="Trazado 1081154" d="M323.924,428.927l1.5,0V452.91H322.3Z" transform="translate(-181.44 -396.855)" fill="#e5dbd3"/>
            <path id="Trazado_1081155" data-name="Trazado 1081155" d="M114.69,382.374v2.82l13.235,12.73.047-2.446Z" transform="translate(-114.69 -381.889)" fill="#af4b37"/>
            <path id="Trazado_1081156" data-name="Trazado 1081156" d="M134.2,404.134H307.552l4.376.581-5.577-3.027H134.245Z" transform="translate(-120.962 -388.099)" fill="#af4b37"/>
            <path id="Trazado_1081157" data-name="Trazado 1081157" d="M306.518,461.943l-1.618,1.9H124.944l-10.25-12.353v-4.618l10.325,13.507Z" transform="translate(-114.691 -402.625)" fill="#af4b37"/>
            <path id="Trazado_1081158" data-name="Trazado 1081158" d="M121.935,401.529l7.875,6.456H303.464" transform="translate(-117.019 -388.047)" fill="none" stroke="#c4bab3" stroke-miterlimit="10" stroke-width="1"/>
            <path id="Trazado_1081159" data-name="Trazado 1081159" d="M121.754,409.2l8,6.834,173.962.22" transform="translate(-116.961 -390.513)" fill="none" stroke="#c4bab3" stroke-miterlimit="10" stroke-width="1"/>
            <path id="Trazado_1081160" data-name="Trazado 1081160" d="M122.23,419.6l7.674,6.329,173.654-.207" transform="translate(-117.114 -393.856)" fill="none" stroke="#c4bab3" stroke-miterlimit="10" stroke-width="1"/>
            <path id="Trazado_1081161" data-name="Trazado 1081161" d="M122.382,428.924l7.571,7.731,173.905-1.631" transform="translate(-117.163 -396.855)" fill="none" stroke="#c4bab3" stroke-miterlimit="10" stroke-width="1"/>
            <path id="Trazado_1081162" data-name="Trazado 1081162" d="M122.568,440.318l7.445,5.752,173.654-.731" transform="translate(-117.223 -400.519)" fill="none" stroke="#c4bab3" stroke-miterlimit="10" stroke-width="1"/>
            <path id="Trazado_1081163" data-name="Trazado 1081163" d="M122.675,446.868l7.372,6.6H303.953" transform="translate(-117.257 -402.625)" fill="none" stroke="#c4bab3" stroke-miterlimit="10" stroke-width="1"/>
            <path id="Trazado_1081164" data-name="Trazado 1081164" d="M330.48,464.521,307.9,463.315l-8.282,3.8-15.8-9.044V428.928h27.737v29.143Z" transform="translate(-169.065 -396.857)" fill="#6477be"/>
            <path id="Trazado_1081165" data-name="Trazado 1081165" d="M330.48,478.331,307.9,477.125l-8.282,3.8-15.8-9.043h27.737Z" transform="translate(-169.065 -410.667)" fill="#53649b"/>
            <path id="Trazado_1081166" data-name="Trazado 1081166" d="M292.785,391.286c-1.916.671-34.929,2.4-68.007,3.973H157.339l4.129-11.817.149-1.38,136.917-.374C300.357,385.758,295.584,390.3,292.785,391.286Z" transform="translate(-128.402 -381.668)" fill="#af4b37"/>
          </g>
        </g>
        <text id="A_-_Z" data-name="A - Z" transform="translate(2510.783 5899.825)" fill="#fff" font-size="58" font-family="SegoeUI, Segoe UI"><tspan x="0" y="0">A - Z</tspan></text>
        <g id="Grupo_1209941" data-name="Grupo 1209941" transform="translate(2535.829 5888.682)">
          <path id="Trazado_1081167" data-name="Trazado 1081167" d="M270.94,220.825l-13.775-41.706-8.626-8.687-19.22.967-29.64,14.753c.493-1.174.784-1.858.806-1.911l-.3-.126c-.024.057-.37.873-.952,2.257l-.307.153s-.206.7-.562,1.925c-4.645,11.131-16.651,40.4-17.853,48.415a8.654,8.654,0,0,0,3.04,8.368,7.511,7.511,0,0,0,4.557,1.652,5.461,5.461,0,0,0,2.079-.393,4.6,4.6,0,0,0,.845-.467c5.688,6.315,18.745,10.955,46.7,9.288C284.089,252.549,270.94,220.825,270.94,220.825Zm-80.874,25.369a6.532,6.532,0,0,1-6.313-1.215,8.341,8.341,0,0,1-2.92-8.067c1.111-7.41,11.542-33.172,16.739-45.711-2.868,9.976-9.361,33.122-10.335,41.5-.489,4.2.032,8.979,3.581,13.081A4.223,4.223,0,0,1,190.066,246.194Z" transform="translate(-180.392 -151.441)" fill="#5b2135"/>
          <path id="Trazado_1081168" data-name="Trazado 1081168" d="M264.567,193.72c-.11,6.193-1.271,12.92-4.98,17.694a17.114,17.114,0,0,1-18.945,5.335c-6.283-2.335-10.843-8.482-14.03-14.9-.013-.033-.033-.064-.045-.1a80.192,80.192,0,0,1-6.257-18.783s-.968-13.494,20.957-16.075c20.138-2.374,21.583,10.785,21.583,10.785A70.233,70.233,0,0,1,264.567,193.72Z" transform="translate(-193.225 -150.211)" fill="#efd3ca"/>
          <path id="Trazado_1081169" data-name="Trazado 1081169" d="M223.722,190.752l3.546,10.506V191.053a98.777,98.777,0,0,0,16.267-.879l.549-6.326,3.284,5.61s9.155-.337,16.442-4.963l-2.863-6.835-15.795-4.9-12.192,8.517Z" transform="translate(-194.323 -152.191)" fill="#e0a2a2"/>
          <path id="Trazado_1081170" data-name="Trazado 1081170" d="M265.952,170.122a92.536,92.536,0,0,1-23.183,8.418l-4.38-7.9-2.316,9.1a62.271,62.271,0,0,1-28.356-2.206s4.767-38.148,27.492-33.684C235.209,143.842,257.024,133.289,265.952,170.122Z" transform="translate(-189.178 -142.442)" fill="#5b2135"/>
          <path id="Trazado_1081171" data-name="Trazado 1081171" d="M282.877,187.674s.676-3.512,4.04-3.674,6.444,8.106,1.905,12.686-8.106,1.743-8.106,1.743S277.986,195.158,282.877,187.674Z" transform="translate(-212.403 -155.803)" fill="#efd3ca"/>
          <path id="Trazado_1081172" data-name="Trazado 1081172" d="M278.049,218.952c5.683-18.867-.322-27.73-.322-27.73l3.445-1.168,1.858,11.2C282.919,207.451,281.759,214.178,278.049,218.952Z" transform="translate(-211.687 -157.75)" fill="#e0a2a2"/>
          <path id="Trazado_1081173" data-name="Trazado 1081173" d="M222.562,201s-.667-3.467-3.989-3.627-6.363,8-1.881,12.525,8,1.721,8,1.721S227.391,208.387,222.562,201Z" transform="translate(-191.339 -160.102)" fill="#efd3ca"/>
          <path id="Trazado_1081174" data-name="Trazado 1081174" d="M282.161,188.1l.363,10.534-4.8-13.315h3.939Z" transform="translate(-211.687 -156.227)" fill="#5b2135"/>
          <path id="Trazado_1081175" data-name="Trazado 1081175" d="M223.949,206.769c.323,1.428.573,2.532-.064,3.378a3.636,3.636,0,0,1-3.106.51,5.514,5.514,0,0,0,1.955-.252,7.127,7.127,0,0,0-2.544-4.118c1.767.155,2.894,2.447,2.894,2.447s.427-1.649-1.339-4.291a2.779,2.779,0,0,0-4.04-1.029,3.423,3.423,0,0,1,2.336-.963C222.541,202.948,223.557,205.325,223.949,206.769Z" transform="translate(-192.388 -161.735)" fill="#e0a2a2"/>
          <path id="Trazado_1081176" data-name="Trazado 1081176" d="M284.829,193.769c.229,1.445.407,2.564,1.313,3.114a3.637,3.637,0,0,0,3.074-.679,5.513,5.513,0,0,1-1.909.491,7.125,7.125,0,0,1,.835-4.768c-1.583.8-1.78,3.345-1.78,3.345s-1.008-1.373-.347-4.481a2.779,2.779,0,0,1,3.371-2.455,3.424,3.424,0,0,0-2.527-.028C284.72,189.7,284.658,192.283,284.829,193.769Z" transform="translate(-213.951 -157.114)" fill="#e0a2a2"/>
          <path id="Trazado_1081177" data-name="Trazado 1081177" d="M220.9,195.216l5.462,12.8-1.172-14.242Z" transform="translate(-193.415 -158.945)" fill="#5b2135"/>
        </g>
        <g id="Grupo_1209949" data-name="Grupo 1209949" transform="translate(2519.099 5942.734)">
          <path id="Trazado_1081178" data-name="Trazado 1081178" d="M179.945,307.606A109.023,109.023,0,0,0,175.9,320.38c-1.547,6.448,13.327,5.84,13.327,5.84l6.895-6.895v-4.988l-.984-10.137-5.912-.609Z" transform="translate(-162.181 -248.306)" fill="#e0a2a2"/>
          <path id="Trazado_1081179" data-name="Trazado 1081179" d="M326.956,310.509l-1.8,15.347-12.167,4.329-3.144-6.591v-8.461l4.54-3.049Z" transform="translate(-205.282 -250.531)" fill="#e0a2a2"/>
          <g id="Grupo_1209942" data-name="Grupo 1209942" transform="translate(16.304 16.749)">
            <path id="Trazado_1081180" data-name="Trazado 1081180" d="M265.627,297.39l.213,4.019.832,15.79v.013l-.033.006-9.746,1.077-26.2,2.884-4.554.5-6.218-2.709-6.36-2.774-15.307-6.676-1.58-.69,1.445-15.5-.02.006-1.523.4a21.635,21.635,0,0,1-16.81-2.516s2.683-8.65,6.657-17.984,9.231-19.332,14.378-22.041l64.827-4.405s.632.2,1.626.574a39.5,39.5,0,0,1,9.863,5.167c4.309,3.425,10.276,38.748,10.276,38.748S282.025,296.945,265.627,297.39Z" transform="translate(-179.765 -246.794)" fill="#fcf4ec"/>
            <path id="Trazado_1081181" data-name="Trazado 1081181" d="M181.125,308.113s4.327,3.318,15.887,5.34" transform="translate(-180.202 -266.509)" fill="none" stroke="#e9dfd7" stroke-miterlimit="10" stroke-width="1"/>
            <path id="Trazado_1081182" data-name="Trazado 1081182" d="M294.512,309.956s-.372-18.3-1.76-23.427.192-3.564.88-1.3c0,0-.319-4.433.88-4.607s.417,28.51.417,28.51Z" transform="translate(-215.914 -257.669)" fill="#e9dfd7"/>
            <path id="Trazado_1081183" data-name="Trazado 1081183" d="M325.143,308.723a72.558,72.558,0,0,1-26.612,8.25" transform="translate(-217.95 -266.705)" fill="none" stroke="#e9dfd7" stroke-miterlimit="10" stroke-width="1"/>
            <path id="Trazado_1081184" data-name="Trazado 1081184" d="M289.494,277.08s10.1,10.634,17.018,12.488,3.891-12.874,3.891-12.874l-11.5-3.651Z" transform="translate(-215.044 -255.233)" fill="#e9dfd7"/>
            <path id="Trazado_1081185" data-name="Trazado 1081185" d="M217.185,294.28l-3.219,28.066-7.7,2.445-1.58-.69,1.445-15.5-.02.007,1.723-3.316Z" transform="translate(-187.777 -262.061)" fill="#e9dfd7"/>
            <path id="Trazado_1081186" data-name="Trazado 1081186" d="M272.907,346.149l-26.2,2.884-10.772-2.206-6.36-2.774,2.464-5.412s25.963,2.606,42.34-3.909C287.44,329.533,277.474,341.208,272.907,346.149Z" transform="translate(-195.779 -274.648)" fill="#e9dfd7"/>
            <path id="Trazado_1081187" data-name="Trazado 1081187" d="M226.34,287.291s12.84-5.921,18.586-2.479l4.84.7S269.656,267.7,283,273.993l2.717-18.247-33.2,3.74-23.451,13.1Z" transform="translate(-194.739 -249.672)" fill="#e9dfd7"/>
            <path id="Trazado_1081188" data-name="Trazado 1081188" d="M226.34,315.286s10.135,14.636,37.517,9.881C263.856,325.167,234.058,324.069,226.34,315.286Z" transform="translate(-194.739 -268.815)" fill="#e9dfd7"/>
            <path id="Trazado_1081189" data-name="Trazado 1081189" d="M244.327,322.519s20.195.438,29.311-4.039c0,0-6.833,5.476-28.177,5.682Z" transform="translate(-200.523 -269.842)" fill="#e9dfd7"/>
          </g>
          <g id="Grupo_1209943" data-name="Grupo 1209943" transform="translate(32.954 0)">
            <path id="Trazado_1081190" data-name="Trazado 1081190" d="M283.819,229.38,266,239.011l-13.946-.961c-1.155.451-2.477,1.039-2.406,1.381l-1.883.458-1.864.458-1.606-.529-1.161-.387s-17.661-13.488-35.387,1.477l-.322-1.09-.613-2.038s12.4-13.507,26.3-11.172c13.34,2.245,12.849,8.45,12.792,8.947.929-4.179,2.458-8.882,12.527-12.4,10.1-3.515,23.854,2.948,23.854,2.948l.955,2.045Z" transform="translate(-205.111 -222.109)" fill="#fcf4ec"/>
            <path id="Trazado_1081191" data-name="Trazado 1081191" d="M264.12,248.28l-1.987,20.4-.993,10.217-3.464-.529,1.136-11.534,1.838-18.622,1.606.529Z" transform="translate(-221.464 -230.5)" fill="#e8be49"/>
            <path id="Trazado_1081192" data-name="Trazado 1081192" d="M265.575,247.638l-.045.458-1.864.458-1.606-.529.039-.387Z" transform="translate(-222.873 -230.317)" fill="#dd953e"/>
            <path id="Trazado_1081193" data-name="Trazado 1081193" d="M243.529,243.77l-2.1,21.273-.91,9.269c-5.728-5.735-31.143,1.1-31.143,1.1l-2.7-15.63L204.3,246.111c.78-.69,1.554-1.348,2.316-1.955,11.185-9.011,20.054-9.566,26.3-7.657A21.8,21.8,0,0,1,243.529,243.77Z" transform="translate(-204.304 -226.449)" fill="#e8be49"/>
            <path id="Trazado_1081194" data-name="Trazado 1081194" d="M303.807,231.122s-2.741,7.276-5.863,14.823c-.864,2.077-1.755,4.18-2.619,6.154-.071.149-.129.29-.193.432-1.032,2.322-2.032,4.457-2.915,6.147a20.57,20.57,0,0,1-1.955,3.226,18.742,18.742,0,0,0-1.871-.484,26.919,26.919,0,0,0-3.98-.51c-.316-.02-.645-.033-.98-.039a22.138,22.138,0,0,0-17.39,7.372c-.123.136-.239.271-.361.413a.717.717,0,0,0-.064.077c-.058.064-.116.136-.174.206-.084.1-.168.2-.252.3-.123.149-.245.3-.368.458-.064.09-.136.18-.206.277-.478.632-.935,1.309-1.387,2.032q-.223.358-.445.735l.993-10.217,1.987-20.4s.006-.064.02-.18l.026-.277a.02.02,0,0,1,.006-.013.086.086,0,0,0,.006-.039,16.953,16.953,0,0,1,5.006-6.993,20.811,20.811,0,0,1,8.966-4.393,47.725,47.725,0,0,1,21.448.155C302.878,230.793,303.807,231.122,303.807,231.122Z" transform="translate(-223.105 -224.353)" fill="#e8be49"/>
            <path id="Trazado_1081195" data-name="Trazado 1081195" d="M248.36,278.076a27.139,27.139,0,0,0-3.257,4.5l-3.464-.529c-5.728-5.735-31.143,1.1-31.143,1.1l-2.7-15.63c1.258,1.425,3.709,3.593,6.721,3.2,4.438-.574,12.127-8.547,12.127-8.547s3.425-3.232,5.1-2.354-8.882,17.713-8.882,17.713l16.1-5.967a25.57,25.57,0,0,1,3.812-1.052c.974-.155,1.826-.155,2.109.232l.78,1.071s.18.213.432.542a8.1,8.1,0,0,1,1.516,2.658C247.728,275.741,248.1,277.147,248.36,278.076Z" transform="translate(-205.426 -234.185)" fill="#dd953e"/>
            <path id="Trazado_1081196" data-name="Trazado 1081196" d="M255.8,244.193l-2.1,21.273-11.23,3.458s7.683-21.17,2.722-32A21.8,21.8,0,0,1,255.8,244.193Z" transform="translate(-216.573 -226.872)" fill="#dd953e"/>
            <path id="Trazado_1081197" data-name="Trazado 1081197" d="M284.029,263.5a22.138,22.138,0,0,0-17.39,7.372c-.484.535-.961,1.116-1.426,1.735l-.568-3.574,1.716-24.273s.006-.064.02-.18a2.561,2.561,0,0,0,.032-.29.086.086,0,0,0,.006-.039,16.953,16.953,0,0,1,5.006-6.992C273.457,250.892,281.636,260.832,284.029,263.5Z" transform="translate(-223.704 -226.979)" fill="#dd953e"/>
            <path id="Trazado_1081198" data-name="Trazado 1081198" d="M302.507,260.46c-1.032,2.322-2.032,4.457-2.915,6.147l-3.825,2.741a26.922,26.922,0,0,0-3.98-.51,14.818,14.818,0,0,1-2.438-3.767c-.793-2.148-.077-2.819.123-2.954-.129.045-.594-.064-2.019-1.883a7.357,7.357,0,0,1-1.587-6.18c.3-1.651,11.166,3.967,11.166,3.967Z" transform="translate(-230.481 -232.282)" fill="#dd953e"/>
            <path id="Trazado_1081199" data-name="Trazado 1081199" d="M308.171,252.062c-.864,2.077-1.755,4.18-2.619,6.154l-6.986-5.167s-4.135-3.16-3.967-4.683C294.735,247.173,304.153,250.559,308.171,252.062Z" transform="translate(-233.334 -230.471)" fill="#dd953e"/>
            <path id="Trazado_1081200" data-name="Trazado 1081200" d="M282.753,227.391c-31.3-12.184-36.583,10.642-36.583,10.642s-3.6-11.71-18.29-9.82-20.7,10.937-20.7,10.937" transform="translate(-205.229 -222.656)" fill="none" stroke="#c4bab3" stroke-linecap="round" stroke-linejoin="round" stroke-miterlimit="10" stroke-width="0.75"/>
            <path id="Trazado_1081201" data-name="Trazado 1081201" d="M283.535,229.712a55.972,55.972,0,0,0-19.685-2.666c-10.58.591-17.5,13.372-17.5,13.372s-13.853-21.118-38.628.964" transform="translate(-205.401 -223.673)" fill="none" stroke="#c4bab3" stroke-linecap="round" stroke-linejoin="round" stroke-miterlimit="10" stroke-width="0.75"/>
          </g>
          <g id="Grupo_1209944" data-name="Grupo 1209944" transform="translate(13.714 24.579)">
            <path id="Trazado_1081202" data-name="Trazado 1081202" d="M235.612,274.441s-3.644,1.445-7.237,2.851a41.321,41.321,0,0,0-9.831,6.2c-.742.69-3.219,2.645-5.515,4.457-2.064,1.632-3.993,3.147-4.386,3.541-.832.832-3.9,3.954-3.9,3.954a.08.08,0,0,0-.013.02c-.3.587-8.36,16.371-11.166,20.274-2.051,2.864-6.5,6.167-10.308,6.638a5.472,5.472,0,0,1-3.438-.568,3.6,3.6,0,0,1-.548-.355c-3.98-3.083-3.838-16.1-2.38-18.455s12.5-10.811,12.5-10.811,4.393-5.1,4.851-5.973-2.025-13.2-2.025-13.2a17.78,17.78,0,0,1,2.445-8.8,10.677,10.677,0,0,1,1.968-2.464l1.968,11.378s3.574.136,4.96-.026a14.19,14.19,0,0,0,3.941-1.723s3.122-4.173,6.824-9.662c2.516-3.728,4.238-3.684,5.076-3.057a1.332,1.332,0,0,1,.587.916c-.026.664-7.128,13.849-7.128,13.849s-.51,1.264.174,1.5h.02a1.936,1.936,0,0,0,1.309-.277,121.641,121.641,0,0,1,14.99-5.56c3.87-.929,4.412,1.471,3.9,2.012a9.014,9.014,0,0,1-2.154,1.206l-.136.058-.007.007,2.535-.232C236.025,271.905,235.612,274.441,235.612,274.441Z" transform="translate(-175.948 -258.335)" fill="#efd3ca"/>
            <path id="Trazado_1081203" data-name="Trazado 1081203" d="M206.56,313.056c-.3.587-8.36,16.371-11.166,20.274-2.051,2.864-6.5,6.167-10.308,6.638a5.472,5.472,0,0,1-3.438-.568C191.054,334.233,206.07,313.72,206.56,313.056Z" transform="translate(-177.781 -275.928)" fill="#e0a2a2"/>
            <path id="Trazado_1081204" data-name="Trazado 1081204" d="M253.184,280.974s-3.644,1.445-7.237,2.851a41.321,41.321,0,0,0-9.831,6.2c-.742.69-3.219,2.645-5.515,4.457,5.3-8.482,17.532-15.365,17.92-15.578l2.535-.232C253.6,278.439,253.184,280.974,253.184,280.974Z" transform="translate(-193.519 -264.868)" fill="#e0a2a2"/>
            <path id="Trazado_1081205" data-name="Trazado 1081205" d="M229.979,275.077a1.306,1.306,0,0,1-1.212-1.832l7.579-14.436a1.332,1.332,0,0,1,.587.916c-.026.664-7.128,13.849-7.128,13.849S229.3,274.838,229.979,275.077Z" transform="translate(-192.898 -258.487)" fill="#e0a2a2"/>
            <path id="Trazado_1081206" data-name="Trazado 1081206" d="M207.46,274.741c-2.109.149-3.367-5.477-3.935-8.915a10.676,10.676,0,0,1,1.968-2.464Z" transform="translate(-184.815 -259.951)" fill="#e0a2a2"/>
          </g>
          <g id="Grupo_1209945" data-name="Grupo 1209945" transform="translate(88.674 16.743)">
            <path id="Trazado_1081207" data-name="Trazado 1081207" d="M318.085,278.674a8.607,8.607,0,0,1-.29,1.529c-1.3,4.315-7.237,18.183-7.237,18.183s-2.638,8.683-7.412,12.494a6.79,6.79,0,0,1-6.134,1.561c-.3-.077-.594-.161-.871-.258a8.443,8.443,0,0,1-6.231-8.089,10.093,10.093,0,0,1,.987-4.915c1.51-2.787,14.642-21.68,14.642-21.68a.021.021,0,0,0-.013-.007c-.284-.174-4.883-2.948-6.921-5.135-2.1-2.257-8.128-10.211-8.128-10.211a.9.9,0,0,1-.129-.806,1.551,1.551,0,0,1,.638-.787.021.021,0,0,1-.013-.006,40.8,40.8,0,0,1-3.69-4.361,1.471,1.471,0,0,1-.071-.89.927.927,0,0,1,1.219-.684l-.02-.013c-.265-.18-2.735-1.935-1.755-3.316a.345.345,0,0,1,.058-.09c1.212-1.471,2.909-.723,3.825-.3s12.733,6.98,12.733,6.98a1.083,1.083,0,0,0,.471.045h.006a.456.456,0,0,0,.4-.309c.18-.51-4.637-3.748-4.637-3.748l-6.386-4.664a1.841,1.841,0,0,1-.413-1.6,1.574,1.574,0,0,1,.3-.542c.858-1.039,5.554,1.284,5.554,1.284l13.456,6.328a7.567,7.567,0,0,1,3.774,4.618C316.841,262.465,318.679,273.385,318.085,278.674Z" transform="translate(-286.429 -246.786)" fill="#efd3ca"/>
            <path id="Trazado_1081208" data-name="Trazado 1081208" d="M319.734,293.785a8.615,8.615,0,0,1-.29,1.529c-1.3,4.315-7.237,18.183-7.237,18.183s-2.638,8.683-7.412,12.494l-3.219.5-3.787.8a8.443,8.443,0,0,1-6.231-8.089c2.9.522,8.25.651,14.578-3.128A141.935,141.935,0,0,0,319.734,293.785Z" transform="translate(-288.078 -261.897)" fill="#e0a2a2"/>
            <path id="Trazado_1081209" data-name="Trazado 1081209" d="M307.363,284.392c-.284-.174-4.883-2.948-6.921-5.135-2.1-2.257-8.128-10.211-8.128-10.211a.9.9,0,0,1-.129-.806c1.626,2.128,7.289,9.469,9.572,11.275C304.325,281.554,307.144,284.185,307.363,284.392Z" transform="translate(-288.265 -253.684)" fill="#e0a2a2"/>
            <path id="Trazado_1081210" data-name="Trazado 1081210" d="M300.9,272.284l-9.56-7.7a.021.021,0,0,1-.013-.006,40.8,40.8,0,0,1-3.69-4.361,1.471,1.471,0,0,1-.071-.89C287.831,261.39,299.429,271.065,300.9,272.284Z" transform="translate(-286.782 -250.82)" fill="#e0a2a2"/>
            <path id="Trazado_1081211" data-name="Trazado 1081211" d="M302.85,264.326l-14.417-7.579-.02-.013c-.265-.18-2.735-1.935-1.755-3.316a8.813,8.813,0,0,0,1.574,1.709C290.633,257.2,301.805,263.72,302.85,264.326Z" transform="translate(-286.429 -248.918)" fill="#e0a2a2"/>
            <path id="Trazado_1081212" data-name="Trazado 1081212" d="M306.7,258.3a.456.456,0,0,0,.4-.309c.18-.51-4.637-3.748-4.637-3.748l-6.386-4.664a1.841,1.841,0,0,1-.413-1.6A21.09,21.09,0,0,0,298.2,250.3c2.677,2.1,10.282,6.824,10.282,6.824S308.594,259.133,306.7,258.3Z" transform="translate(-289.38 -247.17)" fill="#e0a2a2"/>
          </g>
          <g id="Grupo_1209946" data-name="Grupo 1209946" transform="translate(0 69.038)">
            <path id="Trazado_1081213" data-name="Trazado 1081213" d="M246.809,347.358v16.3l-14.378-1.993-19.061-2.638-5.4-1.251-30.033-6.941s-8.579-21.409,23.325-19Z" transform="translate(-162.536 -326.365)" fill="#efd3ca"/>
            <path id="Trazado_1081214" data-name="Trazado 1081214" d="M253.034,355.489l-6.764,10.924-19.061-2.638-5.4-1.251-1.877-2.587,11.6-13.52Z" transform="translate(-176.375 -331.114)" fill="#e0a2a2"/>
            <path id="Trazado_1081215" data-name="Trazado 1081215" d="M214.335,333.85s-1.722,8.179-4.412,17.616c-.948,3.342-2.019,6.837-3.186,10.185-.658,1.9-1.341,3.754-2.051,5.5a176.733,176.733,0,0,1-17.055-5.167c-12.933-4.625-28.91-12.172-31.523-21.783a10.2,10.2,0,0,1-.123-4.973C160.171,316.414,191.455,324.587,214.335,333.85Z" transform="translate(-155.735 -323.862)" fill="#494038"/>
            <path id="Trazado_1081216" data-name="Trazado 1081216" d="M210.1,359.21c-.948,3.342-2.019,6.837-3.186,10.185l-10.6,1.786-8.508-1.451c-12.933-4.625-28.91-12.172-31.523-21.783C166.347,350.908,195.818,359.216,210.1,359.21Z" transform="translate(-155.911 -331.606)" fill="#231f1c"/>
          </g>
          <g id="Grupo_1209947" data-name="Grupo 1209947" transform="translate(96.644 90.992)">
            <path id="Trazado_1081217" data-name="Trazado 1081217" d="M301.291,364.815l.7,3.451.026,3.483.039,6.412s7.792,1.484,21.2.935c0,0,1.722.026,5.547.013.839,0,1.774-.006,2.819-.013a23,23,0,0,0,3.077-.206c4.631-.632,8.592-3.019,8.8-10.372a11.294,11.294,0,0,0-2.277-7.754l-.006-.006a11.491,11.491,0,0,0-5.567-3.535l-.007-.006h-.006a21.465,21.465,0,0,0-3.89-.832c-5.56-.7-13.03,1.083-13.03,1.083l-15.842,3.006Z" transform="translate(-299.177 -356.22)" fill="#4782b2"/>
            <path id="Trazado_1081218" data-name="Trazado 1081218" d="M328.5,372.486h-23.3l1.9,9.219,22.8.351Z" transform="translate(-300.436 -361.449)" fill="#336282"/>
            <path id="Trazado_1081219" data-name="Trazado 1081219" d="M337.55,369.866c.09,5.057,1.529,8.024,2.915,9.715.839,0,1.774-.006,2.819-.013a23,23,0,0,0,3.077-.206c4.631-.632,8.592-3.019,8.8-10.372a11.294,11.294,0,0,0-2.277-7.754l-.006-.006-5.567-3.535-.007-.006H347.3C346.954,357.772,337.382,360.113,337.55,369.866Z" transform="translate(-310.834 -356.692)" fill="#e9dfd7"/>
            <path id="Trazado_1081220" data-name="Trazado 1081220" d="M301.291,364.814l.7,3.451.026,3.483.045-.013,3.851-9.45s17.462-3.1,23.015-2.954,12.772,1.593,12.933,9.056c.1,4.438-3.361,8.276-7.16,10.5,4.631-.632,8.592-3.019,8.8-10.372.252-8.94-6.2-11.43-11.753-12.133s-13.03,1.083-13.03,1.083l-15.842,3.006Z" transform="translate(-299.177 -356.22)" fill="#e9dfd7"/>
            <path id="Trazado_1081221" data-name="Trazado 1081221" d="M306.255,381.419c-5.878,1.839-8.792-.853-7.931-9.208,1-9.711,8.75-6.566,8.75-6.566l.265,1.641a29.78,29.78,0,0,1-.627,12.422Z" transform="translate(-298.175 -359.094)" fill="#336282"/>
            <path id="Trazado_1081222" data-name="Trazado 1081222" d="M329.595,383.513a1.39,1.39,0,0,1-.516.1h-2.213a1.353,1.353,0,0,1-1.322-1.039,32.738,32.738,0,0,1-.845-6.76,23.078,23.078,0,0,1,.871-6.96c.071-.245.149-.5.232-.742a1.367,1.367,0,0,1,1.013-.9,1.285,1.285,0,0,1,.277-.033h1.819a1.352,1.352,0,0,1,1.335,1.587c-.471,2.715-1.168,8.411.136,13.146A1.339,1.339,0,0,1,329.595,383.513Z" transform="translate(-306.701 -359.743)" fill="#e9dfd7"/>
            <path id="Trazado_1081223" data-name="Trazado 1081223" d="M318.734,383.518a1.294,1.294,0,0,1-.5.1h-2.213a1.353,1.353,0,0,1-1.322-1.039c-.168-.71-.381-1.761-.555-3.025a28.342,28.342,0,0,1-.013-8.05,19.368,19.368,0,0,1,.826-3.386,1.366,1.366,0,0,1,1.29-.936h1.819a1.352,1.352,0,0,1,1.335,1.587c-.155.883-.329,2.077-.451,3.451a28.12,28.12,0,0,0,.587,9.695A1.341,1.341,0,0,1,318.734,383.518Z" transform="translate(-303.213 -359.743)" fill="#e9dfd7"/>
            <path id="Trazado_1081224" data-name="Trazado 1081224" d="M353.521,370.172s-2.173-4.715-8.947-4.317-7.026-3.287-7.026-3.287,7.243-1.793,10.821,0S353,366.718,353.521,370.172Z" transform="translate(-310.834 -358.004)" fill="#ccc2ba"/>
            <path id="Trazado_1081225" data-name="Trazado 1081225" d="M329.6,383.513a49.944,49.944,0,0,1-1.225-9.972s-2.232,1.258-3.67,2.277a23.079,23.079,0,0,1,.87-6.96l1.245-1.645a1.283,1.283,0,0,1,.277-.033h1.819a1.352,1.352,0,0,1,1.335,1.587c-.471,2.715-1.168,8.411.136,13.146A1.34,1.34,0,0,1,329.6,383.513Z" transform="translate(-306.702 -359.743)" fill="#ccc2ba"/>
            <path id="Trazado_1081226" data-name="Trazado 1081226" d="M318.734,384.943l-1.1-5.908-3.489,1.942a28.343,28.343,0,0,1-.013-8.05l4.289-1.316.529,2.032a28.119,28.119,0,0,0,.587,9.695A1.342,1.342,0,0,1,318.734,384.943Z" transform="translate(-303.214 -361.168)" fill="#ccc2ba"/>
          </g>
          <g id="Grupo_1209948" data-name="Grupo 1209948" transform="translate(3.564 66.031)">
            <path id="Trazado_1081227" data-name="Trazado 1081227" d="M203.214,374.935l-.7,3.451-.026,3.483-.039,6.412s-7.792,1.484-21.2.936c0,0-1.722.026-5.547.013-.839,0-1.774-.007-2.819-.013a23.007,23.007,0,0,1-3.077-.206c-4.631-.632-8.592-3.019-8.8-10.372a11.294,11.294,0,0,1,2.277-7.754l.006-.006a11.491,11.491,0,0,1,5.567-3.535l.007-.006h.006a21.468,21.468,0,0,1,3.89-.832c5.56-.7,13.03,1.084,13.03,1.084l15.842,3.006Z" transform="translate(-160.989 -334.513)" fill="#59a7f4"/>
            <path id="Trazado_1081228" data-name="Trazado 1081228" d="M184.305,382.606h23.3l-1.9,9.219-22.8.351Z" transform="translate(-168.034 -339.742)" fill="#4782b2"/>
            <path id="Trazado_1081229" data-name="Trazado 1081229" d="M178.612,379.987c-.09,5.057-1.529,8.024-2.915,9.715-.839,0-1.774-.007-2.819-.013a23,23,0,0,1-3.077-.206c-4.631-.632-8.592-3.019-8.8-10.372a11.294,11.294,0,0,1,2.277-7.754l.006-.006,5.567-3.535.007-.006h.006C169.207,367.892,178.779,370.233,178.612,379.987Z" transform="translate(-160.989 -334.984)" fill="#fff5f4"/>
            <path id="Trazado_1081230" data-name="Trazado 1081230" d="M203.214,374.935l-.7,3.451-.026,3.483-.045-.013-3.851-9.45s-17.462-3.1-23.015-2.954-12.772,1.593-12.933,9.056c-.1,4.438,3.361,8.276,7.16,10.5-4.631-.632-8.592-3.019-8.8-10.372-.252-8.94,6.2-11.43,11.753-12.133s13.03,1.083,13.03,1.083l15.842,3.006Z" transform="translate(-160.989 -334.512)" fill="#fcf4ec"/>
            <path id="Trazado_1081231" data-name="Trazado 1081231" d="M263.831,374.089s-32.852,4.309-44.288,6.689c-.581.123-1.109.239-1.574.348,0,0-2.49-1.29-1.645-15.126l32.013-16.223,6.638-3.361Z" transform="translate(-178.723 -328.107)" fill="#efd3ca"/>
            <path id="Trazado_1081232" data-name="Trazado 1081232" d="M265.048,374.089S232.2,378.4,220.76,380.778l-.826-3.3,31.007-12.4a57.334,57.334,0,0,1-1.387-15.3l6.638-3.361Z" transform="translate(-179.94 -328.107)" fill="#e0a2a2"/>
            <path id="Trazado_1081233" data-name="Trazado 1081233" d="M334.832,334.889c-1.335,11.495-52.8,37.561-52.8,37.561a48.057,48.057,0,0,1-12.61-14.913c-5.779-10.907-4.367-19.977-4.367-19.977s42.644-15.371,52.132-17.642c7.476-1.786,14.959,1.4,17.145,8.463A15.872,15.872,0,0,1,334.832,334.889Z" transform="translate(-194.399 -319.43)" fill="#494038"/>
            <path id="Trazado_1081234" data-name="Trazado 1081234" d="M221.025,389.534c-1.187,2.555-3.677,3.135-7.289,2.006l-.451-1.709a28.9,28.9,0,0,1-.7-3.47c-.006-.058-.02-.11-.026-.155a29.585,29.585,0,0,1,.1-8.8l.265-1.645s7.754-3.141,8.753,6.566C222,385.555,221.773,387.935,221.025,389.534Z" transform="translate(-177.477 -337.386)" fill="#59a7f4"/>
            <path id="Trazado_1081235" data-name="Trazado 1081235" d="M196.247,392.693a1.352,1.352,0,0,1-1.316,1.045h-2.213a1.354,1.354,0,0,1-1.309-1.7c.026-.1.052-.187.071-.284,1.212-4.683.529-10.2.064-12.862a1.358,1.358,0,0,1,1.335-1.593h1.826a1.007,1.007,0,0,1,.309.045,1.364,1.364,0,0,1,.98.89C197.956,383.953,196.821,390.254,196.247,392.693Z" transform="translate(-170.754 -338.035)" fill="#fff5f4"/>
            <path id="Trazado_1081236" data-name="Trazado 1081236" d="M207.094,392.693a1.352,1.352,0,0,1-1.316,1.045h-2.213a1.354,1.354,0,0,1-1.309-1.7v-.013h.006c1.3-4.741.6-10.418.129-13.133a1.361,1.361,0,0,1,1.335-1.593h1.826a1.372,1.372,0,0,1,1.29.936C208.8,383.953,207.675,390.254,207.094,392.693Z" transform="translate(-174.242 -338.035)" fill="#fff5f4"/>
            <path id="Trazado_1081237" data-name="Trazado 1081237" d="M336.974,339.13c-1.335,11.495-52.8,37.561-52.8,37.561a48.057,48.057,0,0,1-12.61-14.913c8.7-1.341,44.676-8.018,64.91-29.156A15.86,15.86,0,0,1,336.974,339.13Z" transform="translate(-196.541 -323.671)" fill="#231f1c"/>
            <path id="Trazado_1081238" data-name="Trazado 1081238" d="M174.5,371.225s-11.251,3.155-10.88,10.9C163.624,382.124,160.879,372.155,174.5,371.225Z" transform="translate(-161.763 -336.083)" fill="#e9dfd7"/>
            <path id="Trazado_1081239" data-name="Trazado 1081239" d="M196,378.252c1.961,5.722.826,12.023.252,14.462a1.352,1.352,0,0,1-1.316,1.045h-2.213a1.354,1.354,0,0,1-1.309-1.7c.026-.1.052-.187.071-.284a13.759,13.759,0,0,0,3.432-.09c1.129-3.322.394-11.547.1-14.32A1.364,1.364,0,0,1,196,378.252Z" transform="translate(-170.754 -338.056)" fill="#e9dfd7"/>
            <path id="Trazado_1081240" data-name="Trazado 1081240" d="M207.094,392.693a1.352,1.352,0,0,1-1.316,1.045h-2.213a1.354,1.354,0,0,1-1.309-1.7v-.013h.006a24.466,24.466,0,0,0,3.909-.968c1.206-3.528-.309-11.166-.89-13.759h.271a1.372,1.372,0,0,1,1.29.936C208.8,383.952,207.675,390.254,207.094,392.693Z" transform="translate(-174.242 -338.034)" fill="#e9dfd7"/>
            <path id="Trazado_1081241" data-name="Trazado 1081241" d="M221.171,394.786c-1.187,2.555-3.677,3.135-7.289,2.006l-.451-1.709a28.905,28.905,0,0,1-.7-3.47c.271,1.387,1.29,4.6,4.889,4.451A6.923,6.923,0,0,0,221.171,394.786Z" transform="translate(-177.623 -342.638)" fill="#4782b2"/>
          </g>
        </g>
        <g id="Grupo_1209950" data-name="Grupo 1209950" transform="translate(2431.236 5896.157)">
          <path id="Trazado_1081242" data-name="Trazado 1081242" d="M85.223,167.51l-2.006,2.522-1.516-1.2-2.09-1.664L66.929,157.093a4.686,4.686,0,0,0-4.593.425c-2.438,1.516-2.238,3.051-2.232,3.116l.071.226-.039.077V345.929H56.912V161.04a6.021,6.021,0,0,1,2.258-5.167,10.4,10.4,0,0,1,1.464-1.09,7.775,7.775,0,0,1,8.043-.4l.155.11L81.8,164.788l1.238.987.877.7Z" transform="translate(-36.089 -153.461)" fill="#eb91b5"/>
          <path id="Trazado_1081243" data-name="Trazado 1081243" d="M135.938,214.254c-.787.806-1.574,1.593-2.36,2.341-8.972,8.586-17.719,13.443-20.216,11.011-1.916-1.864.348-7.515,5.264-14.2a84.869,84.869,0,0,1,7.463-8.74c9.753-10.017,19.861-16,22.577-13.353S145.691,204.23,135.938,214.254Z" transform="translate(-54.03 -165.431)" fill="#efd3ca"/>
          <path id="Trazado_1081244" data-name="Trazado 1081244" d="M133.577,227.361c-8.972,8.586-17.719,13.443-20.216,11.011-1.916-1.864.348-7.515,5.264-14.2A20.432,20.432,0,0,0,133.577,227.361Z" transform="translate(-54.03 -176.196)" fill="#ccaaa2"/>
          <path id="Trazado_1081245" data-name="Trazado 1081245" d="M135.123,198.608a15.147,15.147,0,0,1-4.806,11.082c-.277.258-.555.5-.845.729a15.155,15.155,0,0,1-19.783-.626l-4.509-4.141-3.819-3.5,3.9-4.012,3.316-3.406,15.042-15.468,8.012,9.669c.136.161.265.322.394.491.193.265.387.535.561.806A15.111,15.111,0,0,1,135.123,198.608Z" transform="translate(-50.39 -161.756)" fill="#fff"/>
          <path id="Trazado_1081246" data-name="Trazado 1081246" d="M134.4,194.891c-2.555,3.451-9.424,14-3.116,20.19a15.155,15.155,0,0,1-19.783-.626l-4.509-4.142.084-7.515.033-2.664,3.283-.742,23.447-5.309,1.438-.322S134.933,194.175,134.4,194.891Z" transform="translate(-52.199 -166.418)" fill="#fcf4ec"/>
          <path id="Trazado_1081247" data-name="Trazado 1081247" d="M149.5,190.568c-1.3-1.271-3.774-1.155-6.9.084a31.892,31.892,0,0,0-4.638,2.361c-.471.29-.955.594-1.438.909a3.327,3.327,0,0,0-.277.187c-.394.258-.793.529-1.193.819-1.245.877-2.516,1.858-3.806,2.922q-1.161.958-2.329,2.012s0-.007-.006,0c-1.3,1.174-2.6,2.426-3.89,3.754a71.449,71.449,0,0,0-9.237,11.547,38.228,38.228,0,0,0-2.257,4.07c-1.626,3.393-2.238,6.231-1.606,8.037a3.006,3.006,0,0,0,.381.761.006.006,0,0,1,.006.006,2.593,2.593,0,0,0,.335.406c1.516,1.471,4.58,1.084,8.431-.748,4.663-2.219,10.475-6.566,16.055-12.294C147.309,204.94,152.85,193.82,149.5,190.568Zm-6.625,14.894c-.18.245-.368.49-.561.742-.381.5-.774,1.006-1.187,1.516-.206.252-.413.51-.626.761q-.949,1.151-1.987,2.322c-.458.516-.929,1.039-1.419,1.561s-.974,1.039-1.484,1.561q-1.539,1.577-3.07,3.019c-.767.716-1.535,1.406-2.29,2.064-.252.226-.5.438-.754.651-1,.852-1.993,1.651-2.961,2.387a44.313,44.313,0,0,1-6.457,4.193c-3.309,1.716-5.87,2.187-7.044,1.039-1.225-1.193-.742-3.935,1.058-7.508h.006a.259.259,0,0,1,.039-.084,40.69,40.69,0,0,1,2.335-3.986c.033-.045.058-.09.09-.129a79.167,79.167,0,0,1,9.2-11.224c.258-.265.51-.522.767-.78.51-.516,1.026-1.019,1.535-1.51a80.292,80.292,0,0,1,6.779-5.838c.478-.368.955-.716,1.426-1.052.136-.1.271-.2.406-.29.568-.4,1.122-.774,1.664-1.129.445-.284.883-.555,1.309-.806.219-.129.432-.258.645-.374.419-.239.826-.451,1.219-.651a.006.006,0,0,0,.007-.006c.394-.2.78-.381,1.155-.542.187-.084.374-.161.555-.239,2.09-.826,3.741-1.006,4.747-.419a1.98,1.98,0,0,1,.871,1.1C149.7,194.252,147.341,199.457,142.877,205.462Z" transform="translate(-53.706 -165.102)" fill="#d36ebb"/>
          <path id="Trazado_1081248" data-name="Trazado 1081248" d="M140.94,181.858c-1.309-1.271-3.774-1.155-6.9.09a30.582,30.582,0,0,0-4.638,2.361c-.471.284-.955.587-1.438.909a3.335,3.335,0,0,0-.278.187c-.394.258-.793.529-1.193.819q-1.868,1.316-3.806,2.922-1.161.949-2.329,2.012h-.006c-1.3,1.168-2.606,2.419-3.9,3.748a71.45,71.45,0,0,0-9.237,11.546,39.471,39.471,0,0,0-2.257,4.07c-1.626,3.4-2.238,6.237-1.6,8.043a3.007,3.007,0,0,0,.381.761L90.827,203.738a25.112,25.112,0,0,1-.071-31.968,24.519,24.519,0,0,1,2.213-2.361l.033-.033a24.593,24.593,0,0,1,3.116-2.483,25.122,25.122,0,0,1,31.039,2.316Z" transform="translate(-45.145 -156.397)" fill="#eb91b5"/>
          <path id="Trazado_1081249" data-name="Trazado 1081249" d="M103.36,220.6a3.006,3.006,0,0,0,.381.761L90.827,205.773a25.112,25.112,0,0,1-.071-31.968,24.518,24.518,0,0,1,2.213-2.361l.033-.033a24.591,24.591,0,0,1,3.116-2.483s-13.843,22.641,8.843,43.631C103.335,215.959,102.722,218.8,103.36,220.6Z" transform="translate(-45.145 -158.434)" fill="#d36ebb"/>
          <path id="Trazado_1081250" data-name="Trazado 1081250" d="M70.8,453.334c-5.812,3.238-13.655,5.225-22.286,5.225a50.867,50.867,0,0,1-15.326-2.27,37.516,37.516,0,0,1-6.954-2.954c.529-9.734,9.527-17.571,20.822-18.19.484-.032.968-.045,1.458-.045.594,0,1.187.02,1.767.064C61.437,435.905,70.28,443.691,70.8,453.334Z" transform="translate(-26.236 -244.011)" fill="#eb91b5"/>
          <path id="Trazado_1081251" data-name="Trazado 1081251" d="M87.807,168.548,85.8,171.07l-1.516-1.2-2.09-1.664L69.514,158.13a4.686,4.686,0,0,0-4.593.425s2.8-2.793,5.076-1.548,14.578,10.869,14.578,10.869l1.045-1.065.877.7Z" transform="translate(-38.674 -154.498)" fill="#d36ebb"/>
          <path id="Trazado_1081252" data-name="Trazado 1081252" d="M48.452,160.8l.064,184.889v1.245c-.161.045-.322.084-.484.136-13.171,3.683-14.7,15.868-14.843,19.809a37.516,37.516,0,0,1-6.954-2.954c.529-9.734,9.527-17.571,20.822-18.19V162.184a6.021,6.021,0,0,1,2.258-5.167A13.714,13.714,0,0,0,48.452,160.8Z" transform="translate(-26.236 -154.604)" fill="#d36ebb"/>
        </g>
        <g id="Grupo_1209951" data-name="Grupo 1209951" transform="translate(2570.865 6100.409)">
          <path id="Trazado_1081253" data-name="Trazado 1081253" d="M401.965,459.8l-5.925.395-.356-3.808L374.5,457.6a.913.913,0,0,1-.964-.763.483.483,0,0,1-.017-.1.936.936,0,0,1,.886-.994l25.8-1.243a.926.926,0,0,1,.958.763l.092.525Z" transform="translate(-277.518 -454.5)" fill="#59a7f4"/>
          <path id="Trazado_1081254" data-name="Trazado 1081254" d="M367.613,470.16a1.105,1.105,0,0,1-1.082,1.132l-119.208,2.787.054-4.012.044-3.528,118.189-3.126.7-.017a1.107,1.107,0,0,1,1.132,1.069Z" transform="translate(-236.947 -457.36)" fill="#59a7f4"/>
          <path id="Trazado_1081255" data-name="Trazado 1081255" d="M367.613,470.16a1.105,1.105,0,0,1-1.082,1.132l-119.208,2.787.054-4.012,82.417-2.1,35.315-.754a22.623,22.623,0,0,1,.5-3.8l.7-.017a1.107,1.107,0,0,1,1.132,1.069Z" transform="translate(-236.947 -457.36)" fill="#4782b2"/>
          <path id="Trazado_1081256" data-name="Trazado 1081256" d="M401.974,460.372l-5.925.395-.356-3.808L374.5,458.166a.913.913,0,0,1-.964-.763l23.587-1.136,4.127.089Z" transform="translate(-277.527 -455.069)" fill="#4782b2"/>
          <path id="Trazado_1081257" data-name="Trazado 1081257" d="M402.583,470.328a1.881,1.881,0,0,1-1.873,1.908l-33.012.21a1.887,1.887,0,0,1-1.9-1.854l-.054-3.447-.054-3.208a1.881,1.881,0,0,1,1.809-1.909l33.011-1.352a1.886,1.886,0,0,1,1.96,1.855l.053,3.821Z" transform="translate(-275.004 -456.486)" fill="#494038"/>
          <path id="Trazado_1081258" data-name="Trazado 1081258" d="M429.581,469.124a.75.75,0,0,1-.655.78l-4.865.592a1,1,0,0,1-1.115-.946l-.128-3.358a.993.993,0,0,1,1.035-1.029l.554.025,4.331.2a.755.755,0,0,1,.714.719l.029.743Z" transform="translate(-293.371 -457.928)" fill="#494038"/>
          <path id="Trazado_1081259" data-name="Trazado 1081259" d="M242.405,475.567l-9.771-2.25a.769.769,0,0,1-.6-.839.75.75,0,0,1,.5-.654l9.973-3.8-.044,3.528Z" transform="translate(-232.03 -458.849)" fill="#494038"/>
          <path id="Trazado_1081260" data-name="Trazado 1081260" d="M242.46,473.227l-.054,4.012-9.771-2.25a.769.769,0,0,1-.6-.839Z" transform="translate(-232.03 -460.521)" fill="#231f1c"/>
          <path id="Trazado_1081261" data-name="Trazado 1081261" d="M402.552,469.043l.056,3.975a1.881,1.881,0,0,1-1.873,1.908l-33.012.21a1.887,1.887,0,0,1-1.9-1.854l-.054-3.447Z" transform="translate(-275.03 -459.176)" fill="#231f1c"/>
          <path id="Trazado_1081262" data-name="Trazado 1081262" d="M429.581,469.124a.75.75,0,0,1-.655.78l-4.865.592a1,1,0,0,1-1.115-.946l-.128-3.358a.993.993,0,0,1,1.035-1.029l.554.025c-.21,1.931.087,1.957.087,1.957l4.988-.3Z" transform="translate(-293.371 -457.928)" fill="#231f1c"/>
        </g>
        <g id="Grupo_1209952" data-name="Grupo 1209952" transform="translate(2579.14 5934.601)">
          <path id="Trazado_1081263" data-name="Trazado 1081263" d="M268.656,212.5c.145,1.229.805,2.163,1.476,2.084s1.1-1.139.953-2.369-.805-2.162-1.476-2.084S268.511,211.265,268.656,212.5Z" transform="translate(-252.072 -210.121)" fill="#383230"/>
          <path id="Trazado_1081264" data-name="Trazado 1081264" d="M244.255,215.027c.145,1.229.805,2.163,1.476,2.084s1.1-1.139.953-2.369-.805-2.163-1.476-2.084S244.11,213.8,244.255,215.027Z" transform="translate(-244.227 -210.935)" fill="#383230"/>
          <path id="Trazado_1081265" data-name="Trazado 1081265" d="M258.288,221.21s1.869-.054,1.719-1.8-1.6-4.69-2.483-4.711-1.25,4.378-1.116,5.52S258.288,221.21,258.288,221.21Z" transform="translate(-248.134 -211.593)" fill="#e55c3a"/>
        </g>
      </g>
    </g>
  </g>
</svg>
