<svg xmlns="http://www.w3.org/2000/svg" xmlns:xlink="http://www.w3.org/1999/xlink" width="113" height="113" viewBox="0 0 113 113">
  <defs>
    <filter id="Trazado_982547" x="0" y="0" width="113" height="113" filterUnits="userSpaceOnUse">
      <feOffset dy="3" input="SourceAlpha"/>
      <feGaussianBlur stdDeviation="3" result="blur"/>
      <feFlood flood-opacity="0.161"/>
      <feComposite operator="in" in2="blur"/>
      <feComposite in="SourceGraphic"/>
    </filter>
  </defs>
  <g id="Grupo_1209972" data-name="Grupo 1209972" transform="translate(-272 -6981.292)">
    <g id="Grupo_1206426" data-name="Grupo 1206426" transform="translate(0 -263.56)">
      <g id="Grupo_1185083" data-name="Grupo 1185083" transform="translate(0 1906.237)">
        <g id="Grupo_1181935" data-name="Grupo 1181935" transform="translate(0 2335.614)">
          <g id="Grupo_1175141" data-name="Grupo 1175141" transform="translate(0.5 395.985)">
            <g id="Grupo_1173988" data-name="Grupo 1173988" transform="translate(280.5 2613.015)">
              <g id="Grupo_1172010" data-name="Grupo 1172010">
                <g id="Grupo_1171046" data-name="Grupo 1171046">
                  <g id="Grupo_1148525" data-name="Grupo 1148525">
                    <g transform="matrix(1, 0, 0, 1, -9, -6)" filter="url(#Trazado_982547)">
                      <g id="Trazado_982547-2" data-name="Trazado 982547" transform="translate(9 6)" fill="#eaf9f8">
                        <path d="M 47.5 93.5 C 41.28937149047852 93.5 35.26533508300781 92.28397369384766 29.59518623352051 89.88570404052734 C 24.11771965026855 87.56893157958984 19.19813346862793 84.25196075439453 14.97309303283691 80.02691650390625 C 10.74804019927979 75.80186462402344 7.431066513061523 70.88229370117188 5.114293098449707 65.40481567382812 C 2.716026782989502 59.73468017578125 1.5 53.71062850952148 1.5 47.5 C 1.5 41.28937149047852 2.716026782989502 35.26533508300781 5.114293098449707 29.59518623352051 C 7.431066513061523 24.11771965026855 10.74804019927979 19.19813346862793 14.97309303283691 14.97309303283691 C 19.19813346862793 10.74804019927979 24.11771965026855 7.431066513061523 29.59518623352051 5.114293098449707 C 35.26533508300781 2.716026782989502 41.28937149047852 1.5 47.5 1.5 C 53.71062850952148 1.5 59.73468017578125 2.716026782989502 65.40481567382812 5.114293098449707 C 70.88229370117188 7.431066513061523 75.80186462402344 10.74804019927979 80.02691650390625 14.97309303283691 C 84.25196075439453 19.19813346862793 87.56893157958984 24.11771965026855 89.88570404052734 29.59518623352051 C 92.28397369384766 35.26533508300781 93.5 41.28937149047852 93.5 47.5 C 93.5 53.71062850952148 92.28397369384766 59.73468017578125 89.88570404052734 65.40481567382812 C 87.56893157958984 70.88229370117188 84.25196075439453 75.80186462402344 80.02691650390625 80.02691650390625 C 75.80186462402344 84.25196075439453 70.88229370117188 87.56893157958984 65.40481567382812 89.88570404052734 C 59.73468017578125 92.28397369384766 53.71062850952148 93.5 47.5 93.5 Z" stroke="none"/>
                        <path d="M 47.5 3 C 41.49121475219727 3 35.66376876831055 4.176155090332031 30.17950439453125 6.495796203613281 C 24.88084411621094 8.736953735351562 20.12152099609375 11.94598388671875 16.03375244140625 16.03375244140625 C 11.94598388671875 20.12152099609375 8.736953735351562 24.88084411621094 6.495796203613281 30.17950439453125 C 4.176155090332031 35.66376876831055 3 41.49121475219727 3 47.5 C 3 53.50878524780273 4.176155090332031 59.33623123168945 6.495796203613281 64.82049560546875 C 8.736953735351562 70.11915588378906 11.94598388671875 74.87847900390625 16.03375244140625 78.96624755859375 C 20.12152099609375 83.05401611328125 24.88084411621094 86.26304626464844 30.17950439453125 88.50419616699219 C 35.66376876831055 90.82384490966797 41.49121475219727 92 47.5 92 C 53.50878524780273 92 59.33623123168945 90.82384490966797 64.82049560546875 88.50419616699219 C 70.11915588378906 86.26304626464844 74.87847900390625 83.05401611328125 78.96624755859375 78.96624755859375 C 83.05401611328125 74.87847900390625 86.26304626464844 70.11915588378906 88.50419616699219 64.82049560546875 C 90.82384490966797 59.33623123168945 92 53.50878524780273 92 47.5 C 92 41.49121475219727 90.82384490966797 35.66376876831055 88.50419616699219 30.17950439453125 C 86.26304626464844 24.88084411621094 83.05401611328125 20.12152099609375 78.96624755859375 16.03375244140625 C 74.87847900390625 11.94598388671875 70.11915588378906 8.736953735351562 64.82049560546875 6.495796203613281 C 59.33623123168945 4.176155090332031 53.50878524780273 3 47.5 3 M 47.5 0 C 73.7335205078125 0 95 21.2664794921875 95 47.5 C 95 73.7335205078125 73.7335205078125 95 47.5 95 C 21.2664794921875 95 0 73.7335205078125 0 47.5 C 0 21.2664794921875 21.2664794921875 0 47.5 0 Z" stroke="none" fill="#1f7069"/>
                      </g>
                    </g>
                  </g>
                </g>
              </g>
            </g>
          </g>
        </g>
      </g>
    </g>
    <g id="procesamiento-de-textos" transform="translate(296.33 6953.604)">
      <g id="Grupo_1209970" data-name="Grupo 1209970" transform="translate(0.928 57.436)">
        <path id="Trazado_1081287" data-name="Trazado 1081287" d="M96.933,118.843v31.37h-52.3v-31.37a1.784,1.784,0,0,1,1.784-1.784H95.149a1.784,1.784,0,0,1,1.784,1.784Z" transform="translate(-40.043 -110.496)" fill="#dcf5f8"/>
        <path id="Trazado_1081288" data-name="Trazado 1081288" d="M423.166,117.059h-4.2a1.784,1.784,0,0,1,1.784,1.784v31.37h4.2v-31.37A1.784,1.784,0,0,0,423.166,117.059Z" transform="translate(-368.06 -110.496)" fill="#c8effe"/>
        <path id="Trazado_1081289" data-name="Trazado 1081289" d="M71.637,103.724V65.734a1.727,1.727,0,0,1,1.727-1.727h42.162a1.727,1.727,0,0,1,1.727,1.727v37.99Z" transform="translate(-63.703 -64.007)" fill="#fff9e2"/>
        <path id="Trazado_1081290" data-name="Trazado 1081290" d="M396.6,64.008h-4.208a1.727,1.727,0,0,1,1.727,1.727v37.99h4.208V65.734A1.726,1.726,0,0,0,396.6,64.008Z" transform="translate(-344.777 -64.008)" fill="#fff5c6"/>
        <path id="Trazado_1081291" data-name="Trazado 1081291" d="M98.637,110.189V92.475a1.467,1.467,0,0,1,1.467-1.467H118.7a1.467,1.467,0,0,1,1.467,1.467v17.714a1.467,1.467,0,0,1-1.467,1.467H100.1A1.467,1.467,0,0,1,98.637,110.189Z" transform="translate(-87.362 -87.668)" fill="#fee97d"/>
        <path id="Trazado_1081292" data-name="Trazado 1081292" d="M230.99,91.008h-4.208a1.467,1.467,0,0,1,1.467,1.467v17.714a1.467,1.467,0,0,1-1.467,1.467h4.208a1.467,1.467,0,0,0,1.467-1.467V92.475A1.467,1.467,0,0,0,230.99,91.008Z" transform="translate(-199.655 -87.668)" fill="#fcdb54"/>
        <path id="Trazado_1081293" data-name="Trazado 1081293" d="M9.548,385.053H66.936a2.048,2.048,0,0,1,2.048,2.048,5.738,5.738,0,0,1-5.738,5.738H13.238A5.738,5.738,0,0,1,7.5,387.1a2.048,2.048,0,0,1,2.048-2.048Z" transform="translate(-7.5 -345.336)" fill="#8d9ca8"/>
        <path id="Trazado_1081294" data-name="Trazado 1081294" d="M432,385.053h-4.208a2.048,2.048,0,0,1,2.048,2.048,5.738,5.738,0,0,1-5.738,5.738h4.208a5.738,5.738,0,0,0,5.738-5.738A2.048,2.048,0,0,0,432,385.053Z" transform="translate(-372.566 -345.336)" fill="#7a8c98"/>
        <path id="Trazado_1081295" data-name="Trazado 1081295" d="M232.861,388.947h-4.368a1.391,1.391,0,0,1-1.391-1.391v-2.5h7.15v2.5A1.391,1.391,0,0,1,232.861,388.947Z" transform="translate(-199.935 -345.337)" fill="#9facba"/>
      </g>
      <g id="Grupo_1209971" data-name="Grupo 1209971" transform="translate(0 56.508)">
        <path id="Trazado_1081296" data-name="Trazado 1081296" d="M390.14,85.365h2.06a.928.928,0,0,0,0-1.856h-2.06a.928.928,0,0,0,0,1.856Z" transform="translate(-341.062 -80.169)"/>
        <path id="Trazado_1081297" data-name="Trazado 1081297" d="M314.521,118.745h11.415a.928.928,0,1,0,0-1.856H314.521a.928.928,0,0,0,0,1.856Z" transform="translate(-274.798 -109.419)"/>
        <path id="Trazado_1081298" data-name="Trazado 1081298" d="M314.521,152.126h11.415a.928.928,0,1,0,0-1.856H314.521a.928.928,0,0,0,0,1.856Z" transform="translate(-274.798 -138.671)"/>
        <path id="Trazado_1081299" data-name="Trazado 1081299" d="M314.521,185.506h11.415a.928.928,0,1,0,0-1.856H314.521a.928.928,0,0,0,0,1.856Z" transform="translate(-274.798 -167.921)"/>
        <path id="Trazado_1081300" data-name="Trazado 1081300" d="M314.521,218.887h11.415a.928.928,0,1,0,0-1.856H314.521a.928.928,0,0,0,0,1.856Z" transform="translate(-274.798 -197.173)"/>
        <path id="Trazado_1081301" data-name="Trazado 1081301" d="M314.521,252.267h11.415a.928.928,0,1,0,0-1.856H314.521a.928.928,0,0,0,0,1.856Z" transform="translate(-274.798 -226.423)"/>
        <path id="Trazado_1081302" data-name="Trazado 1081302" d="M92.065,285.648H131a.928.928,0,1,0,0-1.856H92.065a.928.928,0,1,0,0,1.856Z" transform="translate(-79.862 -255.675)"/>
        <path id="Trazado_1081303" data-name="Trazado 1081303" d="M92.065,319.029H131a.928.928,0,1,0,0-1.856H92.065a.928.928,0,1,0,0,1.856Z" transform="translate(-79.862 -284.926)"/>
        <path id="Trazado_1081304" data-name="Trazado 1081304" d="M92.065,352.41H131a.928.928,0,1,0,0-1.856H92.065a.928.928,0,1,0,0,1.856Z" transform="translate(-79.862 -314.177)"/>
        <path id="Trazado_1081305" data-name="Trazado 1081305" d="M93.532,106.012h18.594a2.4,2.4,0,0,0,2.395-2.395V85.9a2.4,2.4,0,0,0-2.395-2.395h-7.373a.928.928,0,0,0,0,1.856h7.373a.54.54,0,0,1,.539.539v17.714a.54.54,0,0,1-.539.539H93.532a.54.54,0,0,1-.539-.539V85.9a.54.54,0,0,1,.539-.539h6.87a.928.928,0,1,0,0-1.856h-6.87A2.4,2.4,0,0,0,91.137,85.9v17.714A2.4,2.4,0,0,0,93.532,106.012Z" transform="translate(-79.862 -80.169)"/>
        <path id="Trazado_1081306" data-name="Trazado 1081306" d="M60.364,96.225H58.745V65.783a2.715,2.715,0,0,0-2.712-2.712h-.628V59.162a2.657,2.657,0,0,0-2.654-2.654H10.589a2.657,2.657,0,0,0-2.654,2.654v3.909H7.306a2.715,2.715,0,0,0-2.712,2.712V96.225H2.976A2.98,2.98,0,0,0,0,99.2a6.673,6.673,0,0,0,6.666,6.666H10.6a.928.928,0,0,0,0-1.856H6.666a4.815,4.815,0,0,1-4.81-4.81A1.122,1.122,0,0,1,2.976,98.08H27.167v1.574a2.321,2.321,0,0,0,2.319,2.319h4.368a2.321,2.321,0,0,0,2.319-2.319V98.08H60.364A1.122,1.122,0,0,1,61.484,99.2a4.815,4.815,0,0,1-4.81,4.81H14.946a.928.928,0,0,0,0,1.856H56.674A6.673,6.673,0,0,0,63.34,99.2,2.98,2.98,0,0,0,60.364,96.225Zm-4.33-31.3a.857.857,0,0,1,.856.856V96.224H55.405v-31.3ZM10.589,58.364H52.751a.8.8,0,0,1,.8.8V96.224H9.79V59.162a.8.8,0,0,1,.8-.8ZM6.45,65.783a.857.857,0,0,1,.856-.856h.628v31.3H6.45ZM34.317,99.655a.464.464,0,0,1-.463.463H29.486a.464.464,0,0,1-.463-.463V98.08h5.294v1.574Z" transform="translate(0 -56.508)"/>
        <path id="Trazado_1081307" data-name="Trazado 1081307" d="M149.571,134.162a.928.928,0,0,0,.928-.928V122.77h2.982a.928.928,0,1,0,0-1.856h-7.788a.928.928,0,1,0,0,1.856h2.951v10.465A.928.928,0,0,0,149.571,134.162Z" transform="translate(-126.856 -112.946)"/>
      </g>
    </g>
  </g>
</svg>
