<svg xmlns="http://www.w3.org/2000/svg" xmlns:xlink="http://www.w3.org/1999/xlink" width="113" height="113" viewBox="0 0 113 113">
  <defs>
    <filter id="Trazado_982547" x="0" y="0" width="113" height="113" filterUnits="userSpaceOnUse">
      <feOffset dy="3" input="SourceAlpha"/>
      <feGaussianBlur stdDeviation="3" result="blur"/>
      <feFlood flood-opacity="0.161"/>
      <feComposite operator="in" in2="blur"/>
      <feComposite in="SourceGraphic"/>
    </filter>
    <linearGradient id="linear-gradient" x1="0.086" y1="0.086" x2="0.914" y2="0.914" gradientUnits="objectBoundingBox">
      <stop offset="0" stop-color="#64b5f6"/>
      <stop offset="1" stop-color="#1976d2"/>
    </linearGradient>
    <linearGradient id="linear-gradient-2" x1="0.088" y1="0.14" x2="0.88" y2="0.89" gradientUnits="objectBoundingBox">
      <stop offset="0" stop-opacity="0.349"/>
      <stop offset="1" stop-opacity="0"/>
    </linearGradient>
  </defs>
  <g id="Grupo_1209973" data-name="Grupo 1209973" transform="translate(-587 -6981.44)">
    <g id="Grupo_1206427" data-name="Grupo 1206427" transform="translate(0 -263.56)">
      <g id="Grupo_1185084" data-name="Grupo 1185084" transform="translate(0 1906.386)">
        <g id="Grupo_1181936" data-name="Grupo 1181936" transform="translate(0 2335.614)">
          <g id="Grupo_1175140" data-name="Grupo 1175140" transform="translate(0.5 395.985)">
            <g id="Grupo_1173989" data-name="Grupo 1173989" transform="translate(595.5 2613.015)">
              <g id="Grupo_1172010" data-name="Grupo 1172010">
                <g id="Grupo_1171046" data-name="Grupo 1171046">
                  <g id="Grupo_1148525" data-name="Grupo 1148525">
                    <g transform="matrix(1, 0, 0, 1, -9, -6)" filter="url(#Trazado_982547)">
                      <g id="Trazado_982547-2" data-name="Trazado 982547" transform="translate(9 6)" fill="#eaf9f8">
                        <path d="M 47.5 93.5 C 41.28937149047852 93.5 35.26533508300781 92.28397369384766 29.59518623352051 89.88570404052734 C 24.11771965026855 87.56893157958984 19.19813346862793 84.25196075439453 14.97309303283691 80.02691650390625 C 10.74804019927979 75.80186462402344 7.431066513061523 70.88229370117188 5.114293098449707 65.40481567382812 C 2.716026782989502 59.73468017578125 1.5 53.71062850952148 1.5 47.5 C 1.5 41.28937149047852 2.716026782989502 35.26533508300781 5.114293098449707 29.59518623352051 C 7.431066513061523 24.11771965026855 10.74804019927979 19.19813346862793 14.97309303283691 14.97309303283691 C 19.19813346862793 10.74804019927979 24.11771965026855 7.431066513061523 29.59518623352051 5.114293098449707 C 35.26533508300781 2.716026782989502 41.28937149047852 1.5 47.5 1.5 C 53.71062850952148 1.5 59.73468017578125 2.716026782989502 65.40481567382812 5.114293098449707 C 70.88229370117188 7.431066513061523 75.80186462402344 10.74804019927979 80.02691650390625 14.97309303283691 C 84.25196075439453 19.19813346862793 87.56893157958984 24.11771965026855 89.88570404052734 29.59518623352051 C 92.28397369384766 35.26533508300781 93.5 41.28937149047852 93.5 47.5 C 93.5 53.71062850952148 92.28397369384766 59.73468017578125 89.88570404052734 65.40481567382812 C 87.56893157958984 70.88229370117188 84.25196075439453 75.80186462402344 80.02691650390625 80.02691650390625 C 75.80186462402344 84.25196075439453 70.88229370117188 87.56893157958984 65.40481567382812 89.88570404052734 C 59.73468017578125 92.28397369384766 53.71062850952148 93.5 47.5 93.5 Z" stroke="none"/>
                        <path d="M 47.5 3 C 41.49121475219727 3 35.66376876831055 4.176155090332031 30.17950439453125 6.495796203613281 C 24.88084411621094 8.736953735351562 20.12152099609375 11.94598388671875 16.03375244140625 16.03375244140625 C 11.94598388671875 20.12152099609375 8.736953735351562 24.88084411621094 6.495796203613281 30.17950439453125 C 4.176155090332031 35.66376876831055 3 41.49121475219727 3 47.5 C 3 53.50878524780273 4.176155090332031 59.33623123168945 6.495796203613281 64.82049560546875 C 8.736953735351562 70.11915588378906 11.94598388671875 74.87847900390625 16.03375244140625 78.96624755859375 C 20.12152099609375 83.05401611328125 24.88084411621094 86.26304626464844 30.17950439453125 88.50419616699219 C 35.66376876831055 90.82384490966797 41.49121475219727 92 47.5 92 C 53.50878524780273 92 59.33623123168945 90.82384490966797 64.82049560546875 88.50419616699219 C 70.11915588378906 86.26304626464844 74.87847900390625 83.05401611328125 78.96624755859375 78.96624755859375 C 83.05401611328125 74.87847900390625 86.26304626464844 70.11915588378906 88.50419616699219 64.82049560546875 C 90.82384490966797 59.33623123168945 92 53.50878524780273 92 47.5 C 92 41.49121475219727 90.82384490966797 35.66376876831055 88.50419616699219 30.17950439453125 C 86.26304626464844 24.88084411621094 83.05401611328125 20.12152099609375 78.96624755859375 16.03375244140625 C 74.87847900390625 11.94598388671875 70.11915588378906 8.736953735351562 64.82049560546875 6.495796203613281 C 59.33623123168945 4.176155090332031 53.50878524780273 3 47.5 3 M 47.5 0 C 73.7335205078125 0 95 21.2664794921875 95 47.5 C 95 73.7335205078125 73.7335205078125 95 47.5 95 C 21.2664794921875 95 0 73.7335205078125 0 47.5 C 0 21.2664794921875 21.2664794921875 0 47.5 0 Z" stroke="none" fill="#1f7069"/>
                      </g>
                    </g>
                  </g>
                </g>
              </g>
            </g>
          </g>
        </g>
      </g>
    </g>
    <g id="Icon" transform="translate(609 7000)">
      <g id="Close_Single_Quotation_Apostrophe_Comma" data-name="Close Single Quotation, Apostrophe, Comma">
        <rect id="Background" width="69" height="69" rx="34.5" fill="url(#linear-gradient)"/>
        <path id="Trazado_1081308" data-name="Trazado 1081308" d="M261.143,239.059a20.265,20.265,0,0,1-11.106,10.781L224.01,223.811l3.353-1.417-3.157-3.157,8.558-8.558Z" transform="translate(-193.844 -182.309)" fill="url(#linear-gradient-2)"/>
        <path id="Trazado_1081309" data-name="Trazado 1081309" d="M224.084,204.662a8.34,8.34,0,0,1-.442,2.513,20.192,20.192,0,0,1-1.1,2.734,18.586,18.586,0,0,1-1.477,2.513,11.684,11.684,0,0,1-1.561,1.85l-5.606-.663a11.854,11.854,0,0,0,1.629-1.546,18.522,18.522,0,0,0,1.38-1.8,4.539,4.539,0,0,1-1.864-.552,4.98,4.98,0,0,1-1.45-1.215,5.466,5.466,0,0,1-.939-1.726,6.555,6.555,0,0,1-.331-2.113,6.711,6.711,0,0,1,.3-1.947,5.575,5.575,0,0,1,.98-1.864,5.127,5.127,0,0,1,1.809-1.409,6.335,6.335,0,0,1,2.789-.552,7.506,7.506,0,0,1,2.61.415,4.75,4.75,0,0,1,1.837,1.174,4.9,4.9,0,0,1,1.077,1.823,7.336,7.336,0,0,1,.36,2.361Z" transform="translate(-183.728 -172.107)" fill="#fff"/>
      </g>
    </g>
  </g>
</svg>
