<svg xmlns="http://www.w3.org/2000/svg" xmlns:xlink="http://www.w3.org/1999/xlink" width="113" height="113" viewBox="0 0 113 113">
  <defs>
    <filter id="Trazado_982547" x="0" y="0" width="113" height="113" filterUnits="userSpaceOnUse">
      <feOffset dy="3" input="SourceAlpha"/>
      <feGaussianBlur stdDeviation="3" result="blur"/>
      <feFlood flood-opacity="0.161"/>
      <feComposite operator="in" in2="blur"/>
      <feComposite in="SourceGraphic"/>
    </filter>
  </defs>
  <g id="Grupo_1209982" data-name="Grupo 1209982" transform="translate(-1217 -6981.292)">
    <g id="Grupo_1206436" data-name="Grupo 1206436" transform="translate(0 -263.56)">
      <g id="Grupo_1185086" data-name="Grupo 1185086" transform="translate(0 1906.237)">
        <g id="Grupo_1181938" data-name="Grupo 1181938" transform="translate(0 2335.614)">
          <g id="Grupo_1175139" data-name="Grupo 1175139" transform="translate(1226 3009)">
            <g id="Grupo_1172010" data-name="Grupo 1172010">
              <g id="Grupo_1171046" data-name="Grupo 1171046">
                <g id="Grupo_1148525" data-name="Grupo 1148525">
                  <g transform="matrix(1, 0, 0, 1, -9, -6)" filter="url(#Trazado_982547)">
                    <g id="Trazado_982547-2" data-name="Trazado 982547" transform="translate(9 6)" fill="#eaf9f8">
                      <path d="M 47.5 93.5 C 41.28937149047852 93.5 35.26533508300781 92.28397369384766 29.59518623352051 89.88570404052734 C 24.11771965026855 87.56893157958984 19.19813346862793 84.25196075439453 14.97309303283691 80.02691650390625 C 10.74804019927979 75.80186462402344 7.431066513061523 70.88229370117188 5.114293098449707 65.40481567382812 C 2.716026782989502 59.73468017578125 1.5 53.71062850952148 1.5 47.5 C 1.5 41.28937149047852 2.716026782989502 35.26533508300781 5.114293098449707 29.59518623352051 C 7.431066513061523 24.11771965026855 10.74804019927979 19.19813346862793 14.97309303283691 14.97309303283691 C 19.19813346862793 10.74804019927979 24.11771965026855 7.431066513061523 29.59518623352051 5.114293098449707 C 35.26533508300781 2.716026782989502 41.28937149047852 1.5 47.5 1.5 C 53.71062850952148 1.5 59.73468017578125 2.716026782989502 65.40481567382812 5.114293098449707 C 70.88229370117188 7.431066513061523 75.80186462402344 10.74804019927979 80.02691650390625 14.97309303283691 C 84.25196075439453 19.19813346862793 87.56893157958984 24.11771965026855 89.88570404052734 29.59518623352051 C 92.28397369384766 35.26533508300781 93.5 41.28937149047852 93.5 47.5 C 93.5 53.71062850952148 92.28397369384766 59.73468017578125 89.88570404052734 65.40481567382812 C 87.56893157958984 70.88229370117188 84.25196075439453 75.80186462402344 80.02691650390625 80.02691650390625 C 75.80186462402344 84.25196075439453 70.88229370117188 87.56893157958984 65.40481567382812 89.88570404052734 C 59.73468017578125 92.28397369384766 53.71062850952148 93.5 47.5 93.5 Z" stroke="none"/>
                      <path d="M 47.5 3 C 41.49121475219727 3 35.66376876831055 4.176155090332031 30.17950439453125 6.495796203613281 C 24.88084411621094 8.736953735351562 20.12152099609375 11.94598388671875 16.03375244140625 16.03375244140625 C 11.94598388671875 20.12152099609375 8.736953735351562 24.88084411621094 6.495796203613281 30.17950439453125 C 4.176155090332031 35.66376876831055 3 41.49121475219727 3 47.5 C 3 53.50878524780273 4.176155090332031 59.33623123168945 6.495796203613281 64.82049560546875 C 8.736953735351562 70.11915588378906 11.94598388671875 74.87847900390625 16.03375244140625 78.96624755859375 C 20.12152099609375 83.05401611328125 24.88084411621094 86.26304626464844 30.17950439453125 88.50419616699219 C 35.66376876831055 90.82384490966797 41.49121475219727 92 47.5 92 C 53.50878524780273 92 59.33623123168945 90.82384490966797 64.82049560546875 88.50419616699219 C 70.11915588378906 86.26304626464844 74.87847900390625 83.05401611328125 78.96624755859375 78.96624755859375 C 83.05401611328125 74.87847900390625 86.26304626464844 70.11915588378906 88.50419616699219 64.82049560546875 C 90.82384490966797 59.33623123168945 92 53.50878524780273 92 47.5 C 92 41.49121475219727 90.82384490966797 35.66376876831055 88.50419616699219 30.17950439453125 C 86.26304626464844 24.88084411621094 83.05401611328125 20.12152099609375 78.96624755859375 16.03375244140625 C 74.87847900390625 11.94598388671875 70.11915588378906 8.736953735351562 64.82049560546875 6.495796203613281 C 59.33623123168945 4.176155090332031 53.50878524780273 3 47.5 3 M 47.5 0 C 73.7335205078125 0 95 21.2664794921875 95 47.5 C 95 73.7335205078125 73.7335205078125 95 47.5 95 C 21.2664794921875 95 0 73.7335205078125 0 47.5 C 0 21.2664794921875 21.2664794921875 0 47.5 0 Z" stroke="none" fill="#1f7069"/>
                    </g>
                  </g>
                </g>
              </g>
            </g>
          </g>
        </g>
      </g>
    </g>
    <g id="escritura_2_" data-name="escritura (2)" transform="translate(1244.073 7007.4)">
      <g id="Grupo_1209981" data-name="Grupo 1209981" transform="translate(4.38 0.924)">
        <path id="Trazado_1081327" data-name="Trazado 1081327" d="M35.828,9.853V58.2a2.3,2.3,0,0,0,2.3,2.295h4.72V7.558h-4.72a2.3,2.3,0,0,0-2.3,2.295Zm0,0" transform="translate(-35.828 -7.558)" fill="#64b0d9" fill-rule="evenodd"/>
        <path id="Trazado_1081328" data-name="Trazado 1081328" d="M129.041,7.559H93.219V60.493h35.822a2.3,2.3,0,0,0,2.3-2.295V9.853a2.3,2.3,0,0,0-2.3-2.295Zm0,0" transform="translate(-86.201 -7.558)" fill="#e6e6e6" fill-rule="evenodd"/>
        <path id="Trazado_1081329" data-name="Trazado 1081329" d="M345.166,286.639l-.953,5.764a1.359,1.359,0,0,0,.336,1.18,1.278,1.278,0,0,0,1.781.007l4.446-3.8-1.418-4.438Zm0,0" transform="translate(-306.485 -251.378)" fill="#fcc368" fill-rule="evenodd"/>
        <path id="Trazado_1081330" data-name="Trazado 1081330" d="M455.376,99.68A3.23,3.23,0,0,0,451,100.909l-.589,1.042,1.147,4.289,4.463-1.139.586-1.042A3.224,3.224,0,0,0,455.376,99.68Zm0,0" transform="translate(-399.711 -88.056)" fill="#64b0d9" fill-rule="evenodd"/>
        <path id="Trazado_1081331" data-name="Trazado 1081331" d="M364.167,121.188l-5.559,9.883-6.456,11.482,5.611,3.146.845-1.506,11.169-19.852v0Zm0,0" transform="translate(-313.471 -107.293)" fill="#f78411" fill-rule="evenodd"/>
        <path id="Trazado_1081332" data-name="Trazado 1081332" d="M354.025,9.853V38.823l4.211-7.487V9.853a2.3,2.3,0,0,0-2.3-2.295h-4.211a2.3,2.3,0,0,1,2.3,2.295Zm0,0" transform="translate(-313.098 -7.558)" fill="#c2c7cc" fill-rule="evenodd"/>
        <path id="Trazado_1081333" data-name="Trazado 1081333" d="M357.389,310.831l-3.365,2.88v9.354a2.3,2.3,0,0,1-2.3,2.295h4.211a2.3,2.3,0,0,0,2.3-2.295V309.325Zm0,0" transform="translate(-313.097 -272.424)" fill="#c2c7cc" fill-rule="evenodd"/>
        <path id="Trazado_1081334" data-name="Trazado 1081334" d="M382.391,159.533l1.913,1.073.845-1.506,11.169-19.852v0l-1.913-1.073v0Zm0,0" transform="translate(-340.012 -122.199)" fill="#f74311" fill-rule="evenodd"/>
        <path id="Trazado_1081335" data-name="Trazado 1081335" d="M477.84,99.275c1.455.567,1.507,2.689.932,3.714l-.589,1.042L480.1,105.1l.586-1.042a3.209,3.209,0,0,0-2.841-4.787Zm0,0" transform="translate(-423.789 -88.06)" fill="#4a83c9" fill-rule="evenodd"/>
        <path id="Trazado_1081336" data-name="Trazado 1081336" d="M348.863,312.859l-4.446,3.808a1.53,1.53,0,0,1-.225.152,1.3,1.3,0,0,0,.357.91,1.278,1.278,0,0,0,1.781.007l1.081-.924,3.365-2.88Zm0,0" transform="translate(-306.484 -275.526)" fill="#eda93b" fill-rule="evenodd"/>
        <path id="Trazado_1081337" data-name="Trazado 1081337" d="M67.684,7.559h3.123V60.493H67.684Zm0,0" transform="translate(-63.788 -7.558)" fill="#4a83c9" fill-rule="evenodd"/>
      </g>
      <path id="Trazado_1081338" data-name="Trazado 1081338" d="M62.455,14.248a4.137,4.137,0,0,0-7.595-.925l-.589,1.042h0l-3.829,6.809V3.219A3.224,3.224,0,0,0,47.22,0H31.743a.924.924,0,1,0,0,1.848H47.22A1.374,1.374,0,0,1,48.594,3.22V24.462l-6.338,11.27-.008.015-.025.049-.015.034c-.007.016-.013.032-.019.048s-.009.026-.013.04l-.012.045c0,.016-.007.031-.01.047s0,.015-.005.023L41.2,41.8a2.505,2.505,0,0,0-.031.4H18.044a.924.924,0,0,0,0,1.849H42.116c.038.026.077.051.118.075a2.1,2.1,0,0,0,1.06.287,2.425,2.425,0,0,0,1.508-.557l.024-.02,3.767-3.223v10.95a1.374,1.374,0,0,1-1.374,1.371h-34.9V1.848H27.269a.924.924,0,0,0,0-1.848H6.678A3.224,3.224,0,0,0,3.456,3.219V6.931C1.184,7.17,0,8.628,0,10.07A2.947,2.947,0,0,0,1.22,12.4a4.675,4.675,0,0,0,2.236.858v5.048C1.184,18.548,0,20.006,0,21.449A2.946,2.946,0,0,0,1.22,23.78a4.676,4.676,0,0,0,2.236.859v5.044C1.184,29.922,0,31.381,0,32.824A2.946,2.946,0,0,0,1.22,35.155a4.671,4.671,0,0,0,2.236.859v4.818c-2.1.319-3.2,1.72-3.2,3.106A2.947,2.947,0,0,0,1.481,46.27a4.538,4.538,0,0,0,1.975.818v4.476a3.224,3.224,0,0,0,3.221,3.219H47.22a3.224,3.224,0,0,0,3.222-3.219V38.069l3.589-6.382a.924.924,0,1,0-1.611-.906l-3.7,6.576c-.009.014-.017.029-.024.043l-.379.674-4-2.243L55.429,16.077l4,2.246-5.2,9.239a.924.924,0,0,0,1.611.907l5.639-10.023c0-.007.01-.013.013-.021l.585-1.044a4.111,4.111,0,0,0,.378-3.133ZM2.34,10.932a1.107,1.107,0,0,1-.493-.861c0-.553.552-1.11,1.609-1.275v2.6a2.632,2.632,0,0,1-1.116-.459Zm0,11.379a1.109,1.109,0,0,1-.493-.861c0-.553.552-1.11,1.609-1.276v2.6A2.638,2.638,0,0,1,2.34,22.31Zm0,11.375a1.108,1.108,0,0,1-.493-.861c0-.553.552-1.11,1.609-1.276v2.6a2.638,2.638,0,0,1-1.116-.459ZM2.6,44.8a1.11,1.11,0,0,1-.493-.862c0-.505.461-1.014,1.348-1.224V45.2a2.451,2.451,0,0,1-.855-.4Zm2.7,6.764V47.189h2.1a.924.924,0,0,0,0-1.848H5.3V36.073H7.146a.924.924,0,0,0,0-1.848H5.3V24.7H7.146a.924.924,0,0,0,0-1.849H5.3V13.32H7.146a.924.924,0,0,0,0-1.848H5.3V3.219A1.374,1.374,0,0,1,6.678,1.848h3.8V52.935h-3.8A1.374,1.374,0,0,1,5.3,51.564ZM47.066,39.489l-3.427,2.932a.737.737,0,0,1-.219.122.925.925,0,0,0-.405-.285.63.63,0,0,1,.006-.16l.738-4.464Zm9.271-25.022.134-.237a2.292,2.292,0,0,1,4,2.246l-.132.235Zm0,0" transform="translate(0)"/>
      <path id="Trazado_1081339" data-name="Trazado 1081339" d="M166.415,83.481H140.94a.924.924,0,0,0,0,1.848h25.474a.924.924,0,1,0,0-1.848Zm0,0" transform="translate(-122.896 -73.272)"/>
      <path id="Trazado_1081340" data-name="Trazado 1081340" d="M166.415,148.9H140.94a.924.924,0,0,0,0,1.848h25.474a.924.924,0,1,0,0-1.848Zm0,0" transform="translate(-122.896 -130.694)"/>
      <path id="Trazado_1081341" data-name="Trazado 1081341" d="M167.338,215.245a.924.924,0,0,0-.924-.924H140.939a.924.924,0,0,0,0,1.849h25.474A.925.925,0,0,0,167.338,215.245Zm0,0" transform="translate(-122.895 -188.113)"/>
      <path id="Trazado_1081342" data-name="Trazado 1081342" d="M140.939,279.715a.924.924,0,0,0,0,1.848h20.3a.924.924,0,0,0,0-1.848Zm0,0" transform="translate(-122.895 -245.51)"/>
    </g>
  </g>
</svg>
