<svg xmlns="http://www.w3.org/2000/svg" xmlns:xlink="http://www.w3.org/1999/xlink" width="400" height="314" viewBox="0 0 400 314">
  <defs>
    <clipPath id="clip-path">
      <rect id="Rectángulo_417904" data-name="Rectángulo 417904" width="400" height="314" transform="translate(180 8643)" fill="#fff" stroke="#707070" stroke-width="1"/>
    </clipPath>
    <clipPath id="clip-path-2">
      <path id="Trazado_1079697" data-name="Trazado 1079697" d="M283.2,284.057h245.18c13.616,0,28.138.908,28.138,28.138s3.074,196.784.344,222.457c-2.269,21.33-59.461,85.1-113.253,32.6-33.585.907-139.543-.637-156.779,0-10.892.4-31.316.4-32.677-31.77-1.386-32.761-1.014-189.253-.87-218.753C253.143,281.788,283.2,284.057,283.2,284.057Z" transform="translate(-253.13 -284.027)"/>
    </clipPath>
  </defs>
  <g id="Enmascarar_grupo_1098889" data-name="Enmascarar grupo 1098889" transform="translate(-180 -8643)" clip-path="url(#clip-path)">
    <g id="Grupo_1209990" data-name="Grupo 1209990" transform="translate(6.171)">
      <g id="Grupo_1209082" data-name="Grupo 1209082" transform="translate(252.557 8653.388)">
        <path id="Trazado_1079632" data-name="Trazado 1079632" d="M298.3,284.057H519.776c13.615,0,28.138.908,28.138,28.138s3.074,196.784.344,222.457c-2.269,21.33-10.328,31.7-43.913,32.6s-185.182-.637-202.415,0c-10.892.4-31.316.4-32.678-31.77-1.386-32.761-1.014-189.253-.87-218.753C268.237,281.788,298.3,284.057,298.3,284.057Z" transform="translate(-268.226 -284.027)" fill="#bbdbef"/>
        <g id="Grupo_1209054" data-name="Grupo 1209054" transform="translate(213.482 64.625)">
          <path id="Trazado_1079633" data-name="Trazado 1079633" d="M335.423,325.194h-74.09c-4.555,0-9.413.221-9.413,6.854s-1.028,47.925-.115,54.179c.758,5.2,3.456,7.72,14.69,7.94s61.948-.155,67.713,0c3.644.1,10.476.1,10.931-7.738.463-7.979.339-46.091.29-53.276C345.48,324.641,335.423,325.194,335.423,325.194Z" transform="translate(-251.428 -325.186)" fill="#e19e2c"/>
          <path id="Trazado_1079634" data-name="Trazado 1079634" d="M293.906,367.438s-.59,11.821-5.32,20.688c0,0,15.073-2.66,19.8-22.757Z" transform="translate(-272.676 -302.277)" fill="#e19e2c"/>
          <g id="Grupo_1209052" data-name="Grupo 1209052" transform="translate(20.158 49.18)">
            <path id="Trazado_1079635" data-name="Trazado 1079635" d="M272.658,365.3c-.856,0-6.182.1-6.989.011-.67-.071-1-.325-1.024-1.38s.02-5.817,0-6.359c-.013-.342-.013-.985,1-1.027,1.028-.044,5.946-.031,6.872-.027a.9.9,0,0,1,1.027.94v6.957c0,.427-.031.884-.886.884" transform="translate(-220.385 -356.508)" fill="#fff"/>
            <path id="Trazado_1079636" data-name="Trazado 1079636" d="M287.634,357.454v6.957c0,.427-.028.884-.884.884s-6.182.1-6.989.011c-.67-.071-1-.325-1.024-1.38s.02-5.817,0-6.359c-.013-.342-.013-.984,1-1.027,1.03-.044,5.946-.031,6.872-.027A.9.9,0,0,1,287.634,357.454Z" transform="translate(-256.602 -356.509)" fill="#fff"/>
            <path id="Trazado_1079637" data-name="Trazado 1079637" d="M301.726,357.454v6.957c0,.427-.028.884-.884.884s-6.182.1-6.989.011c-.67-.071-1-.325-1.024-1.38s.02-5.817,0-6.359c-.013-.342-.013-.984,1-1.027,1.028-.044,5.944-.031,6.872-.027A.9.9,0,0,1,301.726,357.454Z" transform="translate(-292.82 -356.509)" fill="#fff"/>
          </g>
          <g id="Grupo_1209053" data-name="Grupo 1209053" transform="translate(20.158 11.872)">
            <path id="Trazado_1079638" data-name="Trazado 1079638" d="M272.658,364.187c-.856,0-6.182.1-6.989.011-.67-.071-1-.325-1.024-1.38s.02-28.47,0-29.011c-.013-.342-.013-.983,1-1.027,1.028-.044,5.946-.031,6.872-.027a.9.9,0,0,1,1.027.94V363.3c0,.429-.031.882-.886.882" transform="translate(-220.385 -332.748)" fill="#fff"/>
            <path id="Trazado_1079639" data-name="Trazado 1079639" d="M287.634,333.692V363.3c0,.429-.028.884-.884.884s-6.182.1-6.989.011c-.67-.071-1-.325-1.024-1.38s.02-28.47,0-29.011c-.013-.342-.013-.983,1-1.027,1.03-.044,5.946-.031,6.872-.027A.9.9,0,0,1,287.634,333.692Z" transform="translate(-256.602 -332.748)" fill="#fff"/>
            <path id="Trazado_1079640" data-name="Trazado 1079640" d="M301.726,333.692V363.3c0,.429-.028.884-.884.884s-6.182.1-6.989.011c-.67-.071-1-.325-1.024-1.38s.02-28.47,0-29.011c-.013-.342-.013-.983,1-1.027,1.028-.044,5.944-.031,6.872-.027A.894.894,0,0,1,301.726,333.692Z" transform="translate(-292.82 -332.748)" fill="#fff"/>
          </g>
        </g>
        <g id="Grupo_1209081" data-name="Grupo 1209081" transform="translate(0 0)">
          <g id="Grupo_1209080" data-name="Grupo 1209080" clip-path="url(#clip-path-2)">
            <path id="Trazado_1079641" data-name="Trazado 1079641" d="M298.7,468.392c1.154,1.815,1.824,2.872,1.824,2.872l10-26.849,1.573-5.783s5.69-15.4,6.346-19.562c.78-4.958-3.539-19.521-3.082-25.169.414-5.13,7.158.733,10,3.446,6.552-3.807,28.689-10.564,30.658-7.433,1.759,2.8-11.182,8.045-15.626,9.747l.058.016c5.34-1.831,22.949-7.538,23.808-3.5.322,2.068-11.256,6.058-17.366,8.012.041.089.085.173.126.267,6.511-1.434,19.19-3.924,19.727-1.71.562,2.321-12.657,5.75-18.579,7.164,0,.038,0,.08,0,.118,6.117-1.109,20.107-3.377,20.058-.955-.066,3.256-14.324,6.88-19.9,8.322l-.465-.371a98.922,98.922,0,0,1-3.335,15.309s-1.278,36.111-13.112,67.55c-9.085,24.138-47.87,29.314-73.876-.964C274.614,493.439,290.069,484.064,298.7,468.392Z" transform="translate(-70.274 -224.117)" fill="#e6a07e"/>
            <path id="Trazado_1079642" data-name="Trazado 1079642" d="M313.68,490.165a83.371,83.371,0,0,1-11.869-18.383l5.508-67.313a56.129,56.129,0,0,1,26.351,21.906c8.132,12.738,17.347,27.231,21.178,33.26C346.213,475.307,330.758,484.682,313.68,490.165Z" transform="translate(-126.418 -215.36)" fill="#dc8765"/>
            <path id="Trazado_1079643" data-name="Trazado 1079643" d="M288.678,402.575s-12.418-.361-13.4,8.232" transform="translate(-18.583 -216.441)" fill="none" stroke="#683935" stroke-miterlimit="10" stroke-width="0.642"/>
            <g id="Grupo_1209066" data-name="Grupo 1209066" transform="translate(50.055 5.645)">
              <path id="Trazado_1079644" data-name="Trazado 1079644" d="M321.79,323.227s-4.878,44.61,10.075,63.414,25.979,24.558,45.358,27.782,73.719-6.56,80.02-18.348,16.541-47.9,9.744-71.8S321.79,323.227,321.79,323.227Z" transform="translate(-321.029 -272.944)" fill="#050504"/>
              <path id="Trazado_1079645" data-name="Trazado 1079645" d="M402.614,390.746s-6.959-3.9-28.393-3.341-24.5.835-24.5.835l16.423,27.279,29.507-9.465Z" transform="translate(-299.472 -230.764)" fill="#486f6c"/>
              <path id="Trazado_1079646" data-name="Trazado 1079646" d="M352.709,394.209l-.36-20.949,44.182,5.838-.518,20.014C381.095,401.387,366.59,399.137,352.709,394.209Z" transform="translate(-297.507 -238.798)" fill="#dc8765"/>
              <path id="Trazado_1079647" data-name="Trazado 1079647" d="M352.679,386.6c13.882,4.929,28.386,7.179,43.3,4.9l-.077,2.974s1.415,32.3-21.308,34.477-21.79-34.825-21.79-34.825Z" transform="translate(-297.478 -231.191)" fill="#e6a07e"/>
              <path id="Trazado_1079648" data-name="Trazado 1079648" d="M320.568,370.433l.058-23.907s18.187-13.112,25.128,7.391S331.141,381.661,320.568,370.433Z" transform="translate(-198.18 -256.394)" fill="#dc8765"/>
              <g id="Grupo_1209055" data-name="Grupo 1209055" transform="translate(125.337 92.461)">
                <path id="Trazado_1079649" data-name="Trazado 1079649" d="M328.476,367.283a.427.427,0,0,0,.162-.086.433.433,0,0,0,.05-.611c-.074-.088-7.351-8.829-1.691-15.455a9.6,9.6,0,0,1,6.709-3.738c4.252-.264,7.747,2.88,7.783,2.911a.433.433,0,0,0,.584-.639c-.154-.14-3.79-3.42-8.414-3.137a10.431,10.431,0,0,0-7.321,4.041c-6.139,7.188,1.611,16.485,1.689,16.579A.438.438,0,0,0,328.476,367.283Z" transform="translate(-323.974 -346.51)" fill="#634927"/>
              </g>
              <g id="Grupo_1209056" data-name="Grupo 1209056" transform="translate(125.538 100.59)">
                <path id="Trazado_1079650" data-name="Trazado 1079650" d="M339.713,353.27a.434.434,0,0,0,.036-.823c-.083-.033-8.523-3.158-12.242,3.508a.434.434,0,0,0,.757.424c3.355-6.015,11.1-3.15,11.178-3.121A.415.415,0,0,0,339.713,353.27Z" transform="translate(-327.452 -351.687)" fill="#634927"/>
              </g>
              <path id="Trazado_1079651" data-name="Trazado 1079651" d="M447.094,326.576s.947,25.536.7,55.779c-.2,24.481-19.98,48.27-49.888,49.944-28.11,1.573-57.2-10-65.6-49.481s-1.928-71.682,33.905-80.119S437.716,296.1,447.094,326.576Z" transform="translate(-312.179 -281.501)" fill="#e6a07e"/>
              <g id="Grupo_1209057" data-name="Grupo 1209057" transform="translate(93.288 36.019)">
                <path id="Trazado_1079652" data-name="Trazado 1079652" d="M356.093,310.9c-.152-.214-.251-.334-.251-.334S355.933,310.686,356.093,310.9Z" transform="translate(-355.842 -310.562)" fill="#e09f25"/>
              </g>
              <path id="Trazado_1079653" data-name="Trazado 1079653" d="M377.736,343.265S373,337.749,383.183,331s13.729-5.213,15.34-1.779c1.47,3.134-.89,7.791-6.67,11.434C384.916,345.026,380.308,346.432,377.736,343.265Z" transform="translate(-338.057 -265.577)" fill="#050504"/>
              <path id="Trazado_1079654" data-name="Trazado 1079654" d="M359.671,339.3s3.691-6.266-7.527-11.11-14.434-2.707-15.414.959c-.893,3.344,2.253,7.511,8.585,10.075C352.916,342.3,357.7,342.874,359.671,339.3Z" transform="translate(-236.471 -266.097)" fill="#050504"/>
              <path id="Trazado_1079655" data-name="Trazado 1079655" d="M383.948,349.634c-.027,2.947-2.008,5.318-4.426,5.3s-4.357-2.429-4.33-5.375,2.008-5.318,4.426-5.3S383.973,346.686,383.948,349.634Z" transform="translate(-320.789 -255.332)"/>
              <path id="Trazado_1079656" data-name="Trazado 1079656" d="M350,349.03c-.027,2.947-2.008,5.318-4.426,5.3s-4.357-2.429-4.33-5.375,2.008-5.318,4.426-5.3S350.03,346.082,350,349.03Z" transform="translate(-233.548 -255.676)"/>
              <g id="Grupo_1209058" data-name="Grupo 1209058" transform="translate(81.531 60.611)">
                <path id="Trazado_1079657" data-name="Trazado 1079657" d="M362.8,370.829a.433.433,0,0,1-.173-.829,11.7,11.7,0,0,0,5.079-4.677c1.228-2.424.886-6.086-.718-7.683-.964-.958-2.278-1.05-3.812-.265-.049.025-.126.069-.228.127-5.36,3.048-7.752,1.636-8.816-.086-1.952-3.164-.017-27.973.21-30.793a.441.441,0,0,1,.468-.4.433.433,0,0,1,.4.468c-.611,7.581-1.862,27.8-.336,30.267,1.255,2.033,3.83,1.966,7.651-.21.118-.066.206-.118.262-.146,1.87-.955,3.583-.807,4.819.424,1.868,1.862,2.28,5.921.879,8.688a12.371,12.371,0,0,1-5.5,5.078A.476.476,0,0,1,362.8,370.829Z" transform="translate(-353.269 -326.224)" fill="#634927"/>
              </g>
              <path id="Trazado_1079658" data-name="Trazado 1079658" d="M400.238,365.993c-.853,4.109-7.782,6.145-15.477,4.549s-13.242-6.222-12.388-10.331,7.782-6.145,15.477-4.549S401.09,361.884,400.238,365.993Z" transform="translate(-332.604 -249.141)" fill="#dc8765"/>
              <path id="Trazado_1079659" data-name="Trazado 1079659" d="M332.193,365.863c.962,4.085,7.943,5.935,15.593,4.134s13.071-6.573,12.109-10.658-7.943-5.935-15.593-4.134S331.232,361.779,332.193,365.863Z" transform="translate(-229.161 -249.484)" fill="#dc8765"/>
              <path id="Trazado_1079660" data-name="Trazado 1079660" d="M427.427,289.775c-28.01-5.334-54.509,5.608-64.381,10.426.78-5.855-1.966-12.6-3.927-12.578-2.594.035-1.9,11.454-1.624,14.944l-.311.061c-1.14-2.584-4.591-9.462-8.067-6.909-2.366,1.738.551,5.309,3.6,8.13-9.027,3.045-30.016,9.008-32.175,34.056-2.559,29.688,10.578,43.5,10.578,43.5s3.82.969,17.9-4.511c4.255-1.655,15.733-60.147,31.366-45.147,33.214,31.867,49.6,28.316,78.034,33.524,10,1.832,6.326,8.4,10.077-10.671S462.851,296.521,427.427,289.775Z" transform="translate(-319.782 -287.622)" fill="#050504"/>
              <path id="Trazado_1079661" data-name="Trazado 1079661" d="M420.98,365.519l-6.362-23.045s-21-7.851-22.29,13.757S413.744,379.136,420.98,365.519Z" transform="translate(-384.647 -257.142)" fill="#e6a07e"/>
              <g id="Grupo_1209059" data-name="Grupo 1209059" transform="translate(11.073 90.727)">
                <path id="Trazado_1079662" data-name="Trazado 1079662" d="M413.628,364.171a.429.429,0,0,1-.179-.039.434.434,0,0,1-.215-.575c.047-.105,4.67-10.5-2.581-15.331a9.6,9.6,0,0,0-7.474-1.771c-4.164.9-6.67,4.882-6.7,4.921a.433.433,0,0,1-.736-.455c.11-.176,2.716-4.323,7.241-5.31a10.43,10.43,0,0,1,8.146,1.9c7.866,5.244,2.941,16.3,2.891,16.413A.44.44,0,0,1,413.628,364.171Z" transform="translate(-395.683 -345.405)" fill="#634927"/>
              </g>
              <g id="Grupo_1209060" data-name="Grupo 1209060" transform="translate(17.913 97.854)">
                <path id="Trazado_1079663" data-name="Trazado 1079663" d="M396.138,353.108a.433.433,0,0,1-.259-.78c.072-.055,7.342-5.36,12.735.041a.433.433,0,0,1-.612.612c-4.867-4.874-11.537-.008-11.6.041A.419.419,0,0,1,396.138,353.108Z" transform="translate(-395.705 -349.945)" fill="#634927"/>
              </g>
              <g id="Grupo_1209064" data-name="Grupo 1209064" transform="translate(26.537 70.001)">
                <g id="Grupo_1209061" data-name="Grupo 1209061" transform="translate(71.602)">
                  <path id="Trazado_1079664" data-name="Trazado 1079664" d="M346.49,384.6a26.2,26.2,0,1,0-26.943-25.437A26.231,26.231,0,0,0,346.49,384.6Zm-1.463-50.988a24.809,24.809,0,1,1-24.089,25.51A24.837,24.837,0,0,1,345.027,333.609Z" transform="translate(-319.536 -332.205)" fill="#1c1d27"/>
                </g>
                <g id="Grupo_1209062" data-name="Grupo 1209062" transform="translate(0 2.055)">
                  <path id="Trazado_1079665" data-name="Trazado 1079665" d="M392.093,385.907a26.2,26.2,0,1,0-26.943-25.439A26.232,26.232,0,0,0,392.093,385.907Zm-1.463-50.99a24.809,24.809,0,1,1-24.086,25.51A24.839,24.839,0,0,1,390.63,334.918Z" transform="translate(-365.139 -333.514)" fill="#1c1d27"/>
                </g>
                <g id="Grupo_1209063" data-name="Grupo 1209063" transform="translate(50.898 20.194)">
                  <path id="Trazado_1079666" data-name="Trazado 1079666" d="M352.633,349.446a.7.7,0,0,0,.349-.105c9.8-6.124,20.068-.636,20.171-.579a.7.7,0,1,0,.669-1.222c-.11-.058-11.1-5.927-21.578.62a.7.7,0,0,0,.389,1.286Z" transform="translate(-351.916 -345.066)" fill="#1c1d27"/>
                </g>
              </g>
              <g id="Grupo_1209065" data-name="Grupo 1209065" transform="translate(77.12 111.562)">
                <path id="Trazado_1079667" data-name="Trazado 1079667" d="M363.754,368.521c2.952.964,5.261-.617,6.88-2.531a39.063,39.063,0,0,0-12.9-5.169C358.444,363.614,360.059,367.313,363.754,368.521Z" transform="translate(-357.186 -357.452)" fill="#cc555f"/>
                <path id="Trazado_1079668" data-name="Trazado 1079668" d="M356,358.675a18.8,18.8,0,0,0,.548,3.369,39.081,39.081,0,0,1,12.9,5.169,17.776,17.776,0,0,0,2.719-4.608C366.657,358.639,356,358.675,356,358.675Z" transform="translate(-356.002 -358.675)"/>
              </g>
            </g>
            <path id="Trazado_1079669" data-name="Trazado 1079669" d="M483,540.369c2.833,23.032,5.577,47.094,5.3,51.794L422.472,593l-.418-8.629s-17.259-.556-19.485-1.113l-.7,9.6s-59.431.7-77.247.14c0,0,5-41.378,11.482-74.082C381.828,540.254,434.317,548.286,483,540.369Z" transform="translate(-295.717 -150.11)" fill="#7cacde"/>
            <path id="Trazado_1079670" data-name="Trazado 1079670" d="M469.078,504.933s2.963,22.288,5.833,45.633c-48.686,7.917-101.176-.115-146.9-21.453a248.844,248.844,0,0,1,6.89-28.078Z" transform="translate(-287.625 -160.306)" fill="#6fa1cd"/>
            <g id="Grupo_1209067" data-name="Grupo 1209067" transform="translate(32.475 346.799)">
              <path id="Trazado_1079671" data-name="Trazado 1079671" d="M416.417,601.321a.333.333,0,0,0,.33-.3c5.775-55.284,15.758-95.313,15.858-95.712a.33.33,0,0,0-.24-.4.322.322,0,0,0-.4.24c-.1.4-10.094,40.468-15.876,95.8a.332.332,0,0,0,.3.364Z" transform="translate(-416.086 -504.901)" fill="#5c89b3"/>
            </g>
            <path id="Trazado_1079672" data-name="Trazado 1079672" d="M433.4,521.707s9.606,27.012,34.659,40.932a67.7,67.7,0,0,1-30.621,22.826s-24.5-22.826-34.518-46.209c-8.084-18.865-2.762-63.807,1.936-88.66,11.029,9.047,23.321,14.324,36.435,18.02Z" transform="translate(-391.831 -189.062)" fill="#e6a07e"/>
            <path id="Trazado_1079673" data-name="Trazado 1079673" d="M452.921,460.779l-1.909,12.84c-13.115-3.7-25.406-8.973-36.435-18.02,1.126-5.952,2.214-10.765,3.076-13.778Z" transform="translate(-401.548 -194.065)" fill="#dc8765"/>
            <g id="Grupo_1209075" data-name="Grupo 1209075" transform="translate(39.434 365.718)">
              <g id="Grupo_1209068" data-name="Grupo 1209068" transform="translate(79.612)">
                <path id="Trazado_1079674" data-name="Trazado 1079674" d="M370.235,572.46a.33.33,0,0,0,.33-.32l1.807-54.849a.331.331,0,0,0-.32-.341.322.322,0,0,0-.341.32L369.9,572.119a.331.331,0,0,0,.32.341Z" transform="translate(-369.904 -516.95)" fill="#5c89b3"/>
              </g>
              <g id="Grupo_1209069" data-name="Grupo 1209069" transform="translate(68.567 11.703)">
                <path id="Trazado_1079675" data-name="Trazado 1079675" d="M382.33,563.2a.33.33,0,1,0,0-.661c-.4,0-9.714-.127-10.248-9.988-.55-10.165.27-27.628.278-27.8a.33.33,0,1,0-.659-.03c-.008.176-.829,17.672-.278,27.87C371.991,563.08,382.228,563.2,382.33,563.2Z" transform="translate(-371.232 -524.404)" fill="#5c89b3"/>
              </g>
              <g id="Grupo_1209070" data-name="Grupo 1209070" transform="translate(34.013 7.023)">
                <path id="Trazado_1079676" data-name="Trazado 1079676" d="M400.518,521.423" transform="translate(-400.518 -521.423)" fill="#5c89b3"/>
              </g>
              <g id="Grupo_1209071" data-name="Grupo 1209071" transform="translate(0 2.796)">
                <path id="Trazado_1079677" data-name="Trazado 1079677" d="M395.851,550.013a.316.316,0,0,0,.118-.022c.243-.091,24.5-9.465,41.34-30.724a.33.33,0,1,0-.518-.41c-16.725,21.112-40.815,30.426-41.057,30.517a.33.33,0,0,0,.118.639Z" transform="translate(-395.52 -518.731)" fill="#5c89b3"/>
              </g>
              <g id="Grupo_1209072" data-name="Grupo 1209072" transform="translate(117.471 0.011)">
                <path id="Trazado_1079678" data-name="Trazado 1079678" d="M358.594,550.187a.331.331,0,0,0,.331-.331c0-.344-.33-.516-1.719-1.24-4.8-2.5-19.389-10.123-29.49-31.468a.33.33,0,0,0-.6.283c10.195,21.55,24.937,29.244,29.781,31.773a12.69,12.69,0,0,1,1.386.776A.331.331,0,0,0,358.594,550.187Z" transform="translate(-327.087 -516.957)" fill="#5c89b3"/>
              </g>
              <g id="Grupo_1209073" data-name="Grupo 1209073" transform="translate(49.549 64.592)">
                <path id="Trazado_1079679" data-name="Trazado 1079679" d="M401.919,562.476c3.705,0,5.849-.105,5.916-.107a.331.331,0,0,0,.313-.347.35.35,0,0,0-.347-.314,232.077,232.077,0,0,1-47.525-3.614.33.33,0,1,0-.118.65A242.007,242.007,0,0,0,401.919,562.476Z" transform="translate(-359.886 -558.089)" fill="#5c89b3"/>
              </g>
              <g id="Grupo_1209074" data-name="Grupo 1209074" transform="translate(58.734 67.099)">
                <path id="Trazado_1079680" data-name="Trazado 1079680" d="M379.365,565.355a.334.334,0,0,0,.17-.047l8.35-5.01a.33.33,0,0,0,.113-.454.335.335,0,0,0-.454-.113l-8.35,5.01a.331.331,0,0,0,.171.614Z" transform="translate(-379.034 -559.685)" fill="#5c89b3"/>
              </g>
            </g>
            <path id="Trazado_1079681" data-name="Trazado 1079681" d="M407.247,396.579l3.619,14.2s5.01-13.082,5.568-14.475,35.493.011,35.493.011,20.236.312,29.247,6.808c11.187,6.907,24.736,33.4,31.5,40.979,0,0,3.376,19.564-41.72,32.37,0,0-1.634,30.621-.521,42.869S476,574.453,476,574.453s-19.485,22.269-52.89,26.166c0,0-9.465-5.01-13.362-13.918,0,0-9.465,13.918-21.712,16.7s-36.744-17.815-46.765-30.063S330.138,553.3,330.138,553.3l10.021-71.817s-20.6-5.01-35.631-29.507c0,0,18.929-41.2,27.279-45.651s48.435-11.135,48.435-11.135Z" transform="translate(-288.567 -220.653)" fill="#3a71a1"/>
            <path id="Trazado_1079682" data-name="Trazado 1079682" d="M455.215,460.86l-.416,5.857s-26.444-6.959-40.363-23.66c0,0,.556-9.465,5.148-11.7C419.584,431.352,432.247,447.765,455.215,460.86Z" transform="translate(-403.621 -200.032)" fill="#2f658e"/>
            <path id="Trazado_1079683" data-name="Trazado 1079683" d="M301.924,458.773v9.165s26.783-5.448,46.967-29.9c0,0-.557-9.465-5.147-11.7C343.743,426.339,324.89,445.678,301.924,458.773Z" transform="translate(-120.639 -202.891)" fill="#2f658e"/>
            <path id="Trazado_1079684" data-name="Trazado 1079684" d="M342.457,399.535s23.382-8.629,25.331-10.021A118.57,118.57,0,0,1,379.2,403.432S360.272,421.8,354.148,423.2Z" transform="translate(-214.59 -223.886)" fill="#2f658e"/>
            <path id="Trazado_1079685" data-name="Trazado 1079685" d="M405.392,400.165s-16.424-10.856-18.372-12.249c0,0-9.185,6.4-15.31,15.032,0,0,15.866,19.485,21.991,20.878Z" transform="translate(-286.713 -224.797)" fill="#2f658e"/>
            <g id="Grupo_1209076" data-name="Grupo 1209076" transform="translate(120.856 189.792)">
              <path id="Trazado_1079686" data-name="Trazado 1079686" d="M369.524,581.491a.332.332,0,0,0,.331-.328l1.113-175.926a.331.331,0,0,0-.328-.333h0a.331.331,0,0,0-.331.328l-1.113,175.925a.33.33,0,0,0,.328.333S369.522,581.491,369.524,581.491Z" transform="translate(-369.194 -404.904)" fill="#2f658e"/>
            </g>
            <path id="Trazado_1079687" data-name="Trazado 1079687" d="M417.9,428.183l-33.083-1.839a3.794,3.794,0,0,0-3.968,3.261l-3.674,26.174a3.793,3.793,0,0,0,1.346,3.456l15.3,12.6a3.8,3.8,0,0,0,4.249.391L419.981,460.1a3.792,3.792,0,0,0,1.956-3.388l-.451-24.813A3.793,3.793,0,0,0,417.9,428.183Z" transform="translate(-311.788 -202.892)" fill="#2f658e"/>
            <g id="Grupo_1209077" data-name="Grupo 1209077" transform="translate(68.994 229.265)">
              <rect id="Rectángulo_417843" data-name="Rectángulo 417843" width="40.656" height="1.322" transform="translate(40.641 2.431) rotate(-178.436)" fill="#3a71a1"/>
            </g>
            <g id="Grupo_1209078" data-name="Grupo 1209078" transform="translate(112.506 184.516)">
              <path id="Trazado_1079688" data-name="Trazado 1079688" d="M373.423,591.769a.331.331,0,0,0,.331-.323L377.1,408.979a.369.369,0,0,0-.019-.116l-2.5-7.1a.336.336,0,0,0-.422-.2.331.331,0,0,0-.2.421l2.486,7.042-3.34,182.406a.331.331,0,0,0,.325.338A.006.006,0,0,0,373.423,591.769Z" transform="translate(-373.093 -401.544)" fill="#2f658e"/>
            </g>
            <g id="Grupo_1209079" data-name="Grupo 1209079" transform="translate(112.368 186.741)">
              <path id="Trazado_1079689" data-name="Trazado 1079689" d="M372.821,406.257c6.99,0,10.586-2.545,10.8-2.7a.33.33,0,1,0-.389-.534c-.072.052-7.29,5.134-21.14.787a.331.331,0,0,0-.2.631A36.5,36.5,0,0,0,372.821,406.257Z" transform="translate(-361.658 -402.961)" fill="#486f6c"/>
            </g>
            <path id="Trazado_1079690" data-name="Trazado 1079690" d="M370.112,409.248a2.088,2.088,0,1,0,2.088-2.088A2.088,2.088,0,0,0,370.112,409.248Z" transform="translate(-253.1 -213.826)" fill="#2f658e"/>
            <path id="Trazado_1079691" data-name="Trazado 1079691" d="M370.112,424.85a2.088,2.088,0,1,0,2.088-2.088A2.088,2.088,0,0,0,370.112,424.85Z" transform="translate(-253.1 -204.931)" fill="#2f658e"/>
            <path id="Trazado_1079692" data-name="Trazado 1079692" d="M370.783,441.842a2.088,2.088,0,1,0,.124-2.95A2.088,2.088,0,0,0,370.783,441.842Z" transform="translate(-253.408 -196.049)" fill="#2f658e"/>
            <path id="Trazado_1079693" data-name="Trazado 1079693" d="M371.2,460.125a2.088,2.088,0,1,0,.124-2.95A2.089,2.089,0,0,0,371.2,460.125Z" transform="translate(-254.467 -185.625)" fill="#2f658e"/>
            <path id="Trazado_1079694" data-name="Trazado 1079694" d="M371.461,493.543a2.088,2.088,0,1,0,.124-2.95A2.088,2.088,0,0,0,371.461,493.543Z" transform="translate(-255.151 -166.573)" fill="#2f658e"/>
            <path id="Trazado_1079695" data-name="Trazado 1079695" d="M371.372,477.854a2.088,2.088,0,1,0,.124-2.95A2.089,2.089,0,0,0,371.372,477.854Z" transform="translate(-254.924 -175.517)" fill="#2f658e"/>
            <path id="Trazado_1079696" data-name="Trazado 1079696" d="M371.642,513.325a2.088,2.088,0,1,0,.124-2.95A2.089,2.089,0,0,0,371.642,513.325Z" transform="translate(-255.616 -155.295)" fill="#2f658e"/>
          </g>
        </g>
      </g>
      <g id="Grupo_1209989" data-name="Grupo 1209989" transform="translate(1507.716 6908.131) rotate(-11)">
        <path id="Trazado_1081484" data-name="Trazado 1081484" d="M131.935,451.827,128.5,456.12l48.947,1.717,48.088,1.717,13.74-24.9-5.152-5.152Z" transform="translate(-1784.035 1194.216)" fill="#bc3500"/>
        <path id="Trazado_1081485" data-name="Trazado 1081485" d="M127,447.479l3.435,6.011,93.6,1.717,12.881-23.185L236.058,420Z" transform="translate(-1783.823 1195.558)" fill="#c0b79b"/>
        <path id="Trazado_1081486" data-name="Trazado 1081486" d="M143.316,419.527,127,447.006s39.5-8.587,49.806,0c0,0,17.174-8.587,47.23,0l12.022-27.479S197.415,411.8,187.11,422.1c0,0-16.316-10.3-43.795-2.576" transform="translate(-1783.823 1196.031)" fill="#fff"/>
        <path id="Trazado_1081487" data-name="Trazado 1081487" d="M194.811,422.424a115.975,115.975,0,0,0-9.874,19.151q-1.141,2.831-2.13,5.721c-.179.524.649.749.828.228a114.829,114.829,0,0,1,8.762-19.441q1.508-2.655,3.156-5.225c.3-.467-.444-.9-.741-.434" transform="translate(-1791.704 1195.244)"/>
        <path id="Trazado_1081488" data-name="Trazado 1081488" d="M136.195,444.831a62.617,62.617,0,0,1,7.789-1.679q1.964-.292,3.947-.453a15.8,15.8,0,0,1,3.729-.076,3.24,3.24,0,0,1,1.4.527c.411.3.695.74,1.169.951,1,.447,2.1-.52,3.02-.818a15.888,15.888,0,0,1,7.08-.118c3.044.43,6.085.878,9.127,1.318.541.078.775-.749.228-.828l-8.349-1.207a22.843,22.843,0,0,0-7.016-.307,8.754,8.754,0,0,0-1.72.461,12.935,12.935,0,0,1-1.623.736c-.561.126-.926-.5-1.31-.8a3.717,3.717,0,0,0-1.454-.681,11.339,11.339,0,0,0-3.362-.087q-1.989.133-3.966.394A62.961,62.961,0,0,0,135.966,444a.43.43,0,0,0,.228.828" transform="translate(-1785.047 1192.494)"/>
        <path id="Trazado_1081489" data-name="Trazado 1081489" d="M142.992,438.588c1.831-.746,3.974-1.6,5.978-1.116a8.676,8.676,0,0,1,2.622,1.545,3.251,3.251,0,0,0,2.35.478c1.783-.3,3.164-1.727,4.96-1.981a12.648,12.648,0,0,1,3.463.341,15.373,15.373,0,0,0,3.276-.084,4.444,4.444,0,0,1,1.867.185,11.108,11.108,0,0,1,1.414.708,3.476,3.476,0,0,0,2.756.53c.523-.171.3-1-.228-.828-.935.307-1.8-.288-2.593-.716a5.431,5.431,0,0,0-2.72-.762,26.673,26.673,0,0,1-3.463.147,24.414,24.414,0,0,0-3.258-.42c-1.918.038-3.328,1.321-5.073,1.893a2.662,2.662,0,0,1-2.6-.432,7.28,7.28,0,0,0-2.462-1.414c-2.19-.574-4.506.277-6.516,1.1-.5.206-.284,1.037.228.828" transform="translate(-1786.01 1193.231)"/>
        <path id="Trazado_1081490" data-name="Trazado 1081490" d="M144.933,432.948a16.22,16.22,0,0,1,6.367-1.831,43.832,43.832,0,0,1,6.653.5,10.457,10.457,0,0,0,3.2-.179,9.694,9.694,0,0,1,3.309-.66c1.012.108,1.986.343,3.009.376.957.033,1.914-.015,2.87-.046,2.04-.064,4.293-.1,5.984,1.221.43.337,1.042-.267.607-.608-3.236-2.532-7.583-.952-11.305-1.619a6.535,6.535,0,0,0-3.194.046,11.412,11.412,0,0,1-3.58.654c-2.377-.04-4.692-.677-7.08-.575a17.244,17.244,0,0,0-7.279,1.976c-.489.257-.056,1,.434.741" transform="translate(-1786.265 1194.155)"/>
        <path id="Trazado_1081491" data-name="Trazado 1081491" d="M150.465,425.683a23.169,23.169,0,0,1,6.842-2.152,9.036,9.036,0,0,1,3.414.28,14.145,14.145,0,0,0,3.079.793c1.921.117,3.751-.668,5.659-.693a3.569,3.569,0,0,1,2.544.93,2.952,2.952,0,0,0,2.708.765c.615-.112,1.207-.324,1.82-.449a9.894,9.894,0,0,1,1.961-.194,10.364,10.364,0,0,1,3.781.726c.515.2.739-.629.228-.828a11.048,11.048,0,0,0-6.754-.4,9.369,9.369,0,0,1-1.6.363,2.141,2.141,0,0,1-1.668-.707,4.21,4.21,0,0,0-2.422-1.041c-1.951-.188-3.837.654-5.778.681a10.106,10.106,0,0,1-3.147-.719,9.576,9.576,0,0,0-3.437-.4,23.167,23.167,0,0,0-7.66,2.3c-.5.22-.069.959.434.741" transform="translate(-1787.045 1195.188)"/>
        <path id="Trazado_1081492" data-name="Trazado 1081492" d="M197.152,432.719S192,443.882,192,443.024s23.185-3.435,31.773,0l3.435-9.446s-12.881-5.152-30.055-.859" transform="translate(-1793.006 1194.003)" fill="#a197ff"/>
        <path id="Trazado_1081493" data-name="Trazado 1081493" d="M199.226,429.512a5.049,5.049,0,0,0,2.046-.869c.709-.445,1.416-.9,2.255-.5a4.972,4.972,0,0,0,2.719.671,13.981,13.981,0,0,0,2.941-.724,16.194,16.194,0,0,1,6.6-.46c2.313.235,4.621.549,6.93.829l7.872.953c.547.066.543-.793,0-.859-4.665-.565-9.327-1.153-13.995-1.693a18.891,18.891,0,0,0-6.535.091c-.991.234-1.939.619-2.93.852a5.23,5.23,0,0,1-1.509.167,4.271,4.271,0,0,1-1.661-.568,2.5,2.5,0,0,0-2.338.045,8.286,8.286,0,0,1-2.395,1.209c-.54.07-.547.93,0,.859" transform="translate(-1793.969 1194.624)"/>
        <path id="Trazado_1081494" data-name="Trazado 1081494" d="M201.63,424.141c2-.821,4.12-1.7,6.325-1.552,1.1.072,2.116.532,3.2.687a4.481,4.481,0,0,0,1.38-.021,7.022,7.022,0,0,1,1.631-.245c.988.072,1.763.807,2.793.787a9.186,9.186,0,0,0,2.619-.7c2.074-.678,3.944.426,6.005.561,1.862.122,4.248-.593,5.836.691.426.344,1.037-.259.607-.607-1.436-1.162-3.239-1.011-4.975-.942a10.53,10.53,0,0,1-2.987-.264,12.34,12.34,0,0,0-3.1-.563,9.968,9.968,0,0,0-2.866.735,3.367,3.367,0,0,1-1.5.209,6.591,6.591,0,0,1-1.441-.533,3.042,3.042,0,0,0-1.473-.211c-.587.064-1.155.265-1.747.292a16.957,16.957,0,0,1-3.279-.656c-2.522-.388-4.964.563-7.255,1.5-.5.207-.283,1.038.228.828" transform="translate(-1794.294 1195.315)"/>
        <path id="Trazado_1081495" data-name="Trazado 1081495" d="M204.4,437.875a63.41,63.41,0,0,1,14.178-2.381c.55-.029.553-.888,0-.859a64.478,64.478,0,0,0-14.407,2.412.43.43,0,0,0,.228.828" transform="translate(-1794.683 1193.491)"/>
        <path id="Trazado_1081496" data-name="Trazado 1081496" d="M213.542,439.478a63.223,63.223,0,0,1,7.726-1.531c.54-.072.547-.932,0-.859a64.931,64.931,0,0,0-7.954,1.562.43.43,0,0,0,.228.828" transform="translate(-1795.974 1193.144)"/>
        <path id="Trazado_1081497" data-name="Trazado 1081497" d="M134.594,454.659a177.884,177.884,0,0,1,30.9-1.749q4.373.134,8.735.483c.551.044.549-.815,0-.859a178.573,178.573,0,0,0-31.163.247q-4.36.419-8.7,1.05c-.544.079-.313.906.228.828" transform="translate(-1784.82 1191.041)"/>
        <path id="Trazado_1081498" data-name="Trazado 1081498" d="M152.966,455.616a87.036,87.036,0,0,1,22.3.048c.546.071.541-.788,0-.859a87.031,87.031,0,0,0-22.3-.048c-.541.069-.548.928,0,.859" transform="translate(-1787.433 1190.746)"/>
        <path id="Trazado_1081499" data-name="Trazado 1081499" d="M191.2,452.955a110.059,110.059,0,0,1,28.984-.132c2.768.355,5.521.823,8.253,1.388.539.112.77-.716.228-.828a110.915,110.915,0,0,0-29.447-2.092q-4.139.263-8.247.836c-.545.075-.313.9.228.828" transform="translate(-1792.816 1191.168)"/>
        <path id="Trazado_1081500" data-name="Trazado 1081500" d="M183.461,451.073c-.009,1.012-.856,2.058-.244,3.045.6.964,1.86.779,2.781.489l-.418-.111c.313.325.049.88-.126,1.208a2.963,2.963,0,0,0-.518,1.662c.053.544.913.55.859,0-.067-.678.471-1.223.672-1.838a1.588,1.588,0,0,0-.279-1.639.425.425,0,0,0-.417-.11c-.526.165-1.7.512-1.894-.292a2.3,2.3,0,0,1,.191-1.131,4.5,4.5,0,0,0,.253-1.283.43.43,0,0,0-.859,0" transform="translate(-1791.734 1191.227)"/>
        <path id="Trazado_1081501" data-name="Trazado 1081501" d="M198.007,456.107a195.41,195.41,0,0,1,23.068-.129q3.278.177,6.548.463c.55.048.548-.811,0-.859a195.53,195.53,0,0,0-23.059-.649q-3.281.1-6.556.315c-.549.035-.553.895,0,.859" transform="translate(-1793.796 1190.636)"/>
        <path id="Trazado_1081502" data-name="Trazado 1081502" d="M249.689,432.765l-8.768,18.87c-.231.5.509.934.742.434l8.767-18.87c.232-.5-.508-.935-.741-.434" transform="translate(-1799.911 1193.786)"/>
        <path id="Trazado_1081503" data-name="Trazado 1081503" d="M235.308,407.59l4.56,1.164,3.348.848,38.137,31.381-4.185,5.084-38.137-31.381-1.523-2.9Z" transform="translate(-1799.124 1197.312)" fill="#f27fff"/>
        <rect id="Rectángulo_417901" data-name="Rectángulo 417901" width="6.591" height="5.553" transform="matrix(0.635, -0.772, 0.772, 0.635, -1526.249, 1639.852)" fill="#a197ff"/>
        <rect id="Rectángulo_417902" data-name="Rectángulo 417902" width="6.591" height="5.553" transform="matrix(0.635, -0.772, 0.772, 0.635, -1530.347, 1636.479)" fill="#f07a50"/>
        <path id="Trazado_1081504" data-name="Trazado 1081504" d="M235.308,407.59l4.56,1.164c-.027.033-.052.08-.079.112.29-.088.463.381.284.615a1.477,1.477,0,0,1-.807.385c-.283.1-.6.283-.6.582a.862.862,0,0,0,.136.4l.515.914a13.363,13.363,0,0,1-1.807.027Z" transform="translate(-1799.124 1197.312)"/>
        <path id="Trazado_1081505" data-name="Trazado 1081505" d="M266.826,432.035l-15.691-12.912c-.424-.348-1.035.256-.607.608l15.691,12.911c.423.349,1.034-.256.607-.607" transform="translate(-1801.254 1195.697)"/>
      </g>
    </g>
  </g>
</svg>
