<svg xmlns="http://www.w3.org/2000/svg" xmlns:xlink="http://www.w3.org/1999/xlink" width="103" height="103" viewBox="0 0 103 103">
  <defs>
    <filter id="Trazado_978624" x="0" y="0" width="103" height="103" filterUnits="userSpaceOnUse">
      <feOffset dy="3" input="SourceAlpha"/>
      <feGaussianBlur stdDeviation="3" result="blur"/>
      <feFlood flood-opacity="0.161"/>
      <feComposite operator="in" in2="blur"/>
      <feComposite in="SourceGraphic"/>
    </filter>
  </defs>
  <g id="Grupo_1209822" data-name="Grupo 1209822" transform="translate(-160 -1059)">
    <g id="Grupo_1208106" data-name="Grupo 1208106" transform="translate(169 1065)">
      <g id="Grupo_1206641" data-name="Grupo 1206641">
        <g id="Grupo_1185491" data-name="Grupo 1185491">
          <g id="Grupo_1183826" data-name="Grupo 1183826">
            <g id="Grupo_1164359" data-name="Grupo 1164359">
              <g id="Grupo_1144531" data-name="Grupo 1144531">
                <g transform="matrix(1, 0, 0, 1, -9, -6)" filter="url(#Trazado_978624)">
                  <g id="Trazado_978624-2" data-name="Trazado 978624" transform="translate(9 6)" fill="#fff9e9">
                    <path d="M 42.5 83.5 C 36.96437835693359 83.5 31.59512901306152 82.41617584228516 26.54141235351562 80.27863311767578 C 21.65934181213379 78.21369171142578 17.27447128295898 75.25723266601562 13.50862312316895 71.49137878417969 C 9.742764472961426 67.72553253173828 6.786305904388428 63.34066009521484 4.721364498138428 58.45858764648438 C 2.583823442459106 53.40486907958984 1.5 48.03562164306641 1.5 42.5 C 1.5 36.96437835693359 2.583823442459106 31.59512901306152 4.721364498138428 26.54141235351562 C 6.786305904388428 21.65934181213379 9.742764472961426 17.27447128295898 13.50862312316895 13.50862312316895 C 17.27447128295898 9.742764472961426 21.65934181213379 6.786305904388428 26.54141235351562 4.721364498138428 C 31.59512901306152 2.583823442459106 36.96437835693359 1.5 42.5 1.5 C 48.03562164306641 1.5 53.40486907958984 2.583823442459106 58.45858764648438 4.721364498138428 C 63.34066009521484 6.786305904388428 67.72553253173828 9.742764472961426 71.49137878417969 13.50862312316895 C 75.25723266601562 17.27447128295898 78.21369171142578 21.65934181213379 80.27863311767578 26.54141235351562 C 82.41617584228516 31.59512901306152 83.5 36.96437835693359 83.5 42.5 C 83.5 48.03562164306641 82.41617584228516 53.40486907958984 80.27863311767578 58.45858764648438 C 78.21369171142578 63.34066009521484 75.25723266601562 67.72553253173828 71.49137878417969 71.49137878417969 C 67.72553253173828 75.25723266601562 63.34066009521484 78.21369171142578 58.45858764648438 80.27863311767578 C 53.40486907958984 82.41617584228516 48.03562164306641 83.5 42.5 83.5 Z" stroke="none"/>
                    <path d="M 42.5 3 C 37.16621398925781 3 31.99356079101562 4.043960571289062 27.125732421875 6.102882385253906 C 22.42246627807617 8.092185974121094 18.19785308837891 10.94070434570312 14.56928253173828 14.56928253173828 C 10.94070434570312 18.19785308837891 8.092185974121094 22.42246627807617 6.102882385253906 27.125732421875 C 4.043960571289062 31.99356079101562 3 37.16621398925781 3 42.5 C 3 47.83378601074219 4.043960571289062 53.00643920898438 6.102882385253906 57.87425231933594 C 8.092185974121094 62.57753372192383 10.94070434570312 66.80213165283203 14.56928253173828 70.43071746826172 C 18.19786834716797 74.05929565429688 22.42246627807617 76.90781402587891 27.125732421875 78.89711761474609 C 31.99356079101562 80.95603942871094 37.16621398925781 82 42.5 82 C 47.83378601074219 82 53.00642395019531 80.95603942871094 57.87425231933594 78.89711761474609 C 62.57753372192383 76.90781402587891 66.80213165283203 74.05929565429688 70.43071746826172 70.43071746826172 C 74.05929565429688 66.80213165283203 76.90781402587891 62.57753372192383 78.89711761474609 57.87425231933594 C 80.95603942871094 53.00642395019531 82 47.83378601074219 82 42.5 C 82 37.16621398925781 80.95603942871094 31.99356079101562 78.89711761474609 27.125732421875 C 76.90781402587891 22.42246627807617 74.05929565429688 18.19786834716797 70.43071746826172 14.56928253173828 C 66.80213165283203 10.94070434570312 62.57753372192383 8.092185974121094 57.87425231933594 6.102882385253906 C 53.00643920898438 4.043960571289062 47.83378601074219 3 42.5 3 M 42.5 0 C 65.97209167480469 0 85 19.02789306640625 85 42.5 C 85 65.97209167480469 65.97209167480469 85 42.5 85 C 19.02789306640625 85 0 65.97209167480469 0 42.5 C 0 19.02789306640625 19.02789306640625 0 42.5 0 Z" stroke="none" fill="#8b701c"/>
                  </g>
                </g>
              </g>
            </g>
          </g>
        </g>
      </g>
    </g>
    <g id="educacion_5_" data-name="educacion (5)" transform="translate(182.72 1078.859)">
      <g id="Grupo_1209821" data-name="Grupo 1209821" transform="translate(3.877 0.76)">
        <g id="Grupo_1209820" data-name="Grupo 1209820" transform="translate(0)">
          <g id="Grupo_1209818" data-name="Grupo 1209818" transform="translate(0 19.292)">
            <g id="Grupo_1209814" data-name="Grupo 1209814" transform="translate(3.045)">
              <path id="Trazado_1080944" data-name="Trazado 1080944" d="M99.618,226.5H62.626a2.832,2.832,0,0,1,0-5.664H99.618A6.219,6.219,0,0,0,99.618,226.5Z" transform="translate(-57.848 -218.476)" fill="#f7f7f7"/>
              <path id="Trazado_1080945" data-name="Trazado 1080945" d="M124.69,220.834h-3.045a6.219,6.219,0,0,0,0,5.664h3.045A6.219,6.219,0,0,1,124.69,220.834Z" transform="translate(-82.92 -218.475)" fill="#efefef"/>
              <path id="Trazado_1080946" data-name="Trazado 1080946" d="M45.807,207.974a5.2,5.2,0,0,1-5.19-5.242,5.236,5.236,0,0,1,5.248-5.14H82.8a1.534,1.534,0,0,1,0,3.068H45.807a2.123,2.123,0,0,0,0,4.247H82.8a1.534,1.534,0,0,1,0,3.068Z" transform="translate(-40.617 -197.592)" fill="#ff815c"/>
            </g>
            <g id="Grupo_1209817" data-name="Grupo 1209817" transform="translate(0 10.382)">
              <g id="Grupo_1209815" data-name="Grupo 1209815" transform="translate(0 10.382)">
                <path id="Trazado_1080947" data-name="Trazado 1080947" d="M79.771,431.1H36.69a2.832,2.832,0,0,1,0-5.664H79.771a6.219,6.219,0,0,0,0,5.664Z" transform="translate(-31.499 -423.077)" fill="#f7f7f7"/>
                <path id="Trazado_1080948" data-name="Trazado 1080948" d="M453.269,425.436h-3.045a6.219,6.219,0,0,0,0,5.664h3.045A6.219,6.219,0,0,1,453.269,425.436Z" transform="translate(-404.997 -423.077)" fill="#efefef"/>
                <path id="Trazado_1080949" data-name="Trazado 1080949" d="M15.807,412.575a5.2,5.2,0,0,1-5.19-5.242,5.236,5.236,0,0,1,5.248-5.14H58.888a1.534,1.534,0,0,1,0,3.068H15.807a2.123,2.123,0,0,0,0,4.247H58.888a1.534,1.534,0,0,1,0,3.068H15.807Z" transform="translate(-10.617 -402.193)" fill="#ffe66b"/>
              </g>
              <g id="Grupo_1209816" data-name="Grupo 1209816" transform="translate(0)">
                <path id="Trazado_1080950" data-name="Trazado 1080950" d="M25.729,323.135H68.81a2.832,2.832,0,0,1,0,5.664H25.729A6.219,6.219,0,0,0,25.729,323.135Z" transform="translate(-24.195 -320.776)" fill="#f7f7f7"/>
                <path id="Trazado_1080951" data-name="Trazado 1080951" d="M12.151,310.274a1.534,1.534,0,0,1,0-3.068H55.232a2.124,2.124,0,0,0,0-4.247H12.151a1.534,1.534,0,0,1,0-3.067H55.232a5.2,5.2,0,0,1,5.19,5.242,5.236,5.236,0,0,1-5.248,5.14Z" transform="translate(-10.617 -299.892)" fill="#c9f0ff"/>
                <path id="Trazado_1080952" data-name="Trazado 1080952" d="M426.455,301.432a5.153,5.153,0,0,0-3.687-1.54h-3.045a5.2,5.2,0,0,1,5.19,5.242,5.236,5.236,0,0,1-5.247,5.14h3.045a5.236,5.236,0,0,0,5.248-5.14A5.155,5.155,0,0,0,426.455,301.432Z" transform="translate(-378.154 -299.892)" fill="#b5eaff"/>
              </g>
            </g>
          </g>
          <g id="Grupo_1209819" data-name="Grupo 1209819" transform="translate(1.27)">
            <path id="Trazado_1080953" data-name="Trazado 1080953" d="M144.413,106.833H116l3.045-10.251h22.327Z" transform="translate(-106.572 -87.541)" fill="#288a9a"/>
            <path id="Trazado_1080954" data-name="Trazado 1080954" d="M44.139,7.832l-20.2,5.3a1.089,1.089,0,0,0,0,2.106l20.2,5.3a10.33,10.33,0,0,0,5.248,0l20.2-5.3a1.089,1.089,0,0,0,0-2.106l-20.2-5.3a10.33,10.33,0,0,0-5.248,0Z" transform="translate(-23.13 -7.493)" fill="#3498ac"/>
            <path id="Trazado_1080955" data-name="Trazado 1080955" d="M228.415,13.137l-20.2-5.3a10.329,10.329,0,0,0-5.248,0l-3.069.806a10.331,10.331,0,0,1,4.258.209l20.2,5.3a1.089,1.089,0,0,1,0,2.106l4.059-1.015A1.089,1.089,0,0,0,228.415,13.137Z" transform="translate(-181.961 -7.493)" fill="#288a9a"/>
            <path id="Trazado_1080956" data-name="Trazado 1080956" d="M306.682,182.466H302.3s0-6.611,2.19-6.611S306.682,182.466,306.682,182.466Z" transform="translate(-273.969 -158.769)" fill="#ffe66b"/>
          </g>
        </g>
        <path id="Trazado_1080957" data-name="Trazado 1080957" d="M96.617,340.5,93,342.4V330.118h3.62Z" transform="translate(-84.637 -297.376)" fill="#3498ac"/>
      </g>
      <path id="Trazado_1080958" data-name="Trazado 1080958" d="M243.447,44.6a2.82,2.82,0,0,1-3.01,0V42.432a1.5,1.5,0,1,1,3.01,0Z" transform="translate(-213.236 -36.774)" fill="#ffe66b"/>
      <path id="Trazado_1080959" data-name="Trazado 1080959" d="M52.4,47.384a5.478,5.478,0,0,1,0-2.753,2.3,2.3,0,0,0,.015-4.559,5.917,5.917,0,0,0,2.025-4.388,6.015,6.015,0,0,0-3.461-5.466,2.322,2.322,0,0,0-2.04-3.612,5.48,5.48,0,0,1,0-2.725c3.033.159,3.232-4.59.162-4.59H43.556L41.384,11.98l10.41-2.734a1.862,1.862,0,0,0,0-3.578L31.6.363a11.111,11.111,0,0,0-5.635,0l-7.51,1.973a.762.762,0,0,0,.387,1.472l7.51-1.973a9.588,9.588,0,0,1,4.861,0l20.2,5.3a.328.328,0,0,1,0,.633L35.864,11.856,30.972,7.42V5.658a2.266,2.266,0,0,0-4.532,0V7.822a.761.761,0,0,0,.363.648,3.563,3.563,0,0,0,3.333.247l3.971,3.6-2.9.761a9.588,9.588,0,0,1-4.861,0l-20.2-5.3a.328.328,0,0,1,0-.633l8.835-2.321A.762.762,0,0,0,14.6,3.347L5.766,5.668a1.862,1.862,0,0,0,0,3.578L16.175,11.98,14,19.291H12.17A5.95,5.95,0,0,0,8.141,29.673H5.411a2.3,2.3,0,0,0-.254,4.575,5.469,5.469,0,0,1,0,2.753,2.3,2.3,0,0,0-.015,4.559,5.94,5.94,0,0,0,3.926,10.4H52.149a2.3,2.3,0,0,0,.254-4.575ZM29.449,7.354a2.014,2.014,0,0,1-1.487,0v-1.7a.744.744,0,0,1,1.487,0ZM48.492,34.263a1.362,1.362,0,0,1,0,2.725H16.619V34.263ZM15.1,43.424l-2.1,1.1V34.263h2.1Zm-3.62-6.436H6.722a7,7,0,0,0,0-2.725h4.755Zm.367,9.447a.761.761,0,0,0,.747.023l3.454-1.812H50.839a7.016,7.016,0,0,0,0,2.725H9.068a1.362,1.362,0,0,1,0-2.725h2.409v1.138a.761.761,0,0,0,.367.651ZM47.381,26.606H12.112a1.362,1.362,0,0,1,0-2.725H32.73c-.019.542-.016,1.337.749,1.337H37.86c.767,0,.768-.795.749-1.337h8.773a7.016,7.016,0,0,0,0,2.725Zm-11.712-8c.671,0,1.309,2.38,1.414,5.088H34.255c.1-2.708.743-5.088,1.414-5.088Zm14.207,2.979a.773.773,0,0,1-.773.773h-10.6c-.05-.517-.117-1.034-.209-1.545H49.1a.774.774,0,0,1,.773.773Zm-7.909-2.295H37.919a3.238,3.238,0,0,0-1.489-2.04v-3.97l3.481-.914ZM17.648,12.367l8.314,2.184a11.154,11.154,0,0,0,5.635,0l3.311-.87v3.57a3.238,3.238,0,0,0-1.489,2.04H15.592ZM8.967,28.359A4.4,4.4,0,0,1,7.683,25.2a4.473,4.473,0,0,1,4.486-4.386h20.87c-.092.512-.159,1.028-.209,1.545H12.112a2.885,2.885,0,0,0,0,5.769H49.1a.773.773,0,0,1,0,1.545H12.112a4.4,4.4,0,0,1-3.146-1.314ZM4.639,31.968a.773.773,0,0,1,.773-.773H48.492a4.43,4.43,0,1,1-.057,8.86H44.443a.762.762,0,0,0,0,1.522h7.706a.773.773,0,0,1,0,1.545H16.619V41.578H40.431a.762.762,0,0,0,0-1.522H16.619V38.51H48.492a2.885,2.885,0,0,0,0-5.769H5.411a.773.773,0,0,1-.773-.772Zm.773,8.087a.773.773,0,0,1,0-1.545h6.066v1.545ZM52.149,50.437H9.068a4.435,4.435,0,0,1-4.429-4.474,4.473,4.473,0,0,1,4.486-4.386h2.352v1.545H9.068a2.885,2.885,0,0,0,0,5.769H52.149a.773.773,0,0,1,0,1.545Z" transform="translate(0 0)"/>
    </g>
  </g>
</svg>
