<svg xmlns="http://www.w3.org/2000/svg" xmlns:xlink="http://www.w3.org/1999/xlink" width="103" height="107.322" viewBox="0 0 103 107.322">
  <defs>
    <filter id="Trazado_978624" x="0" y="4.322" width="103" height="103" filterUnits="userSpaceOnUse">
      <feOffset dy="3" input="SourceAlpha"/>
      <feGaussianBlur stdDeviation="3" result="blur"/>
      <feFlood flood-opacity="0.161"/>
      <feComposite operator="in" in2="blur"/>
      <feComposite in="SourceGraphic"/>
    </filter>
  </defs>
  <g id="Grupo_1209882" data-name="Grupo 1209882" transform="translate(-160 -3241.678)">
    <g id="Grupo_1208110" data-name="Grupo 1208110" transform="translate(0 -2642)">
      <g id="Grupo_1206641" data-name="Grupo 1206641" transform="translate(0 -7254)">
        <g id="Grupo_1185491" data-name="Grupo 1185491" transform="translate(0 9912)">
          <g id="Grupo_1183826" data-name="Grupo 1183826" transform="translate(-11 -401)">
            <g id="Grupo_1164359" data-name="Grupo 1164359" transform="translate(180 3637)">
              <g id="Grupo_1144531" data-name="Grupo 1144531">
                <g transform="matrix(1, 0, 0, 1, -9, -10.32)" filter="url(#Trazado_978624)">
                  <g id="Trazado_978624-2" data-name="Trazado 978624" transform="translate(9 10.32)" fill="#f9ecff">
                    <path d="M 42.5 83.5 C 36.96437835693359 83.5 31.59512901306152 82.41617584228516 26.54141235351562 80.27863311767578 C 21.65934181213379 78.21369171142578 17.27447128295898 75.25723266601562 13.50862312316895 71.49137878417969 C 9.742764472961426 67.72553253173828 6.786305904388428 63.34066009521484 4.721364498138428 58.45858764648438 C 2.583823442459106 53.40486907958984 1.5 48.03562164306641 1.5 42.5 C 1.5 36.96437835693359 2.583823442459106 31.59512901306152 4.721364498138428 26.54141235351562 C 6.786305904388428 21.65934181213379 9.742764472961426 17.27447128295898 13.50862312316895 13.50862312316895 C 17.27447128295898 9.742764472961426 21.65934181213379 6.786305904388428 26.54141235351562 4.721364498138428 C 31.59512901306152 2.583823442459106 36.96437835693359 1.5 42.5 1.5 C 48.03562164306641 1.5 53.40486907958984 2.583823442459106 58.45858764648438 4.721364498138428 C 63.34066009521484 6.786305904388428 67.72553253173828 9.742764472961426 71.49137878417969 13.50862312316895 C 75.25723266601562 17.27447128295898 78.21369171142578 21.65934181213379 80.27863311767578 26.54141235351562 C 82.41617584228516 31.59512901306152 83.5 36.96437835693359 83.5 42.5 C 83.5 48.03562164306641 82.41617584228516 53.40486907958984 80.27863311767578 58.45858764648438 C 78.21369171142578 63.34066009521484 75.25723266601562 67.72553253173828 71.49137878417969 71.49137878417969 C 67.72553253173828 75.25723266601562 63.34066009521484 78.21369171142578 58.45858764648438 80.27863311767578 C 53.40486907958984 82.41617584228516 48.03562164306641 83.5 42.5 83.5 Z" stroke="none"/>
                    <path d="M 42.5 3 C 37.16621398925781 3 31.99356079101562 4.043960571289062 27.125732421875 6.102882385253906 C 22.42246627807617 8.092185974121094 18.19785308837891 10.94070434570312 14.56928253173828 14.56928253173828 C 10.94070434570312 18.19785308837891 8.092185974121094 22.42246627807617 6.102882385253906 27.125732421875 C 4.043960571289062 31.99356079101562 3 37.16621398925781 3 42.5 C 3 47.83378601074219 4.043960571289062 53.00643920898438 6.102882385253906 57.87425231933594 C 8.092185974121094 62.57753372192383 10.94070434570312 66.80213165283203 14.56928253173828 70.43071746826172 C 18.19786834716797 74.05929565429688 22.42246627807617 76.90781402587891 27.125732421875 78.89711761474609 C 31.99356079101562 80.95603942871094 37.16621398925781 82 42.5 82 C 47.83378601074219 82 53.00642395019531 80.95603942871094 57.87425231933594 78.89711761474609 C 62.57753372192383 76.90781402587891 66.80213165283203 74.05929565429688 70.43071746826172 70.43071746826172 C 74.05929565429688 66.80213165283203 76.90781402587891 62.57753372192383 78.89711761474609 57.87425231933594 C 80.95603942871094 53.00642395019531 82 47.83378601074219 82 42.5 C 82 37.16621398925781 80.95603942871094 31.99356079101562 78.89711761474609 27.125732421875 C 76.90781402587891 22.42246627807617 74.05929565429688 18.19786834716797 70.43071746826172 14.56928253173828 C 66.80213165283203 10.94070434570312 62.57753372192383 8.092185974121094 57.87425231933594 6.102882385253906 C 53.00643920898438 4.043960571289062 47.83378601074219 3 42.5 3 M 42.5 0 C 65.97209167480469 0 85 19.02789306640625 85 42.5 C 85 65.97209167480469 65.97209167480469 85 42.5 85 C 19.02789306640625 85 0 65.97209167480469 0 42.5 C 0 19.02789306640625 19.02789306640625 0 42.5 0 Z" stroke="none" fill="#cf50ff"/>
                  </g>
                </g>
              </g>
            </g>
          </g>
        </g>
      </g>
    </g>
    <g id="_035---Creative-Writing" data-name="035---Creative-Writing" transform="translate(180.161 3241.678)">
      <g id="Icons" transform="translate(1.846 10.772)">
        <rect id="Rectangle-path" width="52" height="63" rx="3" transform="translate(-0.18 17.549)" fill="#dfc49c"/>
        <rect id="Rectangle-path-2" data-name="Rectangle-path" width="47" height="63" rx="3" transform="translate(-0.18 17.549)" fill="#ffe0b2"/>
        <path id="Shape" d="M25.315,15v6.155H13.005c0-5.412.011-5.969-.015-6.155Z" transform="translate(6.691 8.079)" fill="#9e9e9e"/>
        <path id="Shape-2" data-name="Shape" d="M29.035,17.678a8.424,8.424,0,0,0-2.108,5.4H14.6a9.409,9.409,0,0,0-2.216-5.539,10.771,10.771,0,1,1,16.649.138Z" transform="translate(5.078 0)" fill="#ffdc00"/>
        <path id="Shape-3" data-name="Shape" d="M25.31,19v3.077a3.087,3.087,0,0,1-3.077,3.077H16.077A3.087,3.087,0,0,1,13,22.077V19Z" transform="translate(6.696 10.234)" fill="#707070"/>
        <path id="Shape-4" data-name="Shape" d="M21.155,23v3.077a3.077,3.077,0,1,1-6.155,0V23Z" transform="translate(7.773 12.388)" fill="#37474f"/>
        <path id="Shape-5" data-name="Shape" d="M26.076,17.679a8.424,8.424,0,0,0-2.108,5.4H19.352a8.424,8.424,0,0,1,2.108-5.4A10.788,10.788,0,0,0,15.49.246,10.789,10.789,0,0,1,26.076,17.679Z" transform="translate(8.037 -0.001)" fill="#fec108"/>
        <path id="Shape-6" data-name="Shape" d="M52.4,30.534,27.364,55.568,18.67,46.859,43.689,21.84Z" transform="translate(9.75 11.764)" fill="#02a9f4"/>
        <path id="Shape-7" data-name="Shape" d="M29.648,46.809c-12.463,5.339-14.956,6.339-15.218,6.509L20.954,38.1Z" transform="translate(7.466 20.523)" fill="#9e9e9e"/>
        <path id="Shape-8" data-name="Shape" d="M50.163,26.931l-6.524,6.524L34.93,24.761l6.524-6.539a6.158,6.158,0,0,1,8.709,8.709Z" transform="translate(18.51 8.843)" fill="#02a9f4"/>
        <path id="Shape-9" data-name="Shape" d="M50.427,28.562,25.392,53.6,22.33,50.519,47.349,25.5Z" transform="translate(11.722 13.735)" fill="#0377bc"/>
        <path id="Shape-10" data-name="Shape" d="M29.648,44.832c-12.463,5.339-14.956,6.339-15.218,6.509l2.308-5.37C19,45,22.154,43.647,26.57,41.77Z" transform="translate(7.466 22.5)" fill="#707070"/>
        <path id="Shape-11" data-name="Shape" d="M48.191,26.735l-6.524,6.524L38.59,30.2l6.524-6.524A6.155,6.155,0,0,0,46.36,16.78a6.155,6.155,0,0,1,1.831,9.955Z" transform="translate(20.481 9.038)" fill="#0377bc"/>
      </g>
      <g id="Outline" transform="translate(0)">
        <path id="Shape-12" data-name="Shape" d="M16.3,22.93H6.155A6.155,6.155,0,0,0,0,29.085V82.939a6.155,6.155,0,0,0,6.155,6.155H49.238a6.155,6.155,0,0,0,6.155-6.155V68.675a1.539,1.539,0,1,0-3.077,0V82.939a3.077,3.077,0,0,1-3.077,3.077H6.155a3.077,3.077,0,0,1-3.077-3.077V29.085a3.077,3.077,0,0,1,3.077-3.077H18.087A7.863,7.863,0,0,1,20,30.931v8.924a4.616,4.616,0,0,0,3.077,4.333c0,1.965-.2,3.559,1.345,5.065a4.616,4.616,0,0,0,7.887-3.244V44.188a4.616,4.616,0,0,0,3.077-4.333V30.639a7.133,7.133,0,0,1,1.9-4.631H49.238a3.077,3.077,0,0,1,3.077,3.077,1.539,1.539,0,0,0,1.539,1.539c3.219,0,1.252-7.693-4.616-7.693H39.109a12.31,12.31,0,1,0-22.813,0Zm16.016,9.232v3.077H23.08V32.162ZM27.7,47.549a1.551,1.551,0,0,1-1.539-1.539V44.472h3.077V46.01A1.539,1.539,0,0,1,27.7,47.549Zm4.616-7.693a1.539,1.539,0,0,1-1.539,1.539H24.619a1.539,1.539,0,0,1-1.539-1.539V38.317h9.232ZM21.542,11.428a9.232,9.232,0,0,1,13.24,12.807,10.278,10.278,0,0,0-2.316,4.85H29.235V21.391a1.539,1.539,0,1,0-3.077,0v7.693H22.9c-.962-4.972-4.431-5.444-4.431-10.771a9.246,9.246,0,0,1,3.077-6.886Z" transform="translate(0 3.228)"/>
        <path id="Shape-13" data-name="Shape" d="M20.077,4.616V1.539a1.539,1.539,0,1,0-3.077,0V4.616a1.539,1.539,0,1,0,3.077,0Z" transform="translate(9.158)"/>
        <path id="Shape-14" data-name="Shape" d="M29.539,16.077h3.077a1.539,1.539,0,0,0,0-3.077H29.539a1.539,1.539,0,1,0,0,3.077Z" transform="translate(15.083 7.003)"/>
        <path id="Shape-15" data-name="Shape" d="M8.616,13H5.539a1.539,1.539,0,1,0,0,3.077H8.616a1.539,1.539,0,1,0,0-3.077Z" transform="translate(2.155 7.003)"/>
        <path id="Shape-16" data-name="Shape" d="M29.588,23.411l-2.176-2.176a1.539,1.539,0,1,0-2.176,2.176l2.174,2.177a1.54,1.54,0,1,0,2.177-2.177Z" transform="translate(13.342 11.186)"/>
        <path id="Shape-17" data-name="Shape" d="M10.435,8.611a1.539,1.539,0,1,0,2.176-2.176L10.435,4.258A1.54,1.54,0,1,0,8.258,6.435Z" transform="translate(4.206 2.051)"/>
        <path id="Shape-18" data-name="Shape" d="M10.435,25.588l2.176-2.176a1.539,1.539,0,1,0-2.176-2.176L8.258,23.411a1.54,1.54,0,0,0,2.177,2.177Z" transform="translate(4.206 11.187)"/>
        <path id="Shape-19" data-name="Shape" d="M27.4,4.258,25.222,6.435A1.539,1.539,0,0,0,27.4,8.611l2.177-2.176A1.54,1.54,0,1,0,27.4,4.258Z" transform="translate(13.354 2.051)"/>
        <path id="Shape-20" data-name="Shape" d="M5,27.539a1.539,1.539,0,0,0,1.539,1.539h6.155a1.539,1.539,0,1,0,0-3.077H6.539A1.539,1.539,0,0,0,5,27.539Z" transform="translate(2.693 14.006)"/>
        <path id="Shape-21" data-name="Shape" d="M28.077,26H26.539a1.539,1.539,0,0,0,0,3.077h1.539a1.539,1.539,0,0,0,0-3.077Z" transform="translate(13.467 14.006)"/>
        <path id="Shape-22" data-name="Shape" d="M6.539,34.077h6.155a1.539,1.539,0,0,0,0-3.077H6.539a1.539,1.539,0,0,0,0,3.077Z" transform="translate(2.693 16.699)"/>
        <path id="Shape-23" data-name="Shape" d="M6.539,44.077H23.634a1.539,1.539,0,1,0,0-3.077H6.539a1.539,1.539,0,1,0,0,3.077Z" transform="translate(2.693 22.086)"/>
        <path id="Shape-24" data-name="Shape" d="M21.156,47.539A1.539,1.539,0,0,0,19.618,46H6.539a1.539,1.539,0,0,0,0,3.077H19.618A1.539,1.539,0,0,0,21.156,47.539Z" transform="translate(2.693 24.78)"/>
        <path id="Shape-25" data-name="Shape" d="M6.539,51a1.539,1.539,0,1,0,0,3.077h9.786a1.539,1.539,0,1,0,0-3.077Z" transform="translate(2.693 27.473)"/>
        <path id="Shape-26" data-name="Shape" d="M6.539,39.077H31.327a1.539,1.539,0,1,0,0-3.077H6.539a1.539,1.539,0,1,0,0,3.077Z" transform="translate(2.693 19.393)"/>
        <path id="Shape-27" data-name="Shape" d="M58.4,22.423c-3.676,0-5.287,2.1-7.617,4.43l-1.088-1.088a4.616,4.616,0,0,0-6.527,0l-9.792,9.791a1.539,1.539,0,0,0,2.176,2.177l9.792-9.792a1.539,1.539,0,0,1,2.176,0L48.6,29.029C19.631,58,21.266,56.263,21.061,56.737c-.615,1.239,2.2-5.139-6.516,15.205a1.539,1.539,0,0,0,1.419,2.145c.451,0-.731.443,15.838-6.653.625-.268.352-.189,32.034-31.879A7.706,7.706,0,0,0,58.4,22.423Zm-39.5,47.2,4.113-9.614L28.5,65.5ZM31.2,63.851l-6.535-6.535,22.848-22.85L54.044,41ZM61.669,33.385,56.22,38.821l-6.529-6.529,5.441-5.442a4.727,4.727,0,0,1,6.527,0,4.616,4.616,0,0,1,0,6.53Z" transform="translate(7.768 12.079)"/>
      </g>
    </g>
  </g>
</svg>
