<svg xmlns="http://www.w3.org/2000/svg" width="42.965" height="42.978" viewBox="0 0 42.965 42.978">
  <g id="rompecabezas_2_" data-name="rompecabezas (2)" transform="translate(-0.077)">
    <path id="Trazado_1076705" data-name="Trazado 1076705" d="M118.482,68.8a.629.629,0,1,0-1.072.661,12.362,12.362,0,0,1,1.818,5.855h-3.143a2.8,2.8,0,0,0-5.455,0h-3.161v-3.7a.629.629,0,0,0-.629-.629,1.543,1.543,0,1,1,0-3.086.629.629,0,0,0,.629-.629v-3.7a12.292,12.292,0,0,1,8.33,3.808.629.629,0,0,0,.909-.871,13.55,13.55,0,0,0-9.86-4.212h-.017a13.667,13.667,0,0,0-9,3.378.629.629,0,0,0,.83.947,12.4,12.4,0,0,1,7.552-3.05v3.141a2.8,2.8,0,0,0,0,5.461v3.143H102.5a.629.629,0,0,0-.629.629v.015a1.543,1.543,0,0,1-3.087,0v-.015a.629.629,0,0,0-.629-.629h-3.7a12.3,12.3,0,0,1,2.434-6.776.63.63,0,0,0-1.009-.753,13.572,13.572,0,0,0-2.7,8.158A13.748,13.748,0,0,0,101,88.316a1.535,1.535,0,0,1,.868,1.384v1.255a1.912,1.912,0,0,0-2.173,1.933c0,1.24.853,1.934,2.173,1.933v2.865a2.439,2.439,0,0,0,2.358,2.358h5.232a2.438,2.438,0,0,0,2.359-2.359V94.821c1.474,0,2.174-.782,2.173-1.933,0-1.2-.755-1.933-2.173-1.933V89.7a1.539,1.539,0,0,1,.873-1.387,13.893,13.893,0,0,0,7.817-12.368A13.632,13.632,0,0,0,118.482,68.8ZM101.538,87.178a12.475,12.475,0,0,1-7.085-10.6h3.137a2.8,2.8,0,0,0,5.469,0h3.154v3.73a.629.629,0,0,0,.629.629,1.543,1.543,0,0,1,0,3.086.629.629,0,0,0-.629.629v6.3h-3.086V89.7A2.8,2.8,0,0,0,101.538,87.178Zm7.92,11.607h-5.232a1.154,1.154,0,0,1-1.1-1.343h7.431C110.558,98.113,110.345,98.785,109.457,98.785Zm2.6-5.223h-3.891a.629.629,0,0,0-.629.629s0,0,0,0,0,0,0,0a.629.629,0,0,0,.629.629h2.393v1.354h-7.431V94.829h2.3a.629.629,0,0,0,.629-.629s0,0,0,0,0,0,0,0a.629.629,0,0,0-.629-.629h-3.794a.679.679,0,1,1,0-1.348h10.428A.674.674,0,1,1,112.055,93.562Zm.095-6.386a2.8,2.8,0,0,0-1.593,2.525v1.255h-3.086V85.208a2.8,2.8,0,0,0,0-5.461V76.575h3.715a.63.63,0,0,0,.629-.625,1.543,1.543,0,0,1,3.087,0,.63.63,0,0,0,.629.625h3.7A12.474,12.474,0,0,1,112.15,87.175Z" transform="translate(-85.282 -57.066)"/>
    <g id="Grupo_1206654" data-name="Grupo 1206654" transform="translate(0.077)">
      <g id="Grupo_1206642" data-name="Grupo 1206642" transform="translate(20.853)">
        <path id="Trazado_1076706" data-name="Trazado 1076706" d="M249.153,3.866a.629.629,0,0,1-.629-.629V.629a.629.629,0,1,1,1.259,0V3.237A.629.629,0,0,1,249.153,3.866Z" transform="translate(-248.524)"/>
      </g>
      <g id="Grupo_1206643" data-name="Grupo 1206643" transform="translate(29.975 2.794)">
        <path id="Trazado_1076707" data-name="Trazado 1076707" d="M357.528,36.717a.628.628,0,0,1-.23-.86l1.3-2.258a.629.629,0,1,1,1.09.629l-1.3,2.258A.678.678,0,0,1,357.528,36.717Z" transform="translate(-357.213 -33.284)"/>
      </g>
      <g id="Grupo_1206646" data-name="Grupo 1206646" transform="translate(2.799 10.426)">
        <g id="Grupo_1206644" data-name="Grupo 1206644" transform="translate(33.855)">
          <path id="Trazado_1076708" data-name="Trazado 1076708" d="M436.868,126.47a.629.629,0,0,1,.23-.86l2.258-1.3a.629.629,0,1,1,.629,1.09l-2.258,1.3A.656.656,0,0,1,436.868,126.47Z" transform="translate(-436.784 -124.222)"/>
        </g>
        <g id="Grupo_1206645" data-name="Grupo 1206645" transform="translate(0 19.549)">
          <path id="Trazado_1076709" data-name="Trazado 1076709" d="M33.508,359.386a.639.639,0,0,1,.23-.86l2.258-1.3a.629.629,0,1,1,.629,1.09l-2.258,1.3A.591.591,0,0,1,33.508,359.386Z" transform="translate(-33.429 -357.138)"/>
        </g>
      </g>
      <g id="Grupo_1206647" data-name="Grupo 1206647" transform="translate(10.426 2.794)">
        <path id="Trazado_1076710" data-name="Trazado 1076710" d="M125.687,36.487l-1.3-2.258a.629.629,0,0,1,1.09-.629l1.3,2.258a.639.639,0,0,1-.23.86A.656.656,0,0,1,125.687,36.487Z" transform="translate(-124.299 -33.284)"/>
      </g>
      <g id="Grupo_1206650" data-name="Grupo 1206650" transform="translate(2.794 10.426)">
        <g id="Grupo_1206648" data-name="Grupo 1206648">
          <path id="Trazado_1076711" data-name="Trazado 1076711" d="M35.935,126.7l-2.258-1.3a.629.629,0,0,1,.629-1.09l2.258,1.3a.6.6,0,0,1,.23.86A.641.641,0,0,1,35.935,126.7Z" transform="translate(-33.362 -124.222)"/>
        </g>
        <g id="Grupo_1206649" data-name="Grupo 1206649" transform="translate(33.86 19.549)">
          <path id="Trazado_1076712" data-name="Trazado 1076712" d="M439.357,359.617l-2.258-1.3a.629.629,0,0,1,.629-1.09l2.258,1.3a.62.62,0,0,1,.23.86A.58.58,0,0,1,439.357,359.617Z" transform="translate(-436.784 -357.139)"/>
        </g>
      </g>
      <g id="Grupo_1206653" data-name="Grupo 1206653" transform="translate(0 20.853)">
        <g id="Grupo_1206651" data-name="Grupo 1206651">
          <path id="Trazado_1076713" data-name="Trazado 1076713" d="M3.314,249.706H.706a.629.629,0,1,1,0-1.259H3.314a.629.629,0,1,1,0,1.259Z" transform="translate(-0.077 -248.447)"/>
        </g>
        <g id="Grupo_1206652" data-name="Grupo 1206652" transform="translate(39.098)">
          <path id="Trazado_1076714" data-name="Trazado 1076714" d="M469.145,249.706h-2.607a.629.629,0,1,1,0-1.259h2.607a.629.629,0,1,1,0,1.259Z" transform="translate(-465.908 -248.447)"/>
        </g>
      </g>
    </g>
  </g>
</svg>
