<svg xmlns="http://www.w3.org/2000/svg" xmlns:xlink="http://www.w3.org/1999/xlink" width="400" height="274" viewBox="0 0 400 274">
  <defs>
    <clipPath id="clip-path">
      <rect id="Rectángulo_417861" data-name="Rectángulo 417861" width="400" height="274" transform="translate(180 2713)" fill="#fff" stroke="#707070" stroke-width="1" opacity="0.85"/>
    </clipPath>
    <clipPath id="clip-path-2">
      <path id="Trazado_1079626" data-name="Trazado 1079626" d="M311.762,246.96c-2.774,0-234.009-.11-247.879-.11s-28.667.925-28.667,28.667S32.084,476,34.866,502.156c2.311,21.731,10.522,32.292,44.739,33.217s210.9-.541,228.46.11c11.1.411,31.9.411,33.292-32.367,1.412-33.377,1.033-192.811.886-222.866C342.388,244.647,311.762,246.96,311.762,246.96Z" transform="translate(-33.714 -246.85)"/>
    </clipPath>
  </defs>
  <g id="Enmascarar_grupo_1098880" data-name="Enmascarar grupo 1098880" transform="translate(-180 -2713)" clip-path="url(#clip-path)">
    <g id="Grupo_1209051" data-name="Grupo 1209051" transform="translate(173.286 2452.532)">
      <path id="Trazado_1079573" data-name="Trazado 1079573" d="M183.006,246.857H51.321c-8.1,0-16.73.8-16.73,24.827s-1.828,173.627-.2,196.279c1.349,18.82,6.141,27.966,26.11,28.767s110.1-.562,120.352,0c6.476.356,18.619.356,19.429-28.031.824-28.906.6-166.983.517-193.011C200.879,244.854,183.006,246.857,183.006,246.857Z" transform="translate(119.275 38.691)" fill="#e9c1d9" opacity="0.72"/>
      <g id="Grupo_1209048" data-name="Grupo 1209048" transform="translate(33.714 246.859)">
        <g id="Grupo_1209047" data-name="Grupo 1209047" clip-path="url(#clip-path-2)">
          <g id="Grupo_1209042" data-name="Grupo 1209042" transform="translate(17.09 18.054)">
            <g id="Grupo_1209016" data-name="Grupo 1209016" transform="translate(202.047 48.604)">
              <path id="Trazado_1079574" data-name="Trazado 1079574" d="M213.356,483.007l-.47-.853c7.755-4.269,10.439-14.038,9.662-21.826-.875-8.744-5.216-16.756-9.044-23.825-4.13-7.625-8.374-15.464-9.435-24.094-.942-7.646.71-15.318,2.308-22.739.763-3.537,1.55-7.194,2.044-10.8a71.167,71.167,0,0,0-14.2-53.022c-2.276-2.934-4.877-5.837-7.392-8.648-7.622-8.517-15.505-17.323-16.123-28.63l.969-.053c.6,10.967,8.368,19.645,15.878,28.037,2.526,2.822,5.138,5.74,7.435,8.7a72.142,72.142,0,0,1,14.4,53.75c-.5,3.639-1.292,7.315-2.059,10.87-1.58,7.341-3.215,14.931-2.292,22.416,1.038,8.446,5.239,16.2,9.3,23.705,3.9,7.194,8.286,15.3,9.18,24.235C224.325,468.337,221.5,478.522,213.356,483.007Z" transform="translate(-170.705 -288.521)" fill="#e19e2c"/>
            </g>
            <path id="Trazado_1079575" data-name="Trazado 1079575" d="M289.647,436.386c-7.555-12.508-12.871-27.567-13.008-36.608-.254-16.747,16.39-37.294-5.939-68.454-16.107-22.475-14.728-30.611-14.728-30.611L99.035,289.8S94.1,314.5,84.268,327.263s-25.81,22.192-17.654,49.864c6.695,22.705-8.763,44.556-17.18,56.957-8.293,12.216-4.778,25.122,5.015,55.066,0,0,6.933,4.338,12.544,7.378l2.262-12.764c2.137.918,3.926,15.625,6.48,16.4a67.195,67.195,0,0,0,8.153,1.947c-3.862-10.083-4.762-20.463-.777-28.824C97.875,439.134,108.053,405.046,96.8,368.2c-8.059-27.642,13-49.555,35.846-54.529,31.988-6.655,58.238,11.457,85.923,23.376,9.212,2.945,21.482,5.844,26.2,15.027,9.424,16.823-7.077,37.125.841,55.514,4.77,12.268,17.155,22.877,21.949,36.685,5.5,13.8,5.877,28.419,2.651,42.808l.485.957a28.923,28.923,0,0,0,26.117-8.353C299.46,476.954,302.888,458.306,289.647,436.386Z" transform="translate(-44.162 -239.149)" fill="#e19e2c"/>
            <path id="Trazado_1079576" data-name="Trazado 1079576" d="M254.165,435.859c-4.793-13.81-17.179-24.419-21.949-36.685-7.918-18.39,8.582-38.691-.841-55.514-4.724-9.184-16.991-12.082-26.2-15.027-27.685-11.919-53.935-30.03-85.923-23.376-22.845,4.973-43.9,26.887-35.846,54.529,11.255,36.848,1.075,70.935-13.687,105.092-3.985,8.361-3.084,18.741.777,28.824a66.558,66.558,0,0,0,15.6.857l3.938-27.683,7.384,27.587s15.852,8.737,72.182-3.786,66.169-3.369,70.512-12.957-6.3-44.382-6.3-44.382l23.011,45.331C260.042,464.279,259.664,449.661,254.165,435.859Z" transform="translate(-30.768 -230.736)" fill="#d38a20"/>
            <path id="Trazado_1079577" data-name="Trazado 1079577" d="M160.283,361.369l-.7-13.544-39.764,2.044-.662,12.376C132.862,364.681,146.573,363.911,160.283,361.369Z" transform="translate(0.429 -204.355)" fill="#d8a178"/>
            <path id="Trazado_1079578" data-name="Trazado 1079578" d="M198.261,369.844l-29.331-3.814-.944-9.739c-13.711,2.542-27.421,3.311-41.13.875L126.4,365.6s-13.263,5.583-18,6.751c.141,21.534-3.742,80.6-1.285,102.3l93.851-.248s2.774-25.633,3.876-34.8C208.391,410.123,198.261,369.844,198.261,369.844Z" transform="translate(-7.274 -199.278)" fill="#ebbc8e"/>
            <path id="Trazado_1079579" data-name="Trazado 1079579" d="M119.208,341.956,109.9,318.748s-22.749-5.7-21.557,16.91S113.282,356.959,119.208,341.956Z" transform="translate(-18.075 -222.175)" fill="#ebbc8e"/>
            <path id="Trazado_1079580" data-name="Trazado 1079580" d="M159.4,340.66l2.8-24.849s20.413-11.545,25.278,10.569S169.1,353.547,159.4,340.66Z" transform="translate(24.56 -225.358)" fill="#d8a178"/>
            <g id="Grupo_1209017" data-name="Grupo 1209017" transform="translate(188.233 94.322)">
              <path id="Trazado_1079581" data-name="Trazado 1079581" d="M165.631,338.1a.452.452,0,0,0,.3-.7c-.067-.1-6.631-10.023.014-16.262a10.036,10.036,0,0,1,7.4-3.118c4.452.214,7.725,3.884,7.758,3.919a.453.453,0,0,0,.681-.6c-.142-.163-3.548-3.991-8.387-4.228a10.907,10.907,0,0,0-8.075,3.362c-7.21,6.77-.218,17.324-.147,17.43A.452.452,0,0,0,165.631,338.1Z" transform="translate(-162.07 -317.101)" fill="#683935"/>
            </g>
            <g id="Grupo_1209018" data-name="Grupo 1209018" transform="translate(188.258 102.497)">
              <path id="Trazado_1079582" data-name="Trazado 1079582" d="M175.168,324.447a.453.453,0,0,0,.133-.851c-.083-.043-8.5-4.262-13.131,2.243a.453.453,0,0,0,.737.526c4.18-5.869,11.9-2,11.978-1.961A.452.452,0,0,0,175.168,324.447Z" transform="translate(-162.085 -322.211)" fill="#683935"/>
            </g>
            <path id="Trazado_1079583" data-name="Trazado 1079583" d="M203.578,290.937s10.858,21.474,14.24,54.121c2.639,25.473-15.115,52.513-46,57.755-29.034,4.927-60.622-3.694-73.982-43.749s-3.836-74.04,32.423-87S193.352,266.29,203.578,290.937Z" transform="translate(-15.808 -253.593)" fill="#ebbc8e"/>
            <path id="Trazado_1079584" data-name="Trazado 1079584" d="M137.433,334.841c-.838,4.309-8.061,6.528-16.129,4.957s-13.93-6.338-13.091-10.646,8.061-6.528,16.129-4.957S138.272,330.533,137.433,334.841Z" transform="translate(-6.18 -218.827)" fill="#d8a178"/>
            <path id="Trazado_1079585" data-name="Trazado 1079585" d="M176.993,327.856c.944,4.252-4.745,9.132-12.706,10.9s-15.182-.243-16.128-4.495,4.745-9.132,12.706-10.9S176.048,323.6,176.993,327.856Z" transform="translate(17.761 -219.41)" fill="#d8a178"/>
            <path id="Trazado_1079586" data-name="Trazado 1079586" d="M113.142,311.478s-4.521-3.991,4.994-9.033,12.868-3.95,14.421-1.451c1.417,2.279-.753,5.712-6.154,8.435C119.92,312.7,115.6,313.771,113.142,311.478Z" transform="translate(-3.819 -233.699)" fill="#d99e2e"/>
            <path id="Trazado_1079587" data-name="Trazado 1079587" d="M170.437,309.488s3.38-4.588-7.15-8-13.511-1.827-14.386.845c-.8,2.438,2.185,5.434,8.128,7.237C164.16,311.734,168.634,312.1,170.437,309.488Z" transform="translate(18.191 -233.307)" fill="#d99e2e"/>
            <path id="Trazado_1079588" data-name="Trazado 1079588" d="M159.565,318.317c.01,3.059-2.016,5.544-4.525,5.554s-4.553-2.463-4.562-5.524,2.016-5.544,4.525-5.554S159.553,315.256,159.565,318.317Z" transform="translate(19.212 -225.362)"/>
            <path id="Trazado_1079589" data-name="Trazado 1079589" d="M128.241,318.317c.011,3.059-2.016,5.544-4.525,5.554s-4.553-2.463-4.562-5.524,2.016-5.544,4.525-5.554S128.229,315.256,128.241,318.317Z" transform="translate(0.429 -225.362)"/>
            <g id="Grupo_1209019" data-name="Grupo 1209019" transform="translate(73.504 103.249)">
              <path id="Trazado_1079590" data-name="Trazado 1079590" d="M110.425,341.314a.452.452,0,0,1-.475-.6c.038-.114,3.726-11.426-4.34-15.673a10.04,10.04,0,0,0-7.966-1.037c-4.234,1.39-6.413,5.8-6.435,5.842a.453.453,0,0,1-.816-.394c.094-.2,2.359-4.791,6.962-6.306a10.91,10.91,0,0,1,8.678,1.093c8.75,4.609,4.817,16.643,4.777,16.764A.455.455,0,0,1,110.425,341.314Z" transform="translate(-90.348 -322.681)" fill="#683935"/>
            </g>
            <g id="Grupo_1209020" data-name="Grupo 1209020" transform="translate(81.063 110.149)">
              <path id="Trazado_1079591" data-name="Trazado 1079591" d="M95.573,331.061a.45.45,0,0,1-.381-.144.455.455,0,0,1,.027-.641c.069-.064,7.061-6.368,13.255-1.331a.453.453,0,0,1-.571.7c-5.589-4.546-12.005,1.237-12.069,1.294A.443.443,0,0,1,95.573,331.061Z" transform="translate(-95.073 -326.995)" fill="#683935"/>
            </g>
            <g id="Grupo_1209021" data-name="Grupo 1209021" transform="translate(145.473 59.422)">
              <path id="Trazado_1079592" data-name="Trazado 1079592" d="M145.521,341.474a.45.45,0,0,1-.189-.859,12.151,12.151,0,0,0,5.212-4.919c1.243-2.532.841-6.328-.843-7.965-1.013-.982-2.379-1.061-3.961-.227-.05.026-.13.074-.235.134-5.524,3.233-8.024,1.8-9.15.022-2.067-3.257-.374-29.03-.176-31.959a.456.456,0,0,1,.48-.417.449.449,0,0,1,.418.48c-.537,7.875-1.577,28.869.037,31.414,1.329,2.094,4,1.992,7.937-.317.122-.07.213-.125.27-.155,1.929-1.014,3.708-.883,5.005.377,1.963,1.908,2.441,6.115,1.024,9a12.851,12.851,0,0,1-5.645,5.341A.422.422,0,0,1,145.521,341.474Z" transform="translate(-135.339 -295.284)" fill="#683935"/>
            </g>
            <g id="Grupo_1209022" data-name="Grupo 1209022" transform="translate(141.785 110.368)">
              <path id="Trazado_1079593" data-name="Trazado 1079593" d="M139.363,336.889c2.937.96,5.236-.613,6.845-2.518a38.866,38.866,0,0,0-12.834-5.143C134.079,332.008,135.687,335.687,139.363,336.889Z" transform="translate(-132.829 -325.875)" fill="#cc555f"/>
              <path id="Trazado_1079594" data-name="Trazado 1079594" d="M133.033,327.132a18.546,18.546,0,0,0,.545,3.353,38.867,38.867,0,0,1,12.834,5.143,17.655,17.655,0,0,0,2.705-4.585C143.634,327.1,133.033,327.132,133.033,327.132Z" transform="translate(-133.033 -327.132)"/>
            </g>
            <path id="Trazado_1079595" data-name="Trazado 1079595" d="M103.243,356.058s57.434-17,68.268-64.186c0,0,49.99,64.717,68.082,45.822,0,0,6.533-57.066-32.114-72.792-21.2-8.627-37.577-4.106-37.577-4.106-28.47-3.926-45.772-7.3-75.646,19.261C63.5,307.4,71.849,370.506,103.243,356.058Z" transform="translate(-26.05 -258.137)" fill="#e19e2c"/>
            <g id="Grupo_1209023" data-name="Grupo 1209023" transform="translate(0 46.242)">
              <path id="Trazado_1079596" data-name="Trazado 1079596" d="M54.909,488.564A59.828,59.828,0,0,1,48.2,433.728a121.286,121.286,0,0,1,6.671-13.81c3.932-7.33,8-14.91,9.086-23.193.9-6.864-.264-14.035-1.395-20.97-1.529-9.39-3.11-19.1.552-27.957,3.011-7.28,9.038-12.608,14.869-17.762a95.2,95.2,0,0,0,9.489-9.2,45.849,45.849,0,0,0,10.537-33.69l.966-.1a46.844,46.844,0,0,1-10.762,34.418,95.847,95.847,0,0,1-9.585,9.3c-6.01,5.314-11.689,10.334-14.613,17.406-3.556,8.6-2.068,17.748-.491,27.429,1.141,7,2.319,14.246,1.4,21.253-1.113,8.459-5.221,16.118-9.193,23.526a120.7,120.7,0,0,0-6.621,13.695,58.846,58.846,0,0,0,6.6,53.935Z" transform="translate(-44.398 -287.044)" fill="#e19e2c"/>
            </g>
            <g id="Grupo_1209024" data-name="Grupo 1209024" transform="translate(47.342 19.054)">
              <path id="Trazado_1079597" data-name="Trazado 1079597" d="M76.74,355.966c-.917,0-1.83-.013-2.747-.04l.027-.971A98.134,98.134,0,0,0,174.1,270.048l.965.13A99.106,99.106,0,0,1,76.74,355.966Z" transform="translate(-73.993 -270.048)" fill="#e19e2c"/>
            </g>
            <g id="Grupo_1209025" data-name="Grupo 1209025" transform="translate(130.877 6.195)">
              <path id="Trazado_1079598" data-name="Trazado 1079598" d="M204.8,333.779c-36.242-8.1-67.089-36.157-78.587-71.469l.923-.3C138.531,297,169.1,324.8,205.012,332.83Z" transform="translate(-126.214 -262.009)" fill="#e19e2c"/>
            </g>
            <g id="Grupo_1209037" data-name="Grupo 1209037" transform="translate(72.068 275.051)">
              <g id="Grupo_1209026" data-name="Grupo 1209026" transform="translate(79.766 66.829)">
                <path id="Trazado_1079599" data-name="Trazado 1079599" d="M165.24,702.237,139.315,486.376l49.978-14.517S206.306,633.385,196.446,695c0,0,48.053,17.978,47.756,27.053s-55.712,1.59-55.712,1.59S154.472,731.726,165.24,702.237Z" transform="translate(-139.315 -471.859)" fill="#ebbc8e"/>
              </g>
              <g id="Grupo_1209027" data-name="Grupo 1209027" transform="translate(0.841 65.161)">
                <path id="Trazado_1079600" data-name="Trazado 1079600" d="M96.581,708.381s-5.512-106.8-6.6-229.165c-.163-18.233,67.143-1.1,67.143-1.1s-19.474,161.414-29.334,223.029c0,0,46.468,17.567,46.172,26.642s-54.127,2-54.127,2S85.811,737.87,96.581,708.381Z" transform="translate(-89.976 -470.816)" fill="#ebbc8e"/>
              </g>
              <g id="Grupo_1209036" data-name="Grupo 1209036">
                <path id="Trazado_1079601" data-name="Trazado 1079601" d="M212.122,430.376S231.553,500.64,229.113,538.7c-.944,14.712.857,172.445.857,172.445s-12.791,3.7-40.628-1.328l-23.182-195.7h0L133.3,714.829s-27.471,4.634-38.745-3.146c0,0-7.59-106.3-4.265-208.069,1.072-32.785,18.327-62.7,27.981-73.486Z" transform="translate(-89.45 -430.054)" fill="#42354c"/>
                <g id="Grupo_1209028" data-name="Grupo 1209028" transform="translate(45.295 80.615)">
                  <path id="Trazado_1079602" data-name="Trazado 1079602" d="M118.254,488.283a.489.489,0,0,1-.01-.977c22.768-.475,55.2-6.758,55.527-6.821a.489.489,0,1,1,.186.96c-.326.064-32.842,6.362-55.693,6.838Z" transform="translate(-117.766 -480.477)" fill="#2f2537"/>
                </g>
                <g id="Grupo_1209029" data-name="Grupo 1209029" transform="translate(5.304)">
                  <path id="Trazado_1079603" data-name="Trazado 1079603" d="M94.924,715.369c-.021,0,.374-5.644.352-5.645-.691-.011-1.452,5.626-1.833-29.28-.36-32.877-.56-87.964-.6-163.735-.03-.435-2.75-47.141,26.727-86.434a.489.489,0,1,1,.782.585C91.1,469.856,93.791,516.214,93.822,516.676c.067,135.517.64,180.083,1.128,193.159a.434.434,0,0,1,.328-.112.489.489,0,0,1,.472.5C95.577,715.171,95.405,715.369,94.924,715.369Z" transform="translate(-92.766 -430.082)" fill="#2f2537"/>
                </g>
                <g id="Grupo_1209030" data-name="Grupo 1209030" transform="translate(79.169 84.228)">
                  <path id="Trazado_1079604" data-name="Trazado 1079604" d="M163.674,676.627a.489.489,0,0,1-.488-.472L138.942,483.242a.489.489,0,0,1,.472-.505.484.484,0,0,1,.505.472l24.246,192.914a.487.487,0,0,1-.472.5Z" transform="translate(-138.942 -482.736)" fill="#2f2537"/>
                </g>
                <g id="Grupo_1209031" data-name="Grupo 1209031" transform="translate(78.558 1.592)">
                  <path id="Trazado_1079605" data-name="Trazado 1079605" d="M139.048,497.84h-.016a.489.489,0,0,1-.472-.505l2.15-65.785a.468.468,0,0,1,.505-.472.488.488,0,0,1,.472.5l-2.15,65.785A.492.492,0,0,1,139.048,497.84Z" transform="translate(-138.56 -431.077)" fill="#2f2537"/>
                </g>
                <g id="Grupo_1209032" data-name="Grupo 1209032" transform="translate(12.428 0.186)">
                  <path id="Trazado_1079606" data-name="Trazado 1079606" d="M97.708,475.837a.488.488,0,0,1-.238-.915c9.11-5.092,23.955-21.611,25.006-44.257a.515.515,0,0,1,.51-.467.49.49,0,0,1,.466.51c-1.069,23.044-16.211,39.873-25.5,45.067A.479.479,0,0,1,97.708,475.837Z" transform="translate(-97.219 -430.198)" fill="#2f2537"/>
                </g>
                <g id="Grupo_1209033" data-name="Grupo 1209033" transform="translate(114.606 1.174)">
                  <path id="Trazado_1079607" data-name="Trazado 1079607" d="M179.579,471.2a.366.366,0,0,1-.083-.008c-2.932-.5-6.314-3.3-9.523-7.891-5.453-7.792-10.418-21.157-8.432-32.086a.5.5,0,0,1,.568-.4.489.489,0,0,1,.394.568c-1.936,10.654,2.931,23.72,8.272,31.353,3.014,4.306,4.765,7.283,7.4,7.734.267.046,1.932.05,1.886.317A.491.491,0,0,1,179.579,471.2Z" transform="translate(-161.095 -430.816)" fill="#2f2537"/>
                </g>
                <g id="Grupo_1209034" data-name="Grupo 1209034" transform="translate(70.816 1.277)">
                  <path id="Trazado_1079608" data-name="Trazado 1079608" d="M142.192,490.558h-.016c-.272-.01-6.69-.366-7.843-13.349-1.118-12.58-.366-45.521-.358-45.852a.489.489,0,0,1,.488-.477h.011a.488.488,0,0,1,.477.5c-.008.329-.76,33.217.355,45.742,1.07,12.047,6.846,12.455,6.9,12.458a.49.49,0,0,1,.467.507A.484.484,0,0,1,142.192,490.558Z" transform="translate(-133.72 -430.88)" fill="#2f2537"/>
                </g>
                <g id="Grupo_1209035" data-name="Grupo 1209035" transform="translate(23.029 6.436)">
                  <path id="Trazado_1079609" data-name="Trazado 1079609" d="M156.536,438.293a423.224,423.224,0,0,1-52.262-3.215.489.489,0,0,1-.424-.546.5.5,0,0,1,.545-.425c56.176,7.034,99.514.337,99.947.267a.489.489,0,0,1,.154.966C204.211,435.385,185.372,438.293,156.536,438.293Z" transform="translate(-103.847 -434.105)" fill="#2f2537"/>
                </g>
                <path id="Trazado_1079610" data-name="Trazado 1079610" d="M135.231,434.231a3.048,3.048,0,1,0,3.147-2.947A3.05,3.05,0,0,0,135.231,434.231Z" transform="translate(-61.999 -429.361)" fill="#2f2537"/>
              </g>
            </g>
            <path id="Trazado_1079611" data-name="Trazado 1079611" d="M150.081,369.28c13.834,2.513,27.423,7.6,35.082,17.476,11.4,18.265,26.383,39.1,26.383,39.1L227.2,377.975s8.481-17.42,12.684-17.7.061,7.9.061,7.9,14.224-14.522,16.292-11.754-9.142,13.731-9.142,13.731,15.381-11.847,17.046-7.406c.878,2.655-13.213,11.325-13.213,11.325s14.726-7.7,15.827-4.938-13.347,9.54-13.347,9.54,12.325-4.708,13.261-1.79c.793,2.47-12.826,10.129-21.056,13.629-1.505,15.761-7.565,60.137-28.606,70.229-22.28,10.686-44.579-34.184-50.123-46.323" transform="translate(18.975 -199.41)" fill="#ebbc8e"/>
            <g id="Grupo_1209038" data-name="Grupo 1209038" transform="translate(227.711 216.419)">
              <path id="Trazado_1079612" data-name="Trazado 1079612" d="M187.111,409.215a.367.367,0,0,1-.134-.027.361.361,0,0,1-.2-.47c.038-.094,3.858-9.715,5.6-15.038a.362.362,0,0,1,.688.224c-1.747,5.344-5.576,14.986-5.615,15.083A.361.361,0,0,1,187.111,409.215Z" transform="translate(-186.749 -393.429)" fill="#683935"/>
            </g>
            <path id="Trazado_1079613" data-name="Trazado 1079613" d="M158.144,366.444s6.539-6.9,10.172-6.9-1.452,8.72.363,11.989,6.9,1.089,7.266,5.813-5.45,7.266-1.089,11.626,9.083,6.176,6.539,10.172-4.359,10.535-4.359,10.535Z" transform="translate(23.81 -197.33)" fill="#7671af"/>
            <path id="Trazado_1079614" data-name="Trazado 1079614" d="M138.853,373.944l12.759,20.136s-18.906,18.954-41.1,78.771c-8.358,22.529-17.379,54.935-17.379,54.935s8.486,15.553,5.893,19.512-7.134-5.285-7.134-5.285,3.423,22.592-.462,22.577-6.149-17.5-6.149-17.5.238,21.822-4.874,20.315c-2.979-1.006-1.235-19.524-1.235-19.524s-3.049,18.428-6.269,17.551S73.364,547,73.364,547s-4.108,14.251-7.36,13.12.587-25.2,3.294-32.524c0,0,7.31-88.441,39.33-147.614,6.442-11.268,15.921-14.28,22.061-12.33h0A15.029,15.029,0,0,1,138.853,373.944Z" transform="translate(-32.189 -192.796)" fill="#ebbc8e"/>
            <path id="Trazado_1079615" data-name="Trazado 1079615" d="M130.864,362.271s19.41,6.875,44.841.7c0,0,15.077.637,19.073,1s18.983,30.518,19.346,54.313c.248,16.184-8.689,52.787-8.689,52.787s-65.149,7.326-93.851.248L98.868,417.376S114.49,416.1,115.216,395.4s-9.945-31.2-9.945-31.2A68.581,68.581,0,0,1,130.864,362.271Z" transform="translate(-11.735 -195.946)" fill="#7671af"/>
            <g id="Grupo_1209039" data-name="Grupo 1209039" transform="translate(134.387 214.358)">
              <path id="Trazado_1079616" data-name="Trazado 1079616" d="M128.84,431.071a.433.433,0,0,1-.214-.808A75.922,75.922,0,0,0,161.5,392.412a.432.432,0,0,1,.8.318,76.8,76.8,0,0,1-33.253,38.283A.435.435,0,0,1,128.84,431.071Z" transform="translate(-128.408 -392.14)" fill="#4d4b82"/>
            </g>
            <g id="Grupo_1209040" data-name="Grupo 1209040" transform="translate(149.528 233.353)">
              <path id="Trazado_1079617" data-name="Trazado 1079617" d="M138.3,439.011a.431.431,0,0,1-.312-.728,83.258,83.258,0,0,0,19.538-33.957.432.432,0,1,1,.829.242,84.128,84.128,0,0,1-19.744,34.311A.426.426,0,0,1,138.3,439.011Z" transform="translate(-137.873 -404.015)" fill="#4d4b82"/>
            </g>
            <path id="Trazado_1079618" data-name="Trazado 1079618" d="M106.355,364.251s-6.766-4.586-8.947-1.316,6.539,9.083,8.357,11.262-6.539,5.087-5.45,9.083,8.357,6.176,7.629,11.262-7.992,7.992-7.992,11.626v11.261s15.985.363,16.711-20.344S106.355,364.251,106.355,364.251Z" transform="translate(-12.819 -196)" fill="#7671af"/>
            <g id="Grupo_1209041" data-name="Grupo 1209041" transform="translate(257.626 173.033)">
              <path id="Trazado_1079619" data-name="Trazado 1079619" d="M207.482,382.1a.325.325,0,0,1-.056,0,.361.361,0,0,1-.3-.413,28.748,28.748,0,0,0-1.651-14.88.363.363,0,0,1,.2-.469.359.359,0,0,1,.469.2,29.479,29.479,0,0,1,1.692,15.254A.365.365,0,0,1,207.482,382.1Z" transform="translate(-205.45 -366.306)" fill="#683935"/>
            </g>
          </g>
          <g id="Grupo_1209044" data-name="Grupo 1209044" transform="translate(185.717 443.496)">
            <g id="Grupo_1209043" data-name="Grupo 1209043" transform="translate(0 14.464)">
              <path id="Trazado_1079620" data-name="Trazado 1079620" d="M149.813,533.139a44.078,44.078,0,0,0,.6,4.671s8.654,2.961,32.209,2.961c26.319,0,29.694-3.353,29.694-3.353a8.272,8.272,0,0,0-.379-3.137C184.009,539.627,161.658,536.1,149.813,533.139Z" transform="translate(-149.813 -533.139)" fill="#3b3843"/>
            </g>
            <path id="Trazado_1079621" data-name="Trazado 1079621" d="M163.092,543.619s4.188-14.192,10.02-19.522l6.09,2.374s-6.848,9.516-7.454,17.428Z" transform="translate(-141.85 -524.097)" fill="#3b3843"/>
            <path id="Trazado_1079622" data-name="Trazado 1079622" d="M172.2,541.893s1.825-9.587,7.656-14.917l5.6,2.334a25.023,25.023,0,0,0-4.6,12.863Z" transform="translate(-136.387 -522.371)" fill="#3b3843"/>
          </g>
          <g id="Grupo_1209046" data-name="Grupo 1209046" transform="translate(111.329 447.584)">
            <g id="Grupo_1209045" data-name="Grupo 1209045" transform="translate(0 14.466)">
              <path id="Trazado_1079623" data-name="Trazado 1079623" d="M103.31,535.7a44.073,44.073,0,0,0,.6,4.671s8.654,2.961,32.209,2.961c26.319,0,29.694-3.353,29.694-3.353a8.273,8.273,0,0,0-.379-3.137C137.506,542.182,115.155,538.658,103.31,535.7Z" transform="translate(-103.31 -535.695)" fill="#3b3843"/>
            </g>
            <path id="Trazado_1079624" data-name="Trazado 1079624" d="M116.589,546.174s4.188-14.192,10.02-19.522l6.09,2.374s-6.848,9.516-7.454,17.428Z" transform="translate(-95.347 -526.652)" fill="#3b3843"/>
            <path id="Trazado_1079625" data-name="Trazado 1079625" d="M125.7,544.448s1.825-9.587,7.658-14.917l5.6,2.334a25.022,25.022,0,0,0-4.6,12.863Z" transform="translate(-89.884 -524.926)" fill="#3b3843"/>
          </g>
        </g>
      </g>
      <g id="Grupo_1209050" data-name="Grupo 1209050" transform="translate(283.89 277.907)">
        <path id="Trazado_1079627" data-name="Trazado 1079627" d="M275.684,266.267H200.2c-4.641,0-9.59.226-9.59,6.982s-1.048,48.826-.117,55.2c.773,5.293,3.519,7.865,14.966,8.089s63.112-.158,68.986,0c3.713.1,10.673.1,11.137-7.883.472-8.129.346-46.958.3-54.277C285.929,265.7,275.684,266.267,275.684,266.267Z" transform="translate(-190.109 -266.259)" fill="#e28279"/>
        <path id="Trazado_1079628" data-name="Trazado 1079628" d="M223,308.55s-.6,12.044-5.42,21.077c0,0,15.357-2.71,20.175-23.185Z" transform="translate(-173.636 -242.164)" fill="#e28279"/>
        <g id="Grupo_1209049" data-name="Grupo 1209049" transform="translate(14.144 16.741)">
          <path id="Trazado_1079629" data-name="Trazado 1079629" d="M265.5,276.727l-65.574,0c-.448,0-.926.014-.926.458s-.1,3.2-.011,3.617c.075.347.341.515,1.446.53s64.379-.008,64.947,0c.358.006,1.032.006,1.077-.517s.034-3.076.029-3.556C266.488,276.69,265.5,276.727,265.5,276.727Z" transform="translate(-198.951 -276.725)" fill="#fff"/>
          <path id="Trazado_1079630" data-name="Trazado 1079630" d="M265.5,287.667l-65.574,0c-.448,0-.926.014-.926.458s-.1,3.2-.011,3.617c.075.347.341.515,1.446.529s64.379-.008,64.947,0c.358.006,1.032.006,1.077-.517s.034-3.076.029-3.556C266.488,287.63,265.5,287.667,265.5,287.667Z" transform="translate(-198.951 -270.165)" fill="#fff"/>
          <path id="Trazado_1079631" data-name="Trazado 1079631" d="M265.5,299.1l-65.574,0c-.448,0-.926.014-.926.458s-.1,3.2-.011,3.617c.075.347.341.515,1.446.529s64.379-.008,64.947,0c.358.006,1.032.006,1.077-.517s.034-3.076.029-3.556C266.488,299.064,265.5,299.1,265.5,299.1Z" transform="translate(-198.951 -263.309)" fill="#fff"/>
        </g>
      </g>
    </g>
  </g>
</svg>
