<svg xmlns="http://www.w3.org/2000/svg" xmlns:xlink="http://www.w3.org/1999/xlink" width="103" height="103" viewBox="0 0 103 103">
  <defs>
    <filter id="Trazado_978624" x="0" y="0" width="103" height="103" filterUnits="userSpaceOnUse">
      <feOffset dy="3" input="SourceAlpha"/>
      <feGaussianBlur stdDeviation="3" result="blur"/>
      <feFlood flood-opacity="0.161"/>
      <feComposite operator="in" in2="blur"/>
      <feComposite in="SourceGraphic"/>
    </filter>
  </defs>
  <g id="Grupo_1209969" data-name="Grupo 1209969" transform="translate(-160 -6182.44)">
    <g id="Grupo_1208223" data-name="Grupo 1208223" transform="translate(0 294.44)">
      <g id="Grupo_1206641" data-name="Grupo 1206641" transform="translate(0 -7254)">
        <g id="Grupo_1185491" data-name="Grupo 1185491" transform="translate(0 9912)">
          <g id="Grupo_1183826" data-name="Grupo 1183826" transform="translate(-11 -401)">
            <g id="Grupo_1164359" data-name="Grupo 1164359" transform="translate(180 3637)">
              <g id="Grupo_1144531" data-name="Grupo 1144531">
                <g transform="matrix(1, 0, 0, 1, -9, -6)" filter="url(#Trazado_978624)">
                  <g id="Trazado_978624-2" data-name="Trazado 978624" transform="translate(9 6)" fill="#f5fcec">
                    <path d="M 42.5 83.5 C 36.96437835693359 83.5 31.59512901306152 82.41617584228516 26.54141235351562 80.27863311767578 C 21.65934181213379 78.21369171142578 17.27447128295898 75.25723266601562 13.50862312316895 71.49137878417969 C 9.742764472961426 67.72553253173828 6.786305904388428 63.34066009521484 4.721364498138428 58.45858764648438 C 2.583823442459106 53.40486907958984 1.5 48.03562164306641 1.5 42.5 C 1.5 36.96437835693359 2.583823442459106 31.59512901306152 4.721364498138428 26.54141235351562 C 6.786305904388428 21.65934181213379 9.742764472961426 17.27447128295898 13.50862312316895 13.50862312316895 C 17.27447128295898 9.742764472961426 21.65934181213379 6.786305904388428 26.54141235351562 4.721364498138428 C 31.59512901306152 2.583823442459106 36.96437835693359 1.5 42.5 1.5 C 48.03562164306641 1.5 53.40486907958984 2.583823442459106 58.45858764648438 4.721364498138428 C 63.34066009521484 6.786305904388428 67.72553253173828 9.742764472961426 71.49137878417969 13.50862312316895 C 75.25723266601562 17.27447128295898 78.21369171142578 21.65934181213379 80.27863311767578 26.54141235351562 C 82.41617584228516 31.59512901306152 83.5 36.96437835693359 83.5 42.5 C 83.5 48.03562164306641 82.41617584228516 53.40486907958984 80.27863311767578 58.45858764648438 C 78.21369171142578 63.34066009521484 75.25723266601562 67.72553253173828 71.49137878417969 71.49137878417969 C 67.72553253173828 75.25723266601562 63.34066009521484 78.21369171142578 58.45858764648438 80.27863311767578 C 53.40486907958984 82.41617584228516 48.03562164306641 83.5 42.5 83.5 Z" stroke="none"/>
                    <path d="M 42.5 3 C 37.16621398925781 3 31.99356079101562 4.043960571289062 27.125732421875 6.102882385253906 C 22.42246627807617 8.092185974121094 18.19785308837891 10.94070434570312 14.56928253173828 14.56928253173828 C 10.94070434570312 18.19785308837891 8.092185974121094 22.42246627807617 6.102882385253906 27.125732421875 C 4.043960571289062 31.99356079101562 3 37.16621398925781 3 42.5 C 3 47.83378601074219 4.043960571289062 53.00643920898438 6.102882385253906 57.87425231933594 C 8.092185974121094 62.57753372192383 10.94070434570312 66.80213165283203 14.56928253173828 70.43071746826172 C 18.19786834716797 74.05929565429688 22.42246627807617 76.90781402587891 27.125732421875 78.89711761474609 C 31.99356079101562 80.95603942871094 37.16621398925781 82 42.5 82 C 47.83378601074219 82 53.00642395019531 80.95603942871094 57.87425231933594 78.89711761474609 C 62.57753372192383 76.90781402587891 66.80213165283203 74.05929565429688 70.43071746826172 70.43071746826172 C 74.05929565429688 66.80213165283203 76.90781402587891 62.57753372192383 78.89711761474609 57.87425231933594 C 80.95603942871094 53.00642395019531 82 47.83378601074219 82 42.5 C 82 37.16621398925781 80.95603942871094 31.99356079101562 78.89711761474609 27.125732421875 C 76.90781402587891 22.42246627807617 74.05929565429688 18.19786834716797 70.43071746826172 14.56928253173828 C 66.80213165283203 10.94070434570312 62.57753372192383 8.092185974121094 57.87425231933594 6.102882385253906 C 53.00643920898438 4.043960571289062 47.83378601074219 3 42.5 3 M 42.5 0 C 65.97209167480469 0 85 19.02789306640625 85 42.5 C 85 65.97209167480469 65.97209167480469 85 42.5 85 C 19.02789306640625 85 0 65.97209167480469 0 42.5 C 0 19.02789306640625 19.02789306640625 0 42.5 0 Z" stroke="none" fill="#5a812d"/>
                  </g>
                </g>
              </g>
            </g>
          </g>
        </g>
      </g>
    </g>
    <g id="rompecabezas_3_" data-name="rompecabezas (3)" transform="translate(182.387 6201.896)">
      <path id="Trazado_1081267" data-name="Trazado 1081267" d="M216,442.422H204.257v4.711a2.337,2.337,0,0,0,2.337,2.337h7.071A2.337,2.337,0,0,0,216,447.132Z" transform="translate(-181.017 -392.232)" fill="#d8ecfe"/>
      <path id="Trazado_1081268" data-name="Trazado 1081268" d="M209.994,449.466h-3.4a2.337,2.337,0,0,1-2.337-2.337v-4.711h3.4v4.711A2.337,2.337,0,0,0,209.994,449.466Z" transform="translate(-181.015 -392.229)" fill="#b3dafe"/>
      <path id="Trazado_1081269" data-name="Trazado 1081269" d="M194.225,414.783h-14.1a1.762,1.762,0,1,1,0-3.524h14.1a1.762,1.762,0,1,1,0,3.524Z" transform="translate(-158.065 -364.605)" fill="#eaf6ff"/>
      <path id="Trazado_1081270" data-name="Trazado 1081270" d="M183.53,414.782h-3.4a1.762,1.762,0,1,1,0-3.524h3.4a1.762,1.762,0,1,0,0,3.524Z" transform="translate(-158.062 -364.604)" fill="#d8ecfe"/>
      <path id="Trazado_1081271" data-name="Trazado 1081271" d="M121.269,233.766a2.936,2.936,0,0,1-2.936,2.937v8.545H112.46v-1.72a2.918,2.918,0,0,0-1.66-2.64,17.621,17.621,0,0,1-10.086-15.93v-.02h5.873v.019a2.936,2.936,0,1,0,5.873,0v-.019h5.873v5.892A2.936,2.936,0,0,1,121.269,233.766Z" transform="translate(-89.22 -199.42)" fill="#aee69c"/>
      <path id="Trazado_1081272" data-name="Trazado 1081272" d="M114.729,243.528v1.72H112.46v-1.72a2.918,2.918,0,0,0-1.66-2.64,17.621,17.621,0,0,1-10.086-15.93v-.02h2.269v.02a17.621,17.621,0,0,0,10.086,15.93A2.918,2.918,0,0,1,114.729,243.528Z" transform="translate(-89.22 -199.42)" fill="#89daa4"/>
      <path id="Trazado_1081273" data-name="Trazado 1081273" d="M273.643,202.136v.019a17.619,17.619,0,0,1-10.079,15.927,2.923,2.923,0,0,0-1.666,2.643v2.552h-5.873V213.9a2.936,2.936,0,0,0,0-5.873v-5.892H261.9a2.937,2.937,0,0,1,5.873,0Z" transform="translate(-226.912 -176.618)" fill="#8ac9fe"/>
      <path id="Trazado_1081274" data-name="Trazado 1081274" d="M250.7,87.4h-5.873a2.937,2.937,0,0,0-5.873,0H233.08V81.544a2.936,2.936,0,0,1,0-5.873V69.8A17.618,17.618,0,0,1,250.7,87.4Z" transform="translate(-203.967 -61.88)" fill="#ffe177"/>
      <path id="Trazado_1081275" data-name="Trazado 1081275" d="M115.4,78.607a2.936,2.936,0,0,0,2.936,2.937V87.4H112.46v.019a2.936,2.936,0,1,1-5.873,0V87.4h-5.873a17.585,17.585,0,0,1,17.619-17.6v5.873A2.935,2.935,0,0,0,115.4,78.607Z" transform="translate(-89.22 -61.88)" fill="#fe646f"/>
      <path id="Trazado_1081276" data-name="Trazado 1081276" d="M118.333,69.8v.144A17.582,17.582,0,0,0,102.983,87.4h-2.269A17.585,17.585,0,0,1,118.333,69.8Z" transform="translate(-89.22 -61.88)" fill="#fd4755"/>
      <g id="Grupo_1209968" data-name="Grupo 1209968" transform="translate(0.077)">
        <path id="Trazado_1081277" data-name="Trazado 1081277" d="M127.381,71.088a.851.851,0,0,0-1.449.893,16.709,16.709,0,0,1,2.458,7.914h-4.247a3.788,3.788,0,0,0-7.373,0H112.5v-5a.851.851,0,0,0-.851-.851,2.085,2.085,0,0,1,0-4.171.851.851,0,0,0,.851-.851v-5a16.613,16.613,0,0,1,11.259,5.147.851.851,0,1,0,1.229-1.177A18.314,18.314,0,0,0,111.659,62.3h-.023a18.472,18.472,0,0,0-12.168,4.566.851.851,0,0,0,1.121,1.28A16.759,16.759,0,0,1,110.8,64.019v4.246a3.788,3.788,0,0,0,0,7.382v4.248h-5.022a.851.851,0,0,0-.851.851v.02a2.086,2.086,0,0,1-4.172,0v-.02a.851.851,0,0,0-.851-.851h-5a16.623,16.623,0,0,1,3.29-9.159.851.851,0,1,0-1.364-1.017,18.344,18.344,0,0,0-3.65,11.027A18.582,18.582,0,0,0,103.75,97.465a2.074,2.074,0,0,1,1.173,1.871v1.7c-1.747,0-2.937.936-2.937,2.613s1.153,2.614,2.937,2.613v3.872a3.3,3.3,0,0,0,3.188,3.188h7.072a3.3,3.3,0,0,0,3.188-3.188v-3.872c1.993,0,2.938-1.057,2.937-2.613,0-1.622-1.02-2.613-2.937-2.613v-1.7a2.08,2.08,0,0,1,1.18-1.874,18.778,18.778,0,0,0,10.566-16.716,18.426,18.426,0,0,0-2.736-9.657Zm-22.9,24.839A16.861,16.861,0,0,1,94.9,81.6h4.24a3.788,3.788,0,0,0,7.391,0H110.8v5.042a.851.851,0,0,0,.851.851,2.085,2.085,0,1,1,0,4.171.851.851,0,0,0-.851.851v8.521h-4.171v-1.7A3.783,3.783,0,0,0,104.479,95.927Zm10.7,15.688h-7.072a1.559,1.559,0,0,1-1.486-1.815h10.044C116.671,110.707,116.383,111.615,115.183,111.615Zm3.511-7.06h-5.259a.851.851,0,0,0-.851.851s0,0,0,.006,0,0,0,.006a.851.851,0,0,0,.851.851h3.234v1.83H106.625v-1.83h3.1a.851.851,0,0,0,.851-.851s0,0,0-.006,0,0,0-.006a.851.851,0,0,0-.851-.851H104.6a.917.917,0,1,1,0-1.822h14.094A.912.912,0,1,1,118.694,104.555Zm.128-8.632a3.79,3.79,0,0,0-2.153,3.412v1.7H112.5V93.265a3.788,3.788,0,0,0,0-7.382V81.6h5.022a.851.851,0,0,0,.851-.845,2.086,2.086,0,0,1,4.172,0,.851.851,0,0,0,.851.845h5a16.86,16.86,0,0,1-9.569,14.327Z" transform="translate(-82.612 -55.228)"/>
        <g id="Grupo_1209967" data-name="Grupo 1209967" transform="translate(0)">
          <g id="Grupo_1209955" data-name="Grupo 1209955" transform="translate(28.185)">
            <path id="Trazado_1081278" data-name="Trazado 1081278" d="M249.375,5.226a.851.851,0,0,1-.851-.851V.851a.851.851,0,0,1,1.7,0V4.375A.851.851,0,0,1,249.375,5.226Z" transform="translate(-248.524)"/>
          </g>
          <g id="Grupo_1209956" data-name="Grupo 1209956" transform="translate(40.515 3.776)">
            <path id="Trazado_1081279" data-name="Trazado 1081279" d="M357.639,37.924a.849.849,0,0,1-.311-1.162l1.762-3.052a.851.851,0,1,1,1.474.851L358.8,37.612a.916.916,0,0,1-1.162.311Z" transform="translate(-357.213 -33.284)"/>
          </g>
          <g id="Grupo_1209959" data-name="Grupo 1209959" transform="translate(3.784 14.092)">
            <g id="Grupo_1209957" data-name="Grupo 1209957" transform="translate(45.758)">
              <path id="Trazado_1081280" data-name="Trazado 1081280" d="M436.9,127.26a.851.851,0,0,1,.311-1.162l3.052-1.762a.851.851,0,0,1,.851,1.474l-3.052,1.762A.886.886,0,0,1,436.9,127.26Z" transform="translate(-436.784 -124.222)"/>
            </g>
            <g id="Grupo_1209958" data-name="Grupo 1209958" transform="translate(0 26.423)">
              <path id="Trazado_1081281" data-name="Trazado 1081281" d="M33.536,360.176a.864.864,0,0,1,.311-1.162l3.052-1.762a.851.851,0,0,1,.851,1.474L34.7,360.487A.8.8,0,0,1,33.536,360.176Z" transform="translate(-33.429 -357.138)"/>
            </g>
          </g>
          <g id="Grupo_1209960" data-name="Grupo 1209960" transform="translate(14.092 3.776)">
            <path id="Trazado_1081282" data-name="Trazado 1081282" d="M126.175,37.612l-1.762-3.052a.851.851,0,1,1,1.474-.851l1.762,3.052a.864.864,0,0,1-.311,1.162A.887.887,0,0,1,126.175,37.612Z" transform="translate(-124.299 -33.284)"/>
          </g>
          <g id="Grupo_1209963" data-name="Grupo 1209963" transform="translate(3.776 14.092)">
            <g id="Grupo_1209961" data-name="Grupo 1209961">
              <path id="Trazado_1081283" data-name="Trazado 1081283" d="M36.839,127.572l-3.052-1.762a.851.851,0,0,1,.851-1.474L37.69,126.1A.81.81,0,0,1,38,127.261.867.867,0,0,1,36.839,127.572Z" transform="translate(-33.362 -124.222)"/>
            </g>
            <g id="Grupo_1209962" data-name="Grupo 1209962" transform="translate(45.765 26.423)">
              <path id="Trazado_1081284" data-name="Trazado 1081284" d="M440.261,360.488l-3.052-1.762a.851.851,0,0,1,.851-1.474l3.052,1.762a.837.837,0,0,1,.311,1.162A.783.783,0,0,1,440.261,360.488Z" transform="translate(-436.784 -357.139)"/>
            </g>
          </g>
          <g id="Grupo_1209966" data-name="Grupo 1209966" transform="translate(0 28.185)">
            <g id="Grupo_1209964" data-name="Grupo 1209964">
              <path id="Trazado_1081285" data-name="Trazado 1081285" d="M4.452,250.149H.928a.851.851,0,1,1,0-1.7H4.452a.851.851,0,1,1,0,1.7Z" transform="translate(-0.077 -248.447)"/>
            </g>
            <g id="Grupo_1209965" data-name="Grupo 1209965" transform="translate(52.845)">
              <path id="Trazado_1081286" data-name="Trazado 1081286" d="M470.283,250.149h-3.524a.851.851,0,1,1,0-1.7h3.524a.851.851,0,1,1,0,1.7Z" transform="translate(-465.908 -248.447)"/>
            </g>
          </g>
        </g>
      </g>
    </g>
  </g>
</svg>
