<svg xmlns="http://www.w3.org/2000/svg" xmlns:xlink="http://www.w3.org/1999/xlink" width="400" height="293" viewBox="0 0 400 293">
  <defs>
    <clipPath id="clip-path">
      <rect id="Rectángulo_417881" data-name="Rectángulo 417881" width="400" height="293" transform="translate(180 3710)" fill="#fff" stroke="#707070" stroke-width="1" opacity="0.72"/>
    </clipPath>
    <clipPath id="clip-path-2">
      <rect id="Rectángulo_417866" data-name="Rectángulo 417866" width="33.919" height="20.729" fill="none"/>
    </clipPath>
    <clipPath id="clip-path-3">
      <rect id="Rectángulo_417867" data-name="Rectángulo 417867" width="0.09" height="0.17" fill="none"/>
    </clipPath>
  </defs>
  <g id="Enmascarar_grupo_1098881" data-name="Enmascarar grupo 1098881" transform="translate(-180 -3710)" clip-path="url(#clip-path)">
    <g id="Grupo_1209290" data-name="Grupo 1209290" transform="translate(1923.596 -188.638)">
      <g id="Grupo_1209287" data-name="Grupo 1209287" transform="translate(-1754.596 3902.527)">
        <circle id="Elipse_13137" data-name="Elipse 13137" cx="176.604" cy="176.604" r="176.604" transform="translate(29.307 52.259)" fill="#ffefc1"/>
        <g id="Grupo_1209286" data-name="Grupo 1209286" transform="translate(0 0)">
          <rect id="Rectángulo_417865" data-name="Rectángulo 417865" width="411" height="98.446" transform="translate(0 265.856)" fill="#ffd6bb"/>
          <path id="Trazado_1080288" data-name="Trazado 1080288" d="M278.648,256.355a9.8,9.8,0,0,0,.957-7.985,10.816,10.816,0,0,0-5.5-6.249c-1.262-.629-2.807-1.4-4.22-1.163,1.172-2.2.417-4.956-1.289-6.834a15.068,15.068,0,0,0-6.718-3.807c-6.392-2.025-13.279-2.216-20.041-2.3-7.585-.092-18.1-.933-24.72,3.067a13.227,13.227,0,0,0-5.375,5.344,6.067,6.067,0,0,0,.973,6.908,15.036,15.036,0,0,0-11.718,6.222,5.476,5.476,0,0,0-1.1,2.773,2.681,2.681,0,0,0,1.393,2.527c22.881,11.345,51.35,1.237,77.358,1.5" transform="translate(-35.648 -87.624)" fill="#c0b79b"/>
          <path id="Trazado_1080289" data-name="Trazado 1080289" d="M267.649,252.411a7.049,7.049,0,0,0,.41-6.68,3.7,3.7,0,0,0-2.8-2.3,6.868,6.868,0,0,0-.7-5.86c-2.609-4.065-7.627-3.611-11.786-3.611H237.433c-3.509,0-8.078-.672-11.419.507a7.3,7.3,0,0,0-4.276,3.615,4.807,4.807,0,0,0,.776,5.34c-1.953.154-3.511,1.652-4.769,3.154s-2.43,3.582-1.459,5.269c4.761.133,9.211.95,13.961,1.3h36.574" transform="translate(-38.481 -88.663)" fill="#4f4523"/>
          <path id="Trazado_1080290" data-name="Trazado 1080290" d="M266.668,246.166c-18.955,19.952-40.9,1.995-40.9,1.995,3.241-1.855,4.549-9.936,5.007-18.076a182.374,182.374,0,0,0-.02-18.835l33.919,3.99a65.682,65.682,0,0,0-.918,13.607,63.5,63.5,0,0,0,2.913,17.319" transform="translate(-40.219 -84.685)" fill="#a05635"/>
          <g id="Grupo_1209273" data-name="Grupo 1209273" transform="translate(190.536 126.565)" opacity="0.5" style="mix-blend-mode: multiply;isolation: isolate">
            <g id="Grupo_1209272" data-name="Grupo 1209272" transform="translate(0 0)">
              <g id="Grupo_1209271" data-name="Grupo 1209271" clip-path="url(#clip-path-2)">
                <path id="Trazado_1080291" data-name="Trazado 1080291" d="M264.826,228.847a56.261,56.261,0,0,1-32.981,1.237,182.111,182.111,0,0,0-.02-18.835l33.919,3.991a65.679,65.679,0,0,0-.918,13.607" transform="translate(-231.825 -211.25)" fill="#a05635"/>
              </g>
            </g>
          </g>
          <path id="Trazado_1080292" data-name="Trazado 1080292" d="M245.753,126.433c28.761,0,31.958,31.923,31.958,49.88s-17.045,34.917-31.958,34.917-30.892-21.948-30.892-40.9,5.326-43.894,30.892-43.894" transform="translate(-38.292 -69.701)" fill="#a05635"/>
          <path id="Trazado_1080293" data-name="Trazado 1080293" d="M216.313,193.643c-2.77,2.4-8.06,1.716-11.026.587-4.246-1.615-7.14-5.818-8.109-10.257a18.567,18.567,0,0,1,2.714-14.167,9.99,9.99,0,0,1,4.089-3.719,9.1,9.1,0,0,1,8.115.92c2.757,1.378,6.163,4.719,6.7,7.764.8,4.538-.548,10.455-.794,15.074a5.954,5.954,0,0,1-.239,1.624,4.938,4.938,0,0,1-1.451,2.174" transform="translate(-35.096 -76.602)" fill="#a05635"/>
          <path id="Trazado_1080294" data-name="Trazado 1080294" d="M286.741,193.643c2.77,2.4,8.06,1.716,11.026.587,4.246-1.615,7.14-5.818,8.109-10.257a18.564,18.564,0,0,0-2.715-14.167,9.982,9.982,0,0,0-4.088-3.719,9.1,9.1,0,0,0-8.115.92c-2.756,1.378-6.163,4.719-6.7,7.764-.8,4.538.548,10.455.794,15.074a5.955,5.955,0,0,0,.239,1.624,4.938,4.938,0,0,0,1.451,2.174" transform="translate(-50.508 -76.602)" fill="#a05635"/>
          <path id="Trazado_1080295" data-name="Trazado 1080295" d="M276.815,165.289c-1.179.625-2.441.179-3.693.64a75.539,75.539,0,0,0-1.029-14.43c-1.356-6.8-4.635-14.931-12.683-15-4.267-.039-8.342,1.64-12.54,2.4a27.757,27.757,0,0,1-14.841-1.119c-4.141-1.684-7.75-1.271-10.428,3.1-1.886,3.074-2.3,6.8-2.671,10.385q-.745,7.214-1.489,14.427c-1.1-.453-1.613.38-2.708-.074A78.013,78.013,0,0,0,213.52,149.7a65.714,65.714,0,0,1-1.29-7.2,18.712,18.712,0,0,1,13.645-18.888,32.681,32.681,0,0,1,7.895-.73,164.979,164.979,0,0,1,27.425,2.21,20.38,20.38,0,0,1,7.6,2.381,15.476,15.476,0,0,1,4.875,5.32c5.906,9.873,5.674,21.267,3.146,32.491" transform="translate(-37.82 -69.074)"/>
          <path id="Trazado_1080296" data-name="Trazado 1080296" d="M276.64,255.122V357.875H208.8V257.117l10.056-2.882,6.075-1.736s21.3,7.642,38-1.845l5.926,1.935Z" transform="translate(-37.222 -91.646)" fill="#a197ff"/>
          <path id="Trazado_1080297" data-name="Trazado 1080297" d="M271.017,252.589a53.78,53.78,0,0,1-8.589,6.195c-4.111,2.444-9.677,3.093-14.356,3.522a44.3,44.3,0,0,1-14.645-.778,23.646,23.646,0,0,1-12.41-7.293l6.075-1.736s21.3,7.641,38-1.846Z" transform="translate(-39.38 -91.646)" fill="#f07a50"/>
          <path id="Trazado_1080298" data-name="Trazado 1080298" d="M219.627,252.446l-4.7,105.746H179.723v-95.77Z" transform="translate(-32.084 -91.963)" fill="#c0b79b"/>
          <path id="Trazado_1080299" data-name="Trazado 1080299" d="M255.506,364.76H224.243a3.323,3.323,0,0,1-3.323-3.323v-57.2a3.323,3.323,0,0,1,3.323-3.324h31.263a3.323,3.323,0,0,1,3.323,3.324v57.2a3.323,3.323,0,0,1-3.323,3.323" transform="translate(-39.362 -100.526)" fill="#bc3500"/>
          <path id="Trazado_1080300" data-name="Trazado 1080300" d="M229.283,324.714h-1.046a2.469,2.469,0,0,1-2.47-2.47V308.23a2.469,2.469,0,0,1,2.47-2.47h1.046a2.469,2.469,0,0,1,2.47,2.47v14.014a2.469,2.469,0,0,1-2.47,2.47" transform="translate(-40.219 -101.382)"/>
          <path id="Trazado_1080301" data-name="Trazado 1080301" d="M226.978,310.179a2,2,0,1,1,1.995,1.995,2,2,0,0,1-1.995-1.995" transform="translate(-40.433 -101.81)" fill="#f8f7ff"/>
          <path id="Trazado_1080302" data-name="Trazado 1080302" d="M226.978,317.448a2,2,0,1,1,1.995,1.995,1.994,1.994,0,0,1-1.995-1.995" transform="translate(-40.433 -103.095)" fill="#f8f7ff"/>
          <path id="Trazado_1080303" data-name="Trazado 1080303" d="M228.19,323.721a1,1,0,1,1,1,1,1,1,0,0,1-1-1" transform="translate(-40.647 -104.379)" fill="#f8f7ff"/>
          <path id="Trazado_1080304" data-name="Trazado 1080304" d="M237.406,305.378q7.85-.3,15.706-.054c.53.017.529-.806,0-.823q-7.852-.249-15.706.054c-.528.021-.531.844,0,.823" transform="translate(-42.205 -101.14)"/>
          <path id="Trazado_1080305" data-name="Trazado 1080305" d="M260.8,307.922c.02.046.023.053.01.021.012.027.022.053.033.081s.031.081.046.122c.035.095.068.191.1.288a5.275,5.275,0,0,1,.134.548c.008.043.016.086.023.128s.009.058.013.086q-.006-.046,0,0,.017.141.027.282a5.347,5.347,0,0,1,.008.608.415.415,0,0,0,.412.412.42.42,0,0,0,.412-.412,5.8,5.8,0,0,0-.5-2.578.413.413,0,0,0-.563-.147.424.424,0,0,0-.147.563" transform="translate(-46.399 -101.655)"/>
          <path id="Trazado_1080306" data-name="Trazado 1080306" d="M249.814,333.288q-6.247,9.192-13.155,17.91-1.949,2.455-3.947,4.87c-.335.405.244.991.582.582q7.121-8.605,13.6-17.717,1.844-2.6,3.632-5.229c.3-.44-.414-.852-.711-.416" transform="translate(-41.428 -106.213)"/>
          <path id="Trazado_1080307" data-name="Trazado 1080307" d="M247.152,350.7q-2.706,3.922-5.721,7.614c-.333.408.247.993.582.582q3.081-3.77,5.85-7.78c.3-.437-.412-.85-.711-.416" transform="translate(-42.968 -109.289)"/>
          <path id="Trazado_1080308" data-name="Trazado 1080308" d="M244.117,328.377l-3.111,4.3a.415.415,0,0,0,.148.563.421.421,0,0,0,.563-.147l3.111-4.3a.414.414,0,0,0-.147-.563.421.421,0,0,0-.563.147" transform="translate(-42.9 -105.342)"/>
          <path id="Trazado_1080309" data-name="Trazado 1080309" d="M274.233,250.023l3.7,106.744H313.14V261Z" transform="translate(-48.781 -91.535)" fill="#c0b79b"/>
          <path id="Trazado_1080310" data-name="Trazado 1080310" d="M286.439,348.544l-16.807-1.769c-.081-.629-.161-1.258-.266-1.884a19.512,19.512,0,0,0-4.737-10.226c-2.55-2.771-5.572-.631-7.724,1.692a47.771,47.771,0,0,0-8.977,13.531,4.511,4.511,0,0,0-.479,3.089c.329,1.014,1.716,1.7,2.5.983a13.884,13.884,0,0,0-.343,3.872,3.133,3.133,0,0,0,1.636,2.563,7.813,7.813,0,0,0-.413,4.341,2.489,2.489,0,0,0,2.715,2.151,11.93,11.93,0,0,0-1.088,4.462,3.584,3.584,0,0,0,2.152,3.263,2.484,2.484,0,0,0,2.373.9,4.218,4.218,0,0,0,1.391-.894c2.552-2.176,5.732-4.3,8.159-6.919l14.917,8.775Z" transform="translate(-44.028 -106.258)" fill="#a05635"/>
          <path id="Trazado_1080311" data-name="Trazado 1080311" d="M196.436,348.544l16.807-1.769c.081-.629.161-1.258.266-1.884a19.506,19.506,0,0,1,4.737-10.226c2.55-2.771,5.572-.631,7.724,1.692a47.771,47.771,0,0,1,8.977,13.531,4.511,4.511,0,0,1,.479,3.089c-.329,1.014-1.716,1.7-2.5.983a13.884,13.884,0,0,1,.343,3.872,3.133,3.133,0,0,1-1.636,2.563,7.82,7.82,0,0,1,.413,4.341,2.489,2.489,0,0,1-2.715,2.151,11.93,11.93,0,0,1,1.088,4.462,3.584,3.584,0,0,1-2.152,3.263,2.484,2.484,0,0,1-2.373.9,4.218,4.218,0,0,1-1.391-.894c-2.553-2.176-5.732-4.3-8.159-6.919l-14.917,8.775Z" transform="translate(-35.037 -106.258)" fill="#a05635"/>
          <path id="Trazado_1080312" data-name="Trazado 1080312" d="M170.031,264.563c-7.981,0-48.883,72.825-44.892,86.791s65.842,18.955,65.842,18.955V331.4l-20.95,2.993Z" transform="translate(-22.393 -94.104)" fill="#4f4523"/>
          <path id="Trazado_1080313" data-name="Trazado 1080313" d="M313.855,263.351c7.981,0,48.883,72.825,44.892,86.791s-74.82,18.955-74.82,18.955l1.995-35.914h23.942Z" transform="translate(-50.494 -93.89)" fill="#4f4523"/>
          <path id="Trazado_1080314" data-name="Trazado 1080314" d="M174.767,305.731l3.246,8.857c.18.493.976.28.794-.219l-3.246-8.857c-.18-.493-.976-.28-.794.219" transform="translate(-31.204 -101.289)"/>
          <path id="Trazado_1080315" data-name="Trazado 1080315" d="M178.834,304.584q-.135,14.068-.269,28.135-.038,4-.077,8.009a.412.412,0,0,0,.823,0q.136-14.068.27-28.135l.077-8.009a.412.412,0,0,0-.823,0" transform="translate(-31.866 -101.104)"/>
          <path id="Trazado_1080316" data-name="Trazado 1080316" d="M142.378,354.87a87.74,87.74,0,0,1,18.407-4.479c6.342-.916,12.736-1.392,19.114-1.962,3.586-.319,7.17-.669,10.74-1.133.518-.068.524-.892,0-.823-6.4.832-12.831,1.289-19.25,1.886a153.475,153.475,0,0,0-18.871,2.682,75.923,75.923,0,0,0-10.359,3.035c-.492.184-.278.981.219.794" transform="translate(-25.399 -108.574)"/>
          <path id="Trazado_1080317" data-name="Trazado 1080317" d="M142.678,351.177a18.584,18.584,0,0,1,5.04-.128,17.692,17.692,0,0,1,2.477.458,4.79,4.79,0,0,1,2.1.974c.392.355.976-.226.583-.583-1.253-1.136-3.175-1.419-4.791-1.627a19.415,19.415,0,0,0-5.632.113c-.521.085-.3.879.219.794" transform="translate(-25.448 -109.219)"/>
          <path id="Trazado_1080318" data-name="Trazado 1080318" d="M202.549,352.687A52.473,52.473,0,0,0,189.8,354.57a.412.412,0,0,0,.219.794,51.541,51.541,0,0,1,12.533-1.853.412.412,0,0,0,0-.823" transform="translate(-33.813 -109.673)"/>
          <path id="Trazado_1080319" data-name="Trazado 1080319" d="M202,358.791a107.83,107.83,0,0,0-10.68,2.714c-.5.156-.29.952.218.795a107.689,107.689,0,0,1,10.681-2.715c.519-.1.3-.9-.219-.794" transform="translate(-34.082 -110.75)"/>
          <path id="Trazado_1080320" data-name="Trazado 1080320" d="M202.1,367.529q-5.95,1.221-11.814,2.817a.412.412,0,0,0,.219.794q5.861-1.594,11.814-2.817c.519-.106.3-.9-.219-.794" transform="translate(-33.9 -112.293)"/>
          <path id="Trazado_1080321" data-name="Trazado 1080321" d="M202.436,375.632q-5.6,1.232-11.129,2.737a.412.412,0,0,0,.219.794q5.53-1.5,11.129-2.738c.517-.114.3-.907-.219-.794" transform="translate(-34.079 -113.724)"/>
          <path id="Trazado_1080322" data-name="Trazado 1080322" d="M201.765,383.876a108.338,108.338,0,0,0-10.963,2.717c-.506.153-.291.948.219.794a108.3,108.3,0,0,1,10.964-2.717c.52-.1.3-.894-.219-.794" transform="translate(-33.991 -115.181)"/>
          <path id="Trazado_1080323" data-name="Trazado 1080323" d="M286.737,355.241a36.441,36.441,0,0,1,11.707.656c.516.114.737-.679.219-.794a37.143,37.143,0,0,0-11.926-.686c-.522.055-.527.879,0,.823" transform="translate(-50.921 -109.943)"/>
          <path id="Trazado_1080324" data-name="Trazado 1080324" d="M285.721,362.178A32.391,32.391,0,0,1,297,363.329a.412.412,0,0,0,.219-.794,33.087,33.087,0,0,0-11.5-1.18c-.525.039-.529.862,0,.823" transform="translate(-50.741 -111.188)"/>
          <path id="Trazado_1080325" data-name="Trazado 1080325" d="M285.027,369.488a83.819,83.819,0,0,1,9.753,1.843.412.412,0,0,0,.219-.794,85.638,85.638,0,0,0-9.972-1.873c-.524-.067-.52.757,0,.823" transform="translate(-50.619 -112.495)"/>
          <path id="Trazado_1080326" data-name="Trazado 1080326" d="M284.7,377.044a41.794,41.794,0,0,1,9.584,1.045c.516.117.736-.675.219-.794a42.817,42.817,0,0,0-9.8-1.074.412.412,0,0,0,0,.823" transform="translate(-50.56 -113.83)"/>
          <path id="Trazado_1080327" data-name="Trazado 1080327" d="M284.722,383.594a1.926,1.926,0,0,0-.879.193.415.415,0,0,0,.208.767,57.615,57.615,0,0,1,11.358.294c.524.065.52-.758,0-.823a57.618,57.618,0,0,0-11.358-.294l.207.767a.786.786,0,0,1,.464-.082.412.412,0,0,0,0-.823" transform="translate(-50.444 -115.13)"/>
          <path id="Trazado_1080328" data-name="Trazado 1080328" d="M312.2,348.431c9.706-.806,19.519-1.611,29.229-.414a61.9,61.9,0,0,1,8.088,1.54.412.412,0,0,0,.219-.794c-9.5-2.485-19.412-2.434-29.147-1.8-2.8.183-5.594.413-8.389.645-.524.044-.529.867,0,.823" transform="translate(-55.42 -108.597)"/>
          <path id="Trazado_1080329" data-name="Trazado 1080329" d="M343.239,347.16a25.131,25.131,0,0,1,9.169-.944c.529.043.525-.781,0-.823a25.8,25.8,0,0,0-9.388.973.412.412,0,0,0,.219.794" transform="translate(-60.883 -108.369)"/>
          <path id="Trazado_1080330" data-name="Trazado 1080330" d="M318.169,299.288q-1.786,14.608-2.515,29.318-.206,4.184-.326,8.373a.412.412,0,0,0,.823,0q.425-14.71,1.908-29.363.424-4.169.933-8.328c.064-.525-.76-.52-.823,0" transform="translate(-56.041 -100.17)"/>
          <path id="Trazado_1080331" data-name="Trazado 1080331" d="M320.447,303.346a93.75,93.75,0,0,0-3.7,8.678c-.183.5.613.713.794.219a91.484,91.484,0,0,1,3.613-8.481c.231-.475-.478-.892-.711-.416" transform="translate(-56.288 -100.919)"/>
          <path id="Trazado_1080332" data-name="Trazado 1080332" d="M216.632,267.416a38.972,38.972,0,0,0-2.253,21.253,1.508,1.508,0,0,1-.153,1.235c-.237.361-.485.711-.7,1.083a15.611,15.611,0,0,0-1.1,2.316,21.616,21.616,0,0,0-1.182,4.89,17.475,17.475,0,0,0-.179,2.572c.012.851.064,1.7,0,2.554a2.15,2.15,0,0,1-.818,1.838c-.548.353-1.164.567-1.686.967-.481.367-1.155,1.012-.625,1.626a2.618,2.618,0,0,0,2.163.563,3.235,3.235,0,0,0,2.8-3.458.42.42,0,0,0-.3-.4,3.265,3.265,0,0,0-2.426.377,1.9,1.9,0,0,0-.785,1.821,1.505,1.505,0,0,0,1.5,1.217,2.617,2.617,0,0,0,2.034-1.036c.907-1.121,1.177-3.54-.673-3.876-1.643-.3-3.345,1.723-3.069,3.291a1.6,1.6,0,0,0,1.75,1.392,1.9,1.9,0,0,0,1.461-1.848.405.405,0,0,0-.2-.356c-1.029-.491-.908,1.163-.908,1.693q0,1.853,0,3.7a.412.412,0,0,0,.823,0q0-1.183,0-2.366v-1.132a6.231,6.231,0,0,1,.006-1.224h-.415l.077.037-.2-.356c-.022.528-.536,1.3-1.148.973-.655-.355-.466-1.247-.169-1.763a2.412,2.412,0,0,1,1.421-1.231c.79-.158,1.176.459,1.144,1.172a2.38,2.38,0,0,1-.728,1.587,1.458,1.458,0,0,1-1.561.425c-.529-.277-.361-1,0-1.351a2.2,2.2,0,0,1,1.855-.357l-.3-.4a2.42,2.42,0,0,1-2.845,2.621,1.3,1.3,0,0,1-.488-.151c-.161-.135-.119-.154.037-.307a3.729,3.729,0,0,1,.838-.6,7.641,7.641,0,0,0,1.41-.822c1.019-.883.911-2.55.887-3.77a23.443,23.443,0,0,1,.319-4.66,18.492,18.492,0,0,1,1.395-4.6,14.616,14.616,0,0,1,1.188-2.063,2.277,2.277,0,0,0,.4-1.884,39.608,39.608,0,0,1-.443-9.955,38.168,38.168,0,0,1,2.666-11.034c.2-.491-.6-.7-.794-.219" transform="translate(-37.033 -94.56)" fill="#fff"/>
          <path id="Trazado_1080333" data-name="Trazado 1080333" d="M278.952,267.322a23.465,23.465,0,0,1,4.192,17.091,22.767,22.767,0,0,1-1.3,4.917c-.147.378.317.588.6.465,1-.429,1.657,1.647,1.862,2.249a16.6,16.6,0,0,1,.77,3.346,19.461,19.461,0,0,1,.082,3.321,16.272,16.272,0,0,1-.162,2.08,2.242,2.242,0,0,1-.29.924,1.066,1.066,0,0,1-.8.3c-.783.077-1.573.024-2.353.149-.678.109-1.656.483-1.641,1.316.015.885,1.091,1.2,1.784,1.344a7.962,7.962,0,0,0,3.092.026,7.539,7.539,0,0,0,1.508-.454,2.361,2.361,0,0,0,1.125-.727c.589-.887-.483-1.354-1.186-1.446a5.248,5.248,0,0,0-3.023.336,1.415,1.415,0,0,0-.657,1.994,2.894,2.894,0,0,0,2.414.83,2.251,2.251,0,0,0,2.012-1.315,1.669,1.669,0,0,0-.521-2.062,4.124,4.124,0,0,0-2.968-.454,2.058,2.058,0,0,0-1.6,2.127,2.3,2.3,0,0,0,1.715,2.026c.836.23,2.219-.217,1.779-1.335a.414.414,0,0,0-.809.109q-.088,1.951-.175,3.9c-.024.529.8.529.823,0q.088-1.951.175-3.9l-.809.11c.2.513-.734.352-.987.242a1.515,1.515,0,0,1-.785-.758,1.248,1.248,0,0,1,.891-1.728,3.489,3.489,0,0,1,2.152.254.985.985,0,0,1-.054,1.679,2.394,2.394,0,0,1-2.25.037c-.334-.156-.509-.436-.273-.772a1.569,1.569,0,0,1,1.047-.479,5.926,5.926,0,0,1,1.317-.072,4.6,4.6,0,0,1,.744.083c.231.05.348.112.125.31a3.21,3.21,0,0,1-1.1.459,6.95,6.95,0,0,1-3.59.169,2.109,2.109,0,0,1-.954-.359c-.336-.3.22-.529.486-.608,1.078-.317,2.267.016,3.335-.35.934-.32,1.08-1.438,1.178-2.291a23.8,23.8,0,0,0,.135-3.616,17.481,17.481,0,0,0-1.067-5.4c-.441-1.186-1.37-2.962-2.915-2.3l.6.465a24.242,24.242,0,0,0-.355-18.006,23.067,23.067,0,0,0-2.621-4.637c-.309-.423-1.023-.013-.711.416" transform="translate(-49.601 -94.486)" fill="#fff"/>
          <path id="Trazado_1080334" data-name="Trazado 1080334" d="M242.971,174.879c.541,1.851.123,3.6-.935,3.911s-2.353-.94-2.895-2.791-.123-3.6.935-3.911,2.354.94,2.895,2.791" transform="translate(-42.54 -77.758)"/>
          <path id="Trazado_1080335" data-name="Trazado 1080335" d="M262.8,174.879c.541,1.851.123,3.6-.935,3.911s-2.354-.94-2.9-2.791-.123-3.6.935-3.911,2.354.94,2.895,2.791" transform="translate(-46.042 -77.758)"/>
          <path id="Trazado_1080336" data-name="Trazado 1080336" d="M246.52,166.549a70.02,70.02,0,0,0,4.925,13.655l.464-.6a8.046,8.046,0,0,0-5.019-.062c-1.43.455-3.05,1.368-3.545,2.885-.5,1.536.458,3.278,1.536,4.327a6.166,6.166,0,0,0,4.034,1.741c.53.022.529-.8,0-.823a5.282,5.282,0,0,1-3.4-1.449c-.93-.881-1.9-2.458-1.307-3.76a4.853,4.853,0,0,1,3.222-2.221,7.274,7.274,0,0,1,4.259.156c.367.126.608-.306.464-.6a69.041,69.041,0,0,1-4.842-13.459.412.412,0,0,0-.794.219" transform="translate(-43.3 -76.697)"/>
          <path id="Trazado_1080337" data-name="Trazado 1080337" d="M240.691,157.394a3.5,3.5,0,0,0-.219-.626c-.934-2.043-4.97-2.047-6.884-1.876a11.107,11.107,0,0,0-5.609,1.992,7.627,7.627,0,0,0-3.1,4.984,30.665,30.665,0,0,1,15.375-.524,8.961,8.961,0,0,0,.433-3.952" transform="translate(-40.063 -74.717)"/>
          <path id="Trazado_1080338" data-name="Trazado 1080338" d="M257.707,157.394a3.49,3.49,0,0,1,.218-.626c.934-2.043,4.97-2.047,6.884-1.876a11.1,11.1,0,0,1,5.609,1.992,7.624,7.624,0,0,1,3.1,4.984,30.664,30.664,0,0,0-15.375-.524,8.948,8.948,0,0,1-.432-3.952" transform="translate(-45.843 -74.717)"/>
          <path id="Trazado_1080339" data-name="Trazado 1080339" d="M244.374,155.521a20.341,20.341,0,0,1-1.782,5.131c-.24.472.471.888.711.416a21.1,21.1,0,0,0,1.865-5.328c.106-.517-.687-.739-.794-.219" transform="translate(-43.183 -74.787)"/>
          <path id="Trazado_1080340" data-name="Trazado 1080340" d="M245.7,157.2a9.359,9.359,0,0,1-1.21,3.487.412.412,0,0,0,.711.416,9.921,9.921,0,0,0,1.293-3.684.426.426,0,0,0-.287-.506.414.414,0,0,0-.506.287" transform="translate(-43.515 -75.082)"/>
          <path id="Trazado_1080341" data-name="Trazado 1080341" d="M256.4,157.3a10.271,10.271,0,0,0,1.039,4.775.415.415,0,0,0,.563.147.421.421,0,0,0,.148-.563,9.372,9.372,0,0,1-.927-4.359.412.412,0,0,0-.823,0" transform="translate(-45.629 -75.084)"/>
          <path id="Trazado_1080342" data-name="Trazado 1080342" d="M255.022,158.944a6.519,6.519,0,0,0,.869,2.728.412.412,0,0,0,.711-.416,5.254,5.254,0,0,1-.506-1.116,5.845,5.845,0,0,1-.161-.6c-.021-.1-.04-.2-.056-.306,0-.03-.009-.058-.013-.088,0,.036,0,.028,0-.023s-.012-.118-.018-.177a.421.421,0,0,0-.412-.412.416.416,0,0,0-.412.412" transform="translate(-45.387 -75.371)"/>
          <path id="Trazado_1080343" data-name="Trazado 1080343" d="M264.282,192.978a51.512,51.512,0,0,1-1.057,5.348,10.771,10.771,0,0,1-5.148,6.893,13.953,13.953,0,0,1-12.459,1.028c-.269-.109-.529-.23-.789-.349a12.343,12.343,0,0,1-6.933-9,29.371,29.371,0,0,0,26.387-3.921" transform="translate(-42.361 -81.457)"/>
          <path id="Trazado_1080344" data-name="Trazado 1080344" d="M264.713,199.472a10.778,10.778,0,0,1-5.147,6.894,13.96,13.96,0,0,1-12.46,1.027c-.269-.11-.529-.23-.788-.349a39.427,39.427,0,0,1,18.4-7.572" transform="translate(-43.849 -82.604)" fill="#f27fff"/>
          <path id="Trazado_1080345" data-name="Trazado 1080345" d="M268.275,192.057a5.945,5.945,0,0,0,2.763,2.813.412.412,0,0,0,.416-.711A4.949,4.949,0,0,1,270,193.117c-.107-.109-.208-.221-.305-.338l-.079-.1-.026-.033c.018.024.018.024,0,0-.046-.061-.091-.122-.133-.184a5.627,5.627,0,0,1-.472-.827.415.415,0,0,0-.563-.147.421.421,0,0,0-.147.563" transform="translate(-47.72 -81.185)"/>
          <path id="Trazado_1080346" data-name="Trazado 1080346" d="M250.463,213.989a16.717,16.717,0,0,0,8.333-.953c.489-.189.277-.986-.219-.794a15.9,15.9,0,0,1-7.895.953c-.518-.072-.743.722-.219.794" transform="translate(-44.529 -84.855)"/>
          <path id="Trazado_1080347" data-name="Trazado 1080347" d="M202.243,173.581c.188-1.821,2.293-2.545,3.833-2.024a6.181,6.181,0,0,1,3.474,4c1.422,3.875,1.772,8.106,2.174,12.182l.7-.291a3.474,3.474,0,0,0-4.647-.827,3,3,0,0,0-.568,4.231c.336.411.916-.175.582-.582a2.178,2.178,0,0,1,.6-3.077,2.711,2.711,0,0,1,3.447.837.416.416,0,0,0,.7-.291,59.858,59.858,0,0,0-1.851-11.33,10.086,10.086,0,0,0-2.216-4.251,4.878,4.878,0,0,0-4.04-1.585,3.479,3.479,0,0,0-3.021,3c-.054.526.769.523.823,0" transform="translate(-35.917 -77.493)"/>
          <path id="Trazado_1080348" data-name="Trazado 1080348" d="M300,171.682c-1.381-.752-2.81-1.209-4.152-.128a14.824,14.824,0,0,0-2.806,3.453,25.688,25.688,0,0,0-4.2,13.683.416.416,0,0,0,.7.291c1.129-1.316,2.965-2.646,4.8-2.465a1.441,1.441,0,0,1,1.412,1.736,4.276,4.276,0,0,1-1.885,2.317c-.417.326.169.9.582.582a4.651,4.651,0,0,0,2.137-2.943,2.18,2.18,0,0,0-1.506-2.374c-2.216-.733-4.748.965-6.121,2.565l.7.291a24.913,24.913,0,0,1,2.45-10.365,24.636,24.636,0,0,1,2.826-4.554,7.278,7.278,0,0,1,1.728-1.8c.982-.6,2.016-.072,2.919.419.466.254.882-.457.416-.711" transform="translate(-51.362 -77.559)"/>
          <path id="Trazado_1080349" data-name="Trazado 1080349" d="M285.242,176.566a19.855,19.855,0,0,0,3.786-1.088.425.425,0,0,0,.287-.506.415.415,0,0,0-.506-.287,19.855,19.855,0,0,1-3.786,1.088.415.415,0,0,0-.287.506.421.421,0,0,0,.506.287" transform="translate(-50.634 -78.221)"/>
          <path id="Trazado_1080350" data-name="Trazado 1080350" d="M286.292,178.452a13.355,13.355,0,0,0,2.346-.683.422.422,0,0,0,.288-.506.416.416,0,0,0-.506-.287,13.455,13.455,0,0,1-2.346.683.414.414,0,0,0-.287.506.422.422,0,0,0,.506.287" transform="translate(-50.819 -78.626)"/>
          <path id="Trazado_1080351" data-name="Trazado 1080351" d="M214.6,175.067a9.706,9.706,0,0,1,4.094.284.412.412,0,0,0,.219-.794,10.71,10.71,0,0,0-4.532-.283.414.414,0,0,0-.287.506.422.422,0,0,0,.506.287" transform="translate(-38.154 -78.131)"/>
          <path id="Trazado_1080352" data-name="Trazado 1080352" d="M214.974,177.03l2.72.743a.412.412,0,0,0,.219-.794l-2.72-.743a.412.412,0,1,0-.219.794" transform="translate(-38.259 -78.497)"/>
          <path id="Trazado_1080353" data-name="Trazado 1080353" d="M214.745,178.568a9.742,9.742,0,0,0,2.055.725.412.412,0,0,0,.219-.794,9.188,9.188,0,0,1-.981-.28c-.161-.056-.319-.117-.478-.18-.112-.045.075.033-.035-.015-.045-.02-.09-.039-.133-.059-.078-.035-.155-.071-.231-.107a.412.412,0,0,0-.416.711" transform="translate(-38.237 -78.777)"/>
          <g id="Grupo_1209276" data-name="Grupo 1209276" transform="translate(183.962 141.249)" opacity="0.5" style="mix-blend-mode: multiply;isolation: isolate">
            <g id="Grupo_1209275" data-name="Grupo 1209275" transform="translate(0 0)">
              <g id="Grupo_1209274" data-name="Grupo 1209274" clip-path="url(#clip-path-3)">
                <path id="Trazado_1080354" data-name="Trazado 1080354" d="M223.84,229.085c.09.02.11.09.07.17Z" transform="translate(-223.84 -229.085)" fill="#a05635"/>
              </g>
            </g>
          </g>
          <path id="Trazado_1080355" data-name="Trazado 1080355" d="M221.631,340.509c3.711-1.4,6.668,2.128,8.649,4.725q3.6,4.714,6.7,9.772c.277.451.99.038.711-.415q-2.619-4.256-5.586-8.284c-1.7-2.3-3.482-5.058-6.177-6.289a5.9,5.9,0,0,0-4.519-.3c-.491.185-.278.981.219.794" transform="translate(-39.4 -107.324)"/>
          <path id="Trazado_1080356" data-name="Trazado 1080356" d="M220.545,350.058c3.248.958,5.829,3.273,8.106,5.685a50.994,50.994,0,0,1,6.522,8.587.412.412,0,0,0,.711-.416,52.022,52.022,0,0,0-6.778-8.888c-2.344-2.466-5.017-4.781-8.341-5.762a.412.412,0,0,0-.219.794" transform="translate(-39.245 -109.065)"/>
          <path id="Trazado_1080357" data-name="Trazado 1080357" d="M220.555,360.621c5.292,3.03,10.821,6.684,13.2,12.571.2.484.993.273.794-.219-2.472-6.111-8.073-9.909-13.581-13.062a.412.412,0,0,0-.416.711" transform="translate(-39.263 -110.939)"/>
          <path id="Trazado_1080358" data-name="Trazado 1080358" d="M216.242,351.553c-1.685,2.418-3.36,5.613-1.721,8.5a6.2,6.2,0,0,0,1.367,1.49c.681.626.253,1.686.143,2.481a4.915,4.915,0,0,0,.971,4.252c.368.382.95-.2.582-.582-1.15-1.194-.846-2.963-.6-4.44a2.485,2.485,0,0,0-.2-1.949c-.353-.5-.923-.785-1.293-1.274-1.944-2.571-.082-5.846,1.465-8.065.3-.436-.409-.848-.711-.416" transform="translate(-38.114 -109.44)"/>
          <path id="Trazado_1080359" data-name="Trazado 1080359" d="M271.252,342.794a13.029,13.029,0,0,1,1.12,9.267,13.293,13.293,0,0,1-.78,2.2c-.276.613-.454,1.28.14,1.763a8.019,8.019,0,0,1,.715.534,2.614,2.614,0,0,1,.562.9,4.541,4.541,0,0,1,.244,1.909c-.119,1.838-1.078,3.515-1.25,5.355-.049.527.774.524.823,0,.259-2.757,2.52-6.042.339-8.6a3.118,3.118,0,0,0-.636-.558c-.222-.148-.4-.206-.366-.52a2.491,2.491,0,0,1,.281-.676,13.323,13.323,0,0,0,.744-2.174,13.863,13.863,0,0,0-1.224-9.821c-.249-.468-.96-.052-.711.416" transform="translate(-48.245 -107.815)"/>
          <path id="Trazado_1080360" data-name="Trazado 1080360" d="M249.611,357.325A103.769,103.769,0,0,0,259.69,346.73c.334-.406-.245-.991-.583-.582a103.671,103.671,0,0,1-10.078,10.595c-.392.358.191.939.582.582" transform="translate(-44.306 -108.493)"/>
          <path id="Trazado_1080361" data-name="Trazado 1080361" d="M251.892,365.352q4.772-3.885,9.733-7.532c.422-.31.012-1.025-.415-.711q-5.044,3.706-9.9,7.66c-.411.334.175.914.582.582" transform="translate(-44.707 -110.44)"/>
          <path id="Trazado_1080362" data-name="Trazado 1080362" d="M253.74,373.917a110.963,110.963,0,0,1,9.167-7.732c.417-.315.007-1.031-.416-.711a112.915,112.915,0,0,0-9.333,7.861c-.387.364.2.945.582.582" transform="translate(-45.035 -111.918)"/>
          <path id="Trazado_1080363" data-name="Trazado 1080363" d="M212.2,249.651a11.458,11.458,0,0,0-.535,8c.743,2.516,3.021,3.7,5.266,4.673.481.209.9-.5.415-.711-2.02-.877-4.212-1.9-4.887-4.182a10.626,10.626,0,0,1,.452-7.37c.235-.473-.475-.891-.711-.416" transform="translate(-37.643 -91.432)"/>
          <path id="Trazado_1080364" data-name="Trazado 1080364" d="M280.613,248.338c.05,3.439-.03,7.253-2.4,10-.346.4.235.983.582.582,2.537-2.93,2.7-6.893,2.646-10.58a.412.412,0,0,0-.823,0" transform="translate(-49.465 -91.167)"/>
          <path id="Trazado_1080365" data-name="Trazado 1080365" d="M199.561,260.512a16.177,16.177,0,0,0,11.884,4.733c.529-.016.53-.84,0-.823a15.352,15.352,0,0,1-11.3-4.492.412.412,0,0,0-.582.582" transform="translate(-35.568 -93.264)"/>
          <path id="Trazado_1080366" data-name="Trazado 1080366" d="M198.088,263.509a18.548,18.548,0,0,0,8.122,3.827c.518.1.739-.692.219-.794a17.707,17.707,0,0,1-7.759-3.615c-.408-.332-.994.248-.582.582" transform="translate(-35.304 -93.797)"/>
          <path id="Trazado_1080367" data-name="Trazado 1080367" d="M294.507,256.389a13.574,13.574,0,0,1-8.48,7.085.412.412,0,0,0,.219.794,14.377,14.377,0,0,0,8.972-7.463c.232-.474-.478-.892-.711-.416" transform="translate(-50.814 -92.623)"/>
          <path id="Trazado_1080368" data-name="Trazado 1080368" d="M296.39,260.383a17.43,17.43,0,0,1-5.8,3.795c-.487.193-.274.989.219.794a18.435,18.435,0,0,0,6.164-4.006c.378-.372-.2-.954-.582-.582" transform="translate(-51.622 -93.344)"/>
          <path id="Trazado_1080369" data-name="Trazado 1080369" d="M277.707,285.034q1.494,16.628,2.207,33.314.2,4.707.338,9.416c.016.529.839.531.823,0q-.49-16.687-1.764-33.34-.359-4.7-.782-9.39c-.047-.524-.871-.529-.823,0" transform="translate(-49.395 -97.651)"/>
          <path id="Trazado_1080370" data-name="Trazado 1080370" d="M219.148,284.514,217.4,307.626c-.04.529.784.526.823,0l1.751-23.112c.04-.529-.784-.526-.823,0" transform="translate(-38.74 -97.559)"/>
          <path id="Trazado_1080371" data-name="Trazado 1080371" d="M237.461,288.267a175.8,175.8,0,0,0,17.058-14.3q2.307-2.2,4.532-4.482c.371-.38-.212-.962-.582-.582A174.963,174.963,0,0,1,242.1,283.691q-2.491,1.98-5.056,3.866c-.422.31-.012,1.025.416.711" transform="translate(-42.18 -94.849)"/>
          <path id="Trazado_1080372" data-name="Trazado 1080372" d="M246.957,291.131l9.467-7.1c.419-.314.009-1.029-.416-.711l-9.467,7.1c-.419.314-.009,1.029.416.711" transform="translate(-43.858 -97.404)"/>
          <path id="Trazado_1080373" data-name="Trazado 1080373" d="M231.135,255.1q-.257,3.064-.512,6.129c-.044.528.779.524.823,0q.256-3.065.512-6.129c.044-.528-.78-.525-.823,0" transform="translate(-41.076 -92.362)"/>
          <path id="Trazado_1080374" data-name="Trazado 1080374" d="M235,254.934a50.467,50.467,0,0,0,.271,7.934c.058.52.883.526.823,0a50.469,50.469,0,0,1-.271-7.934c.023-.529-.8-.529-.823,0" transform="translate(-41.841 -92.333)"/>
          <path id="Trazado_1080375" data-name="Trazado 1080375" d="M240.007,255.768a39.046,39.046,0,0,1,.163,6.69c-.034.529.79.528.823,0a39.048,39.048,0,0,0-.163-6.69c-.058-.521-.883-.527-.823,0" transform="translate(-42.734 -92.481)"/>
          <path id="Trazado_1080376" data-name="Trazado 1080376" d="M244.464,255.948v7.517a.412.412,0,0,0,.823,0v-7.517a.412.412,0,0,0-.823,0" transform="translate(-43.522 -92.512)"/>
          <path id="Trazado_1080377" data-name="Trazado 1080377" d="M249.181,256.288a41.208,41.208,0,0,1,.02,7.1c-.044.528.78.524.823,0a41.21,41.21,0,0,0-.02-7.1c-.047-.524-.87-.529-.823,0" transform="translate(-44.355 -92.572)"/>
          <path id="Trazado_1080378" data-name="Trazado 1080378" d="M254.066,256.455q-.224,3.475-.139,6.96a.412.412,0,0,0,.823,0q-.085-3.483.139-6.96c.034-.529-.79-.527-.823,0" transform="translate(-45.19 -92.602)"/>
          <path id="Trazado_1080379" data-name="Trazado 1080379" d="M259.17,255.61l.309,6.541c.025.527.848.53.823,0l-.309-6.541c-.025-.528-.848-.53-.823,0" transform="translate(-46.12 -92.452)"/>
          <path id="Trazado_1080380" data-name="Trazado 1080380" d="M263.049,254.934q.179,3.21.588,6.4a.426.426,0,0,0,.412.412.413.413,0,0,0,.412-.412q-.408-3.189-.588-6.4c-.03-.527-.853-.53-.823,0" transform="translate(-46.805 -92.333)"/>
          <path id="Trazado_1080381" data-name="Trazado 1080381" d="M268.011,253.577q.372,3.346.743,6.692c.058.52.882.527.823,0q-.37-3.346-.743-6.692c-.058-.521-.882-.527-.823,0" transform="translate(-47.682 -92.094)"/>
          <path id="Trazado_1080430" data-name="Trazado 1080430" d="M260.625,91.471a56.813,56.813,0,0,1,65.489,46.546" transform="translate(-46.377 -63.382)" fill="none" stroke="#a197ff" stroke-linecap="round" stroke-linejoin="round" stroke-width="4"/>
          <path id="Trazado_1080431" data-name="Trazado 1080431" d="M262.356,82.583,250.9,90.829l12.9,3.466Z" transform="translate(-44.659 -61.954)" fill="#a197ff"/>
          <path id="Trazado_1080432" data-name="Trazado 1080432" d="M178.871,220.634a56.813,56.813,0,0,1-29.364-74.788" transform="translate(-25.907 -73.13)" fill="none" stroke="#a197ff" stroke-linecap="round" stroke-linejoin="round" stroke-width="4"/>
          <path id="Trazado_1080433" data-name="Trazado 1080433" d="M177.728,239.7l14.1-.638-8.9-9.958Z" transform="translate(-31.732 -87.84)" fill="#a197ff"/>
          <path id="Trazado_1080434" data-name="Trazado 1080434" d="M180.964,106.445H146.12a6.028,6.028,0,0,1-6.028-6.028V63.555a6.028,6.028,0,0,1,6.028-6.028h34.843a6.028,6.028,0,0,1,6.028,6.028v36.861a6.028,6.028,0,0,1-6.028,6.028" transform="translate(-25.083 -57.527)" fill="#f27fff"/>
          <path id="Trazado_1080435" data-name="Trazado 1080435" d="M151.243,80.505H178.8c3.708,0,3.714-5.763,0-5.763H151.243c-3.708,0-3.715,5.763,0,5.763" transform="translate(-26.561 -60.568)" fill="#fff"/>
          <path id="Trazado_1080436" data-name="Trazado 1080436" d="M170.837,74.713V68.3c0-3.709-5.763-3.715-5.763,0v6.408c0,3.708,5.763,3.715,5.763,0" transform="translate(-29.496 -58.939)" fill="#fff"/>
          <path id="Trazado_1080437" data-name="Trazado 1080437" d="M153.861,103.131a30.3,30.3,0,0,0,19.9-23.448,2.976,2.976,0,0,0-2.013-3.545,2.9,2.9,0,0,0-3.544,2.013,24.621,24.621,0,0,1-15.871,19.422c-3.477,1.219-1.981,6.789,1.532,5.557" transform="translate(-26.896 -60.798)" fill="#fff"/>
          <path id="Trazado_1080438" data-name="Trazado 1080438" d="M154.262,87.765a31.634,31.634,0,0,0,20.233,13.8c3.623.715,5.173-4.839,1.532-5.557a25.9,25.9,0,0,1-16.789-11.151c-2.023-3.091-7.016-.207-4.975,2.909" transform="translate(-27.501 -62.121)" fill="#fff"/>
          <path id="Trazado_1080439" data-name="Trazado 1080439" d="M372.89,239.311H336.865a6.233,6.233,0,0,1-6.233-6.233V194.966a6.233,6.233,0,0,1,6.233-6.233H372.89a6.234,6.234,0,0,1,6.233,6.233v38.111a6.233,6.233,0,0,1-6.233,6.233" transform="translate(-58.745 -80.707)" fill="#f27fff"/>
          <path id="Trazado_1080440" data-name="Trazado 1080440" d="M363.084,223.831h-11.4l-1.5,3.634a2.637,2.637,0,1,1-4.845-2.081l8.151-18.287a4.328,4.328,0,0,1,7.9,0l8.139,18.2a2.7,2.7,0,1,1-4.956,2.132Zm-1.789-4.316-3.9-9.4-3.894,9.4Z" transform="translate(-61.302 -83.498)" fill="#fff"/>
          <path id="Trazado_1080441" data-name="Trazado 1080441" d="M89.564,231.829c7.972,1.5,14.7,4.256,18.473,8.213,4.819,5.056,7.532,12.552,5.446,19.22-2.137,6.834-8.626,11.35-15.144,14.314-1.317.6-2.658,1.141-4.01,1.655q3.64,7.286,7.278,14.572c-6.764-2.906-13.8-6.026-18.821-11.289a70.371,70.371,0,0,1-28.82-.39c-8.822-1.995-17.991-6.438-21.551-14.753-11.58-27.046,30-36.631,57.147-31.541" transform="translate(-5.708 -88.089)" fill="#fff"/>
          <path id="Trazado_1080442" data-name="Trazado 1080442" d="M88.627,208.281c4.165.781,7.679,2.223,9.65,4.29,2.518,2.641,3.935,6.558,2.845,10.041-1.116,3.57-4.506,5.929-7.911,7.477-.688.313-1.388.6-2.095.865l3.8,7.613c-3.534-1.518-7.21-3.148-9.832-5.9a36.779,36.779,0,0,1-15.055-.2c-4.609-1.042-9.4-3.364-11.259-7.707-6.05-14.129,15.672-19.137,29.854-16.477" transform="translate(-10.532 -84.04)" fill="#ffd6bb"/>
          <path id="Trazado_1080443" data-name="Trazado 1080443" d="M402.543,109.8c-6.382,1.2-11.767,3.406-14.786,6.573-3.858,4.047-6.028,10.048-4.359,15.384,1.711,5.47,6.9,9.085,12.122,11.457,1.054.479,2.127.913,3.209,1.325L392.9,156.208c5.414-2.326,11.047-4.823,15.064-9.035a56.328,56.328,0,0,0,23.068-.312c7.062-1.6,14.4-5.154,17.25-11.81,9.27-21.647-24.012-29.32-45.742-25.246" transform="translate(-67.967 -66.578)" fill="#fff"/>
          <path id="Trazado_1080444" data-name="Trazado 1080444" d="M382.984,60.564c-7.486,1.4-13.8,4-17.344,7.71-4.525,4.748-7.072,11.786-5.114,18.046,2.006,6.417,8.1,10.656,14.219,13.439,1.236.562,2.495,1.072,3.764,1.554L371.675,115c6.351-2.729,12.958-5.657,17.671-10.6a66.088,66.088,0,0,0,27.06-.366c8.284-1.874,16.891-6.046,20.235-13.853,10.873-25.393-28.167-34.394-53.656-29.614" transform="translate(-63.909 -57.846)" fill="#a197ff"/>
          <path id="Trazado_1080445" data-name="Trazado 1080445" d="M345.654,79.882c-3.883.728-7.16,2.072-9,4C334.31,86.344,332.989,90,334,93.242c1.041,3.329,4.2,5.528,7.375,6.971.641.291,1.294.557,1.953.806q-1.772,3.549-3.545,7.1c3.294-1.415,6.722-2.934,9.166-5.5a34.278,34.278,0,0,0,14.036-.19c4.3-.972,8.763-3.136,10.5-7.185,5.64-13.172-14.611-17.841-27.833-15.362" transform="translate(-59.28 -61.364)" fill="#ffd6bb"/>
        </g>
      </g>
      <g id="Grupo_1209285" data-name="Grupo 1209285" transform="translate(-1425.992 4111.024)">
        <path id="Trazado_1080462" data-name="Trazado 1080462" d="M142.827,448.2v5.613h65.091l16.295-33.493-2.161-3.68-18.946,26.009Z" transform="translate(-141.817 -416.635)" fill="#e6e1d5"/>
        <path id="Trazado_1080463" data-name="Trazado 1080463" d="M206.988,448.2h-64.16l24.86-31.56h54.364Z" transform="translate(-141.817 -416.635)" fill="#fff"/>
        <path id="Trazado_1080464" data-name="Trazado 1080464" d="M145.127,455.6q18.161,1.052,36.365.611,5.108-.126,10.213-.37c.527-.025.53-.848,0-.823q-18.17.864-36.37.234-5.107-.178-10.208-.475c-.529-.03-.528.793,0,.823" transform="translate(-142.153 -423.373)"/>
        <path id="Trazado_1080465" data-name="Trazado 1080465" d="M215.02,455.331h4.234a.412.412,0,0,0,0-.823H215.02a.412.412,0,0,0,0,.823" transform="translate(-154.5 -423.325)"/>
        <path id="Trazado_1080466" data-name="Trazado 1080466" d="M233.051,422.305q-3.847,9.49-8.293,18.72-1.275,2.643-2.6,5.262c-.237.472.473.889.711.415q4.681-9.279,8.756-18.845,1.131-2.656,2.215-5.333c.2-.491-.6-.7-.793-.219" transform="translate(-155.824 -417.587)"/>
        <path id="Trazado_1080467" data-name="Trazado 1080467" d="M165.779,440.9c2.211.556,3.662-1.615,5.637-2.076,1.351-.315,2.369.792,3.522,1.276a6.276,6.276,0,0,0,3.817.171c1.456-.323,2.822-.934,4.253-1.34a2.9,2.9,0,0,1,2.143,0c.618.329.986,1,1.524,1.437,2.133,1.726,5.114.072,7.413-.33,3.632-.636,7.342.2,10.88.988.516.115.737-.678.219-.794a34.406,34.406,0,0,0-9.5-1.2,21.091,21.091,0,0,0-4.354.855c-1.183.326-2.625.72-3.777.09a7.722,7.722,0,0,1-1.406-1.318,2.714,2.714,0,0,0-1.741-.748c-1.412-.078-2.849.647-4.159,1.082a8.432,8.432,0,0,1-4.185.6c-1.355-.264-2.328-1.409-3.693-1.615a4.828,4.828,0,0,0-3.2,1.02c-.936.585-2.008,1.407-3.177,1.113a.412.412,0,0,0-.219.794" transform="translate(-145.82 -420.39)"/>
        <path id="Trazado_1080468" data-name="Trazado 1080468" d="M179.046,432.445a10.76,10.76,0,0,1,6.28-1.052c2.093.29,3.954,1.454,6.064,1.643,2.011.181,3.922-.638,5.877-.946a5.542,5.542,0,0,1,3.117.3,7.951,7.951,0,0,0,2.728.876c2.079.125,4.364-1.1,6.361-.176.478.22.9-.489.416-.711-1.853-.854-3.767-.152-5.679.034a5.556,5.556,0,0,1-3.073-.579,6.213,6.213,0,0,0-2.912-.663c-2.125.072-4.113,1.056-6.241,1.065-2.243.01-4.243-1.319-6.438-1.639a11.644,11.644,0,0,0-6.915,1.135c-.473.238-.057.948.416.711" transform="translate(-148.105 -419.08)"/>
        <path id="Trazado_1080469" data-name="Trazado 1080469" d="M175.132,424c2.167.869,4.389-.171,6.579-.341,2.379-.184,4.245,1.34,6.509,1.717,2.482.413,4.879-.72,7.356-.507,1.277.11,2.489.59,3.754.772a12.075,12.075,0,0,0,3.274-.046c2.5-.323,5.125-1.109,7.571-.128.492.2.7-.6.218-.794-2.1-.844-4.363-.444-6.526-.095a18.965,18.965,0,0,1-3.4.333,19.414,19.414,0,0,1-3.642-.673,10.138,10.138,0,0,0-3.594-.074,27.278,27.278,0,0,1-3.791.487c-2.346,0-4.252-1.577-6.546-1.811-2.518-.255-5.089,1.348-7.542.364-.492-.2-.706.6-.219.794" transform="translate(-147.475 -417.726)"/>
        <path id="Trazado_1080470" data-name="Trazado 1080470" d="M150.714,447.846a4.312,4.312,0,0,0-2.913-1.991,5.968,5.968,0,0,0-4.13.294,4.037,4.037,0,0,0-.845,6.429c.382.368.965-.213.583-.582a3.206,3.206,0,0,1,.784-5.19,5.251,5.251,0,0,1,3.39-.156A3.526,3.526,0,0,1,150,448.262c.251.466.962.051.711-.416" transform="translate(-141.6 -421.756)" fill="#bc3500"/>
        <path id="Trazado_1080471" data-name="Trazado 1080471" d="M153.867,443.014a4.314,4.314,0,0,0-2.913-1.991,5.973,5.973,0,0,0-4.13.294,4.037,4.037,0,0,0-.845,6.429c.382.368.965-.213.583-.582a3.206,3.206,0,0,1,.784-5.19,5.251,5.251,0,0,1,3.39-.156,3.526,3.526,0,0,1,2.421,1.613c.251.466.962.051.711-.416" transform="translate(-142.157 -420.903)" fill="#bc3500"/>
        <path id="Trazado_1080472" data-name="Trazado 1080472" d="M157.02,438.182a4.312,4.312,0,0,0-2.913-1.991,5.973,5.973,0,0,0-4.13.294,4.037,4.037,0,0,0-.845,6.429c.382.368.965-.213.583-.582a3.206,3.206,0,0,1,.784-5.19,5.251,5.251,0,0,1,3.39-.156,3.526,3.526,0,0,1,2.421,1.613c.251.466.962.051.711-.416" transform="translate(-142.714 -420.049)" fill="#bc3500"/>
        <path id="Trazado_1080473" data-name="Trazado 1080473" d="M160.173,433.349a4.313,4.313,0,0,0-2.913-1.991,5.972,5.972,0,0,0-4.13.294,4.037,4.037,0,0,0-.845,6.429c.382.368.965-.213.583-.582a3.206,3.206,0,0,1,.784-5.19,5.252,5.252,0,0,1,3.39-.156,3.526,3.526,0,0,1,2.421,1.613c.251.466.962.051.711-.416" transform="translate(-143.271 -419.195)" fill="#bc3500"/>
        <path id="Trazado_1080474" data-name="Trazado 1080474" d="M163.326,428.517a4.312,4.312,0,0,0-2.913-1.991,5.973,5.973,0,0,0-4.13.294,4.037,4.037,0,0,0-.844,6.429c.381.368.964-.213.582-.582a3.206,3.206,0,0,1,.784-5.19,5.251,5.251,0,0,1,3.39-.156,3.526,3.526,0,0,1,2.421,1.613c.251.466.962.051.711-.416" transform="translate(-143.828 -418.341)" fill="#bc3500"/>
        <path id="Trazado_1080475" data-name="Trazado 1080475" d="M166.48,423.684a4.312,4.312,0,0,0-2.913-1.991,5.973,5.973,0,0,0-4.13.294,4.037,4.037,0,0,0-.845,6.429c.382.368.965-.213.583-.582a3.206,3.206,0,0,1,.784-5.19,5.252,5.252,0,0,1,3.39-.156,3.526,3.526,0,0,1,2.421,1.613c.251.466.962.051.711-.416" transform="translate(-144.385 -417.488)" fill="#bc3500"/>
        <path id="Trazado_1080476" data-name="Trazado 1080476" d="M169.633,418.852a4.312,4.312,0,0,0-2.913-1.991,5.973,5.973,0,0,0-4.13.294,4.037,4.037,0,0,0-.844,6.429c.381.368.964-.213.582-.582a3.206,3.206,0,0,1,.784-5.19,5.252,5.252,0,0,1,3.39-.156,3.526,3.526,0,0,1,2.421,1.613c.251.466.962.051.711-.416" transform="translate(-144.942 -416.634)" fill="#bc3500"/>
      </g>
      <g id="Grupo_1209288" data-name="Grupo 1209288" transform="translate(-1730.509 4134.879)">
        <path id="Trazado_1080480" data-name="Trazado 1080480" d="M57.659,449.092l2.794-3.543,2.046-2.6,42.339-21.207,2.828,5.646L65.327,448.59l-3.134.2Z" transform="translate(-57.659 -421.737)" fill="#a197ff"/>
        <rect id="Rectángulo_417879" data-name="Rectángulo 417879" width="5.324" height="6.32" transform="matrix(0.894, -0.448, 0.448, 0.894, 42.415, 2.384)" fill="#f27fff"/>
        <rect id="Rectángulo_417880" data-name="Rectángulo 417880" width="5.324" height="6.32" transform="matrix(0.894, -0.448, 0.448, 0.894, 37.865, 4.663)" fill="#4f4523"/>
        <path id="Trazado_1080481" data-name="Trazado 1080481" d="M57.659,454.181l2.794-3.542c.018.035.05.076.068.113.035-.29.514-.259.65-.01a1.423,1.423,0,0,1,.023.857c-.027.283.014.636.276.753a.826.826,0,0,0,.4.035l1-.1a12.737,12.737,0,0,1-.679,1.593Z" transform="translate(-57.659 -426.827)"/>
        <path id="Trazado_1080482" data-name="Trazado 1080482" d="M91.992,434.5l-17.419,8.726c-.474.237-.058.948.415.711l17.42-8.726c.473-.237.057-.948-.416-.711" transform="translate(-60.61 -423.983)"/>
      </g>
      <g id="Grupo_1209289" data-name="Grupo 1209289" transform="translate(-1740.599 4130.012)">
        <path id="Trazado_1080477" data-name="Trazado 1080477" d="M316.993,407.8l-3.825,2.393-2.8,1.761-47.01,5.688-.758-6.268,47.01-5.688,3.02.864Z" transform="translate(-262.596 -405.689)" fill="#f07a50"/>
        <rect id="Rectángulo_417877" data-name="Rectángulo 417877" width="5.324" height="6.32" transform="translate(0.003 5.683) rotate(-6.902)" fill="#f27fff"/>
        <rect id="Rectángulo_417878" data-name="Rectángulo 417878" width="5.324" height="6.32" transform="translate(5.054 5.072) rotate(-6.902)" fill="#4f4523"/>
        <path id="Trazado_1080478" data-name="Trazado 1080478" d="M327.476,407.988l-3.825,2.393c0-.04-.021-.089-.026-.129-.131.259-.571.069-.615-.21a1.429,1.429,0,0,1,.268-.815c.121-.259.2-.6-.006-.8a.821.821,0,0,0-.366-.169l-.975-.248a12.824,12.824,0,0,1,1.177-1.27Z" transform="translate(-273.079 -405.874)"/>
        <path id="Trazado_1080479" data-name="Trazado 1080479" d="M285.71,413.986l19.342-2.34c.52-.063.525-.887,0-.823l-19.342,2.34c-.52.063-.526.887,0,.823" transform="translate(-266.61 -406.595)"/>
      </g>
    </g>
  </g>
</svg>
