<svg xmlns="http://www.w3.org/2000/svg" xmlns:xlink="http://www.w3.org/1999/xlink" width="103" height="103" viewBox="0 0 103 103">
  <defs>
    <filter id="Trazado_978624" x="0" y="0" width="103" height="103" filterUnits="userSpaceOnUse">
      <feOffset dy="3" input="SourceAlpha"/>
      <feGaussianBlur stdDeviation="3" result="blur"/>
      <feFlood flood-opacity="0.161"/>
      <feComposite operator="in" in2="blur"/>
      <feComposite in="SourceGraphic"/>
    </filter>
  </defs>
  <g id="Grupo_1209284" data-name="Grupo 1209284" transform="translate(-160 -4021)">
    <g id="Grupo_1207977" data-name="Grupo 1207977" transform="translate(0 -1867)">
      <g id="Grupo_1206641" data-name="Grupo 1206641" transform="translate(0 -7254)">
        <g id="Grupo_1185491" data-name="Grupo 1185491" transform="translate(0 9912)">
          <g id="Grupo_1183826" data-name="Grupo 1183826" transform="translate(-11 -401)">
            <g id="Grupo_1164359" data-name="Grupo 1164359" transform="translate(180 3637)">
              <g id="Grupo_1144531" data-name="Grupo 1144531">
                <g transform="matrix(1, 0, 0, 1, -9, -6)" filter="url(#Trazado_978624)">
                  <g id="Trazado_978624-2" data-name="Trazado 978624" transform="translate(9 6)" fill="#fff9e9">
                    <path d="M 42.5 83.5 C 36.96437835693359 83.5 31.59512901306152 82.41617584228516 26.54141235351562 80.27863311767578 C 21.65934181213379 78.21369171142578 17.27447128295898 75.25723266601562 13.50862312316895 71.49137878417969 C 9.742764472961426 67.72553253173828 6.786305904388428 63.34066009521484 4.721364498138428 58.45858764648438 C 2.583823442459106 53.40486907958984 1.5 48.03562164306641 1.5 42.5 C 1.5 36.96437835693359 2.583823442459106 31.59512901306152 4.721364498138428 26.54141235351562 C 6.786305904388428 21.65934181213379 9.742764472961426 17.27447128295898 13.50862312316895 13.50862312316895 C 17.27447128295898 9.742764472961426 21.65934181213379 6.786305904388428 26.54141235351562 4.721364498138428 C 31.59512901306152 2.583823442459106 36.96437835693359 1.5 42.5 1.5 C 48.03562164306641 1.5 53.40486907958984 2.583823442459106 58.45858764648438 4.721364498138428 C 63.34066009521484 6.786305904388428 67.72553253173828 9.742764472961426 71.49137878417969 13.50862312316895 C 75.25723266601562 17.27447128295898 78.21369171142578 21.65934181213379 80.27863311767578 26.54141235351562 C 82.41617584228516 31.59512901306152 83.5 36.96437835693359 83.5 42.5 C 83.5 48.03562164306641 82.41617584228516 53.40486907958984 80.27863311767578 58.45858764648438 C 78.21369171142578 63.34066009521484 75.25723266601562 67.72553253173828 71.49137878417969 71.49137878417969 C 67.72553253173828 75.25723266601562 63.34066009521484 78.21369171142578 58.45858764648438 80.27863311767578 C 53.40486907958984 82.41617584228516 48.03562164306641 83.5 42.5 83.5 Z" stroke="none"/>
                    <path d="M 42.5 3 C 37.16621398925781 3 31.99356079101562 4.043960571289062 27.125732421875 6.102882385253906 C 22.42246627807617 8.092185974121094 18.19785308837891 10.94070434570312 14.56928253173828 14.56928253173828 C 10.94070434570312 18.19785308837891 8.092185974121094 22.42246627807617 6.102882385253906 27.125732421875 C 4.043960571289062 31.99356079101562 3 37.16621398925781 3 42.5 C 3 47.83378601074219 4.043960571289062 53.00643920898438 6.102882385253906 57.87425231933594 C 8.092185974121094 62.57753372192383 10.94070434570312 66.80213165283203 14.56928253173828 70.43071746826172 C 18.19786834716797 74.05929565429688 22.42246627807617 76.90781402587891 27.125732421875 78.89711761474609 C 31.99356079101562 80.95603942871094 37.16621398925781 82 42.5 82 C 47.83378601074219 82 53.00642395019531 80.95603942871094 57.87425231933594 78.89711761474609 C 62.57753372192383 76.90781402587891 66.80213165283203 74.05929565429688 70.43071746826172 70.43071746826172 C 74.05929565429688 66.80213165283203 76.90781402587891 62.57753372192383 78.89711761474609 57.87425231933594 C 80.95603942871094 53.00642395019531 82 47.83378601074219 82 42.5 C 82 37.16621398925781 80.95603942871094 31.99356079101562 78.89711761474609 27.125732421875 C 76.90781402587891 22.42246627807617 74.05929565429688 18.19786834716797 70.43071746826172 14.56928253173828 C 66.80213165283203 10.94070434570312 62.57753372192383 8.092185974121094 57.87425231933594 6.102882385253906 C 53.00643920898438 4.043960571289062 47.83378601074219 3 42.5 3 M 42.5 0 C 65.97209167480469 0 85 19.02789306640625 85 42.5 C 85 65.97209167480469 65.97209167480469 85 42.5 85 C 19.02789306640625 85 0 65.97209167480469 0 42.5 C 0 19.02789306640625 19.02789306640625 0 42.5 0 Z" stroke="none" fill="#8b701c"/>
                  </g>
                </g>
              </g>
            </g>
          </g>
        </g>
      </g>
    </g>
    <g id="ortografia_1_" data-name="ortografia (1)" transform="translate(182.009 3989.366)">
      <g id="Grupo_1209282" data-name="Grupo 1209282" transform="translate(0.864 58.101)">
        <path id="Trazado_1080446" data-name="Trazado 1080446" d="M67.361,102.038l-7.3-19.251h-.147l-2.042,5.674,2.772,7.315H55.1l-1.538,4.058h8.62l1.38,3.642a2.029,2.029,0,1,0,3.794-1.438Z" transform="translate(-48.259 -80.708)" fill="#b166db"/>
        <path id="Trazado_1080447" data-name="Trazado 1080447" d="M227.854,75.466a6.779,6.779,0,0,0-5.511-10.73H220.22l-.7.244-.821.763-.115.533v2.3l.2.3v-.085h3.565a2.724,2.724,0,0,1,0,5.448h-3.565v-.059l-.126.247v3.647l.126.247V78.3h5.037a3.229,3.229,0,0,1,0,6.457h-5.037V84.7l-.1.154V87l.247,1.075.48.49.888.248h3.526a7.285,7.285,0,0,0,4.039-13.348Z" transform="translate(-194.263 -64.736)" fill="#b166db"/>
        <path id="Trazado_1080448" data-name="Trazado 1080448" d="M134.393,338.582a1.837,1.837,0,0,0-2.562.429l-4.4,6.164a.546.546,0,0,1-.889,0l-4.4-6.164a1.837,1.837,0,0,0-2.991,0l-4.4,6.164a.546.546,0,0,1-.889,0l-4.4-6.164a1.837,1.837,0,0,0-2.991,0l-4.4,6.164a.546.546,0,0,1-.889,0l-4.4-6.164a1.837,1.837,0,0,0-2.991,0l-4.4,6.164a.542.542,0,0,1-.479.227l-.226.267,1.584,3.118h1.057l3.512-4.923a.546.546,0,0,1,.889,0l4.4,6.164a1.837,1.837,0,0,0,2.991,0l4.4-6.164a.546.546,0,0,1,.889,0l4.372,6.129a1.891,1.891,0,0,0,1.074.751,1.839,1.839,0,0,0,1.942-.716l4.4-6.164a.546.546,0,0,1,.889,0l4.4,6.164a1.837,1.837,0,0,0,2.991,0l6.338-8.884a1.837,1.837,0,0,0-.429-2.562Z" transform="translate(-79.351 -306.733)" fill="#00d2fc"/>
        <g id="Grupo_1209277" data-name="Grupo 1209277" transform="translate(20.456 0)">
          <path id="Trazado_1080449" data-name="Trazado 1080449" d="M189.135,86.786V84.757h-.006V78.3h.006V74.242h-.006V68.794h.006V66.765a2.029,2.029,0,0,1,2.029-2.029H187.1a2.029,2.029,0,0,0-2.029,2.029V86.786a2.029,2.029,0,0,0,2.029,2.029h4.063a2.029,2.029,0,0,1-2.029-2.029Z" transform="translate(-185.072 -64.736)" fill="#9956be"/>
        </g>
        <g id="Grupo_1209278" data-name="Grupo 1209278" transform="translate(0 0)">
          <path id="Trazado_1080450" data-name="Trazado 1080450" d="M12.843,83.864l1.538-4.058h-.038l2.772-7.315.019.05,2.17-5.725-.292-.769a2.029,2.029,0,0,0-3.794,0L7.63,86.068a2.029,2.029,0,0,0,3.794,1.438l1.38-3.642Z" transform="translate(-7.498 -64.737)" fill="#9956be"/>
        </g>
        <g id="Grupo_1209279" data-name="Grupo 1209279" transform="translate(1.441 31.508)">
          <path id="Trazado_1080451" data-name="Trazado 1080451" d="M28.149,345.4a.541.541,0,0,1-.41-.227l-4.4-6.164a1.837,1.837,0,1,0-2.991,2.133l6.337,8.884a1.837,1.837,0,0,0,2.991,0l.885-1.241Z" transform="translate(-20.009 -338.24)" fill="#00c2fb"/>
        </g>
        <g id="Grupo_1209280" data-name="Grupo 1209280" transform="translate(41.971 0.195)">
          <path id="Trazado_1080452" data-name="Trazado 1080452" d="M381.7,66.431h-1.427l-3.6,1.416s-2.779,2.362-2.808,2.434-1.339,2.419-1.354,2.506-.677,1.411-.677,1.411l.444.78a7.962,7.962,0,0,1,11.681-3.342,2.029,2.029,0,0,0,2.255-3.373A11.978,11.978,0,0,0,381.7,66.431Z" transform="translate(-371.831 -66.431)" fill="#b166db"/>
          <path id="Trazado_1080453" data-name="Trazado 1080453" d="M388.873,200.659a2.029,2.029,0,0,0-2.814-.559,7.965,7.965,0,0,1-11.747-3.486l-.105.3,1.574,3.8,2.669,3.091,1.8.826,2.659.6.706.1a11.974,11.974,0,0,0,4.694-1.862A2.029,2.029,0,0,0,388.873,200.659Z" transform="translate(-373.932 -181.617)" fill="#b166db"/>
        </g>
        <g id="Grupo_1209281" data-name="Grupo 1209281" transform="translate(37.642 0)">
          <path id="Trazado_1080454" data-name="Trazado 1080454" d="M339.04,80.109a7.954,7.954,0,0,1,0-6.665,12.078,12.078,0,0,1,9.405-8.511,12.039,12.039,0,1,0,0,23.688A12.078,12.078,0,0,1,339.04,80.109Z" transform="translate(-334.251 -64.737)" fill="#9956be"/>
        </g>
      </g>
      <g id="Grupo_1209283" data-name="Grupo 1209283" transform="translate(0 57.237)">
        <path id="Trazado_1080455" data-name="Trazado 1080455" d="M218.694,174.975h-5.037a.864.864,0,0,0-.864.864V182.3a.864.864,0,0,0,.864.864h5.037a4.093,4.093,0,0,0,0-8.186Zm0,6.457h-4.173V176.7h4.173a2.365,2.365,0,0,1,0,4.73Z" transform="translate(-188.279 -161.412)"/>
        <path id="Trazado_1080456" data-name="Trazado 1080456" d="M213.658,99.636h3.565a3.588,3.588,0,0,0,0-7.176h-3.565a.864.864,0,0,0-.864.864v5.448a.864.864,0,0,0,.864.864Zm.864-5.448h2.7a1.86,1.86,0,0,1,0,3.72h-2.7Z" transform="translate(-188.28 -88.402)"/>
        <path id="Trazado_1080457" data-name="Trazado 1080457" d="M65.455,330.774a2.683,2.683,0,0,0-1.753,1.1l-4.139,5.8-4.139-5.8a2.7,2.7,0,0,0-4.4,0l-4.138,5.8-4.138-5.8a2.7,2.7,0,0,0-4.4,0l-4.138,5.8-4.138-5.8a2.7,2.7,0,0,0-4.4,0l-4.138,5.8-4.138-5.8a2.7,2.7,0,0,0-4.4,3.137l6.337,8.884a2.7,2.7,0,0,0,4.4,0l4.138-5.8,4.138,5.8a2.7,2.7,0,0,0,4.4,0l4.138-5.8,4.113,5.766a2.7,2.7,0,0,0,2.229,1.168,2.688,2.688,0,0,0,2.194-1.133l4.138-5.8,4.139,5.8a2.7,2.7,0,0,0,4.4,0l6.338-8.884a2.7,2.7,0,0,0-2.645-4.233ZM66.693,334l-6.338,8.884a.973.973,0,0,1-1.584,0l-4.4-6.164a1.41,1.41,0,0,0-2.3,0l-4.4,6.164a.974.974,0,0,1-1.032.379,1.027,1.027,0,0,1-.577-.413L41.7,336.723a1.41,1.41,0,0,0-2.3,0l-4.4,6.164a.973.973,0,0,1-1.585,0l-4.4-6.164a1.41,1.41,0,0,0-2.3,0l-4.4,6.164a.973.973,0,0,1-1.585,0L14.412,334A.973.973,0,1,1,16,332.873l4.4,6.164a1.41,1.41,0,0,0,2.3,0l4.4-6.164a.973.973,0,0,1,1.585,0l4.4,6.164a1.41,1.41,0,0,0,2.3,0l4.4-6.164a.973.973,0,0,1,1.585,0l4.4,6.164a1.41,1.41,0,0,0,2.3,0l4.4-6.164a.973.973,0,0,1,1.584,0l4.4,6.164a1.41,1.41,0,0,0,2.3,0l4.4-6.164A.973.973,0,1,1,66.693,334Z" transform="translate(-11.062 -299.229)"/>
        <path id="Trazado_1080458" data-name="Trazado 1080458" d="M66.533,133.214a.864.864,0,0,0,.1-.8L63.858,125.1a.864.864,0,0,0-1.616,0l-2.772,7.315a.864.864,0,0,0,.808,1.17h5.545a.864.864,0,0,0,.711-.373Zm-5-1.355,1.521-4.013,1.521,4.013Z" transform="translate(-52.569 -116.79)"/>
        <path id="Trazado_1080459" data-name="Trazado 1080459" d="M54.481,76.061a7.1,7.1,0,0,1-10.823-4.123.864.864,0,1,0-1.672.437A8.832,8.832,0,0,0,55.441,77.5a1.165,1.165,0,1,1,1.295,1.937,11.175,11.175,0,1,1,0-18.587,1.165,1.165,0,0,1-1.295,1.937,8.832,8.832,0,0,0-13.455,5.123.864.864,0,1,0,1.672.437A7.1,7.1,0,0,1,54.48,64.22,2.893,2.893,0,0,0,57.7,59.41,12.892,12.892,0,0,0,37.642,70.14c0,.363.016.723.046,1.079a8.155,8.155,0,0,0-2.074-2.6,7.644,7.644,0,0,0-6.67-11.382H23.349a2.9,2.9,0,0,0-2.893,2.893V78.288L13.186,59.1a2.893,2.893,0,0,0-5.41,0L.188,79.126a2.893,2.893,0,1,0,5.41,2.05l1.169-3.084h1.7a.864.864,0,0,0,0-1.728H6.171a.864.864,0,0,0-.808.558l-1.38,3.642A1.165,1.165,0,1,1,1.8,79.738L9.392,59.717a1.165,1.165,0,0,1,2.179,0l7.588,20.021a1.165,1.165,0,1,1-2.178.826L15.6,76.921a.864.864,0,0,0-.808-.558H12.5a.864.864,0,0,0,0,1.728h1.7l1.169,3.084a2.891,2.891,0,0,0,5.345.154,2.9,2.9,0,0,0,2.641,1.714h7.066a8.159,8.159,0,0,0,8.149-8.112A12.887,12.887,0,0,0,57.7,80.87a2.893,2.893,0,0,0-3.216-4.81ZM30.415,81.316H23.349a1.166,1.166,0,0,1-1.165-1.165V60.13a1.166,1.166,0,0,1,1.165-1.165h5.594a5.915,5.915,0,0,1,4.809,9.362.864.864,0,0,0,.222,1.222,6.421,6.421,0,0,1-3.559,11.766Z" transform="translate(0 -57.237)"/>
      </g>
    </g>
  </g>
</svg>
