<svg xmlns="http://www.w3.org/2000/svg" xmlns:xlink="http://www.w3.org/1999/xlink" width="113" height="113" viewBox="0 0 113 113">
  <defs>
    <filter id="Trazado_982547" x="0" y="0" width="113" height="113" filterUnits="userSpaceOnUse">
      <feOffset dy="3" input="SourceAlpha"/>
      <feGaussianBlur stdDeviation="3" result="blur"/>
      <feFlood flood-opacity="0.161"/>
      <feComposite operator="in" in2="blur"/>
      <feComposite in="SourceGraphic"/>
    </filter>
  </defs>
  <g id="Grupo_1209980" data-name="Grupo 1209980" transform="translate(-901 -6981.292)">
    <g id="Grupo_1206432" data-name="Grupo 1206432" transform="translate(0 -263.56)">
      <g id="Grupo_1185085" data-name="Grupo 1185085" transform="translate(0 1906.237)">
        <g id="Grupo_1181937" data-name="Grupo 1181937" transform="translate(0 2335.614)">
          <g id="Grupo_1175138" data-name="Grupo 1175138" transform="translate(910 3009)">
            <g id="Grupo_1172010" data-name="Grupo 1172010">
              <g id="Grupo_1171046" data-name="Grupo 1171046">
                <g id="Grupo_1148525" data-name="Grupo 1148525">
                  <g transform="matrix(1, 0, 0, 1, -9, -6)" filter="url(#Trazado_982547)">
                    <g id="Trazado_982547-2" data-name="Trazado 982547" transform="translate(9 6)" fill="#eaf9f8">
                      <path d="M 47.5 93.5 C 41.28937149047852 93.5 35.26533508300781 92.28397369384766 29.59518623352051 89.88570404052734 C 24.11771965026855 87.56893157958984 19.19813346862793 84.25196075439453 14.97309303283691 80.02691650390625 C 10.74804019927979 75.80186462402344 7.431066513061523 70.88229370117188 5.114293098449707 65.40481567382812 C 2.716026782989502 59.73468017578125 1.5 53.71062850952148 1.5 47.5 C 1.5 41.28937149047852 2.716026782989502 35.26533508300781 5.114293098449707 29.59518623352051 C 7.431066513061523 24.11771965026855 10.74804019927979 19.19813346862793 14.97309303283691 14.97309303283691 C 19.19813346862793 10.74804019927979 24.11771965026855 7.431066513061523 29.59518623352051 5.114293098449707 C 35.26533508300781 2.716026782989502 41.28937149047852 1.5 47.5 1.5 C 53.71062850952148 1.5 59.73468017578125 2.716026782989502 65.40481567382812 5.114293098449707 C 70.88229370117188 7.431066513061523 75.80186462402344 10.74804019927979 80.02691650390625 14.97309303283691 C 84.25196075439453 19.19813346862793 87.56893157958984 24.11771965026855 89.88570404052734 29.59518623352051 C 92.28397369384766 35.26533508300781 93.5 41.28937149047852 93.5 47.5 C 93.5 53.71062850952148 92.28397369384766 59.73468017578125 89.88570404052734 65.40481567382812 C 87.56893157958984 70.88229370117188 84.25196075439453 75.80186462402344 80.02691650390625 80.02691650390625 C 75.80186462402344 84.25196075439453 70.88229370117188 87.56893157958984 65.40481567382812 89.88570404052734 C 59.73468017578125 92.28397369384766 53.71062850952148 93.5 47.5 93.5 Z" stroke="none"/>
                      <path d="M 47.5 3 C 41.49121475219727 3 35.66376876831055 4.176155090332031 30.17950439453125 6.495796203613281 C 24.88084411621094 8.736953735351562 20.12152099609375 11.94598388671875 16.03375244140625 16.03375244140625 C 11.94598388671875 20.12152099609375 8.736953735351562 24.88084411621094 6.495796203613281 30.17950439453125 C 4.176155090332031 35.66376876831055 3 41.49121475219727 3 47.5 C 3 53.50878524780273 4.176155090332031 59.33623123168945 6.495796203613281 64.82049560546875 C 8.736953735351562 70.11915588378906 11.94598388671875 74.87847900390625 16.03375244140625 78.96624755859375 C 20.12152099609375 83.05401611328125 24.88084411621094 86.26304626464844 30.17950439453125 88.50419616699219 C 35.66376876831055 90.82384490966797 41.49121475219727 92 47.5 92 C 53.50878524780273 92 59.33623123168945 90.82384490966797 64.82049560546875 88.50419616699219 C 70.11915588378906 86.26304626464844 74.87847900390625 83.05401611328125 78.96624755859375 78.96624755859375 C 83.05401611328125 74.87847900390625 86.26304626464844 70.11915588378906 88.50419616699219 64.82049560546875 C 90.82384490966797 59.33623123168945 92 53.50878524780273 92 47.5 C 92 41.49121475219727 90.82384490966797 35.66376876831055 88.50419616699219 30.17950439453125 C 86.26304626464844 24.88084411621094 83.05401611328125 20.12152099609375 78.96624755859375 16.03375244140625 C 74.87847900390625 11.94598388671875 70.11915588378906 8.736953735351562 64.82049560546875 6.495796203613281 C 59.33623123168945 4.176155090332031 53.50878524780273 3 47.5 3 M 47.5 0 C 73.7335205078125 0 95 21.2664794921875 95 47.5 C 95 73.7335205078125 73.7335205078125 95 47.5 95 C 21.2664794921875 95 0 73.7335205078125 0 47.5 C 0 21.2664794921875 21.2664794921875 0 47.5 0 Z" stroke="none" fill="#1f7069"/>
                    </g>
                  </g>
                </g>
              </g>
            </g>
          </g>
        </g>
      </g>
    </g>
    <g id="Outline_51_" transform="translate(925.391 7004.682)">
      <g id="Grupo_1209978" data-name="Grupo 1209978" transform="translate(0.943 0.943)">
        <g id="Grupo_1209975" data-name="Grupo 1209975">
          <g id="Grupo_1209974" data-name="Grupo 1209974">
            <path id="Trazado_1081310" data-name="Trazado 1081310" d="M7.5,287.5a8.043,8.043,0,0,0,8.043,8.043H51.737V287.5Z" transform="translate(-7.5 -252.312)" fill="#c9bfcb"/>
            <path id="Trazado_1081311" data-name="Trazado 1081311" d="M87.586,7.5a8.043,8.043,0,0,0-8.043,8.043V42.688A8.043,8.043,0,0,1,71.5,50.731h38.2a8.043,8.043,0,0,0,8.043-8.043V7.5Z" transform="translate(-63.457 -7.5)" fill="#edeaee"/>
            <path id="Trazado_1081312" data-name="Trazado 1081312" d="M84.57,42.688V15.543A8.043,8.043,0,0,1,92.613,7.5H87.586a8.043,8.043,0,0,0-8.043,8.043V42.688A8.043,8.043,0,0,1,71.5,50.731h5.027A8.043,8.043,0,0,0,84.57,42.688Z" transform="translate(-63.457 -7.5)" fill="#dbd4dd"/>
            <path id="Trazado_1081313" data-name="Trazado 1081313" d="M207.543,15.543A8.043,8.043,0,0,0,199.5,7.5h30.161a8.043,8.043,0,0,1,8.043,8.043Z" transform="translate(-175.371 -7.5)" fill="#c9bfcb"/>
          </g>
        </g>
        <g id="Grupo_1209976" data-name="Grupo 1209976" transform="translate(33.868 12.065)">
          <path id="Trazado_1081314" data-name="Trazado 1081314" d="M277.937,136.175s-3.645-7.54,3.393-18.6A31.412,31.412,0,0,1,303.448,103.5a30.873,30.873,0,0,1-12.065,17.971C286.581,124.833,277.937,132.153,277.937,136.175Z" transform="translate(-276.993 -103.5)" fill="#fbc137"/>
          <path id="Trazado_1081315" data-name="Trazado 1081315" d="M300.569,104.015a30.891,30.891,0,0,1-11.195,14.943c-3.774,2.642-9.919,7.727-12.379,11.736a13.344,13.344,0,0,0,.943,5.481c0-4.022,8.644-11.342,13.447-14.7A30.873,30.873,0,0,0,303.45,103.5,21.514,21.514,0,0,0,300.569,104.015Z" transform="translate(-276.995 -103.5)" fill="#fab105"/>
        </g>
        <g id="Grupo_1209977" data-name="Grupo 1209977" transform="translate(24.129 47.253)">
          <path id="Trazado_1081316" data-name="Trazado 1081316" d="M212.57,389.532V383.5h-8.043v6.032l-5.027,3.016v6.032h18.1v-6.032Z" transform="translate(-199.5 -383.5)" fill="#937f98"/>
          <path id="Trazado_1081317" data-name="Trazado 1081317" d="M208.548,389.532V383.5h-4.022v6.032l-5.027,3.016v6.032h6.032v-6.032Z" transform="translate(-199.5 -383.5)" fill="#816a87"/>
          <path id="Trazado_1081318" data-name="Trazado 1081318" d="M199.5,455.5h18.1v6.032H199.5Z" transform="translate(-199.5 -446.452)" fill="#746eff"/>
          <path id="Trazado_1081319" data-name="Trazado 1081319" d="M199.5,455.5h6.032v6.032H199.5Z" transform="translate(-199.5 -446.452)" fill="#524aff"/>
        </g>
      </g>
      <g id="Grupo_1209979" data-name="Grupo 1209979" transform="translate(0 0)">
        <path id="Trazado_1081320" data-name="Trazado 1081320" d="M32.047,151.679a.942.942,0,0,0-.943-.943H14.486a8.976,8.976,0,0,0,3.485-7.1V123.9a.943.943,0,1,0-1.885,0v18.793H.943a.942.942,0,0,0-.943.943,9,9,0,0,0,8.986,8.986H31.1A.942.942,0,0,0,32.047,151.679Zm-23.061-.943a7.111,7.111,0,0,1-7.038-6.158H16.022A7.11,7.11,0,0,1,8.986,150.736Z" transform="translate(0 -107.505)"/>
        <path id="Trazado_1081321" data-name="Trazado 1081321" d="M167.147,0H136.986A9,9,0,0,0,128,8.986v3.18a.943.943,0,1,0,1.885,0V8.986a7.1,7.1,0,0,1,14.2,0,.942.942,0,0,0,.943.943H166.2v3.86q-.666.248-1.368.544a32.228,32.228,0,0,0-12.031,8.8c-.022,0-.043,0-.065,0h-5.7a.943.943,0,0,0,0,1.885h4.293c-.364.5-.721,1.024-1.067,1.568-5.709,8.971-4.614,15.8-3.878,18.323a.947.947,0,0,0,.065.161q-.344,1.1-.612,2.192h-3.829a.942.942,0,0,0-.943.943v3.079h-.063a.943.943,0,1,0,0,1.885h.063v.534L136.5,56.436a.953.953,0,0,0-.458.808v6.032a.942.942,0,0,0,.943.943h18.1a.942.942,0,0,0,.943-.943V57.244a.953.953,0,0,0-.458-.808L151,53.694V53.16h.063a.943.943,0,1,0,0-1.885H151V48.2a.942.942,0,0,0-.943-.943h-2.142c.221-.838.5-1.763.857-2.77a.935.935,0,0,0,.254-.328c1.791-3.868,8.535-9.538,12.631-12.405a29.817,29.817,0,0,0,4.549-3.93v8.311a7.109,7.109,0,0,1-7.1,7.1h-7.038a.943.943,0,0,0,0,1.885H159.1a9,9,0,0,0,8.986-8.986V25.637a32.752,32.752,0,0,0,3.675-5.871,29.827,29.827,0,0,0,2.265-6.224,1,1,0,0,0-1.3-1.434,28.109,28.109,0,0,0-4.64,1.039V9.928h7.1a.942.942,0,0,0,.943-.943A9,9,0,0,0,167.147,0ZM149.571,55.036,151.68,56.3h-4.955a.943.943,0,0,0,0,1.885h7.416v4.147H137.928V58.186h4.084a.943.943,0,1,0,0-1.885h-1.624l2.109-1.265a.942.942,0,0,0,.458-.808V53.16h6.158v1.068A.942.942,0,0,0,149.571,55.036Zm-.458-3.762h-6.158V49.138h6.158ZM165.505,16.1a31.782,31.782,0,0,1,3.836-1.349,89.467,89.467,0,0,0-13.6,13.55l-1.8-3.59A30.3,30.3,0,0,1,165.505,16.1Zm-4.534,13.826-.022,0-4.527.808q1.02-1.347,2.192-2.747l5.179-.418A27.789,27.789,0,0,1,160.972,29.922Zm-9.115-2.333q.4-.625.814-1.212l1.569,3.138a.936.936,0,0,0,.294.342q-.977,1.306-1.863,2.622-1.1,1.64-2.05,3.276l-.637-4.776c0-.007,0-.013,0-.019A31.707,31.707,0,0,1,151.856,27.588Zm-3.292,7,.531,3.985q-.759,1.515-1.382,3.02A19.193,19.193,0,0,1,148.564,34.592Zm3.561,2.63c.775-1.365,1.67-2.8,2.7-4.289l2.76-.493A68.081,68.081,0,0,0,152.125,37.222Zm13.619-11.7-5.357.432a93.589,93.589,0,0,1,11.065-10.325A30.891,30.891,0,0,1,170.041,19,30.7,30.7,0,0,1,165.744,25.52ZM145.922,8.043a8.984,8.984,0,0,0-3.436-6.158h24.661a7.111,7.111,0,0,1,7.038,6.158Z" transform="translate(-111.914 0)"/>
        <path id="Trazado_1081322" data-name="Trazado 1081322" d="M184.943,105.885H195A.943.943,0,1,0,195,104H184.943a.943.943,0,1,0,0,1.885Z" transform="translate(-160.876 -90.93)"/>
        <path id="Trazado_1081323" data-name="Trazado 1081323" d="M307,105.885A.943.943,0,0,0,307,104H296.943a.943.943,0,1,0,0,1.885Z" transform="translate(-258.801 -90.93)"/>
        <path id="Trazado_1081324" data-name="Trazado 1081324" d="M184.943,145.885h17.092a.943.943,0,0,0,0-1.885H184.943a.943.943,0,1,0,0,1.885Z" transform="translate(-160.876 -125.903)"/>
        <path id="Trazado_1081325" data-name="Trazado 1081325" d="M184.943,185.885h7.038a.943.943,0,1,0,0-1.885h-7.038a.943.943,0,1,0,0,1.885Z" transform="translate(-160.876 -160.876)"/>
        <path id="Trazado_1081326" data-name="Trazado 1081326" d="M184.943,225.885h6.032a.943.943,0,0,0,0-1.885h-6.032a.943.943,0,0,0,0,1.885Z" transform="translate(-160.876 -195.849)"/>
      </g>
    </g>
  </g>
</svg>
