<svg xmlns="http://www.w3.org/2000/svg" xmlns:xlink="http://www.w3.org/1999/xlink" width="400" height="376" viewBox="0 0 400 376">
  <defs>
    <clipPath id="clip-path">
      <rect id="Rectángulo_417883" data-name="Rectángulo 417883" width="400" height="376" transform="translate(176 4643.003)" fill="#fff" stroke="#707070" stroke-width="1"/>
    </clipPath>
  </defs>
  <g id="Enmascarar_grupo_1098882" data-name="Enmascarar grupo 1098882" transform="translate(-176 -4643.003)" clip-path="url(#clip-path)">
    <g id="Grupo_1209564" data-name="Grupo 1209564" transform="translate(180 4646.98)">
      <g id="Grupo_1209565" data-name="Grupo 1209565">
        <g id="OBJECTS" transform="translate(0 0)">
          <g id="Grupo_1209330" data-name="Grupo 1209330" transform="translate(0 0)">
            <g id="Grupo_1209294" data-name="Grupo 1209294" transform="translate(0 0)">
              <g id="Grupo_1209292" data-name="Grupo 1209292" transform="translate(0)">
                <path id="Trazado_1080499" data-name="Trazado 1080499" d="M362.014,93.237c-52.471-15.128-84.445,29.34-138.127,29.34h0c-53.681,0-85.636-44.466-138.106-29.34C19.934,112.221,7.6,234.183,63.642,319.658c52.44,79.986,160.245,88.465,160.245,88.465v-.273l.02.273s107.806-8.479,160.245-88.465C440.192,234.183,427.862,112.221,362.014,93.237Z" transform="translate(-28.095 -90.098)" fill="#ffe6f8"/>
              </g>
              <g id="Grupo_1209293" data-name="Grupo 1209293" transform="translate(2.118 335.173)">
                <path id="Trazado_1080500" data-name="Trazado 1080500" d="M447.171,418.42H67.83c-4.8,0-6.907-5.189-3.138-7.736l23.216-15.691a5.622,5.622,0,0,1,3.138-.932H420.6a5.676,5.676,0,0,1,2.875.766l26.572,15.691C454.135,412.932,452.139,418.42,447.171,418.42Z" transform="translate(-62.757 -394.061)" fill="#ffe6f8"/>
              </g>
            </g>
            <g id="Grupo_1209298" data-name="Grupo 1209298" transform="translate(331.073 167.028)">
              <g id="Grupo_1209296" data-name="Grupo 1209296" transform="translate(0 0)">
                <g id="Grupo_1209295" data-name="Grupo 1209295">
                  <path id="Trazado_1080501" data-name="Trazado 1080501" d="M441.1,414.277s18.719-36.322,15.3-50.169c-1.158-4.684-7.516-12.337-13-17.92-6.032-6.138-5.86-14.116-2.567-17.612,2.516-2.671,5.561-2.915,6.437-5.63,1.086-3.365-.882-8.88-7.859-15.751s-16.782-25.253-10.616-31.187,10.822,5.785,15.355,5.925-5.431-23.224,3.26-33.778,19.779-7.674,24.466,5.452-3.346,21.553-5.009,24.274-3.379,10.355,4.462,7.382c9.719-3.685,12.074,8.557,6.866,20.707s-11.353,22.1-3.537,27.66c11.934,8.492,15.145,16.991,10.99,31.94-3.761,13.534-21,39.382-34.837,49.2Z" transform="translate(-426.843 -241.728)" fill="#f8b3ff"/>
                </g>
              </g>
              <g id="Grupo_1209297" data-name="Grupo 1209297" transform="translate(9.503 15.89)">
                <path id="Trazado_1080502" data-name="Trazado 1080502" d="M444.112,413.6a.552.552,0,0,1-.45-.871c.185-.262,18.584-26.334,23.082-43.575,3.707-14.216-.764-25.307-5.087-36.034a100.277,100.277,0,0,1-5.211-15.243c-5.866-26.067-6.229-40.395-1.551-61.319a.553.553,0,0,1,1.078.242c-4.637,20.738-4.275,34.953,1.551,60.836a97.9,97.9,0,0,0,5.156,15.071c4.392,10.892,8.932,22.156,5.132,36.725-4.548,17.437-23.062,43.671-23.247,43.935A.551.551,0,0,1,444.112,413.6Z" transform="translate(-434.611 -256.123)" fill="#b375db"/>
                <path id="Trazado_1080503" data-name="Trazado 1080503" d="M454.654,299.236a.548.548,0,0,1-.362-.136l-18.65-16.236a.552.552,0,0,1,.724-.832l18.65,16.236a.552.552,0,0,1-.362.968Z" transform="translate(-435.452 -253.448)" fill="#b375db"/>
                <path id="Trazado_1080504" data-name="Trazado 1080504" d="M455,311.06a.551.551,0,0,1-.466-.848l13.877-21.821a.552.552,0,0,1,.931.593L455.461,310.8A.55.55,0,0,1,455,311.06Z" transform="translate(-433.481 -252.801)" fill="#b375db"/>
                <path id="Trazado_1080505" data-name="Trazado 1080505" d="M465.6,335.756a.561.561,0,0,1-.192-.034l-19.2-7.118a.552.552,0,0,1,.383-1.035l19.2,7.118a.552.552,0,0,1-.192,1.07Z" transform="translate(-434.373 -248.711)" fill="#b375db"/>
              </g>
            </g>
            <g id="Grupo_1209301" data-name="Grupo 1209301" transform="translate(342.581 318.959)">
              <g id="Grupo_1209299" data-name="Grupo 1209299">
                <path id="Trazado_1080506" data-name="Trazado 1080506" d="M491.718,381.913s-5.723,20.163-42.329,19.077l-6.695.038S458.677,370.539,491.718,381.913Z" transform="translate(-442.695 -379.372)" fill="#ffe6f8"/>
              </g>
              <g id="Grupo_1209300" data-name="Grupo 1209300" transform="translate(4.307 4.654)">
                <path id="Trazado_1080507" data-name="Trazado 1080507" d="M447.149,401.146a.551.551,0,0,1-.382-.949c.157-.151,15.893-15.1,36.191-16.608a.552.552,0,0,1,.082,1.1c-19.894,1.478-35.354,16.153-35.508,16.3A.552.552,0,0,1,447.149,401.146Z" transform="translate(-446.597 -383.588)" fill="#f8b3ff"/>
              </g>
            </g>
            <g id="Grupo_1209310" data-name="Grupo 1209310" transform="translate(339.339 89.42)">
              <g id="Grupo_1209302" data-name="Grupo 1209302" transform="translate(28.908 35.113)">
                <path id="Trazado_1080508" data-name="Trazado 1080508" d="M450.537,221.242c-5.714,7.189-12.77,11.092-15.758,8.717s-.777-10.128,4.937-17.318,12.77-11.092,15.758-8.717S456.251,214.053,450.537,221.242Z" transform="translate(-433.448 -203.229)" fill="#f8b3ff"/>
              </g>
              <g id="Grupo_1209303" data-name="Grupo 1209303" transform="translate(0 50.007)">
                <path id="Trazado_1080509" data-name="Trazado 1080509" d="M423.488,228.079c4.592,7.954,5.635,15.948,2.33,17.856s-9.707-2.992-14.3-10.945-5.635-15.948-2.33-17.856S418.9,220.125,423.488,228.079Z" transform="translate(-407.258 -216.722)" fill="#f8b3ff"/>
              </g>
              <g id="Grupo_1209304" data-name="Grupo 1209304" transform="translate(1.344)">
                <path id="Trazado_1080510" data-name="Trazado 1080510" d="M436.909,189.388c3.456,11.9.2,23.3-7.269,25.47s-16.327-5.715-19.783-17.611-.2-23.3,7.27-25.47S433.453,177.492,436.909,189.388Z" transform="translate(-408.476 -171.418)" fill="#f8b3ff"/>
              </g>
              <g id="Grupo_1209308" data-name="Grupo 1209308" transform="translate(6.277 12.04)">
                <g id="Grupo_1209305" data-name="Grupo 1209305" transform="translate(6.085)">
                  <path id="Trazado_1080511" data-name="Trazado 1080511" d="M419.009,289.251a.552.552,0,0,1-.449-.872c.255-.359,25.4-36.421,8.716-79.964l-7.5-25.381a.552.552,0,0,1,1.059-.312l7.486,25.339c16.886,44.069-8.6,80.6-8.861,80.958A.555.555,0,0,1,419.009,289.251Z" transform="translate(-418.457 -182.326)" fill="#b375db"/>
                </g>
                <g id="Grupo_1209306" data-name="Grupo 1209306" transform="translate(20.662 30.811)">
                  <path id="Trazado_1080512" data-name="Trazado 1080512" d="M432.215,232.975a.552.552,0,0,1-.43-.9l17.241-21.632a.551.551,0,1,1,.862.688l-17.241,21.632A.549.549,0,0,1,432.215,232.975Z" transform="translate(-431.663 -210.239)" fill="#b375db"/>
                </g>
                <g id="Grupo_1209307" data-name="Grupo 1209307" transform="translate(0 46.181)">
                  <path id="Trazado_1080513" data-name="Trazado 1080513" d="M431.967,255.035a.553.553,0,0,1-.469-.26l-18.47-29.768a.552.552,0,1,1,.938-.583l18.47,29.768a.552.552,0,0,1-.469.843Z" transform="translate(-412.945 -224.164)" fill="#b375db"/>
                </g>
              </g>
              <g id="Grupo_1209309" data-name="Grupo 1209309" transform="translate(12.362 23.559)">
                <path id="Trazado_1080514" data-name="Trazado 1080514" d="M428,208.242a.552.552,0,0,1-.392-.163l-8.992-9.085a.552.552,0,1,1,.785-.776l8.184,8.269,1.529-13.236a.552.552,0,0,1,1.1.127l-1.661,14.377a.552.552,0,0,1-.369.458A.575.575,0,0,1,428,208.242Z" transform="translate(-418.458 -192.761)" fill="#b375db"/>
              </g>
            </g>
            <g id="Grupo_1209319" data-name="Grupo 1209319" transform="translate(0 96.138)">
              <g id="Grupo_1209311" data-name="Grupo 1209311" transform="translate(37.885)">
                <path id="Trazado_1080515" data-name="Trazado 1080515" d="M69.193,190.963c-2.837,8.734-1.595,16.965,2.773,18.384S82.173,204.833,85.01,196.1s1.595-16.965-2.773-18.384S72.03,182.227,69.193,190.963Z" transform="translate(-67.671 -177.504)" fill="#f8b3ff"/>
              </g>
              <g id="Grupo_1209312" data-name="Grupo 1209312" transform="translate(43.601 43.288)">
                <path id="Trazado_1080516" data-name="Trazado 1080516" d="M77.11,228.079c-4.592,7.954-5.635,15.948-2.33,17.856s9.708-2.992,14.3-10.945,5.635-15.948,2.329-17.856S81.7,220.125,77.11,228.079Z" transform="translate(-72.849 -216.722)" fill="#f8b3ff"/>
              </g>
              <g id="Grupo_1209313" data-name="Grupo 1209313" transform="translate(0 14.144)">
                <path id="Trazado_1080517" data-name="Trazado 1080517" d="M38.73,218.372c6.877,10.3,17.7,15.156,24.168,10.838s6.14-16.173-.736-26.477-17.7-15.156-24.168-10.838S31.852,208.067,38.73,218.372Z" transform="translate(-33.348 -190.318)" fill="#f8b3ff"/>
              </g>
              <g id="Grupo_1209317" data-name="Grupo 1209317" transform="translate(13.316 5.323)">
                <g id="Grupo_1209314" data-name="Grupo 1209314" transform="translate(22.782)">
                  <path id="Trazado_1080518" data-name="Trazado 1080518" d="M81.133,289.251a.553.553,0,0,1-.45-.232c-.259-.363-25.747-36.889-8.848-81l7.473-25.3a.552.552,0,0,1,1.059.312l-7.487,25.339c-16.7,43.6,8.446,79.646,8.7,80.006a.552.552,0,0,1-.448.872Z" transform="translate(-66.051 -182.327)" fill="#b375db"/>
                </g>
                <g id="Grupo_1209315" data-name="Grupo 1209315" transform="translate(0 23.179)">
                  <path id="Trazado_1080519" data-name="Trazado 1080519" d="M68.7,233.693a.553.553,0,0,1-.437-.213L45.528,204.217a.552.552,0,1,1,.872-.678L69.133,232.8a.553.553,0,0,1-.1.775A.547.547,0,0,1,68.7,233.693Z" transform="translate(-45.412 -203.326)" fill="#b375db"/>
                </g>
                <g id="Grupo_1209316" data-name="Grupo 1209316" transform="translate(24.923 46.179)">
                  <path id="Trazado_1080520" data-name="Trazado 1080520" d="M68.543,255.035a.552.552,0,0,1-.468-.843l18.47-29.768a.552.552,0,1,1,.937.583l-18.47,29.768A.55.55,0,0,1,68.543,255.035Z" transform="translate(-67.992 -224.163)" fill="#b375db"/>
                </g>
              </g>
              <g id="Grupo_1209318" data-name="Grupo 1209318" transform="translate(13.317 38.328)">
                <path id="Trazado_1080521" data-name="Trazado 1080521" d="M55.6,215.906a.526.526,0,0,1-.142-.019l-9.633-2.574a.552.552,0,0,1,.285-1.066l9.633,2.574a.552.552,0,0,1-.142,1.085Z" transform="translate(-45.413 -212.228)" fill="#b375db"/>
              </g>
            </g>
            <g id="Grupo_1209326" data-name="Grupo 1209326" transform="translate(0 162.221)">
              <g id="Grupo_1209320" data-name="Grupo 1209320">
                <path id="Trazado_1080522" data-name="Trazado 1080522" d="M65.428,416.852s-26.91-17.013-37.178-31.667c-11.343-16.187.509-17.69.5-25.5-.011-9.368-5.358-13.56-13.072-24.116s-2.162-20.729,6.606-20.9.408-14.137-1.99-18.9-7.4-18.719.068-27.011,8.6-5.432,10.491-15.335S45.6,229.84,57.25,235.146,72.295,262.8,62.267,277.3s-9.1,18.64-4.832,22.47,8.692,10.572,1.857,19.781S45.359,341.376,53.929,351.4c9.015,10.541,7.443,17.5,6.321,22.29C56.87,388.138,57.6,391.324,73.628,415.7Z" transform="translate(-12.013 -233.963)" fill="#f8b3ff"/>
              </g>
              <g id="Grupo_1209325" data-name="Grupo 1209325" transform="translate(8.114 25.133)">
                <g id="Grupo_1209321" data-name="Grupo 1209321" transform="translate(16.399)">
                  <path id="Trazado_1080523" data-name="Trazado 1080523" d="M66.443,414.576a.553.553,0,0,1-.392-.163c-.268-.269-26.8-27.461-30.707-68.835-4.69-49.636,6.808-88.072,6.925-88.454a.552.552,0,1,1,1.055.321c-.116.381-11.55,38.622-6.882,88.029,3.871,40.967,30.127,67.9,30.392,68.163a.551.551,0,0,1-.392.939Z" transform="translate(-34.221 -256.732)" fill="#b375db"/>
                </g>
                <g id="Grupo_1209322" data-name="Grupo 1209322" transform="translate(4.747 19.155)">
                  <path id="Trazado_1080524" data-name="Trazado 1080524" d="M36.91,296.355a.552.552,0,0,1-.474-.268L23.743,274.922a.552.552,0,1,1,.946-.567L37.382,295.52a.553.553,0,0,1-.189.757A.545.545,0,0,1,36.91,296.355Z" transform="translate(-23.665 -274.086)" fill="#b375db"/>
                </g>
                <g id="Grupo_1209323" data-name="Grupo 1209323" transform="translate(16.389 50.263)">
                  <path id="Trazado_1080525" data-name="Trazado 1080525" d="M34.764,317.466a.552.552,0,0,1-.376-.956l15.138-14.093a.552.552,0,0,1,.753.808L35.14,317.318A.55.55,0,0,1,34.764,317.466Z" transform="translate(-34.212 -302.269)" fill="#b375db"/>
                </g>
                <g id="Grupo_1209324" data-name="Grupo 1209324" transform="translate(0 67.971)">
                  <path id="Trazado_1080526" data-name="Trazado 1080526" d="M36.662,329.115a.545.545,0,0,1-.276-.074l-16.746-9.7a.552.552,0,0,1,.553-.956l16.746,9.7a.552.552,0,0,1-.277,1.03Z" transform="translate(-19.364 -318.311)" fill="#b375db"/>
                </g>
              </g>
            </g>
            <g id="Grupo_1209329" data-name="Grupo 1209329" transform="translate(0 318.959)">
              <g id="Grupo_1209327" data-name="Grupo 1209327">
                <path id="Trazado_1080527" data-name="Trazado 1080527" d="M15.526,371.616S18.943,394.5,54.911,401.4l8.631.056S51.375,365.1,15.526,371.616Z" transform="translate(-15.526 -370.835)" fill="#ffe6f8"/>
              </g>
              <g id="Grupo_1209328" data-name="Grupo 1209328" transform="translate(9.021 4.957)">
                <path id="Trazado_1080528" data-name="Trazado 1080528" d="M58.374,401.487a.551.551,0,0,1-.446-.226c-.111-.151-11.348-15.251-33.893-24.875a.552.552,0,0,1,.433-1.016c22.839,9.75,34.239,25.086,34.351,25.239a.552.552,0,0,1-.445.878Z" transform="translate(-23.699 -375.326)" fill="#f8b3ff"/>
              </g>
            </g>
          </g>
          <g id="Grupo_1209429" data-name="Grupo 1209429" transform="translate(0 30.694)">
            <g id="Grupo_1209400" data-name="Grupo 1209400">
              <g id="Grupo_1209331" data-name="Grupo 1209331" transform="translate(0 18.428)">
                <path id="Trazado_1080529" data-name="Trazado 1080529" d="M437.8,380.44,371.242,146.876a6.179,6.179,0,0,0-5.942-4.485H119.168a6.178,6.178,0,0,0-5.942,4.485L46.673,380.44a6.178,6.178,0,0,0,5.941,7.871H431.855A6.178,6.178,0,0,0,437.8,380.44Z" transform="translate(-46.433 -142.391)" fill="#213059"/>
              </g>
              <g id="Grupo_1209332" data-name="Grupo 1209332" transform="translate(13.744 0.404)">
                <path id="Trazado_1080530" data-name="Trazado 1080530" d="M424.817,358.385l-61.86-224.506C307.222,108.11,242.8,139.014,242.8,139.014s-64.418-30.9-120.152-5.135L60.792,358.385a1.221,1.221,0,0,0,1.6,1.472c.47-.173,1.01-.371,1.617-.59h0l19.818,28.3H237l5.8-5.354,5.8,5.354H401.783l19.818-28.3h0c.607.219,1.147.417,1.617.59A1.221,1.221,0,0,0,424.817,358.385Z" transform="translate(-60.747 -123.621)" fill="#fff"/>
              </g>
              <g id="Grupo_1209333" data-name="Grupo 1209333" transform="translate(17.007 214.769)">
                <path id="Trazado_1080531" data-name="Trazado 1080531" d="M242.94,369.581c-46.765-45.9-156.876-9.345-178.8-1.432l19.817,28.3H237.137l5.8-5.354,5.8,5.354H401.918l19.818-28.3C399.815,360.236,289.7,323.678,242.94,369.581Z" transform="translate(-64.144 -346.867)" fill="#f8b3ff"/>
              </g>
              <g id="Grupo_1209398" data-name="Grupo 1209398" transform="translate(22.437)">
                <g id="Grupo_1209334" data-name="Grupo 1209334" transform="translate(172.405 15.245)">
                  <path id="Trazado_1080532" data-name="Trazado 1080532" d="M250.308,383.785a.96.96,0,0,1-.96-.96V140.036a.96.96,0,1,1,1.92,0V382.825A.96.96,0,0,1,250.308,383.785Z" transform="translate(-249.348 -139.076)" fill="#b375db"/>
                </g>
                <g id="Grupo_1209335" data-name="Grupo 1209335" transform="translate(93.698 225.934)">
                  <path id="Trazado_1080533" data-name="Trazado 1080533" d="M247.046,378.7a.954.954,0,0,1-.543-.169c-18.967-13.023-45.254-19.077-78.132-17.991a.943.943,0,0,1-.992-.928.959.959,0,0,1,.928-.991c33.3-1.1,59.969,5.066,79.282,18.327a.96.96,0,0,1-.543,1.751Z" transform="translate(-167.379 -358.495)" fill="#b375db"/>
                </g>
                <g id="Grupo_1209336" data-name="Grupo 1209336" transform="translate(0 229.224)">
                  <path id="Trazado_1080534" data-name="Trazado 1080534" d="M70.76,378.834a.96.96,0,0,1-.329-1.862,357.6,357.6,0,0,1,61.02-15.04.96.96,0,1,1,.291,1.9A355.669,355.669,0,0,0,71.09,378.777.964.964,0,0,1,70.76,378.834Z" transform="translate(-69.8 -361.921)" fill="#b375db"/>
                </g>
                <g id="Grupo_1209337" data-name="Grupo 1209337" transform="translate(57.23 237.608)">
                  <path id="Trazado_1080535" data-name="Trazado 1080535" d="M245.535,388.584a.953.953,0,0,1-.544-.171c-29.3-20.245-78.424-17.431-114.474-11.5a.959.959,0,1,1-.311-1.894c36.4-5.985,86.045-8.792,115.877,11.819a.959.959,0,0,1-.547,1.749Z" transform="translate(-129.401 -370.652)" fill="#b375db"/>
                </g>
                <g id="Grupo_1209338" data-name="Grupo 1209338" transform="translate(6.583 246.707)">
                  <path id="Trazado_1080536" data-name="Trazado 1080536" d="M77.616,388.961a.96.96,0,0,1-.291-1.875c.1-.033,10.629-3.358,26.446-6.934a.96.96,0,0,1,.423,1.873c-15.739,3.557-26.184,6.858-26.288,6.891A.951.951,0,0,1,77.616,388.961Z" transform="translate(-76.656 -380.128)" fill="#b375db"/>
                </g>
                <g id="Grupo_1209339" data-name="Grupo 1209339" transform="translate(117.381 251.714)">
                  <path id="Trazado_1080537" data-name="Trazado 1080537" d="M242.224,398.937a.947.947,0,0,1-.419-.1c-13.114-6.36-29.555-10.258-48.866-11.579a.961.961,0,0,1,.132-1.917c19.559,1.34,36.238,5.3,49.573,11.769a.96.96,0,0,1-.42,1.824Z" transform="translate(-192.045 -385.343)" fill="#b375db"/>
                </g>
                <g id="Grupo_1209340" data-name="Grupo 1209340" transform="translate(13.426 252.105)">
                  <path id="Trazado_1080538" data-name="Trazado 1080538" d="M84.742,398.953a.96.96,0,0,1-.262-1.884,382.026,382.026,0,0,1,66.146-11.316.96.96,0,0,1,.15,1.915A379.937,379.937,0,0,0,85,398.917.908.908,0,0,1,84.742,398.953Z" transform="translate(-83.782 -385.749)" fill="#b375db"/>
                </g>
                <g id="Grupo_1209341" data-name="Grupo 1209341" transform="translate(172.405 225.933)">
                  <path id="Trazado_1080539" data-name="Trazado 1080539" d="M250.309,378.7a.961.961,0,0,1-.544-1.752c19.312-13.261,45.982-19.428,79.281-18.327a.959.959,0,0,1,.928.991.933.933,0,0,1-.991.928c-32.866-1.085-59.163,4.968-78.131,17.991A.941.941,0,0,1,250.309,378.7Z" transform="translate(-249.348 -358.494)" fill="#b375db"/>
                </g>
                <g id="Grupo_1209342" data-name="Grupo 1209342" transform="translate(283.973 229.223)">
                  <path id="Trazado_1080540" data-name="Trazado 1080540" d="M427.335,378.834a.97.97,0,0,1-.33-.059,355.543,355.543,0,0,0-60.652-14.946.96.96,0,0,1,.293-1.9,357.811,357.811,0,0,1,61.02,15.04.961.961,0,0,1-.33,1.863Z" transform="translate(-365.538 -361.92)" fill="#b375db"/>
                </g>
                <g id="Grupo_1209343" data-name="Grupo 1209343" transform="translate(172.405 237.606)">
                  <path id="Trazado_1080541" data-name="Trazado 1080541" d="M250.309,388.584a.961.961,0,0,1-.547-1.751c29.831-20.612,79.481-17.8,115.877-11.819a.959.959,0,1,1-.311,1.894c-36.047-5.926-85.171-8.742-114.474,11.5A.941.941,0,0,1,250.309,388.584Z" transform="translate(-249.348 -370.65)" fill="#b375db"/>
                </g>
                <g id="Grupo_1209344" data-name="Grupo 1209344" transform="translate(311.858 246.707)">
                  <path id="Trazado_1080542" data-name="Trazado 1080542" d="M421.907,388.961a.961.961,0,0,1-.291-.045c-.1-.033-10.557-3.335-26.289-6.891a.96.96,0,0,1,.423-1.873c15.818,3.576,26.343,6.9,26.446,6.934a.96.96,0,0,1-.29,1.875Z" transform="translate(-394.578 -380.128)" fill="#b375db"/>
                </g>
                <g id="Grupo_1209345" data-name="Grupo 1209345" transform="translate(178.208 251.713)">
                  <path id="Trazado_1080543" data-name="Trazado 1080543" d="M256.352,398.937a.96.96,0,0,1-.42-1.824c13.336-6.469,30.015-10.429,49.573-11.769a.961.961,0,0,1,.131,1.917c-19.311,1.322-35.753,5.218-48.866,11.579A.929.929,0,0,1,256.352,398.937Z" transform="translate(-255.391 -385.342)" fill="#b375db"/>
                </g>
                <g id="Grupo_1209346" data-name="Grupo 1209346" transform="translate(265.424 252.105)">
                  <path id="Trazado_1080544" data-name="Trazado 1080544" d="M413.14,398.953a.952.952,0,0,1-.262-.036,380.05,380.05,0,0,0-65.772-11.249.96.96,0,0,1,.15-1.915A382.078,382.078,0,0,1,413.4,397.069a.96.96,0,0,1-.263,1.884Z" transform="translate(-346.221 -385.75)" fill="#b375db"/>
                </g>
                <g id="Grupo_1209371" data-name="Grupo 1209371" transform="translate(18.877 35.968)">
                  <g id="Grupo_1209347" data-name="Grupo 1209347" transform="translate(38.793)">
                    <path id="Trazado_1080545" data-name="Trazado 1080545" d="M130.827,164.846l-.968,4.141a210.78,210.78,0,0,1,34.67-4.474l.572-3.856A222.338,222.338,0,0,0,130.827,164.846Z" transform="translate(-129.859 -160.658)" fill="#f8b3ff"/>
                  </g>
                  <g id="Grupo_1209348" data-name="Grupo 1209348" transform="translate(102.828 0.617)">
                    <path id="Trazado_1080546" data-name="Trazado 1080546" d="M232.148,172.471l.165-4a159.8,159.8,0,0,0-35.344-7.171l-.423,3.8A155.39,155.39,0,0,1,232.148,172.471Z" transform="translate(-196.547 -161.301)" fill="#f8b3ff"/>
                  </g>
                  <g id="Grupo_1209349" data-name="Grupo 1209349" transform="translate(101.246 14.845)">
                    <path id="Trazado_1080547" data-name="Trazado 1080547" d="M231.493,187.381l.165-4a155.685,155.685,0,0,0-36.335-7.26l-.423,3.811A151.167,151.167,0,0,1,231.493,187.381Z" transform="translate(-194.9 -176.118)" fill="#ffe6f8"/>
                  </g>
                  <g id="Grupo_1209350" data-name="Grupo 1209350" transform="translate(35.269 14.497)">
                    <path id="Trazado_1080548" data-name="Trazado 1080548" d="M127.162,180.515l-.973,4.165a218.812,218.812,0,0,1,36.04-5.052l.575-3.873A229.685,229.685,0,0,0,127.162,180.515Z" transform="translate(-126.189 -175.756)" fill="#ffe6f8"/>
                  </g>
                  <g id="Grupo_1209351" data-name="Grupo 1209351" transform="translate(31.743 29)">
                    <path id="Trazado_1080549" data-name="Trazado 1080549" d="M123.495,196.186l-.978,4.187a226.648,226.648,0,0,1,37.41-5.636l.576-3.876A237.71,237.71,0,0,0,123.495,196.186Z" transform="translate(-122.517 -190.86)" fill="#ffe6f8"/>
                  </g>
                  <g id="Grupo_1209352" data-name="Grupo 1209352" transform="translate(99.664 29.08)">
                    <path id="Trazado_1080550" data-name="Trazado 1080550" d="M230.837,202.294l.165-4.009a152.149,152.149,0,0,0-37.326-7.342l-.423,3.809A147.493,147.493,0,0,1,230.837,202.294Z" transform="translate(-193.252 -190.943)" fill="#ffe6f8"/>
                  </g>
                  <g id="Grupo_1209353" data-name="Grupo 1209353" transform="translate(28.217 43.502)">
                    <path id="Trazado_1080551" data-name="Trazado 1080551" d="M119.828,211.861l-.983,4.208a235.076,235.076,0,0,1,38.781-6.223l.577-3.883A245.9,245.9,0,0,0,119.828,211.861Z" transform="translate(-118.845 -205.962)" fill="#ffe6f8"/>
                  </g>
                  <g id="Grupo_1209354" data-name="Grupo 1209354" transform="translate(98.081 43.319)">
                    <path id="Trazado_1080552" data-name="Trazado 1080552" d="M230.182,217.206l.165-4.014a149.1,149.1,0,0,0-38.319-7.421l-.423,3.809A144.364,144.364,0,0,1,230.182,217.206Z" transform="translate(-191.604 -205.772)" fill="#ffe6f8"/>
                  </g>
                  <g id="Grupo_1209355" data-name="Grupo 1209355" transform="translate(96.499 57.562)">
                    <path id="Trazado_1080553" data-name="Trazado 1080553" d="M229.526,232.119l.166-4.019a146.475,146.475,0,0,0-39.312-7.5l-.423,3.806C203.133,225.217,216.751,227.478,229.526,232.119Z" transform="translate(-189.956 -220.605)" fill="#ffe6f8"/>
                  </g>
                  <g id="Grupo_1209356" data-name="Grupo 1209356" transform="translate(24.691 58.005)">
                    <path id="Trazado_1080554" data-name="Trazado 1080554" d="M116.16,227.537l-.987,4.227a243.333,243.333,0,0,1,40.152-6.812l.577-3.886A254.893,254.893,0,0,0,116.16,227.537Z" transform="translate(-115.173 -221.066)" fill="#ffe6f8"/>
                  </g>
                  <g id="Grupo_1209357" data-name="Grupo 1209357" transform="translate(94.915 71.806)">
                    <path id="Trazado_1080555" data-name="Trazado 1080555" d="M228.869,247.033l.166-4.023c-12.972-4.619-26.838-6.833-40.306-7.57l-.423,3.806C201.891,239.977,215.876,242.241,228.869,247.033Z" transform="translate(-188.307 -235.439)" fill="#ffe6f8"/>
                  </g>
                  <g id="Grupo_1209358" data-name="Grupo 1209358" transform="translate(21.164 72.508)">
                    <path id="Trazado_1080556" data-name="Trazado 1080556" d="M112.492,243.216l-.992,4.247a252.112,252.112,0,0,1,41.525-7.4l.578-3.895A263.479,263.479,0,0,0,112.492,243.216Z" transform="translate(-111.5 -236.17)" fill="#ffe6f8"/>
                  </g>
                  <g id="Grupo_1209359" data-name="Grupo 1209359" transform="translate(93.333 86.055)">
                    <path id="Trazado_1080557" data-name="Trazado 1080557" d="M228.214,261.947l.166-4.028c-13.2-4.763-27.429-6.978-41.3-7.641l-.423,3.806C200.65,254.738,215,257,228.214,261.947Z" transform="translate(-186.659 -250.278)" fill="#ffe6f8"/>
                  </g>
                  <g id="Grupo_1209360" data-name="Grupo 1209360" transform="translate(17.637 87.01)">
                    <path id="Trazado_1080558" data-name="Trazado 1080558" d="M108.823,258.9l-1,4.264a261.406,261.406,0,0,1,42.9-7.987l.579-3.9A272.7,272.7,0,0,0,108.823,258.9Z" transform="translate(-107.827 -251.273)" fill="#ffe6f8"/>
                  </g>
                  <g id="Grupo_1209361" data-name="Grupo 1209361" transform="translate(91.749 100.305)">
                    <path id="Trazado_1080559" data-name="Trazado 1080559" d="M227.558,276.862l.166-4.033c-13.421-4.909-28.018-7.123-42.293-7.711l-.422,3.8C199.409,269.5,214.131,271.763,227.558,276.862Z" transform="translate(-185.009 -265.119)" fill="#ffe6f8"/>
                  </g>
                  <g id="Grupo_1209362" data-name="Grupo 1209362" transform="translate(14.11 101.514)">
                    <path id="Trazado_1080560" data-name="Trazado 1080560" d="M105.154,274.58l-1,4.282a270.33,270.33,0,0,1,44.269-8.582l.579-3.9A281.985,281.985,0,0,0,105.154,274.58Z" transform="translate(-104.154 -266.378)" fill="#ffe6f8"/>
                  </g>
                  <g id="Grupo_1209363" data-name="Grupo 1209363" transform="translate(10.584 116.017)">
                    <path id="Trazado_1080561" data-name="Trazado 1080561" d="M101.484,290.265l-1,4.3a279.613,279.613,0,0,1,45.641-9.175l.58-3.905A291.637,291.637,0,0,0,101.484,290.265Z" transform="translate(-100.481 -281.482)" fill="#ffe6f8"/>
                  </g>
                  <g id="Grupo_1209364" data-name="Grupo 1209364" transform="translate(90.163 114.561)">
                    <path id="Trazado_1080562" data-name="Trazado 1080562" d="M226.9,291.779l.166-4.037c-13.641-5.055-28.606-7.267-43.288-7.777l-.423,3.8C198.171,284.26,213.264,286.523,226.9,291.779Z" transform="translate(-183.358 -279.965)" fill="#ffe6f8"/>
                  </g>
                  <g id="Grupo_1209365" data-name="Grupo 1209365" transform="translate(7.056 130.522)">
                    <path id="Trazado_1080563" data-name="Trazado 1080563" d="M97.814,305.952l-1.007,4.313a289.234,289.234,0,0,1,47.014-9.766l.581-3.911A301.3,301.3,0,0,0,97.814,305.952Z" transform="translate(-96.807 -296.588)" fill="#ffe6f8"/>
                  </g>
                  <g id="Grupo_1209366" data-name="Grupo 1209366" transform="translate(88.581 128.817)">
                    <path id="Trazado_1080564" data-name="Trazado 1080564" d="M226.247,306.7l.167-4.042c-13.858-5.2-29.192-7.411-44.281-7.842l-.423,3.8C196.937,299.024,212.4,301.284,226.247,306.7Z" transform="translate(-181.71 -294.812)" fill="#ffe6f8"/>
                  </g>
                  <g id="Grupo_1209367" data-name="Grupo 1209367" transform="translate(3.528 145.028)">
                    <path id="Trazado_1080565" data-name="Trazado 1080565" d="M94.144,321.64l-1.011,4.329a298.574,298.574,0,0,1,48.386-10.36l.581-3.914A310.928,310.928,0,0,0,94.144,321.64Z" transform="translate(-93.133 -311.695)" fill="#ffe6f8"/>
                  </g>
                  <g id="Grupo_1209368" data-name="Grupo 1209368" transform="translate(86.996 143.076)">
                    <path id="Trazado_1080566" data-name="Trazado 1080566" d="M225.591,321.613l.167-4.046c-14.072-5.35-29.775-7.555-45.276-7.9l-.422,3.8C195.7,313.79,211.54,316.046,225.591,321.613Z" transform="translate(-180.059 -309.662)" fill="#ffe6f8"/>
                  </g>
                  <g id="Grupo_1209369" data-name="Grupo 1209369" transform="translate(85.41 157.198)">
                    <path id="Trazado_1080567" data-name="Trazado 1080567" d="M224.934,336.526l.167-4.052c-14.391-5.547-30.428-7.8-46.256-8.105l-.438,3.94C194.472,328.55,210.683,330.8,224.934,336.526Z" transform="translate(-178.408 -324.369)" fill="#ffe6f8"/>
                  </g>
                  <g id="Grupo_1209370" data-name="Grupo 1209370" transform="translate(0 159.35)">
                    <path id="Trazado_1080568" data-name="Trazado 1080568" d="M139.827,326.61a311.115,311.115,0,0,0-49.35,10.7l-1.018,4.358a308.464,308.464,0,0,1,49.77-10.953h-.011Z" transform="translate(-89.459 -326.61)" fill="#ffe6f8"/>
                  </g>
                </g>
                <g id="Grupo_1209396" data-name="Grupo 1209396" transform="translate(189.254 35.968)">
                  <g id="Grupo_1209372" data-name="Grupo 1209372" transform="translate(64.558)">
                    <path id="Trazado_1080569" data-name="Trazado 1080569" d="M368.4,164.846l.968,4.141a210.779,210.779,0,0,0-34.67-4.474l-.573-3.856A222.322,222.322,0,0,1,368.4,164.846Z" transform="translate(-334.128 -160.658)" fill="#f8b3ff"/>
                  </g>
                  <g id="Grupo_1209373" data-name="Grupo 1209373" transform="translate(0 0.617)">
                    <path id="Trazado_1080570" data-name="Trazado 1080570" d="M267.06,172.471l-.165-4a159.787,159.787,0,0,1,35.344-7.171l.422,3.8A155.392,155.392,0,0,0,267.06,172.471Z" transform="translate(-266.895 -161.301)" fill="#f8b3ff"/>
                  </g>
                  <g id="Grupo_1209374" data-name="Grupo 1209374" transform="translate(0.591 14.845)">
                    <path id="Trazado_1080571" data-name="Trazado 1080571" d="M267.675,187.381l-.165-4a155.685,155.685,0,0,1,36.335-7.26l.423,3.811A151.158,151.158,0,0,0,267.675,187.381Z" transform="translate(-267.51 -176.118)" fill="#ffe6f8"/>
                  </g>
                  <g id="Grupo_1209375" data-name="Grupo 1209375" transform="translate(66.711 14.497)">
                    <path id="Trazado_1080572" data-name="Trazado 1080572" d="M372.012,180.515l.973,4.165a218.813,218.813,0,0,0-36.04-5.052l-.575-3.873A229.725,229.725,0,0,1,372.012,180.515Z" transform="translate(-336.37 -175.756)" fill="#ffe6f8"/>
                  </g>
                  <g id="Grupo_1209376" data-name="Grupo 1209376" transform="translate(68.865 29)">
                    <path id="Trazado_1080573" data-name="Trazado 1080573" d="M375.622,196.186l.978,4.187a226.648,226.648,0,0,0-37.41-5.636l-.576-3.876A237.687,237.687,0,0,1,375.622,196.186Z" transform="translate(-338.613 -190.86)" fill="#ffe6f8"/>
                  </g>
                  <g id="Grupo_1209377" data-name="Grupo 1209377" transform="translate(1.18 29.08)">
                    <path id="Trazado_1080574" data-name="Trazado 1080574" d="M268.289,202.294l-.165-4.009a152.149,152.149,0,0,1,37.326-7.342l.423,3.809A147.5,147.5,0,0,0,268.289,202.294Z" transform="translate(-268.124 -190.943)" fill="#ffe6f8"/>
                  </g>
                  <g id="Grupo_1209378" data-name="Grupo 1209378" transform="translate(71.019 43.502)">
                    <path id="Trazado_1080575" data-name="Trazado 1080575" d="M379.232,211.861l.983,4.208a235.075,235.075,0,0,0-38.781-6.223l-.577-3.883A245.923,245.923,0,0,1,379.232,211.861Z" transform="translate(-340.857 -205.962)" fill="#ffe6f8"/>
                  </g>
                  <g id="Grupo_1209379" data-name="Grupo 1209379" transform="translate(1.771 43.319)">
                    <path id="Trazado_1080576" data-name="Trazado 1080576" d="M268.9,217.206l-.165-4.014a149.1,149.1,0,0,1,38.319-7.421l.423,3.809A144.356,144.356,0,0,0,268.9,217.206Z" transform="translate(-268.739 -205.772)" fill="#ffe6f8"/>
                  </g>
                  <g id="Grupo_1209380" data-name="Grupo 1209380" transform="translate(2.359 57.562)">
                    <path id="Trazado_1080577" data-name="Trazado 1080577" d="M269.518,232.119l-.166-4.019a146.475,146.475,0,0,1,39.312-7.5l.423,3.806C295.911,225.217,282.293,227.478,269.518,232.119Z" transform="translate(-269.352 -220.605)" fill="#ffe6f8"/>
                  </g>
                  <g id="Grupo_1209381" data-name="Grupo 1209381" transform="translate(73.173 58.005)">
                    <path id="Trazado_1080578" data-name="Trazado 1080578" d="M382.842,227.537l.987,4.227a243.33,243.33,0,0,0-40.152-6.812l-.577-3.886A254.893,254.893,0,0,1,382.842,227.537Z" transform="translate(-343.1 -221.066)" fill="#ffe6f8"/>
                  </g>
                  <g id="Grupo_1209382" data-name="Grupo 1209382" transform="translate(2.95 71.806)">
                    <path id="Trazado_1080579" data-name="Trazado 1080579" d="M270.133,247.033l-.166-4.023c12.973-4.619,26.838-6.833,40.306-7.57l.423,3.806C297.112,239.977,283.127,242.241,270.133,247.033Z" transform="translate(-269.967 -235.439)" fill="#ffe6f8"/>
                  </g>
                  <g id="Grupo_1209383" data-name="Grupo 1209383" transform="translate(75.327 72.508)">
                    <path id="Trazado_1080580" data-name="Trazado 1080580" d="M386.454,243.216l.992,4.247a252.114,252.114,0,0,0-41.525-7.4l-.578-3.895A263.456,263.456,0,0,1,386.454,243.216Z" transform="translate(-345.343 -236.17)" fill="#ffe6f8"/>
                  </g>
                  <g id="Grupo_1209384" data-name="Grupo 1209384" transform="translate(3.539 86.055)">
                    <path id="Trazado_1080581" data-name="Trazado 1080581" d="M270.747,261.947l-.166-4.028c13.2-4.763,27.429-6.978,41.3-7.641l.423,3.806C298.311,254.738,283.958,257,270.747,261.947Z" transform="translate(-270.581 -250.278)" fill="#ffe6f8"/>
                  </g>
                  <g id="Grupo_1209385" data-name="Grupo 1209385" transform="translate(77.482 87.01)">
                    <path id="Trazado_1080582" data-name="Trazado 1080582" d="M390.066,258.9l1,4.264a261.408,261.408,0,0,0-42.9-7.987l-.579-3.9A272.7,272.7,0,0,1,390.066,258.9Z" transform="translate(-347.587 -251.273)" fill="#ffe6f8"/>
                  </g>
                  <g id="Grupo_1209386" data-name="Grupo 1209386" transform="translate(4.13 100.305)">
                    <path id="Trazado_1080583" data-name="Trazado 1080583" d="M271.362,276.862l-.166-4.033c13.42-4.909,28.018-7.123,42.293-7.711l.423,3.8C299.511,269.5,284.789,271.763,271.362,276.862Z" transform="translate(-271.196 -265.119)" fill="#ffe6f8"/>
                  </g>
                  <g id="Grupo_1209387" data-name="Grupo 1209387" transform="translate(79.636 101.514)">
                    <path id="Trazado_1080584" data-name="Trazado 1080584" d="M393.678,274.58l1,4.282a270.331,270.331,0,0,0-44.269-8.582l-.58-3.9A281.958,281.958,0,0,1,393.678,274.58Z" transform="translate(-349.83 -266.378)" fill="#ffe6f8"/>
                  </g>
                  <g id="Grupo_1209388" data-name="Grupo 1209388" transform="translate(81.789 116.017)">
                    <path id="Trazado_1080585" data-name="Trazado 1080585" d="M397.291,290.265l1,4.3a279.613,279.613,0,0,0-45.641-9.175l-.58-3.905A291.637,291.637,0,0,1,397.291,290.265Z" transform="translate(-352.073 -281.482)" fill="#ffe6f8"/>
                  </g>
                  <g id="Grupo_1209389" data-name="Grupo 1209389" transform="translate(4.72 114.561)">
                    <path id="Trazado_1080586" data-name="Trazado 1080586" d="M271.977,291.779l-.166-4.037c13.641-5.055,28.606-7.267,43.287-7.777l.423,3.8C300.708,284.26,285.615,286.523,271.977,291.779Z" transform="translate(-271.811 -279.965)" fill="#ffe6f8"/>
                  </g>
                  <g id="Grupo_1209390" data-name="Grupo 1209390" transform="translate(83.943 130.522)">
                    <path id="Trazado_1080587" data-name="Trazado 1080587" d="M400.9,305.952l1.007,4.313A289.231,289.231,0,0,0,354.9,300.5l-.581-3.911A301.272,301.272,0,0,1,400.9,305.952Z" transform="translate(-354.316 -296.588)" fill="#ffe6f8"/>
                  </g>
                  <g id="Grupo_1209391" data-name="Grupo 1209391" transform="translate(5.31 128.817)">
                    <path id="Trazado_1080588" data-name="Trazado 1080588" d="M272.591,306.7l-.166-4.042c13.858-5.2,29.192-7.411,44.281-7.842l.422,3.8C301.9,299.024,286.436,301.284,272.591,306.7Z" transform="translate(-272.425 -294.812)" fill="#ffe6f8"/>
                  </g>
                  <g id="Grupo_1209392" data-name="Grupo 1209392" transform="translate(86.099 145.028)">
                    <path id="Trazado_1080589" data-name="Trazado 1080589" d="M404.517,321.64l1.011,4.329a298.573,298.573,0,0,0-48.386-10.36l-.581-3.914A310.87,310.87,0,0,1,404.517,321.64Z" transform="translate(-356.561 -311.695)" fill="#ffe6f8"/>
                  </g>
                  <g id="Grupo_1209393" data-name="Grupo 1209393" transform="translate(5.9 143.076)">
                    <path id="Trazado_1080590" data-name="Trazado 1080590" d="M273.206,321.613l-.167-4.046c14.071-5.35,29.775-7.555,45.276-7.9l.423,3.8C303.094,313.79,287.257,316.046,273.206,321.613Z" transform="translate(-273.039 -309.662)" fill="#ffe6f8"/>
                  </g>
                  <g id="Grupo_1209394" data-name="Grupo 1209394" transform="translate(6.49 157.198)">
                    <path id="Trazado_1080591" data-name="Trazado 1080591" d="M273.821,336.526l-.167-4.052c14.391-5.547,30.428-7.8,46.255-8.105l.438,3.94C304.284,328.55,288.073,330.8,273.821,336.526Z" transform="translate(-273.654 -324.369)" fill="#ffe6f8"/>
                  </g>
                  <g id="Grupo_1209395" data-name="Grupo 1209395" transform="translate(88.226 159.35)">
                    <path id="Trazado_1080592" data-name="Trazado 1080592" d="M358.776,326.61a311.114,311.114,0,0,1,49.35,10.7l1.018,4.358a308.465,308.465,0,0,0-49.77-10.953h.011Z" transform="translate(-358.776 -326.61)" fill="#ffe6f8"/>
                  </g>
                </g>
                <g id="Grupo_1209397" data-name="Grupo 1209397" transform="translate(50.593)">
                  <path id="Trazado_1080593" data-name="Trazado 1080593" d="M367.553,142.108a.481.481,0,0,1-.463-.352l-2.08-7.55c-54.841-25.21-118.9,4.917-119.541,5.225a.485.485,0,0,1-.416,0c-.641-.308-64.7-30.435-119.541-5.225l-2.081,7.55a.48.48,0,0,1-.926-.255l2.139-7.765a.481.481,0,0,1,.261-.308c53.732-24.843,116.255,3.147,120.353,5.04,4.1-1.893,66.625-29.884,120.354-5.04a.48.48,0,0,1,.262.308l2.139,7.765a.481.481,0,0,1-.336.591A.428.428,0,0,1,367.553,142.108Z" transform="translate(-122.489 -123.2)" fill="#f8b3ff"/>
                </g>
              </g>
              <g id="Grupo_1209399" data-name="Grupo 1209399" transform="translate(5.222 263.388)">
                <path id="Trazado_1080594" data-name="Trazado 1080594" d="M432.072,399.42H52.831a.96.96,0,0,1,0-1.92H432.072a.96.96,0,0,1,0,1.92Z" transform="translate(-51.871 -397.5)" fill="#213059"/>
              </g>
            </g>
            <g id="Grupo_1209428" data-name="Grupo 1209428" transform="translate(0.127 130.773)">
              <g id="Grupo_1209415" data-name="Grupo 1209415">
                <g id="Grupo_1209401" data-name="Grupo 1209401">
                  <path id="Trazado_1080595" data-name="Trazado 1080595" d="M47.287,367.113,76.25,267.958a11.905,11.905,0,0,1,11.428-8.567h76.53a16.006,16.006,0,0,1,15.92,17.653l-11.7,113.077a13.433,13.433,0,0,1-13.361,12.05H52.618a6.053,6.053,0,0,1-6.053-6.053h0a6.053,6.053,0,0,1,.209-1.58l5.08-18.794v-1.378H49.6a2.935,2.935,0,0,1-2.934-2.94h0A15.579,15.579,0,0,1,47.287,367.113Z" transform="translate(-46.565 -259.391)" fill="#f5bc54"/>
                </g>
                <g id="Grupo_1209402" data-name="Grupo 1209402" transform="translate(0.686 116.353)">
                  <path id="Trazado_1080596" data-name="Trazado 1080596" d="M55.063,400.479H49.921a2.64,2.64,0,0,1-2.547-3.332l4.51-16.582Z" transform="translate(-47.279 -380.565)" fill="#ea8475"/>
                </g>
                <g id="Grupo_1209403" data-name="Grupo 1209403" transform="translate(5.29 114.975)">
                  <path id="Trazado_1080597" data-name="Trazado 1080597" d="M52.074,379.13v18.113a3.179,3.179,0,0,0,3.179,3.179h96.612a10.646,10.646,0,0,0,10.646-10.646h0a10.646,10.646,0,0,0-10.646-10.646Z" transform="translate(-52.074 -379.13)" fill="#fff"/>
                </g>
                <g id="Grupo_1209410" data-name="Grupo 1209410" transform="translate(4.33 14.212)">
                  <g id="Grupo_1209404" data-name="Grupo 1209404" transform="translate(104.947)">
                    <path id="Trazado_1080598" data-name="Trazado 1080598" d="M161.811,364.873a1.269,1.269,0,0,1-.171-.011,1.439,1.439,0,0,1-1.261-1.6l10.4-87.8a1.441,1.441,0,0,1,2.861.339l-10.4,87.8A1.441,1.441,0,0,1,161.811,364.873Z" transform="translate(-160.369 -274.192)" fill="#ea8475"/>
                  </g>
                  <g id="Grupo_1209405" data-name="Grupo 1209405" transform="translate(41.72 66.197)">
                    <path id="Trazado_1080599" data-name="Trazado 1080599" d="M150.853,361.963l2.4-16.376a2.144,2.144,0,0,0-2.121-2.455H100.464a2.144,2.144,0,0,0-2.088,1.66l-3.8,16.377a2.143,2.143,0,0,0,2.088,2.628h52.065A2.146,2.146,0,0,0,150.853,361.963Z" transform="translate(-94.522 -343.131)" fill="#2178bf"/>
                  </g>
                  <g id="Grupo_1209406" data-name="Grupo 1209406" transform="translate(3.288 116.461)">
                    <path id="Trazado_1080600" data-name="Trazado 1080600" d="M136.087,397.4H55.458a.96.96,0,1,1,0-1.92h80.628a.96.96,0,1,1,0,1.92Z" transform="translate(-54.498 -395.478)" fill="#f8b3ff"/>
                  </g>
                  <g id="Grupo_1209407" data-name="Grupo 1209407" transform="translate(30.279 110.449)">
                    <path id="Trazado_1080601" data-name="Trazado 1080601" d="M149.573,391.138H83.568a.96.96,0,0,1,0-1.92h66a.96.96,0,0,1,0,1.92Z" transform="translate(-82.608 -389.217)" fill="#f8b3ff"/>
                  </g>
                  <g id="Grupo_1209408" data-name="Grupo 1209408" transform="translate(0 110.449)">
                    <path id="Trazado_1080602" data-name="Trazado 1080602" d="M64.529,391.138h-12.5a.96.96,0,0,1,0-1.92h12.5a.96.96,0,0,1,0,1.92Z" transform="translate(-51.074 -389.217)" fill="#f8b3ff"/>
                  </g>
                  <g id="Grupo_1209409" data-name="Grupo 1209409" transform="translate(0 104.437)">
                    <path id="Trazado_1080603" data-name="Trazado 1080603" d="M92.793,384.876H52.034a.96.96,0,1,1,0-1.92H92.793a.96.96,0,1,1,0,1.92Z" transform="translate(-51.074 -382.956)" fill="#f8b3ff"/>
                  </g>
                </g>
                <g id="Grupo_1209414" data-name="Grupo 1209414" transform="translate(75.118 125.621)">
                  <g id="Grupo_1209411" data-name="Grupo 1209411" transform="translate(7.795)">
                    <path id="Trazado_1080604" data-name="Trazado 1080604" d="M137.616,390.217h10.826l-3.005,10.646H132.913l2.545-9.012A2.244,2.244,0,0,1,137.616,390.217Z" transform="translate(-132.913 -390.217)" fill="#ff4d4d"/>
                  </g>
                  <g id="Grupo_1209412" data-name="Grupo 1209412" transform="translate(0 10.646)">
                    <path id="Trazado_1080605" data-name="Trazado 1080605" d="M124.8,411.1a16.635,16.635,0,0,1,3.034-9.8h12.525a14.223,14.223,0,0,0-3.058,9.712.46.46,0,0,1-.726.384l-5.421-3.833-5.627,3.9A.462.462,0,0,1,124.8,411.1Z" transform="translate(-124.795 -401.304)" fill="#ff4d4d"/>
                  </g>
                  <g id="Grupo_1209413" data-name="Grupo 1209413" transform="translate(7.795 9.608)">
                    <path id="Trazado_1080606" data-name="Trazado 1080606" d="M133.206,400.223h12.525l-.294,1.038H132.913Z" transform="translate(-132.913 -400.223)" fill="#213059"/>
                  </g>
                </g>
              </g>
              <g id="Grupo_1209427" data-name="Grupo 1209427" transform="translate(273.473 31.374)">
                <g id="Grupo_1209416" data-name="Grupo 1209416" transform="translate(0 3.045)">
                  <path id="Trazado_1080607" data-name="Trazado 1080607" d="M431.738,387.253h0v4.208l1.646,6.512a3.009,3.009,0,0,1,.092.74v1.863a3.022,3.022,0,0,1-3.022,3.022H350.8a10.337,10.337,0,0,1-10.254-9.029l-8.462-66.314a89.333,89.333,0,0,1-.718-11.3V306.395a11.159,11.159,0,0,1,11.159-11.159h62.537a7.12,7.12,0,0,1,6.886,5.31l21.524,81.916,0,3.049A1.739,1.739,0,0,1,431.738,387.253Z" transform="translate(-331.369 -295.236)" fill="#2178bf"/>
                </g>
                <g id="Grupo_1209426" data-name="Grupo 1209426" transform="translate(6.446)">
                  <g id="Grupo_1209417" data-name="Grupo 1209417" transform="translate(6.893 95.061)">
                    <path id="Trazado_1080608" data-name="Trazado 1080608" d="M432.29,391.065v11.21H350.866a5.6,5.6,0,0,1-5.6-5.6h0a5.6,5.6,0,0,1,5.6-5.6Z" transform="translate(-345.261 -391.065)" fill="#fff"/>
                  </g>
                  <g id="Grupo_1209418" data-name="Grupo 1209418" transform="translate(0 18.451)">
                    <path id="Trazado_1080609" data-name="Trazado 1080609" d="M348.48,379.5a1.44,1.44,0,0,1-1.425-1.244l-8.96-65.341a1.44,1.44,0,1,1,2.854-.392l8.96,65.341a1.441,1.441,0,0,1-1.231,1.623A1.546,1.546,0,0,1,348.48,379.5Z" transform="translate(-338.082 -311.281)" fill="#255c99"/>
                  </g>
                  <g id="Grupo_1209419" data-name="Grupo 1209419" transform="translate(93.923 99.269)">
                    <path id="Trazado_1080610" data-name="Trazado 1080610" d="M437.542,401.959l-1.646-6.512v7H437.6A3.108,3.108,0,0,0,437.542,401.959Z" transform="translate(-435.896 -395.447)" fill="#255c99"/>
                  </g>
                  <g id="Grupo_1209420" data-name="Grupo 1209420" transform="translate(41.867 102.05)">
                    <path id="Trazado_1080611" data-name="Trazado 1080611" d="M433.739,399.783H382.4a.72.72,0,0,1,0-1.44h51.335a.72.72,0,0,1,0,1.44Z" transform="translate(-381.684 -398.343)" fill="#f8b3ff"/>
                  </g>
                  <g id="Grupo_1209421" data-name="Grupo 1209421" transform="translate(14.345 97.63)">
                    <path id="Trazado_1080612" data-name="Trazado 1080612" d="M432.6,395.18H353.741a.72.72,0,0,1,0-1.44H432.6a.72.72,0,0,1,0,1.44Z" transform="translate(-353.021 -393.74)" fill="#f8b3ff"/>
                  </g>
                  <g id="Grupo_1209422" data-name="Grupo 1209422" transform="translate(57.983 65.754)">
                    <path id="Trazado_1080613" data-name="Trazado 1080613" d="M422.061,376.888H403.237a1.288,1.288,0,0,1-1.248-.972l-3.482-13.77a1.287,1.287,0,0,1,1.248-1.6H418.58a1.288,1.288,0,0,1,1.248.972l3.482,13.77A1.287,1.287,0,0,1,422.061,376.888Z" transform="translate(-398.467 -360.543)" fill="#ff4d4d"/>
                  </g>
                  <g id="Grupo_1209423" data-name="Grupo 1209423" transform="translate(10.716 12.775)">
                    <path id="Trazado_1080614" data-name="Trazado 1080614" d="M409.056,330.544H354.714a1.67,1.67,0,0,1-1.646-1.385l-3.8-21.832a1.672,1.672,0,0,1,1.646-1.958h52.929a1.673,1.673,0,0,1,1.626,1.283l5.214,21.832A1.671,1.671,0,0,1,409.056,330.544Z" transform="translate(-349.242 -305.369)" fill="#ea8475"/>
                  </g>
                  <g id="Grupo_1209424" data-name="Grupo 1209424" transform="translate(4.308)">
                    <path id="Trazado_1080615" data-name="Trazado 1080615" d="M354.805,294.081l5.1,29.169-5.448-6.857-4.979,6.857-3.993-28.142h-2.912l1.253-1.933a2.437,2.437,0,0,1,2.043-1.111h6.54A2.436,2.436,0,0,1,354.805,294.081Z" transform="translate(-342.569 -292.065)" fill="#f5bc54"/>
                  </g>
                  <g id="Grupo_1209425" data-name="Grupo 1209425" transform="translate(4.31 0.348)">
                    <path id="Trazado_1080616" data-name="Trazado 1080616" d="M344.631,292.427a2.424,2.424,0,0,0-.808.763l-1.252,1.933h2.912l-.214-2.081A.692.692,0,0,0,344.631,292.427Z" transform="translate(-342.571 -292.427)" fill="#ea8475"/>
                  </g>
                </g>
              </g>
            </g>
          </g>
          <g id="Grupo_1209556" data-name="Grupo 1209556" transform="translate(63.355 94.082)">
            <g id="Grupo_1209432" data-name="Grupo 1209432" transform="translate(36.611 92.478)">
              <g id="Grupo_1209430" data-name="Grupo 1209430">
                <path id="Trazado_1080617" data-name="Trazado 1080617" d="M244.01,295.213s-5.63.584-15.262,10.529c-9.493,9.8-35.462,40.831-44.052,54.136l23.373,15.613,26.84-26.654,20.014-53.66Z" transform="translate(-184.696 -295.176)" fill="#ff4d4d"/>
              </g>
              <g id="Grupo_1209431" data-name="Grupo 1209431" transform="translate(114.604)">
                <path id="Trazado_1080618" data-name="Trazado 1080618" d="M276.508,295.213s5.63.584,15.262,10.529c9.493,9.8,35.462,40.831,44.052,54.136L312.448,375.49l-26.84-26.654-20.014-53.66Z" transform="translate(-265.594 -295.176)" fill="#ff4d4d"/>
              </g>
            </g>
            <g id="Grupo_1209478" data-name="Grupo 1209478" transform="translate(89.923)">
              <g id="Grupo_1209450" data-name="Grupo 1209450">
                <g id="Grupo_1209435" data-name="Grupo 1209435" transform="translate(22.052 66.034)">
                  <g id="Grupo_1209433" data-name="Grupo 1209433">
                    <path id="Trazado_1080619" data-name="Trazado 1080619" d="M264.355,293.557l-1.3-17.047H248.013l-1.3,17.047-8.82,3.326c2.495,3.118,10.067,8.13,17.639,8.13s15.144-5.012,17.639-8.13Z" transform="translate(-237.895 -276.51)" fill="#fdb"/>
                  </g>
                  <g id="Grupo_1209434" data-name="Grupo 1209434" transform="translate(9.391)">
                    <path id="Trazado_1080620" data-name="Trazado 1080620" d="M244.524,286.077c3.418,1.356,10.07,3.539,16.746,3.227L260.3,276.51H245.252Z" transform="translate(-244.524 -276.51)" fill="#ea8475"/>
                  </g>
                </g>
                <g id="Grupo_1209438" data-name="Grupo 1209438" transform="translate(3.673 57.887)">
                  <g id="Grupo_1209436" data-name="Grupo 1209436">
                    <path id="Trazado_1080621" data-name="Trazado 1080621" d="M243.9,270.759l-18.71,11.979a.575.575,0,0,0,.21,1.05l7.061,1.245-3.979,8.846a.575.575,0,0,0,.735.771l10.58-4.174,2.729,7.13a.575.575,0,0,0,1.072,0l8.139-20.964Z" transform="translate(-224.922 -270.759)" fill="#213059"/>
                  </g>
                  <g id="Grupo_1209437" data-name="Grupo 1209437" transform="translate(45.024)">
                    <path id="Trazado_1080622" data-name="Trazado 1080622" d="M264.541,270.759l18.708,11.979a.575.575,0,0,1-.21,1.05l-7.06,1.245,3.979,8.846a.575.575,0,0,1-.735.771l-10.579-4.174-2.728,7.13a.575.575,0,0,1-1.072,0L256.7,276.645Z" transform="translate(-256.704 -270.759)" fill="#213059"/>
                  </g>
                </g>
                <g id="Grupo_1209445" data-name="Grupo 1209445" transform="translate(0 38.497)">
                  <g id="Grupo_1209441" data-name="Grupo 1209441" transform="translate(58.22)">
                    <g id="Grupo_1209439" data-name="Grupo 1209439">
                      <path id="Trazado_1080623" data-name="Trazado 1080623" d="M264.779,263.24c-2.86,5.46-1.038,12.054,4.069,14.729s11.566.416,14.424-5.043,1.038-12.054-4.069-14.729S267.639,257.779,264.779,263.24Z" transform="translate(-263.426 -257.071)" fill="#fdb"/>
                    </g>
                    <g id="Grupo_1209440" data-name="Grupo 1209440" transform="translate(1.722 7.892)">
                      <path id="Trazado_1080624" data-name="Trazado 1080624" d="M265.349,273.944a.708.708,0,0,1-.409-1.285l13.922-9.885a.707.707,0,0,1,.819,1.153l-13.921,9.887A.716.716,0,0,1,265.349,273.944Z" transform="translate(-264.642 -262.642)" fill="#ea8475"/>
                    </g>
                  </g>
                  <g id="Grupo_1209444" data-name="Grupo 1209444">
                    <g id="Grupo_1209442" data-name="Grupo 1209442">
                      <path id="Trazado_1080625" data-name="Trazado 1080625" d="M242.175,263.24c2.86,5.46,1.038,12.054-4.069,14.729s-11.565.416-14.424-5.043-1.038-12.054,4.069-14.729S239.315,257.779,242.175,263.24Z" transform="translate(-222.329 -257.071)" fill="#fdb"/>
                    </g>
                    <g id="Grupo_1209443" data-name="Grupo 1209443" transform="translate(4.138 7.891)">
                      <path id="Trazado_1080626" data-name="Trazado 1080626" d="M239.88,273.944a.7.7,0,0,1-.409-.132l-13.923-9.887a.708.708,0,1,1,.82-1.153l13.923,9.885a.709.709,0,0,1-.411,1.286Z" transform="translate(-225.25 -262.641)" fill="#ea8475"/>
                    </g>
                  </g>
                </g>
                <g id="Grupo_1209446" data-name="Grupo 1209446" transform="translate(11.316 3.561)">
                  <path id="Trazado_1080627" data-name="Trazado 1080627" d="M285.826,267.676c0-4.535.031-5.507.031-7.752l-.017,0c0-.118.017-.23.017-.347a27.163,27.163,0,0,0-54.326,0c0,.123.017.244.018.367l-.018,0c0,2.245.031,3.2.031,7.732,0,0-3.257,10.094.762,18.894,4.319,9.457,17.1,15.106,26.37,15.106s22.05-5.648,26.37-15.106C289.083,277.769,285.826,267.676,285.826,267.676Z" transform="translate(-230.317 -232.411)" fill="#fdb"/>
                </g>
                <g id="Grupo_1209447" data-name="Grupo 1209447" transform="translate(8.382)">
                  <path id="Trazado_1080628" data-name="Trazado 1080628" d="M259.557,229.9c-25.469,0-33.7,25.786-30.736,34.092,1.741,4.873,3.591,6.121,3.591,6.121v-5.725a25.557,25.557,0,0,1,4.154-14.264c3.646-5.434,10.432-10.869,22.991-10.869s19.343,5.434,22.989,10.869a25.546,25.546,0,0,1,4.154,14.264v5.725s1.357-1.247,3.1-6.121C292.766,255.682,285.026,229.9,259.557,229.9Z" transform="translate(-228.245 -229.897)" fill="#213059"/>
                </g>
                <g id="Grupo_1209448" data-name="Grupo 1209448" transform="translate(16.638 59.869)">
                  <path id="Trazado_1080629" data-name="Trazado 1080629" d="M257.129,285.115c7.5,0,17.3-3.7,23.057-10.128a6.855,6.855,0,0,1-6,1.905c-3.234-.67-8.177-4.734-17.061-4.734s-13.828,4.066-17.062,4.734a6.853,6.853,0,0,1-6-1.905C239.826,281.413,249.625,285.115,257.129,285.115Z" transform="translate(-234.073 -272.158)" fill="#ea8475"/>
                </g>
                <g id="Grupo_1209449" data-name="Grupo 1209449" transform="translate(32.758 71.65)">
                  <path id="Trazado_1080630" data-name="Trazado 1080630" d="M252.388,282a29.02,29.02,0,0,1-6.662-.829.355.355,0,0,1-.264-.426.35.35,0,0,1,.426-.264,28.377,28.377,0,0,0,6.5.809,27.437,27.437,0,0,0,5.318-.554.354.354,0,0,1,.139.694A27.964,27.964,0,0,1,252.388,282Z" transform="translate(-245.452 -280.474)" fill="#213059"/>
                </g>
              </g>
              <g id="Grupo_1209477" data-name="Grupo 1209477" transform="translate(10.771 1.631)">
                <g id="Grupo_1209453" data-name="Grupo 1209453" transform="translate(10.981 12.438)">
                  <g id="Grupo_1209451" data-name="Grupo 1209451" transform="translate(0 0.415)">
                    <path id="Trazado_1080631" data-name="Trazado 1080631" d="M249.42,241.615a34.92,34.92,0,0,0-11.306,5,.266.266,0,0,1-.408-.312c.646-1.53,2.373-4.744,5.822-5.818a7.185,7.185,0,0,1,5.97.64A.266.266,0,0,1,249.42,241.615Z" transform="translate(-237.683 -240.122)" fill="#213059"/>
                  </g>
                  <g id="Grupo_1209452" data-name="Grupo 1209452" transform="translate(24.991)">
                    <path id="Trazado_1080632" data-name="Trazado 1080632" d="M255.531,241.322a34.919,34.919,0,0,1,11.306,5,.266.266,0,0,0,.408-.312c-.646-1.53-2.373-4.744-5.822-5.818a7.184,7.184,0,0,0-5.97.64A.266.266,0,0,0,255.531,241.322Z" transform="translate(-255.324 -239.829)" fill="#213059"/>
                  </g>
                </g>
                <g id="Grupo_1209454" data-name="Grupo 1209454" transform="translate(3.626 32.493)">
                  <path id="Trazado_1080633" data-name="Trazado 1080633" d="M241.235,258.357a4.372,4.372,0,1,1-4.372-4.372A4.373,4.373,0,0,1,241.235,258.357Z" transform="translate(-232.491 -253.985)" fill="#ea8475"/>
                </g>
                <g id="Grupo_1209455" data-name="Grupo 1209455" transform="translate(45.508 32.493)">
                  <path id="Trazado_1080634" data-name="Trazado 1080634" d="M270.8,258.357a4.372,4.372,0,1,1-4.372-4.372A4.372,4.372,0,0,1,270.8,258.357Z" transform="translate(-262.055 -253.985)" fill="#ea8475"/>
                </g>
                <g id="Grupo_1209456" data-name="Grupo 1209456" transform="translate(0 36.664)">
                  <path id="Trazado_1080635" data-name="Trazado 1080635" d="M235.259,281.247a.53.53,0,0,1-.408-.191,20.047,20.047,0,0,1-2.85-4.482c-4.057-8.885-.919-18.857-.785-19.276a.532.532,0,0,1,1.011.327c-.033.1-3.143,10.006.74,18.509a18.959,18.959,0,0,0,2.7,4.243.531.531,0,0,1-.068.748A.518.518,0,0,1,235.259,281.247Z" transform="translate(-229.932 -256.929)" fill="#ea8475"/>
                </g>
                <g id="Grupo_1209457" data-name="Grupo 1209457" transform="translate(51.916 36.664)">
                  <path id="Trazado_1080636" data-name="Trazado 1080636" d="M267.109,281.332a.531.531,0,0,1-.407-.873,19.057,19.057,0,0,0,2.77-4.325c3.883-8.5.772-18.412.739-18.51a.531.531,0,1,1,1.01-.327c.136.421,3.274,10.392-.785,19.278a20.087,20.087,0,0,1-2.923,4.567A.528.528,0,0,1,267.109,281.332Z" transform="translate(-266.578 -256.93)" fill="#ea8475"/>
                </g>
                <g id="Grupo_1209461" data-name="Grupo 1209461" transform="translate(20.347)">
                  <g id="Grupo_1209458" data-name="Grupo 1209458" transform="translate(0.219 0.22)">
                    <path id="Trazado_1080637" data-name="Trazado 1080637" d="M258.985,239.194s-3.581-10.115-10.9-7.583c-4.567,1.58-4.275,7.8-2.169,11.608a21.215,21.215,0,0,0,8.868,8.086s-5.069-13.73-1.731-15.087c2.665-1.084,4.6,2.771,4.6,2.771Z" transform="translate(-244.449 -231.204)" fill="#213059"/>
                  </g>
                  <g id="Grupo_1209459" data-name="Grupo 1209459" transform="translate(7.507 4.827)">
                    <path id="Trazado_1080638" data-name="Trazado 1080638" d="M255.327,237.507a.212.212,0,0,1-.183-.1c-.585-.975-2.163-3.159-4.154-2.346-.547.221-.874.877-.973,1.945a.211.211,0,0,1-.231.193.214.214,0,0,1-.193-.231c.115-1.241.531-2.014,1.235-2.3,2.362-.963,4.176,1.687,4.679,2.522a.213.213,0,0,1-.074.292A.206.206,0,0,1,255.327,237.507Z" transform="translate(-249.593 -234.456)" fill="#255c99"/>
                  </g>
                  <g id="Grupo_1209460" data-name="Grupo 1209460">
                    <path id="Trazado_1080639" data-name="Trazado 1080639" d="M244.647,239.533a.212.212,0,0,1-.21-.18c-.608-3.935.754-6.881,3.645-7.879,6.459-2.238,10.038,4.974,10.98,7.236a.212.212,0,1,1-.392.163c-.907-2.176-4.332-9.11-10.449-7-2.68.927-3.938,3.7-3.363,7.413a.211.211,0,0,1-.177.242A.1.1,0,0,1,244.647,239.533Z" transform="translate(-244.295 -231.049)" fill="#255c99"/>
                  </g>
                </g>
                <g id="Grupo_1209470" data-name="Grupo 1209470" transform="translate(9.373 23.269)">
                  <g id="Grupo_1209465" data-name="Grupo 1209465" transform="translate(26.114)">
                    <g id="Grupo_1209462" data-name="Grupo 1209462" transform="translate(0 2.36)">
                      <path id="Trazado_1080640" data-name="Trazado 1080640" d="M255.689,254.493a.7.7,0,0,1-.4-.123.708.708,0,0,1-.191-.979c.147-.217,3.685-5.305,12.638-4.053a.708.708,0,1,1-.2,1.4c-8.035-1.123-11.138,3.257-11.268,3.444A.712.712,0,0,1,255.689,254.493Z" transform="translate(-254.982 -249.14)" fill="#213059"/>
                    </g>
                    <g id="Grupo_1209464" data-name="Grupo 1209464" transform="translate(10.158)">
                      <g id="Grupo_1209463" data-name="Grupo 1209463">
                        <path id="Trazado_1080641" data-name="Trazado 1080641" d="M264.727,251.261a.5.5,0,0,1-.122,0l-1.969-.176a.531.531,0,0,1-.333-.9l2.486-2.553a.532.532,0,0,1,.9.469l-.516,2.728A.539.539,0,0,1,264.727,251.261Z" transform="translate(-262.152 -247.474)" fill="#213059"/>
                      </g>
                    </g>
                  </g>
                  <g id="Grupo_1209469" data-name="Grupo 1209469">
                    <g id="Grupo_1209466" data-name="Grupo 1209466" transform="translate(0.336 2.362)">
                      <path id="Trazado_1080642" data-name="Trazado 1080642" d="M249.447,254.494a.709.709,0,0,1-.587-.31c-.13-.191-3.237-4.562-11.27-3.444a.708.708,0,0,1-.2-1.4c8.955-1.245,12.492,3.835,12.637,4.053a.709.709,0,0,1-.191.983A.692.692,0,0,1,249.447,254.494Z" transform="translate(-236.785 -249.141)" fill="#213059"/>
                    </g>
                    <g id="Grupo_1209468" data-name="Grupo 1209468">
                      <g id="Grupo_1209467" data-name="Grupo 1209467">
                        <path id="Trazado_1080643" data-name="Trazado 1080643" d="M237.072,250.833l-.516-2.728a.532.532,0,0,1,.9-.469l2.486,2.553a.531.531,0,0,1-.333.9l-1.969.176a.486.486,0,0,1-.12,0A.531.531,0,0,1,237.072,250.833Z" transform="translate(-236.548 -247.474)" fill="#213059"/>
                      </g>
                    </g>
                  </g>
                </g>
                <g id="Grupo_1209471" data-name="Grupo 1209471" transform="translate(24.965 29.395)">
                  <path id="Trazado_1080644" data-name="Trazado 1080644" d="M248.261,255.592a.709.709,0,0,1-.625-1.041l.273-.517a4.148,4.148,0,0,1,3.649-2.236,4.2,4.2,0,0,1,3.714,2.124l.348.611a.709.709,0,1,1-1.231.7l-.349-.612a2.784,2.784,0,0,0-4.882.074l-.273.519A.706.706,0,0,1,248.261,255.592Z" transform="translate(-247.554 -251.798)" fill="#ea8475"/>
                </g>
                <g id="Grupo_1209476" data-name="Grupo 1209476" transform="translate(13.425 36.003)">
                  <g id="Grupo_1209472" data-name="Grupo 1209472" transform="translate(0.178 0.189)">
                    <path id="Trazado_1080645" data-name="Trazado 1080645" d="M240.721,258.855a48.265,48.265,0,0,1,29.057-.017,1.733,1.733,0,0,1,1.128,2.074c-.936,3.628-4.392,12.277-16.072,12.277-11.784,0-14.61-8.8-15.27-12.372A1.724,1.724,0,0,1,240.721,258.855Z" transform="translate(-239.534 -256.596)" fill="#213059"/>
                  </g>
                  <g id="Grupo_1209473" data-name="Grupo 1209473" transform="translate(5.206 5.954)">
                    <path id="Trazado_1080646" data-name="Trazado 1080646" d="M243.083,268.163c2.281,1.918,5.558,3.329,10.271,3.329a16.073,16.073,0,0,0,11.033-3.775,11.44,11.44,0,0,0-21.3.446Z" transform="translate(-243.083 -260.666)" fill="#ea8475"/>
                  </g>
                  <g id="Grupo_1209474" data-name="Grupo 1209474" transform="translate(6.716 0.202)">
                    <path id="Trazado_1080647" data-name="Trazado 1080647" d="M244.149,257.5a21.486,21.486,0,0,0,17.439-.2A48.894,48.894,0,0,0,244.149,257.5Z" transform="translate(-244.149 -256.605)" fill="#fff"/>
                  </g>
                  <g id="Grupo_1209475" data-name="Grupo 1209475">
                    <path id="Trazado_1080648" data-name="Trazado 1080648" d="M254.885,273.42c-11.847,0-14.747-8.754-15.444-12.516a1.912,1.912,0,0,1,1.279-2.16,48.139,48.139,0,0,1,29.166-.018,1.906,1.906,0,0,1,1.244,2.287C270.168,264.743,266.658,273.42,254.885,273.42Zm.608-16.606a48.1,48.1,0,0,0-14.664,2.267h0a1.556,1.556,0,0,0-1.04,1.759c.68,3.676,3.515,12.226,15.1,12.226,11.526,0,14.96-8.491,15.9-12.142a1.548,1.548,0,0,0-1.011-1.86A45.811,45.811,0,0,0,255.493,256.814Zm-14.719,2.1h0Z" transform="translate(-239.408 -256.463)" fill="#213059"/>
                  </g>
                </g>
              </g>
            </g>
            <g id="Grupo_1209479" data-name="Grupo 1209479" transform="translate(89.734 132.049)">
              <path id="Trazado_1080649" data-name="Trazado 1080649" d="M222.2,323.109" transform="translate(-222.195 -323.109)" fill="#fdb"/>
            </g>
            <g id="Grupo_1209501" data-name="Grupo 1209501" transform="translate(71.252 84.052)">
              <g id="Grupo_1209486" data-name="Grupo 1209486" transform="translate(4.9 0.866)">
                <g id="Grupo_1209480" data-name="Grupo 1209480">
                  <path id="Trazado_1080650" data-name="Trazado 1080650" d="M318.357,401.227,298.586,297.436l-17.379-7.42a2.149,2.149,0,0,0-2.421.5,22.172,22.172,0,0,1-13.3,6.885h-.014a22.173,22.173,0,0,1-13.3-6.885,2.149,2.149,0,0,0-2.421-.5l-17.38,7.42L212.608,401.227l52.867,15.522v-.132l.014.132Z" transform="translate(-212.608 -289.84)" fill="#ff4d4d"/>
                </g>
                <g id="Grupo_1209485" data-name="Grupo 1209485" transform="translate(5.184 10.667)">
                  <g id="Grupo_1209481" data-name="Grupo 1209481" transform="translate(0 5.712)">
                    <path id="Trazado_1080651" data-name="Trazado 1080651" d="M225.025,323.758a.533.533,0,0,1-.5-.34l-8.225-21.3a.531.531,0,1,1,.99-.381l8.225,21.3a.529.529,0,0,1-.494.721Z" transform="translate(-216.268 -301.401)" fill="#213059"/>
                  </g>
                  <g id="Grupo_1209482" data-name="Grupo 1209482" transform="translate(6.516)">
                    <path id="Trazado_1080652" data-name="Trazado 1080652" d="M221.4,334.411a.5.5,0,0,1-.1-.01.531.531,0,0,1-.422-.622l6.854-35.977a.525.525,0,0,1,.62-.422.531.531,0,0,1,.422.622l-6.852,35.976A.53.53,0,0,1,221.4,334.411Z" transform="translate(-220.867 -297.369)" fill="#213059"/>
                  </g>
                  <g id="Grupo_1209483" data-name="Grupo 1209483" transform="translate(86.092 5.712)">
                    <path id="Trazado_1080653" data-name="Trazado 1080653" d="M277.57,323.759a.531.531,0,0,1-.5-.721l8.225-21.3a.531.531,0,0,1,.99.381l-8.225,21.3A.529.529,0,0,1,277.57,323.759Z" transform="translate(-277.039 -301.401)" fill="#213059"/>
                  </g>
                  <g id="Grupo_1209484" data-name="Grupo 1209484" transform="translate(80.949 0.001)">
                    <path id="Trazado_1080654" data-name="Trazado 1080654" d="M280.793,334.411a.53.53,0,0,1-.521-.432L273.418,298a.532.532,0,0,1,.422-.622.526.526,0,0,1,.622.422l6.854,35.977a.532.532,0,0,1-.422.622A.628.628,0,0,1,280.793,334.411Z" transform="translate(-273.408 -297.37)" fill="#213059"/>
                  </g>
                </g>
              </g>
              <g id="Grupo_1209500" data-name="Grupo 1209500">
                <g id="Grupo_1209488" data-name="Grupo 1209488" transform="translate(0 60.84)">
                  <g id="Grupo_1209487" data-name="Grupo 1209487">
                    <path id="Trazado_1080655" data-name="Trazado 1080655" d="M317.927,366.682l-15.558-31.974a4.4,4.4,0,0,0-3.988-2.533H235.462a4.4,4.4,0,0,0-3.988,2.533l-15.558,31.974-6.767,32.429H324.691Z" transform="translate(-209.149 -332.175)" fill="#213059"/>
                  </g>
                </g>
                <g id="Grupo_1209490" data-name="Grupo 1209490" transform="translate(29.269)">
                  <g id="Grupo_1209489" data-name="Grupo 1209489">
                    <path id="Trazado_1080656" data-name="Trazado 1080656" d="M229.81,350.067h10.139l4.4-60.128a.662.662,0,0,0-.9-.666l-6.569,2.594a1.843,1.843,0,0,0-1.156,1.523Z" transform="translate(-229.81 -289.228)" fill="#f5bc54"/>
                  </g>
                </g>
                <g id="Grupo_1209492" data-name="Grupo 1209492" transform="translate(30.54 63.334)">
                  <g id="Grupo_1209491" data-name="Grupo 1209491">
                    <circle id="Elipse_13138" data-name="Elipse 13138" cx="3.741" cy="3.741" r="3.741" fill="#f5bc54"/>
                  </g>
                </g>
                <g id="Grupo_1209494" data-name="Grupo 1209494" transform="translate(71.735)">
                  <g id="Grupo_1209493" data-name="Grupo 1209493">
                    <path id="Trazado_1080657" data-name="Trazado 1080657" d="M274.331,350.067H264.192l-4.4-60.128a.662.662,0,0,1,.9-.666l6.569,2.594a1.843,1.843,0,0,1,1.156,1.523Z" transform="translate(-259.786 -289.228)" fill="#f5bc54"/>
                  </g>
                </g>
                <g id="Grupo_1209496" data-name="Grupo 1209496" transform="translate(77.528 63.334)">
                  <g id="Grupo_1209495" data-name="Grupo 1209495">
                    <circle id="Elipse_13139" data-name="Elipse 13139" cx="3.741" cy="3.741" r="3.741" fill="#f5bc54"/>
                  </g>
                </g>
                <g id="Grupo_1209498" data-name="Grupo 1209498" transform="translate(28.886 75.409)">
                  <g id="Grupo_1209497" data-name="Grupo 1209497">
                    <path id="Trazado_1080658" data-name="Trazado 1080658" d="M258.435,342.459l-.014.024v-.024H229.539a23.189,23.189,0,0,0,23.191,23.189h5.692v-.027l.014.027h5.692a23.189,23.189,0,0,0,23.189-23.189Z" transform="translate(-229.539 -342.459)" fill="#f5bc54"/>
                  </g>
                </g>
                <g id="Grupo_1209499" data-name="Grupo 1209499" transform="translate(28.533 78.641)">
                  <path id="Trazado_1080659" data-name="Trazado 1080659" d="M231.769,345.448h-2.125a.354.354,0,0,1,0-.708h2.125a.354.354,0,0,1,0,.708Z" transform="translate(-229.29 -344.74)" fill="#213059"/>
                  <path id="Trazado_1080660" data-name="Trazado 1080660" d="M279.178,345.448h-4.1a.354.354,0,0,1,0-.708h4.1a.354.354,0,0,1,0,.708Zm-8.205,0h-4.1a.354.354,0,0,1,0-.708h4.1a.354.354,0,0,1,0,.708Zm-8.209,0h-4.1a.354.354,0,0,1,0-.708h4.1a.354.354,0,0,1,0,.708Zm-8.205,0h-4.1a.354.354,0,0,1,0-.708h4.1a.354.354,0,0,1,0,.708Zm-8.208,0h-4.1a.354.354,0,0,1,0-.708h4.1a.354.354,0,0,1,0,.708Zm-8.207,0h-4.1a.354.354,0,0,1,0-.708h4.1a.354.354,0,0,1,0,.708Z" transform="translate(-227.458 -344.74)" fill="#213059"/>
                  <path id="Trazado_1080661" data-name="Trazado 1080661" d="M270.926,345.448H268.8a.354.354,0,0,1,0-.708h2.125a.354.354,0,0,1,0,.708Z" transform="translate(-212.975 -344.74)" fill="#213059"/>
                </g>
              </g>
            </g>
            <g id="Grupo_1209502" data-name="Grupo 1209502" transform="translate(168.32 132.049)">
              <path id="Trazado_1080662" data-name="Trazado 1080662" d="M277.668,323.109" transform="translate(-277.668 -323.109)" fill="#fdb"/>
            </g>
            <g id="Grupo_1209522" data-name="Grupo 1209522" transform="translate(0 179.86)">
              <g id="Grupo_1209503" data-name="Grupo 1209503">
                <path id="Trazado_1080663" data-name="Trazado 1080663" d="M415.128,380.741c-12.1-31.227-55.157-24.391-65.227-20.141s-62.014,26.793-62.014,26.793l-.014.16v-.16S235.93,364.85,225.859,360.6s-53.124-11.087-65.227,20.141c-5.749,14.834,3.323,26.561,14.434,34.786a72.556,72.556,0,0,0,43.228,13.9H357.469a72.56,72.56,0,0,0,43.228-13.9C411.8,407.3,420.877,395.575,415.128,380.741Z" transform="translate(-158.853 -356.859)" fill="#213059"/>
              </g>
              <g id="Grupo_1209506" data-name="Grupo 1209506" transform="translate(97.653 48.182)">
                <g id="Grupo_1209504" data-name="Grupo 1209504">
                  <path id="Trazado_1080664" data-name="Trazado 1080664" d="M291.723,415.261H227.785a13.707,13.707,0,0,1,7.2-8.086c5.906-2.938,9.611-4.441,12.991-7.092s4.315-6.559,8.948-7.755c5.648-1.458,10.167,4.069,10.167,4.069l12.036-5.526Z" transform="translate(-227.785 -390.87)" fill="#255c99"/>
                </g>
                <g id="Grupo_1209505" data-name="Grupo 1209505" transform="translate(21.467 1.213)">
                  <path id="Trazado_1080665" data-name="Trazado 1080665" d="M242.938,398.564h0c12.2,6.8,17.841-2.525,17.841-2.525s-4.519-5.526-10.167-4.069C246.62,393,245.37,396.045,242.938,398.564Z" transform="translate(-242.938 -391.726)" fill="#ea8475"/>
                </g>
              </g>
              <g id="Grupo_1209510" data-name="Grupo 1209510" transform="translate(94.308 40.607)">
                <g id="Grupo_1209507" data-name="Grupo 1209507">
                  <path id="Trazado_1080666" data-name="Trazado 1080666" d="M225.424,409.173l20.272,8.316s10.561,13.659,21.1,17.6c9.632,3.6,15.014-2.141,15.335-5.5.533-5.543-11.386-13.12-13.326-21.111-.527-2.172-1.432-6.929-4.2-8.915-3.767-2.7-10.656-1.434-10.656-1.434l-13.55-12.61Z" transform="translate(-225.424 -385.523)" fill="#2178bf"/>
                </g>
                <g id="Grupo_1209508" data-name="Grupo 1209508" transform="translate(28.519 12.312)">
                  <path id="Trazado_1080667" data-name="Trazado 1080667" d="M260.713,405.873c-.106-.336-.215-.672-.3-1.014-.527-2.172-1.432-6.929-4.2-8.915-3.767-2.7-10.656-1.434-10.656-1.434S249.9,409.177,260.713,405.873Z" transform="translate(-245.555 -394.214)" fill="#f5bc54"/>
                </g>
                <g id="Grupo_1209509" data-name="Grupo 1209509" transform="translate(19.74 23.924)">
                  <path id="Trazado_1080668" data-name="Trazado 1080668" d="M239.889,410.983a.531.531,0,0,1-.009-1.062c.242,0,5.947-.19,7.741-7.112a.531.531,0,1,1,1.028.265c-2,7.726-8.685,7.906-8.753,7.908Z" transform="translate(-239.358 -402.411)" fill="#255c99"/>
                </g>
              </g>
              <g id="Grupo_1209513" data-name="Grupo 1209513" transform="translate(17.084 4.06)">
                <g id="Grupo_1209511" data-name="Grupo 1209511">
                  <path id="Trazado_1080669" data-name="Trazado 1080669" d="M251.046,428.237c19.956-10.948,17.863-32.845,17.863-32.845-27.425-31.321-63.734-35.2-63.734-35.2s-24.16-4.759-32.475,16.123,13.814,47.662,36.749,51.825Z" transform="translate(-170.912 -359.725)" fill="#213059"/>
                </g>
                <g id="Grupo_1209512" data-name="Grupo 1209512" transform="translate(43.198 1.847)">
                  <path id="Trazado_1080670" data-name="Trazado 1080670" d="M238.343,428.225a.531.531,0,0,1-.256-1c18.5-10.149,17.731-30.129,17.6-32.161-18.781-21.377-41.812-29.846-53.885-32.994a.532.532,0,1,1,.269-1.029c12.214,3.186,35.544,11.768,54.534,33.456a.538.538,0,0,1,.129.3c.021.222,1.9,22.372-18.136,33.362A.534.534,0,0,1,238.343,428.225Z" transform="translate(-201.405 -361.028)" fill="#255c99"/>
                </g>
              </g>
              <g id="Grupo_1209518" data-name="Grupo 1209518" transform="translate(75.784 7.195)">
                <g id="Grupo_1209514" data-name="Grupo 1209514" transform="translate(38.264 22.994)">
                  <path id="Trazado_1080671" data-name="Trazado 1080671" d="M254.331,396.693a.528.528,0,0,1-.409-.193L239.48,379.039a.531.531,0,1,1,.819-.677l14.441,17.462a.531.531,0,0,1-.409.87Z" transform="translate(-239.358 -378.169)" fill="#255c99"/>
                </g>
                <g id="Grupo_1209515" data-name="Grupo 1209515" transform="translate(0 0.002)">
                  <path id="Trazado_1080672" data-name="Trazado 1080672" d="M265.584,385.808a.538.538,0,0,1-.212-.044c-.426-.186-42.746-18.606-52.7-22.807a.531.531,0,1,1,.414-.979c9.958,4.2,52.284,22.627,52.711,22.812a.531.531,0,0,1-.213,1.017Z" transform="translate(-212.348 -361.939)" fill="#2178bf"/>
                </g>
                <g id="Grupo_1209516" data-name="Grupo 1209516" transform="translate(53.897 22.994)">
                  <path id="Trazado_1080673" data-name="Trazado 1080673" d="M250.924,396.693a.531.531,0,0,1-.409-.87l14.44-17.462a.531.531,0,1,1,.819.677L251.334,396.5A.528.528,0,0,1,250.924,396.693Z" transform="translate(-250.393 -378.169)" fill="#255c99"/>
                </g>
                <g id="Grupo_1209517" data-name="Grupo 1209517" transform="translate(52.719)">
                  <path id="Trazado_1080674" data-name="Trazado 1080674" d="M250.093,385.809a.532.532,0,0,1-.212-1.019c.426-.186,42.753-18.609,52.711-22.812a.531.531,0,1,1,.412.979c-9.951,4.2-52.272,22.621-52.7,22.807A.493.493,0,0,1,250.093,385.809Z" transform="translate(-249.562 -361.937)" fill="#2178bf"/>
                </g>
              </g>
              <g id="Grupo_1209521" data-name="Grupo 1209521" transform="translate(142.39 4.06)">
                <g id="Grupo_1209519" data-name="Grupo 1209519" transform="translate(0.521)">
                  <path id="Trazado_1080675" data-name="Trazado 1080675" d="M277.657,428.237c-19.956-10.948-17.863-32.845-17.863-32.845,27.425-31.321,63.734-35.2,63.734-35.2s24.16-4.759,32.475,16.123-13.814,47.662-36.749,51.825Z" transform="translate(-259.732 -359.725)" fill="#213059"/>
                </g>
                <g id="Grupo_1209520" data-name="Grupo 1209520" transform="translate(0 1.845)">
                  <path id="Trazado_1080676" data-name="Trazado 1080676" d="M277.81,428.226a.539.539,0,0,1-.256-.065c-20.031-10.99-18.156-33.138-18.135-33.362a.528.528,0,0,1,.129-.3c18.987-21.689,42.317-30.27,54.533-33.456a.532.532,0,0,1,.269,1.028c-12.074,3.148-35.1,11.617-53.885,32.994-.129,2.033-.9,22.012,17.6,32.161a.532.532,0,0,1-.256,1Z" transform="translate(-259.364 -361.027)" fill="#255c99"/>
                </g>
              </g>
            </g>
            <g id="Grupo_1209555" data-name="Grupo 1209555" transform="translate(32.649 90.534)">
              <g id="Grupo_1209534" data-name="Grupo 1209534" transform="translate(67.896)">
                <g id="Grupo_1209523" data-name="Grupo 1209523">
                  <path id="Trazado_1080677" data-name="Trazado 1080677" d="M282.431,293.8l-21.421,3.172h-5.176L234.412,293.8l-4.586,1.98,1.186,53.762,24.59,7.068h5.638l24.59-7.068,1.187-53.762Z" transform="translate(-229.826 -293.804)" fill="#255c99"/>
                </g>
                <g id="Grupo_1209533" data-name="Grupo 1209533" transform="translate(0.001)">
                  <g id="Grupo_1209524" data-name="Grupo 1209524">
                    <path id="Trazado_1080678" data-name="Trazado 1080678" d="M261.009,296.976h-5.175L234.413,293.8l-4.586,1.98,25.119,4.38s3.938-1.385,7.126,0l24.947-4.38-4.586-1.98Z" transform="translate(-229.827 -293.804)" fill="#fff"/>
                  </g>
                  <g id="Grupo_1209525" data-name="Grupo 1209525" transform="translate(24.615 2.818)">
                    <path id="Trazado_1080679" data-name="Trazado 1080679" d="M247.7,299.687a.351.351,0,0,1-.32-.205,3.33,3.33,0,0,1,.951-3.574.353.353,0,1,1,.521.477,2.666,2.666,0,0,0-.827,2.8.355.355,0,0,1-.179.466A.336.336,0,0,1,247.7,299.687Z" transform="translate(-247.202 -295.793)" fill="#f8b3ff"/>
                  </g>
                  <g id="Grupo_1209526" data-name="Grupo 1209526" transform="translate(24.763 6.005)">
                    <path id="Trazado_1080680" data-name="Trazado 1080680" d="M248.32,355.2a.353.353,0,0,1-.354-.35l-.659-56.451a.355.355,0,0,1,.35-.358h0a.353.353,0,0,1,.354.35l.659,56.451a.355.355,0,0,1-.35.358Z" transform="translate(-247.307 -298.043)" fill="#213059"/>
                  </g>
                  <g id="Grupo_1209527" data-name="Grupo 1209527" transform="translate(30.827 2.817)">
                    <path id="Trazado_1080681" data-name="Trazado 1080681" d="M253,299.689a.361.361,0,0,1-.085-.011.354.354,0,0,1-.261-.428,2.783,2.783,0,0,0-.921-2.814.355.355,0,1,1,.409-.579,3.5,3.5,0,0,1,1.2,3.561A.356.356,0,0,1,253,299.689Z" transform="translate(-251.587 -295.793)" fill="#f8b3ff"/>
                  </g>
                  <g id="Grupo_1209528" data-name="Grupo 1209528" transform="translate(31.059 6.005)">
                    <path id="Trazado_1080682" data-name="Trazado 1080682" d="M252.105,355.2H252.1a.354.354,0,0,1-.349-.36l.83-56.451a.353.353,0,0,1,.354-.348h.006a.353.353,0,0,1,.349.36l-.83,56.451A.354.354,0,0,1,252.105,355.2Z" transform="translate(-251.751 -298.043)" fill="#213059"/>
                  </g>
                  <g id="Grupo_1209529" data-name="Grupo 1209529" transform="translate(7.036 1.064)">
                    <path id="Trazado_1080683" data-name="Trazado 1080683" d="M253.153,297.708l-.033,0-18.146-2.726a.215.215,0,0,1-.178-.242.205.205,0,0,1,.242-.178l18.146,2.726a.213.213,0,0,1-.031.424Z" transform="translate(-234.793 -294.555)" fill="#f8b3ff"/>
                  </g>
                  <g id="Grupo_1209530" data-name="Grupo 1209530" transform="translate(1.121 1.191)">
                    <path id="Trazado_1080684" data-name="Trazado 1080684" d="M245.139,297.422l-.034,0L230.8,295.067a.213.213,0,0,1,.068-.421L245.173,297a.213.213,0,0,1-.034.424Z" transform="translate(-230.618 -294.645)" fill="#f8b3ff"/>
                  </g>
                  <g id="Grupo_1209531" data-name="Grupo 1209531" transform="translate(31.756 2.238)">
                    <path id="Trazado_1080685" data-name="Trazado 1080685" d="M252.42,297.326a.177.177,0,0,1-.027-.351l10.079-1.584a.161.161,0,0,1,.2.146.176.176,0,0,1-.146.2l-10.079,1.584A.118.118,0,0,1,252.42,297.326Z" transform="translate(-252.243 -295.384)" fill="#f8b3ff"/>
                  </g>
                  <g id="Grupo_1209532" data-name="Grupo 1209532" transform="translate(32.141 1.767)">
                    <path id="Trazado_1080686" data-name="Trazado 1080686" d="M252.692,298.9a.177.177,0,0,1-.031-.351l19.193-3.492a.178.178,0,0,1,.064.35L252.725,298.9Z" transform="translate(-252.515 -295.051)" fill="#f8b3ff"/>
                  </g>
                </g>
              </g>
              <g id="Grupo_1209544" data-name="Grupo 1209544" transform="translate(102.579 16.812)">
                <g id="Grupo_1209539" data-name="Grupo 1209539">
                  <g id="Grupo_1209535" data-name="Grupo 1209535">
                    <path id="Trazado_1080687" data-name="Trazado 1080687" d="M299.683,335.269l-11.952-5.677-9.546-15.3a7.1,7.1,0,0,0-3.258-2.784l-13.054-5.538a3.806,3.806,0,0,0-4.392,1.046h0s-2.074-.836-2.461.15c-.615,1.565,1.009,3.121,1.009,3.121a1.251,1.251,0,0,0-1.643.7c-.367.946.691,3.243.691,3.243s-.1.526-.215,1.179a4.191,4.191,0,0,0,.965,3.481l8.412,9.666c4.224,10.252,10.2,13.958,17.85,14.038l10.663,7.5Z" transform="translate(-254.308 -305.671)" fill="#fdb"/>
                  </g>
                  <g id="Grupo_1209536" data-name="Grupo 1209536" transform="translate(27.781 23.921)">
                    <path id="Trazado_1080688" data-name="Trazado 1080688" d="M279.56,322.557l-5.641,13.008,10.665,7.5,6.929-14.827Z" transform="translate(-273.919 -322.557)" fill="#ea8475"/>
                  </g>
                  <g id="Grupo_1209537" data-name="Grupo 1209537" transform="translate(0.24 0.817)">
                    <path id="Trazado_1080689" data-name="Trazado 1080689" d="M265.315,323.126a.527.527,0,0,1-.34-.123l-10.306-8.6a.531.531,0,1,1,.68-.816l9.773,8.154,4.212-9.174-12.132-5.3a.531.531,0,1,1,.426-.973l12.628,5.519a.531.531,0,0,1,.269.708l-4.727,10.3a.538.538,0,0,1-.366.3A.672.672,0,0,1,265.315,323.126Z" transform="translate(-254.478 -306.248)" fill="#ea8475"/>
                  </g>
                  <g id="Grupo_1209538" data-name="Grupo 1209538" transform="translate(1.193 4.087)">
                    <path id="Trazado_1080690" data-name="Trazado 1080690" d="M267.615,316.546a.535.535,0,0,1-.266-.072l-11.934-6.926a.532.532,0,1,1,.534-.919l11.934,6.926a.532.532,0,0,1-.268.992Z" transform="translate(-255.15 -308.556)" fill="#ea8475"/>
                  </g>
                </g>
                <g id="Grupo_1209543" data-name="Grupo 1209543" transform="translate(26.372 23.063)">
                  <g id="Grupo_1209540" data-name="Grupo 1209540" transform="translate(0.531 0.531)">
                    <path id="Trazado_1080691" data-name="Trazado 1080691" d="M282.629,322.326s23.419,9.99,38.088,15.753c13.686,5.376,18.085,22.5,14.837,31.022-3.649,9.575-20.6,11.269-31.581,3.948C292.054,365.1,273.3,339.812,273.3,339.812Z" transform="translate(-273.299 -322.326)" fill="#ff4d4d"/>
                  </g>
                  <g id="Grupo_1209541" data-name="Grupo 1209541" transform="translate(0.521 0.531)">
                    <path id="Trazado_1080692" data-name="Trazado 1080692" d="M282.624,322.326s4.593,1.959,10.98,4.641h0s4.056,13.178-12.406,22.917c-4.652-5.688-7.906-10.072-7.906-10.072Z" transform="translate(-273.292 -322.326)" fill="#fff"/>
                  </g>
                  <g id="Grupo_1209542" data-name="Grupo 1209542">
                    <path id="Trazado_1080693" data-name="Trazado 1080693" d="M288.082,358.489a.528.528,0,0,1-.412-.2L273.043,340.3a.532.532,0,0,1-.057-.585l9.331-17.484a.537.537,0,0,1,.679-.238c.234.1,23.58,10.053,38.073,15.746a.53.53,0,0,1-.387.987c-13.4-5.262-34.335-14.154-37.655-15.566L274.091,339.9l14.4,17.718a.53.53,0,0,1-.078.747A.523.523,0,0,1,288.082,358.489Z" transform="translate(-272.924 -321.951)" fill="#213059"/>
                  </g>
                </g>
              </g>
              <g id="Grupo_1209554" data-name="Grupo 1209554" transform="translate(0 17.424)">
                <g id="Grupo_1209549" data-name="Grupo 1209549" transform="translate(44.648)">
                  <g id="Grupo_1209545" data-name="Grupo 1209545">
                    <path id="Trazado_1080694" data-name="Trazado 1080694" d="M213.416,335.7l11.952-5.677,9.545-15.3a7.112,7.112,0,0,1,3.258-2.784l13.054-5.538a3.806,3.806,0,0,1,4.392,1.045h0s2.074-.836,2.461.15c.615,1.565-1.009,3.121-1.009,3.121a1.251,1.251,0,0,1,1.643.7c.367.946-.691,3.241-.691,3.241s.1.526.215,1.179a4.2,4.2,0,0,1-.965,3.481l-8.412,9.666c-4.224,10.252-10.2,13.958-17.85,14.038l-10.665,7.5Z" transform="translate(-213.416 -306.103)" fill="#fdb"/>
                  </g>
                  <g id="Grupo_1209546" data-name="Grupo 1209546" transform="translate(0 23.921)">
                    <path id="Trazado_1080695" data-name="Trazado 1080695" d="M225.368,322.989,231.009,336l-10.664,7.5-6.929-14.827Z" transform="translate(-213.416 -322.989)" fill="#ea8475"/>
                  </g>
                  <g id="Grupo_1209547" data-name="Grupo 1209547" transform="translate(29.04 0.817)">
                    <path id="Trazado_1080696" data-name="Trazado 1080696" d="M239.174,323.558a.56.56,0,0,1-.118-.013.531.531,0,0,1-.365-.3l-4.727-10.295a.53.53,0,0,1,.269-.708l12.628-5.521a.531.531,0,0,1,.426.973L235.153,313l4.213,9.173,9.773-8.154a.531.531,0,0,1,.68.816l-10.306,8.6A.516.516,0,0,1,239.174,323.558Z" transform="translate(-233.915 -306.68)" fill="#ea8475"/>
                  </g>
                  <g id="Grupo_1209548" data-name="Grupo 1209548" transform="translate(31.187 4.088)">
                    <path id="Trazado_1080697" data-name="Trazado 1080697" d="M235.963,316.976a.532.532,0,0,1-.268-.992l11.934-6.925a.531.531,0,0,1,.533.919L236.227,316.9A.512.512,0,0,1,235.963,316.976Z" transform="translate(-235.43 -308.989)" fill="#ea8475"/>
                  </g>
                </g>
                <g id="Grupo_1209553" data-name="Grupo 1209553" transform="translate(0 22.453)">
                  <g id="Grupo_1209550" data-name="Grupo 1209550" transform="translate(0 0.528)">
                    <path id="Trazado_1080698" data-name="Trazado 1080698" d="M235.844,322.326s-23.419,9.99-38.088,15.753c-13.686,5.376-18.085,22.5-14.837,31.022,3.649,9.575,20.6,11.269,31.581,3.948,11.918-7.946,30.673-33.237,30.673-33.237Z" transform="translate(-181.899 -322.326)" fill="#ff4d4d"/>
                  </g>
                  <g id="Grupo_1209551" data-name="Grupo 1209551" transform="translate(42.522 0.528)">
                    <path id="Trazado_1080699" data-name="Trazado 1080699" d="M223.337,322.326s-4.593,1.959-10.98,4.641h0s-4.056,13.178,12.406,22.917c4.652-5.688,7.9-10.072,7.9-10.072Z" transform="translate(-211.915 -322.326)" fill="#fff"/>
                  </g>
                  <g id="Grupo_1209552" data-name="Grupo 1209552" transform="translate(15.325)">
                    <path id="Trazado_1080700" data-name="Trazado 1080700" d="M225.9,358.651a.53.53,0,0,1-.412-.866l14.548-17.88L231.1,323.163c-3.319,1.412-24.259,10.3-37.655,15.566a.53.53,0,1,1-.388-.987c14.494-5.694,37.839-15.647,38.074-15.746a.533.533,0,0,1,.677.238l9.331,17.484a.532.532,0,0,1-.057.585l-14.77,18.153A.53.53,0,0,1,225.9,358.651Z" transform="translate(-192.717 -321.953)" fill="#213059"/>
                  </g>
                </g>
              </g>
            </g>
          </g>
          <g id="Grupo_1209561" data-name="Grupo 1209561" transform="translate(221.257 78.959)">
            <g id="Grupo_1209559" data-name="Grupo 1209559">
              <g id="Grupo_1209557" data-name="Grupo 1209557" transform="translate(0.277)">
                <path id="Trazado_1080701" data-name="Trazado 1080701" d="M264.831,191.467h-26.19a3.422,3.422,0,0,0-3.422,3.422v18.094a3.422,3.422,0,0,0,3.422,3.422h10.09l2.479,4.608a.806.806,0,0,0,1.419,0l2.479-4.608h9.723a3.422,3.422,0,0,0,3.422-3.422V194.889A3.424,3.424,0,0,0,264.831,191.467Z" transform="translate(-235.219 -191.467)" fill="#ffe6f8"/>
              </g>
              <g id="Grupo_1209558" data-name="Grupo 1209558" transform="translate(0 21.515)">
                <path id="Trazado_1080702" data-name="Trazado 1080702" d="M251.944,219.689a1.067,1.067,0,0,1-.953-.57l-2.4-4.463h-9.925a3.7,3.7,0,0,1-3.7-3.7h.552a3.149,3.149,0,0,0,3.146,3.146H248.92l2.556,4.753a.547.547,0,0,0,.933,0l2.556-4.754h9.889A3.149,3.149,0,0,0,268,210.959h.552a3.7,3.7,0,0,1-3.7,3.7H255.3l-2.4,4.464A1.061,1.061,0,0,1,251.944,219.689Z" transform="translate(-234.968 -210.959)" fill="#f8b3ff"/>
              </g>
            </g>
            <g id="Grupo_1209560" data-name="Grupo 1209560" transform="translate(9.397 5.945)">
              <path id="Trazado_1080703" data-name="Trazado 1080703" d="M259.109,200.074a4.339,4.339,0,0,0-7.742-1.38,4.336,4.336,0,1,0-7.082,5.006h-.009l5.914,5.724a1.692,1.692,0,0,0,2.353,0l5.914-5.724h-.009A4.331,4.331,0,0,0,259.109,200.074Z" transform="translate(-243.482 -196.853)" fill="#ff4d4d"/>
            </g>
          </g>
        </g>
        <g id="TEXTS" transform="translate(30.869 33.958)">
          <text id="A-Z" transform="translate(2.496 170.637) rotate(13.15)" fill="#fff" font-size="35" font-family="Roboto-Black, Roboto" font-weight="800"><tspan x="0" y="0">A-Z</tspan></text>
          <text id="A-Z-2" data-name="A-Z" transform="translate(284.355 224.435) rotate(-17.29)" fill="#fff" font-size="22" font-family="Roboto-Black, Roboto" font-weight="800"><tspan x="0" y="0">A-Z</tspan></text>
          <g id="Grupo_1209562" data-name="Grupo 1209562" transform="translate(54.814 0)">
            <text id="S-T" transform="translate(0.921 17.746) rotate(9.642)" fill="#b375db" font-size="17" font-family="Roboto-Black, Roboto" font-weight="800"><tspan x="0" y="0">S-T</tspan></text>
          </g>
          <g id="Grupo_1209563" data-name="Grupo 1209563" transform="translate(244.598 3.848)">
            <text id="S-T-2" data-name="S-T" transform="matrix(0.998, -0.068, 0.068, 0.998, 1.293, 21.088)" fill="#b375db" font-size="18" font-family="Roboto-Black, Roboto" font-weight="800"><tspan x="0" y="0">S-T</tspan></text>
          </g>
        </g>
      </g>
    </g>
  </g>
</svg>
