<svg xmlns="http://www.w3.org/2000/svg" xmlns:xlink="http://www.w3.org/1999/xlink" width="108" height="108" viewBox="0 0 108 108">
  <defs>
    <filter id="Trazado_904820" x="0" y="0" width="108" height="108" filterUnits="userSpaceOnUse">
      <feOffset dy="3" input="SourceAlpha"/>
      <feGaussianBlur stdDeviation="3" result="blur"/>
      <feFlood flood-opacity="0.161"/>
      <feComposite operator="in" in2="blur"/>
      <feComposite in="SourceGraphic"/>
    </filter>
  </defs>
  <g id="Grupo_1209291" data-name="Grupo 1209291" transform="translate(-617 -4891)">
    <g id="Grupo_1207838" data-name="Grupo 1207838" transform="translate(0 1305)">
      <g id="Grupo_1207003" data-name="Grupo 1207003" transform="translate(-3 -5949.403)">
        <g id="Grupo_1185091" data-name="Grupo 1185091" transform="translate(419.773 8756.733)">
          <g id="Grupo_1179560" data-name="Grupo 1179560" transform="translate(-0.227 23)">
            <g id="Grupo_1173787" data-name="Grupo 1173787" transform="translate(209.455 761.67)">
              <g id="Grupo_1171910" data-name="Grupo 1171910" transform="translate(0)">
                <g id="Grupo_1167341" data-name="Grupo 1167341">
                  <g id="Grupo_1166792" data-name="Grupo 1166792">
                    <g transform="matrix(1, 0, 0, 1, -9, -6)" filter="url(#Trazado_904820)">
                      <g id="Trazado_904820-2" data-name="Trazado 904820" transform="translate(9 6)" fill="#f9ecff">
                        <path d="M 44.99999618530273 88.50003051757812 C 39.12687301635742 88.50003051757812 33.43022155761719 87.35010528564453 28.06829643249512 85.08219909667969 C 22.88852119445801 82.89134216308594 18.23629570007324 79.75461578369141 14.24084663391113 75.75916290283203 C 10.24540901184082 71.76371765136719 7.108683586120605 67.11150360107422 4.917821407318115 61.93172836303711 C 2.649921178817749 56.56978988647461 1.499996185302734 50.87313842773438 1.499996185302734 45.00001525878906 C 1.499996185302734 39.12689208984375 2.649921178817749 33.43024063110352 4.917821407318115 28.06831550598145 C 7.108683586120605 22.88854026794434 10.24540901184082 18.23631477355957 14.24084663391113 14.24086570739746 C 18.23629570007324 10.24541568756104 22.88852119445801 7.10869026184082 28.06829643249512 4.917840480804443 C 33.43022155761719 2.649927854537964 39.12687301635742 1.50000274181366 44.99999618530273 1.50000274181366 C 50.87311935424805 1.50000274181366 56.56977081298828 2.649927854537964 61.93169784545898 4.917840480804443 C 67.11147308349609 7.10869026184082 71.76369476318359 10.24541568756104 75.75914764404297 14.24086570739746 C 79.75458526611328 18.23631477355957 82.89131164550781 22.88854026794434 85.08216857910156 28.06831550598145 C 87.35007476806641 33.43024063110352 88.5 39.12689208984375 88.5 45.00001525878906 C 88.5 50.87313842773438 87.35007476806641 56.56978988647461 85.08216857910156 61.93172836303711 C 82.89131164550781 67.11150360107422 79.75458526611328 71.76371765136719 75.75914764404297 75.75916290283203 C 71.76369476318359 79.75461578369141 67.11147308349609 82.89134216308594 61.93169784545898 85.08219909667969 C 56.56977081298828 87.35010528564453 50.87311935424805 88.50003051757812 44.99999618530273 88.50003051757812 Z" stroke="none"/>
                        <path d="M 44.99999618530273 3 C 39.32870864868164 3 33.82865142822266 4.110061645507812 28.65262603759766 6.299346923828125 C 23.65165710449219 8.414573669433594 19.15968322753906 11.44334411621094 15.301513671875 15.301513671875 C 11.44333648681641 19.15968322753906 8.414566040039062 23.65165710449219 6.299339294433594 28.65262985229492 C 4.110054016113281 33.82867050170898 2.999992370605469 39.32872772216797 2.999992370605469 45.00001525878906 C 2.999992370605469 50.67130279541016 4.110054016113281 56.17136001586914 6.299339294433594 61.34738922119141 C 8.414566040039062 66.34837341308594 11.44333648681641 70.84033203125 15.301513671875 74.69850158691406 C 19.15968322753906 78.55668640136719 23.65165710449219 81.58545684814453 28.65262603759766 83.70068359375 C 33.82865142822266 85.88996887207031 39.32870864868164 87.00003051757812 44.99999618530273 87.00003051757812 C 50.67128372192383 87.00003051757812 56.17134094238281 85.88996887207031 61.34736633300781 83.70068359375 C 66.34834289550781 81.58545684814453 70.84030914306641 78.55668640136719 74.69847869873047 74.69850158691406 C 78.55665588378906 70.84033203125 81.58542633056641 66.34837341308594 83.70065307617188 61.34738922119141 C 85.88993835449219 56.17136001586914 87 50.67130279541016 87 45.00001525878906 C 87 39.32872772216797 85.88993835449219 33.82867050170898 83.70065307617188 28.65262985229492 C 81.58542633056641 23.65165710449219 78.55665588378906 19.15968322753906 74.69847869873047 15.301513671875 C 70.84030914306641 11.44334411621094 66.34834289550781 8.414573669433594 61.34736633300781 6.299346923828125 C 56.17134094238281 4.110061645507812 50.67128372192383 3 44.99999618530273 3 M 44.99999618530273 0 C 69.85281372070312 0 90 20.14718627929688 90 45.00001525878906 C 90 69.85282897949219 69.85281372070312 90.00003051757812 44.99999618530273 90.00003051757812 C 20.14717864990234 90.00003051757812 -7.62939453125e-06 69.85282897949219 -7.62939453125e-06 45.00001525878906 C -7.62939453125e-06 20.14718627929688 20.14717864990234 0 44.99999618530273 0 Z" stroke="none" fill="#cf50ff"/>
                      </g>
                    </g>
                  </g>
                </g>
              </g>
            </g>
          </g>
        </g>
      </g>
    </g>
    <g id="creativo" transform="translate(565.707 4875.683)">
      <path id="Trazado_1080483" data-name="Trazado 1080483" d="M276.266,42.818a7.227,7.227,0,0,0-3.052-5.9,5.788,5.788,0,0,0-5.634-7.125A5.79,5.79,0,0,0,261.626,24,5.869,5.869,0,0,0,256,29.911V61.636h5.79a5.79,5.79,0,0,0,5.79-5.79h0a5.788,5.788,0,0,0,5.634-7.125,7.227,7.227,0,0,0,3.052-5.9Z" transform="translate(-150.708 -6.56)" fill="#e0b999"/>
      <path id="Trazado_1080484" data-name="Trazado 1080484" d="M158.64,24a5.79,5.79,0,0,0-5.954,5.788,5.788,5.788,0,0,0-5.634,7.125,7.234,7.234,0,0,0,0,11.805,5.788,5.788,0,0,0,5.634,7.125h0a5.79,5.79,0,0,0,5.79,5.79h5.79V29.911A5.869,5.869,0,0,0,158.64,24Z" transform="translate(-58.974 -6.56)" fill="#e0b999"/>
      <path id="Trazado_1080485" data-name="Trazado 1080485" d="M200,280v17.135a11.579,11.579,0,0,0,1.578,5.835l8.555,14.666,8.555-14.666a11.581,11.581,0,0,0,1.577-5.835V280Z" transform="translate(-104.841 -216.238)" fill="#3397e8"/>
      <path id="Trazado_1080486" data-name="Trazado 1080486" d="M221.791,392a11.466,11.466,0,0,1-1.145,2.705l-8.555,14.665-8.555-14.665A11.468,11.468,0,0,1,202.39,392Z" transform="translate(-106.798 -307.972)" fill="#fbe9d8"/>
      <path id="Trazado_1080487" data-name="Trazado 1080487" d="M238.133,440l-5.066,8.685L228,440Z" transform="translate(-127.774 -347.287)" fill="#6a7073"/>
      <path id="Trazado_1080488" data-name="Trazado 1080488" d="M207.161,264H186.9a2.9,2.9,0,0,0-2.9,2.9h0a2.9,2.9,0,0,0,2.9,2.9h20.266a2.9,2.9,0,0,0,2.9-2.9h0A2.9,2.9,0,0,0,207.161,264Z" transform="translate(-91.736 -203.133)" fill="#dadcde"/>
      <rect id="Rectángulo_417882" data-name="Rectángulo 417882" width="8.501" height="17.001" transform="translate(101.042 66.712)" fill="#2978b8"/>
      <path id="Trazado_1080489" data-name="Trazado 1080489" d="M207.161,232H186.9a2.9,2.9,0,0,0-2.9,2.9h0a2.9,2.9,0,0,0,2.9,2.9h20.266a2.9,2.9,0,0,0,2.9-2.9h0A2.9,2.9,0,0,0,207.161,232Z" transform="translate(-91.736 -176.923)" fill="#e9eef2"/>
      <path id="Trazado_1080490" data-name="Trazado 1080490" d="M137.179,29.755a7.172,7.172,0,0,0,.038-.734,7.248,7.248,0,0,0-5.912-7.114,7.194,7.194,0,0,0-12.906-2.94,7.206,7.206,0,0,0-12.906,2.94,7.232,7.232,0,0,0-5.874,7.848,8.679,8.679,0,0,0,0,13.008,7.232,7.232,0,0,0,5.876,7.848,7.212,7.212,0,0,0,1.482,3.214,4.34,4.34,0,0,0-1.943,7.042,4.338,4.338,0,0,0,1.786,6.989V80.9a13.041,13.041,0,0,0,1.775,6.564l7.286,12.489H92.343a1.448,1.448,0,0,1,0-2.9H99.58a4.343,4.343,0,0,0,0-8.685H95.238a1.448,1.448,0,0,0,0,2.9H99.58a1.448,1.448,0,0,1,0,2.9H92.343a4.343,4.343,0,0,0,0,8.685H118.4a1.448,1.448,0,0,0,1.25-.718L128.2,87.461a13.042,13.042,0,0,0,1.775-6.564V67.856a4.339,4.339,0,0,0,1.786-6.989,4.339,4.339,0,0,0-1.944-7.042,7.21,7.21,0,0,0,1.482-3.214,7.248,7.248,0,0,0,5.914-7.114,7.169,7.169,0,0,0-.038-.734,8.678,8.678,0,0,0,0-13.008ZM102.476,43.5a4.368,4.368,0,0,1,.118-1,1.448,1.448,0,0,0-.571-1.513,5.787,5.787,0,0,1,0-9.445,1.448,1.448,0,0,0,.571-1.513,4.343,4.343,0,1,1,8.568-1,1.448,1.448,0,1,0,2.9,0,7.249,7.249,0,0,0-5.605-7.05,4.349,4.349,0,0,1,4.282-3.081,4.434,4.434,0,0,1,4.219,4.462V53.629h-4.343a4.35,4.35,0,0,1-4.156-3.083,7.249,7.249,0,0,0,5.6-7.049,1.448,1.448,0,1,0-2.9,0,4.343,4.343,0,1,1-8.685,0ZM115.5,82.58V68.1h5.79V82.58Zm-2.9,0h-2.754a10.117,10.117,0,0,1-.141-1.683V68.1h2.9Zm5.79,15.945-2.546-4.365h5.092Zm4.234-7.26h-8.468L111.094,86c-.1-.173-.2-.349-.286-.527H125.99c-.09.178-.185.354-.286.527Zm4.309-8.685h-2.753V68.1h2.9V80.9a10.107,10.107,0,0,1-.141,1.68Zm1.59-17.371H108.266a1.448,1.448,0,0,1,0-2.9h20.266a1.448,1.448,0,0,1,0,2.9Zm0-5.79H108.266a1.448,1.448,0,0,1,0-2.9h20.266a1.448,1.448,0,0,1,0,2.9Zm6.243-18.438a1.448,1.448,0,0,0-.57,1.513,4.343,4.343,0,1,1-8.568,1,1.448,1.448,0,1,0-2.9,0,7.249,7.249,0,0,0,5.6,7.049,4.35,4.35,0,0,1-4.156,3.083h-4.343V23.351a4.435,4.435,0,0,1,4.219-4.462,4.349,4.349,0,0,1,4.282,3.081,7.249,7.249,0,0,0-5.605,7.05,1.448,1.448,0,1,0,2.9,0,4.343,4.343,0,1,1,8.568,1,1.448,1.448,0,0,0,.57,1.513,5.786,5.786,0,0,1,0,9.445Z" transform="translate(-13.106 0)"/>
      <path id="Trazado_1080491" data-name="Trazado 1080491" d="M287.238,112a1.448,1.448,0,0,0-1.448,1.448,1.448,1.448,0,1,1-2.9,0,1.448,1.448,0,1,0-2.9,0,4.343,4.343,0,1,0,8.685,0A1.448,1.448,0,0,0,287.238,112Z" transform="translate(-170.365 -78.636)"/>
      <path id="Trazado_1080492" data-name="Trazado 1080492" d="M192.685,113.448a1.448,1.448,0,0,0-2.9,0,1.448,1.448,0,0,1-2.9,0,1.448,1.448,0,0,0-2.9,0,4.343,4.343,0,1,0,8.685,0Z" transform="translate(-91.736 -78.636)"/>
      <path id="Trazado_1080493" data-name="Trazado 1080493" d="M73.448,114.9h5.79a1.448,1.448,0,1,0,0-2.9h-5.79a1.448,1.448,0,1,0,0,2.9Z" transform="translate(-0.001 -78.636)"/>
      <path id="Trazado_1080494" data-name="Trazado 1080494" d="M72.8,34.741l5.79,2.9a1.448,1.448,0,1,0,1.295-2.589l-5.79-2.9A1.448,1.448,0,1,0,72.8,34.741Z" transform="translate(0 -13.111)"/>
      <path id="Trazado_1080495" data-name="Trazado 1080495" d="M80.531,176.8a1.448,1.448,0,0,0-1.942-.647l-5.79,2.9a1.448,1.448,0,1,0,1.295,2.589l5.79-2.9A1.448,1.448,0,0,0,80.531,176.8Z" transform="translate(0 -131.055)"/>
      <path id="Trazado_1080496" data-name="Trazado 1080496" d="M399.884,179.047l-5.79-2.9a1.448,1.448,0,1,0-1.295,2.589l5.79,2.9a1.448,1.448,0,1,0,1.295-2.589Z" transform="translate(-262.098 -131.055)"/>
      <path id="Trazado_1080497" data-name="Trazado 1080497" d="M393.445,37.787a1.443,1.443,0,0,0,.646-.153l5.79-2.9a1.448,1.448,0,0,0-1.295-2.589l-5.79,2.9a1.448,1.448,0,0,0,.648,2.743Z" transform="translate(-262.096 -13.109)"/>
      <path id="Trazado_1080498" data-name="Trazado 1080498" d="M393.448,114.9h5.79a1.448,1.448,0,1,0,0-2.9h-5.79a1.448,1.448,0,1,0,0,2.9Z" transform="translate(-262.099 -78.636)"/>
    </g>
  </g>
</svg>
