<svg xmlns="http://www.w3.org/2000/svg" xmlns:xlink="http://www.w3.org/1999/xlink" width="103" height="103" viewBox="0 0 103 103">
  <defs>
    <filter id="Trazado_978624" x="0" y="0" width="103" height="103" filterUnits="userSpaceOnUse">
      <feOffset dy="3" input="SourceAlpha"/>
      <feGaussianBlur stdDeviation="3" result="blur"/>
      <feFlood flood-opacity="0.161"/>
      <feComposite operator="in" in2="blur"/>
      <feComposite in="SourceGraphic"/>
    </filter>
  </defs>
  <g id="Grupo_1209567" data-name="Grupo 1209567" transform="translate(-160 -6090)">
    <g id="Grupo_1207977" data-name="Grupo 1207977" transform="translate(0 202)">
      <g id="Grupo_1206641" data-name="Grupo 1206641" transform="translate(0 -7254)">
        <g id="Grupo_1185491" data-name="Grupo 1185491" transform="translate(0 9912)">
          <g id="Grupo_1183826" data-name="Grupo 1183826" transform="translate(-11 -401)">
            <g id="Grupo_1164359" data-name="Grupo 1164359" transform="translate(180 3637)">
              <g id="Grupo_1144531" data-name="Grupo 1144531">
                <g transform="matrix(1, 0, 0, 1, -9, -6)" filter="url(#Trazado_978624)">
                  <g id="Trazado_978624-2" data-name="Trazado 978624" transform="translate(9 6)" fill="#f9ecff">
                    <path d="M 42.5 83.5 C 36.96437835693359 83.5 31.59512901306152 82.41617584228516 26.54141235351562 80.27863311767578 C 21.65934181213379 78.21369171142578 17.27447128295898 75.25723266601562 13.50862312316895 71.49137878417969 C 9.742764472961426 67.72553253173828 6.786305904388428 63.34066009521484 4.721364498138428 58.45858764648438 C 2.583823442459106 53.40486907958984 1.5 48.03562164306641 1.5 42.5 C 1.5 36.96437835693359 2.583823442459106 31.59512901306152 4.721364498138428 26.54141235351562 C 6.786305904388428 21.65934181213379 9.742764472961426 17.27447128295898 13.50862312316895 13.50862312316895 C 17.27447128295898 9.742764472961426 21.65934181213379 6.786305904388428 26.54141235351562 4.721364498138428 C 31.59512901306152 2.583823442459106 36.96437835693359 1.5 42.5 1.5 C 48.03562164306641 1.5 53.40486907958984 2.583823442459106 58.45858764648438 4.721364498138428 C 63.34066009521484 6.786305904388428 67.72553253173828 9.742764472961426 71.49137878417969 13.50862312316895 C 75.25723266601562 17.27447128295898 78.21369171142578 21.65934181213379 80.27863311767578 26.54141235351562 C 82.41617584228516 31.59512901306152 83.5 36.96437835693359 83.5 42.5 C 83.5 48.03562164306641 82.41617584228516 53.40486907958984 80.27863311767578 58.45858764648438 C 78.21369171142578 63.34066009521484 75.25723266601562 67.72553253173828 71.49137878417969 71.49137878417969 C 67.72553253173828 75.25723266601562 63.34066009521484 78.21369171142578 58.45858764648438 80.27863311767578 C 53.40486907958984 82.41617584228516 48.03562164306641 83.5 42.5 83.5 Z" stroke="none"/>
                    <path d="M 42.5 3 C 37.16621398925781 3 31.99356079101562 4.043960571289062 27.125732421875 6.102882385253906 C 22.42246627807617 8.092185974121094 18.19785308837891 10.94070434570312 14.56928253173828 14.56928253173828 C 10.94070434570312 18.19785308837891 8.092185974121094 22.42246627807617 6.102882385253906 27.125732421875 C 4.043960571289062 31.99356079101562 3 37.16621398925781 3 42.5 C 3 47.83378601074219 4.043960571289062 53.00643920898438 6.102882385253906 57.87425231933594 C 8.092185974121094 62.57753372192383 10.94070434570312 66.80213165283203 14.56928253173828 70.43071746826172 C 18.19786834716797 74.05929565429688 22.42246627807617 76.90781402587891 27.125732421875 78.89711761474609 C 31.99356079101562 80.95603942871094 37.16621398925781 82 42.5 82 C 47.83378601074219 82 53.00642395019531 80.95603942871094 57.87425231933594 78.89711761474609 C 62.57753372192383 76.90781402587891 66.80213165283203 74.05929565429688 70.43071746826172 70.43071746826172 C 74.05929565429688 66.80213165283203 76.90781402587891 62.57753372192383 78.89711761474609 57.87425231933594 C 80.95603942871094 53.00642395019531 82 47.83378601074219 82 42.5 C 82 37.16621398925781 80.95603942871094 31.99356079101562 78.89711761474609 27.125732421875 C 76.90781402587891 22.42246627807617 74.05929565429688 18.19786834716797 70.43071746826172 14.56928253173828 C 66.80213165283203 10.94070434570312 62.57753372192383 8.092185974121094 57.87425231933594 6.102882385253906 C 53.00643920898438 4.043960571289062 47.83378601074219 3 42.5 3 M 42.5 0 C 65.97209167480469 0 85 19.02789306640625 85 42.5 C 85 65.97209167480469 65.97209167480469 85 42.5 85 C 19.02789306640625 85 0 65.97209167480469 0 42.5 C 0 19.02789306640625 19.02789306640625 0 42.5 0 Z" stroke="none" fill="#ebb8ff"/>
                  </g>
                </g>
              </g>
            </g>
          </g>
        </g>
      </g>
    </g>
    <g id="Page-1" transform="translate(187.383 6116.492)">
      <g id="_028---Word-Processing" data-name="028---Word-Processing" transform="translate(0)">
        <path id="Shape" d="M19.489,25.116H46.016a1.613,1.613,0,0,0,1.608-1.608V2.608A1.613,1.613,0,0,0,46.016,1H2.608A1.613,1.613,0,0,0,1,2.608v20.9a1.608,1.608,0,0,0,1.608,1.608Z" transform="translate(-0.196 -0.196)" fill="#ffdc00"/>
        <path id="Shape-2" data-name="Shape" d="M56.412,1H54a1.613,1.613,0,0,1,1.608,1.608v20.9A1.613,1.613,0,0,1,54,25.116h2.412a1.613,1.613,0,0,0,1.608-1.608V2.608A1.613,1.613,0,0,0,56.412,1Z" transform="translate(-10.592 -0.196)" fill="#fec108"/>
        <rect id="Rectangle-path" width="7.235" height="20.9" rx="2" transform="translate(0.804 23.312)" fill="#02a9f4"/>
        <path id="Shape-3" data-name="Shape" d="M7.412,29H5a1.613,1.613,0,0,1,1.608,1.608V48.293A1.613,1.613,0,0,1,5,49.9H7.412a1.613,1.613,0,0,0,1.608-1.608V30.608A1.613,1.613,0,0,0,7.412,29Z" transform="translate(-0.981 -5.688)" fill="#0377bc"/>
        <path id="Shape-4" data-name="Shape" d="M48.328,38.693,33.264,47.865a5.627,5.627,0,0,1-2.926.82H10V31h2.251a7.363,7.363,0,0,1,4.582,1.608,7.363,7.363,0,0,0,4.582,1.608h4.2a4.049,4.049,0,0,1,3.521,2.074,2.908,2.908,0,0,1-.442,3.553h1.889a3.161,3.161,0,0,0,1.021-.169l14.879-4.96a2.215,2.215,0,0,1,2.46.772v.008a2.195,2.195,0,0,1-.619,3.2Z" transform="translate(-1.961 -6.08)" fill="#ffe0b2"/>
        <path id="Shape-5" data-name="Shape" d="M29.951,37.074a2.908,2.908,0,0,1-.442,3.553H31.4a3.146,3.146,0,0,0,.569-.055,2.905,2.905,0,0,0,.4-3.5A4.049,4.049,0,0,0,28.842,35H26.43A4.049,4.049,0,0,1,29.951,37.074Z" transform="translate(-5.184 -6.865)" fill="#dfc49c"/>
        <path id="Shape-6" data-name="Shape" d="M53.321,36.373v-.008a2.215,2.215,0,0,0-2.46-.772l-.6.2a2.2,2.2,0,0,1,.65.571v.008a2.195,2.195,0,0,1-.619,3.2L35.226,48.744a5.627,5.627,0,0,1-2.926.82h2.412a5.627,5.627,0,0,0,2.926-.82L52.7,39.572a2.195,2.195,0,0,0,.619-3.2Z" transform="translate(-6.335 -6.96)" fill="#dfc49c"/>
        <path id="Shape-7" data-name="Shape" d="M14.421,32.608A7.363,7.363,0,0,0,19,34.215h2.412a7.363,7.363,0,0,1-4.582-1.608A7.363,7.363,0,0,0,12.251,31H10v.007A7.362,7.362,0,0,1,14.421,32.608Z" transform="translate(-1.961 -6.08)" fill="#dfc49c"/>
        <path id="Shape-8" data-name="Shape" d="M21.577,6.284V9.531a.8.8,0,0,1-1.1.748l-.764-.305a.781.781,0,0,0-.3-.056H15.548v9.518a.851.851,0,0,0,.04.249l.41,1.23a.8.8,0,0,1-.764,1.061H11.842a.8.8,0,0,1-.764-1.061l.41-1.23a.851.851,0,0,0,.04-.249V9.917H7.662a.781.781,0,0,0-.3.056l-.764.305a.8.8,0,0,1-1.1-.748V6.284a.8.8,0,0,1,1.1-.748l.764.305a.781.781,0,0,0,.3.056H19.415a.781.781,0,0,0,.3-.056l.764-.305a.8.8,0,0,1,1.1.748Z" transform="translate(-1.079 -1.075)" fill="#02a9f4"/>
        <g id="Grupo_1209566" data-name="Grupo 1209566">
          <path id="Shape-9" data-name="Shape" d="M2.412,50.508H6.431A2.412,2.412,0,0,0,8.695,48.9H28.376a6.431,6.431,0,0,0,3.345-.937l15.063-9.17a3,3,0,0,0,.9-4.3.664.664,0,0,0-.055-.08,3.018,3.018,0,0,0-3.356-1.051L29.387,38.325a2.366,2.366,0,0,1-.761.125h-.458a3.7,3.7,0,0,0-.283-3.135,4.838,4.838,0,0,0-4.225-2.492H19.453a6.553,6.553,0,0,1-4.08-1.432,8.171,8.171,0,0,0-5.084-1.784H8.695A2.412,2.412,0,0,0,6.431,28H2.412A2.412,2.412,0,0,0,0,30.412V48.1a2.412,2.412,0,0,0,2.412,2.412ZM14.369,32.647a8.171,8.171,0,0,0,5.084,1.784h4.2a3.318,3.318,0,0,1,2.766,1.551.792.792,0,0,0,.063.129,2.1,2.1,0,0,1-.121,2.339H21.479A8.057,8.057,0,0,0,17.02,39.8l-.588.394a.8.8,0,1,0,.9,1.336l.582-.392a6.445,6.445,0,0,1,3.568-1.08h7.146a3.955,3.955,0,0,0,1.275-.21l14.875-4.959a1.405,1.405,0,0,1,1.527.441c.012.02.025.039.039.058a1.389,1.389,0,0,1-.395,2.03L30.885,46.59a4.829,4.829,0,0,1-2.509.7H8.842V31.215h1.447A6.553,6.553,0,0,1,14.369,32.647ZM1.608,30.412a.8.8,0,0,1,.8-.8H6.431a.8.8,0,0,1,.8.8V48.1a.8.8,0,0,1-.8.8H2.412a.8.8,0,0,1-.8-.8Z" transform="translate(0 -5.492)"/>
          <path id="Shape-10" data-name="Shape" d="M19.217,10.524l.768.308a1.608,1.608,0,0,0,2.2-1.5V6.087a1.608,1.608,0,0,0-2.2-1.494l-.762.3H7.468L6.7,4.589a1.608,1.608,0,0,0-2.2,1.5V9.335a1.608,1.608,0,0,0,2.2,1.494l.762-.3h3.063v8.709l-.408,1.225a1.608,1.608,0,0,0,1.526,2.124h3.392a1.608,1.608,0,0,0,1.527-2.119l-.41-1.225V10.524ZM15.352,8.917a.8.8,0,0,0-.8.8v9.518a1.678,1.678,0,0,0,.08.5l.41,1.233H11.646l.418-1.258a1.637,1.637,0,0,0,.072-.478V9.72a.8.8,0,0,0-.8-.8H7.466a1.571,1.571,0,0,0-.6.114l-.762.3V6.085l.756.3a1.582,1.582,0,0,0,.6.117H19.219a1.571,1.571,0,0,0,.6-.114l.762-.309V9.336l-.755-.3a1.589,1.589,0,0,0-.6-.117Z" transform="translate(-0.883 -0.878)"/>
          <path id="Shape-11" data-name="Shape" d="M29.8,6.608h3.215a.8.8,0,1,0,0-1.608H29.8a.8.8,0,1,0,0,1.608Z" transform="translate(-5.688 -0.981)"/>
          <path id="Shape-12" data-name="Shape" d="M50.666,5H37.8a.8.8,0,0,0,0,1.608H50.666a.8.8,0,0,0,0-1.608Z" transform="translate(-7.257 -0.981)"/>
          <path id="Shape-13" data-name="Shape" d="M53.019,10H49.8a.8.8,0,1,0,0,1.608h3.215a.8.8,0,0,0,0-1.608Z" transform="translate(-9.611 -1.961)"/>
          <path id="Shape-14" data-name="Shape" d="M29.8,11.608H42.666a.8.8,0,1,0,0-1.608H29.8a.8.8,0,1,0,0,1.608Z" transform="translate(-5.688 -1.961)"/>
          <path id="Shape-15" data-name="Shape" d="M29.8,16.608h3.215a.8.8,0,1,0,0-1.608H29.8a.8.8,0,1,0,0,1.608Z" transform="translate(-5.688 -2.942)"/>
          <path id="Shape-16" data-name="Shape" d="M50.666,15H37.8a.8.8,0,0,0,0,1.608H50.666a.8.8,0,0,0,0-1.608Z" transform="translate(-7.257 -2.942)"/>
          <path id="Shape-17" data-name="Shape" d="M53.019,20H49.8a.8.8,0,1,0,0,1.608h3.215a.8.8,0,0,0,0-1.608Z" transform="translate(-9.611 -3.923)"/>
          <path id="Shape-18" data-name="Shape" d="M29.8,21.608H42.666a.8.8,0,1,0,0-1.608H29.8a.8.8,0,1,0,0,1.608Z" transform="translate(-5.688 -3.923)"/>
          <path id="Shape-19" data-name="Shape" d="M29.8,26.608h3.215a.8.8,0,1,0,0-1.608H29.8a.8.8,0,1,0,0,1.608Z" transform="translate(-5.688 -4.904)"/>
          <path id="Shape-20" data-name="Shape" d="M50.666,25H37.8a.8.8,0,0,0,0,1.608H50.666a.8.8,0,0,0,0-1.608Z" transform="translate(-7.257 -4.904)"/>
          <path id="Shape-21" data-name="Shape" d="M45.82,0H2.412A2.412,2.412,0,0,0,0,2.412V20.378a.8.8,0,0,0,1.608,0V2.412a.8.8,0,0,1,.8-.8H45.82a.8.8,0,0,1,.8.8v20.9a.8.8,0,0,1-.8.8H19.293a.8.8,0,0,0,0,1.608H45.82a2.412,2.412,0,0,0,2.412-2.412V2.412A2.412,2.412,0,0,0,45.82,0Z" transform="translate(0)"/>
        </g>
      </g>
    </g>
  </g>
</svg>
