<svg xmlns="http://www.w3.org/2000/svg" xmlns:xlink="http://www.w3.org/1999/xlink" width="108" height="108" viewBox="0 0 108 108">
  <defs>
    <filter id="Trazado_904820" x="0" y="0" width="108" height="108" filterUnits="userSpaceOnUse">
      <feOffset dy="3" input="SourceAlpha"/>
      <feGaussianBlur stdDeviation="3" result="blur"/>
      <feFlood flood-opacity="0.161"/>
      <feComposite operator="in" in2="blur"/>
      <feComposite in="SourceGraphic"/>
    </filter>
  </defs>
  <g id="Grupo_1209569" data-name="Grupo 1209569" transform="translate(-197 -6469.45)">
    <g id="Grupo_1208102" data-name="Grupo 1208102" transform="translate(206 6474.108)">
      <g id="Grupo_1206630" data-name="Grupo 1206630" transform="translate(0 1.342)">
        <g id="Grupo_1185091" data-name="Grupo 1185091" transform="translate(0 0)">
          <g id="Grupo_1179560" data-name="Grupo 1179560">
            <g id="Grupo_1173787" data-name="Grupo 1173787" transform="translate(0)">
              <g id="Grupo_1171910" data-name="Grupo 1171910">
                <g id="Grupo_1167341" data-name="Grupo 1167341">
                  <g id="Grupo_1166792" data-name="Grupo 1166792">
                    <g transform="matrix(1, 0, 0, 1, -9, -6)" filter="url(#Trazado_904820)">
                      <g id="Trazado_904820-2" data-name="Trazado 904820" transform="translate(9 6)" fill="#f5fcec">
                        <path d="M 44.99999618530273 88.50006866455078 C 39.12687301635742 88.50006866455078 33.43022155761719 87.35014343261719 28.06829643249512 85.08222961425781 C 22.88852119445801 82.89136505126953 18.23629570007324 79.75465393066406 14.24084663391113 75.75919342041016 C 10.24540901184082 71.76374053955078 7.108683586120605 67.11151885986328 4.917821407318115 61.93174362182617 C 2.649921178817749 56.56980514526367 1.499996185302734 50.87315368652344 1.499996185302734 45.00003051757812 C 1.499996185302734 39.12690734863281 2.649921178817749 33.43025588989258 4.917821407318115 28.06831741333008 C 7.108683586120605 22.88854217529297 10.24540901184082 18.23631858825684 14.24084663391113 14.24086761474609 C 18.23629570007324 10.24541759490967 22.88852119445801 7.10869312286377 28.06829643249512 4.917842864990234 C 33.43022155761719 2.649930477142334 39.12687301635742 1.500005483627319 44.99999618530273 1.500005483627319 C 50.87311935424805 1.500005483627319 56.56977081298828 2.649930477142334 61.93169784545898 4.917842864990234 C 67.11147308349609 7.10869312286377 71.76369476318359 10.24541759490967 75.75914764404297 14.24086761474609 C 79.75458526611328 18.23631858825684 82.89131164550781 22.88854217529297 85.08216857910156 28.06831741333008 C 87.35007476806641 33.43025588989258 88.5 39.12690734863281 88.5 45.00003051757812 C 88.5 50.87315368652344 87.35007476806641 56.56980514526367 85.08216857910156 61.93174362182617 C 82.89131164550781 67.11151885986328 79.75458526611328 71.76374053955078 75.75914764404297 75.75919342041016 C 71.76369476318359 79.75465393066406 67.11147308349609 82.89136505126953 61.93169784545898 85.08222961425781 C 56.56977081298828 87.35014343261719 50.87311935424805 88.50006866455078 44.99999618530273 88.50006866455078 Z" stroke="none"/>
                        <path d="M 44.99999618530273 3 C 39.32870864868164 3 33.82865142822266 4.110061645507812 28.65262603759766 6.299346923828125 C 23.65165710449219 8.414573669433594 19.15968322753906 11.44334411621094 15.301513671875 15.30152893066406 C 11.44333648681641 19.15969848632812 8.414566040039062 23.65167236328125 6.299339294433594 28.65264511108398 C 4.110054016113281 33.82868576049805 2.999992370605469 39.32874298095703 2.999992370605469 45.00003051757812 C 2.999992370605469 50.67131805419922 4.110054016113281 56.1713752746582 6.299339294433594 61.34741592407227 C 8.414566040039062 66.348388671875 11.44333648681641 70.84036254882812 15.301513671875 74.69853210449219 C 19.15968322753906 78.55671691894531 23.65165710449219 81.58548736572266 28.65262603759766 83.70071411132812 C 33.82865142822266 85.88999938964844 39.32870864868164 87.00006103515625 44.99999618530273 87.00006103515625 C 50.67128372192383 87.00006103515625 56.17134094238281 85.88999938964844 61.34736633300781 83.70071411132812 C 66.34834289550781 81.58548736572266 70.84030914306641 78.55671691894531 74.69847869873047 74.69853210449219 C 78.55665588378906 70.84036254882812 81.58542633056641 66.348388671875 83.70065307617188 61.34741592407227 C 85.88993835449219 56.1713752746582 87 50.67131805419922 87 45.00003051757812 C 87 39.32874298095703 85.88993835449219 33.82868576049805 83.70065307617188 28.65264511108398 C 81.58542633056641 23.65167236328125 78.55665588378906 19.15969848632812 74.69847869873047 15.30152893066406 C 70.84030914306641 11.44334411621094 66.34834289550781 8.414573669433594 61.34736633300781 6.299346923828125 C 56.17134094238281 4.110061645507812 50.67128372192383 3 44.99999618530273 3 M 44.99999618530273 0 C 69.85281372070312 0 90 20.14720153808594 90 45.00003051757812 C 90 69.85285949707031 69.85281372070312 90.00006103515625 44.99999618530273 90.00006103515625 C 20.14717864990234 90.00006103515625 -7.62939453125e-06 69.85285949707031 -7.62939453125e-06 45.00003051757812 C -7.62939453125e-06 20.14720153808594 20.14717864990234 0 44.99999618530273 0 Z" stroke="none" fill="#5a812d"/>
                      </g>
                    </g>
                  </g>
                </g>
              </g>
            </g>
          </g>
        </g>
      </g>
    </g>
    <g id="editor-de-texto" transform="translate(226.301 6495.752)">
      <g id="Grupo_1209568" data-name="Grupo 1209568" transform="translate(0.725 0.725)">
        <path id="Trazado_1080704" data-name="Trazado 1080704" d="M8.073,49.879h4.461a.564.564,0,0,1,.561.563V54.9a.564.564,0,0,1-.561.563H8.073a.564.564,0,0,1-.561-.563V50.442A.564.564,0,0,1,8.073,49.879Zm0-21.181h4.461a.561.561,0,0,1,.561.561v4.458a.564.564,0,0,1-.561.563H8.073a.564.564,0,0,1-.561-.563V29.258A.561.561,0,0,1,8.073,28.7Zm0-21.184h4.461a.561.561,0,0,1,.561.561v4.46a.562.562,0,0,1-.561.561H8.073a.561.561,0,0,1-.561-.561V8.074A.561.561,0,0,1,8.073,7.513Zm21.184,0h4.458a.564.564,0,0,1,.563.561v4.46a.564.564,0,0,1-.563.561H29.257a.561.561,0,0,1-.561-.561V8.074A.561.561,0,0,1,29.257,7.513Zm21.184,0H54.9a.564.564,0,0,1,.563.561v4.46a.564.564,0,0,1-.563.561H50.441a.564.564,0,0,1-.563-.561V8.074A.564.564,0,0,1,50.441,7.513Zm0,21.184H54.9a.564.564,0,0,1,.563.561v4.458a.566.566,0,0,1-.563.563H50.441a.566.566,0,0,1-.563-.563V29.258A.564.564,0,0,1,50.441,28.7Zm0,21.181H54.9a.566.566,0,0,1,.563.563V54.9a.566.566,0,0,1-.563.563H50.441a.566.566,0,0,1-.563-.563V50.442A.566.566,0,0,1,50.441,49.879Zm-21.184,0h4.458a.566.566,0,0,1,.563.563V54.9a.566.566,0,0,1-.563.563H29.257A.564.564,0,0,1,28.7,54.9V50.442a.564.564,0,0,1,.561-.563Z" transform="translate(-7.512 -7.513)" fill="#95d6a4" fill-rule="evenodd"/>
        <path id="Trazado_1080705" data-name="Trazado 1080705" d="M135.778,109.787h20.528a.566.566,0,0,1,.563.563v4.458a.566.566,0,0,1-.563.563H149.4a.5.5,0,0,0-.561.561v20.675a.564.564,0,0,1-.563.561h-4.458a.564.564,0,0,1-.563-.561V115.932c0-.432-.178-.561-.561-.561h-6.911a.566.566,0,0,1-.563-.563V110.35A.566.566,0,0,1,135.778,109.787Z" transform="translate(-122.894 -99.92)" fill="#90d8f9" fill-rule="evenodd"/>
        <path id="Trazado_1080706" data-name="Trazado 1080706" d="M249.465,109.787h2.809a.566.566,0,0,1,.563.563v4.458a.566.566,0,0,1-.563.563h-2.809a.564.564,0,0,0,.561-.563V110.35A.564.564,0,0,0,249.465,109.787Zm-4.1,5.585a.5.5,0,0,0-.561.561v20.675a.564.564,0,0,1-.563.561H241.43a.561.561,0,0,0,.561-.561V115.932a.5.5,0,0,1,.563-.561Z" transform="translate(-218.862 -99.92)" fill="#6bbef6" fill-rule="evenodd"/>
        <path id="Trazado_1080707" data-name="Trazado 1080707" d="M246.981,207.669h14.913a.564.564,0,0,1,.563.561v3.011a.566.566,0,0,1-.563.563h-4.827a.5.5,0,0,0-.561.561v12.682a.564.564,0,0,1-.563.561h-3.011a.561.561,0,0,1-.561-.561V212.365a.513.513,0,0,0-.563-.561h-4.827a.566.566,0,0,1-.563-.563V208.23A.564.564,0,0,1,246.981,207.669Z" transform="translate(-223.369 -188.358)" fill="#fc7070" fill-rule="evenodd"/>
        <path id="Trazado_1080708" data-name="Trazado 1080708" d="M321.989,207.669H324.8a.564.564,0,0,1,.563.561v3.011a.566.566,0,0,1-.563.563h-2.809a.566.566,0,0,0,.563-.563V208.23A.564.564,0,0,0,321.989,207.669Zm-2.018,4.135a.5.5,0,0,0-.561.561v12.682a.564.564,0,0,1-.563.561h-2.809a.561.561,0,0,0,.561-.561V212.365a.5.5,0,0,1,.563-.561Z" transform="translate(-286.272 -188.358)" fill="#d15a63" fill-rule="evenodd"/>
      </g>
      <path id="Trazado_1080709" data-name="Trazado 1080709" d="M43.09,42.368h2.07V28.213H43.09a.721.721,0,0,1-.722-.722V21.909a.722.722,0,0,1,.722-.725h2.07V7.031H43.09a.724.724,0,0,1-.722-.725V4.239H28.213V6.306a.724.724,0,0,1-.722.725H21.909a.724.724,0,0,1-.725-.725V4.239H7.031V6.306a.726.726,0,0,1-.725.725H4.239V21.184H6.307a.724.724,0,0,1,.725.725v5.582a.724.724,0,0,1-.725.722H4.239V42.368H6.307a.724.724,0,0,1,.725.722v2.07H21.184V43.09a.722.722,0,0,1,.725-.722h5.582a.721.721,0,0,1,.722.722v2.07H42.368V43.09a.721.721,0,0,1,.722-.722ZM9.329,24.893a.723.723,0,1,1,0-1.447h8.732a.723.723,0,0,1,0,1.447Zm0,6.9a.723.723,0,1,1,0-1.447h8.732a.723.723,0,0,1,0,1.447Zm0,6.9a.723.723,0,1,1,0-1.447h8.732a.723.723,0,0,1,0,1.447Zm0-10.354a.723.723,0,1,1,0-1.447h8.732a.723.723,0,0,1,0,1.447Zm0,6.9a.723.723,0,1,1,0-1.447h8.732a.723.723,0,0,1,0,1.447ZM30.154,19.311a.723.723,0,1,1,0,1.447H24.5v2.688h5.229a.722.722,0,0,1,.722.725V37.251h2.688V24.171a.723.723,0,0,1,.725-.725h5.226V20.757H33.433a.723.723,0,1,1,0-1.447h6.38a.724.724,0,0,1,.722.725v4.135a.721.721,0,0,1-.722.722H34.585V37.973a.724.724,0,0,1-.722.725H29.728A.726.726,0,0,1,29,37.973V24.893H27.387V37.973a.724.724,0,0,1-.722.725H21.08a.724.724,0,0,1-.722-.725V16.9H13.045a.724.724,0,0,1-.725-.722V10.592a.724.724,0,0,1,.725-.722h9.189a.723.723,0,0,1,0,1.447H13.77v4.135h7.31a.724.724,0,0,1,.725.725V37.251H25.94V24.893H23.774a.721.721,0,0,1-.722-.722V20.036a.724.724,0,0,1,.722-.725H25.94V16.177a.723.723,0,0,1,.725-.725h7.31V11.317H25.511a.723.723,0,0,1,0-1.447H34.7a.721.721,0,0,1,.722.722v5.585a.721.721,0,0,1-.722.722H27.387v2.412h2.767ZM46.607,42.368h2.068a.721.721,0,0,1,.722.722v5.584a.721.721,0,0,1-.722.722H43.09a.721.721,0,0,1-.722-.722V46.607H28.213v2.068a.721.721,0,0,1-.722.722H21.909a.722.722,0,0,1-.725-.722V46.607H7.031v2.068a.724.724,0,0,1-.725.722H.725A.723.723,0,0,1,0,48.675V43.09a.724.724,0,0,1,.725-.722H2.792V28.213H.725A.724.724,0,0,1,0,27.491V21.909a.724.724,0,0,1,.725-.725H2.792V7.031H.725A.726.726,0,0,1,0,6.306V.725A.726.726,0,0,1,.725,0H6.307a.726.726,0,0,1,.725.725V2.792H21.184V.725A.724.724,0,0,1,21.909,0h5.582a.724.724,0,0,1,.722.725V2.792H42.368V.725A.724.724,0,0,1,43.09,0h5.585A.724.724,0,0,1,49.4.725V6.307a.724.724,0,0,1-.722.725H46.607V21.184h2.068a.722.722,0,0,1,.722.725v5.582a.721.721,0,0,1-.722.722H46.607V42.368Zm1.343,1.447H43.815V47.95H47.95ZM5.582,1.447H1.447V5.582H5.582Zm21.184,0H22.631V5.582h4.135Zm21.184,0H43.815V5.582H47.95Zm0,21.184H43.815v4.135H47.95Zm-42.368,0H1.447v4.135H5.582Zm0,21.184H1.447V47.95H5.582Zm21.184,0H22.631V47.95h4.135Z"/>
    </g>
  </g>
</svg>
