<svg xmlns="http://www.w3.org/2000/svg" xmlns:xlink="http://www.w3.org/1999/xlink" width="103" height="103" viewBox="0 0 103 103">
  <defs>
    <filter id="Trazado_978624" x="0" y="0" width="103" height="103" filterUnits="userSpaceOnUse">
      <feOffset dy="3" input="SourceAlpha"/>
      <feGaussianBlur stdDeviation="3" result="blur"/>
      <feFlood flood-opacity="0.161"/>
      <feComposite operator="in" in2="blur"/>
      <feComposite in="SourceGraphic"/>
    </filter>
  </defs>
  <g id="Grupo_1209772" data-name="Grupo 1209772" transform="translate(-204 -8286)">
    <g id="Grupo_1207977" data-name="Grupo 1207977" transform="translate(213 8292)">
      <g id="Grupo_1206641" data-name="Grupo 1206641">
        <g id="Grupo_1185491" data-name="Grupo 1185491">
          <g id="Grupo_1183826" data-name="Grupo 1183826">
            <g id="Grupo_1164359" data-name="Grupo 1164359">
              <g id="Grupo_1144531" data-name="Grupo 1144531">
                <g transform="matrix(1, 0, 0, 1, -9, -6)" filter="url(#Trazado_978624)">
                  <g id="Trazado_978624-2" data-name="Trazado 978624" transform="translate(9 6)" fill="#f9ecff">
                    <path d="M 42.5 83.5 C 36.96437835693359 83.5 31.59512901306152 82.41617584228516 26.54141235351562 80.27863311767578 C 21.65934181213379 78.21369171142578 17.27447128295898 75.25723266601562 13.50862312316895 71.49137878417969 C 9.742764472961426 67.72553253173828 6.786305904388428 63.34066009521484 4.721364498138428 58.45858764648438 C 2.583823442459106 53.40486907958984 1.5 48.03562164306641 1.5 42.5 C 1.5 36.96437835693359 2.583823442459106 31.59512901306152 4.721364498138428 26.54141235351562 C 6.786305904388428 21.65934181213379 9.742764472961426 17.27447128295898 13.50862312316895 13.50862312316895 C 17.27447128295898 9.742764472961426 21.65934181213379 6.786305904388428 26.54141235351562 4.721364498138428 C 31.59512901306152 2.583823442459106 36.96437835693359 1.5 42.5 1.5 C 48.03562164306641 1.5 53.40486907958984 2.583823442459106 58.45858764648438 4.721364498138428 C 63.34066009521484 6.786305904388428 67.72553253173828 9.742764472961426 71.49137878417969 13.50862312316895 C 75.25723266601562 17.27447128295898 78.21369171142578 21.65934181213379 80.27863311767578 26.54141235351562 C 82.41617584228516 31.59512901306152 83.5 36.96437835693359 83.5 42.5 C 83.5 48.03562164306641 82.41617584228516 53.40486907958984 80.27863311767578 58.45858764648438 C 78.21369171142578 63.34066009521484 75.25723266601562 67.72553253173828 71.49137878417969 71.49137878417969 C 67.72553253173828 75.25723266601562 63.34066009521484 78.21369171142578 58.45858764648438 80.27863311767578 C 53.40486907958984 82.41617584228516 48.03562164306641 83.5 42.5 83.5 Z" stroke="none"/>
                    <path d="M 42.5 3 C 37.16621398925781 3 31.99356079101562 4.043960571289062 27.125732421875 6.102882385253906 C 22.42246627807617 8.092185974121094 18.19785308837891 10.94070434570312 14.56928253173828 14.56928253173828 C 10.94070434570312 18.19785308837891 8.092185974121094 22.42246627807617 6.102882385253906 27.125732421875 C 4.043960571289062 31.99356079101562 3 37.16621398925781 3 42.5 C 3 47.83378601074219 4.043960571289062 53.00643920898438 6.102882385253906 57.87425231933594 C 8.092185974121094 62.57753372192383 10.94070434570312 66.80213165283203 14.56928253173828 70.43071746826172 C 18.19786834716797 74.05929565429688 22.42246627807617 76.90781402587891 27.125732421875 78.89711761474609 C 31.99356079101562 80.95603942871094 37.16621398925781 82 42.5 82 C 47.83378601074219 82 53.00642395019531 80.95603942871094 57.87425231933594 78.89711761474609 C 62.57753372192383 76.90781402587891 66.80213165283203 74.05929565429688 70.43071746826172 70.43071746826172 C 74.05929565429688 66.80213165283203 76.90781402587891 62.57753372192383 78.89711761474609 57.87425231933594 C 80.95603942871094 53.00642395019531 82 47.83378601074219 82 42.5 C 82 37.16621398925781 80.95603942871094 31.99356079101562 78.89711761474609 27.125732421875 C 76.90781402587891 22.42246627807617 74.05929565429688 18.19786834716797 70.43071746826172 14.56928253173828 C 66.80213165283203 10.94070434570312 62.57753372192383 8.092185974121094 57.87425231933594 6.102882385253906 C 53.00643920898438 4.043960571289062 47.83378601074219 3 42.5 3 M 42.5 0 C 65.97209167480469 0 85 19.02789306640625 85 42.5 C 85 65.97209167480469 65.97209167480469 85 42.5 85 C 19.02789306640625 85 0 65.97209167480469 0 42.5 C 0 19.02789306640625 19.02789306640625 0 42.5 0 Z" stroke="none" fill="#cf50ff"/>
                  </g>
                </g>
              </g>
            </g>
          </g>
        </g>
      </g>
    </g>
    <g id="leer_4_" data-name="leer (4)" transform="translate(200.949 8303.814)">
      <g id="Grupo_1209770" data-name="Grupo 1209770" transform="translate(28.014 0.899)">
        <g id="Grupo_1209766" data-name="Grupo 1209766" transform="translate(6.779)">
          <path id="Trazado_1080828" data-name="Trazado 1080828" d="M130.683,27.525a19.76,19.76,0,1,0-39.516,0c0,11.059,8.846,11.894,19.758,11.894S130.683,38.584,130.683,27.525Z" transform="translate(-91.167 -7.5)" fill="#665e66"/>
          <path id="Trazado_1080829" data-name="Trazado 1080829" d="M110.666,39.421c-10.792-.013-19.5-.921-19.5-11.893A19.893,19.893,0,0,1,110.925,7.5c-5.554,0-10.056,8.965-10.056,20.024C100.87,38.415,105.232,39.394,110.666,39.421Z" transform="translate(-91.167 -7.504)" fill="#454045"/>
          <path id="Trazado_1080830" data-name="Trazado 1080830" d="M165.54,85.039a7.943,7.943,0,0,1-7.565,7.529q-5.257.249-10.514.1h-.006q-1.334-.037-2.666-.1a7.942,7.942,0,0,1-7.564-7.529q-.231-4.5-.037-9h0q.058-1.4.16-2.8c.648-3.077,3.184-5.708,6.726-7.25.1-.045.21-.09.316-.134a17.9,17.9,0,0,1,4.714-1.2,19.467,19.467,0,0,1,7.178.5h0c4.781,1.271,8.354,4.352,9.135,8.095a0,0,0,0,0,0,0,95.816,95.816,0,0,1,.122,11.787Z" transform="translate(-131.594 -57.69)" fill="#f1d0a5"/>
          <path id="Trazado_1080831" data-name="Trazado 1080831" d="M147.462,102.43h-.006q-1.334-.037-2.666-.1a7.942,7.942,0,0,1-7.564-7.529,95.679,95.679,0,0,1,.123-11.8c.648-3.077,3.184-5.708,6.726-7.25.1-.045.21-.09.316-.134-.243,5.923-.3,14.5-.176,19.352C144.311,98.7,145.673,101.736,147.462,102.43Z" transform="translate(-131.594 -67.451)" fill="#f1b986"/>
          <path id="Trazado_1080832" data-name="Trazado 1080832" d="M156.932,65.152h0c-2.354,4.037-8,9.345-10.244,8.077-.822-.464-.714-1.421-.251-2.45a18.238,18.238,0,0,1-3.506,4.307c-1.51,1.273-3.331,2.063-5.093.954h0q.058-1.4.16-2.8c.648-3.077,3.184-5.708,6.726-7.25.1-.045.21-.09.316-.134a17.9,17.9,0,0,1,4.714-1.2,19.468,19.468,0,0,1,7.178.5Z" transform="translate(-132.244 -57.689)" fill="#665e66"/>
          <path id="Trazado_1080833" data-name="Trazado 1080833" d="M142.931,75.087c-1.51,1.273-3.331,2.063-5.093.954h0q.058-1.4.16-2.8c.648-3.077,3.184-5.708,6.726-7.25.1-.045.21-.09.316-.134a17.9,17.9,0,0,1,4.714-1.2,19.192,19.192,0,0,1,2.278-.133C147.1,66.245,136.914,75.087,142.931,75.087Z" transform="translate(-132.244 -57.689)" fill="#454045"/>
          <g id="Grupo_1209765" data-name="Grupo 1209765" transform="translate(8.53 25.533)">
            <ellipse id="Elipse_13147" data-name="Elipse 13147" cx="2.417" cy="1.533" rx="2.417" ry="1.533" fill="#df9380"/>
            <ellipse id="Elipse_13148" data-name="Elipse 13148" cx="2.417" cy="1.533" rx="2.417" ry="1.533" transform="translate(17.685)" fill="#f9a58e"/>
          </g>
          <path id="Trazado_1080834" data-name="Trazado 1080834" d="M166.227,50.912a7.583,7.583,0,0,1-.137,1.436c-.959-5-6.887-8.844-14.058-8.844a19.184,19.184,0,0,0-2.278.133,17.919,17.919,0,0,0-4.437,1.087q-.3.116-.593.244c-3.59,1.564-6.149,4.245-6.752,7.376a7.6,7.6,0,0,1-.135-1.431c0-3.739,2.76-7.011,6.887-8.807q.641-.279,1.324-.509a18.1,18.1,0,0,1,3.706-.823,19.183,19.183,0,0,1,2.278-.132C159.872,40.641,166.227,45.239,166.227,50.912Z" transform="translate(-132.243 -36.668)" fill="#da4a54"/>
          <path id="Trazado_1080835" data-name="Trazado 1080835" d="M146.05,48.612l-.731,3.127q-.3.116-.593.244c-3.59,1.564-6.149,4.245-6.752,7.376a7.6,7.6,0,0,1-.135-1.431c0-3.739,2.76-7.011,6.887-8.807Q145.366,48.841,146.05,48.612Z" transform="translate(-132.245 -43.684)" fill="#c32430"/>
        </g>
        <path id="Trazado_1080836" data-name="Trazado 1080836" d="M279.213,260.214v20.262a2.756,2.756,0,0,1-2.172,2.693l-18,3.9H256.72v-25.9h2.323l16.831-3.648A2.756,2.756,0,0,1,279.213,260.214Z" transform="translate(-230.097 -227.496)" fill="#80b4fb"/>
        <path id="Trazado_1080837" data-name="Trazado 1080837" d="M90.3,261.169v25.9H87.8l-18-3.9a2.756,2.756,0,0,1-2.172-2.693V260.214a2.756,2.756,0,0,1,3.339-2.692L87.8,261.169Z" transform="translate(-63.672 -227.496)" fill="#5490f9"/>
        <path id="Trazado_1080838" data-name="Trazado 1080838" d="M235.9,314.32v-25.9h4.818v25.9" transform="translate(-211.774 -254.746)" fill="#bed8fb"/>
        <g id="Grupo_1209769" data-name="Grupo 1209769" transform="translate(0 35.205)">
          <g id="Grupo_1209767" data-name="Grupo 1209767">
            <path id="Trazado_1080839" data-name="Trazado 1080839" d="M38.077,308.5h-.943a2.52,2.52,0,0,1-2.52-2.52V303.72a2.52,2.52,0,0,1,2.52-2.52h.943a2.52,2.52,0,0,1,2.52,2.52v2.262A2.52,2.52,0,0,1,38.077,308.5Z" transform="translate(-34.614 -301.2)" fill="#f1d0a5"/>
            <path id="Trazado_1080840" data-name="Trazado 1080840" d="M38.562,308.456a2.386,2.386,0,0,1-.484.048h-.943a2.52,2.52,0,0,1-2.52-2.521v-2.262a2.52,2.52,0,0,1,2.52-2.521h.943a2.386,2.386,0,0,1,.484.048,2.519,2.519,0,0,0-2.034,2.473v2.262A2.519,2.519,0,0,0,38.562,308.456Z" transform="translate(-34.615 -301.2)" fill="#f1b986"/>
          </g>
          <g id="Grupo_1209768" data-name="Grupo 1209768" transform="translate(47.09)">
            <path id="Trazado_1080841" data-name="Trazado 1080841" d="M430.932,308.5h-.943a2.52,2.52,0,0,1-2.52-2.52V303.72a2.52,2.52,0,0,1,2.52-2.52h.943a2.52,2.52,0,0,1,2.52,2.52v2.262A2.52,2.52,0,0,1,430.932,308.5Z" transform="translate(-427.469 -301.2)" fill="#f1d0a5"/>
            <path id="Trazado_1080842" data-name="Trazado 1080842" d="M431.417,308.456a2.386,2.386,0,0,1-.484.048h-.943a2.52,2.52,0,0,1-2.52-2.521v-2.262a2.52,2.52,0,0,1,2.52-2.521h.943a2.386,2.386,0,0,1,.484.048,2.519,2.519,0,0,0-2.034,2.473v2.262A2.519,2.519,0,0,0,431.417,308.456Z" transform="translate(-427.47 -301.2)" fill="#f1b986"/>
          </g>
        </g>
      </g>
      <g id="Grupo_1209771" data-name="Grupo 1209771" transform="translate(27.115 0)">
        <path id="Trazado_1080843" data-name="Trazado 1080843" d="M231.628,230.765a.9.9,0,0,0-1.2.427,2.314,2.314,0,0,1-4.182,0,.9.9,0,1,0-1.624.771,4.112,4.112,0,0,0,7.43,0A.9.9,0,0,0,231.628,230.765Z" transform="translate(-200.873 -203.027)"/>
        <path id="Trazado_1080844" data-name="Trazado 1080844" d="M298.9,181.5a6.9,6.9,0,0,0-1.312-.126,2.688,2.688,0,0,0,.146-.884c0-1.06-.58-1.923-1.292-1.923s-1.292.863-1.292,1.923a2.525,2.525,0,0,0,.31,1.246,3.915,3.915,0,0,0-.6.269.9.9,0,0,0,.451,1.679.889.889,0,0,0,.451-.123,4.354,4.354,0,0,1,2.8-.295.9.9,0,0,0,.34-1.766Z" transform="translate(-262.368 -157.164)"/>
        <path id="Trazado_1080845" data-name="Trazado 1080845" d="M179.33,182.005a3.923,3.923,0,0,0-.6-.269,2.526,2.526,0,0,0,.31-1.246c0-1.06-.58-1.923-1.292-1.923s-1.292.863-1.292,1.923a2.686,2.686,0,0,0,.146.884,6.9,6.9,0,0,0-1.312.126.9.9,0,0,0,.34,1.766,4.361,4.361,0,0,1,2.8.294.9.9,0,0,0,.9-1.555Z" transform="translate(-156.884 -157.163)"/>
        <path id="Trazado_1080846" data-name="Trazado 1080846" d="M329.962,312.6l-9.955,2.158a.9.9,0,1,0,.381,1.757l9.955-2.158a.9.9,0,1,0-.381-1.757Z" transform="translate(-284.275 -275.111)"/>
        <path id="Trazado_1080847" data-name="Trazado 1080847" d="M329.962,340.469l-9.955,2.158a.9.9,0,1,0,.381,1.757l9.955-2.158a.9.9,0,1,0-.381-1.757Z" transform="translate(-284.275 -299.64)"/>
        <path id="Trazado_1080848" data-name="Trazado 1080848" d="M78.567,35.205h-.538V33.617A3.655,3.655,0,0,0,73.6,30.046l-2.562.555c2.8-2.057,4.169-5.249,4.169-9.677a20.658,20.658,0,1,0-41.313,0c0,4.427,1.371,7.62,4.172,9.678L35.5,30.046a3.655,3.655,0,0,0-4.429,3.571v1.588h-.538a3.423,3.423,0,0,0-3.419,3.419v2.262a3.423,3.423,0,0,0,3.419,3.419h.538v9.573a3.675,3.675,0,0,0,2.881,3.572l18,3.9a.9.9,0,0,0,.19.02H56.96a.9.9,0,0,0,.19-.02l18-3.9a3.675,3.675,0,0,0,2.881-3.572V44.306h.538a3.423,3.423,0,0,0,3.419-3.419V38.624a3.423,3.423,0,0,0-3.419-3.419ZM35.692,20.924a18.861,18.861,0,1,1,37.717,0c0,4.077-1.254,6.843-3.913,8.55a8.9,8.9,0,0,0,.141-1.179c.025-.486.044-.93.06-1.357a.9.9,0,0,0-1.8-.067c-.016.419-.035.855-.059,1.332a7.048,7.048,0,0,1-1.024,3.313l-9.954,2.157H52.238l-9.882-2.142A7.025,7.025,0,0,1,41.322,28.2c-.13-2.526-.156-5.079-.082-7.627a4.011,4.011,0,0,0,.908.1,4.484,4.484,0,0,0,1.095-.14c1.979-.5,3.753-2.291,4.951-3.809a2.2,2.2,0,0,0,.6.492c1.76.994,4.29-.618,6.1-2.145a26.516,26.516,0,0,0,4.99-5.66c4.077,1.261,7.137,3.929,7.837,7.177.159,2.232.24,4.495.241,6.726a.9.9,0,0,0,.9.9h0a.9.9,0,0,0,.9-.9c0-2.2-.079-4.432-.231-6.636a8.477,8.477,0,0,0,.142-1.543c0-3.04-1.608-5.877-4.529-7.991A18.1,18.1,0,0,0,54.582,3.972a20.13,20.13,0,0,0-2.382.139,18.615,18.615,0,0,0-5.285,1.4A13.875,13.875,0,0,0,41.58,9.449a9.1,9.1,0,0,0-2.093,5.693,8.547,8.547,0,0,0,.143,1.551,96.962,96.962,0,0,0-.1,11.6,8.863,8.863,0,0,0,.148,1.223c-2.706-1.7-3.983-4.484-3.983-8.594ZM54.582,6.835a20.124,20.124,0,0,0-2.382.139,18.623,18.623,0,0,0-5.285,1.4,14.513,14.513,0,0,0-4.454,2.949A11.489,11.489,0,0,1,47.633,7.16,16.821,16.821,0,0,1,52.411,5.9a18.346,18.346,0,0,1,2.171-.126c5.448,0,10.141,2.322,12.193,5.635a13.372,13.372,0,0,0-2.353-1.882,18.545,18.545,0,0,0-9.84-2.688Zm-6.949,3.186A16.829,16.829,0,0,1,52.411,8.76a18.621,18.621,0,0,1,5.626.2,25.33,25.33,0,0,1-4.3,4.746c-2.984,2.514-4.018,1.978-4.06,1.954-.319-.18-.056-.892.128-1.3a.9.9,0,0,0-1.6-.815c-.72,1.265-3.094,4.675-5.4,5.254a2.374,2.374,0,0,1-1.49-.079c.035-.714.075-1.427.126-2.138.593-2.714,2.839-5.1,6.193-6.558ZM28.913,40.887V38.624A1.623,1.623,0,0,1,30.534,37h.943A1.623,1.623,0,0,1,33.1,38.624v2.262a1.623,1.623,0,0,1-1.621,1.621h-.943A1.623,1.623,0,0,1,28.913,40.887ZM32.87,53.879V44.008A3.423,3.423,0,0,0,34.9,40.887V38.624A3.423,3.423,0,0,0,32.87,35.5V33.617a1.857,1.857,0,0,1,2.25-1.814L51.242,35.3v5.691a.9.9,0,1,0,1.8,0V35.471h3.02v24.1H53.04V44.585a.9.9,0,1,0-1.8,0V59.358L34.334,55.694a1.867,1.867,0,0,1-1.463-1.815Zm41.9,1.815L57.859,59.358V35.3L73.982,31.8a1.857,1.857,0,0,1,2.25,1.814V35.5a3.423,3.423,0,0,0-2.026,3.121v2.262a3.423,3.423,0,0,0,2.026,3.121v9.871A1.868,1.868,0,0,1,74.768,55.694Zm5.421-14.807a1.623,1.623,0,0,1-1.621,1.621h-.943A1.623,1.623,0,0,1,76,40.887V38.624A1.623,1.623,0,0,1,77.625,37h.943a1.623,1.623,0,0,1,1.621,1.621Z" transform="translate(-27.115 0)"/>
      </g>
    </g>
  </g>
</svg>
