<svg xmlns="http://www.w3.org/2000/svg" xmlns:xlink="http://www.w3.org/1999/xlink" width="93.934" height="93.934" viewBox="0 0 93.934 93.934">
  <defs>
    <filter id="Trazado_982547" x="0" y="-0.001" width="93.934" height="93.934" filterUnits="userSpaceOnUse">
      <feOffset dy="3" input="SourceAlpha"/>
      <feGaussianBlur stdDeviation="3" result="blur"/>
      <feFlood flood-opacity="0.161"/>
      <feComposite operator="in" in2="blur"/>
      <feComposite in="SourceGraphic"/>
    </filter>
  </defs>
  <g id="Grupo_1209785" data-name="Grupo 1209785" transform="translate(-609 -8613.933)">
    <g id="Grupo_1207740" data-name="Grupo 1207740" transform="translate(0 2535.842)">
      <g id="Grupo_1185504" data-name="Grupo 1185504" transform="translate(420.598 -3401.478)">
        <g id="Grupo_1183665" data-name="Grupo 1183665" transform="translate(-0.598 8175.569)">
          <g id="Grupo_1181743" data-name="Grupo 1181743" transform="translate(0 569)">
            <g id="Grupo_1175133" data-name="Grupo 1175133" transform="translate(-0.033 -1251)">
              <g id="Grupo_1167337" data-name="Grupo 1167337" transform="translate(198.033 1992)">
                <g id="Grupo_1166720" data-name="Grupo 1166720">
                  <g id="Grupo_1164305" data-name="Grupo 1164305">
                    <g id="Grupo_1163948" data-name="Grupo 1163948">
                      <g id="Grupo_1158168" data-name="Grupo 1158168">
                        <g id="Grupo_1152576" data-name="Grupo 1152576">
                          <g id="Grupo_1148633" data-name="Grupo 1148633">
                            <g id="Grupo_1148525" data-name="Grupo 1148525">
                              <g transform="matrix(1, 0, 0, 1, -9, -6)" filter="url(#Trazado_982547)">
                                <g id="Trazado_982547-2" data-name="Trazado 982547" transform="translate(9 6)" fill="#eaf9f8">
                                  <path d="M 37.966796875 74.43359375 C 33.04315185546875 74.43359375 28.26757431030273 73.46962738037109 23.77274131774902 71.56847381591797 C 19.43047523498535 69.73184967041016 15.53040790557861 67.10224914550781 12.18087482452393 63.75271987915039 C 8.831341743469238 60.4031867980957 6.201741218566895 56.50312042236328 4.365118980407715 52.16086196899414 C 2.463963508605957 47.66601943969727 1.499996900558472 42.89044189453125 1.499996900558472 37.966796875 C 1.499996900558472 33.04315185546875 2.463963508605957 28.26757431030273 4.365118980407715 23.77274131774902 C 6.201741218566895 19.43047523498535 8.831341743469238 15.53040790557861 12.18087482452393 12.18087482452393 C 15.53040790557861 8.831341743469238 19.43047523498535 6.201741218566895 23.77274131774902 4.365118980407715 C 28.26757431030273 2.463963508605957 33.04315185546875 1.499996900558472 37.966796875 1.499996900558472 C 42.89044189453125 1.499996900558472 47.66601943969727 2.463963508605957 52.16086196899414 4.365118980407715 C 56.50312042236328 6.201741218566895 60.4031867980957 8.831341743469238 63.75271987915039 12.18087482452393 C 67.10224914550781 15.53040790557861 69.73184967041016 19.43047523498535 71.56847381591797 23.77274131774902 C 73.46962738037109 28.26757431030273 74.43359375 33.04315185546875 74.43359375 37.966796875 C 74.43359375 42.89044189453125 73.46962738037109 47.66601943969727 71.56847381591797 52.16086196899414 C 69.73184967041016 56.50313186645508 67.10224914550781 60.4031867980957 63.75271987915039 63.75271987915039 C 60.4031867980957 67.10224914550781 56.50313186645508 69.73184967041016 52.16086196899414 71.56847381591797 C 47.66601943969727 73.46962738037109 42.89044189453125 74.43359375 37.966796875 74.43359375 Z" stroke="none"/>
                                  <path d="M 37.966796875 3 C 33.2449836730957 3 28.66600799560547 3.924095153808594 24.35705947875977 5.746635437011719 C 20.19359588623047 7.507637023925781 16.45379638671875 10.02928161621094 13.24153518676758 13.24153518676758 C 10.02927398681641 16.45379638671875 7.507621765136719 20.19359588623047 5.746635437011719 24.35705947875977 C 3.924095153808594 28.66600799560547 3 33.2449836730957 3 37.966796875 C 3 42.6886100769043 3.924095153808594 47.26758575439453 5.746635437011719 51.57653427124023 C 7.507621765136719 55.73999786376953 10.02927398681641 59.47979736328125 13.24153518676758 62.69205856323242 C 16.45379638671875 65.90431976318359 20.19359588623047 68.42597198486328 24.35705947875977 70.18695831298828 C 28.66600799560547 72.00949859619141 33.2449836730957 72.93359375 37.966796875 72.93359375 C 42.6886100769043 72.93359375 47.26758575439453 72.00949859619141 51.57653427124023 70.18695831298828 C 55.73999786376953 68.42597198486328 59.47979736328125 65.90431976318359 62.69205856323242 62.69205856323242 C 65.90431976318359 59.47979736328125 68.42597198486328 55.73999786376953 70.18695831298828 51.57653427124023 C 72.00949859619141 47.26758575439453 72.93359375 42.6886100769043 72.93359375 37.966796875 C 72.93359375 33.2449836730957 72.00949859619141 28.66600799560547 70.18695831298828 24.35705947875977 C 68.42597198486328 20.19359588623047 65.90431976318359 16.45379638671875 62.69205856323242 13.24153518676758 C 59.47979736328125 10.02928161621094 55.73999786376953 7.507637023925781 51.57653427124023 5.746635437011719 C 47.26758575439453 3.924095153808594 42.6886100769043 3 37.966796875 3 M 37.966796875 0 C 58.93528366088867 0 75.93359375 16.99832153320312 75.93359375 37.966796875 C 75.93359375 58.93528366088867 58.93528366088867 75.93359375 37.966796875 75.93359375 C 16.99831008911133 75.93359375 0 58.93528366088867 0 37.966796875 C 0 16.99832153320312 16.99831008911133 0 37.966796875 0 Z" stroke="none" fill="#1f7069"/>
                                </g>
                              </g>
                            </g>
                          </g>
                        </g>
                      </g>
                    </g>
                  </g>
                </g>
              </g>
            </g>
          </g>
        </g>
      </g>
    </g>
    <g id="parrafo" transform="translate(633.77 8635.701)">
      <g id="Color">
        <g id="Grupo_1209773" data-name="Grupo 1209773" transform="translate(31.446 31.446)">
          <path id="Trazado_1080849" data-name="Trazado 1080849" d="M26.711,17H20.237A3.241,3.241,0,0,0,17,20.237v6.474a3.241,3.241,0,0,0,3.237,3.237h6.474a3.241,3.241,0,0,0,3.237-3.237V20.237A3.241,3.241,0,0,0,26.711,17Z" transform="translate(-17 -17)" fill="#90a4ae"/>
        </g>
        <g id="Grupo_1209774" data-name="Grupo 1209774">
          <path id="Trazado_1080850" data-name="Trazado 1080850" d="M3.237,16.648H24.509a3.241,3.241,0,0,0,3.237-3.237V3.237A3.241,3.241,0,0,0,24.509,0H3.237A3.241,3.241,0,0,0,0,3.237V13.411A3.241,3.241,0,0,0,3.237,16.648Z" fill="#cfd8dc"/>
        </g>
      </g>
      <g id="regular">
        <g id="Grupo_1209775" data-name="Grupo 1209775" transform="translate(31.446 31.446)">
          <path id="Trazado_1080851" data-name="Trazado 1080851" d="M26.711,29.948H20.237A3.241,3.241,0,0,1,17,26.711V20.237A3.241,3.241,0,0,1,20.237,17h6.474a3.241,3.241,0,0,1,3.237,3.237v6.474A3.241,3.241,0,0,1,26.711,29.948ZM20.237,19.775a.463.463,0,0,0-.462.462v6.474a.463.463,0,0,0,.462.462h6.474a.463.463,0,0,0,.462-.462V20.237a.463.463,0,0,0-.462-.462Z" transform="translate(-17 -17)"/>
        </g>
        <g id="Grupo_1209776" data-name="Grupo 1209776">
          <path id="Trazado_1080852" data-name="Trazado 1080852" d="M24.509,16.648H3.237A3.241,3.241,0,0,1,0,13.411V3.237A3.241,3.241,0,0,1,3.237,0H24.509a3.241,3.241,0,0,1,3.237,3.237V13.411A3.241,3.241,0,0,1,24.509,16.648ZM3.237,2.775a.463.463,0,0,0-.462.462V13.411a.463.463,0,0,0,.462.462H24.509a.463.463,0,0,0,.462-.462V3.237a.463.463,0,0,0-.462-.462Z"/>
        </g>
        <g id="Grupo_1209777" data-name="Grupo 1209777" transform="translate(0 19.423)">
          <path id="Trazado_1080853" data-name="Trazado 1080853" d="M43.007,13.275H1.387a1.387,1.387,0,0,1,0-2.775h41.62a1.387,1.387,0,0,1,0,2.775Z" transform="translate(0 -10.5)"/>
        </g>
        <g id="Grupo_1209778" data-name="Grupo 1209778" transform="translate(0 24.972)">
          <path id="Trazado_1080854" data-name="Trazado 1080854" d="M43.007,16.275H1.387a1.387,1.387,0,1,1,0-2.775h41.62a1.387,1.387,0,1,1,0,2.775Z" transform="translate(0 -13.5)"/>
        </g>
        <g id="Grupo_1209779" data-name="Grupo 1209779" transform="translate(0 30.521)">
          <path id="Trazado_1080855" data-name="Trazado 1080855" d="M26.359,19.275H1.387a1.387,1.387,0,0,1,0-2.775H26.359a1.387,1.387,0,0,1,0,2.775Z" transform="translate(0 -16.5)"/>
        </g>
        <g id="Grupo_1209780" data-name="Grupo 1209780" transform="translate(0 36.071)">
          <path id="Trazado_1080856" data-name="Trazado 1080856" d="M26.359,22.275H1.387a1.387,1.387,0,0,1,0-2.775H26.359a1.387,1.387,0,0,1,0,2.775Z" transform="translate(0 -19.5)"/>
        </g>
        <g id="Grupo_1209781" data-name="Grupo 1209781" transform="translate(0 41.62)">
          <path id="Trazado_1080857" data-name="Trazado 1080857" d="M26.359,25.275H1.387a1.387,1.387,0,0,1,0-2.775H26.359a1.387,1.387,0,0,1,0,2.775Z" transform="translate(0 -22.5)"/>
        </g>
        <g id="Grupo_1209782" data-name="Grupo 1209782" transform="translate(31.446 1.85)">
          <path id="Trazado_1080858" data-name="Trazado 1080858" d="M28.561,3.775H18.387a1.387,1.387,0,1,1,0-2.775H28.561a1.387,1.387,0,1,1,0,2.775Z" transform="translate(-17 -1)"/>
        </g>
        <g id="Grupo_1209783" data-name="Grupo 1209783" transform="translate(31.446 7.399)">
          <path id="Trazado_1080859" data-name="Trazado 1080859" d="M28.561,6.775H18.387a1.387,1.387,0,1,1,0-2.775H28.561a1.387,1.387,0,1,1,0,2.775Z" transform="translate(-17 -4)"/>
        </g>
        <g id="Grupo_1209784" data-name="Grupo 1209784" transform="translate(31.446 12.948)">
          <path id="Trazado_1080860" data-name="Trazado 1080860" d="M28.561,9.775H18.387a1.387,1.387,0,0,1,0-2.775H28.561a1.387,1.387,0,0,1,0,2.775Z" transform="translate(-17 -7)"/>
        </g>
      </g>
    </g>
  </g>
</svg>
