<svg xmlns="http://www.w3.org/2000/svg" xmlns:xlink="http://www.w3.org/1999/xlink" width="403" height="412" viewBox="0 0 403 412">
  <defs>
    <clipPath id="clip-path">
      <rect id="Rectángulo_417895" data-name="Rectángulo 417895" width="403" height="412" transform="translate(1020 3545)" fill="#fff" stroke="#707070" stroke-width="1"/>
    </clipPath>
  </defs>
  <g id="Enmascarar_grupo_1098887" data-name="Enmascarar grupo 1098887" transform="translate(-1020 -3545)" clip-path="url(#clip-path)">
    <g id="Grupo_1209907" data-name="Grupo 1209907">
      <circle id="Elipse_13155" data-name="Elipse 13155" cx="181.5" cy="181.5" r="181.5" transform="translate(1039 3547)" fill="#fff9e9"/>
      <g id="OBJECTS" transform="translate(976.381 3516.215)">
        <g id="Grupo_1209906" data-name="Grupo 1209906" transform="translate(31.014 77.557)">
          <ellipse id="Elipse_13152" data-name="Elipse 13152" cx="200" cy="31.889" rx="200" ry="31.889" transform="translate(12.605 274.952)" fill="#93451d" opacity="0.24"/>
          <g id="Grupo_1209883" data-name="Grupo 1209883" transform="translate(264.237 4.795)">
            <path id="Trazado_1081055" data-name="Trazado 1081055" d="M324.464,131.8c-6.581,2.053-14.685-.912-16.982-11.165-2.872-12.836,6.28-19.719,1.5-28.306s-5.693,1.576-8.137-5.165c-1.8-4.962,2.932-5.137,6.4-4.385,11.816,2.569,20.965,19.719,25,29.944C336.15,122.61,331.077,129.738,324.464,131.8Z" transform="translate(-300.449 -82.447)" fill="#dbbb35"/>
            <path id="Trazado_1081056" data-name="Trazado 1081056" d="M354.505,244.47c-7.849-18.494-15.411-37.106-22.5-55.908-4.989-13.226-11.938-27.272-14.335-41.325-1.225-7.183-1.306-16.532,6.76-19.514,8.613-3.185,15.63,5.118,28.738,34.273,10.791,24,69.92,151.726,90.492,196.145a17.856,17.856,0,0,1-7.605,23.186,17.454,17.454,0,0,1-24.275-8.353C392.7,330.169,372.826,287.641,354.505,244.47Z" transform="translate(-300.769 -83.308)" fill="#93451d"/>
            <path id="Trazado_1081057" data-name="Trazado 1081057" d="M329.123,182.008s11.852-16.087,27.852-10.959" transform="translate(-301.002 -84.136)" fill="none" stroke="#000" stroke-linecap="round" stroke-linejoin="round" stroke-miterlimit="10" stroke-width="1"/>
            <path id="Trazado_1081058" data-name="Trazado 1081058" d="M307.377,82.785s15.136,9.341,16.131,30.431" transform="translate(-300.583 -82.453)" fill="none" stroke="#000" stroke-linecap="round" stroke-linejoin="round" stroke-miterlimit="10" stroke-width="1"/>
            <path id="Trazado_1081059" data-name="Trazado 1081059" d="M326.564,113.562a2.9,2.9,0,1,1-3.193-2.614A2.93,2.93,0,0,1,326.564,113.562Z" transform="translate(-300.841 -82.996)" stroke="#000" stroke-miterlimit="10" stroke-width="1"/>
          </g>
          <g id="Grupo_1209885" data-name="Grupo 1209885" transform="translate(262.866 103.736)">
            <path id="Trazado_1081060" data-name="Trazado 1081060" d="M443.863,268.575c-8.364,47.51-42.36,99.867-55.581,118.846A8.645,8.645,0,0,1,375.9,389.3l-73.481-56.914a8.625,8.625,0,0,1-1.506-12.177c39.948-50.173,21.488-89.617,10.3-105.677a8.653,8.653,0,0,1,3.337-12.75,224.261,224.261,0,0,1,35.716-13.631c16.727-4.654,35.206-7.053,50.113-1.983C442.034,200.342,450.09,233.106,443.863,268.575Z" transform="translate(-299.051 -183.334)" fill="#f9deb2"/>
            <g id="Grupo_1209884" data-name="Grupo 1209884" transform="translate(28.344 41.982)">
              <line id="Línea_674" data-name="Línea 674" y1="1.285" x2="86.482" transform="translate(10.702)" fill="#fff" stroke="#000" stroke-linecap="round" stroke-linejoin="round" stroke-miterlimit="10" stroke-width="1"/>
              <line id="Línea_675" data-name="Línea 675" x2="85.198" y2="1.284" transform="translate(11.559 12.844)" fill="#fff" stroke="#000" stroke-linecap="round" stroke-linejoin="round" stroke-miterlimit="10" stroke-width="1"/>
              <line id="Línea_676" data-name="Línea 676" x2="83.057" y2="4.709" transform="translate(11.559 26.544)" fill="#fff" stroke="#000" stroke-linecap="round" stroke-linejoin="round" stroke-miterlimit="10" stroke-width="1"/>
              <line id="Línea_677" data-name="Línea 677" x2="81.344" y2="14.128" transform="translate(8.99 40.244)" fill="#fff" stroke="#000" stroke-linecap="round" stroke-linejoin="round" stroke-miterlimit="10" stroke-width="1"/>
              <line id="Línea_678" data-name="Línea 678" x2="75.778" y2="20.121" transform="translate(7.278 55.657)" fill="#fff" stroke="#000" stroke-linecap="round" stroke-linejoin="round" stroke-miterlimit="10" stroke-width="1"/>
              <line id="Línea_679" data-name="Línea 679" x2="68.501" y2="26.544" transform="translate(3.425 68.929)" fill="#fff" stroke="#000" stroke-linecap="round" stroke-linejoin="round" stroke-miterlimit="10" stroke-width="1"/>
              <line id="Línea_680" data-name="Línea 680" x2="63.79" y2="34.678" transform="translate(0 83.057)" fill="#fff" stroke="#000" stroke-linecap="round" stroke-linejoin="round" stroke-miterlimit="10" stroke-width="1"/>
            </g>
            <path id="Trazado_1081061" data-name="Trazado 1081061" d="M444.848,268.111c-.8-57.844-56.654-50.831-56.654-50.831,4.578-27.56-37.379-28.564-37.379-28.564l.45-.566c16.727-4.654,35.206-7.053,50.113-1.983,41.654,14.174,49.709,46.938,43.483,82.408C444.854,268.421,444.846,268.267,444.848,268.111Z" transform="translate(-300.049 -183.334)" fill="#dbbb35"/>
          </g>
          <path id="Trazado_1081062" data-name="Trazado 1081062" d="M51.517,333.73l7.8,45.545c3.223,18.816,22.369,29.791,39.012,22.362l53.3-23.791a26.742,26.742,0,0,1,13.2-2.227l58.4,5.007c18.338,1.572,32.87-15.4,29.426-34.365l-8.138-44.808c-3.946-21.731-28.406-31.731-44.957-18.38L162.9,312.647a26.853,26.853,0,0,1-25.281,4.67L87.076,300.9C67.042,294.4,47.82,312.143,51.517,333.73Z" transform="translate(-31.401 -81.405)" fill="#fff"/>
          <g id="Grupo_1209893" data-name="Grupo 1209893" transform="translate(38.934 23.506)">
            <g id="Grupo_1209886" data-name="Grupo 1209886" transform="translate(47.016 252.765)">
              <path id="Trazado_1081063" data-name="Trazado 1081063" d="M195.149,391.251l-29.4,20.693a3.429,3.429,0,0,0-1.409,3.176,79.493,79.493,0,0,1-.733,20.247c-.589,3.823-1.365,7.315-2.113,10.232a3.384,3.384,0,0,1-6.409.474l-20.42-49.1a3.374,3.374,0,0,1,1.365-4.2,40.027,40.027,0,0,1,7.818-3.722,13.58,13.58,0,0,1,4.024-.733c4.785,0,21.369-13.35,27.778-18.279a3.4,3.4,0,0,1,4.469.316l15.492,15.735A3.4,3.4,0,0,1,195.149,391.251Z" transform="translate(-134.4 -369.348)" fill="#f2b3bf"/>
              <path id="Trazado_1081064" data-name="Trazado 1081064" d="M163.607,433.233c-.589,3.823-1.365,7.315-2.113,10.232a3.384,3.384,0,0,1-6.409.474l-20.42-49.1a3.374,3.374,0,0,1,1.365-4.2,40.026,40.026,0,0,1,7.818-3.722C145.283,398,150.6,430.905,163.607,433.233Z" transform="translate(-134.399 -367.214)"/>
            </g>
            <g id="Grupo_1209887" data-name="Grupo 1209887" transform="translate(31.755 240.618)">
              <path id="Trazado_1081065" data-name="Trazado 1081065" d="M184.287,381.414l-30.731,21.613a3.6,3.6,0,0,0-1.472,3.334,81.124,81.124,0,0,1-.5,19.285,109.805,109.805,0,0,1-2.464,12.571,3.547,3.547,0,0,1-6.714.5L121.067,387.39A3.521,3.521,0,0,1,122.493,383c2.838-1.712,7.525-4.205,11.355-4.611a8.344,8.344,0,0,1,1.036-.059c5,0,22.32-13.938,29.018-19.09a3.535,3.535,0,0,1,4.671.331l16.191,16.447A3.543,3.543,0,0,1,184.287,381.414Z" transform="translate(-120.791 -358.515)" fill="#f2b3bf"/>
              <path id="Trazado_1081066" data-name="Trazado 1081066" d="M151.589,423.495a109.806,109.806,0,0,1-2.464,12.571,3.547,3.547,0,0,1-6.714.5l-21.343-51.324a3.521,3.521,0,0,1,1.426-4.386c2.838-1.712,7.525-4.205,11.355-4.611C134.992,387.491,139.542,422.984,151.589,423.495Z" transform="translate(-120.791 -356.363)"/>
              <path id="Trazado_1081067" data-name="Trazado 1081067" d="M148.254,422.07l2.948-27.022,10.418-7.07" transform="translate(-117.456 -354.937)" fill="none" stroke="#000" stroke-miterlimit="10" stroke-width="1"/>
            </g>
            <g id="Grupo_1209888" data-name="Grupo 1209888" transform="translate(0 181.349)">
              <path id="Trazado_1081068" data-name="Trazado 1081068" d="M109.447,308.46a5.1,5.1,0,0,0-4.139,2.371c-4.486,7.055-17.123,28.846-11.35,42.167,6.651,15.349,15.013,20.432,44.7,14.318a2.686,2.686,0,0,1,3.2,2.648q.005.333.034.705c.268,3.481,28.384,38.826,33.2,42.574,3.009,2.34,8.627-2.625,12.424-6.686a5.126,5.126,0,0,1,7.63.166c3.129,3.617,7.51,7.787,10.2,6.52,4.552-2.142,54.088-64.8,56.766-74.171s-7.765-31.06-19.547-32.935C231.806,304.428,127.446,307.854,109.447,308.46Z" transform="translate(-92.475 -305.664)"/>
              <path id="Trazado_1081069" data-name="Trazado 1081069" d="M175.38,410.4c15.423-13.309,30.527-27.085,44.857-41.567,4.522-4.57,8.973-9.223,13.171-14.094,4.56-5.29,10.485-10.635,11.984-17.753,1.432-6.8-1.585-14.782-6.679-19.378-3.564-3.216-8.7-4.313-13.3-4.979-23.971-3.469-49.944,1.4-73.593,4.858" transform="translate(-85.268 -304.963)" fill="none" stroke="#fff" stroke-linecap="round" stroke-linejoin="round" stroke-miterlimit="10" stroke-width="1"/>
              <path id="Trazado_1081070" data-name="Trazado 1081070" d="M136.537,368.184s37.754-37.487,75.242-42.039" transform="translate(-87.124 -303.177)" fill="none" stroke="#fff" stroke-linecap="round" stroke-linejoin="round" stroke-miterlimit="10" stroke-width="1"/>
            </g>
            <g id="Grupo_1209889" data-name="Grupo 1209889" transform="translate(3.486 94.756)">
              <path id="Trazado_1081071" data-name="Trazado 1081071" d="M172.224,320.751a7.424,7.424,0,0,1-4.054,2.215c-12.862,2.385-70.545,11.906-72.448-8.788-2.142-23.3,20.886-70.154,42.574-79.794s44.984-9.1,59.711,13.388,27.778,53.337,24.367,63.192c-2.41,6.962-11.845,16.884-35.077,3.481C182.025,311.4,175.218,317.575,172.224,320.751Z" transform="translate(-95.583 -228.448)" fill="#9ad69c"/>
              <path id="Trazado_1081072" data-name="Trazado 1081072" d="M175.255,300s-24.367-25.974-63.192-8.033" transform="translate(-93.582 -221.501)" fill="none" stroke="#000" stroke-linecap="round" stroke-linejoin="round" stroke-miterlimit="10" stroke-width="1"/>
              <path id="Trazado_1081073" data-name="Trazado 1081073" d="M128.06,289.134a78.436,78.436,0,0,0,15.263-28.65" transform="translate(-91.639 -224.558)" fill="none" stroke="#000" stroke-linecap="round" stroke-linejoin="round" stroke-miterlimit="10" stroke-width="1"/>
              <path id="Trazado_1081074" data-name="Trazado 1081074" d="M180.589,246.4s14.192,22.76,1.874,64" transform="translate(-85.26 -226.268)" fill="none" stroke="#000" stroke-linecap="round" stroke-linejoin="round" stroke-miterlimit="10" stroke-width="1"/>
            </g>
            <g id="Grupo_1209891" data-name="Grupo 1209891" transform="translate(77.736 122.416)">
              <path id="Trazado_1081075" data-name="Trazado 1081075" d="M195.546,315.167c-5.738-1.158-5.851-9.28-4.232-17.765a.871.871,0,0,1,.7-.72l7.478-1.257c.981-.165.942-1.7-.05-2.005l-5.7-1.77a1.147,1.147,0,0,1-.729-1.369,101.181,101.181,0,0,1,4.491-12.862c4.169-9,12.3-23.82,23-24.3a7.974,7.974,0,0,1,2.5.258,1.132,1.132,0,0,1,.632,1.619,77.786,77.786,0,0,0-6.215,12.546l7.6-11.771a.9.9,0,0,1,1.516.059,13.211,13.211,0,0,1,2.179,6.206,34.272,34.272,0,0,1-.542,10.624A65.059,65.059,0,0,1,217.176,297a82.714,82.714,0,0,1-10.79,12.3C203.841,311.686,199.41,315.946,195.546,315.167Z" transform="translate(-158.317 -253.113)" fill="#8feaff"/>
              <path id="Trazado_1081076" data-name="Trazado 1081076" d="M186.577,320.555c14.859-13.23,22.763-31.978,29.755-50.149" transform="translate(-158.783 -251.013)" fill="none" stroke="#000" stroke-linecap="round" stroke-linejoin="round" stroke-miterlimit="10" stroke-width="1"/>
              <g id="Grupo_1209890" data-name="Grupo 1209890" transform="translate(0 50.033)">
                <path id="Trazado_1081077" data-name="Trazado 1081077" d="M164.681,312.92a4.422,4.422,0,0,1-2.874-4.543c.271-3.559,1.642-8.523,6.934-10.24,8.592-2.786,28.419,9.134,27.336,21.9s-5.92,15.429-16.553,3.89C172.886,316.727,167.667,313.973,164.681,312.92Z" transform="translate(-161.793 -297.729)" fill="#f2b3bf"/>
                <path id="Trazado_1081078" data-name="Trazado 1081078" d="M180.413,315.6s7.981,3.979,10.547,12.855" transform="translate(-159.532 -295.559)" fill="none" stroke="#000" stroke-linecap="round" stroke-linejoin="round" stroke-miterlimit="10" stroke-width="1"/>
                <path id="Trazado_1081079" data-name="Trazado 1081079" d="M181.938,313.413s7.981,3.979,10.547,12.855" transform="translate(-159.347 -295.824)" fill="none" stroke="#000" stroke-linecap="round" stroke-linejoin="round" stroke-miterlimit="10" stroke-width="1"/>
                <path id="Trazado_1081080" data-name="Trazado 1081080" d="M183.316,310.138s7.68,3.179,10.148,10.272" transform="translate(-159.179 -296.222)" fill="none" stroke="#000" stroke-linecap="round" stroke-linejoin="round" stroke-miterlimit="10" stroke-width="1"/>
              </g>
            </g>
            <g id="Grupo_1209892" data-name="Grupo 1209892" transform="translate(13.182)">
              <path id="Trazado_1081081" data-name="Trazado 1081081" d="M207.133,170.742C202.67,159.23,171,144.017,149.2,155.466c-2.006-3.591-7.71-11.093-20.517-11.5-16.869-.536-25.706,16.6-18.208,35.612s-9.64,17.673-5.623,31.863,9.64,5.623,12.585,17.4,21.957,7.765,21.689.268-4.016-2.41-7.765-5.891a8.584,8.584,0,0,1,.209-13.105,26.269,26.269,0,0,0,12.376,11.766c18.208,8.033,18.476,1.071,18.476,1.071l38.022-33.738S212.221,183.863,207.133,170.742Z" transform="translate(-104.229 -143.953)"/>
              <path id="Trazado_1081082" data-name="Trazado 1081082" d="M186.974,173.7a20.95,20.95,0,0,1-14.441,1.674,2.746,2.746,0,0,0-3.132,1.625c-4.485,10.628-21.633,12.938-23.691,13.178a2.709,2.709,0,0,1-.343.019c-1.372-.017-12.261.187-9.5,10.981,2.063,8.065,8.069,8.116,11.48,7.423a2.769,2.769,0,0,1,3.092,1.712l.02.047-.132-.079s5.277,15.58-2.914,27.265a2.674,2.674,0,0,0-.353,2.49c1.681,4.441,7.788,17.891,18.8,13.623,12.188-4.726,7.74-13.38,7.046-14.587a2.94,2.94,0,0,1-.174-.347,8.6,8.6,0,0,1,1.548-9.115,2.8,2.8,0,0,1,2.287-.83,25.99,25.99,0,0,0,9.911-1.1c6.694-2.142,13.656-9.372,14.995-20.886,1.578-13.569-7.318-27.24-11.024-32.263A2.739,2.739,0,0,0,186.974,173.7Z" transform="translate(-100.441 -140.379)" fill="#f2b3bf"/>
              <path id="Trazado_1081083" data-name="Trazado 1081083" d="M144.516,191.847s-6.159-1.071-6.426,4.017,5.355,9.372,8.836,5.891" transform="translate(-100.118 -138.148)" fill="none" stroke="#000" stroke-linecap="round" stroke-linejoin="round" stroke-miterlimit="10" stroke-width="1"/>
              <path id="Trazado_1081084" data-name="Trazado 1081084" d="M170.017,201.176a5.757,5.757,0,1,1-5.756-5.756A5.756,5.756,0,0,1,170.017,201.176Z" transform="translate(-97.638 -137.703)" fill="#d98494"/>
              <path id="Trazado_1081085" data-name="Trazado 1081085" d="M194.114,195.854a4.016,4.016,0,1,1-4.016-4.017A4.015,4.015,0,0,1,194.114,195.854Z" transform="translate(-94.289 -138.138)" fill="#d98494"/>
              <path id="Trazado_1081086" data-name="Trazado 1081086" d="M169.14,192.169c.292,1.495-.142,2.837-.97,3s-1.734-.92-2.025-2.414.142-2.837.97-3S168.849,190.674,169.14,192.169Z" transform="translate(-96.721 -138.393)"/>
              <path id="Trazado_1081087" data-name="Trazado 1081087" d="M184.965,189.958c.286,1.465-.14,2.78-.95,2.938s-1.7-.9-1.985-2.366.14-2.78.951-2.938S184.681,188.493,184.965,189.958Z" transform="translate(-94.792 -138.656)"/>
              <path id="Trazado_1081088" data-name="Trazado 1081088" d="M168.2,182.04a7.8,7.8,0,0,0-7.3,4.3.9.9,0,0,0,1.255,1.192l6.5-3.805A.9.9,0,0,0,168.2,182.04Z" transform="translate(-97.36 -139.328)"/>
              <path id="Trazado_1081089" data-name="Trazado 1081089" d="M187.608,182.1c-2.731-2.815-5.942-2.08-7.907-1.181-.664.3-.639,1.248.037,1.349l7.166,1.075A.772.772,0,0,0,187.608,182.1Z" transform="translate(-95.123 -139.562)"/>
              <path id="Trazado_1081090" data-name="Trazado 1081090" d="M179.4,192.073c1.94-.242,4.786-.338,6.385.843,3.277,2.418-1.619,6.95-4,8.551" transform="translate(-95.101 -138.128)" fill="none" stroke="#000" stroke-linecap="round" stroke-linejoin="round" stroke-miterlimit="10" stroke-width="1"/>
              <path id="Trazado_1081091" data-name="Trazado 1081091" d="M173.277,204.448s8.161,2.881,12.5-2.067" transform="translate(-95.844 -136.858)" fill="none" stroke="#000" stroke-linecap="round" stroke-linejoin="round" stroke-miterlimit="10" stroke-width="1"/>
              <path id="Trazado_1081092" data-name="Trazado 1081092" d="M158.846,216.571s10.13,10.618,24.786,5.867" transform="translate(-97.597 -135.135)" fill="none" stroke="#000" stroke-linecap="round" stroke-linejoin="round" stroke-miterlimit="10" stroke-width="1"/>
            </g>
          </g>
          <g id="Grupo_1209894" data-name="Grupo 1209894" transform="translate(183.674 192.227)">
            <path id="Trazado_1081093" data-name="Trazado 1081093" d="M341.39,382.64l-15.632-84.593V282.7H236.211v15.351L218.41,382.6a1.418,1.418,0,0,0-.109.515c0,4.946,27.574,8.955,61.588,8.955s61.589-4.009,61.589-8.955A1.392,1.392,0,0,0,341.39,382.64Z" transform="translate(-218.301 -273.741)" fill="#5d369f"/>
            <ellipse id="Elipse_13153" data-name="Elipse 13153" cx="44.773" cy="8.955" rx="44.773" ry="8.955" transform="translate(17.91)"/>
            <path id="Trazado_1081094" data-name="Trazado 1081094" d="M329.124,375.927l-12.288-56.433a9.291,9.291,0,0,1-.213-1.975v-.135a9.283,9.283,0,0,0-9.283-9.283H254.3a9.283,9.283,0,0,0-9.283,9.283h0a9.278,9.278,0,0,1-.273,2.235L230.78,375.9a.844.844,0,0,0-.086.349c0,3.356,22.05,6.077,49.25,6.077s49.25-2.72,49.25-6.077A.825.825,0,0,0,329.124,375.927Z" transform="translate(-218.54 -274.231)"/>
            <path id="Trazado_1081095" data-name="Trazado 1081095" d="M236.7,297.21c12.085,10.4,39.625,9.671,58.683,8.106" transform="translate(-218.656 -274.021)" fill="none" stroke="#fff" stroke-linecap="round" stroke-linejoin="round" stroke-miterlimit="10" stroke-width="1"/>
          </g>
          <g id="Grupo_1209895" data-name="Grupo 1209895" transform="translate(272.152 251.32)">
            <path id="Trazado_1081096" data-name="Trazado 1081096" d="M370.051,338.1c-3.159-2.707-9.462-2.934-13.125-3.491a70.172,70.172,0,0,0-13.964-.7,89.757,89.757,0,0,0-14.6,1.784c-2.362.512-5.254,1.072-7.225,2.574-2.384,1.817-1.658,4.906-1.665,7.644a2.09,2.09,0,0,1-1.451,1.966,13.919,13.919,0,0,0,4.439,27.119,2.071,2.071,0,0,1,1.937,1.229c4.013,9.5,11.173,16.685,23.816,15.354,17.969-1.892,24.434-18.632,25.042-34.6a88.972,88.972,0,0,0-.321-11.34c-.193-2.15-.616-4.713-1.97-6.563A5.817,5.817,0,0,0,370.051,338.1ZM313,360.943a9.881,9.881,0,0,1,3.436-7.5,2.051,2.051,0,0,1,3.355,1.429,85.467,85.467,0,0,0,1.872,12.725,2.057,2.057,0,0,1-2.786,2.4A9.909,9.909,0,0,1,313,360.943Z" transform="translate(-308.519 -333.821)" fill="#e26482"/>
            <path id="Trazado_1081097" data-name="Trazado 1081097" d="M368.6,340.446c0,2.417-10.2,4.377-22.791,4.377s-22.791-1.959-22.791-4.377,10.2-4.377,22.791-4.377S368.6,338.028,368.6,340.446Z" transform="translate(-308.799 -333.864)" fill="#aa3154"/>
          </g>
          <g id="Grupo_1209905" data-name="Grupo 1209905" transform="translate(159.445 -45.581)">
            <g id="Grupo_1209896" data-name="Grupo 1209896" transform="translate(34.208 190.655)">
              <path id="Trazado_1081098" data-name="Trazado 1081098" d="M274.182,284.47a19.461,19.461,0,0,1-8.84,1.3,15.413,15.413,0,0,1-7.546-2.733,12.92,12.92,0,0,1-4.716-6.145,11.9,11.9,0,0,1-.381-8.615q1.444-3.772,6.774-7.193a85.332,85.332,0,0,1,15.373-7.2l2.921-1.1-1.066-2.829q-2.136-5.661-5.41-7.292t-8.385.3a27.883,27.883,0,0,0-6.125,3.248,32.8,32.8,0,0,0-5.711,5.176,3.055,3.055,0,0,1-2.481,1.3,2.973,2.973,0,0,1-2.08-1.093,3.764,3.764,0,0,1-.895-2.372,3.377,3.377,0,0,1,1.074-2.542,36.407,36.407,0,0,1,6.8-5.9,35.979,35.979,0,0,1,7.186-3.752q8.579-3.236,14.316-.6t9.075,11.488l9.327,24.735q1.447,3.834-1.931,5.107-3.56,1.342-5.007-2.492l-1.687-4.473a14.725,14.725,0,0,1-3,8.221A16.522,16.522,0,0,1,274.182,284.47Zm-.913-6.017a12.373,12.373,0,0,0,7.517-7.162,14.65,14.65,0,0,0-.163-10.937l-1.031-2.74-2.831,1.066a82.176,82.176,0,0,0-11.379,5.075q-3.987,2.284-5.038,4.609a6.662,6.662,0,0,0,.05,5.248,8.436,8.436,0,0,0,4.908,5.134A10.78,10.78,0,0,0,273.269,278.453Z" transform="translate(-245.611 -235.236)"/>
            </g>
            <g id="Grupo_1209897" data-name="Grupo 1209897" transform="translate(79.535 162.587)" opacity="0.62">
              <path id="Trazado_1081099" data-name="Trazado 1081099" d="M284.41,237.12a1.7,1.7,0,0,1-1.268-1.306q-.257-1.023,1.027-1.916L295,226.1l-4.872-11.371q-.635-1.429.116-2.17A1.7,1.7,0,0,1,292,212.1a2.837,2.837,0,0,1,1.236.643,3.257,3.257,0,0,1,.712,1.151l4.209,10.043,8.857-6.389a3.228,3.228,0,0,1,1.206-.615,2.69,2.69,0,0,1,1.339.076,1.683,1.683,0,0,1,1.29,1.313q.232,1.018-1.064,1.96l-10.048,7.144,5.263,12.3a1.841,1.841,0,0,1-.167,2.156,1.743,1.743,0,0,1-1.811.445,2.881,2.881,0,0,1-1.947-1.794l-4.58-10.854-9.5,6.919a3.919,3.919,0,0,1-1.2.59A2.6,2.6,0,0,1,284.41,237.12Z" transform="translate(-283.099 -212.022)"/>
            </g>
            <g id="Grupo_1209898" data-name="Grupo 1209898" transform="translate(89.69 104.898)">
              <path id="Trazado_1081100" data-name="Trazado 1081100" d="M293.4,200.109q-2.6-.941-1.646-3.6l10.909-30.225q.959-2.659,3.511-1.736,2.608.941,1.647,3.6l-.715,1.981a8.984,8.984,0,0,1,4.638-2.243,10.779,10.779,0,0,1,5.568.566,11.424,11.424,0,0,1,5.332,3.751,11.308,11.308,0,0,1,2.263,5.971,17.461,17.461,0,0,1-1.15,7.508,17.645,17.645,0,0,1-3.919,6.537,11.074,11.074,0,0,1-5.555,3.149,11.548,11.548,0,0,1-6.489-.545,10.861,10.861,0,0,1-4.586-3.04,8.744,8.744,0,0,1-2.147-4.574l-4.045,11.2A2.5,2.5,0,0,1,293.4,200.109Zm14.56-9.824a6.882,6.882,0,0,0,6.083-.455q2.8-1.64,4.4-6.07t.481-7.454a7.519,7.519,0,0,0-10.474-3.78q-2.793,1.614-4.392,6.042t-.49,7.481A6.876,6.876,0,0,0,307.962,190.284Z" transform="translate(-291.497 -164.312)"/>
            </g>
            <g id="Grupo_1209899" data-name="Grupo 1209899" transform="translate(56.085 84.614)" opacity="0.62">
              <path id="Trazado_1081101" data-name="Trazado 1081101" d="M274.37,175.461a20.4,20.4,0,0,1-5.013-.637,14.962,14.962,0,0,1-4.682-2.077,1.743,1.743,0,0,1-.97-1.579,1.889,1.889,0,0,1,.747-1.524,1.636,1.636,0,0,1,1.829,0,15.462,15.462,0,0,0,4.182,1.856,15.9,15.9,0,0,0,4.017.526,8.089,8.089,0,0,0,4.764-1.163,3.7,3.7,0,0,0,1.607-3.158,3.1,3.1,0,0,0-1.053-2.465,7.576,7.576,0,0,0-3.324-1.413l-5.042-1.109q-6.87-1.5-6.87-7.092a7.024,7.024,0,0,1,2.908-5.873,12.235,12.235,0,0,1,7.619-2.216,16.576,16.576,0,0,1,4.6.637,11.668,11.668,0,0,1,3.989,2.022,1.668,1.668,0,0,1,.832,1.607,2,2,0,0,1-.858,1.468,1.532,1.532,0,0,1-1.8-.138,12.917,12.917,0,0,0-3.38-1.634,11.507,11.507,0,0,0-3.38-.527,7.711,7.711,0,0,0-4.71,1.219,3.837,3.837,0,0,0-1.607,3.213q0,3.1,4.1,3.989l5.042,1.053a11.387,11.387,0,0,1,5.373,2.465,5.921,5.921,0,0,1,1.828,4.571,6.837,6.837,0,0,1-2.936,5.845A13,13,0,0,1,274.37,175.461Z" transform="translate(-263.704 -147.536)"/>
            </g>
            <g id="Grupo_1209900" data-name="Grupo 1209900" transform="translate(18.957 39.974)" opacity="0.62">
              <path id="Trazado_1081102" data-name="Trazado 1081102" d="M251,150.176a5.1,5.1,0,0,1-3.768-1.33,5.175,5.175,0,0,1-1.33-3.823V118.929h-8.7q-4.211,0-4.21-4.156t4.21-4.156H264.8q4.208,0,4.21,4.156t-4.21,4.156h-8.7v26.094a5.24,5.24,0,0,1-1.3,3.823A5.074,5.074,0,0,1,251,150.176Z" transform="translate(-232.998 -110.617)"/>
            </g>
            <g id="Grupo_1209901" data-name="Grupo 1209901" transform="translate(32.982 129.938)" opacity="0.62">
              <path id="Trazado_1081103" data-name="Trazado 1081103" d="M263.324,226.838q-3.181,1.6-4.783-1.58l-13.407-26.622q-1.6-3.183,1.579-4.785l16.7-8.411q2.432-1.224,3.611,1.114a2.406,2.406,0,0,1-1.207,3.658l-14.13,7.116,4.571,9.078,13.1-6.6q2.432-1.224,3.635,1.161t-1.232,3.611l-13.1,6.6,4.831,9.592,14.131-7.116q2.432-1.224,3.635,1.161a2.386,2.386,0,0,1-1.232,3.612Z" transform="translate(-244.597 -185.02)"/>
            </g>
            <g id="Grupo_1209902" data-name="Grupo 1209902" transform="translate(88.289 65.071)">
              <path id="Trazado_1081104" data-name="Trazado 1081104" d="M291.521,133.513a1.249,1.249,0,0,1-.873-.282,1.011,1.011,0,0,1-.31-.788q0-1.07,1.184-1.07t1.184,1.07Q292.706,133.513,291.521,133.513Zm0,11.328q-.938,0-.938-1.033v-7.326q0-1.014.938-1.014c.64,0,.958.339.958,1.014v7.326Q292.48,144.843,291.521,144.842Z" transform="translate(-290.338 -131.373)"/>
            </g>
            <g id="Grupo_1209903" data-name="Grupo 1209903" transform="translate(96.176 210.036)">
              <path id="Trazado_1081105" data-name="Trazado 1081105" d="M303.465,253.526a1.076,1.076,0,0,1-.449-1.606,1.179,1.179,0,1,1,.449,1.606Zm-6.121,10.852q-.814-.459-.258-1.45l3.959-7.019q.548-.972,1.364-.513.833.47.284,1.441l-3.959,7.019Q298.177,264.849,297.345,264.378Z" transform="translate(-296.861 -251.265)"/>
            </g>
            <g id="Grupo_1209904" data-name="Grupo 1209904" transform="translate(12.37 116.456)">
              <path id="Trazado_1081106" data-name="Trazado 1081106" d="M231.335,197.275a2.339,2.339,0,0,0-1.871-.3,2.57,2.57,0,0,0-1.457,1.3q-1.233,2.186.863,3.366t3.328-1Q233.431,198.456,231.335,197.275Zm13.037-23.116q-1.661-.938-2.851,1.17l-8.431,14.951q-1.168,2.069.495,3.008,1.7.958,2.864-1.114l8.431-14.951Q246.067,175.115,244.371,174.159Z" transform="translate(-227.55 -173.87)"/>
            </g>
            <path id="Trazado_1081107" data-name="Trazado 1081107" d="M234.888,152.6a4.012,4.012,0,1,1-4.012-4.012A4.013,4.013,0,0,1,234.888,152.6Z" transform="translate(-215.324 -62.702)" fill="#222221"/>
            <path id="Trazado_1081108" data-name="Trazado 1081108" d="M287.976,107.475a4.012,4.012,0,1,1-4.012-4.012A4.012,4.012,0,0,1,287.976,107.475Z" transform="translate(-204.221 -72.139)" fill="#222221"/>
            <circle id="Elipse_13154" data-name="Elipse 13154" cx="4.012" cy="4.012" r="4.012" transform="translate(31.867 176.286)" fill="#222221"/>
            <path id="Trazado_1081109" data-name="Trazado 1081109" d="M231.583,95.415a7.132,7.132,0,1,1-7.132-7.131A7.132,7.132,0,0,1,231.583,95.415Z" transform="translate(-217.32 -75.314)" fill="#222221"/>
            <path id="Trazado_1081110" data-name="Trazado 1081110" d="M256.365,79.868a2.311,2.311,0,1,1-2.311-2.311A2.311,2.311,0,0,1,256.365,79.868Z" transform="translate(-210.121 -77.557)" fill="#222221"/>
          </g>
        </g>
      </g>
    </g>
  </g>
</svg>
