<svg xmlns="http://www.w3.org/2000/svg" xmlns:xlink="http://www.w3.org/1999/xlink" width="110" height="110" viewBox="0 0 110 110">
  <defs>
    <filter id="Trazado_982547" x="0" y="0" width="110" height="110" filterUnits="userSpaceOnUse">
      <feOffset dy="3" input="SourceAlpha"/>
      <feGaussianBlur stdDeviation="3" result="blur"/>
      <feFlood flood-opacity="0.161"/>
      <feComposite operator="in" in2="blur"/>
      <feComposite in="SourceGraphic"/>
    </filter>
  </defs>
  <g id="Grupo_1209255" data-name="Grupo 1209255" transform="translate(-378 -2270.846)">
    <g id="Grupo_1206296" data-name="Grupo 1206296" transform="translate(387 2276.846)">
      <g id="Grupo_1185076" data-name="Grupo 1185076" transform="translate(0 0)">
        <g id="Grupo_1183626" data-name="Grupo 1183626">
          <g id="Grupo_1179602" data-name="Grupo 1179602" transform="translate(0 0)">
            <g id="Grupo_1171898" data-name="Grupo 1171898">
              <g id="Grupo_1164700" data-name="Grupo 1164700">
                <g id="Grupo_1160931" data-name="Grupo 1160931">
                  <g id="Grupo_1160749" data-name="Grupo 1160749">
                    <g id="Grupo_1158891" data-name="Grupo 1158891">
                      <g id="Grupo_1157406" data-name="Grupo 1157406">
                        <g id="Grupo_1155793" data-name="Grupo 1155793">
                          <g id="Grupo_1154704" data-name="Grupo 1154704">
                            <g id="Grupo_1150790" data-name="Grupo 1150790">
                              <g id="Grupo_1154214" data-name="Grupo 1154214">
                                <g id="Grupo_1152583" data-name="Grupo 1152583">
                                  <g id="Grupo_1146973" data-name="Grupo 1146973">
                                    <g id="Grupo_1146954" data-name="Grupo 1146954">
                                      <g transform="matrix(1, 0, 0, 1, -9, -6)" filter="url(#Trazado_982547)">
                                        <g id="Trazado_982547-2" data-name="Trazado 982547" transform="translate(9 6)" fill="#eaf9f8">
                                          <path d="M 46.00000381469727 90.49986267089844 C 39.99188232421875 90.49986267089844 34.16428375244141 89.32350158691406 28.67905807495117 87.00344848632812 C 23.38021659851074 84.76223754882812 18.62104415893555 81.55341339111328 14.53376388549805 77.46613311767578 C 10.44647026062012 73.37885284423828 7.237643718719482 68.61968994140625 4.996417045593262 63.32085037231445 C 2.676363706588745 57.83565139770508 1.500003814697266 52.00805282592773 1.500003814697266 45.99993133544922 C 1.500003814697266 39.99182510375977 2.676363706588745 34.16422653198242 4.996417045593262 28.67901039123535 C 7.237643718719482 23.38017082214355 10.44647026062012 18.62101173400879 14.53376388549805 14.53373146057129 C 18.62104415893555 10.44645118713379 23.38021659851074 7.237624645233154 28.67905807495117 4.996411323547363 C 34.16428375244141 2.676357984542847 39.99188232421875 1.499997973442078 46.00000381469727 1.499997973442078 C 52.00812530517578 1.499997973442078 57.83573532104492 2.676357984542847 63.32094955444336 4.996411323547363 C 68.61980438232422 7.237624645233154 73.37896728515625 10.44645118713379 77.46625518798828 14.53373146057129 C 81.55353546142578 18.62101173400879 84.76236724853516 23.38017082214355 87.00359344482422 28.67901039123535 C 89.32364654541016 34.16422653198242 90.5 39.99182510375977 90.5 45.99993133544922 C 90.5 52.00805282592773 89.32364654541016 57.83565139770508 87.00359344482422 63.32085037231445 C 84.76236724853516 68.61968994140625 81.55353546142578 73.37885284423828 77.46625518798828 77.46613311767578 C 73.37896728515625 81.55341339111328 68.61980438232422 84.76223754882812 63.32094955444336 87.00344848632812 C 57.83573532104492 89.32350158691406 52.00812530517578 90.49986267089844 46.00000381469727 90.49986267089844 Z" stroke="none"/>
                                          <path d="M 46.00000381469727 3 C 40.19371795654297 3 34.56270217895508 4.136505126953125 29.26338958740234 6.377914428710938 C 24.14333343505859 8.54351806640625 19.54443359375 11.64438629150391 15.59442138671875 15.59439086914062 C 11.64440155029297 19.54440307617188 8.543533325195312 24.14330291748047 6.3779296875 29.26334381103516 C 4.136505126953125 34.56266021728516 3.000007629394531 40.19366073608398 3.000007629394531 45.99993133544922 C 3.000007629394531 51.80620193481445 4.136505126953125 57.43720245361328 6.3779296875 62.73651885986328 C 8.543533325195312 67.85655975341797 11.64440155029297 72.45545959472656 15.59442138671875 76.40547180175781 C 19.54443359375 80.35547637939453 24.14333343505859 83.45634460449219 29.26338958740234 85.6219482421875 C 34.56270217895508 87.86335754394531 40.19371795654297 88.99986267089844 46.00000381469727 88.99986267089844 C 51.80628967285156 88.99986267089844 57.43730545043945 87.86335754394531 62.73663330078125 85.6219482421875 C 67.85667419433594 83.45634460449219 72.45558929443359 80.35547637939453 76.40560150146484 76.40547180175781 C 80.35560607910156 72.45545959472656 83.45648956298828 67.85655975341797 85.62208557128906 62.73651885986328 C 87.86350250244141 57.43720245361328 89 51.80620193481445 89 45.99993133544922 C 89 40.19366073608398 87.86350250244141 34.56266021728516 85.62208557128906 29.26334381103516 C 83.45648956298828 24.14330291748047 80.35560607910156 19.54440307617188 76.40560150146484 15.59439086914062 C 72.45558929443359 11.64438629150391 67.85667419433594 8.54351806640625 62.73663330078125 6.377914428710938 C 57.43730545043945 4.136505126953125 51.80628967285156 3 46.00000381469727 3 M 46.00000381469727 0 C 71.40510559082031 0 92 20.59487152099609 92 45.99993133544922 C 92 71.40499114990234 71.40510559082031 91.99986267089844 46.00000381469727 91.99986267089844 C 20.59491729736328 91.99986267089844 7.62939453125e-06 71.40499114990234 7.62939453125e-06 45.99993133544922 C 7.62939453125e-06 20.59487152099609 20.59491729736328 0 46.00000381469727 0 Z" stroke="none" fill="#1f7069"/>
                                        </g>
                                      </g>
                                    </g>
                                  </g>
                                </g>
                              </g>
                            </g>
                          </g>
                        </g>
                      </g>
                    </g>
                  </g>
                </g>
              </g>
            </g>
          </g>
        </g>
      </g>
    </g>
    <g id="Page-1" transform="translate(405.953 2296.299)">
      <g id="_001---Speech-Bubble" data-name="001---Speech-Bubble">
        <path id="Shape" d="M44.736,43.19a.873.873,0,0,0-.648.993l1.14,7.089a.885.885,0,0,1-1.513.77L36.3,43.769a.885.885,0,0,0-.658-.294h-24.9A9.734,9.734,0,0,1,1,33.742V10.734A9.734,9.734,0,0,1,10.734,1H42.591a9.734,9.734,0,0,1,9.734,9.734V33.742a9.828,9.828,0,0,1-7.589,9.448Z" transform="translate(-0.115 -0.115)" fill="#e91e63"/>
        <path id="Shape-2" data-name="Shape" d="M47.655,1H45a9.734,9.734,0,0,1,9.734,9.734V33.742a9.828,9.828,0,0,1-7.589,9.448.873.873,0,0,0-.647.993l1.041,6.476,1.239,1.383a.885.885,0,0,0,1.513-.77l-1.138-7.088a.873.873,0,0,1,.647-.993,9.828,9.828,0,0,0,7.589-9.449V10.734A9.734,9.734,0,0,0,47.655,1Z" transform="translate(-5.179 -0.115)" fill="#ad1457"/>
        <circle id="Oval" cx="3.5" cy="3.5" r="3.5" transform="translate(9 19)" fill="#ffeb3a"/>
        <circle id="Oval-2" data-name="Oval" cx="3.5" cy="3.5" r="3.5" transform="translate(23 19)" fill="#ffeb3a"/>
        <circle id="Oval-3" data-name="Oval" cx="3.5" cy="3.5" r="3.5" transform="translate(37 19)" fill="#ffeb3a"/>
        <path id="Shape-3" data-name="Shape" d="M4.885,11.964A.885.885,0,0,1,4,11.079,7.087,7.087,0,0,1,11.079,4a.885.885,0,1,1,0,1.77A5.315,5.315,0,0,0,5.77,11.079a.885.885,0,0,1-.885.885Z" transform="translate(-0.46 -0.46)" fill="#f5f5f5"/>
        <ellipse id="Oval-4" data-name="Oval" cx="1" cy="0.5" rx="1" ry="0.5" transform="translate(13 4)" fill="#f5f5f5"/>
        <g id="Grupo_1209254" data-name="Grupo 1209254">
          <path id="Shape-4" data-name="Shape" d="M10.619,44.245h24.9l7.433,8.285a1.75,1.75,0,0,0,1.28.565,1.77,1.77,0,0,0,.809-.2,1.741,1.741,0,0,0,.94-1.881L44.849,43.93a10.763,10.763,0,0,0,8.246-10.3V10.619A10.63,10.63,0,0,0,42.476,0H10.619A10.63,10.63,0,0,0,0,10.619V33.627A10.63,10.63,0,0,0,10.619,44.245ZM1.77,10.619A8.859,8.859,0,0,1,10.619,1.77H42.476a8.859,8.859,0,0,1,8.849,8.849V33.627a8.978,8.978,0,0,1-6.909,8.584A1.764,1.764,0,0,0,43.1,44.2l1.159,7.128L36.841,43.06a1.77,1.77,0,0,0-1.317-.584h-24.9A8.859,8.859,0,0,1,1.77,33.627Z"/>
          <path id="Shape-5" data-name="Shape" d="M13.425,28.849A4.425,4.425,0,1,0,9,24.425,4.425,4.425,0,0,0,13.425,28.849Zm0-7.079a2.655,2.655,0,1,1-2.655,2.655A2.655,2.655,0,0,1,13.425,21.77Z" transform="translate(-1.036 -2.302)"/>
          <path id="Shape-6" data-name="Shape" d="M29.425,28.849A4.425,4.425,0,1,0,25,24.425,4.425,4.425,0,0,0,29.425,28.849Zm0-7.079a2.655,2.655,0,1,1-2.655,2.655A2.655,2.655,0,0,1,29.425,21.77Z" transform="translate(-2.877 -2.302)"/>
          <path id="Shape-7" data-name="Shape" d="M45.425,28.849A4.425,4.425,0,1,0,41,24.425,4.425,4.425,0,0,0,45.425,28.849Zm0-7.079a2.655,2.655,0,1,1-2.655,2.655A2.655,2.655,0,0,1,45.425,21.77Z" transform="translate(-4.719 -2.302)"/>
        </g>
      </g>
    </g>
  </g>
</svg>
