<svg xmlns="http://www.w3.org/2000/svg" xmlns:xlink="http://www.w3.org/1999/xlink" width="113" height="113" viewBox="0 0 113 113">
  <defs>
    <filter id="Trazado_982547" x="0" y="-0.001" width="113" height="113" filterUnits="userSpaceOnUse">
      <feOffset dy="3" input="SourceAlpha"/>
      <feGaussianBlur stdDeviation="3" result="blur"/>
      <feFlood flood-opacity="0.161"/>
      <feComposite operator="in" in2="blur"/>
      <feComposite in="SourceGraphic"/>
    </filter>
  </defs>
  <g id="Grupo_1209930" data-name="Grupo 1209930" transform="translate(-324 -4051.933)">
    <g id="Grupo_1208111" data-name="Grupo 1208111" transform="translate(0 -2664)">
      <g id="Grupo_1206680" data-name="Grupo 1206680" transform="translate(0.598 -5840.811)">
        <g id="Grupo_1174764" data-name="Grupo 1174764" transform="translate(-0.598 10594.568)">
          <g id="Grupo_1173868" data-name="Grupo 1173868" transform="translate(333 1968.175)">
            <g id="Grupo_1172010" data-name="Grupo 1172010">
              <g id="Grupo_1171046" data-name="Grupo 1171046">
                <g id="Grupo_1148525" data-name="Grupo 1148525">
                  <g transform="matrix(1, 0, 0, 1, -9, -6)" filter="url(#Trazado_982547)">
                    <g id="Trazado_982547-2" data-name="Trazado 982547" transform="translate(9 6)" fill="#f4fdfe">
                      <path d="M 47.5 93.5 C 41.28937149047852 93.5 35.26533508300781 92.28397369384766 29.59518623352051 89.88570404052734 C 24.11771965026855 87.56893157958984 19.19813346862793 84.25196075439453 14.97309303283691 80.02691650390625 C 10.74804019927979 75.80186462402344 7.431066513061523 70.88229370117188 5.114293098449707 65.40481567382812 C 2.716026782989502 59.73468017578125 1.5 53.71062850952148 1.5 47.5 C 1.5 41.28937149047852 2.716026782989502 35.26533508300781 5.114293098449707 29.59518623352051 C 7.431066513061523 24.11771965026855 10.74804019927979 19.19813346862793 14.97309303283691 14.97309303283691 C 19.19813346862793 10.74804019927979 24.11771965026855 7.431066513061523 29.59518623352051 5.114293098449707 C 35.26533508300781 2.716026782989502 41.28937149047852 1.5 47.5 1.5 C 53.71062850952148 1.5 59.73468017578125 2.716026782989502 65.40481567382812 5.114293098449707 C 70.88229370117188 7.431066513061523 75.80186462402344 10.74804019927979 80.02691650390625 14.97309303283691 C 84.25196075439453 19.19813346862793 87.56893157958984 24.11771965026855 89.88570404052734 29.59518623352051 C 92.28397369384766 35.26533508300781 93.5 41.28937149047852 93.5 47.5 C 93.5 53.71062850952148 92.28397369384766 59.73468017578125 89.88570404052734 65.40481567382812 C 87.56893157958984 70.88229370117188 84.25196075439453 75.80186462402344 80.02691650390625 80.02691650390625 C 75.80186462402344 84.25196075439453 70.88229370117188 87.56893157958984 65.40481567382812 89.88570404052734 C 59.73468017578125 92.28397369384766 53.71062850952148 93.5 47.5 93.5 Z" stroke="none"/>
                      <path d="M 47.5 3 C 41.49121475219727 3 35.66376876831055 4.176155090332031 30.17950439453125 6.495796203613281 C 24.88084411621094 8.736953735351562 20.12152099609375 11.94598388671875 16.03375244140625 16.03375244140625 C 11.94598388671875 20.12152099609375 8.736953735351562 24.88084411621094 6.495796203613281 30.17950439453125 C 4.176155090332031 35.66376876831055 3 41.49121475219727 3 47.5 C 3 53.50878524780273 4.176155090332031 59.33623123168945 6.495796203613281 64.82049560546875 C 8.736953735351562 70.11915588378906 11.94598388671875 74.87847900390625 16.03375244140625 78.96624755859375 C 20.12152099609375 83.05401611328125 24.88084411621094 86.26304626464844 30.17950439453125 88.50419616699219 C 35.66376876831055 90.82384490966797 41.49121475219727 92 47.5 92 C 53.50878524780273 92 59.33623123168945 90.82384490966797 64.82049560546875 88.50419616699219 C 70.11915588378906 86.26304626464844 74.87847900390625 83.05401611328125 78.96624755859375 78.96624755859375 C 83.05401611328125 74.87847900390625 86.26304626464844 70.11915588378906 88.50419616699219 64.82049560546875 C 90.82384490966797 59.33623123168945 92 53.50878524780273 92 47.5 C 92 41.49121475219727 90.82384490966797 35.66376876831055 88.50419616699219 30.17950439453125 C 86.26304626464844 24.88084411621094 83.05401611328125 20.12152099609375 78.96624755859375 16.03375244140625 C 74.87847900390625 11.94598388671875 70.11915588378906 8.736953735351562 64.82049560546875 6.495796203613281 C 59.33623123168945 4.176155090332031 53.50878524780273 3 47.5 3 M 47.5 0 C 73.7335205078125 0 95 21.2664794921875 95 47.5 C 95 73.7335205078125 73.7335205078125 95 47.5 95 C 21.2664794921875 95 0 73.7335205078125 0 47.5 C 0 21.2664794921875 21.2664794921875 0 47.5 0 Z" stroke="none" fill="#56838a"/>
                    </g>
                  </g>
                </g>
              </g>
            </g>
          </g>
        </g>
      </g>
    </g>
    <g id="password_12715515" transform="translate(353.998 4074.284)">
      <g id="Grupo_1209908" data-name="Grupo 1209908" transform="translate(2.002 2.002)">
        <path id="Trazado_1081111" data-name="Trazado 1081111" d="M39.477,57.1H6.176A4.179,4.179,0,0,1,2,52.927V6.176A4.179,4.179,0,0,1,6.176,2H31.2a.834.834,0,0,1,.59.245L43.407,13.858a.834.834,0,0,1,.245.59v9.918a.834.834,0,0,1-.835.835H29.092a.835.835,0,0,0-.835.835v8.2a.835.835,0,0,0,.835.835H31.83a.834.834,0,0,1,.835.835V39.95L35.8,35.428a.833.833,0,0,1,.686-.359h6.328a.834.834,0,0,1,.835.835V52.927A4.179,4.179,0,0,1,39.478,57.1ZM6.176,3.671a2.507,2.507,0,0,0-2.5,2.5V52.927a2.507,2.507,0,0,0,2.5,2.5h33.3a2.507,2.507,0,0,0,2.5-2.5V36.739H36.926l-4.41,6.353A.835.835,0,0,1,31,42.616V36.739h-1.9a2.507,2.507,0,0,1-2.5-2.5v-8.2a2.507,2.507,0,0,1,2.5-2.5h12.89V14.794L30.858,3.671Z" transform="translate(-2.002 -2.002)"/>
      </g>
      <g id="Grupo_1209909" data-name="Grupo 1209909" transform="translate(31.204 2.836)">
        <path id="Trazado_1081112" data-name="Trazado 1081112" d="M46.472,14.553H38.2a3.339,3.339,0,0,1-3.339-3.339V2.941" transform="translate(-34.86 -2.941)" fill="#ffcc2e"/>
      </g>
      <g id="Grupo_1209910" data-name="Grupo 1209910" transform="translate(30.369 2.002)">
        <path id="Trazado_1081113" data-name="Trazado 1081113" d="M46.368,15.283H38.094a4.179,4.179,0,0,1-4.174-4.174V2.837a.835.835,0,0,1,1.425-.59L46.958,13.858a.835.835,0,0,1-.59,1.425ZM35.59,4.852v6.257a2.507,2.507,0,0,0,2.5,2.5h6.258Z" transform="translate(-33.92 -2.002)"/>
      </g>
      <g id="Grupo_1209912" data-name="Grupo 1209912" transform="translate(27.422 24.367)">
        <g id="Grupo_1209911" data-name="Grupo 1209911" transform="translate(0)">
          <path id="Trazado_1081114" data-name="Trazado 1081114" d="M57.778,27.166h-25.5a1.675,1.675,0,0,0-1.67,1.67v8.2a1.675,1.675,0,0,0,1.67,1.67h2.738v6.712L39.671,38.7H57.778a1.675,1.675,0,0,0,1.67-1.67v-8.2a1.675,1.675,0,0,0-1.67-1.67ZM36.073,35.131a2.087,2.087,0,1,1,2.087-2.087A2.083,2.083,0,0,1,36.073,35.131Zm8.916,0a2.087,2.087,0,1,1,2.087-2.087,2.083,2.083,0,0,1-2.087,2.087Zm9,0a2.087,2.087,0,1,1,2.087-2.087A2.083,2.083,0,0,1,53.988,35.131Z" transform="translate(-30.604 -27.166)" fill="#fd8d65"/>
        </g>
      </g>
      <g id="Grupo_1209913" data-name="Grupo 1209913" transform="translate(26.587 23.532)">
        <path id="Trazado_1081115" data-name="Trazado 1081115" d="M34.908,46.146a.824.824,0,0,1-.249-.038.834.834,0,0,1-.585-.8V39.434h-1.9a2.507,2.507,0,0,1-2.5-2.5v-8.2a2.507,2.507,0,0,1,2.5-2.5H57.674a2.507,2.507,0,0,1,2.5,2.5v8.2a2.507,2.507,0,0,1-2.5,2.5H40l-4.41,6.353a.834.834,0,0,1-.686.359ZM32.169,27.9a.835.835,0,0,0-.835.835v8.2a.835.835,0,0,0,.835.835h2.739a.834.834,0,0,1,.835.835v4.045l3.138-4.522a.833.833,0,0,1,.686-.359H57.674a.835.835,0,0,0,.835-.835v-8.2a.835.835,0,0,0-.835-.835Z" transform="translate(-29.665 -26.226)"/>
      </g>
      <g id="Grupo_1209914" data-name="Grupo 1209914" transform="translate(26.587 23.532)">
        <path id="Trazado_1081116" data-name="Trazado 1081116" d="M34.908,46.146a.824.824,0,0,1-.249-.038.834.834,0,0,1-.585-.8V39.434h-1.9a2.507,2.507,0,0,1-2.5-2.5v-8.2a2.507,2.507,0,0,1,2.5-2.5H57.674a2.507,2.507,0,0,1,2.5,2.5v8.2a2.507,2.507,0,0,1-2.5,2.5H40l-4.41,6.353a.834.834,0,0,1-.686.359ZM32.169,27.9a.835.835,0,0,0-.835.835v8.2a.835.835,0,0,0,.835.835h2.739a.834.834,0,0,1,.835.835v4.045l3.138-4.522a.833.833,0,0,1,.686-.359H57.674a.835.835,0,0,0,.835-.835v-8.2a.835.835,0,0,0-.835-.835Z" transform="translate(-29.665 -26.226)"/>
      </g>
      <g id="Grupo_1209920" data-name="Grupo 1209920" transform="translate(29.969 27.322)">
        <g id="Grupo_1209917" data-name="Grupo 1209917" transform="translate(8.916)">
          <g id="Grupo_1209915" data-name="Grupo 1209915" transform="translate(9)">
            <path id="Trazado_1081117" data-name="Trazado 1081117" d="M56.55,36.335a2.922,2.922,0,1,1,2.922-2.922A2.926,2.926,0,0,1,56.55,36.335Zm0-4.174A1.252,1.252,0,1,0,57.8,33.413,1.254,1.254,0,0,0,56.55,32.161Z" transform="translate(-53.628 -30.491)"/>
          </g>
          <g id="Grupo_1209916" data-name="Grupo 1209916">
            <path id="Trazado_1081118" data-name="Trazado 1081118" d="M46.423,36.335a2.922,2.922,0,1,1,2.922-2.922A2.925,2.925,0,0,1,46.423,36.335Zm0-4.174a1.252,1.252,0,1,0,1.252,1.252A1.254,1.254,0,0,0,46.423,32.161Z" transform="translate(-43.501 -30.491)"/>
          </g>
        </g>
        <g id="Grupo_1209919" data-name="Grupo 1209919" transform="translate(0)">
          <g id="Grupo_1209918" data-name="Grupo 1209918">
            <path id="Trazado_1081119" data-name="Trazado 1081119" d="M36.392,36.335a2.922,2.922,0,1,1,2.922-2.922A2.925,2.925,0,0,1,36.392,36.335Zm0-4.174a1.252,1.252,0,1,0,1.252,1.252A1.254,1.254,0,0,0,36.392,32.161Z" transform="translate(-33.47 -30.491)"/>
          </g>
        </g>
      </g>
      <g id="Grupo_1209921" data-name="Grupo 1209921" transform="translate(7.353 8.642)">
        <path id="Trazado_1081120" data-name="Trazado 1081120" d="M25.955,15.831H8.857A.835.835,0,0,1,8.023,15V10.309a.835.835,0,0,1,.835-.835h17.1a.835.835,0,0,1,.835.835V15A.835.835,0,0,1,25.955,15.831Z" transform="translate(-8.023 -9.474)" fill="#c383ff"/>
      </g>
      <g id="Grupo_1209922" data-name="Grupo 1209922" transform="translate(6.517 7.807)">
        <path id="Trazado_1081121" data-name="Trazado 1081121" d="M25.85,16.561H8.752a1.672,1.672,0,0,1-1.67-1.67V10.2a1.672,1.672,0,0,1,1.67-1.67h17.1a1.672,1.672,0,0,1,1.67,1.67v4.688a1.672,1.672,0,0,1-1.67,1.67ZM8.752,10.2v4.688h17.1V10.2Z" transform="translate(-7.083 -8.534)"/>
      </g>
      <g id="Grupo_1209923" data-name="Grupo 1209923" transform="translate(6.518 21.497)">
        <path id="Trazado_1081122" data-name="Trazado 1081122" d="M22.795,25.607H7.918a.835.835,0,0,1,0-1.67H22.795a.835.835,0,0,1,0,1.67Z" transform="translate(-7.083 -23.938)"/>
      </g>
      <g id="Grupo_1209924" data-name="Grupo 1209924" transform="translate(6.518 28.342)">
        <path id="Trazado_1081123" data-name="Trazado 1081123" d="M22.795,33.309H7.918a.835.835,0,0,1,0-1.67H22.795a.835.835,0,0,1,0,1.67Z" transform="translate(-7.083 -31.64)"/>
      </g>
      <g id="Grupo_1209925" data-name="Grupo 1209925" transform="translate(6.518 35.188)">
        <path id="Trazado_1081124" data-name="Trazado 1081124" d="M22.795,41.011H7.918a.835.835,0,1,1,0-1.67H22.795a.835.835,0,1,1,0,1.67Z" transform="translate(-7.083 -39.342)"/>
      </g>
      <g id="Grupo_1209926" data-name="Grupo 1209926" transform="translate(6.518 42.033)">
        <path id="Trazado_1081125" data-name="Trazado 1081125" d="M25.85,48.713H7.918a.835.835,0,0,1,0-1.67H25.85a.835.835,0,0,1,0,1.67Z" transform="translate(-7.083 -47.043)"/>
      </g>
      <g id="Grupo_1209927" data-name="Grupo 1209927" transform="translate(6.518 48.878)">
        <path id="Trazado_1081126" data-name="Trazado 1081126" d="M37.822,56.415H7.918a.835.835,0,1,1,0-1.67h29.9a.835.835,0,1,1,0,1.67Z" transform="translate(-7.083 -54.745)"/>
      </g>
    </g>
  </g>
</svg>
